<?xml version="1.0" encoding="UTF-8"?>
<svg width="144px" height="222px" viewBox="0 0 144 222" version="1.1" xmlns="http://www.w3.org/2000/svg" xmlns:xlink="http://www.w3.org/1999/xlink">
    <title>Rectangle Copy 9</title>
    <defs>
        <linearGradient x1="50%" y1="0%" x2="50%" y2="100%" id="linearGradient-1">
            <stop stop-color="#99E880" offset="0%"></stop>
            <stop stop-color="#8099E8" offset="100%"></stop>
        </linearGradient>
    </defs>
    <g id="Web" stroke="none" stroke-width="1" fill="none" fill-rule="evenodd">
        <g id="Homepage_desktopV3" transform="translate(-1776.000000, -6522.000000)" stroke="url(#linearGradient-1)">
            <g id="Rectangle-Copy-9" transform="translate(0.000000, 6510.000000)">
                <path d="M1945.89696,7.0069443 C1960.50493,7.0069443 1975.1129,12.5796976 1986.25841,23.7252043 C1997.40392,34.870711 2002.97667,49.4786827 2002.97667,64.0866544 C2002.97667,78.6946262 1997.40392,93.3025979 1986.25841,104.448105 L1986.25841,104.448105 L1873.94116,216.765356 C1862.79565,227.910862 1848.18768,233.483616 1833.57971,233.483616 C1818.97174,233.483616 1804.36377,227.910862 1793.21826,216.765356 C1782.07275,205.619849 1776.5,191.011877 1776.5,176.403905 C1776.5,161.795934 1782.07275,147.187962 1793.21826,136.042455 L1793.21826,136.042455 L1905.53551,23.7252043 C1916.68102,12.5796976 1931.28899,7.0069443 1945.89696,7.0069443 Z" transform="translate(1889.738336, 120.245280) scale(-1, -1) translate(-1889.738336, -120.245280) "></path>
            </g>
        </g>
    </g>
</svg>