<svg xmlns="http://www.w3.org/2000/svg" xmlns:xlink="http://www.w3.org/1999/xlink" width="124px" height="150px" viewBox="0 0 124 150"><title>Rectangle Copy 9</title><defs><linearGradient x1="50%" y1="0%" x2="50%" y2="100%" id="linearGradient-1"><stop stop-color="#99E880" offset="0%"></stop><stop stop-color="#8099E8" offset="100%"></stop></linearGradient></defs><g id="Web" stroke="none" stroke-width="1" fill="none" fill-rule="evenodd"><g id="Homepage_desktopV3" transform="translate(0.000000, -15557.000000)" stroke="url(#linearGradient-1)"><path d="M86.0314625,15557.5 C95.6204975,15557.5 105.209532,15561.1581 112.525719,15568.4743 C119.841906,15575.7905 123.5,15585.3795 123.5,15594.9685 C123.5,15604.5576 119.841906,15614.1466 112.525719,15621.4628 L112.525719,15621.4628 L38.4627944,15695.5257 C31.1466074,15702.8419 21.5575724,15706.5 11.9685375,15706.5 C2.37950253,15706.5 -7.20953242,15702.8419 -14.5257195,15695.5257 C-21.8419065,15688.2095 -25.5,15678.6205 -25.5,15669.0315 C-25.5,15659.4424 -21.8419065,15649.8534 -14.5257195,15642.5372 L-14.5257195,15642.5372 L59.5372056,15568.4743 C66.8533926,15561.1581 76.4424276,15557.5 86.0314625,15557.5 Z" id="Rectangle-Copy-9" transform="translate(49.000000, 15632.000000) scale(-1, -1) translate(-49.000000, -15632.000000) "></path></g></g></svg>