<svg xmlns="http://www.w3.org/2000/svg" xmlns:xlink="http://www.w3.org/1999/xlink" width="100px" height="100px" viewBox="0 0 100 100"><title>Artboard</title><g id="Artboard" stroke="none" stroke-width="1" fill="none" fill-rule="evenodd"><g id="Group-3"><polygon id="Fill-1" fill="#00655E" points="0 100 100 100 100 0 0 0"></polygon><g id="Group-11" transform="translate(17.661445, 13.778405)" fill="#FFFFFF"><path d="M64.7417969,24.760612 L63.6324219,21.3354167 C62.6851562,20.6464193 60.8394531,19.9335069 59.8125,19.7941406 C58.3511719,20.383355 57.0546875,21.1243056 55.5402344,22.1736762 L56.3171875,24.4736328 L59.6414062,25.092947 L59.6296875,25.211697 L57.7660156,25.6693793 L55.98125,26.8882161 L54.7367187,23.0144097 L52.5195312,23.331901 L54.0300781,27.8439887 L58.0019531,28.5890625 L60.5285156,26.93852 L64.7417969,24.760612 Z M62.1332031,23.1249132 L59.6917969,24.4847656 L58.3121094,24.2423177 L58.0796875,23.5294054 C58.4574219,23.4687934 59.0527344,23.0626519 59.8984375,22.5913628 C60.6613281,22.1666667 61.3679688,21.7357856 61.7597656,22.0227648 L62.1332031,23.1249132 Z M58.9480469,18.3345052 L61.2964844,17.4743924 L60.1859375,15.8514757 L57.0804687,16.4604818 L57.0511719,16.3536892 L58.4242187,15.7731337 L58.9867187,15.220204 L57.6675781,12.8979818 L55.5019531,13.6009983 L56.0160156,14.4755425 L52.0554687,18.367079 L53.81875,20.3664497 L57.2050781,17.0389757 L58.0539062,16.8835286 L58.9480469,18.3345052 Z M54.0289063,13.2496962 L55.3480469,11.1340495 L52.6894531,8.59288194 L49.3449219,9.5 C48.3511719,10.7320313 47.3519531,12.4555556 46.7636719,13.8504557 L50.6394531,16.99898 L52.459375,15.7665365 L49.7945313,13.6570747 C49.8539063,13.4410156 49.90625,13.3577257 50.0304688,13.1276476 L54.0289063,13.2496962 Z M52.5167969,11.1880642 L51.6632813,12.5574002 L50.3621094,12.505447 C50.7972656,11.7772786 51.0945313,11.2705295 51.8128906,10.5407118 L52.5167969,11.1880642 Z M46.8605469,11.0845703 C47.5722656,9.41382378 47.9296875,8.09149306 48.2585938,6.32467448 L45.8289063,5.05677083 L43.4046875,7.20251736 L43.3449219,7.12953559 L44.3253906,5.6031033 L45.6136719,1.41510417 L43.2621094,0 L41.7464844,1.60394965 L42.6632813,2.16182726 L39.9027344,11.1365234 L43.0097656,12.7759332 C44.0703125,12.6518229 45.8347656,11.8469618 46.8605469,11.0845703 L46.8605469,11.0845703 Z M45.5328125,7.25282118 C45.2785156,7.70514323 45.1570312,8.04654948 44.8515625,9.03819444 C44.5128906,10.1407552 44.3144531,10.8384115 43.9933594,10.9720052 L42.6933594,10.2656901 L43.1871094,9.30332031 L43.6859375,7.68164063 L44.7011719,6.79390191 L45.5328125,7.25282118 Z M37.8835938,6.8578125 L39.5804688,3.76206597 L34.9296875,3.02853733 L33.8488281,5.15531684 L36.9894531,5.54661458 L36.1078125,6.05789931 L35.7054688,6.77081163 L34.4515625,6.72050781 L34.1710938,7.53732639 L35.2679688,7.58144531 L33.5378906,10.7423394 L38.3644531,11.3835069 L39.2875,9.28352865 L36.1453125,8.94171007 L37.0609375,8.34919705 L37.4308594,7.66803385 L39.1390625,7.73689236 L39.16875,6.9093533 L37.8835938,6.8578125 Z M32.4761719,11.2152778 L33.0210938,8.95531684 L32.0464844,8.97593316 L30.91875,3.50848524 L28.3902344,4.08945313 L29.3648438,8.81306424 L28.9824219,9.91727431 L28.2355469,9.95355903 L27.1246094,4.56692708 L24.5097656,4.57476128 L23.9648438,6.83472222 L24.9394531,6.8141059 L26.04375,12.1681641 L28.8496094,11.9978733 L29.9875,8.72070313 L30.0894531,8.74791667 L29.7648438,10.3642361 L29.9414063,11.221875 L32.4761719,11.2152778 Z M21.0886719,12.1475477 L22.9488281,8.40980903 L21.7277344,6.22942708 L18.3972656,7.63463542 L17.7,11.2045573 C18.3121094,12.6876953 19.3398437,14.3926649 20.26875,15.5632595 L24.6511719,13.2707248 L24.4015625,11.003342 L21.4355469,12.6044054 C21.2777344,12.4526693 21.2300781,12.3673177 21.0886719,12.1475477 L21.0886719,12.1475477 Z M20.7054688,11.5599826 C20.2765625,10.827691 19.9757813,10.3230035 19.6699219,9.32146267 L20.5300781,8.93841146 L21.3203125,10.34898 L20.7054688,11.5599826 Z M15.3746094,12.8621094 L16.7496094,11.9182943 L15.9347656,9.43938802 L14.396875,10.6112196 L14.9738281,13.8896267 L14.8730469,13.9205512 L14.3226563,12.4708116 L13.7992188,11.8770616 L11.5992188,13.2699002 L12.2652344,15.5558377 L13.09375,15.0132161 L16.7804688,19.1933811 L18.6742188,17.3321398 L15.521875,13.7576823 L15.3746094,12.8621094 Z M13.71875,19.1999783 L10.1527344,18.3782118 L8.77070312,19.8044488 L7.03242188,17.5082031 L8.30625,16.0147569 L7.00546875,14.0108507 L5.67109375,15.6778863 L5.88203125,17.1556641 L8.61054687,20.839388 L10.0414062,21.7320747 L10.5710938,21.2743924 L14.15625,22.1270833 L15.6519531,20.3676866 L14.4078125,18.3604818 L13.71875,19.1999783 Z M13.1832031,24.3849826 L4.50234375,18.9678385 L2.47539062,21.3185113 L3.72773437,23.3112847 L4.59023437,22.2920139 L11.8261719,26.8078125 L13.1832031,24.3849826 Z M2.61914063,32.4447266 C2.20546875,32.692947 1.82070313,32.9939453 1.57851563,33.3852431 L1.57851563,34.4610026 L2.91132813,34.9801215 L2.91132813,35.1829861 L2.846875,35.2431858 L1.72109375,35.0403212 L1.40039063,36.0257812 L2.65507813,36.2138021 C3.03242188,35.9503255 3.3890625,35.6645833 3.70234375,35.2959635 L3.70234375,34.1072266 L2.41953125,33.6260417 L2.41953125,33.5431641 L2.51210938,33.4380208 L3.44570313,33.5959418 L3.81640625,32.6179036 L2.61914063,32.4447266 Z M2.26640625,39.878559 L1.01914063,39.6455946 L0,41.3080946 L0.39921875,41.5336372 L1.17578125,40.1869792 L1.09023437,40.9316406 L1.09023437,43.7902995 L2.26640625,43.7902995 L2.26640625,39.878559 Z M3.8625,41.405816 L2.9359375,42.1578993 L2.9359375,43.0382161 L3.47070313,43.737934 L4.85351563,43.8884332 L5.85117188,42.8650391 C5.97929688,42.3162326 5.9578125,41.69898 5.86523438,41.3905599 L4.99570313,40.8640191 L5.83007813,40.1045139 L5.83007813,39.3973741 L5.31640625,38.8027995 L4.01953125,38.6601345 L3.06445313,39.562717 C2.95039063,39.9239149 2.96484375,40.4805556 3.02890625,40.886697 L3.8625,41.405816 Z M4.93164062,39.6678602 L4.7890625,39.8859809 L4.7890625,40.5856988 L4.68984375,40.6759983 L3.98359375,40.2471788 C3.9625,39.9540148 3.99804687,39.7280599 4.06914062,39.5701389 L4.93164062,39.6678602 Z M3.98359375,42.6168186 L3.98359375,41.7744358 L4.1546875,41.5938368 L4.88164062,42.0375 C4.97421875,42.4287977 4.93867187,42.7071181 4.88867187,42.9854384 L3.82695312,42.8650391 L3.98359375,42.6168186 Z M5.41992188,35.1306207 C5.39140625,35.032487 5.39140625,34.9875434 5.38398438,34.8671441 L6.93085938,33.8590061 L6.93085938,32.7082031 L5.31992188,32.4447266 L4.26523438,33.6709852 C4.1796875,34.400803 4.20820313,35.3186415 4.31523438,36.0031033 L6.53164063,36.1762804 L6.93085938,35.228342 L5.41992188,35.1306207 Z M5.36289062,34.5438802 C5.35546875,34.1525825 5.3484375,33.881684 5.4484375,33.4153429 L5.86875,33.4755425 L5.86875,34.220204 L5.36289062,34.5438802 Z M7.57226563,32.1589844 L8.57695313,32.241862 L8.78359375,31.7977865 L8.78359375,30.9479818 L7.80703125,30.8651042 L7.57226563,31.2786675 L7.57226563,32.1589844 Z M8.790625,32.7308811 L7.62890625,32.4748264 L7.18007812,33.4528646 L7.61484375,33.5431641 L7.61484375,35.9730035 L8.7765625,36.23648 L9.22539062,35.2885417 L8.790625,35.1982422 L8.790625,32.7308811 Z M9.35742188,41.3905599 L8.48789063,40.8640191 L9.321875,40.1045139 L9.321875,39.3973741 L8.80898437,38.8027995 L7.51132813,38.6601345 L6.55664062,39.562717 C6.44257812,39.9239149 6.45664062,40.4805556 6.52070313,40.886697 L7.3546875,41.405816 L6.428125,42.1578993 L6.428125,43.0382161 L6.96289062,43.737934 L8.3453125,43.8884332 L9.34296875,42.8650391 C9.47148438,42.3162326 9.45,41.69898 9.35742188,41.3905599 L9.35742188,41.3905599 Z M8.42382812,39.6678602 L8.28125,39.8859809 L8.28125,40.5856988 L8.18125,40.6759983 L7.47578125,40.2471788 C7.45429688,39.9540148 7.490625,39.7280599 7.56132813,39.5701389 L8.42382812,39.6678602 Z M8.38085938,42.9854384 L7.31914063,42.8650391 L7.47578125,42.6168186 L7.47578125,41.7744358 L7.646875,41.5938368 L8.37382813,42.0375 C8.46679688,42.4287977 8.43085938,42.7071181 8.38085938,42.9854384 L8.38085938,42.9854384 Z M10.95,35.1607205 L10.95,33.2722656 L11.6128906,33.2722656 L11.6914062,32.6327474 L10.95,32.6327474 L10.95,31.7829427 L10.0449219,31.7829427 L9.78828125,32.6327474 L9.4109375,32.6327474 L9.33242187,33.2722656 L9.77421875,33.2722656 L9.77421875,35.9730035 L11.278125,36.23648 L11.7269531,35.2885417 L10.95,35.1607205 Z M11.1390625,41.1274957 L10.9609375,40.6834201 L12.3503906,40.9242188 L12.8210938,39.9614366 L11.025,39.6530165 L9.99882813,41.0371962 L9.99882813,42.6320747 L10.9535156,42.8048394 L11.3882813,42.3083984 L11.8019531,42.3838542 L11.6738281,42.6093967 C11.7089844,43.083572 11.7089844,43.4295139 11.6882813,43.5721788 C11.6664063,43.7078342 11.6378906,43.7754557 11.5597656,43.8282335 L10.2980469,43.6550564 L9.96328125,44.6330946 L11.4242188,44.8211155 C11.8871094,44.4974392 12.5074219,43.9407986 12.7851563,43.4971354 C12.8851563,42.8275174 12.8636719,42.256033 12.778125,41.6614583 L11.7378906,41.4660156 L11.1390625,42.1657335 L11.1390625,41.1274957 Z M8.26757813,52.8874566 L5.77734375,54.9276476 L7.41210938,57.1509115 L9.90234375,55.1103082 L11.0660156,56.6928168 L8.77382813,58.5705512 L10.103125,61.1071832 L12.3375,60.5546658 L11.8457031,59.6162109 L16.3925781,55.890842 L17.5109375,52.983941 L15.8988281,50.0085938 L11.7238281,50.0551866 L9.27109375,52.0652778 L8.74257813,51.3457682 L7.73867188,52.167947 L8.26757813,52.8874566 Z M10.9058594,54.2881293 L13.4703125,52.1869141 L13.8742188,50.9548828 L15.0675781,53.4139974 L12.0695313,55.870638 L10.9058594,54.2881293 Z M16.0882813,58.9874132 L10.6605469,66.4851563 L12.7164063,68.143533 L14.7828125,65.2894097 L15.6222656,66.1746745 C16.7789063,66.2950738 18.2480469,66.1466363 19.3964844,65.7602865 C20.4972656,64.6482422 21.6878906,63.0038845 22.3636719,61.7157769 L20.5734375,59.771658 L17.2695313,60.9822483 L17.2109375,60.8721571 L18.5925781,59.9452474 L19.1355469,59.1952257 L17.465625,57.1397786 L15.4425781,58.2163628 L16.0882813,58.9874132 Z M17.5164062,61.5141493 L18.9132812,60.9744141 L19.4976562,61.612283 C18.81875,62.1689236 18.1851562,63.6166016 17.3914062,64.3307509 C17.1796875,64.5142361 17.0195312,64.5719618 16.865625,64.5938151 L15.9828125,63.6318576 L17.5164062,61.5141493 Z M22.5589844,64.0334635 C21.8546875,65.5516493 21.4671875,67.0022135 21.1363281,68.9756076 L24.0578125,70.476888 C25.1320312,70.298763 26.7320312,69.4114366 27.5613281,68.7339844 C28.2980469,67.053342 28.5789062,65.7924479 28.8859375,63.8978082 L25.9738281,62.365191 C24.9203125,62.5849609 23.3832031,63.372092 22.5589844,64.0334635 L22.5589844,64.0334635 Z M23.5476563,67.9089193 L24.0660156,67.3357856 C24.1785156,66.8521267 24.3003906,65.9553168 24.5285156,65.1978733 C24.6949219,64.6457682 24.8347656,64.3451823 25.1550781,64.2095269 L26.4738281,64.9125434 L25.9421875,65.5854601 C25.8351563,66.1054036 25.6398438,67.0822049 25.5113281,67.508138 C25.3308594,68.1076606 25.1925781,68.5125651 24.8914063,68.6375 L23.5476563,67.9089193 Z M29.5378906,65.5219618 L30.5085937,65.5800998 L30.1878906,71.5138889 L33.4605469,72.2911241 L34.559375,70.2678385 L32.8679687,69.884375 L33.0925781,65.7359592 L34.5484375,65.8233724 L34.7964844,64.4288845 L33.1679687,64.3311632 L33.2691406,62.4633247 L31.2804687,62.34375 L30.6160156,64.1773655 L29.7859375,64.127474 L29.5378906,65.5219618 Z M35.4609375,60.2928385 L34.7972656,62.4472439 L35.8226563,62.5119792 L37.2554688,72.1447483 L39.8121094,71.7208767 L39.0921875,66.8801649 L39.5539063,65.7141059 L40.3476563,65.7165799 L41.153125,71.130013 L43.7636719,71.2838108 L44.4332031,69.0613715 L43.459375,69.0217882 L42.6535156,63.6087674 L39.8300781,63.6240234 L38.5015625,66.8607856 L38.3703125,66.8319227 L38.8121094,64.9991319 L38.1335938,60.4363281 L35.4609375,60.2928385 Z M45.5390625,61.4993056 L44.6996094,65.034592 C45.2515625,66.5441189 46.2105469,68.2932075 47.0910156,69.5042101 L51.5613281,67.409592 L51.403125,65.133138 L48.3757812,66.599783 C48.2238281,66.4414497 48.1796875,66.3540365 48.0472656,66.1280816 L50.0554687,62.4769314 L48.9230469,60.244184 L45.5390625,61.4993056 Z M46.7429687,63.2413845 L47.6179687,62.897092 L48.3507812,64.3418837 L47.6875,65.5240234 C47.2886719,64.7731771 47.0085937,64.2552951 46.7429687,63.2413845 L46.7429687,63.2413845 Z M48.6976563,57.7582682 L54.6324219,65.2300347 L56.6152344,63.4751736 L54.6910156,61.0523438 L54.7972656,60.3101562 L58.0507813,62.0105903 L59.6964844,60.9645182 L59.1324219,58.7853733 L58.3703125,59.2434679 L55.1085938,57.5071615 L55.40625,55.4075955 L54.7324219,55.0748481 L52.509375,57.0424696 L54.5054688,57.9326823 L54.1769531,60.4054036 L49.6730469,54.7346788 L47.303125,56.0541233 L47.7875,58.2613064 L48.6976563,57.7582682 Z M62.6679688,34.0507378 L64.5125,32.735829 L63.3308594,28.8710937 L61.4867188,30.1855903 L62.6679688,34.0507378 Z M57.0328125,55.2327691 C58.2292969,56.2442057 59.8914063,57.2469835 61.2296875,57.8254774 L64.0949219,53.6411892 L62.8726563,51.7580946 L60.9554688,54.6336589 C60.7492188,54.5771701 60.6691406,54.525217 60.4472656,54.4002821 L60.4425781,50.1780599 L58.3992188,48.8499566 L56.0730469,51.7317057 L57.0328125,55.2327691 Z M57.94375,52.5980035 L58.5359375,51.835612 L59.8578125,52.6953125 L59.8480469,54.069184 C59.1457031,53.6317057 58.6566406,53.3335938 57.94375,52.5980035 L57.94375,52.5980035 Z" id="Fill-7"></path><path d="M49.8778125,44.1910807 L49.8778125,43.9300781 L49.8778125,43.4356988 L49.8778125,31.0514757 L49.8778125,30.7034722 L49.8778125,30.2960938 L41.4297656,30.2960938 L41.4297656,21.3745877 L41.1828906,21.3745877 L40.7141406,21.3745877 L28.9821094,21.3745877 L28.6524219,21.3745877 L28.266875,21.3745877 L28.266875,30.2960938 L19.8184375,30.2960938 L19.8184375,30.5570964 L19.8184375,31.0514757 L19.8184375,43.4356988 L19.8184375,43.7837023 L19.8184375,44.1910807 L28.266875,44.1910807 L28.266875,53.1220703 L28.51375,53.1220703 L28.9821094,53.1220703 L40.7141406,53.1220703 L41.0438281,53.1220703 L41.4297656,53.1220703 L41.4297656,44.1910807 L49.8778125,44.1910807 Z M28.9821094,52.3666884 L28.9821094,50.9837457 L28.9821094,51.2117622 L29.2840625,50.9973524 L40.4051562,50.9973524 L40.7141406,51.1977431 L40.7141406,52.188151 L28.9821094,52.188151 L28.9821094,52.3666884 L40.7141406,52.3666884 L28.9821094,52.3666884 Z M30.3707812,48.2401259 L39.3778125,48.2401259 L39.8117969,48.6846137 L39.8117969,49.4309245 L29.8930469,49.4309245 L29.8930469,48.6846137 L30.3707812,48.2401259 Z M40.4192187,50.0679688 L40.4192187,50.8138672 L29.3121875,50.8138672 L29.3121875,50.0679688 L29.8828906,49.6234809 L39.7957812,49.6234809 L40.4192187,50.0679688 Z M22.5477344,38.49273 C22.5352344,38.5145833 22.5422656,38.5413845 22.4957812,38.535612 C22.4492969,38.5298394 22.4246875,38.536849 22.4094531,38.512934 C22.3942187,38.4886068 22.4207812,38.452322 22.4207812,38.452322 L22.4785937,38.397895 C22.4785937,38.397895 22.5457812,38.378928 22.5465625,38.416862 C22.5469531,38.454796 22.5598437,38.4700521 22.5477344,38.49273 L22.5477344,38.49273 Z M35.2364062,23.5269314 L34.9004687,23.4201389 L35.0016406,23.7743273 L34.6684375,23.7743273 L34.7696094,23.4201389 L34.4340625,23.5269314 L34.4340625,23.175217 L34.7696094,23.2820095 L34.6684375,22.9282335 L35.0016406,22.9282335 L34.9004687,23.2820095 L35.2364062,23.175217 L35.2364062,23.5269314 Z M47.685625,37.9171224 L47.7285938,37.8985677 L47.7633594,37.9447483 C47.7633594,37.9447483 47.754375,37.9628906 47.7457813,37.9905165 C47.7375781,38.01773 47.7110156,38.0272135 47.6766406,38.01773 C47.641875,38.0086589 47.6504688,37.9905165 47.6328906,37.9628906 C47.6157031,37.9352648 47.685625,37.9171224 47.685625,37.9171224 L47.685625,37.9171224 Z M48.7215625,32.5952257 L48.7914844,32.5857422 C48.7914844,32.5857422 48.7821094,32.6319227 48.7649219,32.6500651 C48.7477344,32.6686198 48.7215625,32.6686198 48.6785937,32.6686198 C48.6348437,32.6686198 48.6957812,32.6042969 48.7215625,32.5952257 L48.7215625,32.5952257 Z M49.1621875,43.4356988 L40.7141406,43.4356988 L40.7227344,43.4356988 L47.2110156,40.411697 C47.2328906,40.3717014 47.2223437,40.3321181 47.2223437,40.3321181 L47.1188281,40.2533637 C47.1188281,40.2533637 47.1875781,40.1750217 47.1875781,40.1280165 C47.1875781,40.0954427 47.1641406,40.0418403 47.1485156,40.0105035 L39.3430469,43.4266276 L39.3430469,48.0479818 L39.3367969,48.0479818 L39.3430469,48.0657118 L30.3535937,48.0657118 L30.3551562,48.0479818 L30.3535937,48.0479818 L30.3535937,43.4344618 L25.1813281,41.165842 L25.1703906,41.1712023 L25.1653125,41.1588325 L23.1680469,40.2826389 L23.1680469,40.353559 C23.1680469,40.353559 23.1852344,40.3902561 23.2114062,40.4083984 C23.2375781,40.4269531 23.3242969,40.5090061 23.3242969,40.5090061 C23.3242969,40.5090061 23.3414844,40.5737413 23.3157031,40.610026 C23.2899219,40.6463108 23.298125,40.6648655 23.2809375,40.711046 C23.2746875,40.7267144 23.2782031,40.7333116 23.2821094,40.7382595 L28.9758594,43.4356988 L28.9821094,43.4356988 L28.9821094,43.4493056 L28.9821094,43.9383247 L28.9821094,43.4493056 L28.9821094,43.4356988 L20.5340625,43.4356988 L20.5340625,33.9356988 C20.5590625,33.9431207 20.5770312,33.9538411 20.5821094,33.9690972 C20.6039844,34.0379557 20.6692187,34.2210286 20.6692187,34.2210286 L20.5871875,34.3513238 C20.5942187,34.3632813 20.6008594,34.3760634 20.6067187,34.3904948 L20.6692187,34.4729601 L20.6582812,34.4774957 C20.6938281,34.514605 20.7383594,34.5459418 20.7383594,34.5459418 C20.7383594,34.5459418 20.7383594,34.4729601 20.7903125,34.4548177 C20.8422656,34.436263 20.9121875,34.5096571 20.9121875,34.5096571 L20.929375,34.6378906 L21.0332812,34.6193359 C21.0332812,34.6193359 21.1028125,34.4548177 21.1551562,34.5277995 C21.2071094,34.6011936 21.27625,34.5826389 21.3110156,34.6378906 C21.3457812,34.69273 21.4149219,34.7846788 21.3457812,34.8209635 C21.27625,34.8576606 21.2071094,34.8391059 21.2071094,34.8943576 C21.2071094,34.949197 21.1723437,35.0592882 21.1723437,35.0592882 C21.1723437,35.0592882 21.3457812,35.0774306 21.3110156,35.13227 C21.27625,35.1875217 21.2938281,35.2790582 21.2590625,35.2976128 C21.2242969,35.3157552 21.1379687,35.388737 21.1379687,35.388737 C21.1379687,35.388737 21.1723437,35.4621311 21.2242969,35.388737 C21.27625,35.3157552 21.3110156,35.3520399 21.3805469,35.388737 C21.4500781,35.425434 21.5711719,35.388737 21.5711719,35.388737 C21.5711719,35.388737 21.6930469,35.4806858 21.6758594,35.5540799 C21.6582812,35.6270616 21.6059375,35.681901 21.6059375,35.681901 C21.6059375,35.681901 21.710625,35.681901 21.6758594,35.7552951 C21.6407031,35.8286892 21.6235156,35.8653863 21.6758594,35.883941 C21.7278125,35.901671 21.7969531,35.8653863 21.8141406,35.9569227 C21.8836719,35.9569227 22.0227344,35.9569227 22.0746875,36.0117622 C22.1266406,36.0670139 22.1442187,36.1037109 22.1442187,36.1766927 C22.1442187,36.2496745 22.1442187,36.3783203 22.091875,36.4150174 C22.0399219,36.4513021 21.9883594,36.5246962 21.9883594,36.5246962 C21.9883594,36.5246962 22.0399219,36.5428385 22.0746875,36.5795356 C22.1094531,36.6162326 22.0746875,36.6896267 22.0746875,36.6896267 L22.091875,36.7993056 C22.091875,36.7993056 22.21375,36.7626085 22.21375,36.7993056 C22.21375,36.8360026 22.1961719,36.9093967 22.1961719,36.9093967 L22.1442187,36.9827908 L22.1785937,37.0557726 L22.2313281,37.1110243 C22.2313281,37.1110243 22.1785937,37.1291667 22.2485156,37.1844184 C22.3176562,37.2392578 22.3176562,37.2578125 22.3176562,37.2940972 C22.3176562,37.3307943 22.404375,37.3489366 22.3871875,37.4041884 C22.3696094,37.4590278 22.3348437,37.4957248 22.3176562,37.5509766 C22.3000781,37.6054036 22.3696094,37.6606554 22.3696094,37.6606554 C22.3696094,37.6606554 22.4391406,37.6973524 22.4215625,37.7340495 L22.3696094,37.8437283 C22.3524219,37.8804253 22.404375,37.9538194 22.404375,37.9538194 L22.404375,38.082053 C22.404375,38.082053 22.5430469,38.1368924 22.5090625,38.1735894 C22.4742969,38.2102865 22.404375,38.3018229 22.404375,38.3018229 L22.3871875,38.4115017 L22.2657031,38.4663411 L22.2485156,38.5764323 C22.2485156,38.5764323 22.3000781,38.5582899 22.3871875,38.6131293 C22.4742969,38.6679688 22.5090625,38.7228082 22.4914844,38.7595052 C22.4742969,38.7962023 22.560625,38.8147569 22.560625,38.8147569 C22.560625,38.8147569 22.6645312,38.7962023 22.6473437,38.851454 C22.6301562,38.9062934 22.5778125,38.9425781 22.5778125,38.9425781 L22.5332812,39.0526693 L28.5254687,39.0526693 L29.1977344,38.7368273 L29.1977344,38.2469835 L29.1297656,38.2469835 L29.1297656,38.0964844 L29.1317187,38.0964844 C29.13875,38.0952474 29.2340625,38.078342 29.2742969,38.0148438 L29.3047656,36.3556424 L29.3055469,36.3556424 L29.4090625,35.8212674 L29.3969531,35.8187934 L29.3496875,35.7734375 L29.3969531,35.7280816 L29.4282031,35.7206597 L29.598125,34.8428168 L29.7684375,35.7206597 L29.7996875,35.7280816 L29.8469531,35.7734375 L29.7996875,35.8187934 L29.7875781,35.8212674 L29.8910937,36.3556424 L29.8914844,36.3556424 L29.9219531,38.0148438 C29.9625781,38.078342 30.0575,38.0952474 30.0649219,38.0964844 L30.066875,38.0964844 L30.066875,38.2469835 L29.9989062,38.2469835 L29.9989062,38.3599609 L31.7610156,37.5324219 L31.7633594,37.5377821 L31.7633594,37.5324219 L32.5895312,37.5324219 L32.5895312,37.2211155 L32.7114062,37.2211155 L32.7114062,34.5826389 L32.754375,34.4915148 L32.754375,31.8010851 L32.7547656,31.8010851 L32.9176562,30.6111111 C32.8774219,30.5929688 32.8477344,30.5455512 32.8477344,30.4890625 C32.8477344,30.4857639 32.8485156,30.4824653 32.8485156,30.4791667 L33.0586719,30.4791667 C33.0590625,30.4824653 33.0594531,30.4857639 33.0594531,30.4890625 C33.0594531,30.5455512 33.0301562,30.5929688 32.9899219,30.6111111 L33.1532031,31.8010851 L33.1535937,31.8010851 L33.1535937,31.8056207 L33.1535937,32.2863932 L33.5785937,31.3248481 L33.5785937,28.7894531 L33.5789844,28.7894531 L33.7422656,27.5998915 C33.7016406,27.5813368 33.6727344,27.5343316 33.6727344,27.4774306 C33.6727344,27.4741319 33.673125,27.4708333 33.6735156,27.4675347 L33.8836719,27.4675347 C33.8836719,27.4708333 33.8844531,27.4741319 33.8844531,27.4774306 C33.8844531,27.5343316 33.8547656,27.5813368 33.8141406,27.5998915 L33.9770312,28.7894531 L33.9778125,28.7894531 L33.9778125,28.7935764 L33.9778125,28.7939887 L33.9778125,29.5448351 L34.1164844,29.5448351 L34.2907031,28.3358941 L34.2907031,26.3575521 L34.4985156,26.5954644 L34.7504687,24.2377821 C34.6785937,24.2196398 34.6285937,24.1796441 34.6285937,24.1330512 C34.6285937,24.1301649 34.6297656,24.1272786 34.6301562,24.1243924 L35.0403125,24.1243924 C35.0407031,24.1272786 35.041875,24.1301649 35.041875,24.1330512 C35.041875,24.1796441 34.991875,24.2196398 34.92,24.2377821 L35.1723437,26.5954644 L35.3805469,26.3575521 L35.3805469,28.3358941 L35.5535937,29.5448351 L35.6926562,29.5448351 L35.6926562,28.7939887 L35.6926562,28.7935764 L35.6926562,28.7894531 L35.6930469,28.7894531 L35.8559375,27.5998915 C35.8153125,27.5813368 35.7864062,27.5343316 35.7864062,27.4774306 C35.7864062,27.4741319 35.7871875,27.4708333 35.7871875,27.4675347 L35.9969531,27.4675347 C35.9973437,27.4708333 35.9977344,27.4741319 35.9977344,27.4774306 C35.9977344,27.5343316 35.9688281,27.5813368 35.9278125,27.5998915 L36.0910937,28.7894531 L36.0914844,28.7894531 L36.0914844,31.3248481 L36.516875,32.2863932 L36.516875,31.8056207 L36.516875,31.8010851 L36.5172656,31.8010851 L36.6805469,30.6111111 C36.6399219,30.5929688 36.610625,30.5455512 36.610625,30.4890625 C36.610625,30.4857639 36.6110156,30.4824653 36.6114062,30.4791667 L36.8215625,30.4791667 C36.8215625,30.4824653 36.8223437,30.4857639 36.8223437,30.4890625 C36.8223437,30.5455512 36.7930469,30.5929688 36.7524219,30.6111111 L36.9153125,31.8010851 L36.9160937,31.8010851 L36.9160937,34.4915148 L36.9598437,34.5826389 L36.9598437,37.2211155 L37.0809375,37.2211155 L37.0809375,37.5324219 L37.9071094,37.5324219 L37.9071094,37.5344835 L39.6711719,38.3636719 L39.6711719,38.2469835 L39.6035937,38.2469835 L39.6035937,38.0964844 L39.6051562,38.0964844 C39.6133594,38.0952474 39.7078906,38.078342 39.748125,38.0148438 L39.7785937,36.3556424 L39.779375,36.3556424 L39.8825,35.8212674 L39.8711719,35.8187934 L39.8239062,35.7734375 L39.8711719,35.7280816 L39.9020312,35.7206597 L40.0719531,34.8428168 L40.241875,35.7206597 L40.273125,35.7280816 L40.3207812,35.7734375 L40.273125,35.8187934 L40.2614062,35.8212674 L40.3649219,36.3556424 L40.3653125,36.3556424 L40.3961719,38.0148438 C40.4360156,38.078342 40.5313281,38.0952474 40.53875,38.0964844 L40.5410937,38.0964844 L40.5410937,38.2469835 L40.473125,38.2469835 L40.473125,38.7405382 L41.1371875,39.0526693 L47.3805469,39.0526693 C47.3957812,39.0052517 47.398125,38.93227 47.448125,38.9021701 C47.5000781,38.8708333 47.5176562,38.9021701 47.5696094,38.9021701 C47.6219531,38.9021701 47.6219531,38.8077474 47.6219531,38.8077474 L47.5520312,38.6824002 L47.5867969,38.5409722 C47.5867969,38.5409722 47.5953906,38.493967 47.6477344,38.4622179 C47.6996875,38.4308811 47.6301562,38.3834635 47.6129687,38.3364583 C47.5953906,38.2894531 47.6129687,38.2733724 47.6996875,38.1950304 C47.7864062,38.1166884 47.8039844,38.1636936 47.8039844,38.1636936 L47.8211719,38.037934 L47.8039844,37.9121745 L47.873125,37.8338325 L47.7864062,37.7554905 C47.7864062,37.7554905 47.7176562,37.7315755 47.6825,37.6924045 C47.6477344,37.6532335 47.6825,37.5983941 47.6825,37.5983941 L47.8039844,37.5670573 L47.8907031,37.5192274 C47.8907031,37.5192274 47.9254687,37.4878906 47.8559375,37.4408854 C47.7864062,37.3938802 47.8039844,37.3782118 47.8039844,37.3782118 C47.8039844,37.3782118 47.8383594,37.3151259 47.8907031,37.2994575 C47.9426562,37.2837891 47.995,37.2524523 47.995,37.2524523 C47.995,37.2524523 48.0297656,37.1423611 48.0125781,37.0953559 C47.995,37.0483507 48.0125781,37.0013455 48.0125781,37.0013455 C48.0125781,37.0013455 48.0297656,36.9382595 48.0989062,36.8755859 C48.1684375,36.8125 48.0813281,36.7968316 47.9774219,36.7494141 C47.873125,36.7024089 47.9774219,36.6554036 47.9774219,36.6079861 C47.9774219,36.5609809 48.0469531,36.5453125 48.0469531,36.5453125 L48.0813281,36.4352214 C48.0813281,36.4352214 47.9602344,36.3725477 47.9254687,36.3098741 C47.8907031,36.2467882 47.9078906,36.1371094 47.9078906,36.1371094 C47.9078906,36.1371094 48.0989062,36.0426866 48.1508594,36.0740234 C48.1586719,36.0781467 48.17,36.0818576 48.1848437,36.0847439 C48.2016406,36.0649523 48.223125,36.0472222 48.2375781,36.0270182 C48.2469531,36.0146484 48.2551562,36.0022786 48.2614062,35.9903212 C48.2528125,35.9870226 48.2446094,35.9828993 48.2375781,35.9796007 C48.1684375,35.9482639 48.2117969,35.8538411 48.2117969,35.8538411 L48.26375,35.7598307 L48.2117969,35.6967448 L48.1254687,35.6184028 L48.1426562,35.5083116 L48.0379687,35.4926432 L48.0207812,35.445638 C48.0207812,35.445638 47.95125,35.3829644 48.0035937,35.3355469 C48.0285937,35.3132813 48.0367969,35.2910156 48.0360156,35.2683377 L48.0207812,35.2415365 C48.0207812,35.2415365 48.0235156,35.2382378 48.0274219,35.2332899 C48.0211719,35.2205078 48.0133594,35.2073134 48.0035937,35.1941189 C47.9688281,35.1467014 47.9860156,35.052691 47.9860156,35.052691 C47.9860156,35.052691 48.0008594,35.0069227 48.0535937,34.9751736 C48.0547656,34.9698134 48.0555469,34.9640408 48.0555469,34.9582682 L48.0555469,34.8955946 C48.0555469,34.832921 48.1254687,34.8485894 48.1598437,34.8172526 C48.1926562,34.7871528 48.2258594,34.7850911 48.2735156,34.7582899 C48.2930469,34.7323134 48.3367969,34.6630425 48.2809375,34.613151 C48.2117969,34.5500651 48.26375,34.5030599 48.26375,34.5030599 L48.3680469,34.4243056 L48.3680469,34.3142144 L48.3157031,34.2354601 L48.3332812,34.0944444 L48.385625,34.0000217 L48.3332812,33.9060113 C48.3332812,33.9060113 48.3504687,33.7959201 48.3504687,33.7489149 C48.3504687,33.7184028 48.4082812,33.7270616 48.4496875,33.7369575 C48.4516406,33.7361328 48.4535937,33.7348958 48.4547656,33.7332465 C48.4719531,33.7093316 48.4371875,33.7014974 48.4371875,33.6854167 C48.4371875,33.6697483 48.4719531,33.646658 48.4719531,33.6309896 C48.4719531,33.6268663 48.4789844,33.6227431 48.4895312,33.6182075 L48.4895312,33.5914063 C48.4895312,33.544401 48.4371875,33.5130642 48.4371875,33.5130642 C48.4371875,33.5130642 48.4348437,33.4940972 48.4321094,33.4681207 C48.4086719,33.4318359 48.3969531,33.3868924 48.4371875,33.3324653 C48.4383594,33.330816 48.4391406,33.3304036 48.4399219,33.3291667 C48.4528125,33.2776259 48.4407031,33.2751519 48.4895312,33.2458767 C48.5125781,33.2318576 48.5153125,33.2112413 48.5117969,33.1873264 L48.4817187,33.2194878 C48.4817187,33.2194878 48.4469531,33.2557726 48.4121875,33.2652561 C48.3774219,33.2739149 48.3867969,33.2194878 48.3867969,33.2194878 C48.3867969,33.2194878 48.4039844,33.1827908 48.4383594,33.1733073 C48.4383594,33.1733073 48.473125,33.1275391 48.4992969,33.1366102 C48.5020312,33.1374349 48.5028125,33.1390842 48.5047656,33.1403212 C48.5024219,33.1234158 48.5024219,33.1060981 48.5067187,33.0887804 C48.5239062,33.0261068 48.5586719,33.0104384 48.5586719,33.0104384 L48.6282031,32.9312717 L48.6121875,32.8731337 C48.6067187,32.8677734 48.6004687,32.8611762 48.5934375,32.8529297 C48.5676562,32.8215929 48.5934375,32.8215929 48.6367969,32.7980903 C48.6426562,32.7947917 48.648125,32.7943793 48.6528125,32.79273 L48.6805469,32.7428385 C48.6805469,32.7428385 48.7258594,32.7176866 48.8117969,32.7011936 C48.8024219,32.6842882 48.798125,32.6702691 48.8192187,32.6500651 C48.8446094,32.6257378 48.85125,32.619553 48.8633594,32.6075955 C48.8430469,32.5704861 48.8086719,32.5280165 48.7844531,32.4917318 C48.7325,32.4133898 48.9063281,32.3503038 48.9754687,32.3503038 L48.9766406,32.3494792 C48.9227344,32.3428819 48.8563281,32.3230903 48.9063281,32.302474 C48.9539844,32.2826823 48.9321094,32.2835069 48.9508594,32.2600043 C48.9496875,32.2529948 48.9489062,32.2463976 48.9496875,32.2414497 C48.9571094,32.1940321 48.960625,32.1927951 48.96375,32.1750651 C48.966875,32.1577474 48.9684375,32.1429036 48.991875,32.1400174 C49.0153125,32.1379557 48.9992969,32.121875 48.9992969,32.121875 C48.9992969,32.121875 49.0008594,32.1210503 49.0035937,32.1198134 C48.9996875,32.1123915 49.0028125,32.1045573 49.0188281,32.0954861 C49.0399219,32.0843533 49.0539844,32.0806424 49.0664844,32.0785807 C49.0735156,32.0711589 49.0832812,32.0625 49.1020312,32.0497179 C49.1407031,32.0212674 49.1367969,32.0472439 49.1575,32.0431207 C49.1590625,32.0418837 49.1602344,32.0414714 49.1621875,32.0402344 L49.1621875,43.4356988 Z M48.1965625,35.8695095 C48.1969531,35.9070313 48.1664844,35.9226997 48.154375,35.9449653 C48.1422656,35.9676432 48.1485156,35.9940321 48.1024219,35.9878472 C48.0559375,35.982487 48.0309375,35.9894965 48.0157031,35.9655816 C48.0004687,35.940842 48.0707812,35.9049696 48.0707812,35.9049696 L48.1285937,35.8505425 C48.1285937,35.8505425 48.1957812,35.8319878 48.1965625,35.8695095 L48.1965625,35.8695095 Z M48.1246875,35.6909722 C48.1246875,35.6909722 48.0821094,35.7025174 48.0758594,35.6761285 C48.0688281,35.6497396 48.0520312,35.6542752 48.0664844,35.6410807 C48.0809375,35.6270616 48.1039844,35.6109809 48.1039844,35.6109809 C48.1422656,35.6196398 48.1508594,35.6546875 48.1508594,35.6546875 L48.1246875,35.6909722 Z M47.1875781,39.546224 L47.3129687,39.4192274 L46.5059375,39.4192274 L46.5059375,39.9169054 L47.1399219,39.6620877 L47.135625,39.6563151 L47.1875781,39.546224 Z M44.5582812,40.6995009 L46.1590625,40.0562717 L46.1590625,39.4192274 L44.0676562,39.4192274 L44.0676562,40.4298394 L44.5719531,40.6669271 L44.5582812,40.6995009 Z M43.010625,41.3217014 L43.9821094,40.9312283 L42.9922656,40.4661241 L42.9922656,41.3217014 L43.010625,41.3217014 Z M41.916875,39.4192274 L43.7203906,40.2665582 L43.7203906,39.4192274 L41.916875,39.4192274 Z M42.2629687,40.1234809 L40.8864062,39.4761285 L40.8864062,40.1234809 L42.2629687,40.1234809 Z M38.0922656,40.1234809 L40.7821094,40.1234809 L40.7821094,39.4270616 L39.9461719,39.0345269 L38.4973437,39.0345269 L38.53875,38.9248481 L39.7129687,38.9248481 L37.8024219,38.0272135 L31.860625,38.0272135 L25.7063281,40.9188585 L30.9578906,43.0151259 L30.9571094,43.0163628 L30.9586719,43.0151259 L31.1746875,47.3198134 L36.5711719,47.3198134 L36.5711719,46.2263238 L34.9742969,46.2263238 L35.0274219,46.1162326 L37.2598437,46.1162326 L37.8309375,45.027691 L35.573125,45.027691 L35.6313281,44.9180122 L36.5711719,44.9180122 L36.5711719,43.8290582 L36.2098437,43.8290582 L36.2676562,43.718967 L38.5176562,43.718967 L38.67625,43.4167318 L38.67625,42.6304253 L36.8461719,42.6304253 L36.9039844,42.5203342 L40.0289844,42.5203342 L40.7821094,42.2176866 L40.7821094,41.4317925 L37.4825,41.4317925 L37.5403125,41.3217014 L38.67625,41.3217014 L38.67625,40.2331597 L38.0516406,40.2331597 L38.0922656,40.1234809 Z M25.979375,40.2492405 L27.7457812,39.4192274 L25.979375,39.4192274 L25.979375,40.2492405 Z M25.0832812,40.670638 L25.6328906,40.4125217 L25.6328906,39.4192274 L23.5844531,39.4192274 L23.5844531,40.0723524 L25.0832812,40.670638 Z M22.9532031,39.8200087 L23.2375781,39.9338108 L23.2375781,39.4192274 L22.9141406,39.4192274 C22.9438281,39.4674696 22.9735156,39.522309 22.9598437,39.5656033 C22.9422656,39.620855 22.9075,39.6575521 22.9075,39.6942491 C22.9075,39.7309462 22.9422656,39.7853733 22.9422656,39.7853733 L22.9532031,39.8200087 Z M37.2024219,46.2263238 L36.6746875,46.2263238 L36.6746875,47.2307509 L37.2024219,46.2263238 Z M36.6746875,44.9180122 L37.8891406,44.9180122 L38.4602344,43.8290582 L36.6746875,43.8290582 L36.6746875,44.9180122 Z M39.7555469,42.6304253 L38.7805469,42.6304253 L38.7805469,43.2184028 L38.9114062,42.9693576 L38.9133594,42.9714193 L38.9125781,42.9693576 L39.7555469,42.6304253 Z M38.7805469,41.3217014 L42.8879687,41.3217014 L42.8879687,40.4170573 L42.4965625,40.2331597 L38.7805469,40.2331597 L38.7805469,41.3217014 Z M42.7375781,41.4317925 L40.8864062,41.4317925 L40.8864062,42.1756293 L42.7375781,41.4317925 Z" id="Fill-9"></path></g></g></g></svg>