<svg xmlns="http://www.w3.org/2000/svg" xmlns:xlink="http://www.w3.org/1999/xlink" width="110px" height="91px" viewBox="0 0 110 91"><title>Artboard Copy 3</title><g id="Artboard-Copy-3" stroke="none" stroke-width="1" fill="none" fill-rule="evenodd"><g id="Group-2-Copy"><rect id="Rectangle" stroke="#00A046" stroke-width="1.68571429" x="0.842857143" y="0.842857143" width="108.314286" height="89.3142857"></rect><rect id="Rectangle" fill="#00A047" x="5.83542607" y="9.11522695" width="97.9453602" height="7.63443052"></rect><rect id="Rectangle-Copy-4" fill="#CFCDD1" x="5.83542607" y="5.05555556" width="97.9453602" height="4.0596714"></rect><rect id="Rectangle-Copy" fill="#9FD21F" x="5.83542607" y="16.7496575" width="97.9453602" height="7.63443052"></rect><rect id="Rectangle-Copy-2" fill="#17BF82" x="5.83542607" y="24.384088" width="97.9453602" height="7.63443052"></rect><text id="Zur-&#xDC;berpr&#xFC;fung-der" font-family="Roboto-Medium, Roboto" font-size="9.77714286" font-weight="400" fill="#009B44"><tspan x="28.2086257" y="46.7328548">Zur Überprüfung</tspan><tspan x="28.2086257" y="57.6899976">der Legalität</tspan><tspan x="28.2086257" y="68.6471405">dieser Webseite</tspan><tspan x="28.2086257" y="79.6042833">hier klicken</tspan></text><g id="Group-Copy" transform="translate(26.128603, 5.055556)" fill="#FFFFFF"><rect id="Rectangle" x="7.59920898" y="0" width="11.8209917" height="26.962963"></rect><polygon id="Rectangle" transform="translate(13.509705, 13.481481) rotate(-90.000000) translate(-13.509705, -13.481481) " points="7.6115567 -0.0282233689 19.407853 -0.0282233689 19.407853 26.9911863 7.6115567 26.9911863"></polygon></g><g id="Group" transform="translate(5.835426, 38.026350)"><rect id="Rectangle" fill="#120F10" x="0" y="0" width="15.9404231" height="3.18142434"></rect><rect id="Rectangle-Copy-5" fill="#F92400" x="0" y="3.18142434" width="15.9404231" height="3.18142434"></rect><rect id="Rectangle-Copy-6" fill="#FFDF00" x="0" y="6.36284867" width="15.9404231" height="3.18142434"></rect></g></g></g></svg>