<svg xmlns="http://www.w3.org/2000/svg" xmlns:xlink="http://www.w3.org/1999/xlink" width="150px" height="92px" viewBox="0 0 150 92"><title>Artboard Copy</title><g id="Artboard-Copy" stroke="none" stroke-width="1" fill="none" fill-rule="evenodd"><g id="Group-5-Copy-2"><path d="M148.651429,1.34857143 L148.651429,90.6514286 L1.6807181,90.6514286 L1.35352151,1.34857143 L148.651429,1.34857143 Z" id="Rectangle-Copy-3" stroke="#5F6982" stroke-width="2.69714286"></path><rect id="Rectangle" fill="#002462" x="0" y="0" width="148.901242" height="30.2866687"></rect><text id="Unterscht&#xFC;zt-von-f&#xFC;h-Copy" font-family="OpenSans-ExtraBold, Open Sans" font-size="10.7885714" font-weight="700" fill="#FFFFFF"><tspan x="14.5067174" y="16.6931537">UNTERSCHTÜZT VON</tspan><tspan x="39.8487175" y="27.4817252">FÜHRENDEN</tspan></text><text id="&#xC4;rzten-&amp;-Apothekern" font-family="OpenSans-Regular, Open Sans" font-size="15.1714286" font-weight="normal" fill="#5D6882"><tspan x="47.1690674" y="55.9170066">ÄRZTEN &amp;</tspan><tspan x="47.1690674" y="73.1112923">APOTHEKERN</tspan></text><g id="Group-3-Copy-3" transform="translate(8.405022, 42.729683)" fill="#5F6982"><path d="M18.6894084,1.58023583 C18.6894084,0.707474566 17.9846771,0 17.1153846,0 C16.2460921,0 15.5413609,0.707474566 15.5413609,1.58023583 C15.5413609,2.19013354 15.8858661,2.7190849 16.3900304,2.98245754 L15.8119953,2.98245754 L15.8119953,3.44879002 L16.0141681,3.44879002 L16.3312042,4.45943161 L16.2765195,4.45943161 L16.2765195,4.82216293 L16.4563789,4.82216293 L16.9127892,29.9047581 C16.9148177,30.0156563 17.0049164,30.1044937 17.1153846,30.1044937 C17.2258528,30.1044937 17.3159516,30.0156563 17.3178955,29.9047581 L17.7743903,4.82216293 L17.9542498,4.82216293 L17.9542498,4.45943161 L17.8994805,4.45943161 L18.2166011,3.44879002 L18.418774,3.44879002 L18.418774,2.98245754 L17.8407388,2.98245754 C18.3449031,2.7190849 18.6894084,2.19013354 18.6894084,1.58023583" id="Fill-1"></path><path d="M15.0838857,10.2017357 C15.3786929,10.6160555 16.0130186,10.352598 15.8626568,10.8600825 C15.7123795,11.3675669 15.1111858,11.6830371 14.2914222,11.64197 C13.4716587,11.6007332 13.280389,11.3264149 13.0071345,11.4910228 C12.73388,11.6556307 12.8978496,11.7653411 13.2530044,11.929949 C13.6083282,12.0945569 18.8685409,14.02853 19.6883045,14.4812017 C20.508068,14.9337886 21.0025124,15.2244827 21.0819616,16.4289204 C21.2276748,18.6394178 14.8686967,19.2007817 14.8686967,21.3529875 C14.8686967,22.7063359 18.8188429,23.7769661 18.8188429,25.8624803 C18.8188429,26.762563 16.9449407,27.805702 16.8746198,28.5116492 C16.7754773,29.5087998 17.4130148,29.8395429 17.2289293,29.9529865 C17.1144887,30.0234964 16.5397499,29.6350557 16.4228581,29.2808942 C15.9355134,27.8042595 18.1123368,26.764854 18.1305932,25.8942988 C18.152653,24.8404689 14.0728524,23.273215 13.9361829,22.0662318 C13.7995979,20.8591638 13.7861592,19.3229648 16.9216976,18.143388 C20.0572361,16.9637264 20.029936,16.5796978 19.9478667,16.3054645 C19.8659664,16.0310614 19.3604498,15.5647289 18.2947318,15.2218524 C17.2289293,14.878891 12.8158648,13.2741337 12.009709,12.9586635 C11.2035533,12.6431933 10.506767,12.0259985 10.6434365,11.2990086 C10.7800215,10.5720186 11.7878429,9.9950425 13.3486815,10.0371278 C13.9362674,10.0529098 13.8541981,9.73540324 14.3461069,9.83136795 C14.8379312,9.92741751 14.9472161,10.0096366 15.0838857,10.2017357" id="Fill-3"></path><path d="M19.1468836,10.2017357 C18.8520764,10.6160555 18.2177506,10.352598 18.3681124,10.8600825 C18.5183897,11.3675669 19.1195835,11.6830371 19.939347,11.64197 C20.7591105,11.6007332 20.9503802,11.3264149 21.2236348,11.4910228 C21.4968893,11.6556307 21.3329197,11.7653411 20.9777649,11.929949 C20.622441,12.0945569 15.3622283,14.02853 14.5424648,14.4812017 C13.7227012,14.9337886 13.2282568,15.2244827 13.1488076,16.4289204 C13.0030944,18.6394178 19.3620726,19.2007817 19.3620726,21.3529875 C19.3620726,22.7063359 15.4119263,23.7769661 15.4119263,25.8624803 C15.4119263,26.762563 17.2858285,27.805702 17.3561495,28.5116492 C17.4552919,29.5087998 16.8177544,29.8395429 17.0018399,29.9529865 C17.1162805,30.0234964 17.6910194,29.6350557 17.8079111,29.2808942 C18.2952558,27.8042595 16.1184325,26.764854 16.1001761,25.8942988 C16.0781162,24.8404689 20.1579168,23.273215 20.2945863,22.0662318 C20.4311713,20.8591638 20.4446101,19.3229648 17.3090716,18.143388 C14.1735331,16.9637264 14.2008332,16.5796978 14.2829026,16.3054645 C14.3648028,16.0310614 14.8703195,15.5647289 15.9360374,15.2218524 C17.0018399,14.878891 21.4149045,13.2741337 22.2210602,12.9586635 C23.0271314,12.6431933 23.7240023,12.0259985 23.5873328,11.2990086 C23.4507478,10.5720186 22.4429263,9.9950425 20.8820877,10.0371278 C20.2945018,10.0529098 20.3765711,9.73540324 19.8846623,9.83136795 C19.392838,9.92741751 19.2835531,10.0096366 19.1468836,10.2017357" id="Fill-5"></path><path d="M34.2307692,4.0909984 C32.6268253,4.24584862 28.4616591,2.91413678 28.4616591,2.91413678 C28.4616591,2.91413678 28.6158243,2.88325159 28.9860237,2.72831652 C28.1223096,2.75937141 25.5617635,1.67533507 25.0681643,1.45862962 C24.5745651,1.24183932 23.4022669,0.560498379 21.7980693,1.30369456 C20.1939563,2.04697558 20.5024558,3.50256759 20.0705565,4.21487857 C19.6386572,4.92710471 19.2067578,5.1749499 18.0036097,5.26786003 L18.0036097,7.21897272 C19.4535575,10.1610419 20.7492555,9.47978584 20.7492555,9.47978584 C20.7492555,9.47978584 20.6258557,9.29388074 20.0705565,8.51962967 C20.7492555,9.47978584 22.2299687,9.2320255 22.2299687,9.2320255 L21.4895698,8.3957495 C22.4151529,9.26291069 23.6799164,8.89127018 23.6799164,8.89127018 C23.6799164,8.89127018 23.2480171,8.45777443 22.8469677,7.96225375 C24.4511652,9.01515035 25.7160133,8.30292422 25.7160133,8.30292422 L24.636265,7.62149843 C26.6415119,8.5816546 27.9372099,7.62149843 27.9372099,7.62149843 C27.9372099,7.62149843 27.7212602,7.55964319 27.0117113,7.15703264 C28.523359,7.62149843 29.5104729,7.03315247 29.8806724,6.56860182 C29.8806724,6.56860182 29.6648072,6.59948702 28.8318585,6.22793135 C31.5774198,6.78539212 31.7933694,5.3917402 31.7933694,5.3917402 L30.775321,5.05106973 C31.7316695,5.08203977 33.6135166,4.80339424 34.2307692,4.0909984" id="Fill-7"></path><path d="M0,4.0909984 C1.60394397,4.24584862 5.76911016,2.91413678 5.76911016,2.91413678 C5.76911016,2.91413678 5.61494492,2.88325159 5.24474549,2.72831652 C6.10845964,2.75937141 8.6690057,1.67533507 9.16260494,1.45862962 C9.65620418,1.24183932 10.8285024,0.560498379 12.4326154,1.30369456 C14.0368129,2.04697558 13.7283134,3.50256759 14.1602127,4.21487857 C14.5921121,4.92710471 15.0240114,5.1749499 16.2271595,5.26786003 L16.2271595,7.21897272 C14.7772118,10.1610419 13.4815138,9.47978584 13.4815138,9.47978584 C13.4815138,9.47978584 13.6049136,9.29388074 14.1602127,8.51962967 C13.4815138,9.47978584 12.000716,9.2320255 12.000716,9.2320255 L12.7411994,8.3957495 C11.8156163,9.26291069 10.5508528,8.89127018 10.5508528,8.89127018 C10.5508528,8.89127018 10.9827521,8.45777443 11.3838015,7.96225375 C9.77960399,9.01515035 8.51475594,8.30292422 8.51475594,8.30292422 L9.59450427,7.62149843 C7.58925736,8.5816546 6.29355935,7.62149843 6.29355935,7.62149843 C6.29355935,7.62149843 6.50950902,7.55964319 7.21905793,7.15703264 C5.70741026,7.62149843 4.7202963,7.03315247 4.35001235,6.56860182 C4.35001235,6.56860182 4.56596201,6.59948702 5.39891073,6.22793135 C2.65334948,6.78539212 2.43739981,5.3917402 2.43739981,5.3917402 L3.45544824,5.05106973 C2.49909972,5.08203977 0.617252612,4.80339424 0,4.0909984" id="Fill-9"></path></g></g></g></svg>