<svg xmlns="http://www.w3.org/2000/svg" xmlns:xlink="http://www.w3.org/1999/xlink" width="100px" height="100px" viewBox="0 0 100 100"><title>Artboard Copy 2</title><g id="Artboard-Copy-2" stroke="none" stroke-width="1" fill="none" fill-rule="evenodd"><g id="Deutsche_Apotheke_Logo-Copy" transform="translate(6.401713, 5.230204)"><path d="M55.4914278,25.9171693 L55.4914278,37.9955432 L44.3562051,38.0437574 L44.3562051,19.4340403 L55.4914278,25.9171693 Z M22.7767798,38.1765567 L12.4767208,38.2147613 L12.4767208,60.7507264 L22.8189886,60.7507264 L22.8189886,65.9055322 L17.9386428,63.4697699 L0.02819471,77.5377935 L26.3172961,89.5395923 L44.3762259,76.6162084 L44.3643811,60.7083517 L55.5034402,60.7121882 L55.5034402,76.5035958 L74.3541561,89.4608466 L87.1765526,69.6709518 L76.7535373,62.6995032 L76.7535373,15.6204049 L52.1244178,0 L22.7767798,13.2348598 L22.7767798,38.1765567 L22.7767798,38.1765567 Z" id="path3" stroke="#FFFFFF" stroke-width="5.93951343"></path><path d="M22.8068102,13.2570493 L52.0860472,0.00400399141 L76.7133315,15.5681865 L76.7133315,62.7200251 L87.1965734,69.6531032 L74.3478171,89.4535087 L55.4750793,76.5341307 L55.4750793,60.7168612 L44.380396,60.7168612 L44.380396,76.5861814 L26.3514966,89.529752 L0,77.5097694 L17.9286332,63.4397429 L22.8068102,65.9298924 L22.8068102,60.7166952 L12.4808918,60.7166952 L12.4808918,38.2189331 L22.8069778,38.2189331 L22.8069778,13.2570493 M44.3965786,19.4442175 L44.3965786,38.0661146 L55.4750793,38.0661146 L55.4750793,25.8909772 L44.3965786,19.4442175 Z" id="path5" fill="#DF091D" fill-rule="nonzero"></path><path d="M30.7291754,48.7642789 C31.1254028,49.0881029 31.5016093,49.3900708 31.8736458,49.6675142 L31.8938326,49.5267066 L32.8292604,49.5267066 L32.8292604,50.3597041 C33.1430732,50.5809234 33.4527142,50.765941 33.7445032,50.9572993 L33.7505086,49.5268726 L34.6859382,49.5268726 L34.6999519,51.5869261 C37.1462148,53.1619969 38.5622859,54.0548875 38.4294883,56.6032607 C38.2024295,59.7108585 34.6717569,60.6743189 34.6957818,60.656135 L34.6857706,62.7982696 L33.7503427,62.7982696 L33.7503427,54.507505 C33.4727333,54.3204845 33.1690994,54.1194519 32.8431082,53.9164164 L32.8290945,62.7982696 L31.893665,62.7982696 L31.8916637,61.8913653 C30.5116267,62.5648702 30.0408254,63.2570601 29.1898151,64.4273941 C28.6567859,61.0183296 30.0510026,60.1895022 31.8975032,59.2180335 L31.893665,53.3348362 C29.7954152,52.0050095 27.1399455,50.1563334 25.1866735,47.1750283 C22.8912277,46.1852083 20.7567746,44.825353 18.9623264,43.2340995 L48.0613847,43.239939 C44.2375888,47.0140357 39.2161019,48.8990811 33.245341,48.8949093 C32.3804829,48.8950769 31.5760173,48.8770591 30.7291754,48.7642789 M24.1588197,41.2888274 L17.0474249,41.2826544 C17.2946705,41.5684397 17.6690434,41.9588293 17.9346403,42.2426117 L49.0828995,42.2322686 C49.3486623,41.9326355 49.6663117,41.5946319 49.9137231,41.276649 L27.2929315,41.2824885 C27.2929315,36.0741285 30.1918085,33.1048359 34.0664903,33.0848151 C37.4902222,33.1974277 38.8664227,35.2354591 40.6768858,38.7659793 C40.9363097,39.2729839 41.2441154,39.126005 41.024899,38.5687832 C40.8839255,38.2167642 40.2724842,36.7925122 40.4534977,36.4605139 L40.7371125,36.4039579 C40.9945351,36.5591128 41.5659348,37.8825988 41.688557,38.2105912 C42.2377687,39.9728486 44.0745932,35.7823378 40.1073214,32.4046377 C38.4878796,31.13337 36.5606321,30.0289361 34.0099342,30.0369012 C29.5683565,30.0371104 24.154648,32.6545532 24.1588197,41.2888274 M38.3252176,65.9822783 L28.3171146,65.9761053 C28.0855522,66.2598877 27.8745084,66.5795399 27.7135157,66.8971893 L38.9650198,66.9033623 C38.7858417,66.5493437 38.6088324,66.3019289 38.3252176,65.9822783 M29.3227803,65.0370018 L37.3495822,65.0408383 C36.2691766,64.2445454 34.7806988,63.67481 33.2556841,63.67481 C31.6806216,63.6749776 30.4051871,64.1357693 29.3227803,65.0370018 M40.7694776,35.5129026 C40.586297,35.1952533 40.6326758,34.8230475 40.8740818,34.6822416 C41.1174908,34.5432693 41.4635011,34.688247 41.648517,35.005898 C41.8316994,35.3258837 41.7853205,35.6979202 41.5419115,35.8387279 C41.3005055,35.9797014 40.9524923,35.8328884 40.7694776,35.5129026 M26.4180621,41.3308686 L25.1444647,41.3308686 C25.1444647,41.3308686 24.7380618,34.3462392 30.1153993,31.7691698 C35.5149282,29.3409164 39.35107,32.9742055 39.35107,32.9742055 L38.5624535,33.9880488 C38.5624535,33.9880488 35.363945,30.6587305 30.6786264,32.9922233 C26.0720518,35.4004576 26.4180621,41.3308686 26.4180621,41.3308686 M31.8978367,60.2197001 C31.7430154,60.29978 30.576191,60.8853627 30.1859707,61.8388134 C30.1859707,61.8388134 31.105216,61.2233663 31.8919973,60.9072188 L31.9040097,60.9072188 L31.8978367,60.2197001 M34.688107,57.6452991 C34.688107,57.6452991 35.7603384,57.0857426 35.2775246,55.9137408 C35.1565718,55.6801738 34.9637135,55.4507786 34.7021207,55.2177127 L34.688107,57.6452991 M29.0269854,48.4284441 C28.2587233,48.2592755 27.4961329,48.0440616 26.7558982,47.7904754 C31.8976691,53.7992985 35.6255378,53.2182194 36.259333,56.0458714 C36.4039772,56.8585162 36.2429845,57.9185725 34.7243087,58.7090277 L34.6961153,59.6666485 C34.6961153,59.6666485 36.8285655,59.0872372 37.4059723,57.0113346 C38.1321933,53.2160506 34.1991219,53.3508528 29.0269854,48.4284441" id="path7" fill="#FFFFFF" fill-rule="nonzero"></path></g></g></svg>