<svg xmlns="http://www.w3.org/2000/svg" xmlns:xlink="http://www.w3.org/1999/xlink" width="91px" height="91px" viewBox="0 0 91 91"><title>5D52780B-03BE-4120-ABB8-7224595A94B4</title><g id="Web" stroke="none" stroke-width="1" fill="none" fill-rule="evenodd"><g id="Homepage_desktopV3" transform="translate(-1399.000000, -4391.000000)" fill-rule="nonzero"><g id="Group-4" transform="translate(1399.000000, 4392.000000)"><circle id="Oval" fill-opacity="0.4" fill="#99E880" cx="45.7319362" cy="45.4715358" r="44.5284642"></circle><g id="letterbox" transform="translate(0.000000, -0.000000)" fill="#404652"><path d="M68.7318846,19.1520816 L65.5810138,19.1520816 C63.0071008,14.6674109 58.2269565,11.9061244 53.0560974,11.9171464 L19.2931135,11.9171464 L19.2931135,2.2706603 C19.2931135,0.938697421 18.2133842,-0.141031876 16.8815626,-0.141031876 L8.44071065,-0.141031876 C7.99587518,-0.141031876 7.58721439,0.103712417 7.377373,0.495981561 C7.16753162,0.888250705 7.19070602,1.36403248 7.43756993,1.73411637 L9.40541578,4.68221117 L7.43756993,7.63044727 C7.19070602,8.00053116 7.16753162,8.47631294 7.377373,8.86858208 C7.58721439,9.26085122 7.99587518,9.50559552 8.44071065,9.50559552 L16.8814213,9.50559552 L16.8814213,12.1354662 C9.92754636,13.3153824 4.83539547,19.3338028 4.82324304,26.3870168 L4.82324304,45.6801303 C2.15945859,45.6802716 0,47.8397302 0,50.5035146 C0,53.1672991 2.15945859,55.3267577 4.82324304,55.3267577 L15.6756459,55.3267577 L15.6756459,58.9442253 C15.6756459,60.9420283 17.2953105,62.5616929 19.2931135,62.5616929 L30.1455163,62.5616929 L30.1455163,69.7966281 C30.1455163,71.128591 31.2252456,72.2083203 32.5572085,72.2083203 L39.7921437,72.2083203 C41.1241066,72.2083203 42.2038359,71.128591 42.2038359,69.7966281 L42.2038359,62.5616929 L53.0562387,62.5616929 C55.0540417,62.5616929 56.6737063,60.9420283 56.6737063,58.9442253 L56.6737063,55.3267577 L67.5261091,55.3267577 C69.4454866,55.3333991 71.1848385,54.1974295 71.9503003,52.4373054 C72.7157621,50.6771814 72.3606568,48.6303447 71.0470638,47.2308369 C71.8686246,46.5507247 72.3456782,45.5408013 72.3493522,44.4743549 L72.3493522,22.7695492 C72.3493522,20.7717462 70.7298289,19.1520816 68.7318846,19.1520816 L68.7318846,19.1520816 Z M11.8556849,4.01297966 L10.6944212,2.27051899 L16.8815626,2.27051899 L16.8815626,7.09390334 L10.6944212,7.09390334 L11.8556849,5.35144267 C12.1260058,4.94631456 12.1260058,4.41824908 11.8556849,4.01297966 L11.8556849,4.01297966 Z M66.3201924,45.6802716 L40.9979191,45.6802716 L40.9979191,44.9735937 L50.6445465,35.3269663 L51.7092972,36.391717 C53.1208161,37.7974423 55.4032121,37.7974423 56.814731,36.391717 L57.8794817,35.3269663 L68.2326458,45.6801303 L66.3201924,45.6801303 L66.3201924,45.6802716 Z M68.2326458,21.5637738 L55.1060428,34.6867028 C54.6363372,35.1510386 53.880343,35.1510386 53.4106375,34.6867028 L41.5477459,22.8238112 C41.6822705,22.3950848 41.8413826,21.9742716 42.0240929,21.5637738 L68.2326458,21.5637738 Z M40.9979191,26.3870168 C40.9979191,26.1614903 41.0244849,25.94204 41.036496,25.7190571 L48.939391,33.621952 L40.9977778,41.5635652 L40.9977778,26.3870168 L40.9979191,26.3870168 Z M59.584496,33.621952 L69.93766,23.268788 L69.93766,43.9751161 L59.584496,33.621952 Z M62.6919854,19.1520816 L43.4313726,19.1520816 C45.5245581,16.3560335 48.7289844,14.6069314 52.2129166,14.358937 C55.6968487,14.1108014 59.1167687,15.3882196 61.5849838,17.8594022 C61.9836118,18.2641064 62.3535544,18.6959415 62.6919854,19.1520816 Z M7.23493522,26.3870168 C7.24129405,20.6588416 11.2705312,15.7229767 16.8815626,14.5699089 L16.8815626,20.5773073 C15.220495,21.1645806 14.224137,22.8630947 14.5220128,24.5996204 C14.8198887,26.3361462 16.3255183,27.6053686 18.087338,27.6053686 C19.8491578,27.6053686 21.3547874,26.3361462 21.6526632,24.5996204 C21.9505391,22.8630947 20.9541811,21.1645806 19.2931135,20.5773073 L19.2931135,14.3288386 L45.0542873,14.3288386 C41.0162891,17.0125473 38.5884879,21.5384798 38.586227,26.3870168 L38.586227,45.6801303 L7.23493522,45.6801303 L7.23493522,26.3870168 Z M18.087338,22.7695492 C18.7533195,22.7695492 19.2931135,23.3094845 19.2931135,23.9753246 C19.2931135,24.6413061 18.7531782,25.1811001 18.087338,25.1811001 C17.4213566,25.1811001 16.8815626,24.6411648 16.8815626,23.9753246 C16.8815626,23.3094845 17.4213566,22.7695492 18.087338,22.7695492 Z M39.7921437,69.7966281 L32.5572085,69.7966281 L32.5572085,62.5616929 L39.7921437,62.5616929 L39.7921437,69.7966281 Z M54.2620141,58.9442253 C54.2620141,59.6102067 53.7220788,60.1500007 53.0562387,60.1500007 L19.2931135,60.1500007 C18.627132,60.1500007 18.087338,59.6102067 18.087338,58.9442253 L18.087338,55.3267577 L54.2620141,55.3267577 L54.2620141,58.9442253 Z M67.5261091,52.9152068 L4.82324304,52.9152068 C3.49128016,52.9152068 2.41155087,51.8354775 2.41155087,50.5035146 C2.41155087,49.1715518 3.49128016,48.0918225 4.82324304,48.0918225 L67.5259678,48.0918225 C68.8579307,48.0918225 69.93766,49.1715518 69.93766,50.5035146 C69.93766,51.8354775 68.8579307,52.9152068 67.5261091,52.9152068 Z" id="Shape_108_"></path></g></g></g></g></svg>