<svg xmlns="http://www.w3.org/2000/svg" xmlns:xlink="http://www.w3.org/1999/xlink" width="89px" height="91px" viewBox="0 0 89 91"><title>FFCBA6A2-7B6F-41D6-BFB5-31647E2D6F7C</title><g id="Web" stroke="none" stroke-width="1" fill="none" fill-rule="evenodd"><g id="Homepage_desktopV3" transform="translate(-1077.000000, -4391.000000)" fill-rule="nonzero"><g id="Group-3" transform="translate(1077.000000, 4392.000000)"><circle id="Oval" fill-opacity="0.4" fill="#99E880" cx="44.8560548" cy="46.6313785" r="43.3686215"></circle><g id="planner" transform="translate(0.000000, -0.000000)" fill="#404652"><path d="M53.3567414,70.2921724 L4.75748491,70.2921724 C3.39721437,70.2921724 2.29041739,69.1920129 2.29041739,67.8398999 L2.29041739,38.8110194 C2.29041739,38.2304614 1.81716335,37.7600455 1.23310274,37.7600455 C0.649042125,37.7600455 0.175788087,38.2304614 0.175788087,38.8110194 L0.175788087,67.8398999 C0.175788087,70.351167 2.23106679,72.3941202 4.75748491,72.3941202 L53.3567414,72.3941202 C53.940802,72.3941202 54.414056,71.9237043 54.414056,71.3431463 C54.414056,70.7625883 53.940661,70.2921724 53.3567414,70.2921724 Z" id="Path"></path><path d="M50.3324091,44.9482497 L61.7630685,44.9482497 C62.7554762,44.9482497 63.5626795,44.1410539 63.5626795,43.1486555 L63.5626795,31.7181033 C63.5626795,30.7257049 62.7554762,29.9183682 61.7630685,29.9183682 L50.3324091,29.9183682 C49.3400014,29.9183682 48.5327981,30.7257049 48.5327981,31.7181033 L48.5327981,43.1486555 C48.5327981,44.1410539 49.3400014,44.9482497 50.3324091,44.9482497 L50.3324091,44.9482497 Z M50.6468618,32.0325531 L61.4484748,32.0325531 L61.4484748,42.8340648 L50.6468618,42.8340648 L50.6468618,32.0325531 Z" id="Shape"></path><path d="M27.6216586,62.7527246 C27.6216586,63.7451137 28.4289954,64.5524429 29.4212528,64.5524429 L40.8519459,64.5524429 C41.8442033,64.5524429 42.6515401,63.7452547 42.6515401,62.7527246 L42.6515401,51.3222797 C42.6515401,50.3298906 41.8442033,49.5225614 40.8519459,49.5225614 L29.4212528,49.5225614 C28.4289954,49.5225614 27.6216586,50.3298906 27.6216586,51.3222797 L27.6216586,62.7527246 Z M29.7358435,51.6367265 L40.5372142,51.6367265 L40.5372142,62.4381369 L29.7358435,62.4381369 L29.7358435,51.6367265 Z" id="Shape"></path><path d="M6.71051916,62.7527246 C6.71051916,63.7451137 7.51784834,64.5524429 8.51023743,64.5524429 L19.9406824,64.5524429 C20.9330715,64.5524429 21.7404006,63.7452547 21.7404006,62.7527246 L21.7404006,51.3222797 C21.7404006,50.3298906 20.9330715,49.5225614 19.9406824,49.5225614 L8.51023743,49.5225614 C7.51784834,49.5225614 6.71051916,50.3298906 6.71051916,51.3222797 L6.71051916,62.7527246 Z M8.82468425,51.6367265 L19.6260946,51.6367265 L19.6260946,62.4381369 L8.82468425,62.4381369 L8.82468425,51.6367265 Z" id="Shape"></path><path d="M48.5327981,62.7527246 C48.5327981,63.7451137 49.3400014,64.5524429 50.3324091,64.5524429 L61.7630685,64.5524429 C62.7554762,64.5524429 63.5626795,63.7452547 63.5626795,62.7527246 L63.5626795,51.3222797 C63.5626795,50.3298906 62.7554762,49.5225614 61.7630685,49.5225614 L50.3324091,49.5225614 C49.3400014,49.5225614 48.5327981,50.3298906 48.5327981,51.3222797 L48.5327981,62.7527246 Z M50.6470028,51.6367265 L61.4486157,51.6367265 L61.4486157,62.4381369 L50.6470028,62.4381369 L50.6470028,51.6367265 Z" id="Shape"></path><path d="M41.0174949,29.9183682 L29.4437709,29.9183682 C28.4390975,29.9183682 27.6216586,30.7257049 27.6216586,31.7181033 L27.6216586,43.1486555 C27.6216586,44.1410539 28.4390975,44.9482497 29.4437709,44.9482497 L41.0174949,44.9482497 C42.0221683,44.9482497 42.8396072,44.1410539 42.8396072,43.1486555 L42.8396072,36.7555012 L45.6080248,34.0025506 C46.0245933,33.5884522 46.0221672,32.9189604 45.6028873,32.5076809 C45.1834647,32.0962605 44.5057382,32.0986566 44.0891698,32.512755 L42.8394645,33.7554729 L42.8394645,31.7183852 C42.8394645,30.7257049 42.0221683,29.9183682 41.0174949,29.9183682 L41.0174949,29.9183682 Z M40.698825,42.8340648 L29.7622981,42.8340648 L29.7622981,32.0325531 L40.698825,32.0325531 L40.698825,35.8838933 L37.6114521,38.9539717 L35.2670238,36.6791087 C34.8456032,36.2700844 34.1680195,36.2760041 33.753449,36.6924985 C33.3393066,37.108993 33.3453004,37.778203 33.7670064,38.1875092 L36.8707909,41.1989541 C37.0791464,41.4010702 37.3500087,41.5018464 37.6208709,41.5018464 C37.8960144,41.5018464 38.1710153,41.3976875 38.3802271,41.1896517 L40.698825,38.8840626 L40.698825,42.8340648 Z" id="Shape"></path><path d="M19.8404171,29.9183682 L8.49661722,29.9183682 C7.5117385,29.9183682 6.71051916,30.7257049 6.71051916,31.7181033 L6.71051916,43.1486555 C6.71051916,44.1410539 7.5117385,44.9482497 8.49661722,44.9482497 L19.840557,44.9482497 C20.8254357,44.9482497 21.626655,44.1410539 21.626655,43.1486555 L21.626655,35.7976345 L23.3961076,34.0024097 C23.8044106,33.5883113 23.8020327,32.9188194 23.391072,32.50754 C22.9798317,32.0961196 22.3155526,32.0985157 21.9073895,32.512614 L21.6265151,32.7974652 L21.6265151,31.7181033 C21.6265151,30.7257049 20.8252958,29.9183682 19.8404171,29.9183682 Z M19.52835,42.8340648 L8.80868432,42.8340648 L8.80868432,32.0325531 L19.52835,32.0325531 L19.52835,34.9260266 L15.5582019,38.9538307 L13.2602914,36.6791087 C12.8472326,36.2700844 12.1828137,36.2758632 11.7768886,36.6923576 C11.3708237,37.1087111 11.3766986,37.778062 11.7900371,38.1870863 L14.8320969,41.1985313 C15.0363183,41.4007883 15.3018061,41.5015645 15.5672939,41.5015645 C15.8369781,41.5015645 16.1065224,41.3974056 16.311583,41.1893698 L19.52835,37.925914 L19.52835,42.8340648 Z" id="Shape"></path><path d="M66.1393751,6.79339714 L60.9812963,6.79339714 L60.9812963,4.28242162 C60.9812963,1.84313159 58.9936651,-0.141394766 56.5504169,-0.141394766 C54.1073106,-0.141394766 52.1196794,1.84313159 52.1196794,4.28242162 L52.1196794,6.79339714 L39.8939315,6.79339714 L39.8939315,4.28242162 C39.8940734,1.84313159 37.9064422,-0.141394766 35.4633359,-0.141394766 C33.0202296,-0.141394766 31.0325984,1.84313159 31.0325984,4.28242162 L31.0325984,6.79339714 L18.8068505,6.79339714 L18.8068505,4.28242162 C18.8068505,1.84313159 16.8192194,-0.141394766 14.3762549,-0.141394766 C11.9330067,-0.141394766 9.94537554,1.84313159 9.94537554,4.28242162 L9.94537554,6.79339714 L4.78729672,6.79339714 C2.24443991,6.79339714 0.175788087,8.8588176 0.175788087,11.3977023 L0.175788087,33.8108931 C0.175788087,34.3978357 0.652121456,34.873425 1.23998239,34.873425 C1.82784332,34.873425 2.30417669,34.3978357 2.30417669,33.8108931 L2.30417669,24.1908704 L44.311473,24.1908704 C44.8993339,24.1908704 45.3756673,23.7152811 45.3756673,23.1283384 C45.3756673,22.5413958 44.8993339,22.0658065 44.311473,22.0658065 L2.30417669,22.0658065 L2.30417669,11.3977023 C2.30417669,10.0307195 3.41817528,8.91846106 4.78729672,8.91846106 L9.94537554,8.91846106 L9.94537554,11.4295782 C9.94537554,13.8688683 11.9330067,15.8533946 14.3762549,15.8533946 C16.8193612,15.8533946 18.8069924,13.8688683 18.8069924,11.4295782 L18.8069924,8.91846106 L31.0327403,8.91846106 L31.0327403,11.4295782 C31.0327403,13.8688683 33.0203715,15.8533946 35.4634778,15.8533946 C37.9065841,15.8533946 39.8942153,13.8688683 39.8942153,11.4295782 L39.8942153,8.91846106 L52.1199632,8.91846106 L52.1199632,11.4295782 C52.1199632,13.8688683 54.1075943,15.8533946 56.5507007,15.8533946 C58.9939489,15.8533946 60.9815801,13.8688683 60.9815801,11.4295782 L60.9815801,8.91846106 L66.1398008,8.91846106 C67.5089222,8.91846106 68.6229208,10.0307195 68.6229208,11.3977023 L68.6229208,22.0658065 L48.9493736,22.0658065 C48.3615127,22.0658065 47.8851793,22.5413958 47.8851793,23.1283384 C47.8851793,23.7152811 48.3615127,24.1908704 48.9493736,24.1908704 L68.6224951,24.1908704 L68.6224951,67.789815 C68.6224951,69.1567978 67.5084965,70.2690563 66.1393751,70.2690563 L58.3408174,70.2690563 C57.7529564,70.2690563 57.2766231,70.7446456 57.2766231,71.3315882 C57.2766231,71.9185309 57.7529564,72.3941202 58.3408174,72.3941202 L66.1393751,72.3941202 C68.6822319,72.3941202 70.7508837,70.3286997 70.7508837,67.789815 L70.7508837,11.3977023 C70.7508837,8.8588176 68.6822319,6.79339714 66.1393751,6.79339714 Z M16.6784619,11.4295782 C16.6784619,12.697108 15.6457678,13.7283307 14.376113,13.7283307 C13.1066002,13.7283307 12.0736222,12.6972497 12.0736222,11.4295782 L12.0736222,4.28242162 C12.0737641,3.01475016 13.1066002,1.98366915 14.3762549,1.98366915 C15.6457678,1.98366915 16.6786038,3.01475016 16.6786038,4.28242162 L16.6786038,11.4295782 L16.6784619,11.4295782 Z M37.7656848,11.4295782 C37.7656848,12.697108 36.7329906,13.7283307 35.4633359,13.7283307 C34.1936812,13.7283307 33.160987,12.6972497 33.160987,11.4295782 L33.160987,4.28242162 C33.160987,3.01475016 34.1938231,1.98366915 35.4633359,1.98366915 C36.7328488,1.98366915 37.7656848,3.01475016 37.7656848,4.28242162 L37.7656848,11.4295782 Z M58.8529077,11.4295782 C58.8529077,12.697108 57.8200716,13.7283307 56.5504169,13.7283307 C55.280904,13.7283307 54.248068,12.6972497 54.248068,11.4295782 L54.248068,4.28242162 C54.248068,3.01489183 55.2807621,1.98366915 56.5504169,1.98366915 C57.8199297,1.98366915 58.8529077,3.01475016 58.8529077,4.28242162 L58.8529077,11.4295782 Z" id="Shape"></path></g></g></g></g></svg>