<svg xmlns="http://www.w3.org/2000/svg" xmlns:xlink="http://www.w3.org/1999/xlink" width="76px" height="78px" viewBox="0 0 76 78"><title>Group 3</title><g id="Icons" stroke="none" stroke-width="1" fill="none" fill-rule="evenodd"><g id="New-Icons" transform="translate(-469.000000, -303.000000)" fill-rule="nonzero"><g id="Group-3" transform="translate(469.000000, 304.000000)"><circle id="Oval" fill-opacity="0.4" fill="#99E880" cx="38.2690058" cy="39.7836257" r="37"></circle><g id="planner" transform="translate(0.000000, -0.000000)" fill="#404652"><path d="M45.5213784,59.969865 L4.0588549,59.969865 C2.89833818,59.969865 1.9540728,59.0312624 1.9540728,57.8777054 L1.9540728,33.1116754 C1.9540728,32.6163716 1.55031545,32.2150356 1.05202332,32.2150356 C0.553731196,32.2150356 0.149973852,32.6163716 0.149973852,33.1116754 L0.149973852,57.8777054 C0.149973852,60.0201964 1.90343775,61.7631448 4.0588549,61.7631448 L45.5213784,61.7631448 C46.0196706,61.7631448 46.4234279,61.3618088 46.4234279,60.8665049 C46.4234279,60.371201 46.0195503,59.969865 45.5213784,59.969865 Z" id="Path"></path><path d="M42.9411652,38.347662 L52.6932481,38.347662 C53.5399222,38.347662 54.2285888,37.6590018 54.2285888,36.8123357 L54.2285888,27.0603442 C54.2285888,26.2136781 53.5399222,25.5248976 52.6932481,25.5248976 L42.9411652,25.5248976 C42.0944911,25.5248976 41.4058245,26.2136781 41.4058245,27.0603442 L41.4058245,36.8123357 C41.4058245,37.6590018 42.0944911,38.347662 42.9411652,38.347662 L42.9411652,38.347662 Z M43.2094409,27.3286174 L52.4248521,27.3286174 L52.4248521,36.5439422 L43.2094409,36.5439422 L43.2094409,27.3286174 Z" id="Shape"></path><path d="M23.5654566,53.5375747 C23.5654566,54.3842328 24.2542371,55.0730068 25.1007829,55.0730068 L34.8528947,55.0730068 C35.6994405,55.0730068 36.388221,54.3843531 36.388221,53.5375747 L36.388221,43.7856746 C36.388221,42.9390165 35.6994405,42.2502425 34.8528947,42.2502425 L25.1007829,42.2502425 C24.2542371,42.2502425 23.5654566,42.9390165 23.5654566,43.7856746 L23.5654566,53.5375747 Z M25.3691764,44.0539454 L34.584381,44.0539454 L34.584381,53.2691837 L25.3691764,53.2691837 L25.3691764,44.0539454 Z" id="Shape"></path><path d="M5.7250888,53.5375747 C5.7250888,54.3842328 6.41386281,55.0730068 7.26052095,55.0730068 L17.012421,55.0730068 C17.8590792,55.0730068 18.5478532,54.3843531 18.5478532,53.5375747 L18.5478532,43.7856746 C18.5478532,42.9390165 17.8590792,42.2502425 17.012421,42.2502425 L7.26052095,42.2502425 C6.41386281,42.2502425 5.7250888,42.9390165 5.7250888,43.7856746 L5.7250888,53.5375747 Z M7.5287917,44.0539454 L16.74403,44.0539454 L16.74403,53.2691837 L7.5287917,53.2691837 L7.5287917,44.0539454 Z" id="Shape"></path><path d="M41.4058245,53.5375747 C41.4058245,54.3842328 42.0944911,55.0730068 42.9411652,55.0730068 L52.6932481,55.0730068 C53.5399222,55.0730068 54.2285888,54.3843531 54.2285888,53.5375747 L54.2285888,43.7856746 C54.2285888,42.9390165 53.5399222,42.2502425 52.6932481,42.2502425 L42.9411652,42.2502425 C42.0944911,42.2502425 41.4058245,42.9390165 41.4058245,43.7856746 L41.4058245,53.5375747 Z M43.2095612,44.0539454 L52.4249724,44.0539454 L52.4249724,53.2691837 L43.2095612,53.2691837 L43.2095612,44.0539454 Z" id="Shape"></path><path d="M34.9941331,25.5248976 L25.1199943,25.5248976 C24.2628557,25.5248976 23.5654566,26.2136781 23.5654566,27.0603442 L23.5654566,36.8123357 C23.5654566,37.6590018 24.2628557,38.347662 25.1199943,38.347662 L34.9941331,38.347662 C35.8512716,38.347662 36.5486707,37.6590018 36.5486707,36.8123357 L36.5486707,31.3580072 L38.9105501,29.0093235 C39.2659461,28.656035 39.2638763,28.084857 38.906167,27.7339734 C38.548336,27.3829695 37.9701328,27.3850137 37.6147368,27.7383023 L36.548549,28.7985288 L36.548549,27.0605847 C36.548549,26.2136781 35.8512716,25.5248976 34.9941331,25.5248976 L34.9941331,25.5248976 Z M34.7222594,36.5439422 L25.3917462,36.5439422 L25.3917462,27.3286174 L34.7222594,27.3286174 L34.7222594,30.6143937 L32.0882629,33.2336353 L30.0881106,31.2928328 C29.7285751,30.9438732 29.1504936,30.9489236 28.7968021,31.3042564 C28.443476,31.6595892 28.4485896,32.2305266 28.8083686,32.5797268 L31.4563667,35.1489453 C31.6341256,35.3213809 31.8652121,35.4073582 32.0962986,35.4073582 C32.3310377,35.4073582 32.565655,35.3184949 32.7441444,35.1410089 L34.7222594,33.1739923 L34.7222594,36.5439422 Z" id="Shape"></path><path d="M16.9268796,25.5248976 L7.24890085,25.5248976 C6.40865019,25.5248976 5.7250888,26.2136781 5.7250888,27.0603442 L5.7250888,36.8123357 C5.7250888,37.6590018 6.40865019,38.347662 7.24890085,38.347662 L16.9269989,38.347662 C17.7672496,38.347662 18.4508109,37.6590018 18.4508109,36.8123357 L18.4508109,30.5408019 L19.9604219,29.0092033 C20.3087661,28.6559147 20.3067374,28.0847368 19.9561258,27.7338531 C19.6052755,27.3828493 19.0385449,27.3848935 18.69032,27.7381821 L18.4506916,27.9812033 L18.4506916,27.0603442 C18.4506916,26.2136781 17.7671302,25.5248976 16.9268796,25.5248976 Z M16.6606391,36.5439422 L7.51514133,36.5439422 L7.51514133,27.3286174 L16.6606391,27.3286174 L16.6606391,29.7971884 L13.2735017,33.2335151 L11.3130361,31.2928328 C10.9606345,30.9438732 10.3937845,30.9488033 10.047469,31.3041361 C9.70103415,31.6593487 9.7060463,32.2304064 10.0586867,32.579366 L12.6540242,35.1485845 C12.8282559,35.3211404 13.0547572,35.4071177 13.2812586,35.4071177 C13.51134,35.4071177 13.7413021,35.3182544 13.9162499,35.1407684 L16.6606391,32.3565465 L16.6606391,36.5439422 Z" id="Shape"></path><path d="M56.4269003,5.79579626 L52.0262781,5.79579626 L52.0262781,3.65355399 C52.0262781,1.57247029 50.3305278,-0.120631142 48.2460672,-0.120631142 C46.1617276,-0.120631142 44.4659773,1.57247029 44.4659773,3.65355399 L44.4659773,5.79579626 L34.0355634,5.79579626 L34.0355634,3.65355399 C34.0356844,1.57247029 32.3399341,-0.120631142 30.2555946,-0.120631142 C28.171255,-0.120631142 26.4755047,1.57247029 26.4755047,3.65355399 L26.4755047,5.79579626 L16.0450908,5.79579626 L16.0450908,3.65355399 C16.0450908,1.57247029 14.3493405,-0.120631142 12.265122,-0.120631142 C10.1806613,-0.120631142 8.48491103,1.57247029 8.48491103,3.65355399 L8.48491103,5.79579626 L4.08428888,5.79579626 C1.91484705,5.79579626 0.149973852,7.55791261 0.149973852,9.72396563 L0.149973852,28.8458107 C0.149973852,29.3465616 0.556358331,29.7523113 1.05789271,29.7523113 C1.55942708,29.7523113 1.96581156,29.3465616 1.96581156,28.8458107 L1.96581156,20.6384749 L37.8043951,20.6384749 C38.3059295,20.6384749 38.7123139,20.2327252 38.7123139,19.7319743 C38.7123139,19.2312233 38.3059295,18.8254736 37.8043951,18.8254736 L1.96581156,18.8254736 L1.96581156,9.72396563 C1.96581156,8.55772236 2.91622101,7.60879751 4.08428888,7.60879751 L8.48491103,7.60879751 L8.48491103,9.75116065 C8.48491103,11.8322443 10.1806613,13.5253458 12.265122,13.5253458 C14.3494615,13.5253458 16.0452118,11.8322443 16.0452118,9.75116065 L16.0452118,7.60879751 L26.4756257,7.60879751 L26.4756257,9.75116065 C26.4756257,11.8322443 28.171376,13.5253458 30.2557156,13.5253458 C32.3400552,13.5253458 34.0358055,11.8322443 34.0358055,9.75116065 L34.0358055,7.60879751 L44.4662194,7.60879751 L44.4662194,9.75116065 C44.4662194,11.8322443 46.1619697,13.5253458 48.2463093,13.5253458 C50.3307699,13.5253458 52.0265202,11.8322443 52.0265202,9.75116065 L52.0265202,7.60879751 L56.4272634,7.60879751 C57.5953313,7.60879751 58.5457407,8.55772236 58.5457407,9.72396563 L58.5457407,18.8254736 L41.7612265,18.8254736 C41.2596921,18.8254736 40.8533076,19.2312233 40.8533076,19.7319743 C40.8533076,20.2327252 41.2596921,20.6384749 41.7612265,20.6384749 L58.5453776,20.6384749 L58.5453776,57.8349754 C58.5453776,59.0012187 57.5949681,59.9501435 56.4269003,59.9501435 L49.7735498,59.9501435 C49.2720155,59.9501435 48.865631,60.3558932 48.865631,60.8566441 C48.865631,61.3573951 49.2720155,61.7631448 49.7735498,61.7631448 L56.4269003,61.7631448 C58.5963421,61.7631448 60.3612153,60.0010284 60.3612153,57.8349754 L60.3612153,9.72396563 C60.3612153,7.55791261 58.5963421,5.79579626 56.4269003,5.79579626 Z M14.2292531,9.75116065 C14.2292531,10.8325555 13.3482086,11.7123445 12.2650009,11.7123445 C11.1819143,11.7123445 10.3006277,10.8326763 10.3006277,9.75116065 L10.3006277,3.65355399 C10.3007487,2.57203831 11.1819143,1.69237011 12.265122,1.69237011 C13.3482086,1.69237011 14.2293741,2.57203831 14.2293741,3.65355399 L14.2293741,9.75116065 L14.2292531,9.75116065 Z M32.2198467,9.75116065 C32.2198467,10.8325555 31.3388023,11.7123445 30.2555946,11.7123445 C29.1723868,11.7123445 28.2913424,10.8326763 28.2913424,9.75116065 L28.2913424,3.65355399 C28.2913424,2.57203831 29.1725079,1.69237011 30.2555946,1.69237011 C31.3386812,1.69237011 32.2198467,2.57203831 32.2198467,3.65355399 L32.2198467,9.75116065 Z M50.2104404,9.75116065 C50.2104404,10.8325555 49.3292749,11.7123445 48.2460672,11.7123445 C47.1629805,11.7123445 46.281815,10.8326763 46.281815,9.75116065 L46.281815,3.65355399 C46.281815,2.57215918 47.1628594,1.69237011 48.2460672,1.69237011 C49.3291538,1.69237011 50.2104404,2.57203831 50.2104404,3.65355399 L50.2104404,9.75116065 Z" id="Shape"></path></g></g></g></g></svg>