<svg xmlns="http://www.w3.org/2000/svg" xmlns:xlink="http://www.w3.org/1999/xlink" width="91px" height="89px" viewBox="0 0 91 89"><title>78168212-9006-4DB5-A1A1-894C2867F210</title><g id="Web" stroke="none" stroke-width="1" fill="none" fill-rule="evenodd"><g id="Homepage_desktopV3" transform="translate(-410.000000, -6075.000000)" fill="#8099E8" fill-rule="nonzero"><g id="rx" transform="translate(411.000000, 6075.000000)"><path d="M82.2111486,9.38393266 L74.7010135,9.38393266 L74.7010135,12.3801535 L82.2111486,12.3801535 C84.6997885,12.3801535 86.7172297,14.3923341 86.7172297,16.8744847 L86.7172297,58.8215758 L73.1989865,58.8215758 L73.1989865,13.2580462 L60.3025824,0.39527027 L16.1219595,0.39527027 L16.1219595,58.8215758 L2.60371622,58.8215758 L2.60371622,15.3763743 C2.60371622,14.6348096 2.60371622,12.3801535 7.1097973,12.3801535 L13.1179054,12.3801535 L13.1179054,9.38393266 L7.1097973,9.38393266 C2.40695068,9.38393266 -0.400337838,11.6310983 -0.400337838,15.3763743 L-0.400337838,66.3121278 C-0.395371962,70.4469921 2.96412287,73.7977269 7.1097973,73.8026798 L32.6442568,73.8026798 L32.6442568,79.7951214 L25.1341216,79.7951214 C22.6454818,79.7951214 20.6280405,81.807302 20.6280405,84.2894526 L20.6280405,85.787563 L17.6239865,85.787563 L17.6239865,88.7837838 L71.6969595,88.7837838 L71.6969595,85.787563 L68.6929054,85.787563 L68.6929054,84.2894526 C68.6929054,81.807302 66.6754642,79.7951214 64.1868243,79.7951214 L56.6766892,79.7951214 L56.6766892,73.8026798 L82.2111486,73.8026798 C86.3568231,73.7977269 89.7163179,70.4469921 89.7212838,66.3121278 L89.7212838,16.8744847 C89.7163179,12.7396203 86.3568231,9.38888559 82.2111486,9.38393266 Z M61.1827703,5.50981917 L68.0710662,12.3801535 L61.1827703,12.3801535 L61.1827703,5.50981917 Z M19.1260135,3.39149107 L58.1787162,3.39149107 L58.1787162,15.3763743 L70.1949324,15.3763743 L70.1949324,58.8215758 L19.1260135,58.8215758 L19.1260135,3.39149107 Z M64.1868243,82.7913422 C65.0163709,82.7913422 65.6888514,83.4620691 65.6888514,84.2894526 L65.6888514,85.787563 L23.6320946,85.787563 L23.6320946,84.2894526 C23.6320946,83.4620691 24.304575,82.7913422 25.1341216,82.7913422 L64.1868243,82.7913422 Z M35.6483108,79.7951214 L35.6483108,73.8026798 L53.6726351,73.8026798 L53.6726351,79.7951214 L35.6483108,79.7951214 Z M86.7172297,66.3121278 C86.7172297,68.7942784 84.6997885,70.806459 82.2111486,70.806459 L7.1097973,70.806459 C4.62115743,70.806459 2.60371622,68.7942784 2.60371622,66.3121278 L2.60371622,61.8177966 L86.7172297,61.8177966 L86.7172297,66.3121278 Z" id="Shape"></path><path d="M48.9932432,66.2534417 C48.9932432,64.5010253 47.9376131,62.9211631 46.3185915,62.2505424 C44.6995698,61.5799217 42.8359953,61.9506097 41.5968498,63.1897552 C40.3577043,64.4289007 39.9870163,66.2924752 40.657637,67.9114969 C41.3282577,69.5305185 42.9081199,70.5861486 44.6605363,70.5861486 C47.0534243,70.5861486 48.9932432,68.6463297 48.9932432,66.2534417 L48.9932432,66.2534417 Z M44.6605363,67.6976774 C43.862907,67.6976774 43.2163006,67.051071 43.2163006,66.2534417 C43.2163006,65.4558124 43.862907,64.8092061 44.6605363,64.8092061 C45.4581656,64.8092061 46.1047719,65.4558124 46.1047719,66.2534417 C46.1047719,67.051071 45.4581656,67.6976774 44.6605363,67.6976774 Z" id="Shape"></path><polygon id="Path" points="46.3935811 35.0574324 64.5912162 35.0574324 64.5912162 37.6570946 46.3935811 37.6570946"></polygon><polygon id="Path" points="40.3277027 41.1233108 64.5912162 41.1233108 64.5912162 43.722973 40.3277027 43.722973"></polygon><polygon id="Path" points="46.3935811 46.3226351 64.5912162 46.3226351 64.5912162 48.9222973 46.3935811 48.9222973"></polygon><polygon id="Path" points="40.3277027 52.3885135 64.5912162 52.3885135 64.5912162 54.9881757 40.3277027 54.9881757"></polygon><path d="M31.5383687,9.06081081 L25.5962838,9.06081081 L25.5962838,25.5637447 L28.5673263,25.5637447 L28.5673263,19.2626245 L33.2734575,26.3918919 L35.7453649,24.7265958 L31.3422799,18.0624111 L31.5383687,18.0624111 C33.9996609,18.0624111 35.9949324,16.0473342 35.9949324,13.561611 C35.9949324,11.0758877 33.9996609,9.06081081 31.5383687,9.06081081 L31.5383687,9.06081081 Z M31.5383687,15.0618777 L28.5673263,15.0618777 L28.5673263,12.0613442 L31.5383687,12.0613442 C32.3587994,12.0613442 33.02389,12.7330365 33.02389,13.561611 C33.02389,14.3901854 32.3587994,15.0618777 31.5383687,15.0618777 Z" id="Shape"></path><polygon id="Path" points="46.4677887 26.3918919 48.9932432 24.7731856 44.2684889 17.2930743 48.9932432 9.81296308 46.4677887 8.19425676 42.4940878 14.4852067 38.5203869 8.19425676 35.9949324 9.81296308 40.7196868 17.2930743 35.9949324 24.7731856 38.5203869 26.3918919 42.4940878 20.100942"></polygon><path d="M27.3293919,43.722973 L35.9949324,43.722973 L35.9949324,35.0574324 L27.3293919,35.0574324 L27.3293919,43.722973 Z M30.2179054,37.9459459 L33.1064189,37.9459459 L33.1064189,40.8344595 L30.2179054,40.8344595 L30.2179054,37.9459459 Z" id="Shape"></path><path d="M27.3293919,54.9881757 L35.9949324,54.9881757 L35.9949324,46.3226351 L27.3293919,46.3226351 L27.3293919,54.9881757 Z M30.2179054,49.2111486 L33.1064189,49.2111486 L33.1064189,52.0996622 L30.2179054,52.0996622 L30.2179054,49.2111486 Z" id="Shape"></path><polygon id="Path" points="40.3277027 35.0574324 42.9273649 35.0574324 42.9273649 37.6570946 40.3277027 37.6570946"></polygon><polygon id="Path" points="40.3277027 46.3226351 42.9273649 46.3226351 42.9273649 48.9222973 40.3277027 48.9222973"></polygon></g></g></g></svg>