<svg xmlns="http://www.w3.org/2000/svg" xmlns:xlink="http://www.w3.org/1999/xlink" width="89px" height="90px" viewBox="0 0 89 90"><title>Group 3</title><g id="Icons" stroke="none" stroke-width="1" fill="none" fill-rule="evenodd"><g id="Thankyou-Page" transform="translate(-345.000000, -147.000000)" fill-rule="nonzero"><g id="Group-3" transform="translate(345.000000, 147.000000)"><circle id="Oval" fill-opacity="0.4" fill="#99E880" cx="44.368864" cy="45.631136" r="44.368864"></circle><g id="stamp" transform="translate(8.478261, 0.000000)" fill="#404652"><path d="M60.2597461,13.6171875 C61.0417773,13.4542187 61.609707,12.7516211 61.609707,11.9463477 L61.609707,1.70966797 C61.609707,0.766992188 60.8423047,0 59.8994922,0 L56.6186523,0 C55.7871289,0 55.0801563,0.589941406 54.9374219,1.4021875 C54.7270117,2.59820312 53.6956055,3.46623047 52.4849609,3.46623047 C51.2743164,3.46623047 50.2430469,2.59820312 50.0326367,1.4021875 C49.8896289,0.589667969 49.1825195,0 48.3514062,0 L44.0524219,0 C43.2211719,0 42.5141992,0.589667969 42.3710547,1.40232422 C42.1606445,2.59833984 41.129375,3.46623047 39.9187305,3.46623047 C38.7080859,3.46623047 37.6768164,2.59806641 37.4662695,1.40259766 C37.3235352,0.589941406 36.6165625,0 35.7850391,0 L31.4844141,0 C30.6531641,0 29.9463281,0.589667969 29.8031836,1.40232422 C29.5927734,2.59833984 28.5613672,3.46623047 27.3507227,3.46623047 C26.1400781,3.46623047 25.1088086,2.59820312 24.8983984,1.4021875 C24.7555273,0.589667969 24.048418,0 23.217168,0 L18.9181836,0 C18.0866602,0 17.3796875,0.589941406 17.2369531,1.4021875 C17.0264062,2.59820312 15.9951367,3.46623047 14.7844922,3.46623047 C13.5738477,3.46623047 12.5425781,2.59820312 12.332168,1.4021875 C12.1892969,0.589667969 11.4821875,0 10.6509375,0 L7.37009766,0 C6.42742187,0 5.66042969,0.766992188 5.66042969,1.70966797 L5.66042969,11.9463477 C5.66042969,12.7514844 6.22794922,13.454082 7.00957031,13.6170508 C8.15787109,13.856582 8.99130859,14.8888086 8.99130859,16.0712891 C8.99130859,17.2537695 8.15787109,18.2858594 7.00970703,18.5255273 C6.22794922,18.6884961 5.66042969,19.3910937 5.66042969,20.1962305 L5.66042969,24.5650781 C5.66042969,25.3702148 6.22794922,26.0728125 7.00957031,26.2357812 C8.15787109,26.4753125 8.99130859,27.5075391 8.99130859,28.6901562 C8.99130859,29.8726367 8.15787109,30.9047266 7.00929688,31.1442578 C6.22767578,31.3075 5.66042969,32.0100977 5.66042969,32.8149609 L5.66042969,37.1853125 C5.66042969,37.9901758 6.22767578,38.6927734 7.00957031,38.8560156 C8.15787109,39.0955469 8.99130859,40.1276367 8.99130859,41.3101172 C8.99130859,42.4925977 8.15787109,43.5248242 7.00970703,43.7644922 C6.22794922,43.9274609 5.66042969,44.6300586 5.66042969,45.4351953 L5.66042969,46.2798438 C4.54193359,45.7752148 3.15669922,45.3448242 1.02320313,45.3448242 C0.458007813,45.3448242 0,45.802832 0,46.3680273 C0,46.9332227 0.458007813,47.3912305 1.02320313,47.3912305 C3.30900391,47.3912305 4.43132813,47.9236133 5.66042969,48.558125 L5.66042969,49.8039063 C5.66042969,50.068457 5.72263672,50.32125 5.83269531,50.5482031 C4.68384766,50.0102148 3.26744141,49.5341602 1.02320313,49.5341602 C0.458007813,49.5341602 0,49.992168 0,50.5573633 C0,51.1225586 0.458007813,51.5805664 1.02320313,51.5805664 C3.40798828,51.5805664 4.52607422,52.159707 5.82052734,52.8301758 C6.69087891,53.2810742 7.63738281,53.7708008 8.98570313,54.0583203 C8.94919922,54.7640625 8.61779297,55.405957 8.10277344,55.8444141 C7.63738281,55.6545117 7.20958984,55.4342578 6.76169922,55.2022461 C5.42349609,54.5089453 3.90632813,53.7232227 1.02320313,53.7232227 C0.458007813,53.7232227 0,54.1812305 0,54.7464258 C0,55.3116211 0.458007813,55.7696289 1.02320313,55.7696289 C3.40798828,55.7696289 4.52607422,56.3487695 5.82052734,57.0192383 C5.86619141,57.0428906 5.91199219,57.0666797 5.95820313,57.0904687 C5.76966797,57.3673242 5.66042969,57.7005078 5.66042969,58.0536523 L5.66042969,68.290332 C5.66042969,69.2331445 6.42742188,70 7.37009766,70 L10.6509375,70 C11.4821875,70 12.1891602,69.410332 12.3323047,68.5976758 C12.5427148,67.4016602 13.5739844,66.5337695 14.7846289,66.5337695 C15.9952734,66.5337695 17.026543,67.4019336 17.2370898,68.5975391 C17.3798242,69.4101953 18.0867969,70 18.9183203,70 L23.2173047,70 C24.0485547,70 24.7555273,69.410332 24.8986719,68.5976758 C25.109082,67.4016602 26.1403516,66.5337695 27.3509961,66.5337695 C28.5616406,66.5337695 29.5930469,67.4017969 29.803457,68.5979492 C29.9466016,69.410332 30.6535742,70 31.4846875,70 L35.7853125,70 C36.6168359,70 37.3238086,69.4101953 37.466543,68.5978125 C37.6770898,67.4017969 38.7083594,66.5337695 39.9190039,66.5337695 C41.1296484,66.5337695 42.160918,67.4017969 42.3713281,68.5979492 C42.5144727,69.410332 43.2214453,70 44.0526953,70 L48.3516797,70 C49.1829297,70 49.8899023,69.410332 50.0330469,68.5976758 C50.243457,67.4016602 51.2747266,66.5337695 52.4853711,66.5337695 C53.6960156,66.5337695 54.7274219,67.4019336 54.937832,68.5975391 C55.0805664,69.4101953 55.7875391,70 56.6190625,70 L59.8999023,70 C60.8427148,70 61.609707,69.2330078 61.609707,68.2901953 L61.6090234,64.740293 C61.6088867,64.1750977 61.1507422,63.7170898 60.5856836,63.7172266 C60.0204883,63.7173633 59.5624805,64.1755078 59.5626172,64.7405664 L59.5633008,67.9537305 L56.8926367,67.9537305 C56.4007227,65.9282422 54.592207,64.4873633 52.4853711,64.4873633 C50.3785352,64.4873633 48.5698828,65.9283789 48.0781055,67.9537305 L44.3264063,67.9537305 C43.8346289,65.9282422 42.0259766,64.4873633 39.9191406,64.4873633 C37.8124414,64.4873633 36.0037891,65.9282422 35.511875,67.9537305 L31.7586719,67.9537305 C31.2668945,65.9282422 29.4582422,64.4873633 27.3512695,64.4873633 C25.2444336,64.4873633 23.4357813,65.9283789 22.9440039,67.9537305 L19.1923047,67.9537305 C18.7003906,65.9282422 16.891875,64.4873633 14.7850391,64.4873633 C12.6782031,64.4873633 10.8694141,65.9283789 10.3777734,67.9537305 L7.70683594,67.9537305 L7.70683594,58.3186133 C7.92708984,58.2577734 8.13955078,58.1798438 8.34421875,58.0881055 C9.20554688,58.3332422 10.2387305,58.4982617 11.5590234,58.4982617 C12.2900586,58.4982617 12.9329102,58.4475391 13.5075391,58.3608594 L13.5075391,59.7858789 C13.5075391,60.8044336 14.3360547,61.6329492 15.3546094,61.6329492 L51.9151172,61.6329492 C52.9336719,61.6329492 53.7621875,60.8044336 53.7621875,59.7858789 L53.7621875,10.2142578 C53.7621875,9.19570313 52.9336719,8.3671875 51.9151172,8.3671875 L24.2135742,8.3671875 C23.6483789,8.3671875 23.1903711,8.82519531 23.1903711,9.39039063 C23.1903711,9.95558594 23.6483789,10.4135938 24.2135742,10.4135938 L51.7157813,10.4135938 L51.7157813,41.5871094 L44.3432227,33.2785742 C43.9105078,32.7908984 43.2887109,32.5002344 42.6371094,32.4806836 C41.9818164,32.4603125 41.3473047,32.7141992 40.8862891,33.1750781 L36.4981641,37.5612891 L30.3244922,30.6038086 C29.8917773,30.1161328 29.2698438,29.825332 28.6182422,29.805918 C27.9691016,29.7869141 27.3285742,30.0394336 26.8675586,30.5004492 L15.554082,41.8085938 L15.554082,10.4135938 L19.7598242,10.4135938 C20.3250195,10.4135938 20.7830273,9.95558594 20.7830273,9.39039063 C20.7830273,8.82519531 20.3250195,8.3671875 19.7598242,8.3671875 L15.3548828,8.3671875 C14.3363281,8.3671875 13.5078125,9.19570313 13.5078125,10.2142578 L13.5078125,47.9103516 C12.9562891,48.0131641 12.3232813,48.0731836 11.5592969,48.0731836 C9.76144531,48.0731836 8.68355469,47.7438281 7.70710938,47.2944336 L7.70710938,45.6997461 C9.65357422,45.1613477 11.038125,43.3595313 11.038125,41.3098438 C11.038125,39.2601563 9.6534375,37.4582031 7.70710938,36.9202148 L7.70710938,33.0795117 C9.6534375,32.5411133 11.038125,30.7394336 11.038125,28.6898828 C11.038125,26.6401953 9.65357422,24.8383789 7.70710938,24.2999805 L7.70710938,20.460918 C9.6534375,19.9225195 11.038125,18.1208398 11.038125,16.0711523 C11.038125,14.0214648 9.65357422,12.2196484 7.70710938,11.6813867 L7.70710938,2.04640625 L10.3776367,2.04640625 C10.8694141,4.07189453 12.6780664,5.51277344 14.7849023,5.51277344 C16.8916016,5.51277344 18.7001172,4.07203125 19.192168,2.04640625 L22.9438672,2.04640625 C23.4356445,4.07189453 25.2442969,5.51277344 27.3511328,5.51277344 C29.4581055,5.51277344 31.2667578,4.07175781 31.7585352,2.04640625 L35.5117383,2.04640625 C36.0036523,4.07189453 37.812168,5.51277344 39.9190039,5.51277344 C42.0258398,5.51277344 43.8346289,4.07175781 44.3262695,2.04640625 L48.0779688,2.04640625 C48.5697461,4.07189453 50.3783984,5.51277344 52.4852344,5.51277344 C54.5919336,5.51277344 56.4004492,4.07203125 56.8925,2.04640625 L59.5631641,2.04640625 L59.5631641,11.6815234 C57.6165625,12.2196484 56.2320117,14.0214648 56.2320117,16.0712891 C56.2320117,18.1208398 57.6165625,19.9226563 59.5631641,20.4610547 L59.5631641,24.3001172 C57.6165625,24.8382422 56.2320117,26.6400586 56.2320117,28.6900195 C56.2320117,30.739707 57.6166992,32.5416602 59.5631641,33.0797852 L59.5631641,36.9203516 C57.6165625,37.4584766 56.2320117,39.260293 56.2320117,41.3099805 C56.2320117,43.3593945 57.6165625,45.1613477 59.5631641,45.6998828 L59.5631641,49.5389453 C57.6165625,50.0770703 56.2320117,51.8788867 56.2320117,53.9287109 C56.2320117,55.9783984 57.6165625,57.7802148 59.5631641,58.3184766 L59.5631641,60.2196875 C59.5631641,60.7848828 60.0211719,61.2428906 60.5863672,61.2428906 C61.1515625,61.2428906 61.609707,60.7848828 61.609707,60.2196875 L61.609707,58.0536523 C61.609707,57.2483789 61.0420508,56.5457813 60.260293,56.3829492 C59.1119922,56.143418 58.2785547,55.1111914 58.2785547,53.9287109 C58.2785547,52.7462305 59.1119922,51.7141406 60.2604297,51.4744727 C61.0421875,51.3112305 61.609707,50.6086328 61.609707,49.8037695 L61.609707,45.4349219 C61.609707,44.6296484 61.0420508,43.9270508 60.2604297,43.7642188 C59.1119922,43.5245508 58.2785547,42.4924609 58.2785547,41.3098438 C58.2785547,40.1273633 59.1119922,39.0952734 60.2604297,38.8557422 C61.0421875,38.6925 61.609707,37.9899023 61.609707,37.1850391 L61.609707,32.8146875 C61.609707,32.0098242 61.0421875,31.3072266 60.260293,31.1439844 C59.1119922,30.9044531 58.2785547,29.8723633 58.2785547,28.6898828 C58.2785547,27.5074023 59.1119922,26.4750391 60.2600195,26.2356445 C61.0420508,26.0726758 61.609707,25.3700781 61.609707,24.5648047 L61.609707,20.195957 C61.609707,19.3906836 61.0420508,18.6880859 60.260293,18.5252539 C59.1119922,18.2857227 58.2785547,17.2536328 58.2785547,16.0710156 C58.2785547,14.8883984 59.1117188,13.856582 60.2597461,13.6171875 L60.2597461,13.6171875 Z M11.5588867,56.4517187 C11.0995117,56.4517187 10.6879883,56.4298437 10.3122852,56.390332 C10.7089063,55.773457 10.9601953,55.0582813 11.0224023,54.2993555 C11.1958984,54.3055078 11.3745898,54.3089258 11.5590234,54.3089258 C12.2900586,54.3089258 12.9329102,54.2582031 13.5075391,54.1715234 L13.5075391,56.2888867 C12.9560156,56.3916992 12.3230078,56.4517187 11.5588867,56.4517187 L11.5588867,56.4517187 Z M15.5538086,44.7018359 L28.3139063,31.9477539 C28.401543,31.8601172 28.5024414,31.8480859 28.5568555,31.8512305 C28.6100391,31.8528711 28.7113477,31.8694141 28.7936523,31.9619727 L36.5451953,40.6977539 C36.9203516,41.120625 37.5670313,41.1591797 37.9896289,40.7838867 C38.4123633,40.4088672 38.4510547,39.7621875 38.0758984,39.3395898 L37.8585156,39.0945898 L42.3326367,34.6225195 C42.4202734,34.5350195 42.5214453,34.524082 42.5755859,34.5259961 C42.6287695,34.5276367 42.7300781,34.5441797 42.8123828,34.6367383 L51.7155078,44.6702539 L51.7155078,59.5862695 L15.5538086,59.5862695 L15.5538086,57.829707 C16.2116992,57.5811523 16.7688281,57.2929492 17.2976563,57.0191016 C18.5923828,56.3486328 19.710332,55.7694922 22.0951172,55.7694922 C24.4799023,55.7694922 25.5978516,56.3486328 26.8925781,57.0191016 C28.230918,57.7122656 29.7480859,58.4979883 32.6313477,58.4979883 C33.196543,58.4979883 33.6545508,58.0399805 33.6545508,57.4747852 C33.6545508,56.9095898 33.196543,56.451582 32.6313477,56.451582 C30.2464258,56.451582 29.1283398,55.8724414 27.83375,55.2019727 C26.4952734,54.5088086 24.9783789,53.7230859 22.0951172,53.7230859 C19.2118555,53.7230859 17.6948242,54.5086719 16.3564844,55.2019727 C16.0857813,55.3422461 15.8223242,55.4778711 15.5538086,55.6057031 L15.5538086,53.6406445 C16.2116992,53.3920898 16.7688281,53.1038867 17.2976563,52.8300391 C18.5923828,52.1595703 19.710332,51.5804297 22.0951172,51.5804297 C24.4799023,51.5804297 25.5978516,52.1595703 26.8925781,52.8300391 C28.230918,53.5232031 29.7480859,54.3089258 32.6313477,54.3089258 C33.196543,54.3089258 33.6545508,53.850918 33.6545508,53.2857227 C33.6545508,52.7205273 33.196543,52.2625195 32.6313477,52.2625195 C30.2464258,52.2625195 29.1283398,51.6833789 27.83375,51.0129102 C26.4952734,50.3197461 24.9783789,49.5341602 22.0951172,49.5341602 C19.2118555,49.5341602 17.6948242,50.3197461 16.3564844,51.0129102 C16.0857813,51.1531836 15.8223242,51.2888086 15.5538086,51.4166406 L15.5538086,49.4514453 C16.2116992,49.2028906 16.7688281,48.9146875 17.2976563,48.6408398 C18.5923828,47.9702344 19.710332,47.3912305 22.0951172,47.3912305 C24.4799023,47.3912305 25.5978516,47.9703711 26.8925781,48.6408398 C28.230918,49.3340039 29.7480859,50.1197266 32.6313477,50.1197266 C33.196543,50.1197266 33.6545508,49.6617188 33.6545508,49.0965234 C33.6545508,48.5313281 33.196543,48.0733203 32.6313477,48.0733203 C30.2464258,48.0733203 29.1283398,47.4941797 27.83375,46.8235742 C26.4952734,46.1304102 24.9783789,45.3448242 22.0951172,45.3448242 C19.2118555,45.3448242 17.6948242,46.1304102 16.3564844,46.8235742 C16.0857813,46.9638477 15.8223242,47.0996094 15.5538086,47.2273047 L15.5538086,44.7018359 Z M11.5588867,50.1195898 C12.2899219,50.1195898 12.9327734,50.0688672 13.5074023,49.9821875 L13.5074023,52.0996875 C12.9558789,52.2025 12.3228711,52.2625195 11.5588867,52.2625195 C11.255918,52.2625195 10.9737305,52.2529492 10.7086328,52.2353125 C10.1880078,50.9416797 9.08933594,49.9212109 7.70669922,49.5389453 L7.70669922,49.5039453 C8.68847656,49.8580469 9.89625,50.1195898 11.5588867,50.1195898 L11.5588867,50.1195898 Z" id="Shape"></path><path d="M49.6976758,21.6607617 C49.6976758,17.9636133 46.6898633,14.9556641 42.9924414,14.9556641 C39.295293,14.9556641 36.2873438,17.9634766 36.2873438,21.6607617 C36.2873438,25.3580469 39.2951563,28.3659961 42.9924414,28.3659961 C46.6898633,28.3659961 49.6976758,25.3580469 49.6976758,21.6607617 Z M38.3338867,21.6607617 C38.3338867,19.0919531 40.4237695,17.0020703 42.9925781,17.0020703 C45.5615234,17.0020703 47.6514063,19.0919531 47.6514063,21.6607617 C47.6514063,24.229707 45.5615234,26.3195898 42.9925781,26.3195898 C40.4237695,26.3195898 38.3338867,24.229707 38.3338867,21.6607617 Z" id="Shape"></path></g></g></g></g></svg>