<svg xmlns="http://www.w3.org/2000/svg" width="18" height="18" viewBox="0 0 18 18" fill="none"><path d="M7.78 13V6.916H9.532V13H7.78ZM7.936 5.872C7.736 5.672 7.636 5.432 7.636 5.152C7.636 4.872 7.736 4.632 7.936 4.432C8.136 4.232 8.376 4.132 8.656 4.132C8.936 4.132 9.176 4.232 9.376 4.432C9.576 4.632 9.676 4.872 9.676 5.152C9.676 5.432 9.576 5.672 9.376 5.872C9.176 6.072 8.936 6.172 8.656 6.172C8.376 6.172 8.136 6.072 7.936 5.872Z" fill="#8099E8"></path><circle cx="9" cy="9" r="8" stroke="#8099E8" stroke-width="2"></circle></svg>