<svg xmlns="http://www.w3.org/2000/svg" width="79" height="49" viewBox="0 0 79 49" fill="none"><g clip-path="url(#clip0_68_7099)"><rect width="79" height="49" fill="white"></rect><path d="M79 49H0.172682L0 0H79V49ZM1.70519 47.5794H77.5754V1.44247H1.42458L1.70519 47.5794Z" fill="#606A83"></path><path d="M78.8705 0H0V16.1293H78.8705V0Z" fill="#212E59"></path><path d="M11.4407 4.78656V7.45293C11.4518 7.7316 11.3763 8.00681 11.2248 8.23976C11.0999 8.47242 10.9026 8.65679 10.6635 8.76427C10.3805 8.90057 10.0699 8.96792 9.75665 8.96096C9.31632 8.98174 8.88449 8.83342 8.54756 8.5457C8.39733 8.40481 8.28048 8.2314 8.20571 8.0384C8.13094 7.8454 8.10019 7.63776 8.11575 7.43105V4.78656H8.9578V7.29993C8.93624 7.54923 9.00533 7.79794 9.15211 7.99932C9.23496 8.07895 9.33373 8.1397 9.44174 8.1774C9.54976 8.2151 9.66451 8.2289 9.77825 8.21789C9.88879 8.23019 10.0006 8.21693 10.1054 8.17907C10.2101 8.14121 10.305 8.07972 10.3828 7.99932C10.5296 7.79794 10.5987 7.54923 10.5771 7.29993V4.78656H11.4407Z" fill="white"></path><path d="M16.4043 8.8954H15.3034L13.5551 5.79189C13.5551 6.33828 13.5551 6.7317 13.5551 6.97211V8.8954H12.7349V4.78656H13.8357L15.584 7.86819C15.584 7.34366 15.584 6.95028 15.584 6.73173V4.78656H16.4043V8.8954Z" fill="white"></path><path d="M19.2322 8.8954H18.3686V5.52964H17.2891V4.78656H20.3334V5.52964H19.2322V8.8954Z" fill="white"></path><path d="M23.614 8.8954H21.2822V4.78656H23.614V5.50783H22.1459V6.40384H23.5061V7.12511H22.1459V8.1742H23.614V8.8954Z" fill="white"></path><path d="M25.6424 7.32176V8.89535H24.7788V4.78651H25.9663C26.3911 4.75762 26.8141 4.86469 27.1754 5.09252C27.308 5.20776 27.4121 5.3527 27.4796 5.51585C27.5471 5.679 27.576 5.85584 27.564 6.03229C27.5687 6.25928 27.5006 6.4817 27.3697 6.66612C27.2357 6.86189 27.0481 7.01376 26.83 7.10319C27.4345 8.04298 27.8231 8.63309 28.0175 8.89535H27.0675L26.0959 7.32176H25.6424ZM25.6424 6.62237H25.9015C26.1145 6.6434 26.328 6.58934 26.5061 6.46936C26.5717 6.42354 26.6242 6.36105 26.6583 6.28814C26.6924 6.21524 26.7069 6.13457 26.7004 6.05417C26.7093 5.97352 26.6958 5.89193 26.6615 5.81859C26.6272 5.74525 26.5734 5.68304 26.5061 5.63891C26.3211 5.53765 26.1113 5.49215 25.9015 5.50778H25.6424V6.62237Z" fill="white"></path><path d="M31.2337 7.75882C31.2405 7.92508 31.2089 8.09063 31.1414 8.24238C31.074 8.39413 30.9725 8.52789 30.8451 8.63302C30.5249 8.86458 30.137 8.98007 29.7439 8.96084C29.347 8.96984 28.954 8.87977 28.5996 8.69859V7.88995C28.8188 8.00482 29.0507 8.09285 29.2905 8.1522C29.4618 8.18377 29.6374 8.18377 29.8087 8.1522C29.9597 8.15564 30.1089 8.11786 30.2405 8.04288C30.2898 8.00447 30.3292 7.95466 30.3555 7.89762C30.3818 7.84057 30.3942 7.77796 30.3917 7.71507C30.4133 7.64386 30.4133 7.5677 30.3917 7.4965C30.3426 7.42245 30.2757 7.3623 30.1973 7.32168L29.6576 7.03755C29.4614 6.95835 29.2791 6.84767 29.1178 6.70973C28.9879 6.60449 28.8843 6.46972 28.8155 6.31635C28.7681 6.15222 28.7681 5.97778 28.8155 5.81365C28.8044 5.65216 28.8319 5.49036 28.8958 5.34197C28.9597 5.19357 29.0581 5.06299 29.1826 4.96132C29.4628 4.73457 29.8182 4.62505 30.1757 4.65531C30.3766 4.63276 30.5794 4.63276 30.7803 4.65531C30.9871 4.71207 31.1893 4.78516 31.3848 4.87388L31.1042 5.5514L30.5644 5.3547H30.1542C30.0229 5.3465 29.893 5.38515 29.7871 5.46396C29.7447 5.50227 29.7112 5.54955 29.6888 5.60242C29.6664 5.65528 29.6557 5.71248 29.6576 5.76996C29.6377 5.83398 29.6377 5.90263 29.6576 5.96666L29.8303 6.14147L30.3701 6.4256C30.6689 6.54169 30.9355 6.72913 31.1473 6.97199C31.2136 7.09039 31.2554 7.22119 31.2702 7.35643C31.2851 7.49168 31.2727 7.62858 31.2337 7.75882Z" fill="white"></path><path d="M33.9964 5.46383C33.8523 5.45274 33.7079 5.48144 33.5786 5.54687C33.4493 5.6123 33.34 5.71204 33.2623 5.8354C33.0552 6.13511 32.9561 6.49776 32.9816 6.86261C32.9816 7.78054 33.3271 8.23951 33.9964 8.23951C34.3507 8.21932 34.7 8.14564 35.0328 8.02095V8.74215C34.683 8.88597 34.3092 8.96019 33.9316 8.96072C33.6792 8.97598 33.4266 8.93494 33.1915 8.84053C32.9565 8.74612 32.7448 8.60064 32.5714 8.41433C32.2384 7.9694 32.0702 7.42021 32.0964 6.86261C32.0914 6.47065 32.1725 6.08241 32.3339 5.72608C32.4781 5.4159 32.7114 5.15694 33.0032 4.983C33.3105 4.82363 33.6511 4.74122 33.9964 4.74263C34.409 4.74028 34.8161 4.8377 35.1839 5.02676L34.9032 5.72608L34.4498 5.55127C34.3063 5.49065 34.1519 5.46087 33.9964 5.46383V5.46383Z" fill="white"></path><path d="M39.5447 8.8954H38.6811V7.12511H37.0834V8.8954H36.2197V4.78656H37.0834V6.40384H38.6811V4.78656H39.5447V8.8954Z" fill="white"></path><path d="M42.436 8.8954H41.5723V5.52964H40.4712V4.78656H43.5371V5.52964H42.436V8.8954Z" fill="white"></path><path d="M47.7898 4.78646V7.45283C47.7907 7.7302 47.716 8.00249 47.5739 8.23966C47.4463 8.47821 47.24 8.66383 46.991 8.76417C46.644 8.92387 46.2615 8.98778 45.8823 8.94939C45.5031 8.911 45.1407 8.77168 44.8319 8.5456C44.6852 8.40194 44.5708 8.22807 44.4963 8.03577C44.4218 7.84347 44.389 7.63721 44.4 7.43095V4.78646H45.2637V7.29983C45.2421 7.54913 45.3112 7.79784 45.458 7.99922C45.5391 8.08138 45.6377 8.14377 45.7462 8.18163C45.8546 8.2195 45.9702 8.23187 46.0841 8.21778C46.1947 8.23009 46.3065 8.21683 46.4113 8.17897C46.516 8.14111 46.6108 8.07962 46.6887 7.99922C46.8355 7.79784 46.9046 7.54913 46.883 7.29983V4.78646H47.7898ZM45.1773 4.04338C45.1563 3.99906 45.1453 3.9505 45.1453 3.90132C45.1453 3.85213 45.1563 3.80357 45.1773 3.75925C45.2672 3.72161 45.3681 3.72161 45.458 3.75925C45.5618 3.7584 45.6621 3.79749 45.7387 3.86857C45.7702 3.95308 45.7702 4.04631 45.7387 4.13082C45.7717 4.22258 45.7717 4.32319 45.7387 4.41495C45.6477 4.44659 45.5489 4.44659 45.458 4.41495C45.3681 4.4526 45.2672 4.4526 45.1773 4.41495C45.137 4.3616 45.1152 4.29628 45.1152 4.22913C45.1152 4.16199 45.137 4.09673 45.1773 4.04338V4.04338ZM46.2784 4.04338C46.2749 3.98885 46.2849 3.93426 46.3076 3.88464C46.3302 3.83502 46.3647 3.79192 46.408 3.75925C46.4979 3.72161 46.5988 3.72161 46.6887 3.75925C46.7925 3.7584 46.8928 3.79749 46.9694 3.86857C47.0009 3.95308 47.0009 4.04631 46.9694 4.13082C47.0066 4.22179 47.0066 4.32399 46.9694 4.41495C46.8784 4.44659 46.7796 4.44659 46.6887 4.41495C46.5988 4.4526 46.4979 4.4526 46.408 4.41495C46.3495 4.3756 46.3053 4.31809 46.2819 4.25108C46.2586 4.18407 46.2573 4.11116 46.2784 4.04338V4.04338Z" fill="white"></path><path d="M51.7387 8.89536H48.7808V8.41454L50.7239 5.59516H48.7808V4.87396H51.6955V5.44223L49.7523 8.26153H51.7603L51.7387 8.89536Z" fill="white"></path><path d="M54.2646 8.8954H53.4009V5.52964H52.2998V4.78656H55.3657V5.52964H54.2646V8.8954Z" fill="white"></path><path d="M60.3939 4.78656H61.2573L59.8975 8.8954H58.9477L57.5879 4.78656H58.4513L59.2067 7.23436C59.2067 7.38735 59.2067 7.54036 59.3362 7.73706C59.3434 7.86809 59.3434 7.99941 59.3362 8.13044C59.3883 7.82719 59.4604 7.52781 59.5521 7.23436L60.3939 4.78656Z" fill="white"></path><path d="M65.7684 6.84081C65.8016 7.40956 65.6247 7.97047 65.272 8.41441C65.0846 8.6001 64.8613 8.74451 64.6162 8.83854C64.371 8.93258 64.1093 8.9742 63.8474 8.9608C63.5854 8.97555 63.3233 8.93458 63.0779 8.84048C62.8326 8.74637 62.6094 8.6012 62.4228 8.41441C62.0866 7.96044 61.9048 7.40828 61.9048 6.84081C61.9048 6.27335 62.0866 5.72119 62.4228 5.26722C62.8167 4.91683 63.3231 4.72363 63.8474 4.72363C64.3717 4.72363 64.8781 4.91683 65.272 5.26722C65.6247 5.71116 65.8016 6.27207 65.7684 6.84081ZM62.8113 6.84081C62.7845 7.20267 62.8755 7.56346 63.0704 7.86802C63.1605 7.98769 63.2789 8.08244 63.4147 8.14355C63.5505 8.20467 63.6993 8.23018 63.8474 8.21772C64.5165 8.21772 64.8619 7.75874 64.8619 6.84081C64.8619 5.92289 64.5381 5.46391 63.8474 5.46391C63.6993 5.45145 63.5505 5.47696 63.4147 5.53808C63.2789 5.59919 63.1605 5.69394 63.0704 5.81361C62.8755 6.11817 62.7845 6.47896 62.8113 6.84081V6.84081Z" fill="white"></path><path d="M70.5172 8.8954H69.438L67.6681 5.79189C67.6681 6.33828 67.6681 6.7317 67.6681 6.97211V8.8954H66.9126V4.78656H67.9918L69.7402 7.86819C69.7402 7.34366 69.7402 6.95028 69.7402 6.73173V4.78656H70.5172V8.8954Z" fill="white"></path><path d="M22.3186 14.6433H21.4766V10.6H23.7868V11.3212H22.3186V12.3703H23.6788V13.0916H22.3186V14.6433Z" fill="white"></path><path d="M28.1907 10.5999V13.2663C28.1916 13.5436 28.1169 13.8159 27.9748 14.053C27.8472 14.2916 27.6408 14.4773 27.3918 14.5776C27.0449 14.7373 26.6624 14.8012 26.2832 14.7628C25.904 14.7244 25.5415 14.5851 25.2327 14.359C25.0861 14.2154 24.9717 14.0415 24.8972 13.8492C24.8227 13.6569 24.7899 13.4506 24.8009 13.2444V10.5999H25.6646V13.1133C25.643 13.3626 25.7121 13.6113 25.8589 13.8126C25.94 13.8948 26.0385 13.9572 26.147 13.9951C26.2555 14.0329 26.3711 14.0453 26.485 14.0312C26.5956 14.0435 26.7074 14.0302 26.8121 13.9923C26.9169 13.9545 27.0117 13.893 27.0896 13.8126C27.2363 13.6113 27.3054 13.3626 27.2839 13.1133V10.5999H28.1907ZM25.5782 9.81313C25.5571 9.7688 25.5462 9.72024 25.5462 9.67106C25.5462 9.62188 25.5571 9.57332 25.5782 9.52899C25.6681 9.49135 25.769 9.49135 25.8589 9.52899C25.9627 9.52814 26.063 9.56717 26.1396 9.63824C26.1711 9.72276 26.1711 9.81598 26.1396 9.9005C26.1726 9.99226 26.1726 10.0929 26.1396 10.1846C26.0493 10.22 25.9492 10.22 25.8589 10.1846C25.769 10.2223 25.6681 10.2223 25.5782 10.1846C25.5495 10.1561 25.5267 10.1221 25.5111 10.0846C25.4955 10.0471 25.4875 10.0068 25.4875 9.96606C25.4875 9.92536 25.4955 9.88507 25.5111 9.84754C25.5267 9.81001 25.5495 9.77598 25.5782 9.7475V9.81313ZM26.6793 9.81313C26.6758 9.75859 26.6858 9.70401 26.7085 9.65439C26.7311 9.60476 26.7656 9.56167 26.8089 9.52899C26.8987 9.49135 26.9997 9.49135 27.0896 9.52899C27.1416 9.52288 27.1943 9.52957 27.2432 9.5486C27.2921 9.56764 27.3357 9.59841 27.3703 9.63824C27.4017 9.72276 27.4017 9.81598 27.3703 9.9005C27.4033 9.99226 27.4033 10.0929 27.3703 10.1846C27.2793 10.2163 27.1805 10.2163 27.0896 10.1846C26.9997 10.2223 26.8987 10.2223 26.8089 10.1846C26.7354 10.1431 26.6808 10.0743 26.6566 9.99268C26.6325 9.91109 26.6406 9.82311 26.6793 9.7475V9.81313Z" fill="white"></path><path d="M32.7884 14.6433H31.9463V12.7856H30.327V14.5558H29.4634V10.6H30.327V12.2173H31.9463V10.6H32.7884V14.6433Z" fill="white"></path><path d="M34.9672 13.0697V14.6433H34.1035V10.6H35.291C35.7223 10.5751 36.1509 10.6817 36.5217 10.906C36.6543 11.0212 36.7584 11.1662 36.8259 11.3293C36.8934 11.4925 36.9223 11.6693 36.9103 11.8458C36.912 12.0723 36.8441 12.2938 36.716 12.4795C36.5735 12.676 36.3788 12.8276 36.1547 12.9167L37.3422 14.7088H36.3922L35.4206 13.1352L34.9672 13.0697ZM34.9672 12.3703H35.2478C35.4608 12.3913 35.6743 12.3372 35.8524 12.2173C35.918 12.1714 35.9705 12.109 36.0046 12.0361C36.0387 11.9632 36.0532 11.8824 36.0467 11.802C36.0556 11.7214 36.0421 11.6398 36.0078 11.5665C35.9735 11.4932 35.9197 11.4309 35.8524 11.3868C35.6595 11.2859 35.4429 11.2406 35.2263 11.2556H34.9672V12.3703Z" fill="white"></path><path d="M40.4934 14.6433H38.1616V10.6H40.4934V11.3212H39.0253V12.2173H40.3855V12.7856H39.0253V13.8346H40.4934V14.6433Z" fill="white"></path><path d="M45.2409 14.6433H44.1401L42.3054 11.5398C42.3054 12.0934 42.3054 12.4869 42.3054 12.72V14.6433H41.5283V10.6H42.6076L44.3775 13.6816C44.3775 13.1571 44.3775 12.7637 44.3775 12.5452V10.6H45.1546L45.2409 14.6433Z" fill="white"></path><path d="M49.926 12.5452C49.945 12.831 49.9027 13.1176 49.8021 13.3855C49.7015 13.6533 49.5449 13.896 49.343 14.0969C49.1214 14.2974 48.8613 14.4494 48.5789 14.5434C48.2965 14.6374 47.998 14.6714 47.7021 14.6433H46.6226V10.6H47.8964C48.4582 10.5731 49.0082 10.7691 49.4294 11.1464C49.6007 11.3338 49.733 11.5543 49.8183 11.7946C49.9036 12.0349 49.9402 12.2902 49.926 12.5452V12.5452ZM49.0192 12.5452C49.0192 11.6709 48.6305 11.2338 47.8748 11.2338H47.4214V13.9002H47.7885C48.6089 13.922 49.0192 13.4849 49.0192 12.567V12.5452Z" fill="white"></path><path d="M53.3797 14.6433H51.0479V10.6H53.3797V11.3212H51.9115V12.2173H53.2933V12.7856H51.9115V13.8346H53.3797V14.6433Z" fill="white"></path><path d="M58.1276 14.6433H57.0268L55.2784 11.5398C55.2784 12.0862 55.2784 12.4796 55.2784 12.72V14.6433H54.5229V10.6H55.6022L57.3505 13.6816C57.3505 13.1571 57.3505 12.7637 57.3505 12.5452V10.6H58.1276V14.6433Z" fill="white"></path><path d="M29.1609 29.7891L28.4702 27.9532H26.1822L25.4699 29.7891H24.8008L26.9593 23.9974H27.4989L29.6573 29.7891H29.1609ZM26.2254 22.9483C26.1882 22.8573 26.1882 22.7551 26.2254 22.6642C26.3017 22.6337 26.3865 22.6337 26.4628 22.6642C26.5459 22.6301 26.6387 22.6301 26.7218 22.6642C26.759 22.7551 26.759 22.8573 26.7218 22.9483C26.7582 23.047 26.7582 23.1556 26.7218 23.2543C26.6387 23.2883 26.5459 23.2883 26.4628 23.2543C26.3865 23.2847 26.3017 23.2847 26.2254 23.2543C26.189 23.1556 26.189 23.047 26.2254 22.9483V22.9483ZM28.2543 27.3194L27.5852 25.5491C27.5852 25.3087 27.4125 25.0464 27.3262 24.7186C27.3262 24.959 27.1967 25.2431 27.0888 25.5491L26.4196 27.3194H28.2543ZM27.7147 22.9483C27.7066 22.8955 27.7124 22.8415 27.7313 22.7917C27.7502 22.7418 27.7817 22.6979 27.8226 22.6642C27.8989 22.6337 27.9838 22.6337 28.0601 22.6642C28.1441 22.6358 28.235 22.6358 28.3191 22.6642C28.3563 22.7551 28.3563 22.8573 28.3191 22.9483C28.3555 23.047 28.3555 23.1556 28.3191 23.2543C28.235 23.2826 28.1441 23.2826 28.0601 23.2543C27.9838 23.2847 27.8989 23.2847 27.8226 23.2543C27.7815 23.2159 27.7503 23.1681 27.7315 23.1148C27.7127 23.0615 27.7069 23.0043 27.7147 22.9483V22.9483Z" fill="#5F6983"></path><path d="M31.1252 27.3851V29.7892H30.4561V24.0194H32.0317C32.5812 23.976 33.129 24.1223 33.5858 24.4346C33.7563 24.5859 33.8899 24.7752 33.976 24.9876C34.0621 25.1999 34.0985 25.4296 34.0823 25.6585C34.0926 26.0074 33.9847 26.3494 33.7766 26.6276C33.5685 26.9059 33.2727 27.1038 32.9383 27.1884L34.4708 29.7892H33.6722L32.2908 27.3851H31.1252ZM31.1252 26.8169H32.0317C32.3996 26.8517 32.7676 26.7508 33.0678 26.5327C33.1793 26.4227 33.2659 26.2895 33.3218 26.1424C33.3777 25.9953 33.4015 25.8377 33.3916 25.6803C33.4044 25.526 33.3819 25.3708 33.3257 25.2267C33.2696 25.0827 33.1813 24.9536 33.0678 24.8498C32.7374 24.669 32.3634 24.5858 31.9886 24.6094H31.1252V26.8169Z" fill="#5F6983"></path><path d="M38.6799 29.7891H34.7515V29.2646L37.7733 24.6313H34.8594V24.0193H38.5935V24.5438L35.5717 29.1772H38.6799V29.7891Z" fill="#5F6983"></path><path d="M41.3562 29.7891H40.687V24.6094H38.8955V24.0193H43.2124V24.6094H41.3993L41.3562 29.7891Z" fill="#5F6983"></path><path d="M47.0127 29.7891H43.8389V24.0193H47.0127V24.6094H44.465V26.4671H46.8184V27.0572H44.465V29.2427H46.9696L47.0127 29.7891Z" fill="#5F6983"></path><path d="M52.5589 29.7891H51.8035L48.7816 24.9372C48.7816 25.5055 48.7816 26.03 48.7816 26.5108V29.7891H48.1772V24.0193H48.7816L51.8898 28.8494C51.8898 28.8494 51.8898 28.5434 51.8898 28.15C51.8898 27.7566 51.8898 27.4943 51.8898 27.3413V24.0193H52.5158L52.5589 29.7891Z" fill="#5F6983"></path><path d="M55.4943 28.3029C55.4848 27.9739 55.5835 27.651 55.7749 27.385C56.0343 27.0502 56.3667 26.781 56.7462 26.5982L56.2929 26.0299C56.2067 25.9029 56.1411 25.7627 56.0986 25.6147C56.076 25.4699 56.076 25.3224 56.0986 25.1776C56.0901 25.0047 56.1207 24.8322 56.188 24.6731C56.2553 24.514 56.3576 24.3726 56.4872 24.2596C56.7881 24.0227 57.1645 23.9061 57.5448 23.9318C57.9046 23.9121 58.2586 24.029 58.5377 24.2596C58.6609 24.3766 58.7575 24.5193 58.8209 24.6778C58.8842 24.8363 58.9128 25.0068 58.9047 25.1776C58.9072 25.4654 58.8076 25.7446 58.624 25.9644C58.3821 26.256 58.0895 26.5004 57.7607 26.6856L59.3363 28.2155C59.4882 28.0517 59.6057 27.8583 59.6817 27.6472C59.7865 27.4163 59.8661 27.1744 59.9191 26.926H60.5667C60.4526 27.5553 60.1772 28.1432 59.768 28.6307L60.9336 29.7891H60.0486L59.3148 29.0897C59.0509 29.3517 58.7343 29.553 58.3866 29.6798C58.0499 29.8138 57.6907 29.8806 57.329 29.8765C56.8578 29.9049 56.394 29.7483 56.0339 29.4394C55.861 29.3072 55.7219 29.135 55.628 28.9373C55.5342 28.7397 55.4883 28.5222 55.4943 28.3029V28.3029ZM57.2858 29.2864C57.572 29.2938 57.8568 29.2436 58.1236 29.1385C58.3904 29.0334 58.6339 28.8757 58.8399 28.6744L57.1347 26.9916C56.9178 27.1224 56.7151 27.2763 56.5303 27.4505C56.4124 27.5533 56.3168 27.6799 56.2497 27.8221C56.2252 27.9741 56.2252 28.1291 56.2497 28.281C56.2444 28.4164 56.2688 28.5513 56.321 28.676C56.3733 28.8007 56.4521 28.9121 56.5519 29.0023C56.7557 29.1818 57.0157 29.2824 57.2858 29.2864V29.2864ZM56.6814 25.1776C56.6804 25.3538 56.725 25.5271 56.8109 25.6802C56.9395 25.8996 57.0996 26.0985 57.2858 26.2704C57.5561 26.1369 57.798 25.9513 57.9981 25.724C58.1289 25.5648 58.1979 25.3627 58.1924 25.1557C58.1958 25.0609 58.1782 24.9665 58.1409 24.8795C58.1035 24.7925 58.0474 24.7151 57.9765 24.653C57.8304 24.5332 57.6464 24.4711 57.4585 24.4782C57.257 24.4683 57.0584 24.5301 56.8973 24.653C56.8247 24.7185 56.7677 24.7996 56.7303 24.8904C56.6929 24.9812 56.6763 25.0794 56.6814 25.1776V25.1776Z" fill="#5F6983"></path><path d="M29.1614 39.012L28.4707 37.1762H26.1827L25.4704 39.012H24.8013L26.9597 33.2203H27.4994L29.6578 39.012H29.1614ZM28.2548 36.5642L27.5857 34.7939C27.5857 34.5535 27.413 34.2912 27.3267 33.9634C27.3267 34.2038 27.1972 34.488 27.0892 34.7939L26.4201 36.5642H28.2548Z" fill="#5F6983"></path><path d="M34.0828 34.8595C34.0982 35.1181 34.0513 35.3766 33.946 35.6127C33.8407 35.8488 33.6802 36.0553 33.4784 36.2145C32.9828 36.552 32.3907 36.7134 31.7948 36.6735H31.1257V38.859H30.4565V33.0892H31.9459C33.3705 33.1767 34.0828 33.7449 34.0828 34.8595ZM31.1257 36.1053H31.73C32.1724 36.1328 32.6135 36.0344 33.0035 35.8212C33.1388 35.7083 33.2449 35.5637 33.3126 35.3999C33.3803 35.2362 33.4076 35.0582 33.3921 34.8813C33.3997 34.7203 33.3706 34.5596 33.3069 34.4118C33.2433 34.264 33.1469 34.133 33.0251 34.029C32.6687 33.8323 32.2647 33.7415 31.8596 33.7667H31.1257V36.1053Z" fill="#5F6983"></path><path d="M40.1477 36.0614C40.1952 36.8517 39.9488 37.6314 39.457 38.247C38.9407 38.7582 38.2473 39.0445 37.5252 39.0445C36.803 39.0445 36.1096 38.7582 35.5933 38.247C35.1494 37.6068 34.9111 36.8436 34.9111 36.0614C34.9111 35.2792 35.1494 34.516 35.5933 33.8759C35.8439 33.6146 36.1471 33.411 36.4823 33.279C36.8175 33.147 37.1769 33.0897 37.536 33.1109C37.8938 33.0897 38.2517 33.1493 38.584 33.2853C38.9162 33.4214 39.2144 33.6306 39.457 33.8978C39.9418 34.5086 40.1877 35.2788 40.1477 36.0614V36.0614ZM35.6149 36.0614C35.5688 36.6891 35.7363 37.3139 36.0898 37.8317C36.2713 38.0355 36.495 38.1961 36.7451 38.3019C36.9951 38.4077 37.2652 38.4561 37.536 38.4437C37.8043 38.4626 38.0732 38.4171 38.3208 38.3107C38.5684 38.2044 38.7876 38.0402 38.9606 37.8317C39.2717 37.295 39.4358 36.6838 39.4358 36.0614C39.4358 35.439 39.2717 34.8279 38.9606 34.2911C38.7844 34.0866 38.5646 33.9252 38.3178 33.8192C38.071 33.7132 37.8037 33.6653 37.536 33.6792C37.2652 33.6667 36.9951 33.7151 36.7451 33.8209C36.495 33.9267 36.2713 34.0873 36.0898 34.2911C35.698 34.7946 35.4919 35.4206 35.507 36.0614H35.6149Z" fill="#5F6983"></path><path d="M42.889 39.0121H42.3062V33.7668H40.5146V33.1766H44.8316V33.7668H43.0401L42.889 39.0121Z" fill="#5F6983"></path><path d="M49.688 39.0119H49.0405V36.3019H46.0402V39.0119H45.3711V33.2421H46.0402V35.6899H49.0405V33.2421H49.688V39.0119Z" fill="#5F6983"></path><path d="M54.2657 39.0119H51.0918V33.2421H54.2657V33.8322H51.7395V35.6899H54.1145V36.28H51.7395V38.4656H54.2657V39.0119Z" fill="#5F6983"></path><path d="M59.5743 39.0121H58.7972L56.6387 36.2146L56.056 36.761V38.9465H55.2573V33.1766H55.9264V36.0398L58.5166 33.1766H59.2937L57.0057 35.6901L59.5743 39.0121Z" fill="#5F6983"></path><path d="M63.2442 39.0119H60.0703V33.2421H63.2442V33.8322H60.7396V35.6899H63.093V36.28H60.7396V38.4656H63.2442V39.0119Z" fill="#5F6983"></path><path d="M64.9924 36.5423V39.012H64.3232V33.2421H65.8989C66.4484 33.1988 66.9962 33.3452 67.453 33.6574C67.6235 33.8087 67.7571 33.998 67.8432 34.2103C67.9293 34.4227 67.9657 34.6523 67.9495 34.8813C67.9638 35.2311 67.8576 35.5751 67.6488 35.8543C67.4401 36.1334 67.1419 36.3303 66.8055 36.4112L68.338 39.012H67.5609L66.1795 36.6079L64.9924 36.5423ZM64.9924 35.9741H65.8989C66.2668 36.0089 66.6348 35.9081 66.935 35.69C67.0465 35.58 67.1332 35.4468 67.189 35.2997C67.2449 35.1526 67.2687 34.9949 67.2588 34.8376C67.2716 34.6833 67.2491 34.5281 67.1929 34.384C67.1368 34.2399 67.0485 34.1109 66.935 34.0071C66.6046 33.8263 66.2306 33.743 65.8558 33.7667H64.9924V35.9741Z" fill="#5F6983"></path><path d="M73.5398 39.0119H72.7843L69.6761 34.16C69.6761 34.7283 69.6761 35.2528 69.6761 35.7336V39.0119H69.0718V33.2421H69.8272L72.9139 38.0722C72.9139 38.0722 72.9139 37.7662 72.9139 37.3728C72.9139 36.9794 72.9139 36.7171 72.9139 36.5641V33.2421H73.5398V39.0119Z" fill="#5F6983"></path><path fill-rule="evenodd" clip-rule="evenodd" d="M12.3463 28.1935C12.4974 28.412 12.8428 28.1935 12.7564 28.5431C12.6701 28.8928 12.3679 28.9803 11.9362 28.9584C11.5045 28.9366 11.3966 28.8054 11.2671 28.9584C11.1376 29.1114 11.2671 29.0896 11.3966 29.177C11.5261 29.2644 14.3321 30.2916 14.7638 30.532C15.1955 30.7724 15.4545 30.9473 15.4977 31.5811C15.4977 32.7613 12.2384 33.0672 12.2384 34.2037C12.2384 34.9249 14.3969 35.4932 14.3969 36.6078C14.3969 37.0886 13.4255 37.6351 13.3824 38.0066C13.3392 38.3781 13.663 38.7278 13.5551 38.7934C13.4652 38.7632 13.3824 38.7147 13.3119 38.6508C13.2413 38.5869 13.1845 38.5089 13.1449 38.4219C12.8859 37.6351 14.0299 37.0887 14.0299 36.6297C14.0299 36.1707 11.8714 35.2309 11.8714 34.5753C11.8714 33.9196 11.8714 33.1109 13.4471 32.499C15.0228 31.887 15.0876 31.6685 15.0444 31.5155C15.0012 31.3625 14.7206 31.1221 14.1594 30.9473L10.857 29.7234C10.4469 29.5704 10.0799 29.2426 10.1447 28.8492C10.2094 28.4558 10.749 28.1498 11.5693 28.1716C11.8714 28.1716 11.8283 28.0186 12.0873 28.0623C12.3463 28.106 12.4111 28.1716 12.4758 28.259" fill="#606A83"></path><path fill-rule="evenodd" clip-rule="evenodd" d="M14.4829 28.1935C14.3318 28.412 14.008 28.1935 14.0728 28.5431C14.1375 28.8928 14.4829 28.9803 14.9146 28.9584C15.3463 28.9366 15.4326 28.8054 15.5837 28.9584C15.7348 29.1114 15.5837 29.0896 15.4542 29.177C15.3247 29.2644 12.4971 30.2916 12.0654 30.532C11.6337 30.7724 11.3747 30.9473 11.3315 31.5811C11.3315 32.7613 14.5908 33.0672 14.5908 34.2037C14.5908 34.9249 12.4324 35.4932 12.4324 36.6078C12.4324 37.0886 13.4253 37.6351 13.4684 38.0066C13.5116 38.3782 13.1662 38.7278 13.2742 38.7934C13.3821 38.8589 13.6411 38.6186 13.7059 38.4219C13.9433 37.6351 12.7993 37.0887 12.7993 36.6297C12.7993 36.1707 14.9578 35.2309 14.9578 34.5753C14.9578 33.9196 14.9578 33.1109 13.3821 32.499C11.8064 31.887 11.7632 31.6685 11.8064 31.5155C11.8496 31.3625 12.1086 31.1221 12.6698 30.9473L15.9723 29.7234C16.404 29.5704 16.7709 29.2426 16.6845 28.8492C16.5982 28.4558 16.1018 28.1498 15.2815 28.1716C14.9578 28.1716 15.0009 28.0186 14.7419 28.0623C14.5934 28.0788 14.4556 28.1486 14.3534 28.259" fill="#606A83"></path><path fill-rule="evenodd" clip-rule="evenodd" d="M22.4265 24.9369C21.3908 24.8622 20.3683 24.6566 19.383 24.325H19.6636C18.9175 24.1979 18.1915 23.97 17.5052 23.6475C17.2378 23.5093 16.9419 23.4373 16.6418 23.4373C16.3416 23.4373 16.0457 23.5093 15.7784 23.6475C14.9366 24.0408 15.0877 24.8276 14.8718 25.1992C14.656 25.5707 14.4185 25.7237 13.771 25.7674V26.8165C14.548 28.3683 15.2172 28.0185 15.2172 28.0185L14.8718 27.494C15.0096 27.6519 15.1854 27.771 15.382 27.8399C15.5786 27.9088 15.7895 27.9252 15.9942 27.8874L15.6057 27.4285C15.7658 27.5621 15.9549 27.6555 16.1574 27.7011C16.36 27.7466 16.5703 27.7431 16.7713 27.6907C16.6107 27.5399 16.4593 27.3793 16.318 27.2099C16.533 27.3697 16.7855 27.4698 17.0505 27.5004C17.3155 27.5311 17.5838 27.4912 17.8289 27.3847L17.2677 27.0132C17.5279 27.1734 17.8266 27.2581 18.1311 27.2581C18.4356 27.2581 18.7343 27.1734 18.9945 27.0132C18.827 26.9532 18.6676 26.8724 18.5196 26.7728C18.7735 26.8766 19.0518 26.903 19.3203 26.8486C19.5888 26.7942 19.8357 26.6615 20.0306 26.4668C19.8354 26.4278 19.6466 26.3616 19.4694 26.2701C20.9155 26.5761 21.0235 25.833 21.0235 25.833L20.7213 25.4614C21.3665 25.4966 22.0048 25.3119 22.5344 24.9369" fill="#606A83"></path><path fill-rule="evenodd" clip-rule="evenodd" d="M4.42432 24.9369C5.45304 24.8627 6.46838 24.6571 7.44618 24.325H7.16558C7.91128 24.1959 8.63698 23.9681 9.32405 23.6475C9.59141 23.5093 9.88729 23.4373 10.1874 23.4373C10.4876 23.4373 10.7835 23.5093 11.0508 23.6475C11.8926 24.0408 11.72 24.8276 11.9574 25.1992C12.1948 25.5707 12.4107 25.7237 13.0366 25.7674V26.8165C12.2812 28.3683 11.5904 28.0185 11.5904 28.0185L11.9574 27.494C11.815 27.652 11.6354 27.7709 11.4354 27.8397C11.2353 27.9084 11.0214 27.9249 10.8134 27.8874L11.2019 27.4285C11.0459 27.5618 10.8606 27.6552 10.6615 27.7009C10.4624 27.7465 10.2554 27.743 10.0579 27.6907L10.4896 27.2099C10.2746 27.3697 10.0221 27.4698 9.75709 27.5004C9.4921 27.5311 9.22379 27.4912 8.97869 27.3847L9.5399 27.0132C9.27889 27.1711 8.98053 27.2544 8.6765 27.2544C8.37248 27.2544 8.07412 27.1711 7.81311 27.0132C7.98724 26.9528 8.15385 26.8721 8.30957 26.7728C8.05571 26.8766 7.77738 26.903 7.5089 26.8486C7.24043 26.7942 6.99354 26.6615 6.79865 26.4668C6.9874 26.4296 7.1694 26.3633 7.33826 26.2701C5.89209 26.5761 5.78416 25.833 5.78416 25.833L6.32378 25.6582C5.67851 25.6933 5.04019 25.5086 4.51066 25.1336" fill="#606A83"></path></g><defs><clipPath id="clip0_68_7099"><rect width="79" height="49" fill="white"></rect></clipPath></defs></svg>