<?xml version="1.0" encoding="utf-8"?>
<!-- Generator: Adobe Illustrator 19.0.0, SVG Export Plug-In . SVG Version: 6.00 Build 0)  -->
<svg version="1.1" id="Ebene_1" xmlns="http://www.w3.org/2000/svg" xmlns:xlink="http://www.w3.org/1999/xlink" x="0px" y="0px"
	 viewBox="0 0 467.7 113.4" style="enable-background:new 0 0 467.7 113.4;" xml:space="preserve">
<style type="text/css">
	.st0{fill-rule:evenodd;clip-rule:evenodd;fill:#93C01F;}
	.st1{fill:#93C01F;}
	.st2{fill-rule:evenodd;clip-rule:evenodd;fill:#003869;}
	.st3{fill:#003869;}
</style>
<g id="XMLID_56_">
	<path id="XMLID_98_" class="st0" d="M137.4,42.6c0,16.6-0.7,20.2-6.2,20.2h-4.4V20.9h4c6.3,0,6.6,5.9,6.6,19.3V42.6 M143.2,42.6
		v-2.4c0-15.5-0.5-24-12.4-24h-9.5v51.2h10.1C142.9,67.4,143.2,58.5,143.2,42.6z"/>
	<path id="XMLID_94_" class="st0" d="M155.4,13.8h4.2V8h-4.2V13.8z M164.6,13.8h4.1V8h-4.1V13.8z M172,56.6V19.1h-5.2v37.4
		c0,4.3-0.6,7.6-4.7,7.6c-4.1,0-4.7-3.3-4.7-7.6V19.1h-5.2v37.4c0,6.9,2.2,11.6,10,11.6C169.8,68.2,172,63.2,172,56.6z"/>
	<path id="XMLID_91_" class="st0" d="M196.4,31.5c0,6.1-1.2,9.4-5.6,9.4h-4.1V23.3h4.2C195.3,23.3,196.4,25.9,196.4,31.5
		 M202.1,67.4c-0.6-2.3-0.8-5.8-0.8-7.7c0,0-0.1-6.8-0.1-8.5c0-6.3-2.5-7.5-6.2-8.2c4.3-1.1,6.7-3.4,6.7-11.4
		c0-8.6-2.7-12.4-9.9-12.4h-10.2v48.3h5.2V45.1h3.9c3.8,0,5.3,1.5,5.4,6.6l0.1,8.4c0,2.2,0.1,5.5,0.8,7.2H202.1z"/>
	<path id="XMLID_88_" class="st0" d="M211.3,67.4h5.2V19.1h-5.2V67.4z M233.7,67.4l-11.8-25.8l10.6-22.5h-5.6l-10.2,22.5l11.1,25.8
		H233.7z"/>
	<path id="XMLID_85_" class="st0" d="M255,42.9c0,14,0,21.3-5.5,21.3c-5.4,0-5.5-6.4-5.5-21.3c0-12.5,0-20.6,5.5-20.6
		C254.9,22.3,255,29.6,255,42.9 M260.4,42.9c0-15.1,0.2-24.6-10.8-24.6c-10.9,0-11,10.7-11,24.6c0,16.4,0,25.3,10.9,25.3
		C260.4,68.2,260.4,59.2,260.4,42.9z"/>
	<path id="XMLID_82_" class="st0" d="M284.5,32.9c0,6.1-1,8.7-5.4,8.7h-4.6V23.4h4.5C283.2,23.4,284.5,25.9,284.5,32.9 M289.8,32.9
		c0-9.7-2.5-13.8-10.2-13.8h-10.4v48.3h5.2V45.9h5.1C287.7,45.9,289.8,42.5,289.8,32.9z"/>
	<path id="XMLID_79_" class="st0" d="M311.4,32.9c0,6.1-1,8.7-5.4,8.7h-4.6V23.4h4.5C310.1,23.4,311.4,25.9,311.4,32.9 M316.7,32.9
		c0-9.7-2.5-13.8-10.2-13.8h-10.4v48.3h5.2V45.9h5.1C314.6,45.9,316.7,42.5,316.7,32.9z"/>
	<path id="XMLID_76_" class="st0" d="M347.5,49.5h-9.6l4.7-27L347.5,49.5 M356.4,67.4l-10.3-51.2h-6.6l-10.5,51.2h5.5l2.4-13.2h11.3
		l2.4,13.2H356.4z"/>
	<path id="XMLID_73_" class="st0" d="M378.1,44c0,15.6-0.6,19-5.8,19H368V23.5h3.8c6,0,6.2,5.6,6.2,18.2V44 M383.5,44v-2.3
		c0-14.6-0.5-22.6-11.7-22.6h-9v48.3h9.5C383.2,67.4,383.5,59,383.5,44z"/>
	<polyline id="XMLID_72_" class="st1" points="406.9,67.4 406.9,63.1 396.1,63.1 396.1,19.1 390.9,19.1 390.9,67.4 406.9,67.4 	"/>
	<polyline id="XMLID_71_" class="st1" points="430.1,67.4 430.1,63.1 418.6,63.1 418.6,44.5 429,44.5 429,40.3 418.6,40.3 
		418.6,23.4 429.7,23.4 429.7,19.1 413.3,19.1 413.3,67.4 430.1,67.4 	"/>
	<path id="XMLID_68_" class="st0" d="M451.8,31.5c0,6.1-1.2,9.4-5.6,9.4h-4.1V23.3h4.2C450.7,23.3,451.8,25.9,451.8,31.5
		 M457.5,67.4c-0.6-2.3-0.8-5.8-0.8-7.7c0,0-0.1-6.8-0.1-8.5c0-6.3-2.5-7.5-6.2-8.2c4.3-1.1,6.7-3.4,6.7-11.4
		c0-8.6-2.7-12.4-9.9-12.4h-10.2v48.3h5.2V45.1h3.9c3.8,0,5.3,1.5,5.4,6.6l0.1,8.4c0,2.2,0.1,5.5,0.8,7.2H457.5z"/>
	<rect id="XMLID_67_" x="90.1" y="69" class="st1" width="27.4" height="4.4"/>
	<path id="XMLID_63_" class="st2" d="M25.2,53.1c0,6.6-0.8,11-5.6,11h-4.8v-21h4.1C24.7,43.1,25.2,46.3,25.2,53.1 M24.9,30.4
		c0,6.4-0.8,9.7-5.9,9.7h-4.2V21.2h4.6C24.4,21.2,24.9,25.6,24.9,30.4z M29.1,53.2c0-7-0.8-10.4-6.1-11.7c5.4-1.1,5.6-6.2,5.6-11.7
		c0-6.9-1.5-11.6-8.7-11.6H11v48.9h9.1C27.7,67.1,29.1,62,29.1,53.2z"/>
	<path id="XMLID_60_" class="st2" d="M38.2,67.1H42V18.2h-3.8V67.1z M58,67.1L46,40.8l10.4-22.6h-4L42.3,40.8l11.5,26.3H58z"/>
	<path id="XMLID_57_" class="st2" d="M64.8,67.1h3.8V18.2h-3.8V67.1z M84.5,67.1l-12-26.3L83,18.2h-4L68.8,40.8l11.5,26.3H84.5z"/>
</g>
<g id="XMLID_2_">
	<path id="XMLID_54_" class="st3" d="M125.3,90.7v4.5h7.2v3.2h-7.2v7.4h-3.5V87.6h12v3.2H125.3z"/>
	<path id="XMLID_50_" class="st3" d="M144.2,105.7v-1.2c-0.9,0.9-2.1,1.4-3.3,1.4c-1.3,0-2.4-0.4-3.1-1.2c-1.1-1.1-1.4-2.3-1.4-3.8
		v-8.5h3.3v8c0,1.8,1.1,2.4,2.2,2.4c1,0,2.2-0.6,2.2-2.4v-8h3.3v13.3H144.2z M137.7,90.3v-3.2h2.8v3.2H137.7z M143.3,90.3v-3.2h2.8
		v3.2H143.3z"/>
	<path id="XMLID_48_" class="st3" d="M158.4,96.1c-0.5-0.5-0.9-0.8-1.8-0.8c-1,0-2.1,0.8-2.1,2.4v8h-3.3V92.4h3.2v1.3
		c0.6-0.8,1.9-1.4,3.3-1.4c1.3,0,2.2,0.3,3.1,1.2L158.4,96.1z"/>
	<path id="XMLID_46_" class="st3" d="M174.5,105.9c-2.8,0-4.8-0.6-6.6-2.4l2.3-2.3c1.1,1.1,2.7,1.5,4.4,1.5c2.1,0,3.2-0.8,3.2-2.2
		c0-0.6-0.2-1.2-0.6-1.5c-0.4-0.3-0.8-0.5-1.6-0.6l-2.2-0.3c-1.6-0.2-2.7-0.7-3.5-1.5c-0.9-0.9-1.3-2-1.3-3.6c0-3.2,2.4-5.5,6.3-5.5
		c2.5,0,4.3,0.6,5.9,2.1l-2.2,2.2c-1.1-1.1-2.5-1.2-3.7-1.2c-1.9,0-2.8,1-2.8,2.3c0,0.5,0.2,0.9,0.5,1.3c0.4,0.3,0.9,0.6,1.7,0.7
		l2.1,0.3c1.7,0.2,2.7,0.7,3.5,1.4c1,0.9,1.4,2.2,1.4,3.9C181.2,103.9,178.3,105.9,174.5,105.9z"/>
	<path id="XMLID_44_" class="st3" d="M184.5,105.7V87.6h3.5v18.2H184.5z"/>
	<path id="XMLID_42_" class="st3" d="M192.3,105.7V87.6h12v3.2h-8.4V95h7.2v3.2h-7.2v4.4h8.4v3.2H192.3z"/>
	<path id="XMLID_40_" class="st3" d="M207.3,105.7V102h3.8v3.8H207.3z"/>
	<path id="XMLID_38_" class="st3" d="M226,90.7v4.5h7.2v3.2H226v7.4h-3.5V87.6h12v3.2H226z"/>
	<path id="XMLID_34_" class="st3" d="M244.9,105.7v-1.2c-0.9,0.9-2.1,1.4-3.3,1.4c-1.3,0-2.4-0.4-3.1-1.2c-1.1-1.1-1.4-2.3-1.4-3.8
		v-8.5h3.3v8c0,1.8,1.1,2.4,2.2,2.4c1,0,2.2-0.6,2.2-2.4v-8h3.3v13.3H244.9z M238.4,90.3v-3.2h2.8v3.2H238.4z M244,90.3v-3.2h2.8
		v3.2H244z"/>
	<path id="XMLID_32_" class="st3" d="M259.1,96.1c-0.5-0.5-0.9-0.8-1.8-0.8c-1,0-2.1,0.8-2.1,2.4v8h-3.3V92.4h3.2v1.3
		c0.6-0.8,1.9-1.4,3.3-1.4c1.3,0,2.2,0.3,3.1,1.2L259.1,96.1z"/>
	<path id="XMLID_30_" class="st3" d="M270.1,105.7V87.6h12v3.2h-8.4V95h7.2v3.2h-7.2v4.4h8.4v3.2H270.1z"/>
	<path id="XMLID_28_" class="st3" d="M292,105.9c-3.7,0-6.7-2.5-6.7-6.4V87.6h3.5v11.8c0,2.1,1.2,3.3,3.1,3.3c1.9,0,3.2-1.2,3.2-3.3
		V87.6h3.5v11.9C298.6,103.4,295.7,105.9,292,105.9z"/>
	<path id="XMLID_26_" class="st3" d="M308.7,105.9c-1.9,0-3.6-0.7-4.9-2c-0.8-0.8-1.3-1.7-1.5-2.7c-0.2-1-0.3-2.5-0.3-4.5
		c0-2,0.1-3.5,0.3-4.5c0.2-1,0.7-1.9,1.5-2.7c1.3-1.3,3-2,4.9-2c3.5,0,6.1,2,6.7,5.7h-3.6c-0.4-1.6-1.4-2.6-3.1-2.6
		c-1,0-1.7,0.3-2.3,0.9c-0.7,0.8-0.9,1.6-0.9,5.1c0,3.5,0.2,4.3,0.9,5.1c0.5,0.6,1.3,0.9,2.3,0.9c1.7,0,2.7-1,3.1-2.6h3.6
		C314.7,103.8,312.1,105.9,308.7,105.9z"/>
	<path id="XMLID_24_" class="st3" d="M328.1,105.7v-7.6h-6.1v7.6h-3.5V87.6h3.5V95h6.1v-7.4h3.5v18.2H328.1z"/>
	<path id="XMLID_22_" class="st3" d="M334.5,105.7V102h3.8v3.8H334.5z"/>
	<path id="XMLID_20_" class="st3" d="M353.1,90.7v4.5h7.2v3.2h-7.2v7.4h-3.5V87.6h12v3.2H353.1z"/>
	<path id="XMLID_16_" class="st3" d="M372,105.7v-1.2c-0.9,0.9-2.1,1.4-3.3,1.4c-1.3,0-2.4-0.4-3.1-1.2c-1.1-1.1-1.4-2.3-1.4-3.8
		v-8.5h3.3v8c0,1.8,1.1,2.4,2.2,2.4c1,0,2.2-0.6,2.2-2.4v-8h3.3v13.3H372z M365.5,90.3v-3.2h2.8v3.2H365.5z M371.1,90.3v-3.2h2.8
		v3.2H371.1z"/>
	<path id="XMLID_14_" class="st3" d="M386.2,96.1c-0.5-0.5-0.9-0.8-1.8-0.8c-1,0-2.1,0.8-2.1,2.4v8H379V92.4h3.2v1.3
		c0.6-0.8,1.9-1.4,3.3-1.4c1.3,0,2.2,0.3,3.1,1.2L386.2,96.1z"/>
	<path id="XMLID_11_" class="st3" d="M408.6,104c-1.2,1.2-2.9,1.7-4.8,1.7h-6.6V87.6h6.6c1.9,0,3.6,0.5,4.8,1.7c2,2,1.8,4.5,1.8,7.3
		C410.4,99.3,410.6,102,408.6,104z M406.1,91.9c-0.6-0.7-1.4-1.1-2.7-1.1h-2.7v11.8h2.7c1.2,0,2-0.4,2.7-1.1
		c0.7-0.8,0.8-2.1,0.8-4.9C406.9,93.8,406.8,92.7,406.1,91.9z"/>
	<path id="XMLID_9_" class="st3" d="M413.5,105.7V87.6h3.5v18.2H413.5z"/>
	<path id="XMLID_7_" class="st3" d="M427.4,105.9c-1.9,0-3.6-0.7-4.9-2c-0.8-0.8-1.3-1.7-1.5-2.7c-0.2-1-0.3-2.5-0.3-4.5
		c0-2,0.1-3.5,0.3-4.5c0.2-1,0.7-1.9,1.5-2.7c1.3-1.3,3-2,4.9-2c3.5,0,6.1,2,6.7,5.7h-3.6c-0.4-1.6-1.4-2.6-3.1-2.6
		c-1,0-1.7,0.3-2.3,0.9c-0.7,0.8-0.9,1.6-0.9,5.1c0,3.5,0.2,4.3,0.9,5.1c0.5,0.6,1.3,0.9,2.3,0.9c1.7,0,2.7-1,3.1-2.6h3.6
		C433.5,103.8,430.9,105.9,427.4,105.9z"/>
	<path id="XMLID_5_" class="st3" d="M446.8,105.7v-7.6h-6.1v7.6h-3.5V87.6h3.5V95h6.1v-7.4h3.5v18.2H446.8z"/>
	<path id="XMLID_3_" class="st3" d="M453.7,105.7V102h3.8v3.8H453.7z"/>
</g>
</svg>
