<svg id="Logos" xmlns="http://www.w3.org/2000/svg" viewBox="0 0 148.314 40.258"><title>ALH_Hallesche-Endorsment_rot_RGB</title><path d="M54.334,38.188q-.191-.5-.358-.991t-.347-.99H50.116l-.706,1.981H48.28q.448-1.232.84-2.278t.766-1.986q.375-.941.744-1.8t.772-1.7h1q.4.839.773,1.7t.743,1.8q.376.941.767,1.986t.84,2.278Zm-1.018-2.876q-.359-.974-.711-1.886t-.733-1.751q-.392.838-.744,1.751t-.7,1.886Z" fill="#be0d3e"/><path d="M61.239,37.248v.94H56.572V30.433h1.086v6.815Z" fill="#be0d3e"/><path d="M67.259,30.433h1.085v7.755H67.259V34.607H63.465v3.581H62.38V30.433h1.085v3.234h3.794Z" fill="#be0d3e"/><path d="M77.587,34.372h1.085V38a3.928,3.928,0,0,1-.386.1q-.251.057-.582.112t-.721.095q-.392.039-.8.039a3.977,3.977,0,0,1-1.488-.268,3.166,3.166,0,0,1-1.153-.783,3.553,3.553,0,0,1-.744-1.265A5.209,5.209,0,0,1,72.54,34.3a4.692,4.692,0,0,1,.3-1.728,3.726,3.726,0,0,1,.8-1.27,3.36,3.36,0,0,1,1.181-.784,3.89,3.89,0,0,1,1.448-.268,5.785,5.785,0,0,1,.935.067,5.551,5.551,0,0,1,.7.156,3.409,3.409,0,0,1,.476.18,2.351,2.351,0,0,1,.252.134l-.347.906a2.951,2.951,0,0,0-.862-.352,4.348,4.348,0,0,0-1.1-.14,2.661,2.661,0,0,0-1.079.213,2.241,2.241,0,0,0-.828.615,2.9,2.9,0,0,0-.532.979,4.1,4.1,0,0,0-.19,1.292,4.622,4.622,0,0,0,.162,1.265,2.7,2.7,0,0,0,.493.979,2.218,2.218,0,0,0,.816.632,2.714,2.714,0,0,0,1.147.224,5.487,5.487,0,0,0,.8-.05,3.726,3.726,0,0,0,.476-.095Z" fill="#be0d3e"/><path d="M82.455,32.246c.089,0,.192,0,.307.016s.23.027.342.045.214.038.308.056a1.646,1.646,0,0,1,.206.051l-.179.906a3.622,3.622,0,0,0-.408-.107,3.662,3.662,0,0,0-.733-.061,2.79,2.79,0,0,0-.576.061l-.375.084v4.891H80.306V32.615a6.924,6.924,0,0,1,.918-.252A5.91,5.91,0,0,1,82.455,32.246Z" fill="#be0d3e"/><path d="M89.259,38.02q-.359.09-.946.19a8.145,8.145,0,0,1-1.36.1,2.893,2.893,0,0,1-1.13-.2,1.82,1.82,0,0,1-.738-.554,2.247,2.247,0,0,1-.4-.845,4.409,4.409,0,0,1-.123-1.08V32.369H85.6v3.043a2.637,2.637,0,0,0,.336,1.522,1.307,1.307,0,0,0,1.13.459c.112,0,.228,0,.347-.011s.231-.017.336-.028.2-.022.285-.034a.836.836,0,0,0,.185-.039V32.369h1.041Z" fill="#be0d3e"/><path d="M96.174,35.289A4.12,4.12,0,0,1,96,36.509a2.758,2.758,0,0,1-.51.962,2.312,2.312,0,0,1-.822.627,2.643,2.643,0,0,1-1.113.224,2.717,2.717,0,0,1-.89-.134,2.793,2.793,0,0,1-.576-.258v2.328H91.049v-7.71q.369-.09.923-.2a6.843,6.843,0,0,1,1.281-.106,3.256,3.256,0,0,1,1.209.212,2.588,2.588,0,0,1,.918.605,2.68,2.68,0,0,1,.587.956A3.674,3.674,0,0,1,96.174,35.289Zm-1.085,0a2.232,2.232,0,0,0-.5-1.566,1.734,1.734,0,0,0-1.343-.549,6.22,6.22,0,0,0-.733.034,3.006,3.006,0,0,0-.419.078v3.671a2.134,2.134,0,0,0,.548.3,2.059,2.059,0,0,0,.783.145,1.677,1.677,0,0,0,.767-.162,1.4,1.4,0,0,0,.52-.448A1.894,1.894,0,0,0,95,36.123,3.67,3.67,0,0,0,95.089,35.289Z" fill="#be0d3e"/><path d="M102.765,35.289a4.12,4.12,0,0,1-.173,1.22,2.758,2.758,0,0,1-.51.962,2.312,2.312,0,0,1-.822.627,2.644,2.644,0,0,1-1.114.224,2.715,2.715,0,0,1-.889-.134,2.793,2.793,0,0,1-.576-.258v2.328H97.64v-7.71q.369-.09.923-.2a6.843,6.843,0,0,1,1.281-.106,3.256,3.256,0,0,1,1.209.212,2.576,2.576,0,0,1,.917.605,2.668,2.668,0,0,1,.588.956A3.674,3.674,0,0,1,102.765,35.289Zm-1.085,0a2.237,2.237,0,0,0-.5-1.566,1.736,1.736,0,0,0-1.343-.549,6.208,6.208,0,0,0-.733.034,3.006,3.006,0,0,0-.419.078v3.671a2.134,2.134,0,0,0,.548.3,2.055,2.055,0,0,0,.783.145,1.673,1.673,0,0,0,.766-.162,1.4,1.4,0,0,0,.521-.448,1.894,1.894,0,0,0,.291-.671A3.728,3.728,0,0,0,101.68,35.289Z" fill="#be0d3e"/><path d="M103.906,35.289a3.714,3.714,0,0,1,.224-1.348,2.823,2.823,0,0,1,.593-.957,2.4,2.4,0,0,1,.851-.57,2.65,2.65,0,0,1,.984-.191,2.242,2.242,0,0,1,1.8.733,3.372,3.372,0,0,1,.626,2.233v.173a1.492,1.492,0,0,1-.011.2h-3.983a2.124,2.124,0,0,0,.526,1.376,1.92,1.92,0,0,0,1.432.47,3.79,3.79,0,0,0,.923-.1,3.259,3.259,0,0,0,.565-.185l.145.873a2.983,2.983,0,0,1-.665.213,4.767,4.767,0,0,1-1.08.112,3.425,3.425,0,0,1-1.315-.23,2.441,2.441,0,0,1-.912-.632,2.561,2.561,0,0,1-.531-.956A4.04,4.04,0,0,1,103.906,35.289Zm3.995-.57a1.748,1.748,0,0,0-.353-1.159,1.213,1.213,0,0,0-1-.453,1.372,1.372,0,0,0-.632.14,1.508,1.508,0,0,0-.465.364,1.657,1.657,0,0,0-.3.514,2.527,2.527,0,0,0-.14.594Z" fill="#be0d3e"/><polygon points="57.596 13.097 51.757 13.097 51.757 7.166 48.28 7.166 48.28 22.675 51.757 22.675 51.757 16.095 57.596 16.095 57.596 22.675 61.074 22.675 61.074 7.166 57.596 7.166 57.596 13.097" fill="#be0d3e"/><path d="M72.654,11.869a3.823,3.823,0,0,0-1.571-.957,7.691,7.691,0,0,0-2.453-.336c-.386,0-.769.02-1.148.056s-.74.082-1.081.135-.657.11-.947.177-.531.131-.725.191l.424,2.674a7.151,7.151,0,0,1,1.426-.345,11.32,11.32,0,0,1,1.672-.123,2.477,2.477,0,0,1,1.783.513,1.838,1.838,0,0,1,.514,1.359v.312a5.326,5.326,0,0,0-.815-.144,10.26,10.26,0,0,0-1.148-.056,8.978,8.978,0,0,0-1.85.189,5.047,5.047,0,0,0-1.582.613,3.172,3.172,0,0,0-1.1,1.137A3.411,3.411,0,0,0,63.637,19a4.119,4.119,0,0,0,.357,1.807A3.009,3.009,0,0,0,65.019,22a4.482,4.482,0,0,0,1.594.659,9.88,9.88,0,0,0,2.061.2,18.962,18.962,0,0,0,3.076-.212c.847-.14,1.51-.263,1.985-.366V15.369a7.493,7.493,0,0,0-.245-1.983A3.56,3.56,0,0,0,72.654,11.869Zm-2.106,8.337a6.534,6.534,0,0,1-.715.067q-.445.023-.936.022a2.888,2.888,0,0,1-1.437-.3,1.135,1.135,0,0,1-.524-1.081,1.185,1.185,0,0,1,.178-.668,1.237,1.237,0,0,1,.492-.424,2.324,2.324,0,0,1,.723-.212,6.767,6.767,0,0,1,.88-.055,6.922,6.922,0,0,1,.737.044c.266.031.467.06.6.089Z" fill="#be0d3e"/><path d="M79.947,19.493a1.414,1.414,0,0,1-.256-.6,4.5,4.5,0,0,1-.067-.8V6.609L76.3,7.142V18.757a6.818,6.818,0,0,0,.19,1.683,2.677,2.677,0,0,0,.713,1.27,3.487,3.487,0,0,0,1.428.815,8.325,8.325,0,0,0,2.351.312l.468-2.743a2.963,2.963,0,0,1-.958-.2A1.342,1.342,0,0,1,79.947,19.493Z" fill="#be0d3e"/><path d="M86.99,19.493a1.4,1.4,0,0,1-.255-.6,4.409,4.409,0,0,1-.067-.8V6.609l-3.321.533V18.757a6.816,6.816,0,0,0,.191,1.683,2.677,2.677,0,0,0,.713,1.27,3.489,3.489,0,0,0,1.427.815,8.331,8.331,0,0,0,2.351.312l.468-2.743a2.963,2.963,0,0,1-.958-.2A1.349,1.349,0,0,1,86.99,19.493Z" fill="#be0d3e"/><path d="M95.451,10.487a5.619,5.619,0,0,0-2.085.4,5.208,5.208,0,0,0-1.794,1.181,5.848,5.848,0,0,0-1.26,1.95,7.177,7.177,0,0,0-.479,2.73A7.653,7.653,0,0,0,90.2,19.16a5.077,5.077,0,0,0,1.137,1.926,5.342,5.342,0,0,0,1.94,1.283,7.384,7.384,0,0,0,2.751.468,11.318,11.318,0,0,0,1.248-.068c.418-.043.807-.1,1.172-.166a9.944,9.944,0,0,0,.99-.234,4.616,4.616,0,0,0,.715-.267l-.446-2.7a6.734,6.734,0,0,1-1.438.411,9.626,9.626,0,0,1-1.794.167,3.836,3.836,0,0,1-2.273-.6,2.2,2.2,0,0,1-.96-1.627h7.535c.015-.178.029-.381.044-.613s.021-.441.021-.635A6.294,6.294,0,0,0,99.4,12.015,5.183,5.183,0,0,0,95.451,10.487Zm-2.208,4.994a4.856,4.856,0,0,1,.212-.836,2.256,2.256,0,0,1,.412-.724,2.011,2.011,0,0,1,.669-.5,2.227,2.227,0,0,1,.958-.189,2.126,2.126,0,0,1,.971.2,2,2,0,0,1,.645.513,2.067,2.067,0,0,1,.38.713,3.472,3.472,0,0,1,.145.825Z" fill="#be0d3e"/><path d="M111,17.021a4.231,4.231,0,0,0-1.125-.849,13.487,13.487,0,0,0-1.8-.8q-.537-.2-.882-.37a3.851,3.851,0,0,1-.546-.314.756.756,0,0,1-.267-.3.888.888,0,0,1-.067-.357q0-.869,1.56-.869a6.865,6.865,0,0,1,1.528.156,11.844,11.844,0,0,1,1.258.357l.579-2.587a9.645,9.645,0,0,0-1.56-.411,10.725,10.725,0,0,0-2.05-.191,5.334,5.334,0,0,0-3.366.96,3.13,3.13,0,0,0-1.225,2.608,3.8,3.8,0,0,0,.245,1.448,3.023,3.023,0,0,0,.691,1.037,4.123,4.123,0,0,0,1.081.746,14.687,14.687,0,0,0,1.415.6,9.13,9.13,0,0,1,1.493.68.844.844,0,0,1,.49.7.689.689,0,0,1-.377.691,3.3,3.3,0,0,1-1.294.178,8.542,8.542,0,0,1-1.761-.188,10.912,10.912,0,0,1-1.738-.525l-.559,2.7a11.02,11.02,0,0,0,1.439.446,10.618,10.618,0,0,0,2.6.267,6.517,6.517,0,0,0,3.688-.889,2.971,2.971,0,0,0,1.3-2.625,4.539,4.539,0,0,0-.166-1.29A2.591,2.591,0,0,0,111,17.021Z" fill="#be0d3e"/><path d="M121.176,19.873a8.19,8.19,0,0,1-1.294.11,2.848,2.848,0,0,1-2.374-.869,3.892,3.892,0,0,1-.68-2.452,3.77,3.77,0,0,1,.725-2.407,2.629,2.629,0,0,1,2.2-.914,5.366,5.366,0,0,1,1.248.134,8.5,8.5,0,0,1,1.027.312l.691-2.652a8.275,8.275,0,0,0-1.517-.479,8.091,8.091,0,0,0-1.716-.169,6.243,6.243,0,0,0-2.541.492,5.671,5.671,0,0,0-1.895,1.326,5.752,5.752,0,0,0-1.192,1.961,6.887,6.887,0,0,0-.412,2.4,8.253,8.253,0,0,0,.345,2.441,5.081,5.081,0,0,0,1.092,1.95,5.213,5.213,0,0,0,1.906,1.3,7.226,7.226,0,0,0,2.764.479,9.6,9.6,0,0,0,1.916-.178,7.81,7.81,0,0,0,1.449-.425l-.468-2.719A5.561,5.561,0,0,1,121.176,19.873Z" fill="#be0d3e"/><path d="M134.225,12.179a3.7,3.7,0,0,0-1.515-1.1,6.3,6.3,0,0,0-2.374-.39,5.366,5.366,0,0,0-1.014.1,6.921,6.921,0,0,0-.858.212V6.654l-3.322.534v15.49h3.321V13.763q.31-.09.7-.167a4.181,4.181,0,0,1,.836-.078,1.65,1.65,0,0,1,1.526.667,4.587,4.587,0,0,1,.413,2.275v6.218h3.322V16.057a9.437,9.437,0,0,0-.234-2.184A4.282,4.282,0,0,0,134.225,12.179Z" fill="#be0d3e"/><path d="M146.867,12.015a5.183,5.183,0,0,0-3.946-1.528,5.614,5.614,0,0,0-2.084.4,5.2,5.2,0,0,0-1.794,1.181,5.85,5.85,0,0,0-1.261,1.95,7.177,7.177,0,0,0-.479,2.73,7.653,7.653,0,0,0,.369,2.409,5.077,5.077,0,0,0,1.137,1.926,5.338,5.338,0,0,0,1.939,1.283,7.389,7.389,0,0,0,2.752.468,11.332,11.332,0,0,0,1.248-.068q.625-.064,1.172-.166a10.011,10.011,0,0,0,.99-.234,4.656,4.656,0,0,0,.715-.267l-.446-2.7a6.727,6.727,0,0,1-1.439.411,9.619,9.619,0,0,1-1.794.167,3.838,3.838,0,0,1-2.273-.6,2.2,2.2,0,0,1-.959-1.627h7.535c.014-.178.029-.381.043-.613s.022-.441.022-.635A6.294,6.294,0,0,0,146.867,12.015Zm-6.153,3.466a4.856,4.856,0,0,1,.212-.836,2.256,2.256,0,0,1,.412-.724,1.991,1.991,0,0,1,.669-.5,2.227,2.227,0,0,1,.958-.189,2.121,2.121,0,0,1,.97.2,2.009,2.009,0,0,1,.646.513,2.082,2.082,0,0,1,.379.713,3.375,3.375,0,0,1,.145.825Z" fill="#be0d3e"/><path d="M23.451,22.11c-7.208-.851-11.087-6.475-12.794-10.93-.052-.137-.113-.3-.525-.3H.306A.332.332,0,0,0,.06,11.4,25.728,25.728,0,0,0,23.449,22.546C23.754,22.5,23.763,22.157,23.451,22.11Z" fill="#be0d3e"/><circle cx="21.88" cy="5.43" r="5.43" fill="#be0d3e"/><path d="M21.233,19.823c6.434-1.889,9.193-7.3,10.124-12.413a.323.323,0,0,1,.317-.241H40.7c.253,0,.343.259.324.475a6.033,6.033,0,0,1-.716,2.08C39.125,12.29,33.031,21.011,23.5,20.686a6.07,6.07,0,0,1-2.276-.42C21.111,20.2,20.978,19.9,21.233,19.823Z" fill="#be0d3e"/></svg>