<?xml version="1.0" encoding="utf-8"?>
<!-- Generator: Adobe Illustrator 15.1.0, SVG Export Plug-In . SVG Version: 6.00 Build 0)  -->
<!DOCTYPE svg PUBLIC "-//W3C//DTD SVG 1.1//EN" "http://www.w3.org/Graphics/SVG/1.1/DTD/svg11.dtd">
<svg version="1.1" xmlns="http://www.w3.org/2000/svg" xmlns:xlink="http://www.w3.org/1999/xlink" x="0px" y="0px"
	 width="683.149px" height="153.071px" viewBox="0 0 683.149 153.071" enable-background="new 0 0 683.149 153.071"
	 xml:space="preserve">
<g id="Logo_neu">
	<g>
		<path fill="#1D4A88" d="M44.074,110.552l10.594-0.017L34.171,51.477H22.454L1.151,110.4h10.114l4.395-13.092l23.949,0.049
			L44.074,110.552z M37.125,89.828H18.162l9.762-28.366h0.077L37.125,89.828z"/>
		<polygon fill="#1D4A88" points="58.025,110.606 58.025,65.76 67.65,65.76 67.65,103.153 87.092,103.153 87.092,110.606 		"/>
		<polygon fill="#1D4A88" points="77.646,65.76 113.981,65.76 113.981,73.214 100.63,73.214 100.63,110.606 91.001,110.606 
			91.001,73.214 77.646,73.214 		"/>
		<polygon fill="#1D4A88" points="117.415,65.76 147.474,65.76 147.474,73.214 127.042,73.214 127.042,83.712 146.171,83.712 
			146.171,91.164 127.042,91.164 127.042,103.153 148.161,103.153 148.161,110.606 117.415,110.606 		"/>
	</g>
	<g>
		<path fill="#1D4A88" d="M200.292,50.209c-17.057,0-26.838,12.272-26.838,30.835c0,18.569,9.781,30.621,26.838,30.621
			s26.84-12.052,26.84-30.621C227.132,62.481,217.349,50.209,200.292,50.209 M200.292,104.237c-10.933,0-16.476-7.805-16.476-23.192
			c0-15.384,5.543-23.191,16.476-23.191c10.933,0,16.476,7.807,16.476,23.191C216.768,96.432,211.225,104.237,200.292,104.237"/>
		<polygon fill="#1D4A88" points="231.884,110.606 231.884,65.76 241.506,65.76 241.506,103.153 260.944,103.153 260.944,110.606 		
			"/>
		<path fill="#1D4A88" d="M266.054,65.76h15.281c13.967-0.123,22.639,6.833,22.639,22.42c0,15.593-8.672,22.554-22.639,22.426
			h-15.281V65.76 M275.675,103.153h4.971c11.429,0.121,13.104-7.824,13.104-14.973c0-7.14-1.674-15.091-13.104-14.966h-4.971
			V103.153z"/>
		<polygon fill="#1D4A88" points="307.946,65.76 338.001,65.76 338.001,73.214 317.576,73.214 317.576,83.712 336.703,83.712 
			336.703,91.164 317.576,91.164 317.576,103.153 338.689,103.153 338.689,110.606 307.946,110.606 		"/>
		<polygon fill="#1D4A88" points="371.106,110.606 353.399,73.34 353.276,73.461 353.276,110.606 344.272,110.606 344.272,65.76 
			358.556,65.76 375.642,101.043 375.761,100.919 375.761,65.76 384.772,65.76 384.772,110.606 		"/>
		<path fill="#1D4A88" d="M391.46,110.606V65.76h16.826c8.023-0.498,16.219,2.859,16.219,11.614c0,4.909-3.416,8.325-7.889,9.813
			v0.126c5.65,1.18,9.869,5.093,9.869,11.681c0,8.881-11.174,12.107-18.062,11.612H391.46 M408.603,83.773
			c4.039,0,6.271-1.678,6.271-5.282c0-3.6-2.232-5.276-6.271-5.276h-7.518v10.559H408.603z M408.603,103.153
			c4.535,0,7.643-0.807,7.643-5.962c0-5.158-3.107-5.964-7.643-5.964h-7.518v11.926H408.603z"/>
		<path fill="#1D4A88" d="M469.007,65.76v28.076c0,11.925-8.568,17.701-19.441,17.701c-10.865,0-19.438-5.776-19.438-17.701V65.76
			h9.627v24.349c0,7.578,0.367,14.474,9.811,14.474c9.441,0,9.816-6.896,9.816-14.474V65.76H469.007"/>
		<path fill="#1D4A88" d="M484.257,110.606h-9.629V65.762h19.068c7.709,0.062,15.598,2.542,15.598,11.674
			c0,5.837-3.793,9.692-9.324,10.871v0.12c7.393,0.81,7.393,5.342,8.203,11.555c0.432,2.859,0.807,8.144,2.611,10.624h-10.621
			c-0.814-3.972-1.238-8.012-1.682-12.052c-0.246-2.484-0.871-5.899-4.035-6.027h-10.189V110.606 M484.257,85.078h8.08
			c4.219-0.061,6.707-2.18,6.707-6.153c0-3.972-2.488-5.65-6.707-5.71h-8.08V85.078z"/>
		<path fill="#1D4A88" d="M535.593,94.144v-7.451h18.383v22.424c-3.291,1.055-6.584,1.67-10.064,1.984
			c-2.174,0.188-4.404,0.436-10.312,0.436c-8.879,0-21.053-5.525-21.053-23.356c0-17.823,12.174-23.346,21.053-23.346
			c12.988,0,20.998,3.908,21.062,14.589h-10.252c0-5.708-3.727-7.639-9.004-7.639c-8.51,0-12.607,6.277-12.607,16.396
			c0,10.126,4.098,16.404,12.607,16.404c3.848,0,6.391-0.499,8.941-0.996v-9.444H535.593"/>
		<polygon fill="#1D4A88" points="560.403,65.76 590.456,65.76 590.456,73.214 570.028,73.214 570.028,83.712 589.161,83.712 
			589.161,91.164 570.028,91.164 570.028,103.153 591.146,103.153 591.146,110.606 560.403,110.606 		"/>
		<path fill="#1D4A88" d="M606.276,110.606h-9.625V65.762h19.066c7.703,0.062,15.59,2.542,15.59,11.674
			c0,5.837-3.787,9.692-9.316,10.871v0.12c7.393,0.81,7.393,5.342,8.201,11.555c0.434,2.859,0.809,8.144,2.607,10.624h-10.623
			c-0.803-3.972-1.24-8.012-1.682-12.052c-0.246-2.484-0.859-5.899-4.035-6.027h-10.184V110.606 M606.276,85.078h8.074
			c4.23-0.061,6.713-2.18,6.713-6.153c0-3.972-2.482-5.65-6.713-5.71h-8.074V85.078z"/>
	</g>
	<g>
		<polygon fill="#1D4A88" points="682.5,77.579 607.376,2.456 593.905,18.716 598.563,23.314 610.026,15.677 677.215,82.864 		"/>
		<g>
			<polygon fill="#1D4A88" points="638.657,2.456 626.508,14.451 631.742,19.758 635.836,15.663 647.35,23.28 652.008,18.683 			"/>
			<polygon fill="#1D4A88" points="590.747,60.663 619.374,32.126 614.16,26.846 580.272,60.599 			"/>
		</g>
		<path fill="#1D4A88" d="M668.951,110.606V81.7l-7.457-7.459v28.953h-23.419c0.373,2.661,0.937,5.702,2.176,7.411L668.951,110.606z
			"/>
	</g>
</g>
<g id="Zusatz_neu">
	<g>
		<path d="M271.293,137.152c-0.51,0-1.08,0-1.62-0.06v7.739h-2.76v-20.249c1.5-0.061,3.15-0.12,4.98-0.12
			c4.65,0,7.229,2.34,7.229,5.939C279.123,134.362,275.883,137.152,271.293,137.152z M271.593,126.743c-0.75,0-1.35,0-1.92,0.029
			v7.979c0.51,0.091,1.08,0.12,1.65,0.12c3-0.029,4.92-1.649,4.92-4.199C276.243,128.152,274.773,126.743,271.593,126.743z"/>
		<path d="M289.983,132.292c-3.15-0.54-4.649,1.77-4.649,6.539v6h-2.7v-14.909h2.61c0,0.93-0.09,2.31-0.33,3.54h0.06
			c0.63-2.07,2.16-4.141,5.13-3.811L289.983,132.292z"/>
		<path d="M294.633,127.462c-0.99,0-1.8-0.78-1.8-1.771c0-0.96,0.81-1.739,1.8-1.739c0.99,0,1.8,0.75,1.8,1.739
			C296.433,126.652,295.623,127.462,294.633,127.462z M293.283,144.832v-14.909h2.7v14.909H293.283z"/>
		<path d="M307.173,144.832h-2.79l-5.609-14.909h3.03l3.15,8.88c0.33,0.96,0.63,1.89,0.87,2.819h0.06
			c0.24-0.87,0.51-1.83,0.84-2.729l3.24-8.97h2.91L307.173,144.832z"/>
		<path d="M322.858,144.832c0-1.05,0-2.13,0.15-2.97h-0.06c-0.72,1.83-2.61,3.239-5.07,3.239c-2.459,0-4.14-1.319-4.14-3.689
			c0-3.27,3.33-5.34,8.97-5.34v-1.109c0-2.07-0.81-3.181-3.27-3.181c-1.41,0-3.21,0.45-4.5,1.23l-0.27-2.311
			c1.44-0.6,3.24-1.079,5.22-1.079c4.29,0,5.52,2.01,5.52,4.979v5.939c0,1.41,0.03,3,0.06,4.29H322.858z M322.708,137.961
			c-5.19,0-6.33,1.591-6.33,2.94c0,1.26,0.9,2.069,2.28,2.069c2.43,0,4.05-2.399,4.05-4.739V137.961z"/>
		<path d="M334.762,145.072c-3.06,0-3.99-1.26-3.99-4.47v-8.58h-3.06v-2.1h3.06v-4.83l2.7-0.75v5.58h4.17v2.1h-4.17v7.62
			c0,2.46,0.45,3.119,2.13,3.119c0.69,0,1.44-0.119,2.04-0.27v2.28C336.802,144.952,335.722,145.072,334.762,145.072z"/>
		<path d="M352.521,137.211h-9.749c-0.12,3.99,1.53,5.7,4.71,5.7c1.529,0,3.149-0.36,4.35-0.93l0.24,2.189
			c-1.44,0.601-3.18,0.93-5.04,0.93c-4.59,0-7.05-2.399-7.05-7.649c0-4.47,2.43-7.8,6.66-7.8c4.199,0,5.969,2.851,5.969,6.271
			C352.61,136.282,352.581,136.702,352.521,137.211z M346.521,131.632c-1.949,0-3.329,1.47-3.629,3.659h6.959
			C349.911,133.102,348.621,131.632,346.521,131.632z"/>
		<path d="M373.852,144.832l-8.01-10.02v10.02h-2.76v-20.249h2.76v9.539l8.04-9.539h3.39l-8.55,9.779l8.88,10.47H373.852z"/>
		<path d="M387.951,132.292c-3.149-0.54-4.649,1.77-4.649,6.539v6h-2.7v-14.909h2.61c0,0.93-0.091,2.31-0.33,3.54h0.06
			c0.63-2.07,2.16-4.141,5.13-3.811L387.951,132.292z"/>
		<path d="M398.601,144.832c0-1.05,0-2.13,0.149-2.97h-0.06c-0.721,1.83-2.61,3.239-5.07,3.239s-4.14-1.319-4.14-3.689
			c0-3.27,3.33-5.34,8.97-5.34v-1.109c0-2.07-0.81-3.181-3.27-3.181c-1.41,0-3.21,0.45-4.5,1.23l-0.271-2.311
			c1.44-0.6,3.24-1.079,5.22-1.079c4.29,0,5.521,2.01,5.521,4.979v5.939c0,1.41,0.029,3,0.06,4.29H398.601z M398.45,137.961
			c-5.189,0-6.33,1.591-6.33,2.94c0,1.26,0.9,2.069,2.28,2.069c2.43,0,4.05-2.399,4.05-4.739V137.961z"/>
		<path d="M415.759,144.832v-9.63c0-2.1-0.569-3.329-2.55-3.329c-2.46,0-4.229,2.489-4.229,5.789v7.17h-2.7v-14.909h2.61
			c0,0.87-0.061,2.25-0.24,3.12l0.06,0.029c0.87-2.069,2.7-3.449,5.25-3.449c3.42,0,4.5,2.13,4.5,4.77v10.439H415.759z"/>
		<path d="M431.749,144.832l-5.52-7.68v7.68h-2.7v-21.899h2.7v13.529l5.25-6.539h3.27l-5.729,6.81l6.18,8.1H431.749z"/>
		<path d="M448.997,137.211h-9.75c-0.12,3.99,1.53,5.7,4.71,5.7c1.53,0,3.15-0.36,4.35-0.93l0.24,2.189
			c-1.439,0.601-3.18,0.93-5.04,0.93c-4.59,0-7.05-2.399-7.05-7.649c0-4.47,2.431-7.8,6.66-7.8c4.2,0,5.97,2.851,5.97,6.271
			C449.087,136.282,449.057,136.702,448.997,137.211z M442.997,131.632c-1.95,0-3.33,1.47-3.63,3.659h6.96
			C446.387,133.102,445.097,131.632,442.997,131.632z"/>
		<path d="M462.497,144.832v-9.63c0-2.1-0.569-3.329-2.55-3.329c-2.46,0-4.229,2.489-4.229,5.789v7.17h-2.7v-14.909h2.61
			c0,0.87-0.061,2.25-0.24,3.12l0.06,0.029c0.87-2.069,2.7-3.449,5.25-3.449c3.42,0,4.5,2.13,4.5,4.77v10.439H462.497z"/>
		<path d="M475.992,144.832h-2.79l-5.609-14.909h3.029l3.15,8.88c0.33,0.96,0.63,1.89,0.87,2.819h0.06
			c0.24-0.87,0.51-1.83,0.84-2.729l3.24-8.97h2.91L475.992,144.832z"/>
		<path d="M495.218,137.211h-9.75c-0.12,3.99,1.53,5.7,4.71,5.7c1.53,0,3.15-0.36,4.35-0.93l0.24,2.189
			c-1.439,0.601-3.18,0.93-5.04,0.93c-4.59,0-7.05-2.399-7.05-7.649c0-4.47,2.431-7.8,6.66-7.8c4.2,0,5.97,2.851,5.97,6.271
			C495.308,136.282,495.277,136.702,495.218,137.211z M489.218,131.632c-1.95,0-3.33,1.47-3.63,3.659h6.96
			C492.607,133.102,491.317,131.632,489.218,131.632z"/>
		<path d="M506.588,132.292c-3.149-0.54-4.649,1.77-4.649,6.539v6h-2.7v-14.909h2.61c0,0.93-0.091,2.31-0.33,3.54h0.06
			c0.63-2.07,2.16-4.141,5.13-3.811L506.588,132.292z"/>
		<path d="M512.229,145.101c-1.109,0-2.22-0.09-3.149-0.27l0.09-2.4c0.93,0.301,2.13,0.511,3.27,0.511c1.98,0,3.33-0.9,3.33-2.28
			c0-3.33-6.93-1.29-6.93-6.54c0-2.52,2.07-4.47,5.97-4.47c0.9,0,1.95,0.12,2.85,0.301l-0.06,2.249c-0.93-0.3-2.01-0.479-3-0.479
			c-1.98,0-2.97,0.84-2.97,2.13c0,3.27,6.96,1.5,6.96,6.51C518.589,143.062,516.188,145.101,512.229,145.101z"/>
		<path d="M523.988,127.462c-0.989,0-1.8-0.78-1.8-1.771c0-0.96,0.811-1.739,1.8-1.739c0.99,0,1.801,0.75,1.801,1.739
			C525.789,126.652,524.979,127.462,523.988,127.462z M522.639,144.832v-14.909h2.7v14.909H522.639z"/>
		<path d="M535.657,145.042c-3.569,0-6.54-1.68-6.54-7.17c0-4.8,2.46-8.189,7.44-8.189c1.17,0,2.34,0.18,3.39,0.48l-0.3,2.369
			c-0.931-0.359-2.04-0.63-3.21-0.63c-3,0-4.47,2.22-4.47,5.61c0,2.909,0.96,5.22,4.26,5.22c1.26,0,2.58-0.301,3.54-0.811l0.21,2.34
			C538.987,144.652,537.397,145.042,535.657,145.042z"/>
		<path d="M552.968,144.832v-9.63c0-2.1-0.569-3.329-2.55-3.329c-2.46,0-4.229,2.489-4.229,5.789v7.17h-2.7v-21.899h2.7v7.05
			c0,0.96-0.061,2.19-0.271,2.97l0.061,0.03c0.87-2.04,2.699-3.359,5.189-3.359c3.42,0,4.5,2.13,4.5,4.77v10.439H552.968z"/>
		<path d="M571.958,137.211h-9.75c-0.12,3.99,1.53,5.7,4.71,5.7c1.53,0,3.15-0.36,4.35-0.93l0.24,2.189
			c-1.439,0.601-3.18,0.93-5.04,0.93c-4.59,0-7.05-2.399-7.05-7.649c0-4.47,2.431-7.8,6.66-7.8c4.2,0,5.97,2.851,5.97,6.271
			C572.048,136.282,572.018,136.702,571.958,137.211z M565.958,131.632c-1.95,0-3.33,1.47-3.63,3.659h6.96
			C569.348,133.102,568.058,131.632,565.958,131.632z"/>
		<path d="M583.328,132.292c-3.149-0.54-4.649,1.77-4.649,6.539v6h-2.7v-14.909h2.61c0,0.93-0.091,2.31-0.33,3.54h0.06
			c0.63-2.07,2.16-4.141,5.13-3.811L583.328,132.292z"/>
		<path d="M596.167,144.832c0-0.87,0.09-2.25,0.239-3.12l-0.06-0.029c-0.87,2.069-2.7,3.449-5.25,3.449c-3.42,0-4.47-2.13-4.47-4.77
			v-10.439h2.67v9.63c0,2.1,0.6,3.329,2.55,3.329c2.46,0,4.26-2.489,4.26-5.789v-7.17h2.67v14.909H596.167z"/>
		<path d="M613.356,144.832v-9.63c0-2.1-0.569-3.329-2.55-3.329c-2.46,0-4.229,2.489-4.229,5.789v7.17h-2.7v-14.909h2.61
			c0,0.87-0.061,2.25-0.24,3.12l0.06,0.029c0.87-2.069,2.7-3.449,5.25-3.449c3.42,0,4.5,2.13,4.5,4.77v10.439H613.356z"/>
		<path d="M626.077,152.601c-3.84,0-6.271-1.529-6.271-4.38c0-1.77,1.141-3.18,2.46-3.87c-0.899-0.42-1.47-1.199-1.47-2.189
			c0-1.05,0.63-2.01,1.68-2.49c-1.47-0.84-2.189-2.369-2.189-4.26c0-3.149,2.37-5.76,6.54-5.76c0.869,0,1.56,0.09,2.34,0.271h5.069
			v2.13h-2.52c0.78,0.6,1.26,1.649,1.26,2.91c0,3.209-2.22,5.549-6.479,5.549c-0.63,0-1.38-0.09-1.891-0.18
			c-0.659,0.271-0.96,0.75-0.96,1.23c0,0.84,0.75,1.17,2.551,1.17h2.76c3.239,0,5.039,1.56,5.039,4.26
			C633.996,150.141,630.757,152.601,626.077,152.601z M628.207,144.982h-3.811c-1.17,0.6-1.92,1.59-1.92,2.729
			c0,1.77,1.681,2.729,4.021,2.729c3.06,0,4.829-1.289,4.829-3.119C631.326,145.881,630.307,144.982,628.207,144.982z
			 M626.707,131.662c-2.37,0-3.78,1.471-3.78,3.48c0,2.22,1.351,3.42,3.69,3.42c2.25,0,3.689-1.23,3.689-3.42
			C630.307,132.952,628.986,131.662,626.707,131.662z"/>
	</g>
</g>
</svg>
