<svg id="Ebene_1" data-name="Ebene 1" xmlns="http://www.w3.org/2000/svg" viewBox="0 0 175.75 80.06"><defs><style>.cls-1{fill:#f50537;}</style></defs><path class="cls-1" d="M344.74,286h5.16l11.67,22.24H356l-2.4-4.61H340.93l-2.36,4.61h-5.5Zm-2,13.79h9l-4.52-9Z" transform="translate(-333.07 -286)"/><path class="cls-1" d="M378.38,306.52a10.18,10.18,0,0,1-6.39,2.21c-4.09,0-7.77-1.35-7.77-7v-9.28H369v8.66c0,2.64,1.2,3.9,4.11,3.9a9.31,9.31,0,0,0,5-1.32V292.48h4.82v15.76h-4.21Z" transform="translate(-333.07 -286)"/><path class="cls-1" d="M387.59,300.34c0-5.19,3.38-8.35,9.34-8.35a11.25,11.25,0,0,1,6,1.54V286h4.82v22.24h-4.21l-.34-1.78a10.15,10.15,0,0,1-6.63,2.27C390.94,308.73,387.59,305.54,387.59,300.34Zm15.33,3.38v-6.79a11,11,0,0,0-5.41-1.22c-3.26,0-5,1.69-5,4.63s1.75,4.61,5,4.61A10.54,10.54,0,0,0,402.92,303.72Z" transform="translate(-333.07 -286)"/><path class="cls-1" d="M413.76,286h4.82v4.18h-4.82Zm0,6.48h4.82v15.76h-4.82Z" transform="translate(-333.07 -286)"/><path d="M435.75,286h8.38c6.24,0,9.5,2.15,9.5,6.2,0,2.55-1.36,4-3.6,4.7,3,.77,4.7,2.34,4.7,5.13,0,4.06-3.25,6.21-9.49,6.21h-9.49Zm3.16,2.55v7.34h4.55c4.51,0,6.91-.83,6.91-3.69s-2.4-3.65-6.91-3.65Zm0,9.8v7.34h5.65c4.52,0,6.92-.8,6.92-3.66s-2.4-3.68-6.92-3.68Z" transform="translate(-333.07 -286)"/><path d="M460.69,286h3.16v10.07L477.74,286h4.66l-15.23,10.87,15.7,11.37h-4.95L463.85,298v10.29h-3.16Z" transform="translate(-333.07 -286)"/><path d="M486.64,286h3.17v10.07L503.69,286h4.67l-15.24,10.87,15.7,11.37h-4.95L489.81,298v10.29h-3.17Z" transform="translate(-333.07 -286)"/><path d="M456.81,327.51a19.2,19.2,0,0,0-12.14,4.31,19.27,19.27,0,0,0-24.29,0,19.25,19.25,0,0,0-24.28,0,19.28,19.28,0,1,0,0,29.93,19.25,19.25,0,0,0,24.28,0,19.27,19.27,0,0,0,24.29,0,19.27,19.27,0,1,0,12.14-34.24Zm-12.14,27.94a14.89,14.89,0,0,1,0-17.33,14.94,14.94,0,0,1,0,17.33Zm-24.29,0a14.94,14.94,0,0,1,0-17.33,14.89,14.89,0,0,1,0,17.33Zm-24.28,0a14.89,14.89,0,0,1,0-17.33,14.94,14.94,0,0,1,0,17.33ZM369,346.79A14.91,14.91,0,0,1,393,335a19.28,19.28,0,0,0,0,23.67,14.91,14.91,0,0,1-24-11.83Zm30.12,11.83a19.24,19.24,0,0,0,0-23.67,14.92,14.92,0,0,1,18.16,0,19.24,19.24,0,0,0,0,23.67,14.92,14.92,0,0,1-18.16,0Zm24.29,0a19.28,19.28,0,0,0,0-23.67,14.92,14.92,0,0,1,18.16,0,19.24,19.24,0,0,0,0,23.67,14.92,14.92,0,0,1-18.16,0Zm33.36,3.08a14.87,14.87,0,0,1-9.08-3.08,19.24,19.24,0,0,0,0-23.67,14.92,14.92,0,1,1,9.08,26.75Z" transform="translate(-333.07 -286)"/></svg>