<?xml version="1.0" encoding="utf-8"?>
<!-- Generator: Adobe Illustrator 20.0.0, SVG Export Plug-In . SVG Version: 6.00 Build 0)  -->
<svg version="1.1" id="Ebene_1" xmlns="http://www.w3.org/2000/svg" xmlns:xlink="http://www.w3.org/1999/xlink" x="0px" y="0px"
	 viewBox="0 0 636.9 322.6" style="enable-background:new 0 0 636.9 322.6;" xml:space="preserve">
<style type="text/css">
	.st0{fill:#4B4F54;}
	.st1{fill:#FFB81C;}
</style>
<g>
	<g>
		<path class="st0" d="M200.7,155.9c1.6,4.7-0.9,7.6-4.8,7.6c-2.4,0-4.1-1.6-5.2-4.7l-5.3-14h-29.6l-5.3,14
			c-1.1,3.1-2.9,4.7-5.4,4.7c-3.7,0-6.3-3-4.7-7.5l21.1-56.9c1.5-4.3,4.5-6.4,9.1-6.4c4.6,0,7.7,2.1,9.2,6.4L200.7,155.9z
			 M170.8,102.9h-0.3l-11.9,33.4h24.1L170.8,102.9z"/>
		<path class="st0" d="M271.5,98.7v59.3c0,3.5-2.2,5.6-5.5,5.6c-3.2,0-5.4-2-5.4-5.6v-24.8h-36.1v24.8c0.6,7.3-11.6,7.5-10.9,0V98.7
			c-0.7-7.4,11.5-7.4,10.9,0v25.4h36.1V98.7c0-3.6,2.2-5.6,5.4-5.6C269.3,93.1,271.5,95.1,271.5,98.7z"/>
		<path class="st0" d="M344.9,98.7v57.9c0,4.4-2.5,7-6.9,7c-2.8,0-5.2-1.6-7.1-4.7l-32.3-49.2h-0.2l0.5,22.6v25.6
			c0,3.6-2.3,5.6-5.6,5.6c-3.2,0-5.3-2-5.3-5.6V99.9c0-4.3,2.3-6.8,6.6-6.8c2.8,0,5.2,1.5,7.1,4.4l32.6,49.1h0.2l-0.5-22.8V98.7
			c0-3.6,2.2-5.6,5.5-5.6C342.7,93.1,344.9,95.1,344.9,98.7z"/>
	</g>
	<path class="st0" d="M107.1,93.3c12.7,0,21,7,21,18.5c0,8.9-5.1,14.2-10.7,15.8c7.5,1.5,13.3,7.3,13.3,16.8c0,5.9-2.1,10.6-6.2,14
		c-4.1,3.3-9.1,5-15,5H80.7c-3.5,0-5.2-1.7-5.2-5.2V98.6c0-3.4,1.7-5.2,5.2-5.3H107.1z M86.3,102.3v21.4h20.2
		c6.3,0,10.4-4.4,10.4-10.5c0-6.7-4.9-11-10.9-10.9H86.3z M86.3,132v22.3h21.5c6.7,0,11.5-4.4,11.5-11.1c0-6.3-4.2-11.2-11.4-11.2
		H86.3z"/>
</g>
<g>
	<path class="st1" d="M400.6,93.3c12.7,0,21,7,21,18.5c0,8.9-5.1,14.2-10.7,15.8c7.5,1.5,13.3,7.3,13.3,16.8c0,5.9-2.1,10.6-6.2,14
		c-4.1,3.3-9.1,5-15,5h-28.8c-3.5,0-5.2-1.7-5.2-5.2V98.6c0-3.4,1.7-5.2,5.2-5.3H400.6z M379.8,102.3v21.4h20.2
		c6.3,0,10.4-4.4,10.4-10.5c0-6.7-4.9-11-10.9-10.9H379.8z M379.8,132v22.3h21.5c6.7,0,11.5-4.4,11.5-11.1c0-6.3-4.2-11.2-11.4-11.2
		H379.8z"/>
	<path class="st1" d="M492,154.8l-25.4-32.2l21.3-21.1c1.1-1.1,1.6-2.1,1.6-3.4c0-2.4-2.2-5-5.4-5c-1.5,0-2.6,0.5-3.5,1.6
		l-31.7,32.1l-0.3-0.1l0.3-28c0.6-7.4-11.6-7.4-10.9,0l0,59.3c-0.6,7.4,11.6,7.4,10.9,0v-18l10.1-9.9l24.1,31.2c0.7,1,2,2.2,4.4,2.2
		c3.5,0,5.7-2.9,5.7-5.6C493.2,156.8,492.9,155.9,492,154.8z"/>
	<path class="st1" d="M560.2,154.8l-25.4-32.2l21.3-21.1c1.1-1.1,1.6-2.1,1.6-3.4c0-2.4-2.2-5-5.4-5c-1.5,0-2.6,0.5-3.5,1.6
		L517,126.8l-0.3-0.1l0.3-28c0.6-7.4-11.6-7.4-10.9,0l0,59.3c-0.6,7.4,11.6,7.4,10.9,0v-18l10.1-9.9l24.1,31.2c0.7,1,2,2.2,4.4,2.2
		c3.5,0,5.7-2.9,5.7-5.6C561.4,156.8,561,155.9,560.2,154.8z"/>
</g>
<path class="st1" d="M318.4,233.2c-103,0-283.5-40-283.5-40c0.1,2.8,2.5,5.1,22.3,11.3c37.1,11.7,143.2,48.2,261.2,48.2
	s224-36.5,261.2-48.2c19.8-6.2,22.2-8.5,22.3-11.3C601.9,193.1,421.4,233.2,318.4,233.2z"/>
</svg>
