<?xml version="1.0" encoding="utf-8"?>
<!-- Generator: Adobe Illustrator 26.0.1, SVG Export Plug-In . SVG Version: 6.00 Build 0)  -->
<svg version="1.1" id="Ebene_1" xmlns="http://www.w3.org/2000/svg" xmlns:xlink="http://www.w3.org/1999/xlink" x="0px" y="0px"
	 viewBox="0 0 150.2 28.3" style="enable-background:new 0 0 150.2 28.3;" xml:space="preserve">
<style type="text/css">
	.st0{fill-rule:evenodd;clip-rule:evenodd;fill:#54AE32;}
	.st1{fill-rule:evenodd;clip-rule:evenodd;fill:#026339;}
	.st2{fill:#026339;}
	.st3{fill-rule:evenodd;clip-rule:evenodd;fill:#1E1E1C;}
</style>
<polygon class="st0" points="20.3,13.8 27.3,26.4 35.2,26.4 26.2,10.3 31.8,1 28,1 "/>
<polygon class="st0" points="32.4,13.8 39.5,26.4 47.4,26.4 38.3,10.3 44,1 40.2,1 "/>
<path class="st1" d="M1.9,13.8h8.7c3.6-0.1,6.7,2.7,6.8,6.3c0,0.1,0,0.2,0,0.4c0,4.3-2.8,5.9-6,5.9H1.9L1.9,13.8z"/>
<path class="st1" d="M1.9,1h4.7c3.1,0,5,1.7,5,4.8s-1.8,4.5-4.6,4.5H1.9L1.9,1z"/>
<path class="st1" d="M55.3,11.6V8.2h2.1c1.3,0,2.1,0.2,2.1,1.7s-0.9,1.7-2.1,1.7H55.3z M55.3,6.2v-3h2.1c1.1,0,1.8,0.5,1.8,1.5
	s-0.6,1.5-1.8,1.5L55.3,6.2z M57.3,13.7c1.9,0.1,5.1-0.8,5.1-3.3c0-1.6-1.1-3-2.8-3.3l0,0c1.3-0.3,2.2-1.4,2.2-2.8
	c0-2.5-2.3-3.4-4.5-3.3h-4.7v12.6L57.3,13.7z"/>
<polygon class="st1" points="64.1,13.7 72.7,13.7 72.7,11.6 66.8,11.6 66.8,8.3 72.1,8.3 72.1,6.2 66.8,6.2 66.8,3.2 72.7,3.2 
	72.7,1.2 64.1,1.2 "/>
<path class="st1" d="M77.4,3.2h2.3c1.2,0,1.9,0.5,1.9,1.6s-0.7,1.7-1.9,1.7h-2.3V3.2z M77.4,8.6h2.9c0.9,0,1.1,1,1.1,1.7
	c0.1,1.1,0.2,2.3,0.5,3.4h3c-0.4-0.9-0.7-2-0.7-3c-0.2-1.8-0.2-3-2.3-3.2l0,0c1.5-0.2,2.6-1.5,2.6-3c0-2.5-2.2-3.2-4.4-3.3h-5.3
	v12.6h2.7L77.4,8.6z"/>
<path class="st1" d="M94.9,9.1v2.7c-0.8,0.2-1.7,0.3-2.5,0.3c-2.4,0-3.5-1.8-3.5-4.6s1.2-4.6,3.5-4.6c1.5,0,2.5,0.5,2.5,2.2h2.9
	c0-3-2.3-4.1-5.9-4.1c-2.5,0-5.9,1.5-5.9,6.5s3.4,6.5,5.9,6.5c1,0,1.9,0,2.9-0.1c1-0.1,1.9-0.3,2.8-0.6V7h-5.2v2.1L94.9,9.1z"/>
<rect x="99.9" y="1.2" class="st2" width="2.7" height="12.6"/>
<path class="st1" d="M114.2,4.7c0-2.5-1.9-3.8-4.3-3.8s-5.2,1.3-5.2,4.2c0,2.2,2.4,3,4.2,3.5c1.1,0.3,2.9,0.4,2.9,1.9
	s-1.4,1.7-2.5,1.7c-1.1,0.1-2.1-0.8-2.1-1.9c0-0.2,0-0.3,0-0.5h-2.8c-0.1,3.2,2,4.3,4.8,4.3c2.7,0,5.4-1.1,5.4-4.2
	c0-2.5-2.8-3.1-4.7-3.5c-1.1-0.3-2.3-0.4-2.3-1.8c0-1.1,1-1.6,2-1.6c1-0.1,1.9,0.6,2.1,1.6c0,0.1,0,0.2,0,0.3H114.2z"/>
<path class="st1" d="M126.5,5.2c-0.1-3.2-2.4-4.3-5.3-4.3c-3.6,0-5.3,2.9-5.3,6.5s1.6,6.5,5.3,6.5c2.9,0,5.2-1.2,5.3-4.3h-2.9
	c0.1,1.2-0.8,2.3-2,2.4c-0.1,0-0.3,0-0.4,0c-1.9,0-2.4-2.8-2.4-4.6s0.5-4.6,2.4-4.6c1.2-0.1,2.3,0.8,2.4,2c0,0.1,0,0.3,0,0.4H126.5z
	"/>
<polygon class="st1" points="130.8,13.7 130.8,8.2 135.6,8.2 135.6,13.7 138.3,13.7 138.3,1.2 135.6,1.2 135.6,6.1 130.8,6.1 
	130.8,1.2 128.1,1.2 128.1,13.7 "/>
<polygon class="st1" points="140.5,13.7 149.1,13.7 149.1,11.6 143.2,11.6 143.2,8.3 148.6,8.3 148.6,6.2 143.2,6.2 143.2,3.2 
	149.1,3.2 149.1,1.2 140.5,1.2 "/>
<polygon class="st3" points="53.8,26.3 53.8,21.8 57.8,26.3 59.4,26.3 55.2,21.6 59,17.8 57.4,17.8 53.8,21.5 53.8,17.8 52.6,17.8 
	52.6,26.3 "/>
<path class="st3" d="M61.6,18.8h2c1.3,0.1,1.6,0.7,1.6,1.3s-0.3,1.3-1.6,1.3h-2V18.8z M63.3,22.5c0.5,0,1,0,1.3,0.4
	c0.3,0.6,0.5,1.2,0.5,1.9c0.1,0.5,0.2,1.1,0.3,1.6h1.3c-0.3-0.8-0.5-1.7-0.5-2.6c-0.1-1-0.3-1.5-1.3-1.8l0,0c1-0.2,1.7-1.1,1.6-2.1
	c0-1.7-1.5-2.2-2.9-2.2h-3v8.6h1.2v-3.9L63.3,22.5z"/>
<path class="st3" d="M68.9,26.3l0.9-2.2h4l0.9,2.2H76l-3.5-8.6h-1.3l-3.6,8.6H68.9z M71.9,18.9l1.6,4.1h-3.2L71.9,18.9z"/>
<polygon class="st3" points="83.1,17.8 83.1,24.9 83.1,24.9 78.9,17.8 77.3,17.8 77.3,26.3 78.3,26.3 78.3,19.1 78.3,19.1 
	82.7,26.3 84.1,26.3 84.1,17.8 "/>
<polygon class="st3" points="87.8,26.3 87.8,21.8 91.8,26.3 93.4,26.3 89.2,21.6 93,17.8 91.4,17.8 87.8,21.5 87.8,17.8 86.6,17.8 
	86.6,26.3 "/>
<polygon class="st3" points="100,26.3 100,25.3 95.8,25.3 95.8,22.5 99.7,22.5 99.7,21.5 95.8,21.5 95.8,18.8 100,18.8 100,17.8 
	94.6,17.8 94.6,26.3 "/>
<polygon class="st3" points="107.9,17.8 107.9,24.9 107.9,24.9 103.7,17.8 102.1,17.8 102.1,26.3 103.2,26.3 103.2,19.1 103.2,19.1 
	107.5,26.3 109,26.3 109,17.8 "/>
<polygon class="st3" points="112.7,26.3 112.7,21.8 116.6,26.3 118.3,26.3 114,21.6 117.9,17.8 116.2,17.8 112.7,21.5 112.7,17.8 
	111.5,17.8 111.5,26.3 "/>
<path class="st3" d="M119.7,26.3l0.9-2.2h4l0.9,2.2h1.3l-3.5-8.6h-1.3l-3.6,8.6H119.7z M122.7,18.9l1.6,4.1h-3.2L122.7,18.9z"/>
<path class="st3" d="M127.6,23.8c0,1.9,1.3,2.7,3,2.7s3.5-0.7,3.5-2.6c0-2.2-2.2-2.2-3.7-2.7c-0.8-0.2-1.4-0.3-1.4-1.3
	s1.2-1.3,2-1.3s1.7,0.3,1.7,1.3h1.2c0-1.7-1.4-2.3-2.9-2.3s-3.3,0.7-3.3,2.5s2.3,2.2,3.8,2.6c0.7,0.1,1.4,0.5,1.4,1.3
	c0,1.2-1.2,1.5-2.2,1.5c-1.2,0-1.8-0.5-1.9-1.7L127.6,23.8z"/>
<path class="st3" d="M135.5,23.8c0,1.9,1.3,2.7,3,2.7s3.5-0.7,3.5-2.6c0-2.2-2.2-2.2-3.7-2.7c-0.7-0.2-1.4-0.3-1.4-1.3
	s1.2-1.3,2-1.3s1.7,0.3,1.7,1.3h1.2c0-1.7-1.4-2.3-2.9-2.3s-3.3,0.7-3.3,2.5s2.3,2.2,3.8,2.6c0.7,0.1,1.4,0.5,1.4,1.3
	c0,1.2-1.2,1.5-2.2,1.5c-1.2,0-1.9-0.5-1.9-1.7L135.5,23.8z"/>
<polygon class="st3" points="149.1,26.3 149.1,25.3 144.8,25.3 144.8,22.5 148.8,22.5 148.8,21.5 144.8,21.5 144.8,18.8 149.1,18.8 
	149.1,17.8 143.6,17.8 143.6,26.3 "/>
</svg>
