<?xml version="1.0" encoding="UTF-8"?>
<!-- Generator: Adobe Illustrator 20.1.0, SVG Export Plug-In . SVG Version: 6.00 Build 0)  -->
<svg xmlns="http://www.w3.org/2000/svg" xmlns:xlink="http://www.w3.org/1999/xlink" version="1.1" id="Ebene_1" x="0px" y="0px" viewBox="0 0 250 43" style="enable-background:new 0 0 250 43;" xml:space="preserve">
<style type="text/css">
	.st0{fill-rule:evenodd;clip-rule:evenodd;fill:#1E3460;}
	.st1{fill:#1E3460;}
</style>
<g>
	<g>
		<path class="st0" d="M14.3,14c0,1.8-1,3.2-4.6,3.2H3.4v-6.5h6.3C12.9,10.7,14.3,11.9,14.3,14 M13.8,5.8c0,2-1.4,2.8-3.6,2.8H3.4    V2.9h5.9C12.9,2.9,13.8,4,13.8,5.8z M17.2,14.2c0-2.2-1.4-4.2-4.4-4.6c2.9-0.6,3.7-2.3,3.7-4.2c0-3.2-2-4.7-7-4.7H0.7v18.6h9.4    C15.1,19.3,17.2,16.9,17.2,14.2z"></path>
		<path class="st0" d="M32.2,11.8h-9.3c0.4-2.9,2.2-4.1,4.8-4.1C29.9,7.7,32.2,8.8,32.2,11.8 M34.9,13.6v-0.8c0-4.4-2.5-6.8-7.1-6.8    c-4.7,0-7.5,2.5-7.5,7.2c0,4.1,2.7,6.7,7.4,6.7c3.2,0,6.4-1.2,6.9-4.4h-2.7c-0.6,1.9-2.1,2.6-4.3,2.6c-3,0-4.5-1.9-4.8-4.5H34.9z"></path>
		<path class="st1" d="M55.7,19.3v-1.8c-0.7,0.1-1.7,0.2-2.3,0.2c-1.6,0-2-0.7-2-2.1V8.2h4.2V6.4h-4.2V2.5L49,3.5v12.3    c0,2.9,1.4,3.7,4,3.7C53.9,19.5,54.8,19.4,55.7,19.3"></path>
		<path class="st0" d="M69.1,11.8h-9.3c0.4-2.9,2.2-4.1,4.8-4.1C66.8,7.7,69,8.8,69.1,11.8 M71.8,13.6v-0.8c0-4.4-2.5-6.8-7.1-6.8    c-4.7,0-7.5,2.5-7.5,7.2c0,4.1,2.7,6.7,7.4,6.7c3.2,0,6.4-1.2,6.9-4.4h-2.7c-0.6,1.9-2.1,2.6-4.3,2.6c-3,0-4.5-1.9-4.8-4.5H71.8z"></path>
		<rect x="75.4" y="0.8" class="st1" width="2.5" height="18.6"></rect>
		<path class="st1" d="M95.2,15.7c0-1.9-1.2-2.9-3.6-3.4l-4.2-0.8c-1.9-0.4-2.8-0.8-2.8-1.8c0-1.3,1.5-2,3.8-2    c1.8,0,3.5,0.5,3.7,2.1h2.6c0-3.1-3.3-3.8-6.2-3.8c-3.4,0-6.3,1.2-6.3,4c0,2,1.5,2.9,3.5,3.3l4,0.8c1.5,0.3,2.9,0.6,2.9,1.8    c0,1.4-1.4,2.2-4.2,2.2c-2.3,0-3.9-0.6-4.2-2.4h-2.7c0.2,3,2.9,4.2,6.6,4.2C93,19.8,95.2,18.4,95.2,15.7"></path>
		<path class="st1" d="M122.7,19.3v-7.5c0-4.3-2.3-5.9-5.7-5.9c-2.9,0-4.8,2-5.6,3.2c-0.7-2.1-2.4-3.2-4.7-3.2c-2.3,0-4,0.8-5.5,2.8    l-0.1-2.3h-2.4c0.1,1,0.1,2,0.1,2.9v10h2.5v-6.3c0-3.8,2.4-5.4,4.6-5.4c2.3,0,3.5,1.5,3.5,5v6.6h2.5v-6.3c0-4.6,3.2-5.4,4.5-5.4    c2.6,0,3.7,1.8,3.7,5.2v6.5H122.7"></path>
		<path class="st0" d="M137.4,13.6c0,3.1-1.8,4.5-4.9,4.5c-2.4,0-3.5-1-3.5-2.5c0-2.9,5.6-2.6,7-2.6h1.3V13.6 M140,19.3    c-0.1-0.7-0.1-1.5-0.1-2.5v-6.4c0-3.2-2.6-4.6-6.2-4.6c-2.9,0-6.1,0.8-6.4,3.9h2.7c0.2-1.3,1.4-2.1,3.8-2.1c2.2,0,3.7,0.8,3.7,3.1    v0.5h-1.4c-2.9,0-9.6-0.2-9.6,4.3c0,2.5,2.2,4.2,5.5,4.2c2.5,0,4.2-0.3,5.6-2.3c0.1,0.6,0.1,1.2,0.1,1.8H140z"></path>
		<path class="st1" d="M158.8,19.3V12c0-4.3-2.6-6.1-6.3-6.1c-4.1,0-5.3,2.6-5.6,2.8l-0.1-2.3h-2.4c0.1,1,0.1,2,0.1,2.9v10h2.5v-6.1    c0-4.1,2.4-5.6,5.1-5.6c2.4,0,4.1,1.4,4.1,4.4v7.3H158.8"></path>
		<path class="st1" d="M177.7,19.3V12c0-4.3-2.6-6.1-6.3-6.1c-4.1,0-5.3,2.6-5.6,2.8l-0.1-2.3h-2.4c0.1,1,0.1,2,0.1,2.9v10h2.5v-6.1    c0-4.1,2.4-5.6,5.1-5.6c2.4,0,4.1,1.4,4.1,4.4v7.3H177.7"></path>
		<path class="st0" d="M197.9,13.8c0,1.6-1.3,2.1-3,2.1H190v-4.2h4.8C196.2,11.6,197.9,12,197.9,13.8 M197.1,6.2    c0,1.4-0.9,2.1-3.2,2.1H190V4.2h3.8C195.9,4.2,197.1,4.8,197.1,6.2z M203.4,14.1c0-3-2.4-4-4.8-4.4c2.4-0.6,4-1.7,4-4.3    c0-2.5-2-4.6-7.2-4.6h-10.6v18.6h11C201.6,19.3,203.4,16.8,203.4,14.1z"></path>
		<path class="st0" d="M207.4,19.3h5.4V0.8h-5.4V19.3z M227.4,19.3L218.9,9l8-8.3h-6.5l-7.5,8.3l7.7,10.2H227.4z"></path>
		<path class="st0" d="M229,19.3h5.4V0.8H229V19.3z M249.1,19.3L240.6,9l8-8.3H242l-7.5,8.3l7.7,10.2H249.1z"></path>
		<path class="st1" d="M46.7,8.4V6.2c-0.3,0-0.7,0-1.1,0c-2.2,0-3.8,1.3-4.7,2.9l-0.1-2.6h-2.4c0.1,1,0.1,2,0.1,2.9v10h2.5v-6.3    c0-3.2,1.5-4.8,4.5-4.8C46,8.3,46.4,8.3,46.7,8.4"></path>
	</g>
	<g>
		<path class="st1" d="M4.4,29h1.3l3.6,8.9H8l-1-2.3H2.9l-1,2.3H0.7L4.4,29z M3.3,34.6h3.4L5,30.2L3.3,34.6z"></path>
		<path class="st1" d="M11.8,31.7v4c0,0.6,0.1,1.4,1.3,1.4c0.6,0,1.1-0.2,1.5-0.7c0.3-0.4,0.3-0.9,0.3-1.2v-3.5H16v5    c0,0.1,0,0.8,0,1.2h-1.2l0-1.1c-0.2,0.4-0.6,1.1-2,1.1c-1.5,0-2.3-0.9-2.3-2.1v-4.2H11.8z"></path>
		<path class="st1" d="M18.4,31.4c0-1,0.2-2.6,2.8-2.6c1.2,0,2.6,0.4,2.6,1.8c0,0.6-0.2,0.9-0.7,1.2c-0.7,0.5-0.9,0.7-0.9,1    c0,0.2,0.1,0.4,0.3,0.5l1.1,0.7c0.8,0.5,1.1,1,1.1,1.7c0,1.4-1.1,2.2-2.4,2.2c-0.7,0-1.5-0.2-1.9-1c-0.1-0.4-0.1-0.7-0.1-0.9h1.1    c0,0.7,0.4,1,1,1c0.9,0,1.1-0.7,1.1-1.1c0-0.7-0.4-0.9-0.8-1.2l-0.7-0.5c-0.6-0.4-0.9-0.8-0.9-1.3c0-0.7,0.5-1.1,1-1.5    c0.3-0.2,0.5-0.4,0.5-0.9c0-0.6-0.5-1.1-1.5-1.1c-1.2,0-1.6,0.5-1.6,1.8v6.5h-1.2V31.4z"></path>
		<path class="st1" d="M27.5,35c0,1.3,0.5,2.2,1.8,2.2c0.8,0,1.4-0.4,1.5-1.3h1.2c0,0.3-0.1,0.8-0.5,1.3c-0.3,0.3-0.9,0.8-2.1,0.8    c-2,0-2.9-1.2-2.9-3.2c0-1.2,0.2-2.2,1.2-2.9c0.6-0.4,1.3-0.5,1.7-0.5c2.8,0,2.7,2.5,2.7,3.5H27.5z M30.7,34.2    c0-0.6-0.1-1.8-1.5-1.8c-0.8,0-1.7,0.5-1.7,1.8H30.7z"></path>
		<path class="st1" d="M33.8,33c0-0.4,0-0.9-0.1-1.3h1.2l0,1.2c0.2-0.9,1-1.2,1.5-1.2c0.3,0,0.6,0,0.8,0v1.1c-0.1,0-0.1,0-0.2,0    c-0.1,0-0.2,0-0.3,0c-1.4,0-1.7,0.8-1.7,1.9v3.3h-1.2V33z"></path>
		<path class="st1" d="M39.8,38.4c0,0.7,0.3,1.2,1.4,1.2c1.6,0,1.6-1.2,1.6-2.9c-0.5,1-1.7,1.1-2,1.1c-0.6,0-1.4-0.1-1.9-0.8    c-0.5-0.6-0.7-1.5-0.7-2.3c0-2.1,1.2-3.1,2.8-3.1c1.2,0,1.7,0.6,2,0.9l0-0.9h1.1l0,1.1l0,3.9c0,1.5,0,2.1-0.3,2.6    c-0.5,1-1.7,1.1-2.6,1.1c-2.5,0-2.6-1.2-2.6-2H39.8z M42.5,36.3c0.2-0.3,0.4-0.7,0.4-1.8c0-0.8-0.2-1.2-0.5-1.5    c-0.3-0.3-0.8-0.5-1.3-0.5c-1.5,0-1.7,1.5-1.7,2.3c0,1,0.3,2.2,1.7,2.2C41.8,37,42.2,36.7,42.5,36.3z"></path>
		<path class="st1" d="M47.1,35c0,1.3,0.5,2.2,1.8,2.2c0.8,0,1.4-0.4,1.5-1.3h1.2c0,0.3-0.1,0.8-0.5,1.3c-0.3,0.3-0.9,0.8-2.1,0.8    c-2,0-2.9-1.2-2.9-3.2c0-1.2,0.2-2.2,1.2-2.9c0.6-0.4,1.3-0.5,1.7-0.5c2.8,0,2.7,2.5,2.7,3.5H47.1z M50.3,34.2    c0-0.6-0.1-1.8-1.5-1.8c-0.8,0-1.7,0.5-1.7,1.8H50.3z"></path>
		<path class="st1" d="M53.7,31.7l1.5,4.9l1.6-4.9h1.5l1.4,4.9l1.6-4.9h1.2l-2.2,6.2h-1.3l-1.5-5.1l-1.6,5.1h-1.4l-2.1-6.2H53.7z"></path>
		<path class="st1" d="M66.5,31.6c2.5,0,3,2,3,3.3c0,1.8-1,3.3-3.1,3.3c-2.1,0-3.1-1.4-3.1-3.2C63.3,33.4,64,31.6,66.5,31.6z     M66.4,37.3c0.9,0,1.9-0.6,1.9-2.5c0-1.5-0.7-2.4-1.8-2.4c-0.7,0-1.9,0.5-1.9,2.4C64.5,36.1,65.1,37.3,66.4,37.3z M64.7,29.1h1.1    v1.3h-1.1V29.1z M67.1,29.1h1.2v1.3h-1.2V29.1z"></path>
		<path class="st1" d="M71.5,29h1.2v3.6c0.4-0.7,1.2-1,2-1c0.7,0,1.6,0.2,2,1c0.1,0.2,0.2,0.5,0.2,1.4v3.9h-1.2v-3.7    c0-0.6,0-1.8-1.3-1.8c-0.9,0-1.3,0.5-1.5,0.8c-0.2,0.3-0.2,0.9-0.2,1.3v3.3h-1.2V29z"></path>
		<path class="st1" d="M79.2,32.5l0-0.7h1.2l0,1c0.1-0.3,0.6-1.1,2-1.1c0.6,0,2.3,0.2,2.3,2.1v4.2h-1.2V34c0-0.4,0-0.8-0.3-1.1    c-0.3-0.3-0.7-0.4-1.1-0.4c-0.8,0-1.6,0.6-1.6,1.9v3.6h-1.2V32.5z"></path>
		<path class="st1" d="M86.8,29H88v8.9h-1.2V29z"></path>
		<path class="st1" d="M90.3,29h1.4v1.3h-1.4V29z M90.4,31.7h1.2v6.2h-1.2V31.7z"></path>
		<path class="st1" d="M97.5,33.7c0-0.3-0.1-1.3-1.2-1.3c-1.6,0-1.6,1.9-1.6,2.3c0,1.3,0.3,2.5,1.5,2.5c1,0,1.3-0.7,1.3-1.3h1.2    c-0.1,1.2-1,2.2-2.5,2.2c-0.4,0-1.4-0.1-2-0.8c-0.4-0.4-0.7-1.1-0.7-2.4c0-2.6,1.6-3.4,2.8-3.4c0.4,0,1.3,0.1,1.9,0.8    c0.5,0.5,0.5,1,0.5,1.4H97.5z"></path>
		<path class="st1" d="M100.3,29h1.2v3.6c0.4-0.7,1.2-1,2-1c0.7,0,1.6,0.2,2,1c0.1,0.2,0.2,0.5,0.2,1.4v3.9h-1.2v-3.7    c0-0.6,0-1.8-1.3-1.8c-0.9,0-1.3,0.5-1.5,0.8c-0.2,0.3-0.2,0.9-0.2,1.3v3.3h-1.2V29z"></path>
		<path class="st1" d="M111.4,29h1.4v1.3h-1.4V29z M111.5,31.7h1.2v6.2h-1.2V31.7z"></path>
		<path class="st1" d="M115.1,32.5l0-0.7h1.2l0,1c0.1-0.3,0.6-1.1,2-1.1c0.6,0,2.3,0.2,2.3,2.1v4.2h-1.2V34c0-0.4,0-0.8-0.3-1.1    c-0.3-0.3-0.7-0.4-1.1-0.4c-0.8,0-1.6,0.6-1.6,1.9v3.6h-1.2V32.5z"></path>
		<path class="st1" d="M126.4,29h1.2v7.8h4.2v1.1h-5.4V29z"></path>
		<path class="st1" d="M133.9,35c0,1.3,0.5,2.2,1.8,2.2c0.8,0,1.4-0.4,1.5-1.3h1.2c0,0.3-0.1,0.8-0.5,1.3c-0.3,0.3-0.9,0.8-2.1,0.8    c-2,0-2.9-1.2-2.9-3.2c0-1.2,0.2-2.2,1.2-2.9c0.6-0.4,1.3-0.5,1.7-0.5c2.8,0,2.7,2.5,2.7,3.5H133.9z M137.2,34.2    c0-0.6-0.1-1.8-1.5-1.8c-0.8,0-1.7,0.5-1.7,1.8H137.2z"></path>
		<path class="st1" d="M140.1,29h1.4v1.3h-1.4V29z M140.2,31.7h1.2v6.2h-1.2V31.7z"></path>
		<path class="st1" d="M144.4,36.1c0,0.5,0.2,1.1,1.4,1.1c0.5,0,0.8-0.1,1.1-0.4c0.1-0.2,0.2-0.4,0.2-0.6c0-0.6-0.4-0.7-1.4-0.9    c-1.3-0.3-2.4-0.6-2.4-1.9c0-1.1,1-1.9,2.4-1.9c0.8,0,1.9,0.2,2.2,1c0.2,0.3,0.2,0.6,0.2,0.9h-1.2c0-0.9-0.8-1-1.2-1    c-0.2,0-1.3,0-1.3,0.9c0,0.6,0.6,0.7,0.9,0.8c1.7,0.4,2.1,0.5,2.5,0.9c0.3,0.3,0.5,0.8,0.5,1.2c0,0.7-0.4,1.3-0.8,1.6    c-0.5,0.3-1.2,0.4-1.8,0.4c-1.3,0-2.4-0.5-2.4-2H144.4z"></path>
		<path class="st1" d="M149.1,31.7h1.1v-1.3l1.1-0.4v1.7h1.4v0.9h-1.4v3.7c0,0.3,0,0.8,0.8,0.8c0.2,0,0.5,0,0.6-0.1V38    c-0.2,0-0.5,0.1-1,0.1c-1.1,0-1.6-0.3-1.6-1.3v-4.1h-1.1V31.7z"></path>
		<path class="st1" d="M155.3,31.7v4c0,0.6,0.1,1.4,1.3,1.4c0.6,0,1.1-0.2,1.5-0.7c0.3-0.4,0.3-0.9,0.3-1.2v-3.5h1.2v5    c0,0.1,0,0.8,0,1.2h-1.2l0-1.1c-0.2,0.4-0.6,1.1-2,1.1c-1.5,0-2.3-0.9-2.3-2.1v-4.2H155.3z"></path>
		<path class="st1" d="M162,32.5l0-0.7h1.2l0,1c0.1-0.3,0.6-1.1,2-1.1c0.6,0,2.3,0.2,2.3,2.1v4.2h-1.2V34c0-0.4,0-0.8-0.3-1.1    c-0.3-0.3-0.7-0.4-1.1-0.4c-0.8,0-1.6,0.6-1.6,1.9v3.6H162V32.5z"></path>
		<path class="st1" d="M170.7,38.4c0,0.7,0.3,1.2,1.4,1.2c1.6,0,1.6-1.2,1.6-2.9c-0.5,1-1.7,1.1-2,1.1c-0.6,0-1.4-0.1-1.9-0.8    c-0.5-0.6-0.7-1.5-0.7-2.3c0-2.1,1.2-3.1,2.8-3.1c1.2,0,1.7,0.6,2,0.9l0-0.9h1.1l0,1.1l0,3.9c0,1.5,0,2.1-0.3,2.6    c-0.5,1-1.7,1.1-2.6,1.1c-2.5,0-2.6-1.2-2.6-2H170.7z M173.5,36.3c0.2-0.3,0.4-0.7,0.4-1.8c0-0.8-0.2-1.2-0.5-1.5    c-0.3-0.3-0.8-0.5-1.3-0.5c-1.5,0-1.7,1.5-1.7,2.3c0,1,0.3,2.2,1.7,2.2C172.8,37,173.2,36.7,173.5,36.3z"></path>
		<path class="st1" d="M181.9,31.7v4c0,0.6,0.1,1.4,1.3,1.4c0.6,0,1.1-0.2,1.5-0.7c0.3-0.4,0.3-0.9,0.3-1.2v-3.5h1.2v5    c0,0.1,0,0.8,0,1.2H185l0-1.1c-0.2,0.4-0.6,1.1-2,1.1c-1.5,0-2.3-0.9-2.3-2.1v-4.2H181.9z"></path>
		<path class="st1" d="M188.6,32.5l0-0.7h1.2l0,1c0.1-0.3,0.6-1.1,2-1.1c0.6,0,2.3,0.2,2.3,2.1v4.2h-1.2V34c0-0.4,0-0.8-0.3-1.1    c-0.3-0.3-0.7-0.4-1.1-0.4c-0.8,0-1.6,0.6-1.6,1.9v3.6h-1.2V32.5z"></path>
		<path class="st1" d="M200.5,29h1.2V37c0,0.1,0,0.7,0,1h-1.2l0-1c-0.1,0.2-0.2,0.4-0.6,0.7c-0.5,0.3-1.1,0.5-1.5,0.5    c-0.8,0-2.7-0.4-2.7-3.2c0-2.4,1.3-3.4,2.8-3.4c1.3,0,1.8,0.8,1.9,1.1V29z M200.1,33c-0.2-0.3-0.7-0.6-1.4-0.6    c-1.7,0-1.7,2.1-1.7,2.5c0,1.1,0.3,2.4,1.7,2.4c1.8,0,1.8-2,1.8-2.5C200.6,33.8,200.4,33.4,200.1,33z"></path>
		<path class="st1" d="M208.4,35.3c0,0.6,0.1,1.8,2.2,1.8c1.9,0,2.1-1.2,2.1-1.6c0-1-0.8-1.2-2.1-1.5c-1.4-0.3-2-0.5-2.4-0.8    c-0.7-0.5-0.9-1.2-0.9-1.8c0-1.8,1.7-2.6,3.4-2.6c0.6,0,1.8,0.1,2.5,0.9c0.5,0.5,0.5,1.1,0.5,1.5h-1.3c-0.1-1.1-1-1.4-1.9-1.4    c-1.2,0-2,0.6-2,1.4c0,0.8,0.5,1.1,1.6,1.3c2.1,0.5,2.4,0.6,2.9,0.9c0.8,0.5,0.9,1.4,0.9,1.8c0,1.6-1.2,2.8-3.5,2.8    c-0.7,0-2.1-0.1-2.8-1c-0.5-0.7-0.5-1.4-0.5-1.8H208.4z"></path>
		<path class="st1" d="M216.3,35c0,1.3,0.5,2.2,1.8,2.2c0.8,0,1.4-0.4,1.5-1.3h1.2c0,0.3-0.1,0.8-0.5,1.3c-0.3,0.3-0.9,0.8-2.1,0.8    c-2,0-2.9-1.2-2.9-3.2c0-1.2,0.2-2.2,1.2-2.9c0.6-0.4,1.3-0.5,1.7-0.5c2.8,0,2.7,2.5,2.7,3.5H216.3z M219.6,34.2    c0-0.6-0.1-1.8-1.5-1.8c-0.8,0-1.7,0.5-1.7,1.8H219.6z"></path>
		<path class="st1" d="M222.7,33c0-0.4,0-0.9-0.1-1.3h1.2l0,1.2c0.2-0.9,1-1.2,1.5-1.2c0.3,0,0.6,0,0.8,0v1.1c-0.1,0-0.1,0-0.2,0    c-0.1,0-0.2,0-0.3,0c-1.4,0-1.7,0.8-1.7,1.9v3.3h-1.2V33z"></path>
		<path class="st1" d="M226.6,31.7h1.3l2,4.9l1.9-4.9h1.3l-2.7,6.2h-1.2L226.6,31.7z"></path>
		<path class="st1" d="M234.4,29h1.4v1.3h-1.4V29z M234.5,31.7h1.2v6.2h-1.2V31.7z"></path>
		<path class="st1" d="M241.6,33.7c0-0.3-0.1-1.3-1.2-1.3c-1.6,0-1.6,1.9-1.6,2.3c0,1.3,0.3,2.5,1.5,2.5c1,0,1.3-0.7,1.3-1.3h1.2    c-0.1,1.2-1,2.2-2.5,2.2c-0.4,0-1.4-0.1-2-0.8c-0.4-0.4-0.7-1.1-0.7-2.4c0-2.6,1.6-3.4,2.8-3.4c0.4,0,1.3,0.1,1.9,0.8    c0.5,0.5,0.5,1,0.5,1.4H241.6z"></path>
		<path class="st1" d="M245.1,35c0,1.3,0.5,2.2,1.8,2.2c0.8,0,1.4-0.4,1.5-1.3h1.2c0,0.3-0.1,0.8-0.5,1.3c-0.3,0.3-0.9,0.8-2.1,0.8    c-2,0-2.9-1.2-2.9-3.2c0-1.2,0.2-2.2,1.2-2.9c0.6-0.4,1.3-0.5,1.7-0.5c2.8,0,2.7,2.5,2.7,3.5H245.1z M248.4,34.2    c0-0.6-0.1-1.8-1.5-1.8c-0.8,0-1.7,0.5-1.7,1.8H248.4z"></path>
	</g>
</g>
</svg>
