<svg width="197" height="39" viewBox="0 0 197 39" xmlns="http://www.w3.org/2000/svg">
  <g fill="#014785" fill-rule="nonzero">
    <path d="M67.06 14.44h-3.09V28h3.09V14.44zm.15-3.85a1.7 1.7 0 00-3.39 0 1.7 1.7 0 003.39 0M77.25 14.21c-3.44-.1-5.16.28-6.57.97V28h3.08V16.55c.91-.41 1.95-.45 2.88-.1l.6-2.24zM86.64 19.93l-5.64.85c-.07-3.25 1.17-4.7 2.96-4.7 1.8 0 2.68 1.1 2.68 3.85m2.9 1.25c.12-4.56-1.86-6.96-5.48-6.96s-5.81 2.51-5.81 7c0 4.5 2.5 7.08 6.26 7.08a9.51 9.51 0 004.53-.96l-.74-1.94a7.52 7.52 0 01-3.45.75c-2.25 0-3.47-1.25-3.76-3.76l8.45-1.21zM103.52 28l-5.25-7.35 4.7-6.21h-3.13l-4.32 6.14h-.05V9.15h-3.05V28h3.05v-6.92h.05l4.55 6.92zM111.3 27.88v-1.91c-.24.08-.49.12-.73.12-1.07 0-1.5-.7-1.5-1.75V16.4h2.22v-1.96h-2.26v-3.85l-3.09.86v2.99h-1.46v1.96h1.51v8.09a3.43 3.43 0 003.76 3.67c.54.01 1.07-.08 1.57-.28M128.26 25.92c-.52.27-1.1.4-1.69.4-2.28 0-3.23-1.68-3.23-5.02 0-3.33.97-5.36 3.38-5.36a3.3 3.3 0 011.6.3v9.61l-.06.07zm2.98 2.29V15.18a8.66 8.66 0 00-4.42-1c-4.4 0-6.6 2.93-6.6 7.34 0 4.1 2.23 6.61 5.48 6.61.87.04 1.73-.13 2.51-.5v.85a2.74 2.74 0 01-3.13 3.05 7.13 7.13 0 01-3.26-.8l-.86 2a9.91 9.91 0 004.64.96c3.39 0 5.6-1.86 5.6-5.48M142.4 19.93l-5.63.85c-.09-3.25 1.15-4.7 2.95-4.7 1.79 0 2.68 1.1 2.68 3.85m2.9 1.25c.13-4.56-1.86-6.96-5.47-6.96-3.61 0-5.82 2.51-5.82 7 0 4.5 2.51 7.08 6.27 7.08 1.56.06 3.1-.27 4.51-.96l-.68-1.98a7.52 7.52 0 01-3.44.76c-2.25 0-3.46-1.26-3.76-3.76l8.4-1.18zM155.86 24.1c0-1.58-.62-2.93-3.26-4-1.26-.48-2.03-1.03-2.03-2.13a1.78 1.78 0 011.94-1.8c.79.02 1.55.28 2.18.76l.75-1.78a6.27 6.27 0 00-3.53-.96 4.01 4.01 0 00-4.31 3.93c0 1.4.52 2.82 3.1 3.76 1.38.53 2 1.08 2 2.24a1.92 1.92 0 01-2.1 1.9c-.9.02-1.78-.25-2.51-.77l-.82 1.96a6.88 6.88 0 003.76.99c2.97 0 4.85-1.92 4.85-4.14M169.05 27.2V14.45h-3.08V25.7c-.63.33-1.33.49-2.04.46a2.1 2.1 0 01-2.27-2.3v-9.43h-3.07v9.26c0 3 1.64 4.58 5.27 4.58 1.8.07 3.6-.3 5.23-1.07M183.06 28v-9.65c0-2.2-1.34-4.16-5.4-4.16-1.83-.07-3.64.27-5.32.99V28h3.1V16.5c.68-.28 1.4-.4 2.13-.38 1.95 0 2.51 1.15 2.51 2.27V28h2.98zM193.84 26c-.5.24-1.04.34-1.6.3-2.36 0-3.35-2.01-3.35-5.08 0-2.87.9-5.17 3.58-5.17.46 0 .92.06 1.37.18v9.76zm3.08 1.24V9.14h-3.08v5.42a7.36 7.36 0 00-2.04-.25c-3.54 0-5.97 2.65-5.97 7.08 0 4.44 2.32 6.87 6.34 6.87a9.81 9.81 0 004.75-.98M57.28 26c-.49.24-1.04.34-1.59.3-2.38 0-3.36-2.01-3.36-5.08 0-2.87.9-5.17 3.59-5.17.46 0 .92.06 1.36.18v9.76zm3.08 1.24V9.14h-3.08v5.42a7.36 7.36 0 00-2.04-.25c-3.53 0-5.97 2.65-5.97 7.08 0 4.44 2.32 6.87 6.35 6.87a9.81 9.81 0 004.74-.98M32.58 10.53c-5.26 0-8.42 3.6-8.42 8.77 0 5.49 2.73 8.98 8.3 8.98 1.82.12 3.64-.23 5.3-1.01l.11-.06v-8.93a10.4 10.4 0 00-2.2-.37c-.73.05-1.46.17-2.17.37v7.07c-.4.13-.83.2-1.26.19-1.96 0-3.38-2.24-3.38-6.2 0-3.94 1.58-5.94 4.24-6.17 1.33-.03 2.66.2 3.9.66a2.4 2.4 0 00.9-2.24 15.21 15.21 0 00-5.17-1.06h-.15M16.77 9.66V29.2c.7.2 1.44.32 2.18.36.74-.04 1.47-.17 2.18-.36V9.67c-.71-.2-1.44-.31-2.18-.36-.74.04-1.47.16-2.18.35M4.37 25.35V13.31c.65-.1 1.31-.15 1.97-.14 1.8 0 2.6.73 2.6 2.32a2.5 2.5 0 01-2.12 2.42 3.57 3.57 0 000 2.4s2.5.54 2.5 2.75c0 1.8-1.01 2.5-2.87 2.5-.68 0-1.37-.06-2.04-.18M.11 11.53l-.11.06v15.67l.13.06c2.04.75 4.21 1.1 6.39 1.01 4.47 0 7.39-1.57 7.39-5.12a4.71 4.71 0 00-3.3-4.22 4.02 4.02 0 002.79-3.76c0-2.7-2.33-4.7-7.13-4.7-2.12-.06-4.22.28-6.2 1M34.86 30.65a19.54 19.54 0 01-31.81 0h5.99a15.04 15.04 0 0019.83 0h6zM3.05 8.2a19.54 19.54 0 0131.81 0h-6.04A15.04 15.04 0 009 8.2H3.05z"/>
  </g>
</svg>
