<?xml version="1.0" encoding="UTF-8"?> <!-- Generator: Adobe Illustrator 24.2.3, SVG Export Plug-In . SVG Version: 6.00 Build 0) --> <svg xmlns="http://www.w3.org/2000/svg" xmlns:xlink="http://www.w3.org/1999/xlink" version="1.1" id="Ebene_1" x="0px" y="0px" viewBox="0 0 115.4 56.3" style="enable-background:new 0 0 115.4 56.3;" xml:space="preserve"> <style type="text/css"> .st0{fill:#706F6F;} .st1{fill:#A21A17;} .st2{fill:#EF7D00;} .st3{fill:#FBBA00;} .st4{fill:#FFDE00;} .st5{fill:#D63517;} </style> <g id="Ebene_2_1_"> <g id="Ebene_1-2"> <path class="st0" d="M7.1,41.8c1.6,0,2.6-2.3,2.6-4.6s-1-4.6-2.6-4.6H2.7v9.2H7.1z M0,30.4h7.6c2.6,0,4.8,3.1,4.8,6.9 c0,3.5-2.2,6.9-4.8,6.9l-4.9-0.1v6.3c-0.4,0.1-0.8,0.1-1.3,0.1c-0.5,0-0.9,0-1.4-0.1V30.4L0,30.4z"></path> <path class="st0" d="M21.6,38.1c0,0.4,0,0.7-0.1,1.1c-0.7-0.1-1.3-0.1-2-0.1c-0.6,0-1.3,0-1.9,0.1v11.3c-0.4,0.1-0.8,0.1-1.2,0.1 c-0.4,0-0.8,0-1.2-0.1V37.3c1.3-0.3,2.7-0.4,4-0.4c0.8,0,1.6,0.1,2.4,0.2C21.6,37.4,21.7,37.7,21.6,38.1"></path> <path class="st0" d="M28.6,48.5c2.7,0,3-1.7,3-5.4c0-2.2-0.9-4.1-3-4.1c-2.4,0-3,1.4-3,4.4S26.2,48.5,28.6,48.5 M28.6,36.9 c3.8,0,5.5,2.4,5.5,6.2c0,4.9-1.1,7.5-5.5,7.5c-3.8,0-5.5-2.6-5.5-7.2C23.1,39.3,24.2,36.9,28.6,36.9"></path> <path class="st0" d="M44,50.4c-0.5,0.1-1,0.1-1.5,0.1c-0.5,0-1,0-1.6-0.1c0,0-3.6-6.2-5.9-19.7c0.8-0.3,1.7-0.5,2.6-0.5 c1,6.1,2.6,12.2,4.7,18h0.2c2.2-5.8,3.8-11.9,4.8-18c0.9,0,1.7,0.2,2.5,0.5C47.5,44.2,44,50.4,44,50.4"></path> <path class="st0" d="M54.8,50.4c-0.4,0.1-0.8,0.1-1.2,0.1c-0.4,0-0.8,0-1.2-0.1V37.1c0.4-0.1,0.8-0.1,1.2-0.1c0.4,0,0.8,0,1.2,0.1 V50.4z M55,33.4c0,0.4,0,0.8-0.1,1.2c-0.4,0.1-0.9,0.1-1.4,0.1c-0.4,0-0.8,0-1.2-0.1c-0.1-0.4-0.1-0.7-0.1-1.1 c0-0.4,0-0.8,0.1-1.2c0.4-0.1,0.8-0.1,1.2-0.1c0.5,0,0.9,0,1.4,0.1C54.9,32.7,55,33.1,55,33.4"></path> <path class="st0" d="M59,33.9l2.4-0.5V37h3.5c0.1,0.4,0.1,0.7,0.1,1.1c0,0.3,0,0.7-0.1,1h-3.5v11.3c-0.4,0.1-0.8,0.1-1.2,0.1 c-0.4,0-0.8,0-1.1-0.1L59,33.9L59,33.9z"></path> <path class="st0" d="M74.5,48.4v-3.8h-2.9c-2.2,0-2.4,1-2.4,2.2c0,0.8,0.4,1.8,2.1,1.8C72.4,48.6,73.5,48.5,74.5,48.4 M66.9,46.8 c0-2.5,1.5-4.1,4.7-4.2l2.9-0.1V41c0-1.4-1-2-2.4-2c-1.1-0.1-2.1,0.3-3,0.9c-0.7-0.4-1.2-1-1.6-1.6c1.3-1,3-1.5,4.7-1.5 c3.1,0,4.8,1.2,4.8,4.3v9.1c-1.8,0.2-3.7,0.3-5.6,0.3C68.4,50.5,66.9,49.3,66.9,46.8"></path> <path class="st0" d="M1.1,19.2v5H3c1.2,0,1.7-0.6,1.7-2.5s-0.5-2.5-2-2.5L1.1,19.2z M2.5,18.2c1.6,0,2-0.5,2-2.3S4,13.7,2.8,13.7 H1.1v4.5H2.5z M0,12.6h2.9c1.7,0,2.7,0.8,2.7,3.3c0,2.3-1.3,2.8-1.3,2.8s1.6,0.5,1.6,3.1s-1.1,3.5-2.8,3.5H0V12.6z"></path> <path class="st0" d="M9,18.3L9,18.3l4.2-5.8c0.4,0,0.9,0,1.3,0.1l-4.4,5.9l4.3,6.5c-0.4,0.1-0.9,0.1-1.3,0.1L9.1,19H9v6.2 c-0.2,0-0.4,0-0.6,0c-0.2,0-0.4,0-0.6,0V12.6c0,0,0.3,0,0.5,0c0.2,0,0.4,0,0.6,0V18.3z"></path> <path class="st0" d="M17.1,18.3L17.1,18.3l4.2-5.8c0.4,0,0.9,0,1.3,0.1l-4.4,5.9l4.3,6.5c-0.4,0.1-0.9,0.1-1.3,0.1L17.2,19h-0.1 v6.2c0,0-0.3,0-0.6,0c-0.2,0-0.4,0-0.6,0V12.6c0,0,0.3,0,0.5,0s0.6,0,0.6,0V18.3z"></path> <path class="st1" d="M111.6,22.9c-0.1-0.1-0.2-0.1-0.3-0.1c-0.1,0-0.2,0-0.2,0.1c-2.4,1.7-4.3,2.6-5.9,2.8c0.9-0.8,1.4-1.8,1.5-3 c0.1-1.4-1-2.6-2.4-2.6c-1.4-0.1-2.6,1-2.6,2.4l0,0c0,1,0.3,2,0.9,2.8h-0.1c-0.9-0.5-1.7-1.2-2.4-1.9c-2.8-2.8-6.5-4.6-10.4-5.2 l0,0c-0.2,0-0.4,0.2-0.4,0.4c0,0.2,0.1,0.5,0.3,0.5c1,0.3,2.1,0.8,3,1.3c2,1.1,3.7,2.8,4.9,4.8c1.6,2.9,1.5,6.5,0.2,10.4 c0,0.2,0.1,0.3,0.2,0.4c0.1,0.1,0.2,0.1,0.3,0.1c0.1,0,0.1,0,0.2,0c2.6-1.4,4.9-3.2,7-5.3c2.3-2.3,5.1-5.2,6.3-7.3 C111.9,23.3,111.9,23,111.6,22.9"></path> <path class="st2" d="M108,0.8c-1.4-0.5-2.9-0.8-4.4-0.8c-1.4,0-2.8,0.3-4.1,0.8c-3,1.1-5.5,3.4-6.9,6.4c-1.3,2.9-2.3,5.9-3,9 c-0.2,0.8-0.4,1.6-0.6,2.3c-0.1,0.2,0.1,0.5,0.3,0.6c0.1,0,0.1,0,0.2,0c0.2,0,0.4-0.1,0.4-0.3c1.3-3.3,2.9-6.6,4.9-9.6 c1.1-1.5,1.9-2,2.7-2.1c-0.7,0.7-1.2,1.5-1.5,2.4c-0.4,1.3,0.4,2.7,1.8,3.1s2.7-0.4,3.1-1.8c0-0.1,0-0.2,0.1-0.3 c0.2-1.2-0.1-2.3-0.8-3.3c0.5,0.4,1,1,1.3,1.6c1.2,2.1,1,4.9-1.5,9.1c-0.1,0.2-0.1,0.5,0.1,0.6c0.1,0.1,0.2,0.1,0.3,0.1 c0.1,0,0.2,0,0.3-0.1c1.1-1.2,2.1-2.5,2.8-4c0.8-1.5,1.1-3.2,0.8-4.9c-0.1-0.3-0.1-0.5-0.2-0.8c-0.4-1.7-0.3-3.5,0.3-5.2 c0.5-1.1,1.5-1.8,2.7-1.9c0.2,0,0.5,0,0.7,0.1c0.1,0,0.1,0,0.2,0c0.2,0,0.4-0.1,0.4-0.3C108.4,1.1,108.3,0.8,108,0.8 C108,0.7,108,0.7,108,0.8"></path> <path class="st3" d="M93.1,5.7c-1.6-1.9-3.7-3.4-6-4.2c-1.8-0.6-3.6-1-5.5-0.9c-0.4,0-0.8,0-1.2,0.1c-1.7,0.3-3.4,1-4.8,2 c-1.1,0.7-2,1.7-2.8,2.7c-0.6,0.8-1,1.6-1.3,2.6c-0.2,0.5-0.3,0.8-0.4,1.3c-0.1,0.2,0,0.5,0.3,0.6c0.1,0,0.1,0,0.2,0 c0.2,0,0.3-0.1,0.4-0.3c0.6-1.1,1.7-1.8,2.9-2c0.6,0,1.2,0.1,1.8,0.3c1.2,0.5,2.4,2.7,3.4,4.2c0.4,0.6,0.9,1.3,1.3,1.8 c2.1,2.5,4.9,4.3,8,5.2c0,0,0.1,0,0.2,0c0.2,0,0.3-0.1,0.4-0.2c0.1-0.2,0.1-0.4-0.1-0.6c-6.8-4.6-7.9-8.3-7.7-10.3 c0.4,0.9,1,1.7,1.7,2.3c1.1,0.9,2.8,0.7,3.6-0.4c0.1-0.1,0.2-0.2,0.2-0.4c0.9-1.2,0.6-2.8-0.5-3.6c-0.1-0.1-0.2-0.1-0.3-0.2 c-1.3-0.6-2.8-0.8-4.2-0.3c0.7-0.7,1.7-1.2,2.7-1.3c2.7-0.2,4.8,1,7.3,2.4c0.2,0.1,0.4,0,0.6-0.1C93.2,6.1,93.2,5.9,93.1,5.7"></path> <path class="st4" d="M89.8,18.6c0-0.2-0.2-0.4-0.5-0.4l0,0c-2.8,0.4-5.6,1.1-8.2,2.3c-0.6,0.3-1.2,0.5-1.8,0.6 c1-0.7,1.7-1.8,1.8-3c0.3-1.3-0.6-2.6-2-2.9c-1.3-0.3-2.6,0.6-2.9,2c0,0.1,0,0.2,0,0.3c-0.1,1.1,0.3,2.3,1,3.2 c-1.2-0.5-2.6-2.6-3.3-4.3c-0.9-2.2-1.6-4.6-1.9-7C72,9.1,71.8,9,71.5,9c-0.2,0-0.4,0.2-0.4,0.4c-0.2,2.7,0,5.4,0.8,8 c0.6,2,1.4,3.8,2.4,5.6c1.2,2.1,2.6,4.1,4.3,5.9c0.1,0.1,0.2,0.1,0.4,0.1c0.2,0,0.4-0.1,0.5-0.2c0.2-0.3,2.4-7.7,10.1-9.6 C89.9,19.1,90,18.8,89.8,18.6"></path> <path class="st5" d="M111.7,3.2c-1.1-1-2.3-1.8-3.6-2.5c-0.1,0-0.1,0-0.2,0c-0.2,0-0.3,0.1-0.4,0.2c-0.1,0.2-0.1,0.4,0.1,0.6 c1.9,1.3,3.4,3.1,4.4,5.2c0.6,1.2,1.1,3.9,0.8,4.6c-0.2-1.1-0.8-2-1.5-2.8c-1-1-2.6-1.1-3.6-0.1c-0.1,0.1-0.2,0.2-0.3,0.3 c-1,1-1,2.6,0,3.6c0.1,0.1,0.2,0.2,0.3,0.3c1.1,0.8,2.4,1.2,3.8,1c-0.4,0.5-1,0.9-1.6,1.1c-0.5,0.1-1.1,0.2-1.7,0.2 c-2.2,0.2-5.3,0.1-8.2,2.7c-0.2,0.2-0.2,0.4-0.1,0.6c0.1,0.1,0.2,0.2,0.4,0.2c0.1,0,0.2,0,0.2-0.1c1-0.7,2.1-1.1,3.3-1.2 c3.5-0.1,6.1,3.8,7,6.1c0.1,0.2,0.3,0.3,0.4,0.3h0.1c0.1,0,0.3-0.1,0.3-0.2c1-1.5,1.8-3.1,2.4-4.8c1-2.4,1.4-4.9,1.3-7.5 C115.3,8.1,114,5.2,111.7,3.2"></path> <path class="st0" d="M96.3,35.7c-0.1-2.1-0.9-14.1-6.7-17.5c-0.2-0.1-0.5,0-0.6,0.1c-0.2,0.2-0.2,0.4,0,0.6 c3.4,3.3,5.2,12.5,2.4,13.2c0.5-1.2,0.4-2.6-0.1-3.9c-0.6-1.4-2.3-2-3.7-1.4c-1.4,0.6-2,2.3-1.4,3.7c0.6,1.1,1.6,2,2.7,2.5 c-4,0-9.8-5.1-9.9-5.1c-0.1,0-0.1-0.1-0.2-0.1c-0.2,0-0.3,0.1-0.4,0.2c-0.2,0.1-0.2,0.4-0.1,0.6c2.6,2.8,5.7,4.7,8.2,6.6 c3.8,2.8,2.1,9.6-1.5,12.6C83.8,49,82.9,49.4,83,50l0,0c0,0.3,0.5,0.6,1.1,0.6c0.1,0,0.2,0,0.3,0c2.2-0.2,5.9-4.2,7.1-6.3 c1.8,2.6-0.7,9.9-0.9,11.4l0,0v0.1c0,0.3,0.3,0.6,0.6,0.6l0,0c0.1,0,0.1,0,0.2,0l0,0C94.3,55.2,96.7,42.2,96.3,35.7"></path> </g> </g> </svg> 