<svg id="Ebene_1" data-name="Ebene 1" xmlns="http://www.w3.org/2000/svg" width="110mm" height="40mm" viewBox="0 0 311.81 113.39">
  <defs>
    <style>
      .cls-1 {
        fill: #95c11f;
      }

      .cls-2 {
        fill: #fdc300;
      }

      .cls-3 {
        fill: #e8491b;
      }

      .cls-4 {
        fill: #706f6f;
      }
    </style>
  </defs>
  <title>Logo_BKK-MTU_rgb_01</title>
  <path class="cls-1" d="M275.86,9.64a20.6,20.6,0,0,1,6.12.87,22,22,0,0,1,11.52,8.11,22.73,22.73,0,0,1,4.11,13.8s-2.35-7.7-12.63-11a28.9,28.9,0,0,0-12.13-.83,15.79,15.79,0,0,0-7.56,3C265.27,19.07,266.94,9.78,275.86,9.64Z"/>
  <path class="cls-2" d="M257.4,42.33a20.72,20.72,0,0,1-2.3-5.73,22.09,22.09,0,0,1,1.25-14,22.7,22.7,0,0,1,9.89-10.46S260.75,18,263,28.56a24.47,24.47,0,0,0,4.88,10.11,18.36,18.36,0,0,0,6.78,5.55C271.29,46.44,262.35,50.48,257.4,42.33Z"/>
  <path class="cls-3" d="M295.05,42.28a20.69,20.69,0,0,1-3.82,4.87,22.17,22.17,0,0,1-12.77,5.66,23.29,23.29,0,0,1-14.22-3.34s6.32,1.56,14.4-4.79a29.67,29.67,0,0,0,7.7-9.65,19.28,19.28,0,0,0,2.16-8.84C292.36,28.14,299.54,34.06,295.05,42.28Z"/>
  <polygon class="cls-4" points="281.56 32.05 276.46 32.05 276.46 37.16 275.67 37.16 275.67 32.05 270.56 32.05 270.56 31.25 275.67 31.25 275.67 26.14 276.46 26.14 276.46 31.25 281.56 31.25 281.56 32.05"/>
  <g>
    <path class="cls-4" d="M14.93,99.89h1.29V91.66H14.93v-.82h3.56v.82H17.2v8.23h1.29v.81H14.93Z"/>
    <path class="cls-4" d="M19.66,99.92h1.2V91.63H19.59v-.79h2.22v3.87a2.75,2.75,0,0,1-.06.58h0a3.13,3.13,0,0,1,2.83-1.81c1.74,0,2.35,1,2.35,2.73v3.71h1.21v.78H26V96.47c0-1.11-.17-2.09-1.53-2.09a2.76,2.76,0,0,0-2.67,2.94v2.6H23v.78H19.66Z"/>
    <path class="cls-4" d="M29.18,99.92h1.09V94.74a.28.28,0,0,0-.31-.31H29v-.78h1.33c.59,0,.85.24.85.8v.47c0,.3,0,.54,0,.54h0a2.43,2.43,0,0,1,2.23-1.88,2.15,2.15,0,0,1,.39,0v.94a2.51,2.51,0,0,0-.36,0c-1.58,0-2.23,1.78-2.23,3.18v2.21h1.09v.78H29.18Z"/>
    <path class="cls-4" d="M38.1,93.48a3,3,0,0,1,3,3.25,3.36,3.36,0,0,1-.05.45h-5.4A2.68,2.68,0,0,0,38.34,100a3.28,3.28,0,0,0,2.14-.84l.44.72a4,4,0,0,1-2.61,1,3.56,3.56,0,0,1-3.68-3.69A3.44,3.44,0,0,1,38.1,93.48Zm2,3a2,2,0,0,0-2-2.2,2.41,2.41,0,0,0-2.42,2.2Z"/>
    <path class="cls-4" d="M51.09,90.68c1.69,0,3.71.7,3.71,1.93v1.08h-.94V93c0-.93-1.51-1.39-2.76-1.39A3.94,3.94,0,0,0,47,95.75,4,4,0,0,0,51.09,100c1,0,3-.31,3-1.43V97H52V96.2h3v2.58c0,1.53-2.46,2.09-4,2.09a5.1,5.1,0,1,1,0-10.19Z"/>
    <path class="cls-4" d="M60.08,93.48a3,3,0,0,1,3,3.25,3.36,3.36,0,0,1,0,.45h-5.4A2.68,2.68,0,0,0,60.32,100a3.28,3.28,0,0,0,2.14-.84l.44.72a4,4,0,0,1-2.61,1,3.56,3.56,0,0,1-3.68-3.69A3.44,3.44,0,0,1,60.08,93.48Zm2,3a2,2,0,0,0-2-2.2,2.41,2.41,0,0,0-2.42,2.2Z"/>
    <path class="cls-4" d="M64.31,98.51h.87V99c0,.71,1,1,1.83,1s1.66-.39,1.66-1.1-.9-1.1-1.91-1.48-2.18-.87-2.18-2.1,1.26-1.88,2.43-1.88c1,0,2.34.41,2.34,1.37v.82h-.86v-.52c0-.52-.7-.84-1.45-.84s-1.48.33-1.48,1,.85,1.1,1.78,1.43c1.09.39,2.29.86,2.29,2.12s-1.09,2-2.66,2c-1.3,0-2.66-.59-2.66-1.67Z"/>
    <path class="cls-4" d="M71.76,94.43H70.5v-.78h2.22V97.9c0,1.11.16,2.09,1.54,2.09a2.79,2.79,0,0,0,2.59-3V94.43H75.59v-.78H77.8v6a.28.28,0,0,0,.31.31h.8v.77H77.72c-.59,0-.84-.25-.84-.78v-.35c0-.28,0-.51,0-.51h0a3,3,0,0,1-2.78,1.81c-1.63,0-2.32-.9-2.32-2.73Z"/>
    <path class="cls-4" d="M80,99.92h1.19V94.74a.28.28,0,0,0-.31-.31H80v-.78H81.3c.59,0,.86.25.86.78v.41a2.11,2.11,0,0,1-.06.5h0A3.13,3.13,0,0,1,85,93.48c1.74,0,2.34,1,2.34,2.73v3.71h1.19v.78H86.39V96.47c0-1.11-.18-2.09-1.54-2.09a2.8,2.8,0,0,0-2.68,2.93v2.61h1.19v.78H80Z"/>
    <path class="cls-4" d="M92.68,93.48A2.54,2.54,0,0,1,95,94.85h0a3.49,3.49,0,0,1,0-.54V91.63H93.7v-.79h2.22v8.77a.27.27,0,0,0,.3.31H97v.78H95.84c-.6,0-.84-.26-.84-.77V99.8a1.26,1.26,0,0,1,.06-.43h0a2.63,2.63,0,0,1-2.48,1.5c-1.89,0-3-1.51-3-3.69S90.8,93.48,92.68,93.48Zm0,6.53c1.17,0,2.28-.84,2.28-2.83,0-1.44-.73-2.83-2.23-2.83-1.26,0-2.28,1-2.28,2.83S91.39,100,92.71,100Z"/>
    <path class="cls-4" d="M97.9,99.92h1.2V91.63H97.84v-.79h2.21v3.87a2.75,2.75,0,0,1-.06.58h0a3.13,3.13,0,0,1,2.83-1.81c1.74,0,2.35,1,2.35,2.73v3.71h1.21v.78h-2.16V96.47c0-1.11-.17-2.09-1.53-2.09a2.76,2.76,0,0,0-2.67,2.94v2.6h1.19v.78H97.9Z"/>
    <path class="cls-4" d="M110.83,93.48a3,3,0,0,1,3,3.25,4.17,4.17,0,0,1,0,.45h-5.41a2.69,2.69,0,0,0,2.73,2.83,3.33,3.33,0,0,0,2.15-.84l.43.72a4,4,0,0,1-2.61,1,3.56,3.56,0,0,1-3.68-3.69A3.44,3.44,0,0,1,110.83,93.48Zm2,3a2,2,0,0,0-2-2.2,2.42,2.42,0,0,0-2.43,2.2Z"/>
    <path class="cls-4" d="M115.08,99.92h1.19V94.43H115v-.78h2.21v6.27h1.19v.78h-3.33Zm1.13-9.08h1.08V92h-1.08Z"/>
    <path class="cls-4" d="M120.28,94.43H119v-.78h1.27v-2h.94v2H123v.78h-1.78v3.62c0,1.66,1,1.88,1.6,1.88a1.57,1.57,0,0,0,.32,0v.83a2.61,2.61,0,0,1-.41,0,2.3,2.3,0,0,1-2.46-2.62Z"/>
    <path class="cls-4" d="M128.53,94.43h-1.26v-.78h1.27v-2h.94v2h1.78v.78h-1.78v3.62c0,1.66,1.05,1.88,1.6,1.88a1.57,1.57,0,0,0,.32,0v.83a2.61,2.61,0,0,1-.41,0,2.3,2.3,0,0,1-2.46-2.62Z"/>
    <path class="cls-4" d="M132.48,99.92h1.09V94.74a.28.28,0,0,0-.31-.31h-.95v-.78h1.33c.59,0,.86.24.86.8v.47a4.85,4.85,0,0,1,0,.54h0a2.42,2.42,0,0,1,2.22-1.88,2.34,2.34,0,0,1,.4,0v.94a2.75,2.75,0,0,0-.37,0c-1.58,0-2.23,1.78-2.23,3.18v2.21h1.1v.78h-3.14Z"/>
    <path class="cls-4" d="M141.4,93.48a3,3,0,0,1,3,3.25,4.17,4.17,0,0,1,0,.45h-5.41a2.68,2.68,0,0,0,2.73,2.83,3.28,3.28,0,0,0,2.14-.84l.44.72a4,4,0,0,1-2.61,1,3.56,3.56,0,0,1-3.68-3.69A3.44,3.44,0,0,1,141.4,93.48Zm2,3a2,2,0,0,0-2-2.2,2.42,2.42,0,0,0-2.43,2.2Z"/>
    <path class="cls-4" d="M145.65,99.92h1.19V94.43h-1.26v-.78h2.21v6.27H149v.78h-3.33Zm1.13-9.08h1.08V92h-1.08Z"/>
    <path class="cls-4" d="M150.66,91.63H149.4v-.79h2.22v3.48a3.33,3.33,0,0,1-.05.59h0A2.62,2.62,0,0,1,154,93.48c1.89,0,3.07,1.51,3.07,3.7s-1.33,3.69-3.18,3.69a2.58,2.58,0,0,1-2.33-1.44h0a4.07,4.07,0,0,1,0,.58v.69h-.93Zm3.17,8.38c1.25,0,2.28-1,2.28-2.83s-.92-2.83-2.24-2.83-2.28.84-2.28,2.85C151.59,98.61,152.33,100,153.83,100Z"/>
    <path class="cls-4" d="M159.26,94.43H158v-.78h1.28v-2h.94v2H162v.78h-1.78v3.62c0,1.66,1.05,1.88,1.59,1.88a1.62,1.62,0,0,0,.33,0v.83a2.61,2.61,0,0,1-.41,0,2.3,2.3,0,0,1-2.47-2.62Z"/>
    <path class="cls-4" d="M167.5,94.43h-1.26v-.78h2.21V97.9c0,1.11.17,2.09,1.55,2.09a2.79,2.79,0,0,0,2.59-3V94.43h-1.26v-.78h2.21v6a.28.28,0,0,0,.31.31h.8v.77h-1.19c-.59,0-.85-.25-.85-.78v-.35c0-.28,0-.51,0-.51h0a3,3,0,0,1-2.79,1.81c-1.62,0-2.31-.9-2.31-2.73Z"/>
    <path class="cls-4" d="M175.77,99.92H177V94.74a.28.28,0,0,0-.31-.31h-1v-.78H177c.59,0,.86.25.86.78v.41a2.11,2.11,0,0,1-.06.5h0a3.1,3.1,0,0,1,2.87-1.86c1.74,0,2.34,1,2.34,2.73v3.71h1.19v.78h-2.14V96.47c0-1.11-.19-2.09-1.54-2.09a2.8,2.8,0,0,0-2.68,2.93v2.61h1.19v.78h-3.33Z"/>
    <path class="cls-4" d="M185.19,98.51h.87V99c0,.71,1,1,1.84,1s1.65-.39,1.65-1.1-.9-1.1-1.9-1.48-2.19-.87-2.19-2.1,1.26-1.88,2.44-1.88c.95,0,2.34.41,2.34,1.37v.82h-.87v-.52c0-.52-.7-.84-1.44-.84s-1.49.33-1.49,1,.86,1.1,1.78,1.43c1.09.39,2.3.86,2.3,2.12s-1.1,2-2.66,2c-1.31,0-2.67-.59-2.67-1.67Z"/>
    <path class="cls-4" d="M199.43,96.38h.46v-.29c0-1.32-.71-1.78-1.69-1.78a3.57,3.57,0,0,0-2,.68l-.45-.71a4.19,4.19,0,0,1,2.55-.8,2.33,2.33,0,0,1,2.59,2.65v3.48a.28.28,0,0,0,.31.31h.77v.78h-1.15c-.6,0-.84-.26-.84-.77V99.8a3.18,3.18,0,0,1,0-.54h0a2.63,2.63,0,0,1-2.41,1.61,2.15,2.15,0,0,1-2.36-2.1C195.18,96.48,198.24,96.38,199.43,96.38Zm-1.75,3.71a2.47,2.47,0,0,0,2.21-2.65V97.1h-.41c-.57,0-3.32-.06-3.32,1.57A1.42,1.42,0,0,0,197.68,100.09Z"/>
    <path class="cls-4" d="M202.94,99.92h1.19V94.74a.27.27,0,0,0-.3-.31h-1v-.78h1.35c.59,0,.85.25.85.78v.41a2.51,2.51,0,0,1,0,.5h0a3.13,3.13,0,0,1,2.88-1.86c1.73,0,2.34,1,2.34,2.73v3.71h1.19v.78H209.3V96.47c0-1.11-.18-2.09-1.54-2.09a2.8,2.8,0,0,0-2.67,2.93v2.61h1.19v.78h-3.34Z"/>
    <path class="cls-4" d="M212.84,99.59h1.1v1.11h-1.1Zm0-8.75h1l0,7.28h-.9Z"/>
  </g>
  <path class="cls-2" d="M14.88,44.35H34.31c7.34,0,11.68,1.38,11.68,9.47,0,4.69-.94,7.75-5.82,8.54v.39c5.47.35,6.41,3.65,6.41,8.29,0,9.08-4.24,10.31-12.08,10.31H14.88Zm9.86,14.8h7.1c3.45,0,4.29-.59,4.29-3.55,0-2.22-.34-3.06-3.11-3.16H24.74Zm0,14.11h7.45c3.2,0,4.53-.74,4.53-3.75S35.59,66,32.38,66H24.74Z"/>
  <path class="cls-2" d="M59.61,58.27h3l9.51-13.92H84L71,62.51,85.09,81.35H72.87l-10.3-14.5h-3v14.5H49.75v-37h9.86Z"/>
  <path class="cls-2" d="M96.69,58.27h3l9.52-13.92h11.92l-13,18.16,14.1,18.84H110l-10.3-14.5h-3v14.5H86.83v-37h9.86Z"/>
  <path class="cls-4" d="M141.52,81.35h-9.86v-37h15.62l7.05,23.24h.35l6.7-23.24h16v37h-9.86l1-28.37h-.34l-9.37,28.37h-8.53L140.83,53h-.3Z"/>
  <path class="cls-4" d="M199.75,81.35H189.9V52.94h-9.47V44.35h29.28v8.59h-10Z"/>
  <path class="cls-4" d="M244.67,44.35V69c0,9.87-4.63,12.63-15.48,12.63-14.78,0-16.36-3.75-16.36-12.63V44.35h9.86V68.82c0,4.19,2.37,4.24,6.5,4.24s5.63-.34,5.63-4.68v-24Z"/>
</svg>
