<?xml version="1.0" encoding="utf-8"?>
<!-- Generator: Adobe Illustrator 22.0.1, SVG Export Plug-In . SVG Version: 6.00 Build 0)  -->
<svg version="1.1" xmlns="http://www.w3.org/2000/svg" xmlns:xlink="http://www.w3.org/1999/xlink" x="0px" y="0px"
	 viewBox="0 0 283.5 283.5" style="enable-background:new 0 0 283.5 283.5;" xml:space="preserve">
<style type="text/css">
	.st0{fill:#FFFFFF;}
	.st1{fill:#005293;}
	.st2{fill-rule:evenodd;clip-rule:evenodd;fill:#005293;}
	.st3{fill:#FDC82F;}
	.st4{fill-rule:evenodd;clip-rule:evenodd;fill:#D0103A;}
</style>
<rect x="1.5" y="1.5" class="st0" width="280.5" height="280.5"/>
<g>
	<g>
		<path class="st1" d="M80,226.2c0,2.6,0.1,4.7,0.4,6.2c-0.6-0.1-7.7-0.1-8.2,0c0.1-2.1,0.1-32.3,0-34.5c0.6,0.1,7.7,0.1,8.2,0
			c-0.2,1-0.3,2.5-0.3,4.5c-0.1,2-0.1,4.2-0.1,6.7v4.8c1.1-1.3,2.4-2.8,3.7-4.4c1.3-1.6,2.6-3.1,3.8-4.6c1.2-1.5,2.3-2.9,3.3-4.1
			c1-1.3,1.7-2.2,2.1-2.8c0.5,0.1,5.3,0.1,5.8,0c-0.6,0.6-1.4,1.5-2.6,2.8c-1.2,1.3-2.4,2.6-3.7,4.1c-1.3,1.5-2.6,2.9-3.8,4.3
			c-1.2,1.4-2.1,2.5-2.8,3.3c1.1,1.6,2.3,3.4,3.6,5.4c1.3,2,2.6,3.9,3.9,5.8c1.3,1.9,2.5,3.6,3.6,5.2c1.1,1.6,2,2.8,2.7,3.6
			c-1-0.1-8.5-0.1-9.2,0c-1.7-2.5-3.4-5.1-5-7.8c-1.6-2.6-3.3-5.2-5-7.9h-0.1C79.9,220.5,79.9,223.6,80,226.2z"/>
		<path class="st1" d="M111.6,226.2c0,2.6,0.1,4.7,0.4,6.2c-0.6-0.1-7.7-0.1-8.2,0c0.1-2.1,0.1-32.3,0-34.5c0.6,0.1,7.7,0.1,8.2,0
			c-0.2,1-0.3,2.5-0.3,4.5c-0.1,2-0.1,4.2-0.1,6.7v4.8c1.1-1.3,2.4-2.8,3.7-4.4c1.3-1.6,2.6-3.1,3.8-4.6c1.2-1.5,2.3-2.9,3.3-4.1
			c1-1.3,1.7-2.2,2.1-2.8c0.5,0.1,5.3,0.1,5.8,0c-0.6,0.6-1.4,1.5-2.6,2.8c-1.2,1.3-2.4,2.6-3.7,4.1c-1.3,1.5-2.6,2.9-3.8,4.3
			c-1.2,1.4-2.1,2.5-2.8,3.3c1.1,1.6,2.3,3.4,3.6,5.4c1.3,2,2.6,3.9,3.9,5.8c1.3,1.9,2.5,3.6,3.6,5.2c1.1,1.6,2,2.8,2.7,3.6
			c-1-0.1-8.5-0.1-9.2,0c-1.7-2.5-3.4-5.1-5-7.8c-1.6-2.6-3.3-5.2-5-7.9h-0.1C111.6,220.5,111.6,223.6,111.6,226.2z"/>
		<path class="st1" d="M137.8,214.8c0.7-0.7,1.5-1,2.5-1c1,0,1.8,0.3,2.5,1c0.7,0.7,1,1.5,1,2.5c0,1-0.3,1.8-1,2.5
			c-0.7,0.7-1.5,1-2.5,1c-1,0-1.8-0.3-2.5-1c-0.7-0.7-1-1.5-1-2.5C136.8,216.3,137.2,215.5,137.8,214.8z"/>
		<path class="st1" d="M170.3,210.3c1.6-4.3,3.1-8.4,4.4-12.4c1,0.1,3.6,0.1,4.4,0c-0.8,2-1.8,4.4-3,7.1c-1.2,2.8-2.4,5.7-3.7,8.8
			c-1.3,3.1-2.5,6.3-3.8,9.5c-1.2,3.2-2.3,6.2-3.3,9c-0.7-0.1-3.8-0.1-4.4,0c-0.5-1.3-1.1-3-1.8-4.9c-0.7-1.9-1.5-3.9-2.3-6.1
			c-0.8-2.1-1.7-4.3-2.6-6.6c-0.9-2.2-1.8-4.4-2.6-6.5c-0.8-2.1-1.6-4-2.4-5.9c-0.7-1.8-1.4-3.3-1.9-4.6c0.8,0.1,8.2,0.1,8.9,0
			c0.6,1.9,1.2,3.9,1.9,5.9c0.7,2.1,1.5,4.2,2.2,6.4c0.8,2.2,1.6,4.3,2.4,6.5c0.8,2.2,1.6,4.3,2.4,6.4
			C167,218.9,168.7,214.6,170.3,210.3z"/>
		<path class="st1" d="M182.9,197.9c0.6,0.1,10.6,0,12,0c2.5,0,4,0.1,5.2,0.4c1.2,0.3,2.3,0.8,3.2,1.4c0.9,0.6,1.6,1.4,2.1,2.4
			c0.5,1,0.7,2.2,0.7,3.5c0,1.4-0.3,2.6-0.9,3.5c-0.6,1-1.3,1.8-2.1,2.5c-0.8,0.7-1.7,1.2-2.7,1.5c-1,0.4-1.8,0.6-2.6,0.8v0.1
			c0.8,0,1.7,0.2,2.7,0.5c1,0.3,2,0.8,3,1.5c0.9,0.7,1.7,1.5,2.4,2.6c0.7,1.1,1,2.3,1,3.8c0,1.8-0.3,3.3-1,4.6
			c-0.7,1.3-1.5,2.3-2.6,3.1c-1.1,0.8-2.3,1.4-3.7,1.7c-1,0.2-3,0.4-8.9,0.4c-5,0-7.5,0-7.9,0.1C183,230.4,183,200.1,182.9,197.9z
			 M198.5,204.4c-0.2-0.7-0.5-1.3-0.9-1.9c-0.4-0.5-1-0.9-1.7-1.3c-0.7-0.3-1.5-0.5-2.5-0.5c-0.7,0-1.2,0-1.5,0
			c-0.3,0-0.8,0.1-1.1,0.1c0,1.2,0,11.2,0,12.1h2.3c0.7,0,1.4-0.1,2.1-0.4c0.7-0.3,1.3-0.7,1.8-1.2c0.5-0.5,1-1.2,1.3-2
			c0.3-0.8,0.5-1.7,0.5-2.8C198.7,205.9,198.6,205.1,198.5,204.4z M197.5,217.7c-1.1-1.2-2.6-1.7-4.6-1.7c-0.5,0-0.9,0-1.2,0
			c-0.3,0-0.7,0-1,0c0,0.7,0,1.4,0,2.2c0,0.8,0,11,0,11.5c0.5,0,1,0.1,1.4,0.1c0.4,0,0.9,0,1.5,0c0.7,0,1.4-0.2,2.1-0.5
			c0.7-0.3,1.3-0.7,1.8-1.3c0.5-0.6,0.9-1.3,1.2-2.1c0.3-0.8,0.5-1.8,0.5-2.9C199.1,220.6,198.6,218.8,197.5,217.7z"/>
		<path class="st1" d="M211.7,220c0-1.3,0-21.3-0.1-22.1c0.7,0.1,7.2,0.1,7.9,0c-0.3,3.2-0.4,17.1-0.4,20c0,10,3.7,11.8,8.9,11.8
			c5.2,0,8.2-3.5,8.5-11.2c0.1-2.2,0.1-18.3,0.1-20.6c0.5,0.1,4,0.1,4.5,0c-0.1,0.7-0.3,16.7-0.3,18.8c0,15.3-8.6,16.3-13.8,16.3
			C224.5,233.1,211.7,233.1,211.7,220z"/>
		<path class="st1" d="M42.4,197.9c0.6,0.1,10.6,0,12,0c2.5,0,4,0.1,5.2,0.4c1.2,0.3,2.3,0.8,3.2,1.4c0.9,0.6,1.6,1.4,2.1,2.4
			c0.5,1,0.7,2.2,0.7,3.5c0,1.4-0.3,2.6-0.9,3.5c-0.6,1-1.3,1.8-2.1,2.5c-0.8,0.7-1.7,1.2-2.7,1.5c-1,0.4-1.8,0.6-2.6,0.8v0.1
			c0.8,0,1.7,0.2,2.7,0.5c1,0.3,2,0.8,3,1.5c0.9,0.7,1.7,1.5,2.4,2.6c0.7,1.1,1,2.3,1,3.8c0,1.8-0.3,3.3-1,4.6
			c-0.7,1.3-1.5,2.3-2.6,3.1c-1.1,0.8-2.3,1.4-3.7,1.7c-1,0.2-3,0.4-8.9,0.4c-5,0-7.5,0-7.9,0.1C42.5,230.4,42.5,200.1,42.4,197.9z
			 M58,204.4c-0.2-0.7-0.5-1.3-0.9-1.9c-0.4-0.5-1-0.9-1.7-1.3c-0.7-0.3-1.5-0.5-2.5-0.5c-0.7,0-1.2,0-1.5,0c-0.3,0-0.8,0.1-1.1,0.1
			c0,1.2,0,11.2,0,12.1h2.3c0.7,0,1.4-0.1,2.1-0.4c0.7-0.3,1.3-0.7,1.8-1.2c0.5-0.5,1-1.2,1.3-2c0.3-0.8,0.5-1.7,0.5-2.8
			C58.2,205.9,58.1,205.1,58,204.4z M57,217.7c-1.1-1.2-2.6-1.7-4.6-1.7c-0.5,0-0.9,0-1.2,0c-0.3,0-0.7,0-1,0c0,0.7,0,1.4,0,2.2
			c0,0.8,0,11,0,11.5c0.5,0,1,0.1,1.4,0.1c0.4,0,0.9,0,1.5,0c0.7,0,1.4-0.2,2.1-0.5c0.7-0.3,1.3-0.7,1.8-1.3
			c0.5-0.6,0.9-1.3,1.2-2.1c0.3-0.8,0.5-1.8,0.5-2.9C58.6,220.6,58.1,218.8,57,217.7z"/>
	</g>
	<g>
		<g>
			<g>
				<path class="st1" d="M280.5,3v277.5H3V3H280.5 M283.5,0H0v283.5h283.5V0L283.5,0z"/>
			</g>
		</g>
	</g>
	<g>
		<g>
			<path class="st2" d="M260.9,99.4c-26.5-7.7-52-9.7-75-8.6l9.8,10.2c0.6,0.6,0,1.7-0.9,1.4l-2.5-0.8c-6.3-2.1-20-5.3-38-7.4
				c-39.8,6.7-66.2,20.4-66.2,20.4l54.2,54.9c0,0,51.8-65.5,118.3-68.4C261.6,101,261.8,99.7,260.9,99.4z"/>
		</g>
		<path class="st3" d="M128.9,111.3h25.7c0.5,0,0.9,0.4,0.9,0.9v25.7c0,0.5-0.4,0.9-0.9,0.9h-25.7c-0.5,0-0.9-0.4-0.9-0.9v-25.7
			C128,111.7,128.4,111.3,128.9,111.3z"/>
		<path class="st4" d="M23.2,107c60.6-26.8,131.8-17.6,160.7-10.8c0.1,0,3.6,0.9,4,1l-44.4-46.4l-0.9-0.9
			C69,42.3,32.7,89.9,22.1,105.8C21.7,106.5,22.4,107.3,23.2,107z"/>
	</g>
</g>
</svg>
