<?xml version="1.0" encoding="utf-8"?>
<!-- Generator: Adobe Illustrator 12.0.0, SVG Export Plug-In . SVG Version: 6.00 Build 51448)  -->
<!DOCTYPE svg PUBLIC "-//W3C//DTD SVG 1.1//EN" "http://www.w3.org/Graphics/SVG/1.1/DTD/svg11.dtd" [
	<!ENTITY ns_svg "http://www.w3.org/2000/svg">
	<!ENTITY ns_xlink "http://www.w3.org/1999/xlink">
]>
<svg  version="1.1" id="Ebene_1" xmlns="&ns_svg;" xmlns:xlink="&ns_xlink;" width="501.622" height="191.108"
	 viewBox="0 0 501.622 191.108" overflow="visible" enable-background="new 0 0 501.622 191.108" xml:space="preserve">
<path fill-rule="evenodd" clip-rule="evenodd" fill="#006FB4" d="M218.64,148.469c0.737,0,28.98,1.476,28.98-20.655
	c0-10.854-8.22-17.282-18.335-18.652v-0.211c8.536-1.579,16.439-7.271,16.439-16.649c0-13.384-12.015-19.813-26.347-19.918h-36.462
	v76.086H218.64 M203.992,133.716v-16.44h13.805c4.742,0.317,7.693,4.321,7.693,8.537c0,4.742-3.9,7.903-9.169,7.903H203.992z
	 M203.992,87.136h11.487c4.952,0,8.641,3.057,8.641,7.377c0,5.796-3.689,8.009-9.378,8.009l-10.75,0.104V87.136z"/>
<polyline fill-rule="evenodd" clip-rule="evenodd" fill="#006FB4" points="277.586,104.272 277.62,72.403 256.546,72.403 
	256.546,148.49 277.62,148.49 277.635,109.792 302.914,148.49 328.579,148.49 299.297,105.917 326.472,72.403 301.966,72.403 
	277.586,104.272 "/>
<polyline fill-rule="evenodd" clip-rule="evenodd" fill="#006FB4" points="357.082,104.272 357.115,72.403 336.038,72.403 
	336.038,148.49 357.115,148.49 357.13,109.792 382.409,148.49 408.074,148.49 378.792,105.917 405.97,72.403 381.458,72.403 
	357.082,104.272 "/>
<path fill-rule="evenodd" clip-rule="evenodd" fill="#19962B" d="M116.404,174.321c2.332-5.563-1.968-7.259-6.732-7.259
	c-4.828,0-10.15,1.503-12.319,6.972c-0.874,2.493-0.46,4.604,1.515,5.627c4.248,2.207,9.217,1.535,8.119,4.669
	c-0.536,1.534-2.691,2.302-4.162,2.302c-2.303,0-3.488-1.184-2.694-3.357h-6.396c-2.098,6.269,2.086,7.834,7.458,7.834
	c5.34,0,10.942-2.304,12.643-7.161c2.184-6.237-3.311-6.621-6.833-7.613c-1.537-0.447-3.395-0.989-2.8-2.685
	c0.403-1.151,2.017-2.11,3.487-2.11c1.088,0,1.83,0.255,2.206,0.735c0.408,0.479,0.46,1.15,0.115,2.047H116.404"/>
<path fill-rule="evenodd" clip-rule="evenodd" fill="#19962B" d="M150.748,174.8c2.133-5.82-2.76-7.738-8.355-7.738
	c-7.218,0.063-12.553,4.253-15.261,11.99c-2.708,7.739-0.35,12.056,6.845,12.056c5.596,0,11.876-2.047,13.816-7.865h-6.714
	c-0.901,2.205-2.85,3.389-5.536,3.389c-3.613,0-2.96-3.965-1.786-7.323c1.209-3.453,3.391-7.77,7.069-7.77
	c2.622,0,3.775,1.183,3.207,3.262H150.748"/>
<polyline fill-rule="evenodd" clip-rule="evenodd" fill="#19962B" points="163.859,190.627 167.172,181.164 175.038,181.164 
	171.725,190.627 178.121,190.627 186.2,167.542 179.805,167.542 176.604,176.687 168.771,176.687 171.971,167.542 165.543,167.542 
	157.464,190.627 163.859,190.627 "/>
<polyline fill-rule="evenodd" clip-rule="evenodd" fill="#19962B" points="208.826,190.627 210.393,186.152 199.201,186.152 
	200.914,181.258 211.21,181.258 212.777,176.783 202.48,176.783 204.147,172.018 215.339,172.018 216.905,167.542 199.319,167.542 
	191.239,190.627 208.826,190.627 "/>
<path fill-rule="evenodd" clip-rule="evenodd" fill="#19962B" d="M245.225,167.542l-5.004,14.293
	c-1.125,2.942-3.309,4.797-6.314,4.797c-3.006,0-3.892-1.854-2.958-4.797l5.003-14.293h-6.396l-5.114,14.613
	c-2.186,6.429,2.078,8.953,7.897,8.953c5.82,0,11.852-2.524,14.167-8.953l5.112-14.613H245.225"/>
<polyline fill-rule="evenodd" clip-rule="evenodd" fill="#19962B" points="266.345,181.868 275.585,181.868 277.152,177.389 
	267.909,177.389 269.791,172.018 279.734,172.018 281.304,167.542 264.963,167.542 256.884,190.627 263.277,190.627 
	266.345,181.868 "/>
<polyline fill-rule="evenodd" clip-rule="evenodd" fill="#19962B" points="302.743,190.627 304.311,186.152 293.119,186.152 
	294.83,181.258 305.129,181.258 306.693,176.783 296.397,176.783 298.065,172.018 309.257,172.018 310.824,167.542 293.236,167.542 
	285.156,190.627 302.743,190.627 "/>
<polyline fill-rule="evenodd" clip-rule="evenodd" fill="#19962B" points="332.086,190.627 333.65,186.152 323.196,186.152 
	329.71,167.542 323.313,167.542 315.232,190.627 332.086,190.627 "/>
<polyline fill-rule="evenodd" clip-rule="evenodd" fill="#19962B" points="361.224,190.627 362.791,186.152 351.6,186.152 
	353.312,181.258 363.607,181.258 365.175,176.783 354.876,176.783 356.547,172.018 367.737,172.018 369.305,167.542 
	351.718,167.542 343.637,190.627 361.224,190.627 "/>
<polyline fill-rule="evenodd" clip-rule="evenodd" fill="#19962B" points="373.648,190.627 379.406,190.627 385.594,172.945 
	385.656,172.945 387.303,190.627 396.161,190.627 404.239,167.542 398.484,167.542 392.486,184.681 392.4,184.745 390.682,167.542 
	381.729,167.542 373.648,190.627 "/>
<path fill-rule="evenodd" clip-rule="evenodd" fill="#006FB4" d="M469.325,77.166C389.695,31.318,173.888,13.247,0,101.993
	C140.109-17.777,472.21-39.651,469.325,77.166"/>
<path fill="#19962B" d="M469.352,77.208c34.528,19.878,38.021,39.262,24.672,56.295c-8.995,11.606-25.86,22.116-46.225,30.985
	c-11.813,5.17-24.744,9.765-37.894,13.669c26.42-26.485,58.503-65.055,59.425-100.911L469.352,77.208"/>
<path fill="#006FB4" d="M501.622,18.848c0,6.288-5.103,11.271-11.213,11.271c-6.053,0-11.216-4.984-11.216-11.271
	c0-6.289,5.223-11.214,11.216-11.214C496.577,7.634,501.622,12.618,501.622,18.848 M480.53,18.848c0,5.576,4.48,9.966,9.879,9.966
	c5.457,0,9.876-4.45,9.876-9.966c0-5.31-4.299-9.878-9.876-9.878C485.011,8.97,480.53,13.419,480.53,18.848z M486.314,12.736h4.271
	c0.891,0,4.095,0,4.095,3.026c0,0.356,0,2.254-2.256,2.906c1.245,0.297,1.663,0.831,1.841,2.314c0.178,1.483,0.298,2.61,0.71,3.797
	h-1.721c-0.235-0.771-0.354-1.246-0.593-3.144c-0.178-1.84-0.652-2.314-2.608-2.314h-2.078v5.458h-1.661V12.736z M487.976,17.898
	h2.61c0.831,0,2.374,0,2.374-1.839c0-1.898-1.483-1.898-2.374-1.898h-2.61V17.898z"/>
</svg>
