<?xml version="1.0" encoding="utf-8"?>
<!-- Generator: Adobe Illustrator 26.0.1, SVG Export Plug-In . SVG Version: 6.00 Build 0)  -->
<svg version="1.1" id="Ebene_1" xmlns="http://www.w3.org/2000/svg" xmlns:xlink="http://www.w3.org/1999/xlink" x="0px" y="0px"
	 viewBox="0 0 439.4 215.4" style="enable-background:new 0 0 439.4 215.4;" xml:space="preserve">
<style type="text/css">
	.st0{fill:#087DBE;}
	.st1{fill:#898F94;}
</style>
<path class="st0" d="M46.7,80.1c-9.9-1.2-18.4-7-23.1-15.3c-5.9,13.3-9.2,28-9.2,43.5c0,34.5,16.1,66.1,43,86.2
	c-13.9-19.2-21.4-42.2-21.4-66.4C36.1,110.9,39.9,94.7,46.7,80.1"/>
<path class="st0" d="M122.2,0.5C99,0.5,77.6,7.9,60,20.3c8.9,2.9,16,9.8,19.2,18.6c19.4-15.4,44-24.7,70.7-24.7
	c11.3,0,22.2,1.6,32.8,4.8C164.9,7,144,0.5,122.2,0.5"/>
<path class="st0" d="M74.5,49.5c0,13.4-10.8,24.2-24.2,24.2S26.1,62.9,26.1,49.5c0-13.4,10.8-24.2,24.2-24.2S74.5,36.2,74.5,49.5"/>
<path class="st1" d="M113.6,186.4c-2,6.7-7,12.2-13.5,14.7c26,13.5,57.8,11,81.4-6.6C159.1,200.7,134.6,198.1,113.6,186.4"/>
<path class="st1" d="M83.3,159c-13.1-18.8-18.4-41.6-15.5-63.6C54.3,120,55.4,150,70.2,173.5C72.1,166.9,77,161.6,83.3,159"/>
<path class="st1" d="M108.8,180c0,9.4-7.6,17-17,17c-9.4,0-17-7.6-17-17c0-9.4,7.6-17,17-17C101.2,163.1,108.8,170.7,108.8,180"/>
<path class="st0" d="M119.4,127.2l4.4,20.2c0.7,3.3,0.9,4.1,1.4,7.2h0.2c0.5-3.1,0.7-3.9,1.4-7.2l4.4-20.2h2.8l-7.1,30h-3.5l-6.7-30
	H119.4z"/>
<path class="st0" d="M146.8,150.7c0,2.9-0.2,4.1-1,5.1c-0.9,1.1-2.6,1.7-4.5,1.7c-3.7,0-5.9-2.1-5.9-5.7V142c0-3.7,2.2-5.8,6-5.8
	s5.5,1.8,5.5,5.8v5.8h-8.9v2.5c0,2.4,0.2,3.5,0.8,4.2c0.6,0.6,1.5,1,2.5,1c1.1,0,2.1-0.4,2.5-1.2c0.4-0.7,0.5-1.5,0.5-3.7
	L146.8,150.7L146.8,150.7z M144.3,145.7l0-3.7c0-2.5-1.2-3.9-3.2-3.9c-2.1,0-3.2,1.4-3.2,3.9l0,3.7L144.3,145.7z"/>
<path class="st0" d="M223.4,150.7c0,2.9-0.2,4.1-1,5.1c-0.9,1.1-2.6,1.7-4.5,1.7c-3.7,0-5.9-2.1-5.9-5.7V142c0-3.7,2.2-5.8,6-5.8
	c3.7,0,5.5,1.8,5.5,5.8v5.8h-8.9v2.5c0,2.4,0.2,3.5,0.8,4.2c0.6,0.6,1.5,1,2.5,1c1.1,0,2.1-0.4,2.5-1.2c0.4-0.7,0.5-1.5,0.5-3.7
	L223.4,150.7L223.4,150.7z M220.9,145.7l0-3.7c0-2.5-1.2-3.9-3.2-3.9c-2.1,0-3.2,1.4-3.2,3.9l0,3.7L220.9,145.7z"/>
<path class="st0" d="M402.8,150.7c0,2.9-0.2,4.1-1,5.1c-0.9,1.1-2.6,1.7-4.5,1.7c-3.7,0-5.9-2.1-5.9-5.7V142c0-3.7,2.2-5.8,6-5.8
	c3.7,0,5.5,1.8,5.5,5.8v5.8h-8.9v2.5c0,2.4,0.2,3.5,0.8,4.2c0.6,0.6,1.5,1,2.5,1c1.1,0,2.1-0.4,2.5-1.2c0.4-0.7,0.5-1.5,0.5-3.7
	L402.8,150.7L402.8,150.7z M400.3,145.7l0-3.7c0-2.5-1.2-3.9-3.2-3.9c-2.1,0-3.2,1.4-3.2,3.9l0,3.7L400.3,145.7z"/>
<path class="st0" d="M153,136.5c0.1,1.1,0.1,1.4,0.1,2.5l0.2,0c1.4-2.2,2.6-3,4.6-3v2.5c-3.1,0.2-4.6,1.7-4.6,4.8v13.7h-2.5v-18.6
	c0-0.6-0.1-1.6-0.2-2L153,136.5L153,136.5z"/>
<path class="st0" d="M160.2,136.5l2.3,0l0-4.5l2.5-0.9l0,5.4l2.9,0v1.9l-2.9,0c0,0,0,0.4,0,0.9v13.4c0,2.1,0.5,2.6,2.3,2.6h0.7v1.7
	c-0.7,0.1-1,0.1-1.5,0.1c-2.7,0-3.9-0.9-3.9-3.1l0-15.7l-2.3,0V136.5z"/>
<path class="st0" d="M173.5,136.5c0.1,1.1,0.1,1.4,0.1,2.5l0.2,0c1.4-2.2,2.6-3,4.6-3v2.5c-3.1,0.2-4.6,1.7-4.6,4.8v13.7h-2.5v-18.6
	c0-0.6-0.1-1.6-0.2-2L173.5,136.5L173.5,136.5z"/>
<path class="st0" d="M189.9,155.3c-1,1.4-2.5,2.2-4.4,2.2c-3.3,0-5-2-5-6c0-3.1,1.1-5,3.2-6c1.5-0.7,3.2-0.9,6.1-1v-3.3
	c0-2.1-1-3.1-3-3.1c-1.3,0-2.3,0.5-2.8,1.3c-0.4,0.6-0.5,1.3-0.6,3.1h-2.4c0.1-4.5,1.8-6.3,5.9-6.3c2.2,0,3.9,0.8,4.6,2.2
	c0.4,0.9,0.7,1.8,0.7,3.2v13.8c0,0.6,0,1,0.2,1.8h-2.5c0-0.8,0-1,0-1.8L189.9,155.3z M189.9,146.4c0,0-1,0-1.5,0
	c-1.5,0.1-2.4,0.2-3.2,0.6c-1.4,0.6-2.1,2-2.1,4.2c0,3.3,0.8,4.5,3,4.5c2.2,0,3.8-1.6,3.8-3.9L189.9,146.4z"/>
<path class="st0" d="M369.1,155.3c-1,1.4-2.5,2.2-4.4,2.2c-3.3,0-5-2-5-6c0-3.1,1.1-5,3.2-6c1.5-0.7,3.2-0.9,6.1-1v-3.3
	c0-2.1-1-3.1-3-3.1c-1.3,0-2.3,0.5-2.8,1.3c-0.4,0.6-0.5,1.3-0.6,3.1h-2.4c0.1-4.5,1.8-6.3,5.9-6.3c2.2,0,3.9,0.8,4.6,2.2
	c0.4,0.9,0.7,1.8,0.7,3.2v13.8c0,0.6,0,1,0.2,1.8h-2.5c0-0.8,0-1,0-1.8L369.1,155.3z M369.1,146.4c0,0-1,0-1.5,0
	c-1.5,0.1-2.4,0.2-3.2,0.6c-1.4,0.6-2.1,2-2.1,4.2c0,3.3,0.8,4.5,3,4.5c2.2,0,3.8-1.6,3.8-3.9L369.1,146.4z"/>
<path class="st0" d="M205.6,154.6c-0.9,1.9-2.2,2.8-4.1,2.8c-3,0-4.8-1.9-4.8-5v-15.9h2.5v15.3c0,2.2,1.1,3.6,3,3.6
	c2.1,0,3.4-1.5,3.4-4.1v-14.7h2.5v20.6h-2.5v-0.9c0-0.2,0-0.3,0.3-1.5L205.6,154.6z"/>
<path class="st0" d="M227.4,136.5h2.5v0.9c0,0.2,0,0.5-0.2,1.2l0.2,0c1-1.7,2.3-2.5,4-2.5c3,0,4.8,1.9,4.8,5v15.9h-2.5v-15.3
	c0-2.3-1.1-3.6-3-3.6c-2.2,0-3.4,1.5-3.4,4.1v14.7h-2.5V136.5z"/>
<path class="st0" d="M253.9,127.2h8.2c4.7,0,7.2,2.7,7.2,7.9v14.4c0,5.3-2.4,7.7-7.6,7.7h-7.8V127.2z M256.7,129.4l0,25.6l4.4,0
	c1.7,0,3.1-0.4,4-1.3c1-0.9,1.3-2.2,1.3-5.5v-12.4c0-2.9-0.3-4-1.3-5c-1-1-2.3-1.4-4.4-1.4L256.7,129.4L256.7,129.4z"/>
<path class="st0" d="M282.7,154.6c-0.9,1.9-2.2,2.8-4.1,2.8c-3,0-4.8-1.9-4.8-5v-15.9h2.5v15.3c0,2.2,1.1,3.6,3,3.6
	c2.1,0,3.4-1.5,3.4-4.1v-14.7h2.5v20.6h-2.5v-0.9c0-0.2,0-0.3,0.3-1.5L282.7,154.6z"/>
<path class="st0" d="M291.7,136.5c0.1,1.1,0.1,1.4,0.1,2.5l0.2,0c1.4-2.2,2.6-3,4.6-3v2.5c-3.1,0.2-4.6,1.7-4.6,4.8v13.7h-2.5v-18.6
	c0-0.6-0.1-1.6-0.2-2L291.7,136.5L291.7,136.5z"/>
<path class="st0" d="M309.8,150.9c0,2.2-0.2,3.3-0.7,4.3c-0.7,1.5-2.4,2.3-4.6,2.3c-3.5,0-5.1-1.7-5.1-5.6v-10.3
	c0-3.6,1.8-5.5,5.2-5.5c2,0,3.5,0.7,4.2,2c0.6,1,0.8,2.2,0.8,4.7h-2.4v-1.6c0-1.9-1-3-2.7-3c-2.1,0-2.8,1.2-2.8,4.8v8
	c0,3.5,0.6,4.5,2.8,4.5c1.7,0,2.8-1.1,2.8-2.8v-1.8L309.8,150.9L309.8,150.9z"/>
<path class="st0" d="M313.5,127.2h2.5v5.6c0,2.7,0,3.3-0.2,5.8l0.2,0.1c1-1.7,2.3-2.5,4.1-2.5c3.1,0,4.8,1.9,4.8,5v15.9h-2.5v-15.3
	c0-2.4-1.1-3.6-3-3.6c-2.2,0-3.4,1.5-3.4,4.1v14.7h-2.5L313.5,127.2L313.5,127.2z"/>
<path class="st0" d="M340.3,127.2h4.1l6.3,19.6c1.2,3.6,1.4,4.4,2.3,7.7l0.2,0c-0.2-3.5-0.2-4.4-0.2-8.1v-19.2h2.6v30h-4.1
	l-6.3-19.7c-1.1-3.7-1.4-4.4-2.3-7.7l-0.2,0c0.1,3.5,0.2,4.4,0.2,8v19.3h-2.6L340.3,127.2L340.3,127.2z"/>
<path class="st0" d="M375.9,127.2h2.5v5.6c0,2.7,0,3.3-0.2,5.8l0.2,0.1c1-1.7,2.3-2.5,4.1-2.5c3.1,0,4.8,1.9,4.8,5v15.9h-2.5v-15.3
	c0-2.4-1.1-3.6-3-3.6c-2.2,0-3.4,1.5-3.4,4.1v14.7h-2.5V127.2z"/>
<rect x="362" y="127.1" class="st0" width="2.7" height="2.9"/>
<rect x="367.6" y="127.1" class="st0" width="2.7" height="2.9"/>
<path class="st1" d="M137.2,49.5c12.9,0,18.1,5,18.1,15.8c0,8-3.4,12.9-10,14.4c7.4,1.1,10.9,5.8,10.9,15.6
	c0,11.8-5.6,17.1-17.9,17.1h-21.8V49.5L137.2,49.5L137.2,49.5z M135.2,75.2c3.5,0,5.3-0.9,6.6-2.3c1.4-1.6,1.6-3.1,1.6-6.2
	c0-7.1-4.6-7.6-9.4-7.6h-5.3v16L135.2,75.2L135.2,75.2z M128.7,102.7h4.9c6.7,0,10.4-1.1,10.4-9c0-6.4-2.3-8.8-9.2-8.8h-6.1V102.7z"
	/>
<polygon class="st1" points="175.8,49.5 175.8,76 190.2,49.5 203.7,49.5 187.3,77.7 203.7,112.4 189.9,112.4 175.8,80.6 
	175.8,112.4 163.5,112.4 163.5,49.5 "/>
<polygon class="st1" points="222.4,49.5 222.4,76 236.8,49.5 250.3,49.5 233.9,77.7 250.3,112.4 236.5,112.4 222.4,80.6 
	222.4,112.4 210.1,112.4 210.1,49.5 "/>
<polygon class="st0" points="275.3,49.5 284.4,95.2 294.7,49.5 306.7,49.5 291.3,112.4 277,112.4 262.6,49.5 "/>
<path class="st0" d="M330.4,49.5c19.4,0,20.6,13.2,20.6,32c0,19-1.9,30.8-21.4,30.8h-18V49.5H330.4z M324.1,102.5h3
	c2.8,0,5-0.2,6.7-1c3.8-2,5-7.3,5-19.6c0-9.6-0.6-15.2-1.9-18.5c-1.5-3.4-4.4-4.2-9.4-4.2h-3.4L324.1,102.5L324.1,102.5z"/>
<polygon class="st0" points="375.8,49.5 391.5,93.1 391.5,49.5 402.8,49.5 402.8,112.4 386.8,112.4 370.7,66.4 370.7,112.4 
	359.4,112.4 359.4,49.5 "/>
<path class="st0" d="M410.9,56.5c0-4,3.2-7.2,7.2-7.2c4,0,7.2,3.2,7.2,7.2c0,4-3.2,7.2-7.2,7.2C414.2,63.8,410.9,60.5,410.9,56.5
	 M424.1,56.5c0-3.3-2.7-5.9-5.9-5.9c-3.3,0-6,2.7-6,5.9c0,3.3,2.7,6,6,6C421.5,62.5,424.1,59.8,424.1,56.5 M416.7,57v3.7h-1.3v-8.5
	h2.7c1.6,0,3.2,0.4,3.2,2.3c0,1-0.6,1.7-1.7,2v0c1.2,0.2,1.3,0.7,1.4,1.7c0.1,0.8,0.2,1.7,0.5,2.5h-1.7c-0.1-0.5-0.2-1-0.3-1.5
	c-0.1-0.7-0.1-1.4-0.5-1.8c-0.3-0.3-0.8-0.3-1.2-0.3H416.7z M418.1,55.7c1.2,0,1.5-0.6,1.5-1.2c0-0.6-0.3-1-1.3-1h-1.6v2.2H418.1z"
	/>
</svg>
