<?xml version="1.0" encoding="utf-8"?>
<!-- Generator: Adobe Illustrator 16.0.0, SVG Export Plug-In . SVG Version: 6.00 Build 0)  -->
<!DOCTYPE svg PUBLIC "-//W3C//DTD SVG 1.1//EN" "http://www.w3.org/Graphics/SVG/1.1/DTD/svg11.dtd">
<svg version="1.1" id="Ebene_1" xmlns="http://www.w3.org/2000/svg" xmlns:xlink="http://www.w3.org/1999/xlink" x="0px" y="0px"
	 width="1275.59px" height="283.46px" viewBox="0 0 1275.59 283.46" enable-background="new 0 0 1275.59 283.46"
	 xml:space="preserve">
<g>
	<polygon fill="#194383" points="307.643,134.798 277.474,134.798 277.474,118.937 355.319,118.937 355.319,134.798 
		325.157,134.798 325.157,217.37 307.643,217.37 307.643,134.798 	"/>
	<polygon fill="#194383" points="363.946,118.937 429.135,118.937 429.135,134.798 381.452,134.798 381.452,158.979 
		426.631,158.979 426.631,174.84 381.452,174.84 381.452,201.537 431.648,201.537 431.648,217.37 363.946,217.37 363.946,118.937 	
		"/>
	<path fill="#194383" d="M512.961,142.031c-7.22-7.646-13.888-9.737-20.711-9.737c-20.292,0-33.772,15.576-33.772,35.165
		c0,21.007,13.48,36.566,33.772,36.566c7.926,0,15.57-3.604,22.107-11.96l14.456,10.294c-8.891,12.221-22.229,17.498-36.694,17.498
		c-30.303,0-52-20.548-52-51.271c0-31.565,21.696-52.142,52-52.142c13.338,0,24.743,4.318,34.473,15.576L512.961,142.031
		L512.961,142.031z"/>
	<polygon fill="#194383" points="537.146,118.937 554.678,118.937 554.678,158.152 600.684,158.152 600.684,118.937 
		618.212,118.937 618.212,217.37 600.684,217.37 600.684,174.018 554.678,174.018 554.678,217.37 537.146,217.37 537.146,118.937 	
		"/>
	<polygon fill="#194383" points="636.691,118.937 659.904,118.937 707.601,192.065 707.86,192.065 707.86,118.937 725.388,118.937 
		725.388,217.37 703.133,217.37 654.499,141.89 654.201,141.89 654.201,217.37 636.691,217.37 636.691,118.937 	"/>
	<path fill="#194383" d="M790.861,204.025c20.412,0,33.913-15.56,33.913-36.566c0-19.589-13.501-35.165-33.913-35.165
		c-20.291,0-33.771,15.576-33.771,35.165C757.09,188.466,770.57,204.025,790.861,204.025L790.861,204.025z M790.737,116.445
		c30.698-0.562,52.387,20.002,52.387,51.593c0,30.71-21.688,51.27-52.387,51.819c-30.309,0-52.014-20.548-52.014-51.271
		C738.724,137.022,760.429,116.445,790.737,116.445L790.737,116.445z"/>
	<polygon fill="#194383" points="856.332,118.937 919.867,118.937 919.867,134.798 873.846,134.798 873.846,160.656 
		917.231,160.656 917.231,176.506 873.846,176.506 873.846,217.37 856.332,217.37 856.332,118.937 	"/>
	<path fill="#194383" d="M979.651,204.025c20.415,0,33.913-15.56,33.913-36.566c0-19.589-13.498-35.165-33.913-35.165
		c-20.316,0-33.789,15.576-33.789,35.165C945.862,188.466,959.335,204.025,979.651,204.025L979.651,204.025z M979.507,116.445
		c30.718-0.562,52.39,20.002,52.39,51.593c0,30.71-21.672,51.27-52.39,51.819c-30.313,0-51.993-20.548-51.993-51.271
		C927.514,137.022,949.193,116.445,979.507,116.445L979.507,116.445z"/>
	<path fill="#194383" d="M1076.273,160.656c9.869,0,21.399-0.826,21.399-13.608c0-11.671-10.845-13.076-19.887-13.076h-15.15v26.685
		H1076.273L1076.273,160.656z M1045.121,118.937h34.202c18.903,0,36.69,6.141,36.69,28.235c0,14.158-8.191,24.59-22.8,26.693
		l26.139,43.505h-21.126l-22.8-41.703h-12.791v41.703h-17.515V118.937L1045.121,118.937z"/>
	<g>
		<defs>
			<rect id="SVGID_1_" x="39.646" y="1.321" width="1196.299" height="280.077"/>
		</defs>
		<clipPath id="SVGID_2_">
			<use xlink:href="#SVGID_1_"  overflow="visible"/>
		</clipPath>
		<polygon clip-path="url(#SVGID_2_)" fill="#194383" points="1129.783,118.937 1156.465,118.937 1182.748,187.887 
			1209.297,118.937 1235.709,118.937 1235.709,217.37 1219.042,217.37 1219.042,135.621 1218.752,135.621 1188.865,217.37 
			1176.611,217.37 1146.744,135.621 1146.455,135.621 1146.455,217.37 1129.783,217.37 1129.783,118.937 		"/>
		<path clip-path="url(#SVGID_2_)" fill-rule="evenodd" clip-rule="evenodd" fill="#575756" d="M340.431,4.09
			c7.629,2.463,14.663,9.505,16.076,17.481c1.76,8.431-2.116,15.712-8.802,20.506c-2.819,1.645-5.869,2.959-8.919,4.009v0.591
			c7.86,0.694,15.366,5.616,19.366,12.894c3.29,7.839,1.752,15.262-2.232,22.287c-8.092,10.324-20.647,12.663-33.789,12.084
			L277.325,94l0.058-92.382C298.939,2.081,324.752,0.002,340.431,4.09 M333.637,59.931c-5.513-8.885-20.473-5.819-29.565-6.228
			v23.912c7.505-0.331,16.184,0.715,23.457-0.797c2.934-1.542,5.745-3.628,7.042-6.794C335.505,66.84,335.273,62.724,333.637,59.931
			 M332,25.232c-2.628-5.786-10.48-6.629-19.573-6.463c-4.717-0.017-8.356,0-8.356,0v22.3c9.811-0.645,19.953,2.587,26.507-4.224
			C333.166,33.783,333.389,28.853,332,25.232"/>
	</g>
	<path fill="#575756" d="M399.909,1.908l0.165,42.426c0,0,21.151-28.4,31.301-42.27h29.739l-33.21,41.831l34.981,50.378h-31.956
		c0,0-30.381-48.312-30.854-48.171C399.967,63.237,400.024,94,400.024,94l-27.259,0.025l-0.124-92.118H399.909L399.909,1.908z"/>
	<path fill="#575756" d="M498.457,1.846l-0.033,42.984l32.341-42.827h29.97l-34.053,42.199c10.846,17.027,34.4,50.154,34.4,50.154
		h-31.845c0,0-30.466-47.667-30.813-47.667L498.457,94l-26.596-0.029V1.846H498.457L498.457,1.846z"/>
	<path fill="#575756" d="M47.504,259.172h4.61c5.149,0,8.185-2.281,8.185-5.914c0-3.413-2.602-5.583-7.59-5.583h-5.205V259.172
		L47.504,259.172z M42.084,242.901h9.27c7.482,0,14.691,1.194,14.691,10.253c0,4.604-3.415,7.856-7.807,8.617v0.107
		c1.683,0.648,2.494,1.467,3.687,3.794l7.158,15.076h-6.181L57.1,267.627c-1.68-3.686-3.469-3.686-6.342-3.686h-3.254v16.808h-5.42
		V242.901L42.084,242.901z"/>
	<polygon fill="#575756" points="82.293,242.901 103.494,242.901 103.494,247.675 87.717,247.675 87.717,258.733 102.086,258.733 
		102.086,263.507 87.717,263.507 87.717,275.979 103.494,275.979 103.494,280.749 82.293,280.749 82.293,242.901 	"/>
	<path fill="#575756" d="M147.401,249.625c-2.657-1.731-5.534-2.604-10.41-2.604c-8.732,0-14.533,6.344-14.533,14.804
		c0,8.894,6.399,14.803,14.26,14.803c3.74,0,4.715-0.38,6.075-0.648v-11.497h-7.974v-4.447h13.392v19.685
		c-2.058,0.702-5.637,1.678-11.547,1.678c-11.983,0-19.955-7.695-19.955-19.737c0-11.65,8.462-19.407,20.008-19.407
		c5.53,0,7.972,0.813,11.115,1.896L147.401,249.625L147.401,249.625z"/>
	<polygon fill="#575756" points="164.296,242.901 169.718,242.901 169.718,280.749 164.296,280.749 164.296,242.901 	"/>
	<path fill="#575756" d="M202.131,276.628c8.728,0,12.472-7.265,12.472-14.803c0-7.695-4.12-14.854-12.472-14.804
		c-8.348-0.05-12.471,7.108-12.471,14.804C189.66,269.363,193.402,276.628,202.131,276.628L202.131,276.628z M202.131,242.253
		c11.497,0,18.217,8.348,18.217,19.572c0,11.493-6.666,19.572-18.217,19.572s-18.217-8.079-18.217-19.572
		C183.914,250.601,190.638,242.253,202.131,242.253L202.131,242.253z"/>
	<polygon fill="#575756" points="234.481,242.901 241.854,242.901 258.552,273.376 258.662,273.376 258.662,242.901 
		264.084,242.901 264.084,280.749 257.145,280.749 240.011,249.625 239.903,249.625 239.903,280.749 234.481,280.749 
		234.481,242.901 	"/>
	<path fill="#575756" d="M294.804,248.001l-7.532,18.759h15.072L294.804,248.001L294.804,248.001z M292.149,242.901h5.695
		l15.994,37.848h-5.91l-3.85-9.543h-18.542l-3.852,9.543h-5.691L292.149,242.901L292.149,242.901z"/>
	<polygon fill="#575756" points="325.748,242.901 331.17,242.901 331.17,275.979 347.002,275.979 347.002,280.749 325.748,280.749 
		325.748,242.901 	"/>
	<path fill="#575756" d="M383.742,261.122c1.732,0,3.195,1.405,3.143,3.146c0.052,1.731-1.411,3.252-3.143,3.252
		c-1.736,0-3.199-1.521-3.256-3.252C380.543,262.527,382.006,261.122,383.742,261.122L383.742,261.122z"/>
	<path fill="#575756" d="M429.214,260.85h5.368c3.36,0,7.588-1.678,7.588-6.666c0-4.773-4.988-6.509-8.35-6.509h-4.606V260.85
		L429.214,260.85z M423.792,242.901h9.918c7.757,0,14.208,2.715,14.208,11.336c0,8.402-6.563,11.386-13.392,11.386h-5.312v15.126
		h-5.422V242.901L423.792,242.901z"/>
	<polygon fill="#575756" points="461.023,242.901 482.224,242.901 482.224,247.675 466.449,247.675 466.449,258.733 
		480.814,258.733 480.814,263.507 466.449,263.507 466.449,275.979 482.224,275.979 482.224,280.749 461.023,280.749 
		461.023,242.901 	"/>
	<path fill="#575756" d="M502.486,259.172h4.608c5.151,0,8.188-2.281,8.188-5.914c0-3.413-2.602-5.583-7.592-5.583h-5.205V259.172
		L502.486,259.172z M497.066,242.901h9.268c7.482,0,14.691,1.194,14.691,10.253c0,4.604-3.413,7.856-7.802,8.617v0.107
		c1.68,0.648,2.496,1.467,3.687,3.794l7.156,15.076h-6.183l-5.798-13.122c-1.685-3.686-3.47-3.686-6.344-3.686h-3.255v16.808h-5.42
		V242.901L497.066,242.901z"/>
	<path fill="#575756" d="M554.197,248.597c-2.765-1.083-4.284-1.575-7.106-1.575c-3.038,0-6.61,1.087-6.61,5.046
		c0,7.266,16.264,5.584,16.264,18.052c0,8.08-6.234,11.278-13.826,11.278c-2.657,0-5.261-0.756-7.757-1.57l0.545-5.042
		c1.846,0.756,5.096,1.843,7.862,1.843c3.089,0,7.427-1.735,7.427-6.182c0-8.456-16.267-6.125-16.267-17.891
		c0-6.725,5.315-10.303,12.15-10.303c2.492,0,5.472,0.434,8.073,1.355L554.197,248.597L554.197,248.597z"/>
	<path fill="#575756" d="M588.775,234.339h5.095v5.418h-5.095V234.339L588.775,234.339z M579.884,234.339h5.096v5.418h-5.096
		V234.339L579.884,234.339z M586.88,276.628c8.729,0,12.467-7.265,12.467-14.803c0-7.695-4.118-14.854-12.467-14.804
		c-8.354-0.05-12.472,7.108-12.472,14.804C574.408,269.363,578.144,276.628,586.88,276.628L586.88,276.628z M586.88,242.253
		c11.493,0,18.209,8.348,18.209,19.572c0,11.493-6.666,19.572-18.209,19.572c-11.555,0-18.223-8.079-18.223-19.572
		C568.657,250.601,575.381,242.253,586.88,242.253L586.88,242.253z"/>
	<polygon fill="#575756" points="619.227,242.901 626.6,242.901 643.3,273.376 643.403,273.376 643.403,242.901 648.834,242.901 
		648.834,280.749 641.891,280.749 624.754,249.625 624.649,249.625 624.649,280.749 619.227,280.749 619.227,242.901 	"/>
	<polygon fill="#575756" points="664.859,242.901 670.282,242.901 670.282,275.979 686.114,275.979 686.114,280.749 
		664.859,280.749 664.859,242.901 	"/>
	<polygon fill="#575756" points="698.517,242.901 703.938,242.901 703.938,280.749 698.517,280.749 698.517,242.901 	"/>
	<path fill="#575756" d="M746.216,249.138c-2.38-1.409-5.042-2.116-7.807-2.116c-8.724,0-14.53,6.29-14.53,14.804
		c0,8.894,6.397,14.803,14.258,14.803c2.715,0,6.348-0.702,8.236-1.843l0.335,5.261c-2.872,1.19-6.397,1.352-8.625,1.352
		c-11.985,0-19.948-7.695-19.948-19.737c0-11.65,8.459-19.407,20.002-19.407c2.935,0,5.803,0.434,8.514,1.628L746.216,249.138
		L746.216,249.138z"/>
	<polygon fill="#575756" points="759.97,242.901 765.396,242.901 765.396,258.733 783.51,258.733 783.51,242.901 788.928,242.901 
		788.928,280.749 783.51,280.749 783.51,263.507 765.396,263.507 765.396,280.749 759.97,280.749 759.97,242.901 	"/>
	<path fill="#575756" d="M829.672,261.122c1.731,0,3.198,1.405,3.145,3.146c0.054,1.731-1.413,3.252-3.145,3.252
		s-3.203-1.521-3.252-3.252C826.469,262.527,827.94,261.122,829.672,261.122L829.672,261.122z"/>
	<polygon fill="#575756" points="870.32,242.901 875.747,242.901 875.747,259.548 891.897,242.901 899.105,242.901 881.326,260.796 
		900.519,280.749 892.604,280.749 875.747,262.205 875.747,280.749 870.32,280.749 870.32,242.901 	"/>
	<path fill="#575756" d="M928.968,276.628c8.725,0,12.473-7.265,12.473-14.803c0-7.695-4.124-14.854-12.473-14.804
		c-8.353-0.05-12.472,7.108-12.472,14.804C916.496,269.363,920.235,276.628,928.968,276.628L928.968,276.628z M928.968,242.253
		c11.493,0,18.222,8.348,18.222,19.572c0,11.493-6.675,19.572-18.222,19.572c-11.555,0-18.217-8.079-18.217-19.572
		C910.751,250.601,917.475,242.253,928.968,242.253L928.968,242.253z"/>
	<polygon fill="#575756" points="961.426,242.901 970.369,242.901 982.246,274.352 993.905,242.901 1002.848,242.901 
		1002.848,280.749 997.426,280.749 997.426,248.001 997.314,248.001 984.788,280.749 979.474,280.749 966.955,248.001 
		966.848,248.001 966.848,280.749 961.426,280.749 961.426,242.901 	"/>
	<path fill="#575756" d="M1024.127,260.85h5.373c3.363,0,7.592-1.678,7.592-6.666c0-4.773-4.988-6.509-8.353-6.509h-4.612V260.85
		L1024.127,260.85z M1018.714,242.901h9.918c7.757,0,14.204,2.715,14.204,11.336c0,8.402-6.559,11.386-13.39,11.386h-5.319v15.126
		h-5.413V242.901L1018.714,242.901z"/>
	<polygon fill="#575756" points="1055.945,242.901 1077.146,242.901 1077.146,247.675 1061.363,247.675 1061.363,258.733 
		1075.736,258.733 1075.736,263.507 1061.363,263.507 1061.363,275.979 1077.146,275.979 1077.146,280.749 1055.945,280.749 
		1055.945,242.901 	"/>
	<polygon fill="#575756" points="1099.843,247.675 1088.081,247.675 1088.081,242.901 1117.03,242.901 1117.03,247.675 
		1105.269,247.675 1105.269,280.749 1099.843,280.749 1099.843,247.675 	"/>
	<polygon fill="#575756" points="1129.213,242.901 1150.418,242.901 1150.418,247.675 1134.644,247.675 1134.644,258.733 
		1149.009,258.733 1149.009,263.507 1134.644,263.507 1134.644,275.979 1150.418,275.979 1150.418,280.749 1129.213,280.749 
		1129.213,242.901 	"/>
	<polygon fill="#575756" points="1165.527,242.901 1172.908,242.901 1189.604,273.376 1189.716,273.376 1189.716,242.901 
		1195.13,242.901 1195.13,280.749 1188.195,280.749 1171.065,249.625 1170.958,249.625 1170.958,280.749 1165.527,280.749 
		1165.527,242.901 	"/>
	<polygon fill="#575756" points="1218.752,247.675 1206.99,247.675 1206.99,242.901 1235.944,242.901 1235.944,247.675 
		1224.179,247.675 1224.179,280.749 1218.752,280.749 1218.752,247.675 	"/>
	<g>
		<defs>
			<rect id="SVGID_3_" x="39.646" y="1.321" width="1196.299" height="280.077"/>
		</defs>
		<clipPath id="SVGID_4_">
			<use xlink:href="#SVGID_3_"  overflow="visible"/>
		</clipPath>
		
			<polygon clip-path="url(#SVGID_4_)" fill="none" stroke="#575756" stroke-width="0.9991" stroke-linecap="round" stroke-linejoin="round" stroke-miterlimit="10" points="
			102.504,139.654 41.762,139.654 41.762,78.904 102.504,78.904 102.504,139.654 		"/>
	</g>
	<polygon fill="#194383" points="178.331,139.654 117.578,139.654 117.578,78.904 178.331,78.904 178.331,139.654 	"/>
	
		<polygon fill="none" stroke="#194383" stroke-width="0.9991" stroke-linecap="round" stroke-linejoin="round" stroke-miterlimit="10" points="
		178.331,139.654 117.578,139.654 117.578,78.904 178.331,78.904 178.331,139.654 	"/>
	<polygon fill="#194383" points="254.153,215.117 193.406,215.117 193.406,154.367 254.153,154.367 254.153,215.117 	"/>
	
		<polygon fill="none" stroke="#194383" stroke-width="0.9991" stroke-linecap="round" stroke-linejoin="round" stroke-miterlimit="10" points="
		254.153,215.117 193.406,215.117 193.406,154.367 254.153,154.367 254.153,215.117 	"/>
	<polygon fill="#194383" points="254.153,139.654 193.406,139.654 193.406,78.904 254.153,78.904 254.153,139.654 	"/>
	
		<polygon fill="none" stroke="#194383" stroke-width="0.9991" stroke-linecap="round" stroke-linejoin="round" stroke-miterlimit="10" points="
		254.153,139.654 193.406,139.654 193.406,78.904 254.153,78.904 254.153,139.654 	"/>
	<polygon fill="#194383" points="254.153,64.181 193.406,64.181 193.406,3.435 254.153,3.435 254.153,64.181 	"/>
	<g>
		<defs>
			<rect id="SVGID_5_" x="39.646" y="1.321" width="1196.299" height="280.077"/>
		</defs>
		<clipPath id="SVGID_6_">
			<use xlink:href="#SVGID_5_"  overflow="visible"/>
		</clipPath>
		
			<polygon clip-path="url(#SVGID_6_)" fill="none" stroke="#194383" stroke-width="0.9991" stroke-linecap="round" stroke-linejoin="round" stroke-miterlimit="10" points="
			254.153,64.181 193.406,64.181 193.406,3.435 254.153,3.435 254.153,64.181 		"/>
		
			<path clip-path="url(#SVGID_6_)" fill="none" stroke="#575756" stroke-width="0.9991" stroke-linecap="round" stroke-linejoin="round" stroke-miterlimit="10" d="
			M102.504,215.117H41.762v-60.75h60.742V215.117L102.504,215.117z M178.331,215.117h-60.752v-60.75h60.752V215.117L178.331,215.117
			z"/>
	</g>
</g>
</svg>
