<?xml version="1.0" encoding="utf-8"?>
<!-- Generator: Adobe Illustrator 26.0.3, SVG Export Plug-In . SVG Version: 6.00 Build 0)  -->
<svg version="1.1" id="Ebene_1" xmlns="http://www.w3.org/2000/svg" xmlns:xlink="http://www.w3.org/1999/xlink" x="0px" y="0px"
	 viewBox="0 0 500 500" style="enable-background:new 0 0 500 500;" xml:space="preserve">
<style type="text/css">
	.st0{fill:#007BC2;}
	.st1{fill:#FFFFFF;}
	.st2{fill:#FFD500;}
	.st3{clip-path:url(#SVGID_00000115500321974193064110000012031572470069451431_);fill:#FFFFFF;}
</style>
<g>
	<rect class="st0" width="500" height="500"/>
	<g>
		<path class="st1" d="M63.7,397.6H71c3.2,0,5.5,1.9,5.5,4.7c0,3.7-2.4,5.1-6,5.1l-6.9,0V397.6z M63.7,427.4v-10.5h8.8
			c3,0.2,4.9,2.8,4.9,5.5c0,3.1-2.5,5.1-5.9,5.1H63.7z M73.1,436.8c0.4,0,18.5,1,18.5-13.2c0-6.9-5.3-11-11.7-11.9v-0.2
			c5.5-1,10.5-4.6,10.5-10.7c0-8.6-7.7-12.7-16.9-12.7H50.2v48.7H73.1z"/>
		<polygon class="st1" points="113.9,409.5 113.7,409.5 113.7,388.1 100.2,388.1 100.2,436.8 113.7,436.8 113.7,410.9 113.9,410.9 
			129.9,436.8 146.6,436.8 128.5,409.5 145.3,388.1 129.3,388.1 		"/>
		<polygon class="st1" points="167,409.5 166.9,409.5 166.9,388.1 153.4,388.1 153.4,436.8 166.9,436.8 166.9,410.9 167,410.9 
			183.1,436.8 199.8,436.8 181.6,409.5 198.4,388.1 182.5,388.1 		"/>
		<path class="st1" d="M242.7,410v-12.4h6.9c5.3,0.2,7.6,2.6,7.6,6.2c0,3.6-2.2,6-7.6,6.2H242.7z M242.7,436.8v-17.4h8.9
			c11.9,0,19.8-3.8,19.8-15.7c0-11.8-7.8-15.6-19.8-15.6h-22.4v48.7H242.7z"/>
		<polygon class="st1" points="291.9,418.3 311.4,418.3 311.4,408.9 291.9,408.9 291.9,397.6 312.9,397.6 312.9,388.1 278.4,388.1 
			278.4,436.8 291.9,436.8 		"/>
		<path class="st1" d="M332.6,417.9l6.6-20.2h0.2l6.2,20.2H332.6z M326,436.8l3.2-9.5h19.8l3.2,9.5h15.3l-19.2-48.7h-16.5
			l-19.2,48.7H326z"/>
		<polygon class="st1" points="387,418.3 406.5,418.3 406.5,408.9 387,408.9 387,397.6 408,397.6 408,388.1 373.5,388.1 
			373.5,436.8 387,436.8 		"/>
		<polygon class="st1" points="428.8,418.3 448.3,418.3 448.3,408.9 428.8,408.9 428.8,397.6 449.8,397.6 449.8,388.1 415.3,388.1 
			415.3,436.8 428.8,436.8 		"/>
	</g>
	<g>
		<polygon class="st2" points="207.2,151.1 293.2,151.1 292.9,150.8 205.3,63.2 119.3,63.2 		"/>
		<rect x="206.9" y="238.4" class="st2" width="86.5" height="86.6"/>
		<g>
			<defs>
				<rect id="SVGID_1_" x="119.3" y="63.2" width="261.4" height="261.7"/>
			</defs>
			<clipPath id="SVGID_00000132779438650993083730000006510454131805467053_">
				<use xlink:href="#SVGID_1_"  style="overflow:visible;"/>
			</clipPath>
			<path style="clip-path:url(#SVGID_00000132779438650993083730000006510454131805467053_);fill:#FFFFFF;" d="M273.8,178.2
				c0-3.7,3.1-6.8,6.8-6.8c3.7,0,6.8,3,6.8,6.8c0,3.8-3,6.8-6.8,6.8C276.9,185,273.8,182,273.8,178.2 M280.6,186.5
				c4.5,0,8.2-3.7,8.2-8.2c0-4.5-3.7-8.2-8.2-8.2c-4.5,0-8.2,3.7-8.2,8.2C272.4,182.8,276.1,186.5,280.6,186.5"/>
			<path style="clip-path:url(#SVGID_00000132779438650993083730000006510454131805467053_);fill:#FFFFFF;" d="M278.4,177.7V175h2.4
				c1,0,2,0.2,2,1.4c0,1.6-1.7,1.4-2.9,1.4H278.4z M278.4,178.7h1.8l2.4,3.8h1.2l-2.6-3.8c1.5-0.1,2.7-0.8,2.7-2.4
				c0-1.5-0.8-2.4-3-2.4h-3.7v8.6h1.1V178.7z"/>
			<path style="clip-path:url(#SVGID_00000132779438650993083730000006510454131805467053_);fill:#FFFFFF;" d="M237,170l0,22.9
				l17.2-22.8h16l-18.1,22.5c5.8,9.1,18.4,26.7,18.4,26.7h-17c0,0-16.3-25.4-16.4-25.4l0,25.2h-14.2V170H237z"/>
			<path style="clip-path:url(#SVGID_00000132779438650993083730000006510454131805467053_);fill:#FFFFFF;" d="M184.4,170.1
				l0.1,22.6c0,0,11.3-15.2,16.7-22.6h15.9l-17.7,22.3l18.7,26.8H201c0,0-16.2-25.7-16.5-25.7c-0.1,9.1,0,25.5,0,25.5l-14.5,0
				l-0.1-49.1H184.4z"/>
			<path style="clip-path:url(#SVGID_00000132779438650993083730000006510454131805467053_);fill:#FFFFFF;" d="M162.2,200.8
				c-2.1-3.8-6.1-6.5-10.3-6.8v-0.3c1.6-0.5,3.2-1.3,4.7-2.1c3.5-2.5,5.6-6.4,4.6-10.9c-0.7-4.2-4.5-8-8.5-9.3
				c-8.3-2.2-22-1-33.4-1.3l0,49l23.8,0c7,0.3,13.6-1,17.9-6.4C163.1,208.9,163.9,205,162.2,200.8 M133.5,178.8h4.4
				c4.8-0.1,9,0.4,10.4,3.4c0.7,1.9,0.6,4.6-0.8,6.2c-3.5,3.6-8.9,1.9-14,2.2V178.8z M149.7,206.4c-0.7,1.7-2.2,2.8-3.7,3.6
				c-3.8,0.8-8.5,0.2-12.4,0.4v-12.7c4.8,0.2,12.8-1.4,15.7,3.3C150,202.6,150.2,204.7,149.7,206.4"/>
		</g>
		<polygon class="st2" points="293.2,151.1 293.2,238.4 380.7,151 380.7,150.2 380.6,63.4 		"/>
	</g>
</g>
</svg>
