<?xml version="1.0" encoding="utf-8"?>
<!-- Generator: Adobe Illustrator 26.0.1, SVG Export Plug-In . SVG Version: 6.00 Build 0)  -->
<svg version="1.1" id="Ebene_1" xmlns="http://www.w3.org/2000/svg" xmlns:xlink="http://www.w3.org/1999/xlink" x="0px" y="0px"
	 viewBox="0 0 793.7 283.5" style="enable-background:new 0 0 793.7 283.5;" xml:space="preserve">
<style type="text/css">
	.st0{fill:#9F9D9C;}
	.st1{fill:#030304;}
	.st2{fill:none;stroke:#9F9D9C;stroke-width:0.4;stroke-miterlimit:3.864;}
	.st3{fill:#FFD803;}
</style>
<g>
	<g>
		<path class="st0" d="M792,154.6l-2.6-1l-1.3-0.5l-0.3-0.1h-0.1l0,0l0,0l0,0c0,0-1.1-0.1-1.7-0.1l0,0c-0.6,0-0.4,0,0,0l0,0h-0.2
			l-0.7,0.1l0.7-0.1l0,0l0,0l-0.7,0.1l-6,1.6l1.6-0.2l-1.6,0.2l1.6-0.2c-2.4,0.5-5.3,1.1-8.6,1.7c-0.3,0-0.5,0.1-0.8,0.1
			c-1.7,0.3-3.4,0.7-5.2,1c-0.1,0-0.2,0-0.3,0.1l-2.9,0.6h-0.2L762,158l-0.6-0.2h-0.1l-0.2-0.1l-1.8-0.6c-2.7-0.9-5.4-1.8-7.8-2.6
			c2.1,0.6,4.3,1.2,6.6,1.9l3.6,1.1l0.2,0.1l1.4-0.3c5.1-1.2,7.8-2.4,13.4-3.6l5.6-1.8l2.1-0.5l1.1-0.2h0.1h0.1l0,0
			c-0.5,0,2.5,0.1,2.6,0.2l0,0l0.3,0.1l0.5,0.2l4.1,1.3"/>
		<path class="st0" d="M787.8,152.9"/>
		<path class="st0" d="M787.8,152.9"/>
		<path class="st0" d="M787.8,152.9c-0.1,0-0.3,0-0.9-0.1C787.5,152.9,787.8,152.9,787.8,152.9"/>
		<path class="st0" d="M786,152.8L786,152.8C786.1,152.8,786.1,152.8,786,152.8C786.1,152.8,786.1,152.8,786,152.8L786,152.8
			L786,152.8L786,152.8L786,152.8L786,152.8L786,152.8L786,152.8z"/>
		<path class="st0" d="M763,158.3L763,158.3L763,158.3C762.9,158.3,763,158.3,763,158.3"/>
		<path class="st0" d="M761.1,158.2L761.1,158.2C760.9,158.2,760.7,158.2,761.1,158.2"/>
		<path class="st0" d="M578.3,64.6l0.6-1.5c8.1-21.8,15.5-39.3,22.9-59l0.2-0.5l-1.2,2.5c-4.1,10.2-8.1,20.4-12,29.8
			c-4.7,11.5-9.3,23.6-14,36.2l-2.8,7.7L578.3,64.6z"/>
		<path class="st0" d="M568,93.2c-0.9,0.2-2,0.5-3.1,0.7c0-0.1,0-0.1,0-0.2c0.8-0.2,1.8-0.4,3.1-0.8C568.1,93.1,568,93.2,568,93.2"
			/>
		<path class="st0" d="M578.4,90.7c1.5-0.4,3.1-0.8-3.9,1c0-0.1,0-0.1,0.1-0.2c1.3-0.3,2.6-0.6,3.7-0.9l0,0L578.4,90.7L578.4,90.7
			L578.4,90.7L578.4,90.7L578.4,90.7z"/>
		<path class="st0" d="M577.1,91"/>
		<path class="st0" d="M565.8,90.1l-0.3,0.9C565.6,90.7,565.6,90.3,565.8,90.1C565.7,90,565.8,90,565.8,90.1"/>
		<path class="st0" d="M578.6,90.5c5.2-1.3,3.4-0.8-0.4,0.1l-0.3-0.2l-0.5-0.5l-1.8-1.6c0.1-0.1,0.1-0.2,0.1-0.4
			c0.5,0.5,1.1,1,1.6,1.5l0.9,0.9L578.6,90.5L578.6,90.5L578.6,90.5z"/>
		<path class="st0" d="M567,86.7l-0.6,1.6l-0.1-0.1l0,0L567,86.7L567,86.7z"/>
	</g>
	<polygon class="st0" points="566.7,87.9 567.1,86.8 567,86.7 	"/>
	<g>
		<path class="st0" d="M568.8,82.4l-1.3,3.5h-0.2C567.7,84.7,568.2,83.5,568.8,82.4L568.8,82.4z"/>
		<path class="st0" d="M571.4,83.7c0,0.1-0.1,0.3-0.1,0.4l-0.2-0.2c-0.7-0.6-1.4-1.3-2.1-1.9l-0.2,0.5l-0.1-0.1
			c0.1-0.2,0.1-0.3,0.2-0.5c-2.1-2-4.2-3.9-6.2-5.8l0.3-0.3c2,1.9,4,3.8,6.1,5.7c0.5-1.3,1-2.6,1.5-3.8l-1.5,3.9
			C569.8,82.2,570.6,82.9,571.4,83.7"/>
	</g>
	<polygon class="st0" points="561.8,75.8 560.6,74.8 570.4,83.9 	"/>
	<g>
		<path class="st0" d="M498.2,97.2l-0.1,2.4v-0.8v-1.2L498.2,97.2L498.2,97.2"/>
		<path class="st0" d="M498.2,97.2L498.2,97.2V97v-0.2l0,0l0,0l0,0V97.2z"/>
		<path class="st0" d="M498.2,96.9L498.2,96.9L498.2,96.9L498.2,96.9"/>
		<path class="st0" d="M498.2,96.9L498.2,96.9L498.2,96.9"/>
		<path class="st0" d="M498.3,96.8C498.2,96.8,498.2,96.9,498.3,96.8L498.3,96.8L498.3,96.8c1.4-2.1,4-5.8,4.5-6.4l0,0
			C501.3,92.5,498.7,96.2,498.3,96.8L498.3,96.8z"/>
		<path class="st0" d="M502.7,90.4L502.7,90.4L502.7,90.4L502.7,90.4l0.3-0.2l2.1-0.9l-1.2,0.5l-0.6,0.3l-0.3,0.1L502.7,90.4
			L502.7,90.4L502.7,90.4L502.7,90.4z"/>
	</g>
	<path class="st0" d="M521,82.3l1.4-0.7L521,82.3z M521,82.3l1.4-0.7L521,82.3z M522.4,81.6l-1.4,0.7l0,0l9.4-3.8L522.4,81.6z"/>
	<g>
		<path class="st0" d="M498.2,99.6l0.1-2.4l0,0l0,0v-0.4l0,0c0.5-0.7,3-4.4,4.5-6.4l0,0l0,0l0,0l0,0h0.1l0.2-0.1l0.3-0.1l0.6-0.3
			l1.2-0.5l-2.1,0.9l-0.3,0.1h-0.1l0,0v-0.1l0,0c1-1.5,1.4-2,0,0h0.1l0.2-0.1l0.4-0.2l0.9-0.4l3.6-1.6c2.4-1.1,4.9-2.2,7.3-3.4
			c5-2.3,10.2-4.6,15.5-7l1.5-0.4l-14.4,6.2l4.4-1.7l-1.4,0.7l-2.9,1.3l2.9-1.2l-2.9,1.2l2.9-1.2l-14.1,6.3l5.7-2.7l-5.7,2.7
			l5.7-2.7l-7.1,3.3l1.5-0.6l-1.5,0.6l1.5-0.6l-3.2,1.5l-0.4,0.2l-0.2,0.1h-0.1l0,0c-2.5,3.6-3.8,5.4-4.3,6.2l0,0l0,0v0.1v0.9v1.8"
			/>
		<path class="st0" d="M498.5,96.9c0.2-0.3,0.4-0.5,0.4-0.6C498.9,96.3,498.8,96.5,498.5,96.9"/>
	</g>
	<path class="st0" d="M503.8,90l1.4-0.6L503.8,90z"/>
	<g>
		<path class="st0" d="M498.2,98.8"/>
		<path class="st0" d="M498.2,97.6v1.2v-1.5c-0.2,0.2-0.1,0.2,0,0v-0.4c0,0,0,0,0.1-0.1l0,0V97v0.2L498.2,97.6z"/>
		<path class="st0" d="M497.2,98.2C497.2,98.3,497.2,98.3,497.2,98.2C497.2,98.3,497.2,98.3,497.2,98.2"/>
		<path class="st0" d="M497.2,98.3"/>
		<path class="st0" d="M497.2,98.3L497.2,98.3L497.2,98.3c0,0,0.3-0.4,0.8-1.2c0.1-0.1,0.1-0.1,0.2-0.2l0,0
			C497.7,97.7,497.3,98.2,497.2,98.3"/>
		<path class="st0" d="M498.2,96.8c-0.6,0.8-0.9,1.3-1,1.4c0.4-0.6,6.2-9,5.5-7.8l0,0h0.1l0,0l0,0c0,0,0,0,0,0.1l0,0
			C502.3,91.1,499.7,94.8,498.2,96.8C498.2,96.9,498.2,96.9,498.2,96.8L498.2,96.8L498.2,96.8L498.2,96.8z"/>
		<path class="st0" d="M502.7,90.4"/>
		<path class="st0" d="M498.2,96.9L498.2,96.9L498.2,96.9"/>
		<path class="st0" d="M498.2,96.9L498.2,96.9L498.2,96.9L498.2,96.9L498.2,96.9L498.2,96.9z"/>
		<path class="st0" d="M498.3,96.8C498.2,96.8,498.2,96.9,498.3,96.8C498.2,96.9,498.2,96.8,498.3,96.8L498.3,96.8z"/>
		<path class="st0" d="M502.7,90.4L502.7,90.4C502.7,90.4,502.8,90.4,502.7,90.4C502.8,90.4,502.8,90.3,502.7,90.4L502.7,90.4
			C502.8,90.3,502.8,90.4,502.7,90.4"/>
		<path class="st0" d="M502.8,90.3L502.8,90.3L502.8,90.3z"/>
	</g>
	<polygon class="st0" points="498.2,97.6 498.2,98.8 498.2,97.6 498.2,97 	"/>
	<path class="st0" d="M497.2,98.3L497.2,98.3L497.2,98.3z"/>
	<g>
		<path class="st0" d="M498.2,96.8c-0.6,0.8-1,1.4-1,1.4S497.6,97.7,498.2,96.8L498.2,96.8z"/>
		<path class="st0" d="M498.1,97.1c-0.5,0.8-0.8,1.2-0.8,1.2C497.3,98.2,497.5,97.9,498.1,97.1"/>
		<path class="st0" d="M498.2,96.8c-0.1,0.1-0.1,0.2-0.2,0.2C498.1,97,498.2,96.9,498.2,96.8L498.2,96.8L498.2,96.8z"/>
	</g>
	<polygon class="st0" points="498.3,96.9 498.3,96.9 498.3,97 498.3,96.9 498.3,96.9 498.3,96.8 	"/>
	<g>
		<path class="st0" d="M502.7,90.4c-0.5,0.7-3,4.3-4.5,6.4l0,0C499.7,94.8,502.3,91.1,502.7,90.4L502.7,90.4L502.7,90.4
			C502.7,90.3,502.8,90.3,502.7,90.4C502.8,90.3,502.8,90.4,502.7,90.4L502.7,90.4L502.7,90.4l0.3-0.2l2.1-0.9l-2.1,0.9L502.7,90.4
			L502.7,90.4L502.7,90.4z"/>
		<path class="st0" d="M502.7,90.4L502.7,90.4C502.7,90.4,502.8,90.4,502.7,90.4C502.8,90.4,502.7,90.4,502.7,90.4"/>
		<path class="st0" d="M502.8,90.3C502.8,90.3,502.8,90.4,502.8,90.3C502.8,90.4,502.8,90.3,502.8,90.3"/>
	</g>
	<path class="st0" d="M502.8,90.3L502.8,90.3L502.8,90.3z"/>
	<path class="st0" d="M521,82.3l1.4-0.7L521,82.3z"/>
	<polygon class="st0" points="518.1,83.6 521,82.3 521,82.3 	"/>
	<path class="st0" d="M518.1,83.6l2.9-1.2L518.1,83.6z"/>
	<path class="st0" d="M521,82.3l1.4-0.7L521,82.3z"/>
	<path class="st0" d="M503.8,90l1.4-0.6L503.8,90z"/>
	<polygon class="st0" points="505.3,89.4 506.7,88.8 512.4,86.1 	"/>
	<path class="st0" d="M505.3,89.4l1.5-0.6L505.3,89.4z"/>
	<path class="st0" d="M506.7,88.8l5.7-2.7L506.7,88.8z"/>
	<polygon class="st0" points="549.8,81.3 543.8,84 545.2,83.5 550.5,81 550.4,81 	"/>
	<path class="st0" d="M551.4,81.1l1.4,1.2L551.4,81.1z"/>
	<polygon class="st0" points="551.3,81 551.4,81.1 551.4,81 	"/>
	<polygon class="st0" points="550.6,80.9 550.6,81 550.7,80.9 550.7,80.9 	"/>
	<g>
		<path class="st0" d="M551.2,80.9L551.2,80.9L551.2,80.9H551h-0.1H551.2l-0.5-0.5l-0.1-0.1l0,0l0.5,0.4l0.3-0.1l0.2-0.1
			c0,0,0,0,0.1,0L551.2,80.9L551.2,80.9z"/>
		<path class="st0" d="M551.9,80.4L551.9,80.4l-0.2,0.1L551.9,80.4C551.8,80.4,551.8,80.4,551.9,80.4"/>
		<path class="st0" d="M552.2,80.2L552.2,80.2c-0.1,0-0.1,0-0.2,0l0,0H552.2C552.3,80.2,552.3,80.2,552.2,80.2L552.2,80.2
			L552.2,80.2z"/>
		<path class="st0" d="M552.3,80.1c0.4,0.1,0.6,0.1,0.6,0.1S552.6,80.2,552.3,80.1L552.3,80.1z"/>
		<path class="st0" d="M550.3,80.1L550.3,80.1C550.4,80.2,550.4,80.2,550.3,80.1L550.3,80.1C550.2,80.1,550.2,80.1,550.3,80.1
			L550.3,80.1z"/>
	</g>
	<path class="st0" d="M552.3,80.2L552.3,80.2L552.3,80.2z"/>
	<g>
		<path class="st0" d="M552.3,80.2L552.3,80.2c-1.2-0.2-1.9-0.3-2.2-0.4l0,0l0,0C550.5,79.8,551.6,80,552.3,80.2L552.3,80.2z"/>
		<path class="st0" d="M552.3,80.1L552.3,80.1L552.3,80.1L552.3,80.1L552.3,80.1z"/>
		<path class="st0" d="M550,79.8L550,79.8C550,79.9,550,79.9,550,79.8L550,79.8L550,79.8L550,79.8z"/>
		<path class="st0" d="M549.7,79.7L549.7,79.7C549.5,79.7,549.6,79.7,549.7,79.7"/>
	</g>
	<polygon class="st0" points="551.1,81.2 552.1,81.9 556.4,85.4 551.3,81.1 	"/>
	<polygon class="st0" points="547.4,82.6 550.3,81.5 550.8,81.3 550.6,81.1 	"/>
	<g>
		<path class="st0" d="M551,81.2l-0.2,0.1l-0.2-0.2l0.2-0.1l-1-0.8l-0.1-0.1c0.1,0,0.2,0,0.3,0.1l0.1,0.1l0.7,0.6l0.1,0.1l0.9-0.4
			c0.1,0,0.2,0,0.3,0.1l-0.6,0.3L551,81.2L551,81.2L551,81.2L551,81.2z"/>
		<path class="st0" d="M552.3,80.5L552.3,80.5c-0.1,0-0.2,0-0.3-0.1l0.1-0.1C552.2,80.4,552.3,80.5,552.3,80.5
			C552.4,80.4,552.4,80.4,552.3,80.5C552.9,80.5,552.6,80.4,552.3,80.5L552.3,80.5L552.3,80.5L552.3,80.5
			C552.2,80.5,552.1,80.5,552.3,80.5"/>
		<path class="st0" d="M552.2,80.4L552.2,80.4c-0.5,0-1.2-0.2-2.3-0.3l0,0l-0.1-0.1l0,0c1.6,0.3,2.3,0.4,2.7,0.5
			c-0.2,0-0.6-0.1-0.1,0l0,0L552.2,80.4L552.2,80.4z"/>
		<path class="st0" d="M552.4,80.3c0.1,0,0.2,0,0.2,0S552.5,80.3,552.4,80.3"/>
		<path class="st0" d="M549.9,80L549.9,80c0,0.1-0.1,0.1-0.2,0l-0.1-0.1l0,0l0,0l0,0C549.7,80,549.8,80,549.9,80"/>
		<path class="st0" d="M569.8,100.1c-0.7,0.2-1.2,0.3-1.2,0.3S568.9,100.3,569.8,100.1"/>
		<path class="st0" d="M574.1,99.1c-3.8,0.9-4.8,1.2-4.8,1.2s0.3-0.1,0.6-0.1l0,0l0,0h-0.1C570.9,99.8,572.7,99.3,574.1,99.1
			C574.1,99,574.1,99.1,574.1,99.1"/>
		<path class="st0" d="M570,100c-0.1,0-0.1,0-0.2,0.1l0,0l-0.7-0.6l-1.4-1.2l-2.8-2.4c-0.1-0.1-0.2-0.1-0.2-0.2s0-0.1,0-0.2l0.3,0.2
			l-0.3-0.2l0.3,0.2l-0.3-0.2l0,0l2.5,2.2l1.4,1.2l0.7,0.6l0.3,0.3l0.2,0.2H570L570,100L570,100L570,100z"/>
		<path class="st0" d="M578.6,91.5c-0.7,2-1.4,4.2-2.1,6.4h-0.1L578.6,91.5z"/>
		<path class="st0" d="M562.2,93.2c0,0.1,0,0.1,0,0.2c-2.9-2.6-5.9-5.3-9-8.1L562.2,93.2z"/>
	</g>
	<path class="st0" d="M564.7,95.4l0.3,0.2L564.7,95.4z"/>
	<polygon class="st0" points="562.2,93.2 562.2,93.2 553.2,85.3 	"/>
	<path class="st0" d="M565,95.6l-0.3-0.2L565,95.6z"/>
	<polygon class="st0" points="562.2,93.2 562.2,93.2 553.2,85.3 	"/>
	<g>
		<path class="st0" d="M550.9,81.3l2.2,1.9L550.9,81.3l-0.6,0.3L550.9,81.3l-0.9-0.5l-0.6-0.5l0,0l0,0c0.1,0,0.1,0,0.2,0l0.1,0.1
			l0.7,0.6L550.9,81.3l1-0.5l0.4-0.2c0.1,0,0.1,0,0.2,0l0,0l0,0l0,0h-0.1l-0.2,0.1l-0.3,0.1L550.9,81.3z"/>
		<path class="st0" d="M552.3,80.6L552.3,80.6c-1.4-0.2-2.2-0.4-2.6-0.4c0,0,0,0-0.1,0c-0.2,0-0.3,0-0.3-0.1c0.1,0,0.2,0,0.3,0.1
			l0,0l0,0l0,0l0,0c1.7,0.3,2.6,0.4,2.9,0.5L552.3,80.6L552.3,80.6z"/>
		<path class="st0" d="M552.5,80.6c-0.7-0.1,0.3,0,0.3,0S552.7,80.6,552.5,80.6"/>
	</g>
	<path class="st0" d="M549.4,80.1L549.4,80.1L549.4,80.1z"/>
	<g>
		<path class="st0" d="M549.5,80"/>
	</g>
	<polygon class="st0" points="524.5,90.8 524.5,90.9 528.9,89 533.1,86.9 	"/>
	<polygon class="st0" points="524.6,90.9 524.6,90.9 528.9,89 	"/>
	<g>
		<path class="st0" d="M526.9,90.4l8.5-4.1l-10.7,4.8c0.1,0.1,0.1,0.2,0.1,0.2L526.9,90.4z"/>
		<path class="st0" d="M526.9,90.4l-2.1,1l0,0L526.9,90.4z"/>
		<path class="st0" d="M524.5,90.8L524.5,90.8c-0.2-0.1-0.2-0.2-0.3-0.3l17-7.2l6.4-2.6l3.2-1.3l0.4-0.2c-0.2-0.1-0.6-0.3-0.2-0.3
			l0.3,0.2l0.4-0.1c0.1,0,0.1,0,0.2,0l-0.5,0.2l1.2,1.1l-1.2-1.1l0,0l-0.3,0.1l-3.1,1.4l-6.4,2.8c-4.3,1.9-8.6,3.7-12.6,5.4l4.2-2.1
			L524.5,90.8z"/>
		<path class="st0" d="M551.6,79L551.6,79c-0.3-0.1-0.5-0.1-0.7-0.1l0,0c0.4,0-1.1-0.3,0.9,0L551.6,79z"/>
	</g>
	<path class="st0" d="M524.5,90.8l8.6-3.9L524.5,90.8z"/>
	<g>
		<path class="st0" d="M506.4,97.6l-0.6,10.9l0.1-8.8v-2l0.1-0.1v3l0.1-1.3l0.1-1.5c-0.1,0,0-0.1,0-0.2H506.4l2.8-1.2
			c1.8-0.8,3.5-1.5,5.1-2.2c2.4-1.1,4.7-2.1,7-3.1c0.1,0.1,0.2,0.2,0.3,0.3c-2,0.9-4.1,1.8-6,2.7C512.7,95.1,508,97.3,506.4,97.6"/>
		<path class="st0" d="M506,97.8L506,97.8C505.9,97.8,506,97.7,506,97.8L506,97.8z"/>
		<path class="st0" d="M506.2,97.7L506.2,97.7L506.2,97.7c-0.2,0-0.1,0,0.1-0.1C506.3,97.5,506.3,97.6,506.2,97.7"/>
		<path class="st0" d="M506.3,97.4c0-0.1,0-0.1-0.3,0.2v-0.2c-0.4,0,1-0.5,1.5-0.8l4-1.9c3.1-1.4,6.2-2.8,9.4-4.3c0,0,0,0,0.1,0.1
			c-1.8,0.8-3.7,1.7-5.6,2.6c-2.3,1.1-4.6,2.1-6.8,3.1C508,96.7,506.8,97.2,506.3,97.4"/>
		<path class="st0" d="M546.3,80c-5.8,2.9-14.1,6.6-22.4,10.2c-0.1-0.1-0.2-0.2-0.3-0.3c0.1,0,0.2-0.1,0.3-0.1
			c6.3-2.8,12.5-5.7,20-8.8L546.3,80z"/>
		<path class="st0" d="M528.1,87.3c-1.5,0.7-3.2,1.5-4.9,2.3h-0.1C524.8,88.8,526.5,88.1,528.1,87.3"/>
	</g>
	<polygon class="st0" points="547.3,78.4 540.9,81.3 547.3,78.4 540.9,81.3 532.5,85.5 	"/>
	<polygon class="st0" points="567.7,90.3 568.3,90.8 565.9,88.8 	"/>
	<polygon class="st0" points="565.9,88.8 567.7,90.3 555.2,79.6 558.2,82.2 555.2,79.6 558.2,82.2 	"/>
	<path class="st0" d="M565.9,88.8l-7.8-6.6L565.9,88.8z"/>
	<path class="st0" d="M565.9,88.8l-7.8-6.6L565.9,88.8z"/>
	<g>
		<path class="st0" d="M570.6,95.8c-0.1,0-0.2,0.1-0.3,0.1v-0.1C570.5,95.8,570.5,95.7,570.6,95.8L570.6,95.8z"/>
		<path class="st0" d="M571.1,94.3l-0.2,0.7l-0.2-0.2l0.2-0.5C570.9,94.4,571,94.4,571.1,94.3"/>
		<path class="st0" d="M573.9,95c-0.1,0-0.2,0.1-0.4,0.1l0,0l0,0C573.6,95,573.7,95,573.9,95L573.9,95z"/>
		<path class="st0" d="M573.4,94.6l-0.1,0.3l-1-0.8c0.2,0,0.3-0.1,0.4-0.1l0.1,0.1L573.4,94.6z"/>
	</g>
	<polygon class="st0" points="571.3,93.3 571.4,93.4 571.5,92.9 571.4,92.8 	"/>
	<polygon class="st0" points="571.6,92.4 571.7,92.5 571.9,91.7 571.9,91.6 	"/>
	<g>
		<path class="st0" d="M568.9,90.6c-0.1,0.2-0.1,0.4-0.2,0.6l-1-0.8l0.6,0.4l-2.4-2l-7.8-6.6l-4.4-3.8l-1.1-1l-0.3-0.2l-0.1-0.1l0,0
			l0,0l0,0c-0.2,0-1.7-0.3-1.7-0.3s0.1,0,0.3,0.1l0,0l0,0h-0.1c-0.2,0-0.1,0,0,0h-0.1l-0.7,0.3l-2.7,1.2l-6.4,2.9
			c2.1-1,4.3-2.1,6.6-3.1l1.7-0.8l0.8-0.4l0.4-0.2l0.2-0.1h0.1l0,0c-1.3-0.2,1.4,0.2,1.6,0.3l0,0l0,0l0,0l2.9,2.4
			c3.8,3.2,7.6,6.3,11,9L568.9,90.6l-2.6-2.3L568.9,90.6z"/>
	</g>
	<path class="st0" d="M540.9,81.3l6.4-2.9L540.9,81.3z"/>
	<path class="st0" d="M568.3,90.8l-2.4-2L568.3,90.8z"/>
	<path class="st0" d="M558.2,82.2l7.8,6.6L558.2,82.2z"/>
	<path class="st0" d="M558.2,82.2l7.8,6.6L558.2,82.2z"/>
	<g>
		<path class="st0" d="M570.6,96c-0.1,0-0.2,0.1-0.3,0.1l0,0v-0.3c0.1,0,0.2,0,0.3-0.1V96z"/>
		<path class="st0" d="M569.9,95.9c-0.1,0-0.3,0.1-0.4,0.1l0,0l0,0l0,0C569.6,96,569.8,95.9,569.9,95.9L569.9,95.9z"/>
		<path class="st0" d="M569.5,96c-0.1,0-0.2,0-0.2,0S569.3,96,569.5,96L569.5,96L569.5,96L569.5,96L569.5,96
			C569.5,95.9,569.5,95.9,569.5,96L569.5,96z"/>
		<path class="st0" d="M570.7,95.7c-0.1,0-0.2,0.1-0.3,0.1v-0.1C570.5,95.7,570.6,95.7,570.7,95.7L570.7,95.7z"/>
		<path class="st0" d="M570.4,95.7c-0.1,0-0.3,0.1-0.4,0.1C570.1,95.7,570.3,95.7,570.4,95.7"/>
		<path class="st0" d="M574.1,95.2c-0.1,0-0.2,0.1-0.3,0.1l-0.2-0.2c0.1,0,0.3-0.1,0.4-0.1L574.1,95.2L574.1,95.2z"/>
		<path class="st0" d="M573.8,94.9c-0.1,0-0.2,0.1-0.4,0.1l-0.1-0.1C573.4,94.9,573.5,94.8,573.8,94.9L573.8,94.9z"/>
		<path class="st0" d="M574.7,94.8c0.5-0.1,1-0.2-0.5,0.1l0,0l0,0l0,0C574.4,94.8,574.5,94.8,574.7,94.8L574.7,94.8L574.7,94.8
			L574.7,94.8z"/>
		<path class="st0" d="M574.3,94.9"/>
		<path class="st0" d="M574.4,94.9"/>
		<path class="st0" d="M574.5,94.8L574.5,94.8L574.5,94.8z"/>
		<path class="st0" d="M574.8,94.7L574.8,94.7L574.8,94.7l-0.2-0.1l0,0L574.8,94.7L574.8,94.7L574.8,94.7L574.8,94.7L574.8,94.7z"/>
		<path class="st0" d="M574.8,94.7C576.1,94.4,576.6,94.3,574.8,94.7"/>
		<path class="st0" d="M570.3,94.5c-0.2,0-0.4,0.1-0.6,0.1l0.2-0.5C570,94.3,570.2,94.4,570.3,94.5"/>
		<path class="st0" d="M570.5,94.5C570.5,94.5,570.5,94.6,570.5,94.5h-0.2C570.4,94.5,570.4,94.5,570.5,94.5"/>
		<path class="st0" d="M573.7,94l-0.1,0.3l-0.5-0.4c0.1,0,0.2-0.1,0.3-0.1L573.7,94z"/>
		<path class="st0" d="M574,93.7C573.9,93.7,573.9,93.7,574,93.7L574,93.7L574,93.7L574,93.7z"/>
		<path class="st0" d="M571.1,92.5c-0.1,0.2-0.1,0.3-0.2,0.5l-0.5-0.4l0.2-0.5L571.1,92.5z"/>
	</g>
	<polygon class="st0" points="571.5,92.5 571.6,92.6 571.7,92.4 571.6,92.4 	"/>
	<g>
		<path class="st0" d="M571.3,92.1L571.3,92.1l-0.4-0.3l0.4-1l0.4,0.4C571.5,91.6,571.4,91.9,571.3,92.1"/>
		<path class="st0" d="M575.2,80.2c-0.9,2.9-1.9,6-3.1,9.5c-0.1,0-0.1-0.1-0.2-0.1c-0.1-0.1-0.1-0.1-0.2-0.2l0.1-0.4L575.2,80.2z"/>
		<path class="st0" d="M759.9,167C759.9,167,760,167,759.9,167C760,167,759.9,167,759.9,167"/>
	</g>
	<polygon class="st0" points="783.4,158.2 774.7,160.5 783.4,158.2 789.2,157 	"/>
	<g>
		<path class="st0" d="M793.3,159.8v1.8l-6-3l-5.6,1.4l-18.9,7h-2.9c-0.3,0-1.9-0.1-2.8-0.2l0,0l0,0l0,0l-0.4-0.1l-1.4-0.4
			c-4.8-1.8-7-3.8-12.3-5.8c-2.7-1-5.4-2-8.1-3l-2.1-0.8l-0.2-0.1h-0.4l-4.4-0.1c-1.2-0.2-1.8-0.5-1.8-0.7l0,0c0-0.4,1.5-0.7,4.2-1
			c0.7-0.1,1.4-0.1,2.3-0.2c0,0,0.7,0,0.9-0.1l0.9,0.2c1.9,0.5,3.9,1.1,6.2,1.7c4.6,1.3,7,2.9,12.7,4.7l4.3,1.4
			c0.2,0.1,0.4,0.1,0.6,0.2c0.5,0.1,0.9,0.2,1.2,0.2c0.1,0,0.2,0,0.3,0c0.8,0,1.4-0.3,2.1-0.5c0.3-0.1,0.6-0.1,1-0.2
			c3-0.7,9-1.3,12.1-1.9l8.7-2.3l5.8-1.1L793.3,159.8z"/>
		<path class="st0" d="M757.1,166.8C756.3,166.8,756.5,166.8,757.1,166.8"/>
		<path class="st0" d="M697.4,119.6c0-3.4,0.2-4.9,0.2-8.6c0-1.4,0-3.1-0.1-5.3l-0.2-0.1l0,0c-0.2,2.2-0.2,6.9-0.2,11.6l0.3,3.1
			C697.4,120.1,697.4,119.9,697.4,119.6"/>
		<path class="st0" d="M759.5,163.1c-0.1,0-0.2,0-0.3,0c-0.3,0-0.8,0-1.2-0.2c-0.2,0-0.4-0.1-0.6-0.2l-4.3-1.4
			c-5.7-1.8-8.1-3.4-12.7-4.7c-2.3-0.7-4.4-1.2-6.2-1.7l-0.9-0.2l0,0c0,0-0.1-0.1-0.5-0.1l0.4,0.1c-0.2,0-0.8,0-0.9,0.1
			c-0.8,0.1-1.6,0.2-2.3,0.2c-2.6,0.3-4.1,0.7-4.2,1l0,0l0,0l0,0c0.1,0.2,0.6,0.4,1.8,0.7h-6.4c-4.4,0-8.6,0-12.6,0.2l-2.9,0.1
			l-1.4,0.1h-0.4c-0.2-0.1-0.4-0.4-0.8-0.8l0,0h0.4l0.9-0.1l1.9-0.2c5.4-0.4,12.6-0.8,19.7-1.2l-10.2-0.7l-9.4,0.2l-2.4,0.1h-0.6
			h-0.3H703l0,0l0,0c-1.2-1.2-1.9-1.8-2.3-2.2l-0.1-0.1l0,0c-0.4-0.4-0.2-0.2,0,0l0,0V152l-0.1-1.2l-0.3-4.7
			c-0.6,1.6-1.1-17.2-1.6-11.7l-0.9-10.9l-0.7-3.1c0-0.3,0-0.5,0-0.7c0-3.4,0.2-4.9,0.2-8.6c0-1.4,0-3.1-0.1-5.3l0.4,0.3l0.3,0.2
			l0.1,0.1h0.1l0,0v0.6v-0.6l0,0c0.1,0.1,0,0.1,0,0v-1.2l0.5,0.3h0.1v0.1c0,0,0,0,0-0.1c-0.1-0.1-0.3-0.5-0.6-1v-1l0.2,0.1l0.7,0.4
			l0.3,0.2l0,0l0,0l0,0c0,0,0,0,0-0.1c-0.1-0.1-0.1-0.2-0.1-0.2s0.1,0.2,0.2,0.4c0,0.1,0.1,0.1,0.1,0.1l0,0c0,0-0.1-0.2-0.3-0.6
			l0.2,0.1h0.1l0,0l0,0c-0.4-0.8-0.8-1.3-1-1.7c-0.4-0.6-0.5-0.9-0.6-1l0,0c0,0,0.3,0.4,0.3,0.5l0,0c0,0,0,0,0-0.1
			c0,0,0-0.1-0.1-0.2l0,0v0.1v0.1c-0.1-0.1-0.1-0.2-0.2-0.3l0,0v0.1v0.1v0.2l0.1,1.1l-0.9-0.6l-0.1-0.1l0,0
			c-0.2-0.3-0.3-0.6-0.5-0.8c0,0,0,0,0-0.1l0,0c0,0,0,0,0-0.1c0,0,0,0,0-0.1l0,0c-0.2-0.3-0.3-0.5-0.4-0.6l0,0l0,0
			c0,0,0.2,0.3,0.5,0.8l0,0l0,0v0.1v0.3v0.1c-0.4-0.2-0.8-0.5-1.2-0.7c-0.5-0.9-0.7-1.1,0,0c-1.7-1-3.4-2.1-5-3.1
			c-4.5-2.8-8.9-5.4-13.2-8l-8.4-4.9l-3.7-2.2l0,0l0.7-0.5l0.1-0.1c0.5,0,0.8-0.1,1-0.1l0.4,0.2c2,1.1,4,2.2,6.1,3.3
			c4.2,2.3,8.4,4.7,12.8,7.1c4.4,2.5,8.9,5,13.4,7.6c0.4,0.3,1.4,0.7,1.4,0.9l0,0l0.1,2l0.2,4l0.4,8l-0.4-8l-0.2-4l-0.1-2l0.1,2
			l0.2,4l0.4,8c0,0.9,0.1,1.8,0.1,2.6v0.1c0,0.8,0.1,1.7,0.1,2.5c0,0.1,0,0.2,0,0.3c0,0.8,0.1,1.5,0.1,2.3c0,0.2,0,0.3,0,0.5
			c0,0.7,0.1,1.4,0.1,2.1c0,0.2,0,0.5,0,0.7c0,0.6,0.1,1.3,0.1,1.9c0,0.3,0,0.6,0,0.8c0,0.6,0.1,1.3,0.1,1.9c0,0.3,0,0.5,0,0.8
			c0,0.7,0.1,1.4,0.1,2c0,0.2,0,0.3,0,0.5c0,0.8,0.1,1.6,0.1,2.5l0.3,8.1l-0.3-8.1l0.3,8.1l0.1,2.7c-0.4-0.4-0.6-0.6-0.7-0.6
			c0-0.3,0-0.6,0-0.9c-0.3-7.2-0.6-14.6-0.9-22.2l-0.2-4l-0.5-13.1l-0.1-3.4l-0.1-1.7v-0.1l0,0c-0.1-0.2,0.7,0.7,0-0.3v0.3l-0.7-0.4
			l-5.8-3.4l-2.2-0.9l6,3.6l-6-3.6l6,3.6c0.5,0.2,1.8,1.3,2.2,1.3l0.1,3.2l0.5,14.1l1.1,28.1l-1.1-28.1l-0.5-14.1l-0.1-3.2l0.1,3.2
			l0.5,14.1l1.1,28.1l0.1,2.4v1.2v0.6v0.3l0,0l0,0l0.1,0.1c0,0-0.1-0.1-0.2-0.2c-0.1-0.1,0-0.1,0,0c0.1,0,0.1,0.1,0.2,0.2
			c0.2,0.2,0.4,0.4,0.8,0.7c0.1,0.1,0.2,0.2,0.4,0.4l0,0l0,0h0.1h0.1h4.9h9.7h14.6c3.9,0.9,9,3,13.4,4.4l10.9,4.7l-10.9-4.7
			c-4.4-1.4-9.5-3.5-13.4-4.4h-14.6h14.6c3.9,0.9,9,3,13.4,4.4l10.9,4.7c0.5,0.1,0.9,0.1,1.3,0.1c0.3,0,0.6,0,0.9,0h0.1h0.2
			c2.8,0,8.1-0.7,10.6-1.3c3.8-0.9-2-0.1,4.4-0.8c-3.1,0.6-9,1.3-12.1,1.9c-0.4,0-0.7,0.1-1,0.2C761,162.7,760.4,163,759.5,163.1"/>
		<path class="st0" d="M704.3,157.2"/>
	</g>
	<path class="st0" d="M704.3,157.2L704.3,157.2L704.3,157.2z"/>
	<g>
		<path class="st0" d="M704.2,157c0.1,0.1,0.1,0.1,0.1,0.1S704.3,157.1,704.2,157"/>
		<path class="st0" d="M703.4,157.1L703.4,157.1c-2.5-2.4-3.9-3.8-4.7-4.5c-0.1-0.1-0.2-0.2-0.3-0.3l0,0v-0.2
			c-0.2-1.8-0.4-3.5-0.6-5.1c0.3-0.2,0.6,0.6,0.9,2.1c0.2,0.7,0.3,1.7,0.5,2.7v0.2v0.1v0.1l0,0l0,0c-0.7-0.7,4.1,3.9,5,4.8h-0.3
			h-0.3L703.4,157.1L703.4,157.1z"/>
		<path class="st0" d="M733.3,154.7L733.3,154.7l-0.4-0.1C733.3,154.6,733.4,154.6,733.3,154.7C733.4,154.7,733.4,154.7,733.3,154.7
			"/>
		<path class="st0" d="M698.7,152.6c0.1,0.1,0.1,0.1,0.1,0.1S696.8,150.7,698.7,152.6"/>
		<path class="st0" d="M704.9,152.6h-1.4c-0.6-0.6-0.7-1-0.7-1.2s0.1-0.3,0.1-0.4c0-0.1,0-0.2-0.1-0.3l-0.1-2.8c0-0.2,0-0.3,0-0.5
			c0.1,0.1,0.3,0.3,0.7,0.7l0.1,1.4l0,0c-0.1-0.1-0.2-0.1-0.2-0.1s0.1,0,0.2,0.1c-0.7-0.7-0.5-0.5,0,0l0,0c-0.2-0.2-0.1-0.1,0,0
			c0,0.1,0,0.2,0,0.2v0.2v0.3v0.2l-0.1-0.1l0,0l0,0l0,0l0,0c0,0,0,0,0.1,0.1v0.2c-0.1-0.1-0.2-0.2-0.2-0.2s0.1,0.1,0.2,0.2
			c0,0.8,0.1,1.4,0.9,1.4c0.2,0,0.4,0,0.7-0.1c5.4,0,10.7,0.1,16,0.2c-3.4,0.1-6.9,0.2-10.5,0.3L704.9,152.6z"/>
		<path class="st0" d="M698.5,104.5v0.6h-0.1L698.5,104.5C698.4,104.4,698.4,104.4,698.5,104.5"/>
		<path class="st0" d="M698.3,103.7v0.7c-0.2-0.4-0.5-0.9-0.8-1.4l0.8,0.4V103.7z"/>
		<path class="st0" d="M698.4,101.9c0.6,1,1,1.6,1.2,2l0,0l-0.4-0.3l-0.7-0.4v-0.4L698.4,101.9z"/>
		<path class="st0" d="M696.8,102.6v0.8c-0.3-0.5-0.6-1-0.9-1.4L696.8,102.6L696.8,102.6z"/>
		<path class="st0" d="M697.3,102.5c0.1,0.2,0.2,0.3,0.3,0.5l-0.8-0.4v-0.3C696.9,102.3,697.1,102.4,697.3,102.5"/>
		<path class="st0" d="M645.9,95.7l-3.6,3l4.8-4.2c0.1,0,0.2,0.1,0.3,0.1L645.9,95.7z"/>
		<path class="st0" d="M646,94.1l-2.1,1.6C644.6,95.2,645.3,94.6,646,94.1L646,94.1"/>
		<path class="st0" d="M659.3,84.8l-12,9.7c-0.1,0-0.2,0-0.3-0.1l8.8-7.6l-1.5,0.7l-7.9,6.2l0,0c5.6-4.5,10.9-8.8,15-12.2l1.1,0.6
			c0,0,0,0,0.1,0l-0.3,0.3l-0.6,0.5c-1.3,0.1-2.2,0.1-1.8,0.1l0,0l0,0l0,0l0.2,0.1l0.4,0.2c0.1,0.1,0.2,0.1,0.4,0.2l-1.4,1.1h-0.1
			h0.1L659.3,84.8z"/>
		<path class="st0" d="M646,94.1L646,94.1L646,94.1L646,94.1L646,94.1"/>
		<path class="st0" d="M667,82.6c-0.5,0-1.5,0.1-2.7,0.2l-1.1-0.6l0.1-0.1l0.7-0.6l0.3-0.3l0,0L667,82.6z"/>
		<path class="st0" d="M662.9,81.9L662.9,81.9l-0.8-0.3l-0.5-0.3l0.1-0.1l0.4,0.2L662.9,81.9z"/>
	</g>
	<polygon class="st0" points="663.9,81.1 662.9,81.9 663,82 664.1,81.1 664.2,81 664.1,81 	"/>
	<g>
		<path class="st0" d="M664,81c-0.5,0-1.4,0.1-2.1,0.1c0.1-0.1,0.1-0.1,0.2-0.2c0.4,0,0.9-0.1,1.6-0.1L664,81z"/>
		<path class="st0" d="M663.6,80.7c-0.5,0-1,0.1-1.3,0.1c0.2-0.2,0.4-0.3,0.6-0.5l0.1,0.1L663.6,80.7z"/>
		<path class="st0" d="M759.3,163.1L759.3,163.1c-0.3,0-0.8,0-1.2-0.2C758.5,163,758.9,163.1,759.3,163.1"/>
		<path class="st0" d="M759.5,163.1c-0.1,0-0.2,0-0.3,0C759.4,163.1,759.5,163.1,759.5,163.1"/>
		<path class="st0" d="M761.7,162.5c-0.7,0.2-1.3,0.5-2.1,0.5C760.4,163,761,162.7,761.7,162.5"/>
		<path class="st0" d="M757.4,162.8c0.2,0.1,0.4,0.1,0.6,0.2C757.9,162.9,757.7,162.8,757.4,162.8l-4.3-1.4
			c-5.7-1.8-8.1-3.4-12.7-4.7c-2.3-0.7-4.4-1.2-6.2-1.7l-0.9-0.2c-0.2,0-0.8,0-0.9,0.1c-0.8,0.1-1.6,0.2-2.3,0.2
			c-2.6,0.3-4.1,0.7-4.2,1c0-0.4,1.5-0.7,4.2-1c0.7-0.1,1.4-0.1,2.3-0.2c0,0,0.7,0,0.9-0.1l-0.4-0.1l0.4,0.1l0,0l0,0l0.9,0.2
			c1.9,0.5,3.9,1.1,6.2,1.7c4.6,1.3,7,2.9,12.7,4.7L757.4,162.8z"/>
		<path class="st0" d="M762.7,162.4c-0.4,0-0.7,0.1-1,0.2C761.9,162.5,762.3,162.4,762.7,162.4c3-0.7,9-1.3,12.1-1.9
			C771.6,161.1,765.7,161.7,762.7,162.4"/>
		<path class="st0" d="M774.7,160.5"/>
	</g>
	<path class="st0" d="M726.1,156L726.1,156L726.1,156z"/>
	<g>
		<path class="st0" d="M732.9,154.6c0.4,0,0.5,0.1,0.5,0.1C733.4,154.6,733.3,154.6,732.9,154.6"/>
		<path class="st0" d="M642.7,100.2c0.1,0,0.2,0.1,0.2,0.1C642.9,100.3,642.8,100.2,642.7,100.2"/>
		<path class="st0" d="M642.4,100.1L642.4,100.1c-1.5-0.5-6.2-1.9-6.9-2.1l0,0v-0.1l-0.1-0.2c1.9,0.6,6.7,2,5.9,1.8l0,0l0,0l0.1-0.1
			l0.1-0.1l0.2-0.2l0.5-0.4l3.6-3l1.4-1.2l-1.4,1.2l1.4-1.2c0.8,0.2,0.5,0.2,0,0l12.1-9.7l-11.9,9.7l11.9-9.7l0.2-0.1l-0.2,0.1
			l0.2-0.1h0.1l-11.1,9.2l11.4-9l-11.4,9l11.4-9h0.1c-4.5,3.8-10.1,8.2-15.6,12.7l-2.6,2.1l-0.2,0.1l-0.1,0.1l0,0l0,0
			C641.9,100,642.2,100,642.4,100.1"/>
		<path class="st0" d="M635.5,98L635.5,98C635.3,98,635.3,98,635.5,98"/>
		<path class="st0" d="M635.9,97.9L635.9,97.9c-0.2-0.1-0.4-0.1-0.5-0.1l-0.1-0.2l-0.3-0.8l-0.5-1.6l-2.1-6.3l2,5.1l1,2.6
			L635.9,97.9L635.9,97.9z"/>
		<path class="st0" d="M635.4,97.7L635.4,97.7C634.6,97.5,634.3,97.4,635.4,97.7"/>
		<path class="st0" d="M661.3,83.8c-0.4,0.4-0.8,0.7-1.3,1.1h-0.1L661.3,83.8L661.3,83.8"/>
		<path class="st0" d="M660,84.4l-0.4,0.3c0,0,0,0-0.1,0L660,84.4z"/>
	</g>
	<path class="st0" d="M645.9,95.7l1.4-1.2L645.9,95.7z"/>
	<path class="st0" d="M659.3,84.8l-12,9.7L659.3,84.8z"/>
	<polygon class="st0" points="697.1,119.6 697.4,120.4 697.1,117.2 	"/>
	<path class="st0" d="M744.7,152.8h0.8H744.7z"/>
	<polygon class="st0" points="698.5,107 698.5,105.1 698.4,105.1 	"/>
	<polygon class="st0" points="698.5,107 698.5,106.4 698.5,106.4 698.5,105.1 	"/>
	<g>
		<path class="st0" d="M642.3,100.4l0.2-0.2l0.1-0.1c-0.1,0-0.2,0-0.3-0.1l-0.3,0.3l-0.1,0.1l0,0l0,0l0,0
			C642.1,100.5,642.2,100.5,642.3,100.4L642.3,100.4z"/>
		<path class="st0" d="M698.4,102.8v-0.9c-0.1-0.1-0.1-0.2-0.2-0.3l0,0v0.1v0.1v0.2v1.1l0.1,0.1L698.4,102.8z"/>
		<path class="st0" d="M699.6,103.9L699.6,103.9l-0.4-0.3l-0.7-0.4v0.3l0.2,0.1l0.7,0.4l0.3,0.2l0,0
			C699.7,104.1,699.6,104,699.6,103.9c0.1,0.1,0.3,0.6,0.3,0.6S699.9,104.3,699.6,103.9"/>
		<path class="st0" d="M698.4,103.5L698.4,103.5l-0.1,0.2v0.7l0.1,0.1V103.5z"/>
		<path class="st0" d="M699.1,105.5L699.1,105.5L699.1,105.5L699.1,105.5"/>
		<path class="st0" d="M696.7,101.6L696.7,101.6C696.7,101.6,696.7,101.5,696.7,101.6C696.7,101.5,696.7,101.5,696.7,101.6
			C696.7,101.5,696.7,101.5,696.7,101.6C696.7,101.5,696.7,101.6,696.7,101.6"/>
		<path class="st0" d="M696.5,101.2C696.6,101.3,696.6,101.3,696.5,101.2C696.6,101.3,696.6,101.3,696.5,101.2"/>
		<path class="st0" d="M696.5,101.2L696.5,101.2L696.5,101.2"/>
		<path class="st0" d="M696.4,101C696.4,101,696.4,101.1,696.4,101C696.4,101.1,696.4,101.1,696.4,101"/>
	</g>
	<path class="st0" d="M696.3,100.9L696.3,100.9L696.3,100.9z"/>
	<g>
		<path class="st0" d="M696.3,100.9L696.3,100.9L696.3,100.9L696.3,100.9L696.3,100.9"/>
		<path class="st0" d="M696.3,100.8"/>
		<path class="st0" d="M642.3,100.5c1,0.3,1.4,0.4,1.4,0.4S643.1,100.8,642.3,100.5"/>
		<path class="st0" d="M642.1,100.6C642.2,100.6,642.2,100.6,642.1,100.6C642.2,100.6,642.2,100.6,642.1,100.6"/>
		<path class="st0" d="M632.6,98.9L632.6,98.9C632.5,98.8,632.5,98.8,632.6,98.9"/>
	</g>
	<path class="st0" d="M634.7,98.2L634.7,98.2L634.7,98.2z"/>
	<g>
		<path class="st0" d="M663.1,82.2L663.1,82.2c-0.2,0.1-0.3,0-0.3,0l0.1-0.1L663.1,82.2z"/>
	</g>
	<path class="st0" d="M661.4,83.7l-12.9,10.2L661.4,83.7z"/>
	<path class="st0" d="M659.3,84.8l0.7-0.4L659.3,84.8z"/>
	<g>
		<path class="st0" d="M731,151.9l-10.2,0.4c-5.3-0.1-10.6-0.2-16-0.2c-0.1,0-0.3,0.1-0.4,0.1c-0.1,0-0.2,0-0.2,0l0,0l0,0
			c-0.7,0-0.8-0.7-0.9-1.4l0,0c0,0,0,0,0.1,0.1l0,0c0.4,0.4,1.1,1.1,1.3,1.2l0,0l0,0l0,0v-0.2c0.1,0.1,0.2,0.1,0.2,0.2l0,0l0,0V152
			v-0.2v-0.4v-0.3c0.3,0.3,0.6,0.6,1,0.9l0,0l0,0l0,0c0,0.1,0,0,0,0l0,0l0,0l0,0l0,0l0,0v-0.2v-0.2v-0.7l2.1,0.1l5,0.2
			C719.5,151.3,725.5,151.6,731,151.9"/>
		<path class="st0" d="M707.2,151.9C707.3,152,707.3,151.9,707.2,151.9"/>
		<path class="st0" d="M705.8,151.9L705.8,151.9L705.8,151.9c-0.1-0.1-0.2-0.2-0.3-0.3s-0.2-0.2-0.3-0.3c-0.2-0.2-0.3-0.3-0.4-0.4
			v-0.1h0.5h0.5v0.2v0.5v0.2V151.9L705.8,151.9z"/>
		<path class="st0" d="M704.6,151.3v0.4c-0.5-0.5-0.8-0.8-1-1h0.1h0.3h0.6L704.6,151.3"/>
		<path class="st0" d="M736.2,151.1L736.2,151.1c-0.1,0-0.4-0.1-1-0.2c-0.2-0.1-0.4-0.1-0.7-0.2c-0.4-0.1,0.2,0-1-0.2H733
			c-0.8,0-1.7,0-2.8,0c-4.2,0-11.4,0.1-23,0.1h-1.3h-0.1v-0.9h0.1h3.9h3.1h3.1c-3.4,0-6.8,0-10.3-0.1v-0.1h1.4h-1.2h-0.1v-1.2v1.2
			h-1v-0.1l-0.1-1.3V147l-0.2-6.7c0,3.1,0.1,6.1,0.1,9.1c0-3-0.1-6-0.1-9.1c0,3.1,0.1,6.1,0.1,9.1H704h-0.5h-0.1l0,0l-0.1-0.1l0,0
			l-0.1-4.1l-0.3-8.1c0-0.8-0.1-1.6-0.1-2.5c0-0.2,0-0.3,0-0.5c0-0.7-0.1-1.4-0.1-2c0-0.3,0-0.5,0-0.8c0-0.6,0-1.3-0.1-1.9
			c0-0.3,0-0.6,0-0.8c0-0.6,0-1.3-0.1-1.9c0-0.2,0-0.5,0-0.7c0-0.7-0.1-1.4-0.1-2.1c0-0.2,0-0.3,0-0.5c0-0.8-0.1-1.5-0.1-2.3
			c0-0.1,0-0.2,0-0.3c0-0.8-0.1-1.7-0.1-2.5v-0.1c0-0.9-0.1-1.8-0.1-2.6l-0.4-8l-0.2-4l-0.1-2l0,0c0-0.1-1-0.6-1.4-0.9
			c-4.5-2.6-9-5.1-13.4-7.6s-8.7-4.8-12.8-7.1c-2.1-1.1-4.1-2.2-6.1-3.3l-0.4-0.2c0.5,0,0.4,0,0,0l-2.5-1.4l0,0l0,0L665,81l0,0l0,0
			l0,0c0.2,0,0,0-0.4,0l0.2-0.1l0.1-0.1c-0.1,0-0.1,0-0.2,0l0.1-0.1l0,0h-0.1c-0.3,0-0.5,0-0.7,0l-0.6-0.3l-0.1-0.1
			c0.2-0.1,0.4-0.3,0.5-0.4l0.2-0.1l0.1-0.1l0,0l0,0c0,0,0,0-0.1,0s-0.1,0-0.1,0s0.4,0,0.3,0c0,0-0.4,0-2,0.1l0,0l0.4,0.2l0.6,0.3
			c-0.2,0.2-0.4,0.3-0.6,0.5c-1.1,0.1-1.5,0.1-1.4,0.1h0.6c0,0-0.1,0-0.2,0l0,0l0,0l0,0l0,0l0,0l0,0c-1,0.1-0.3,0,0,0l0,0
			c0,0-0.1,0-0.2,0l0,0l0,0h0.1l0.2,0.1c-0.1,0-0.3,0-0.4,0c-1.3,0.1-0.9,0.1,0,0l0,0l0.1,0.1l0.4,0.2c-4.7,3.9-11.1,9.1-17.6,14.3
			l-1.2,1l3.1-2.7l0,0l-4.9,4.1l4.7-4.2h-0.1l-1.7,1.5l-2.7,2.3l-0.7,0.6l0,0l0,0l0,0c-5-1.5-2.7-0.8-2.7-0.8s-0.1,0-0.3-0.1v-0.1
			l0,0c-0.1,0-0.1,0,0,0l0,0c0.1,0,0.1,0,0.2,0.1l0,0l0,0l0,0c0.3,0.1,1.1,0.3,2.7,0.8l0.1-0.1l0.6-0.5l4.3-3.7l-5,4.1l-0.1,0.1l0,0
			l0,0c0.3,0.1-1.6-0.5-2.6-0.8l0,0l0,0l-0.1-0.2l-0.1-0.4l-0.3-0.8l-0.6-1.6l-1.1-3.1l-0.1-0.3c-0.3-0.1-0.7-0.2-1-0.3l0,0l0,0
			l0.1-0.1l0.1-0.1l0.5-0.4l-0.5-1.8l-4.3-11l-0.9-3l-1-3.8l0.1-0.9l3.9,10.3l-2.1-5.9l3.4,8.8l-4-11.1l0.2-0.1l1.4,3.7
			c1.5,4.4,3.1,9.1,4.7,13.6c0,0.1,0.1,0.2,0.1,0.3l0.3-0.2c-2.5-7.7-5.2-15.4-7.9-23.5l-0.9-3c3.1,8.8,6.4,18.5,9.3,26.1l0.3-0.2
			c-4.6-13.6-8.6-23.7-13.3-38.1l-0.4-1.2c2.8,7.3,7,19.1,9.8,26.4c-4.3-11.8-8.3-22.8-12.4-33.8l-0.5-1.5
			c-2.5-7.4-4.9-14.4-7.3-21.3c-1.2-3.4-2.4-6.8-3.5-10.2l-1.7-5l-0.8,1.8c-0.2,0.5-0.3,1-0.5,1.5l-0.9-2.3l0.9,2.3
			c-7.4,20.8-14.2,40.3-21.2,60.6l5.2-16.4c-4.2,10.1-8.4,21.9-12.1,31.4l-1.1,2.9c4-12.7,9.7-29,13.8-41.6
			c-3.1,8.9-5.5,16.3-9.2,26.6l0.9-3c-2.7,7.5-5,14.2-7.2,20.6c-0.8-0.7-1.6-1.5-2.4-2.2c0.6-1.9,1.2-3.7,1.7-5.4l-2,5.2
			c-0.6-0.6-1.2-1.2-1.9-1.7c0.8-2.1,1.6-4.3,2.4-6.5l0.8-2.2l0.4,1l0.9-3.8l2.9-6.4l2.4-6.6c1.7-3.5,3.6-8.3,5.5-13.4
			s3.8-10.7,5.7-15.8l-1.4,4.5c1.1-2.3,2.3-5,3.4-8c1.7-4.4,3.2-9.3,4.6-13.3l2.9-8.9l0.3-0.8L602,3.9l0.1-0.3l1.1-3.1V0.4l0,0l0,0
			l0,0l0,0c18.9,0.4,5.2,0.1,9.5,0.2l0,0l0.1,0.2l0.1,0.4l0.3,0.8l0.5,1.6l2.1,6.3l2.5,6.6l-1.6-4.4l1.5,3.6l-2.7-7.4l5.4,14.7
			l1.9,5.2l-0.4-1.5l2.5,6.6l5.1,14l3.1,9.7l-2.5-8.2l-1.4-4.5l5,14.8v-0.8c2.1,5.9,4.6,13.3,7.1,20.8l0.2,0.7l1.4,4.6l0.1-0.1
			l-0.9-3.1l0.6,0.6c0.2,0.7,0.5,1.4,0.7,2.1l3.7-2.9l-1.2,1l9.3-7.2l2-1.5l0.5-0.4l0.3-0.2h0.1c17.3-1.1,4.8-0.3,8.7-0.5l0,0l0,0
			l0,0l0.1,0.1L668,73l4.1,2.6c2.7,1.7,5.4,3.5,8.1,5.1l-4.7-2.4l4.7,2.4c4.8,3.1,9.4,6,13.8,8.9c2.2,1.4,4.4,2.9,6.5,4.3l3.1,2.1
			l0.8,0.5l0.2,0.1l0.1,0.1c1.6,2.7,2.4,4.1,2.9,4.8c-0.2-0.3-0.3-0.5,0.1,0.2l0,0l0,0v0.1v0.5v1.8c-0.1,9.7-0.3,18.4-0.6,25.7
			c-0.1-5.5-0.2-11-0.2-16.3c0-2.6,0-5.2-0.1-7.8V102v-0.2v-0.1l0,0l0,0c-1-1.6-2.8-4.8-2.5-4.2l0,0l0,0l-0.4-0.2l-0.8-0.5l-1.5-1
			c-6-3.8-11.9-7.5-18-11.2l-9.2-5.6l-4.7-2.8l-2.3-1.4l-1.2-0.7l0,0c-0.4,0-1.8,0.1-0.5,0h0.1l0.2,0.1l1.7,1.1l6.9,4.5l-0.7-0.4
			l3.2,2.2l-2.5-1.8c10.8,6.4,20,12.2,29.1,17.9l0.2,0.1l0.1,0.1c1,1.7-2.2-3.8,2.3,3.8l0,0l0,0v0.1v0.5v1v2l0.1,4l0.1,8
			c0.1,5.4,0.2,10.8,0.4,16.5l0.1-3.9l0.3,18.8l3.7,0.1l10,0.2c5.3,0.8,9.3-0.1,15.5,2c-6.3-2.1-10.3-1.2-15.5-2
			c5.3,0.8,9.3-0.1,15.5,2c-4.6-1.4-7.7-0.7-11.2-0.7l-2-0.1c0.7,0.1,1.4,0.1,2,0.1l5,0.2c0.5,0,1.8,0.1,3,0.1
			C735.6,150.5,735.7,151,736.2,151.1c-0.5-0.1-0.6-0.6-3-1c-1.2,0-2.4-0.1-3-0.1l-5-0.2l5,0.2c0.5,0,1.8,0.1,3,0.1
			C735.6,150.5,735.7,151,736.2,151.1C736.1,151.1,736.2,151.1,736.2,151.1"/>
	</g>
	<polygon class="st0" points="710.8,149.6 715.2,149.7 713,149.6 	"/>
	<path class="st0" d="M705.7,147.5L705.7,147.5L705.7,147.5z"/>
	<path class="st0" d="M705.7,145.8v-1.5V145.8z"/>
	<path class="st0" d="M705.7,145.8v-1.5V145.8z"/>
	<g>
		<path class="st0" d="M705.7,145.8v-1.5C705.7,144.8,705.7,145.3,705.7,145.8"/>
	</g>
	<path class="st0" d="M704.5,140.5l-0.3-20.4L704.5,140.5z"/>
	<path class="st0" d="M704.5,140.5l-0.3-20.4L704.5,140.5z"/>
	<path class="st0" d="M704.5,140.5l-0.3-20.4L704.5,140.5z"/>
	<path class="st0" d="M704.5,140.5l-0.3-20.4L704.5,140.5z"/>
	<path class="st0" d="M704,114v3l0.1,3.1L704,114z M704,113.6v0.2v0.2V113.6z M704,110.7l0.1,2.9l-0.1-5.9V110.7z M704,110.7
		l0.1,2.9L704,110.7v-3V110.7z"/>
	<g>
		<path class="st0" d="M704.1,120.1"/>
	</g>
	<polygon class="st0" points="704.1,111.5 704.1,114.6 704.1,116.4 704.1,110.6 	"/>
	<g>
		<path class="st0" d="M703.8,101.4L703.8,101.4c-0.1-0.2-0.3-0.5-0.4-0.7C703.5,100.9,703.7,101.2,703.8,101.4L703.8,101.4v0.3v0.4
			v0.8v1.6l0.1,3l-0.1-4.6v-1.2v-0.1V101.4L703.8,101.4L703.8,101.4c-0.5-0.9,1.1,1.9-1.1-1.8l0,0l0,0c0-0.1-0.2-0.4-0.2-0.4
			s0,0.1,0.2,0.3l0,0l0,0c0,0,0,0,0-0.1l0,0l0,0l-0.2-0.1L702,99l-1.9-1.2c-2.6-1.6-5.1-3.2-7.6-4.8c-5-3.2-9.8-6.2-14.2-9.1
			l1.9,1.3l2.6,1.7l2,1.3l2.5,1.6l2.6,1.7l2.6,1.7l2,1.2l2.7,1.7l2.6,1.7l2.7,1.6h0.1l0,0l0,0l0,0l0,0h-0.1l-2.7-1.6l-2.6-1.7
			l-2.7-1.7l-2-1.2l-2.6-1.7l-2.6-1.7l-2.6-1.7l-2-1.3l-2.6-1.7l-1.9-1.3l1.9,1.3l2.6,1.7l2,1.3l2.6,1.7l2.6,1.7l2.6,1.7l2,1.2
			l2.7,1.7l2.6,1.7l2.7,1.6h0.1l0,0l0,0l0,0l0.1,0.1l0,0c0.1,0.2,0.4,0.6,0.7,1.2C703.5,100.9,703.7,101.2,703.8,101.4L703.8,101.4
			v0.3v0.4v0.8v1.6l0.1,3l-0.1-3v-1.6v-0.8v-0.4V101.4L703.8,101.4z"/>
	</g>
	<polygon class="st0" points="704,106.8 704,106 704,104.9 	"/>
	<g>
		<path class="st0" d="M637.5,97.3C637.9,97.5,637.7,97.4,637.5,97.3L637.5,97.3z"/>
		<path class="st0" d="M640.9,95.8l2.5-2.1l-2.4,1.8l-1.2,0.9c-0.3,0.1-0.2,0.5-0.8,0.3l-0.2-0.7l-1.5-4.7c-0.1,0-0.2-0.1-0.3-0.1
			c0.5,1.4,1,2.8,1.4,4.2c0.5,0.4-0.3,1.3,1.2,1.4L640.9,95.8z"/>
		<path class="st0" d="M645.8,94L645.8,94L645.8,94L645.8,94"/>
	</g>
	<polygon class="st0" points="646.3,93.1 646.4,93.2 649,90.8 	"/>
	<g>
		<path class="st0" d="M578.6,82.3"/>
	</g>
	<path class="st0" d="M680,80.3l-4.7-2.4L680,80.3z"/>
	<g>
		<path class="st0" d="M659.2,74c4.6-0.3,6.3-0.4,6.7-0.4l-0.3-0.2l0,0l0,0c-13.1,0.8-3.6,0.2-6.6,0.4l0,0h-0.1l-0.1,0.1l-0.5,0.4
			l-3.8,3l3.4-2.4l0.8-0.6L659.2,74L659.2,74L659.2,74L659.2,74L659.2,74z"/>
		<path class="st0" d="M621,40.7c-3.1-8.9-5.6-15.5-8.7-24.3C615.4,25.2,617.9,31.8,621,40.7l0.2,0.7l2.5,7.4l-2.5-7.4L621,40.7z"/>
		<path class="st0" d="M618.1,31.7c-3.5-10.4-6.3-16.9-9.5-26.5C611.8,14.9,614.6,21.4,618.1,31.7"/>
		<path class="st0" d="M607.3,5.3"/>
		<path class="st0" d="M609.9,4.5L609.9,4.5l0.4-0.7l0.2-0.7l0.1-0.2V2.8l0,0l0,0l0,0l0,0c0.1,0,0.1,0,0,0l0,0l0,0l0,0
			c-10.7-0.2-3-0.1-5.4-0.1l0,0l0,0c-1.9,0-1.3,0,0,0l0,0l0.1,0.4l0.5,1.5l-0.6-1.8c1.7,0,4.7,0.1,5.4,0.1l0,0l0,0V3v0.1l-0.1,0.2
			l-0.2,0.3L609.9,4.5z"/>
		<path class="st0" d="M607.4,2.2L607.4,2.2L607.4,2.2L607.4,2.2C607.4,2.2,607.4,2.2,607.4,2.2"/>
		<path class="st0" d="M703.5,150.6l0.1,0.1h-0.1h-0.1l0,0l0,0c0,0-0.1,0-0.1-0.1v-0.2C703.4,150.6,703.6,150.8,703.5,150.6"/>
		<path class="st0" d="M703.4,150.5C703.4,150.6,703.4,150.6,703.4,150.5C703.4,150.6,703.4,150.5,703.4,150.5l-0.1-0.1V150v-0.2
			v-0.2c0,0,0,0,0-0.1l0.1,0.1l0,0l0,0c0.2,0.2,0.5,0.5,1,1h-0.9h-0.1V150.5z"/>
		<path class="st0" d="M703.4,149.6C703.8,150,703.6,149.8,703.4,149.6L703.4,149.6z"/>
	</g>
	<polygon class="st0" points="704.8,150.4 704.8,150.6 705.2,150.6 705.8,150.6 705.8,150.6 705.8,150.2 705.8,149.7 704.8,149.6 	
		"/>
	<g>
		<path class="st0" d="M704.6,149.6c0,0.3,0,0.6,0,0.9h-0.2l0,0c-0.1-0.1-0.1-0.1-0.2-0.2c-0.4-0.3-0.6-0.6-0.8-0.7l0,0l0,0
			c0.1,0.1,0.2,0.2,0.2,0.2s-0.1-0.1-0.2-0.2l0,0l0,0H704.6L704.6,149.6c-0.2,0-0.4,0-0.5,0H704.6z"/>
		<path class="st0" d="M705.8,149.6L705.8,149.6c-0.3,0.1-0.7,0.1-1,0v-0.1L705.8,149.6z"/>
		<path class="st0" d="M703.4,149.6L703.4,149.6C703.4,149.5,703.3,149.5,703.4,149.6L703.4,149.6
			C703.3,149.5,703.4,149.5,703.4,149.6"/>
		<path class="st0" d="M707.4,101.1c0.2,0.3,0.4,0.6,0.4,0.6S707.7,101.6,707.4,101.1"/>
		<path class="st0" d="M637.6,97.3L637.6,97.3C637.5,97.3,637.5,97.3,637.6,97.3C637.5,97.3,637.5,97.3,637.6,97.3"/>
		<path class="st0" d="M637.5,97.3L637.5,97.3c-0.1,0-0.1,0-0.2-0.1l0,0l-0.1-0.2l-0.1-0.4l-0.6-1.6l-0.7-2.3l1,2.8l0.5,1.3l0.1,0.3
			L637.5,97.3L637.5,97.3z"/>
		<path class="st0" d="M637.3,97.2L637.3,97.2C636.8,97.1,636.9,97.1,637.3,97.2"/>
		<path class="st0" d="M572.6,96.9c-0.1,0.1-0.2,0.2-0.2,0.2c-0.1,0,0-0.1,0.1-0.3L572.6,96.9z"/>
		<path class="st0" d="M572.6,96.4c0,0-0.1,0.2-0.1,0.3l-0.5-0.5l-0.1-0.1c-0.7,0.2-1.2,0.3-1.4,0.3c0.4-0.1,2.4-0.6,3.6-0.9
			c-0.3,0.1-0.7,0.2-1.2,0.3L572.6,96.4z"/>
		<path class="st0" d="M571.5,95.8c-0.3,0.1-0.7,0.2-1,0.2c1-0.3,2.3-0.6,3.2-0.8c-0.2,0.1-0.4,0.1-0.7,0.2l-0.1,0.2
			c-0.4,0.1-0.9,0.2-1.3,0.3L571.5,95.8z"/>
		<path class="st0" d="M570.3,95.8c-0.1,0-0.3,0.1-0.4,0.1v-0.1C570.1,95.9,570.2,95.8,570.3,95.8L570.3,95.8z"/>
		<path class="st0" d="M569.5,95.9L569.5,95.9l0.1-0.2L569.5,95.9z"/>
		<path class="st0" d="M573.5,95.1c-0.7,0.2-1.6,0.4-2.8,0.7v-0.1C571.5,95.5,572.5,95.3,573.5,95.1L573.5,95.1L573.5,95.1z"/>
		<path class="st0" d="M573.2,95c-0.6,0.1-1.3,0.3-2,0.5l-0.4-0.4l0.2-0.8l0.2-0.8l0.1-0.2l0.9,0.7L573.2,95L573.2,95z"/>
		<path class="st0" d="M569.7,94.7c-0.7,0.2-1.5,0.4-2.3,0.6v-0.1l0.2-0.4l0.3-0.9c0.1-0.2,0.1-0.4,0.2-0.5c0.9-0.2,1.7-0.4,2.4-0.6
			l-0.3,0.7L569.7,94.7z"/>
		<path class="st0" d="M574.2,94.9c-0.1,0-0.2,0.1-0.4,0.1h-0.1C574,94.9,574.1,94.9,574.2,94.9L574.2,94.9L574.2,94.9L574.2,94.9z"
			/>
		<path class="st0" d="M571,94.1l-0.3,0.9l-0.1-0.1c-0.1-0.1-0.1-0.1-0.2-0.2c0,0,0-0.1,0.1-0.1c0.2-0.5,0.3-1,0.5-1.5l0.3,0.3
			L571,94.1z"/>
		<path class="st0" d="M574.7,94.6C574.6,94.6,574.6,94.6,574.7,94.6l-0.2-0.1l-0.6-0.5l-0.1-0.1l0.1-0.3h0.1l0.4,0.5L574.7,94.6
			L574.7,94.6z"/>
	</g>
	<polygon class="st0" points="571.5,92.9 572.8,94 573.4,94.6 573.5,94.3 573.1,93.9 572.5,93.3 571.6,92.6 	"/>
	<g>
		<path class="st0" d="M647.1,94.4L647.1,94.4c-0.3-0.1-0.6-0.2-1.1-0.3l0,0C646.3,94.2,646.7,94.3,647.1,94.4"/>
		<path class="st0" d="M646.7,94.3L646.7,94.3c-0.3,0-0.5-0.1-0.7-0.2l0.5-0.4l0.1,0.2L646.7,94.3z"/>
		<path class="st0" d="M573.8,93.7c-0.1,0-0.2,0.1-0.4,0.1l-0.9-0.6l-0.9-0.7v-0.1c1.1-0.3,2-0.5,2.8-0.7c0,0,0,0,0.1,0l1.4,1.2
			l0.2,0.1l0,0l0,0l0,0l0,0C575.6,93.1,574.9,93.3,573.8,93.7l-0.4-0.5L573.8,93.7L573.8,93.7z"/>
		<path class="st0" d="M576.2,93.1c-0.6,0.1-0.8,0.2-0.8,0.2S575.8,93.2,576.2,93.1"/>
		<path class="st0" d="M576.6,93c-0.1,0-0.2,0.1-0.3,0.1C576.4,93.1,576.5,93,576.6,93"/>
		<path class="st0" d="M570.4,92.5c-0.8,0.2-1.5,0.4-2.3,0.5c0.1-0.2,0.1-0.4,0.2-0.5c-0.8-0.8-1.6-1.6-2.4-2.4l0.4-1l1.5,1.3l1,0.8
			L570.4,92.5z"/>
		<path class="st0" d="M576.6,93L576.6,93L576.6,93"/>
		<path class="st0" d="M576.7,93L576.7,93C576.6,93,576.7,93,576.7,93"/>
	</g>
	<path class="st0" d="M576.7,93L576.7,93L576.7,93z"/>
	<g>
		<path class="st0" d="M576.7,93L576.7,93L576.7,93"/>
		<path class="st0" d="M576.8,92.9L576.8,92.9C576.8,93,576.8,93,576.8,92.9"/>
	</g>
	<path class="st0" d="M576.8,92.9L576.8,92.9L576.8,92.9z"/>
	<g>
		<path class="st0" d="M576.9,92.9L576.9,92.9L576.9,92.9"/>
		<path class="st0" d="M576.9,92.9"/>
	</g>
	<path class="st0" d="M576.9,92.9L576.9,92.9L576.9,92.9z"/>
	<g>
		<path class="st0" d="M577,92.9C577,92.9,576.9,92.9,577,92.9C576.9,92.9,577,92.9,577,92.9"/>
	</g>
	<path class="st0" d="M577,92.9L577,92.9L577,92.9z"/>
	<g>
		<path class="st0" d="M577,92.9L577,92.9L577,92.9"/>
		<path class="st0" d="M577,92.9L577,92.9L577,92.9"/>
		<path class="st0" d="M577,92.9"/>
		<path class="st0" d="M577.1,92.9C577.1,92.9,577,92.9,577.1,92.9C577,92.9,577.1,92.9,577.1,92.9"/>
		<path class="st0" d="M577.1,92.9"/>
	</g>
	<path class="st0" d="M577.1,92.9L577.1,92.9L577.1,92.9z"/>
	<g>
		<path class="st0" d="M577.1,92.9"/>
		<path class="st0" d="M577.1,92.9L577.1,92.9L577.1,92.9"/>
		<path class="st0" d="M577.1,92.9"/>
		<path class="st0" d="M571.5,92.5l-0.1,0.3l-0.3-0.3c0,0,0,0,0-0.1c0.1,0,0.2,0,0.3-0.1L571.5,92.5z"/>
	</g>
	<path class="st0" d="M571.6,92.4L571.6,92.4L571.6,92.4z"/>
	<g>
		<path class="st0" d="M571.3,92.3C571.3,92.3,571.2,92.3,571.3,92.3C571.2,92.3,571.2,92.3,571.3,92.3L571.3,92.3z"/>
		<path class="st0" d="M571.7,92.2c-0.1,0-0.2,0-0.3,0.1l-0.1-0.1c0.1-0.3,0.2-0.6,0.3-0.9c0.1-0.4,0.3-0.8,0.4-1.1
			c0.1-0.2,0.1-0.3,0.2-0.5c0.4-1.2,0.8-2.5,1.2-3.6l1.9,1.7l0.4,0.4c-0.4,1.1-0.7,2.2-1.1,3.3c-0.9,0.2-1.9,0.5-2.8,0.7l0.2-0.5
			l0.5-1.6L571.7,92.2z"/>
		<path class="st0" d="M570.8,91.8l-0.1,0.3l-4.2-3.8l0,0l2.6,2c0.1-0.4,0.3-0.8,0.4-1.2l-2.3-2.3l0.3-0.9l0,0
			c0.8,0.6,1.6,1.2,2.4,1.9c0.4-1.2,0.9-2.5,1.4-3.8l1.8,1.7l-1.2,3.2L570.8,91.8l-0.7-0.6L570.8,91.8z"/>
		<path class="st0" d="M566.1,88.9l-0.3,0.9C565.8,89.5,565.9,89.1,566.1,88.9l-1.8-0.4c-3.5-3.4-7.1-6.9-10.8-10.3l-1-0.9l-0.1-0.1
			l0,0c-0.1,0-0.9-0.2-1.3-0.2l0,0l0,0l0,0H551l-0.3,0.1l-0.6,0.3l-2.5,1.1l2.7-1.2L551,77h0.1h0.1l0,0l0,0c-0.2,0-0.3-0.1-0.3-0.1
			s1.5,0.2,1.7,0.3l0,0l0,0l0.1,0.1l0.3,0.2l1.1,1l4.4,3.8l-3-2.5L566.1,88.9z"/>
		<path class="st0" d="M552.2,77.1L552.2,77.1"/>
	</g>
	<polygon class="st0" points="567,86.7 567,86.7 567.2,86.4 	"/>
	<g>
		<path class="st0" d="M567,86.5l-0.1,0.2l-1.2-1.2l1.5,0.4C567.2,86.1,567.1,86.3,567,86.5"/>
		<path class="st0" d="M661.8,81.3L661.8,81.3l-0.4-0.1l0,0c0.1,0,0.1,0,0.2,0L661.8,81.3z"/>
		<path class="st0" d="M664.3,81L664.3,81h-0.2l0,0C664.2,81,664.2,81,664.3,81"/>
	</g>
	<polygon class="st0" points="704.1,117 704.1,120.1 704,114 	"/>
	<polygon class="st0" points="704,113.8 704,114 704,113.6 	"/>
	<polygon class="st0" points="704,110.7 704,113.6 703.9,107.7 	"/>
	<polygon class="st0" points="704.1,111.5 704.1,114.6 704.1,116.4 704.1,114.6 704.1,111.5 704.1,110.6 	"/>
	<polygon class="st0" points="704.1,111.5 704.1,114.6 704.1,116.4 704.1,110.6 	"/>
	<g>
		<path class="st0" d="M703.8,102.8l0.1,4.6l-0.1-3V102.8v-0.7v-0.4v-0.2v-0.1c-0.1-0.2-0.3-0.5-0.4-0.6c-0.3-0.6-0.6-1-0.7-1.2
			c2.2,3.7,0.6,1,1.1,1.8l0,0l0,0v0.1v0.1L703.8,102.8z"/>
		<path class="st0" d="M702.8,99.6"/>
		<path class="st0" d="M702.8,99.6L702.8,99.6L702.8,99.6c-0.1-0.2-0.2-0.3-0.2-0.3v-0.1l0,0C702.6,99.3,702.7,99.5,702.8,99.6"/>
		<path class="st0" d="M702.7,99.5L702.7,99.5L702.7,99.5L702.7,99.5"/>
		<path class="st0" d="M702.7,99.5L702.7,99.5L702.7,99.5"/>
		<path class="st0" d="M702.6,99.4"/>
	</g>
	<path class="st0" d="M702.6,99.4L702.6,99.4L702.6,99.4z"/>
	<g>
		<path class="st0" d="M702.6,99.4L702.6,99.4L702.6,99.4L702.6,99.4l-2.7-1.7l-2.6-1.7l-2.7-1.7l-2-1.2l-2.6-1.7l-2.7-1.6l-2.6-1.7
			l-2-1.3l-2.6-1.7l-1.9-1.3c4.4,2.9,9.2,5.9,14.2,9.1c2.5,1.6,5,3.2,7.6,4.8l1.9,1.2l0.5,0.3L702.6,99.4L702.6,99.4z"/>
	</g>
	<polygon class="st0" points="704,106 704,106.8 704,106 704,104.9 	"/>
	<polygon class="st0" points="704,106.8 704,106 704,104.9 	"/>
	<polygon class="st0" points="601.9,3.6 601.8,4.1 602.1,3.3 	"/>
	<path class="st0" d="M680,80.3l-4.7-2.4L680,80.3z"/>
	<path class="st0" d="M558.2,82.2l-3-2.5L558.2,82.2z"/>
	<g>
		<path class="st0" d="M570.1,96.3L570.1,96.3L570.1,96.3L570.1,96.3L570.1,96.3L570.1,96.3"/>
		<path class="st0" d="M575.1,95.1l-5,1.2C570.1,96.3,576,94.9,575.1,95.1C575.1,95.1,575.1,95.1,575.1,95.1"/>
	</g>
	<path class="st0" d="M570.2,96.3L570.2,96.3L570.2,96.3z"/>
	<polygon class="st0" points="570.3,96.1 570.2,96.2 570.2,96.3 570.2,96.2 570.3,96.1 570.4,95.7 	"/>
	<polygon class="st0" points="571,94.1 570.4,95.7 571,94.1 571.4,92.8 	"/>
	<g>
		<path class="st0" d="M574.6,95.2c-0.1,0-0.2,0.1-0.3,0.1C574.4,95.3,574.5,95.3,574.6,95.2"/>
	</g>
	<polygon class="st0" points="574,95.1 574.2,95.3 574.2,95.3 574.2,95.3 574,95.1 573.7,94.8 	"/>
	<g>
		<path class="st0" d="M574.8,95.2c-0.1,0-0.2,0-0.3,0.1C574.7,95.2,574.8,95.2,574.8,95.2"/>
		<path class="st0" d="M575,95.1c0,0-0.1,0-0.2,0C574.9,95.1,575,95.1,575,95.1"/>
	</g>
	<path class="st0" d="M575,95.1L575,95.1L575,95.1z"/>
	<polygon class="st0" points="572.8,94 573.6,94.7 573.7,94.8 573.6,94.7 572.8,94 571.4,92.8 	"/>
	<path class="st0" d="M571.4,92.8l1-2.8L571.4,92.8z"/>
	<path class="st0" d="M571.4,92.8l-0.8-0.7L571.4,92.8z"/>
	<path class="st0" d="M570.7,92.1l-4.3-3.8L570.7,92.1z"/>
	<g>
		<path class="st0" d="M568,96.3L568,96.3c0,0,0.5-0.1,1.3-0.3l0,0l0,0v-0.1l0.1-0.3l0.8-2.2l1.7-4.4l3.3-8.8l-3.3,8.8l-1.7,4.4
			l-0.8,2.2l-0.1,0.2v0.1l0,0l0,0c2-0.5,5.8-1.4,5.8-1.4s-3.8,0.9-5.8,1.4c-0.2,0-0.3,0.1-0.4,0.1c0.1,0,0.2-0.1,0.4-0.1
			C568.6,96.1,568.1,96.2,568,96.3c0.1,0,0.4-0.1,0.8-0.2C568.2,96.2,568,96.3,568,96.3"/>
		<path class="st0" d="M568,96.3L568,96.3L568,96.3"/>
	</g>
	<path class="st0" d="M568,96.3L568,96.3L568,96.3z"/>
	<g>
		<path class="st0" d="M568.8,96C568.8,96.1,568.8,96.1,568.8,96C568.8,96.1,568.8,96.1,568.8,96"/>
	</g>
	<polygon class="st0" points="574.4,94 574.8,94.5 574.9,94.5 574.9,94.6 574.9,94.5 574.8,94.5 574.4,94 573.5,93.3 	"/>
	<g>
		<path class="st0" d="M575,94.5L575,94.5L575,94.5"/>
		<path class="st0" d="M575,94.5"/>
	</g>
	<polygon class="st0" points="704,110.7 704,113.8 704.1,117 704.1,120.1 704.1,117 704,113.8 704,110.7 703.9,107.7 	"/>
	<polygon class="st0" points="704.1,111.5 704.1,114.6 704.1,116.4 704.1,114.6 704.1,111.5 704.1,110.6 	"/>
	<polygon class="st0" points="703.8,101.5 703.8,101.7 703.8,102.1 703.8,102.9 703.9,104.4 703.9,107.4 703.9,104.4 703.8,102.9 
		703.8,102.1 703.8,101.7 703.8,101.5 703.8,101.4 	"/>
	<g>
		<path class="st0" d="M703.4,100.7c0.1,0.2,0.2,0.4,0.4,0.7C703.7,101.2,703.5,100.9,703.4,100.7"/>
		<path class="st0" d="M702.7,99.6c0.1,0.2,0.4,0.6,0.7,1.2C703.1,100.2,702.9,99.8,702.7,99.6L702.7,99.6L702.7,99.6L702.7,99.6
			L702.7,99.6l-0.2-0.1l-2.7-1.6l-2.6-1.7l-2.7-1.7l-2-1.2l-2.6-1.7l-2.6-1.8l-2.6-1.7l-2-1.3l-2.6-1.7l-1.9-1.3l1.9,1.3l2.6,1.7
			l2,1.3l2.6,1.7l2.6,1.7l2.6,1.7l2,1.2l2.7,1.7l2.6,1.7l2.7,1.6h0.1l0,0l0,0l0,0C702.7,99.5,702.7,99.5,702.7,99.6
			c-0.1-0.2-0.2-0.3-0.2-0.3S702.6,99.3,702.7,99.6C702.8,99.6,702.8,99.6,702.7,99.6C702.8,99.6,702.8,99.6,702.7,99.6"/>
		<path class="st0" d="M702.8,99.6L702.8,99.6L702.8,99.6z"/>
		<path class="st0" d="M702.6,99.3c0,0.1,0.2,0.3,0.2,0.3C702.7,99.5,702.6,99.3,702.6,99.3"/>
		<path class="st0" d="M702.5,99.2C702.5,99.2,702.5,99.3,702.5,99.2C702.5,99.3,702.5,99.2,702.5,99.2"/>
	</g>
	<polygon class="st0" points="704,106 704,106.8 704,106 704,104.9 	"/>
	<path class="st0" d="M704.5,140.5l-0.3-20.4L704.5,140.5z"/>
	<path class="st0" d="M704.5,140.5l-0.3-20.4L704.5,140.5z"/>
	<g>
		<path class="st0" d="M704.8,152c5.4,0,10.7,0.1,16,0.2C715.6,152.2,710.2,152.1,704.8,152"/>
		<path class="st0" d="M704.8,152c-0.2,0.1-0.4,0.1-0.6,0.1h-0.1C704.4,152.1,704.6,152.1,704.8,152"/>
		<path class="st0" d="M703.3,150.7c0,0.7,0.1,1.4,0.9,1.4C703.4,152.1,703.3,151.5,703.3,150.7L703.3,150.7z"/>
	</g>
	<path class="st0" d="M703.3,150.7v-0.2V150.7z"/>
	<path class="st0" d="M703.3,150.5v-0.7V150.5z"/>
	<g>
		<path class="st0" d="M703.3,149.5c0,0.1,0,0.2,0,0.3C703.3,149.7,703.3,149.6,703.3,149.5"/>
		<path class="st0" d="M703.3,149.5"/>
	</g>
	<path class="st0" d="M703.3,149.5L703.3,149.5L703.3,149.5z M703.3,149.4L703.3,149.4l-0.1-4.1L703.3,149.4z"/>
	<path class="st0" d="M703.2,145.4l-0.3-8.1L703.2,145.4z"/>
	<g>
		<path class="st0" d="M716.1,149.8H713h-3.1H706h-0.1l0,0C709.3,149.7,712.8,149.7,716.1,149.8"/>
		<path class="st0" d="M705.8,149.6L705.8,149.6h-1l0,0C705.1,149.6,705.5,149.6,705.8,149.6"/>
		<path class="st0" d="M704.6,149.6L704.6,149.6h-0.5C704.3,149.6,704.4,149.6,704.6,149.6"/>
	</g>
	<polygon class="st0" points="710.8,149.6 715.2,149.7 713,149.6 	"/>
	<path class="st0" d="M705.7,147.5L705.7,147.5L705.7,147.5z"/>
	<path class="st0" d="M742.4,152.1l-1.5-0.6L742.4,152.1z"/>
	<g>
		<path class="st0" d="M762.5,158.8l-0.6,0.1l-1.4-0.5l-3.4-1.1l-6.9-2.3l-13.8-4.6c-6.3-2.1-10.3-1.2-15.5-2l9.8,0.3l2.5,0.1
			c2.9,0.3,2.1,0.6,3.4,0.9l4.6,1.7l1.5,0.6l6.6,2.5l-4.4-1.8h0.8l0,0l6,1.7c2.4,0.8,5.1,1.7,7.8,2.6l2.1,0.7l0.6,0.2l3.8-0.7
			c1.9-0.4,3.8-0.7,5.5-1.1c0.3,0,0.5-0.1,0.8-0.1c-0.3,0-0.5,0.1-0.8,0.1c-1.8,0.3-3.6,0.7-5.5,1.1c1.9-0.4,3.8-0.7,5.5-1.1
			c0.3,0,0.5-0.1,0.8-0.1c3.1-0.6,6-1.2,8.3-1.6c0.1,0,0.2,0,0.2-0.1l-1.6,0.2l6-1.6C775.6,154.9,771.9,156.9,762.5,158.8"/>
		<path class="st0" d="M763,158.3L763,158.3C763,158.3,762.9,158.3,763,158.3L763,158.3L763,158.3z"/>
		<path class="st0" d="M761.1,158.2L761.1,158.2C760.7,158.2,760.9,158.2,761.1,158.2L761.1,158.2z"/>
		<path class="st0" d="M771.4,156.2c-1.8,0.3-3.7,0.7-5.5,1.1C767.7,156.9,769.6,156.5,771.4,156.2c0.3-0.1,0.5-0.1,0.8-0.2
			C771.9,156.1,771.7,156.1,771.4,156.2"/>
		<path class="st0" d="M780.7,154.4c-0.1,0-0.2,0-0.2,0.1C780.6,154.4,780.7,154.4,780.7,154.4"/>
		<path class="st0" d="M780.7,154.4"/>
	</g>
	<path class="st0" d="M779.2,154.6l1.5-0.2L779.2,154.6z"/>
	<polygon class="st0" points="744.7,152.8 745.5,152.8 745.5,152.8 	"/>
	<g>
		<path class="st0" d="M720.8,148.5c5.3,0.8,9.3-0.1,15.5,2C730.1,148.4,726.1,149.3,720.8,148.5"/>
	</g>
	<path class="st0" d="M759.4,162.6L759.4,162.6L759.4,162.6z"/>
	<path class="st0" d="M759.5,162.6h0.2H759.5z"/>
	<g>
		<path class="st0" d="M770.3,161.3c-2.5,0.6-7.8,1.2-10.6,1.3C762.6,162.5,767.8,161.9,770.3,161.3"/>
		<path class="st0" d="M757.1,162.4c0.5,0.1,0.9,0.1,1.3,0.1C758,162.5,757.6,162.5,757.1,162.4"/>
		<path class="st0" d="M757.1,162.4L757.1,162.4l-10.9-4.7c-4.4-1.4-9.5-3.5-13.4-4.4h-14.6h14.6c3.9,0.9,9,3,13.4,4.4L757.1,162.4z
			"/>
	</g>
	<polygon class="st1" points="282.5,168.7 282.5,116.6 297,116.6 297,137.2 314.7,137.2 314.7,116.6 329.1,116.6 329.1,168.7 
		314.7,168.7 314.7,147.3 296.9,147.3 296.9,168.7 	"/>
	<polygon class="st1" points="338.9,168.7 338.9,116.6 378.5,116.6 378.5,126.7 353.3,126.7 353.3,137.5 376.5,137.5 376.5,147.6 
		353.3,147.6 353.3,158.6 378.5,158.6 378.5,168.7 	"/>
	<g>
		<path class="st1" d="M406.7,138.7c4.6,0,9.1-0.7,9.1-6s-4.5-6-9.1-6h-5.6v12H406.7z M401.1,168.7h-14.4v-52.1h24.1
			c8.8,0,20.2,2.4,20.2,13.4c0,7.8-6,11.9-13.3,12.8v0.3c9.2,0.2,11,4.9,11.9,13c0.4,4.3,1.2,8.4,2.4,12.6h-15.7
			c-0.8-3.6-1.2-7.4-1.6-11c-0.6-6.3-0.9-8.9-8.2-8.9h-5.4V168.7z"/>
	</g>
	<polygon class="st1" points="470.9,116.6 488,116.6 470,139.6 489.4,168.7 471.5,168.7 454.3,141 454.2,141 454.2,168.7 
		439.8,168.7 439.8,116.6 454.2,116.6 454.2,139.5 454.3,139.5 	"/>
	<g>
		<path class="st1" d="M545.2,116.6v33c-0.1,14.5-11.8,20.2-24.9,20.2c-13.1,0-24.7-5.7-24.9-20.2v-33h14.4v32.2
			c0.2,6.6,3.7,10.8,10.5,10.8s10.2-4.2,10.5-10.8v-32.2H545.2z"/>
	</g>
	<polygon class="st1" points="555.1,168.7 555.1,116.6 569.5,116.6 569.5,158.6 593.1,158.6 593.1,168.7 	"/>
	<polygon class="st1" points="599.3,168.7 599.3,116.6 639,116.6 639,126.7 613.8,126.7 613.8,137.5 637,137.5 637,147.6 
		613.8,147.6 613.8,158.6 639,158.6 639,168.7 	"/>
	<path class="st1" d="M675.2,131.9c0.1-2-0.6-3.5-1.9-4.6c-1.2-1.1-3.1-1.7-5.6-1.7c-3.3,0-6.2,2.2-6.2,4.8c0,3.8,4.6,5,8.4,6.1
		c8.7,2.2,21.4,3.1,21.4,17.2c0,11-10.8,16.2-22.9,16.2c-12.1,0-22.8-3.5-23-17.7h14.4c-0.1,4.9,3.5,7.6,8.7,7.6
		c3.3,0,7.6-1.7,7.6-5.2c0-7.1-10.7-5.6-22-10.5c-5.3-2.3-7.9-7.1-7.9-12.7c0.6-12.3,11.4-15.7,22.3-15.7c10.7,0,21.8,3.8,20.9,16.4
		h-14.2V131.9z"/>
	<path class="st0" d="M43.4,117.4c4.3,1.4,8.3,5.4,9.1,9.9c1,4.8-1.2,8.9-5,11.7c-1.6,0.9-3.3,1.7-5.1,2.3v0.3
		c4.5,0.4,8.7,3.2,11,7.3c1.9,4.5,1,8.7-1.3,12.7c-4.6,5.9-11.7,7.2-19.2,6.9H7.4V116C19.8,116.2,34.5,115.1,43.4,117.4 M39.6,149.2
		c-3.1-5.1-11.6-3.3-16.8-3.5v13.6c4.3-0.2,9.2,0.4,13.3-0.5c1.7-0.9,3.3-2.1,4-3.9C40.6,153.1,40.5,150.8,39.6,149.2 M38.6,129.4
		c-1.5-3.3-6-3.8-11.1-3.7c-2.7,0-4.8,0-4.8,0v12.7c5.6-0.4,11.3,1.5,15.1-2.4C39.3,134.3,39.4,131.5,38.6,129.4"/>
	<path class="st2" d="M176.8,132c4.4,0,8-3.6,8-8.1c0-4.4-3.6-8-8-8s-8.1,3.6-8.1,8C168.7,128.4,172.3,132,176.8,132z"/>
	<path class="st0" d="M174.9,124.4h2l2.6,4.1h1.3l-2.7-4.1c1.6-0.1,2.8-0.8,2.8-2.6c0-1.6-0.8-2.5-3.2-2.5h-4v9.2h1.2L174.9,124.4
		L174.9,124.4z M174.9,123.3v-3h2.5c1.1,0,2.2,0.2,2.2,1.5c0,1.7-1.8,1.5-3.1,1.5H174.9z"/>
	<path class="st0" d="M77.4,116.5l0.1,24.3c0,0,12.1-16.2,17.9-24.2h17l-19,23.9l20,28.8H95.1c0,0-17.4-27.6-17.6-27.6
		c-0.1,9.8,0,27.4,0,27.4H61.9l-0.1-52.7h15.6V116.5z"/>
	<path class="st0" d="M133.8,116.4V141l18.5-24.5h17.1l-19.5,24.1c6.2,9.7,19.7,28.7,19.7,28.7h-18.2c0,0-17.4-27.3-17.6-27.3v27.1
		h-15.2v-52.7C118.6,116.4,133.8,116.4,133.8,116.4z"/>
	<polygon class="st3" points="95.1,96.6 187.4,96.6 187.4,190.2 281.2,96.4 281.1,2.6 187.1,96.2 93.1,2.3 0.9,2.3 	"/>
	<rect x="94.8" y="190.2" class="st3" width="92.7" height="92.8"/>
</g>
</svg>
