<?xml version="1.0" encoding="utf-8"?>
<!-- Generator: Adobe Illustrator 23.0.3, SVG Export Plug-In . SVG Version: 6.00 Build 0)  -->
<svg version="1.1" id="Ebene_1" xmlns="http://www.w3.org/2000/svg" xmlns:xlink="http://www.w3.org/1999/xlink" x="0px" y="0px"
	 viewBox="0 0 595.28 403.14" style="enable-background:new 0 0 595.28 403.14;" xml:space="preserve">
<style type="text/css">
	.st0{fill:#FCD600;}
	.st1{clip-path:url(#SVGID_2_);}
	.st2{clip-path:url(#SVGID_4_);fill:#E01F2E;}
	.st3{clip-path:url(#SVGID_6_);}
	.st4{clip-path:url(#SVGID_8_);}
	.st5{clip-path:url(#SVGID_10_);}
	.st6{clip-path:url(#SVGID_12_);}
	.st7{clip-path:url(#SVGID_14_);}
	.st8{clip-path:url(#SVGID_16_);}
	.st9{clip-path:url(#SVGID_18_);}
	.st10{clip-path:url(#SVGID_20_);}
	.st11{clip-path:url(#SVGID_22_);}
	.st12{clip-path:url(#SVGID_24_);}
	.st13{clip-path:url(#SVGID_26_);}
	.st14{clip-path:url(#SVGID_28_);}
	.st15{clip-path:url(#SVGID_30_);}
	.st16{clip-path:url(#SVGID_32_);}
	.st17{clip-path:url(#SVGID_34_);}
	.st18{clip-path:url(#SVGID_36_);}
	.st19{clip-path:url(#SVGID_38_);}
	.st20{clip-path:url(#SVGID_40_);}
	.st21{clip-path:url(#SVGID_42_);}
	.st22{clip-path:url(#SVGID_44_);}
</style>
<polygon class="st0" points="134.32,33.1 221.58,123.82 311.08,123.82 223.1,33.1 "/>
<polygon class="st0" points="312.72,123.67 312.72,210.93 401.99,119.79 401.99,33.12 "/>
<rect x="222.55" y="210.93" class="st0" width="89.2" height="87.27"/>
<g>
	<g>
		<defs>
			<rect id="SVGID_1_" x="25.75" y="33.1" width="544.02" height="344.4"/>
		</defs>
		<clipPath id="SVGID_2_">
			<use xlink:href="#SVGID_1_"  style="overflow:visible;"/>
		</clipPath>
		<path class="st1" d="M135.61,171.88h9.05v-11.19h-9.05v-9.09h9.05v-14.3H117.1v60.08h27.56v-14.3h-9.05V171.88z M144.66,171.88
			h2.57c4.38,0,6.48,1.94,6.48,5.47c0,4.63-3.37,5.72-7.24,5.72h-1.81v14.3h6.52c10.6,0,21.04-6.23,21.04-18.26
			c0-8.84-5.05-13.13-10.43-14.98c4.46-2.44,7.4-5.72,7.4-11.78c0-6.14-3.37-15.06-19.18-15.06h-5.34v14.3h0.71
			c3.79,0,6.31,1.09,6.31,4.12c0,3.87-2.44,4.96-6.31,4.96h-0.71v11.21H144.66z"/>
	</g>
</g>
<polygon points="175.73,197.37 194.24,197.37 194.24,179.62 199.38,173.98 214.19,197.37 237.24,197.37 211.91,160.77 233.71,137.3
	210.91,137.3 194.41,157.99 194.24,157.99 194.24,137.3 175.73,137.3 "/>
<polygon points="236.95,197.37 255.47,197.37 255.47,179.62 260.6,173.98 275.41,197.37 298.47,197.37 273.14,160.77 294.93,137.3
	272.13,137.3 255.64,157.99 255.47,157.99 255.47,137.3 236.95,137.3 "/>
<polygon points="335.4,300.81 335.4,185.72 449.22,70.63 449.22,185.13 "/>
<g>
	<g>
		<defs>
			<rect id="SVGID_3_" x="25.75" y="33.1" width="544.02" height="344.4"/>
		</defs>
		<clipPath id="SVGID_4_">
			<use xlink:href="#SVGID_3_"  style="overflow:visible;"/>
		</clipPath>
		<path class="st2" d="M405,178.8l16.6-17.07V134.9l-46.57,46.13l-3.06,9.64l-33.02,0.56c0,0,23.62-15.64,33.58-24.68
			c17.06-15.49,3.78-31.74-9.93-35.89c-35.52-10.76-62.51,2.13-62.51,2.13l-7.52,20.69l2.23,1.01c0,0,12.7-11.77,36.26-7.6
			c12.23,2.16,11.13,11.69,5.1,16.79c-16.03,13.56-63.07,45.91-63.07,45.91l0.37,1.3l92.66,0.04l5.66-15.51h46.09l-6.28,15.51h10
			V178.8H405z M421.61,161.73l16.6-17.07l-14.1,34.14h-2.5v32.13h26.85l4.5-15.51h14.37l6.59-16.43h-15.49l18.09-50.93l-47.63-0.37
			l-7.29,7.22v26.82H421.61z"/>
	</g>
	<g>
		<defs>
			<rect id="SVGID_5_" x="25.75" y="33.1" width="544.02" height="344.4"/>
		</defs>
		<clipPath id="SVGID_6_">
			<use xlink:href="#SVGID_5_"  style="overflow:visible;"/>
		</clipPath>
		<path class="st3" d="M136.81,373.07v4.18c-0.75,0.16-1.52,0.25-2.31,0.25h-6.17c-3.73-0.25-7.11-1.41-7.46-5.85
			c-0.06-0.74,0.09-1.34,0.19-2.03c0.25-1.64-0.32-1.22,5.86-1.22c0,2.7-0.13,5.56,4.55,5.56
			C133.53,373.96,135.31,373.83,136.81,373.07 M134.76,361.82c-2.1,0-3.43-0.16-4.76-1.57c-3.65-3.9-0.46-17.17,6.81-18.55v-4.11
			c-5.26,0.8-10.18,4.9-12.43,10.56c-0.72,1.81-1.51,4.57-1.51,7.09c0,3.03-0.09,5.9,2.33,8.29c2.63,2.6,7.45,3.02,11.61,1.64v-3.58
			C136.17,361.74,135.49,361.82,134.76,361.82 M136.81,341.7c0.4-0.08,0.81-0.12,1.24-0.12c2.15,0,3.61-0.02,5.39,1.7
			c3.62,3.49,0.58,11.81-0.94,14.13c-1.24,1.89-3.05,3.59-5.68,4.19v3.58c1.4-0.46,2.73-1.13,3.88-1.98
			c0.99-0.74,0.97-1.13,1.66-1.63c-0.16,1.9-1.57,6.47-2.44,8.19c-0.85,1.69-1.89,2.71-3.1,3.32v4.18c3.15-0.67,5.92-2.61,7.26-4.6
			c3.3-4.89,5.92-21.65,7.49-28.68c0.47-2.12,0.95-3.96,1.41-5.92h-5.31c-0.08,0.94-0.54,2.58-0.76,3.54
			c-1.11-0.81-0.44-1.61-2.94-2.87c-2.3-1.16-4.76-1.48-7.15-1.12v4.09H136.81z"/>
	</g>
	<g>
		<defs>
			<rect id="SVGID_7_" x="25.75" y="33.1" width="544.02" height="344.4"/>
		</defs>
		<clipPath id="SVGID_8_">
			<use xlink:href="#SVGID_7_"  style="overflow:visible;"/>
		</clipPath>
		<path class="st4" d="M239.46,362.83c-8.05,0-6.64-7.61-5.37-12.7c0.87-3.46,3.57-7.77,7.4-8.81v-3.44
			c-3.08,0.89-3.93,2.6-5.58,3.71c0.22-0.96,3.27-15.09,3.29-15.93h-4.83c-1.13,0.23-0.69,1.19-1.5,4.55
			c-0.41,1.7-0.76,3.39-1.12,5.2l-4.35,20.69c-0.44,1.89-1.81,9.1-2.38,10.27c0.66,0,4.72,0.06,5.01-0.05
			c0.76-0.29,0.57-0.82,0.76-1.77c0.19-0.99,0.19-1.52,0.81-1.97c0.76,2.85,5.07,4.82,9.88,4.15v-4.18
			C240.85,362.73,240.18,362.83,239.46,362.83 M241.5,341.32c0.56-0.15,1.15-0.24,1.76-0.24c2.48,0,3.55-0.11,5.13,1.7
			c3.58,4.11,0.58,17.64-6.88,19.77v4.18c4.92-0.69,10.36-4.16,13.05-12.33c2.31-7.02,2.21-17.11-8-17.11
			c-2.18,0-3.8,0.23-5.04,0.59v3.44H241.5z"/>
	</g>
	<g>
		<defs>
			<rect id="SVGID_9_" x="25.75" y="33.1" width="544.02" height="344.4"/>
		</defs>
		<clipPath id="SVGID_10_">
			<use xlink:href="#SVGID_9_"  style="overflow:visible;"/>
		</clipPath>
		<path class="st5" d="M476.7,362.83c-9.55,0-6.31-11.83-3.55-16.95c1.22-2.26,3.33-3.79,5.54-4.46v-3.51
			c-1.33,0.4-2.57,1.02-3.69,1.97c-0.73,0.62-1.06,1.18-1.84,1.7c0.16-1.92,3.09-13.53,3.29-15.93h-4.93
			c-1.01,0.41-0.88,1.93-1.87,6.85c-1.21,6.01-3.35,16.48-4.78,22.54c-0.45,1.9-0.78,3.68-1.21,5.62c-0.21,0.97-1.11,5.16-1.37,5.71
			h5.31c0.16-0.7,0.34-1.33,0.5-2.03c0.23-0.98,0.09-1.27,0.76-1.77c0.65,2.81,4.98,4.82,9.83,4.16v-4.18
			C478.05,362.73,477.39,362.83,476.7,362.83 M478.69,341.42c4.02-1.22,8.38,0.37,8.38,5.48v1.77c0,5.69-3.29,12.45-8.38,13.89v4.18
			c4.93-0.68,10.4-4.13,13.09-12.34c2.41-7.35,1.97-17.11-8-17.11c-1.78,0-3.5,0.15-5.09,0.63V341.42z"/>
	</g>
	<g>
		<defs>
			<rect id="SVGID_11_" x="25.75" y="33.1" width="544.02" height="344.4"/>
		</defs>
		<clipPath id="SVGID_12_">
			<use xlink:href="#SVGID_11_"  style="overflow:visible;"/>
		</clipPath>
		<path class="st6" d="M361.62,349.43h-7.33c0.04-1.71,1.24-3.72,2.09-4.73c1.51-1.79,3.39-2.87,5.24-3.31v-3.84
			c-4.25,0.61-7.37,2.41-10.02,5.92c-2.1,2.79-4.4,9.03-4.4,13.81c0,3.42,1.07,5.78,2.84,7.53c2.59,2.57,7.32,3.05,11.58,2.08v-4
			c-3.2,1.07-6.91,0.26-8.27-2.4c-1.48-2.89-0.39-4.4-0.32-7.26h8.6v-3.8H361.62z M361.62,366.88v-4c2.34-0.78,4.41-2.57,5.06-5.36
			h5.31c-0.23,2.77-2.76,5.64-5,7.14C365.47,365.67,363.6,366.43,361.62,366.88 M368.7,349.43h-7.08v3.79h11.89
			c0-1.97,0.76-3.18,0.76-5.31v-3.03c0-4.61-4.13-7.59-8.85-7.59c-1.36,0-2.62,0.08-3.79,0.25v3.84c3.74-0.9,7.33,0.79,7.33,4.51
			C368.96,348.03,368.73,348.45,368.7,349.43"/>
	</g>
	<g>
		<defs>
			<rect id="SVGID_13_" x="25.75" y="33.1" width="544.02" height="344.4"/>
		</defs>
		<clipPath id="SVGID_14_">
			<use xlink:href="#SVGID_13_"  style="overflow:visible;"/>
		</clipPath>
		<path class="st7" d="M69,348.95c-13.15,1.91-15.53,13.08-10.31,16.86c2.58,1.87,6.76,2.07,10.31,0.68v-3.76
			c-0.85,0.21-1.8,0.36-2.53,0.36c-2.48,0-4.55-1.26-4.55-3.79c0-3.82,3.4-5.77,7.08-6.52V348.95z M69,337.7
			c-1.81,0.45-3.44,1.15-4.6,2.07c-1.6,1.28-3.34,3.98-3.5,5.86h5.31c0.57-1.19,1.12-2.87,2.78-3.9v-4.03H69z M74.06,362.58
			c0.53,0.45,0.22,0.12,0.06,0.82c-0.01,0.06-0.03,0.14-0.04,0.21l-0.27,2.77h5.06c0-2.12,0.48-3.88,0.79-5.78
			c0.85-5.14,3.51-13.06,3.51-17.74c0-5.3-8.13-6.64-14.16-5.15v4.04c0.89-0.55,2.09-0.91,3.79-0.91c6.94,0,4.36,5.45,4.3,8.09
			c-2.1-0.17-1-0.25-4.05-0.25c-1.45,0-2.8,0.1-4.05,0.28v3.82c2.58-0.53,5.3-0.47,7.08-0.06c-0.08,0.92-0.62,2.92-0.91,3.89
			c-0.42,1.36-0.97,2.3-1.78,3.28c-0.82,0.99-1.61,1.66-2.78,2.28c-0.39,0.2-0.97,0.4-1.61,0.56v3.76
			C71.02,365.7,72.84,364.39,74.06,362.58"/>
	</g>
	<g>
		<defs>
			<rect id="SVGID_15_" x="25.75" y="33.1" width="544.02" height="344.4"/>
		</defs>
		<clipPath id="SVGID_16_">
			<use xlink:href="#SVGID_15_"  style="overflow:visible;"/>
		</clipPath>
		<path class="st8" d="M266.78,349.43c1.17-5.04,4.38-7.4,7.44-8.07v-3.94c-4.18,0.6-7.95,3.33-9.83,5.83
			c-2.08,2.76-4.44,8.57-4.44,13.27c0,3.24,0.28,6.5,2.99,8.64c2.82,2.23,7.22,2.67,11.28,1.75v-4.04c-4,1.25-8.96-0.11-8.96-5.09
			c0-0.9-0.01-3.35,0.3-4c0.4-0.85,1.14-0.57,2.48-0.55h6.18v-3.8C271.74,349.42,269.26,349.43,266.78,349.43 M274.22,366.9v-4.04
			c2.56-0.8,4.73-2.67,4.95-5.35h5.56c-0.31,1.31-1.2,3.11-1.91,4.16C281.06,364.26,277.77,366.1,274.22,366.9 M274.22,341.35
			c2.5-0.55,4.9,0.02,6.03,1.18c0.78,0.79,1.54,2.75,1.39,4.29c-0.3,3.03,0.15,2.63-3.23,2.61c-1.4-0.01-2.79-0.01-4.19-0.01v3.8
			H286c0.59-2.53,1.01-4.36,1.01-7.33c0-5.28-3.6-8.6-8.85-8.6h-2.28c-0.56,0-1.11,0.04-1.66,0.12V341.35z"/>
	</g>
	<g>
		<defs>
			<rect id="SVGID_17_" x="25.75" y="33.1" width="544.02" height="344.4"/>
		</defs>
		<clipPath id="SVGID_18_">
			<use xlink:href="#SVGID_17_"  style="overflow:visible;"/>
		</clipPath>
		<path class="st9" d="M445.85,349.43h-7.34c0.35-4.24,3.85-7.06,7.34-7.95v-4.08c-6.31,0.78-10.54,5.71-12.62,11.31
			c-0.63,1.68-1.55,4.86-1.55,7.05c0,3.41-0.16,7.05,3.13,9.51c3.05,2.29,7.34,2.41,11.04,1.66v-4.03c-2.3,0.76-4.96,0.64-7-0.91
			c-2.37-1.8-2.18-7.04-1.36-8.76h8.35L445.85,349.43L445.85,349.43z M445.85,366.92v-4.03c2.66-0.89,4.85-2.96,5.05-5.37h5.56
			c-0.65,1.36-0.62,2.33-1.94,4.13c-0.5,0.68-0.77,1.07-1.45,1.59c-1.77,1.36-2.85,2.55-5.76,3.35
			C446.84,366.71,446.35,366.82,445.85,366.92 M452.92,349.43h-7.07v3.79h11.88c0.28-3.34,2.74-9.36-1.41-13.51l-0.39-0.36
			c-2.47-2.1-5.38-2.06-8.31-2.06c-0.6,0-1.19,0.04-1.76,0.11v4.08c3.67-0.94,7.33,0.25,7.33,4.16
			C453.18,346.62,453.29,348.6,452.92,349.43"/>
	</g>
	<g>
		<defs>
			<rect id="SVGID_19_" x="25.75" y="33.1" width="544.02" height="344.4"/>
		</defs>
		<clipPath id="SVGID_20_">
			<use xlink:href="#SVGID_19_"  style="overflow:visible;"/>
		</clipPath>
		<path class="st10" d="M511.4,349.43h-7.39c0.27-3.26,3.26-7.04,7.39-8.01v-4.02c-8.98,1.15-14.22,11.17-14.22,18.86
			c0,3.26,0.16,6.65,2.99,8.9c3.03,2.4,7.45,2.53,11.23,1.76v-4.04c-3.99,1.29-8.91-0.01-8.91-5.35c0-5.5-0.56-4.3,8.85-4.3h0.05
			v-3.8H511.4z M511.4,366.91v-4.04c2.59-0.83,4.79-2.75,5-5.35h5.56c-1,4.31-4.98,7.93-9.15,9.06
			C512.36,366.7,511.89,366.81,511.4,366.91 M518.43,349.43h-7.03v3.79h11.83c0.23-2.7,1.84-6.74,0.48-10.6
			c-1.72-4.88-5.97-5.33-10.6-5.33c-0.59,0-1.16,0.04-1.72,0.11v4.02c0.15-0.03,0.29-0.07,0.44-0.09
			C517.75,340.25,519.68,344.07,518.43,349.43"/>
	</g>
	<g>
		<defs>
			<rect id="SVGID_21_" x="25.75" y="33.1" width="544.02" height="344.4"/>
		</defs>
		<clipPath id="SVGID_22_">
			<use xlink:href="#SVGID_21_"  style="overflow:visible;"/>
		</clipPath>
		<path class="st11" d="M171.19,349.43h-7.35c0.27-3.3,3.29-6.63,5.99-7.66c0.41-0.16,0.87-0.29,1.35-0.39v-3.82
			c-3.92,0.57-7,2.16-9.66,5.51c-1.98,2.49-4.51,8.53-4.51,12.94c0,4.92,0.44,9.2,6.36,10.83c2.45,0.68,5.3,0.64,7.81,0.11v-4.07
			c-3.98,1.21-8.86-0.12-8.86-4.85l0.25-4.81h8.61L171.19,349.43L171.19,349.43z M171.19,366.95v-4.07c2.6-0.79,4.82-2.65,5.05-5.35
			h5.56c-1.6,3.34-0.95,3.92-5.09,7.05c-1.15,0.87-2.65,1.56-4.07,2C172.17,366.71,171.69,366.84,171.19,366.95 M178.26,349.43
			h-7.07v3.79h11.88c0.03-1.48,1.01-4.32,1.01-6.83c0-5.48-3.41-9.1-8.85-9.1c-1.44,0-2.78,0.08-4.04,0.26v3.82
			c1.42-0.29,3.07-0.31,4.37,0.13C179.22,342.76,178.62,346.63,178.26,349.43"/>
	</g>
	<g>
		<defs>
			<rect id="SVGID_23_" x="25.75" y="33.1" width="544.02" height="344.4"/>
		</defs>
		<clipPath id="SVGID_24_">
			<use xlink:href="#SVGID_23_"  style="overflow:visible;"/>
		</clipPath>
		<path class="st12" d="M307.5,357.52c0,6.09-8.36,6.73-10.96,4.13c-2.06-2.07,0.19-3.88-1.43-3.88c-5.42,0-5.31-0.65-5.31,3.03
			c0,4.08,4.2,6.32,8.09,6.32c4.03,0,8.77-0.1,11.7-2.96c1.95-1.9,3.98-4.21,3.98-7.91c0-4.04-3.3-5.07-6.35-6.04
			c-2.38-0.76-6.88-1.32-7.96-2.67c-1.61-2.03-0.14-6.22,6.47-6.22c4.36,0,4.05,2.41,4.05,4.55h5.56c0-1.28,0.25-1.38,0.25-2.78
			c0-6.02-11.75-8.08-18.79-2.86c-3.41,2.53-7.78,10.61,2.4,13.43C302.44,354.57,307.5,355.14,307.5,357.52"/>
	</g>
	<g>
		<defs>
			<rect id="SVGID_25_" x="25.75" y="33.1" width="544.02" height="344.4"/>
		</defs>
		<clipPath id="SVGID_26_">
			<use xlink:href="#SVGID_25_"  style="overflow:visible;"/>
		</clipPath>
		<path class="st13" d="M321.16,346.64c0,2.33-0.26,3.77,2.37,5.47c4.82,3.12,12.05,1.67,12.05,5.91c0,6.04-11.47,6.7-11.87,1.73
			c-0.19-2.35,1.72-1.99-4.82-1.99c-1.85,0-2.31,9.36,7.08,9.36c4.07,0,8.75-0.08,11.7-2.96c1.95-1.91,3.98-4.18,3.98-7.91
			c0-4.04-3.3-5.06-6.35-6.04c-2.38-0.76-6.88-1.32-7.96-2.67c-1.61-2.03-0.14-6.22,6.47-6.22c4.36,0,4.05,2.32,4.05,4.55h5.56
			c0-1.28,0.25-1.38,0.25-2.78c0-6.8-15.28-8.54-21-0.51C322.06,343.46,321.16,345.19,321.16,346.64"/>
	</g>
	<g>
		<defs>
			<rect id="SVGID_27_" x="25.75" y="33.1" width="544.02" height="344.4"/>
		</defs>
		<clipPath id="SVGID_28_">
			<use xlink:href="#SVGID_27_"  style="overflow:visible;"/>
		</clipPath>
		<path class="st14" d="M98.55,341.88l0.53-1.83c0.14-0.76,0.25-1.42,0.53-2h-5.56c-0.09,1.08-1.11,5.41-1.41,6.94
			c-0.48,2.41-4.37,19.99-4.41,21.39h5.31l3.02-14.18c0.36-1.72,0.56-3.1,1.2-4.61c3.55-8.41,13.48-6.39,13.48-2.45
			c0,4.47-1.89,11.64-2.93,16.29c-0.29,1.28-0.71,4.1-1.12,4.95c1.27,0,2.54-0.01,3.81,0.02c2.5,0.04,1.74,0.61,3.5-8.13
			c0.86-4.27,2.08-8.58,2.64-13.06c0.27-2.15-0.59-4.26-1.91-5.58c-1.41-1.41-3.15-1.85-5.72-2.14c-4.37-0.49-8.81,1.84-10.66,4.61
			L98.55,341.88z"/>
	</g>
	<g>
		<defs>
			<rect id="SVGID_29_" x="25.75" y="33.1" width="544.02" height="344.4"/>
		</defs>
		<clipPath id="SVGID_30_">
			<use xlink:href="#SVGID_29_"  style="overflow:visible;"/>
		</clipPath>
		<path class="st15" d="M538.62,341.88l0.53-1.83c0.14-0.76,0.25-1.42,0.53-2h-5.56c-0.09,1.15-3.94,18.77-4.4,21.14
			c-0.27,1.37-0.49,2.17-0.76,3.54c-0.23,1.15-0.63,2.55-0.65,3.65h5.31c0.69-2.95,3.29-16.59,4.22-18.79
			c1.02-2.43,3.2-4.78,5.86-5.53c1.69-0.48,3.12-0.53,4.82,0.06c4.14,1.45,2.81,5.66,1.99,9.53c-0.36,1.69-2.96,14.17-3.23,14.73
			c1.27,0,2.54-0.01,3.81,0.02c2.5,0.04,1.74,0.61,3.5-8.13c0.86-4.27,2.08-8.58,2.64-13.06c0.27-2.15-0.59-4.26-1.91-5.58
			c-1.41-1.41-3.15-1.85-5.73-2.14c-4.37-0.49-8.81,1.84-10.66,4.61L538.62,341.88z"/>
	</g>
	<g>
		<defs>
			<rect id="SVGID_31_" x="25.75" y="33.1" width="544.02" height="344.4"/>
		</defs>
		<clipPath id="SVGID_32_">
			<use xlink:href="#SVGID_31_"  style="overflow:visible;"/>
		</clipPath>
		<path class="st16" d="M25.75,366.37l22.78,0.01c2.1,0.04,1.81,0.18,2.17-1.62c0.24-1.21,0.59-2.14,0.59-3.45H32.58l3.73-17.77
			c0.62-3.11,1.28-5.89,1.9-8.98c0.27-1.35,1.62-8.22,1.96-8.92h-5.82l-4.28,20.25C28.65,352.75,27.32,359.64,25.75,366.37"/>
	</g>
	<g>
		<defs>
			<rect id="SVGID_33_" x="25.75" y="33.1" width="544.02" height="344.4"/>
		</defs>
		<clipPath id="SVGID_34_">
			<use xlink:href="#SVGID_33_"  style="overflow:visible;"/>
		</clipPath>
		<path class="st17" d="M415.75,366.37h5.56c0-1.53,3.8-18.56,4.19-20.34c0.42-1.88,4.15-18.87,4.15-20.38h-5.31l-6.43,30.5
			C417.23,359.62,416.52,363.03,415.75,366.37"/>
	</g>
	<g>
		<defs>
			<rect id="SVGID_35_" x="25.75" y="33.1" width="544.02" height="344.4"/>
		</defs>
		<clipPath id="SVGID_36_">
			<use xlink:href="#SVGID_35_"  style="overflow:visible;"/>
		</clipPath>
		<path class="st18" d="M388.68,342.6l0.04,0.04v-4.59h-4.59c0,2.86-3.37,17.13-4.15,21.14c-0.31,1.59-1.38,5.94-1.41,7.19
			c6.44,0,5.25,0.83,6.05-3.05c0.27-1.3,0.48-2.54,0.78-3.78c0.59-2.48,1.03-4.91,1.62-7.49c0.49-2.15,1.01-3.85,1.71-5.17v-4.24
			C388.69,342.63,388.67,342.61,388.68,342.6 M388.72,342.63l0.04,0.04c0,0-0.02-0.01-0.04-0.02v4.24c1.58-2.99,4.04-4.04,9.07-4.04
			c0.68,0,0.7,0.12,1.26,0.25c0.25-1.06,0.92-4.59,1.26-5.31c-3.33,0-4.43-0.11-6.91,0.93c-0.93,0.39-1.82,0.92-2.52,1.53
			c-0.83,0.73-1.21,1.59-1.96,2.09c0.03-1.21,0.5-3.21,0.76-4.3h-0.98v4.59H388.72z"/>
	</g>
	<g>
		<defs>
			<rect id="SVGID_37_" x="25.75" y="33.1" width="544.02" height="344.4"/>
		</defs>
		<clipPath id="SVGID_38_">
			<use xlink:href="#SVGID_37_"  style="overflow:visible;"/>
		</clipPath>
		<path class="st19" d="M198.49,342.6c0.03-1.44,0.64-3.08,0.76-4.55h-5.56c0,2.25-0.7,5.15-1.16,7.19l-4.41,21.14h5.56
			c0-1.4,2.68-13.05,3.01-14.69c1.37-6.64,5.18-10.15,11.91-8.58c0.46-0.95,0.97-4.03,1.26-5.31c-5.61,0-7.78,0.38-10.92,4.26
			C198.79,342.26,198.63,342.44,198.49,342.6"/>
	</g>
	<g>
		<defs>
			<rect id="SVGID_39_" x="25.75" y="33.1" width="544.02" height="344.4"/>
		</defs>
		<clipPath id="SVGID_40_">
			<use xlink:href="#SVGID_39_"  style="overflow:visible;"/>
		</clipPath>
		<path class="st20" d="M561.93,366.37l5.34,0.03c1.38-0.07,0.95,0.37,1.54-2.26l0.96-4.6h-6.32
			C562.93,361.77,562.45,364.13,561.93,366.37"/>
	</g>
	<g>
		<defs>
			<rect id="SVGID_41_" x="25.75" y="33.1" width="544.02" height="344.4"/>
		</defs>
		<clipPath id="SVGID_42_">
			<use xlink:href="#SVGID_41_"  style="overflow:visible;"/>
		</clipPath>
		<path class="st21" d="M78.1,331.72c4.94,0,4.5,0.36,4.86-0.96l0.96-5.11h-5.31c-0.09,1.07-0.5,2.45-0.7,3.35
			c-0.16,0.75-0.27,1.04-0.37,1.71C77.44,331.36,77.23,331.72,78.1,331.72"/>
	</g>
	<g>
		<defs>
			<rect id="SVGID_43_" x="25.75" y="33.1" width="544.02" height="344.4"/>
		</defs>
		<clipPath id="SVGID_44_">
			<use xlink:href="#SVGID_43_"  style="overflow:visible;"/>
		</clipPath>
		<path class="st22" d="M72.03,331.72c0.28-1.19,1.24-5.13,1.26-6.07h-5.31C67.41,332.54,63.95,331.72,72.03,331.72"/>
	</g>
</g>
</svg>
