<?xml version="1.0" encoding="utf-8"?>
<!-- Generator: Adobe Illustrator 26.0.2, SVG Export Plug-In . SVG Version: 6.00 Build 0)  -->
<svg version="1.1" id="Ebene_1" xmlns="http://www.w3.org/2000/svg" xmlns:xlink="http://www.w3.org/1999/xlink" x="0px" y="0px"
	 viewBox="0 0 2338.58 850.39" style="enable-background:new 0 0 2338.58 850.39;" xml:space="preserve">
<style type="text/css">
	.st0{fill:#EB5D12;}
	.st1{fill:#9C1981;}
	.st2{fill:#7AB929;}
	.st3{fill:#009FE3;}
	.st4{fill:#E6007E;}
</style>
<g>
	<g>
		<polygon class="st0" points="12.33,435.2 12.33,568.5 956.42,568.5 956.42,435.2 12.33,435.2 		"/>
		<rect x="956.42" y="435.2" class="st1" width="143.62" height="133.3"/>
		<polygon class="st2" points="1100.03,435.2 1100.03,568.5 1650.49,568.5 1650.49,435.2 1100.03,435.2 		"/>
		<polygon class="st3" points="1650.49,435.2 1650.49,568.5 2154.08,568.5 2154.08,435.2 1650.49,435.2 		"/>
		<polygon class="st4" points="2154.08,435.2 2154.08,568.5 2325.39,568.5 2325.39,435.2 2154.08,435.2 		"/>
	</g>
	<path d="M1044.42,299.85c0-11.08-3.95-20.23-11.23-26.41c-5.58-4.9-11.76-7.52-24.36-9.37l-14.61-2.28
		c-6.94-1.1-13.89-3.76-18.03-7.29c-4.1-3.58-5.96-8.82-5.96-15.37c0-14.84,10.33-24.74,28.13-24.74c14.04,0,22.88,3.93,31.11,11.42
		l9.15-9.18c-11.38-10.28-22.61-14.59-39.73-14.59c-26.46,0-42.7,14.97-42.7,37.64c0,10.68,3.38,18.94,10.09,24.91
		c5.81,5.08,14.05,8.46,24.56,10.13l15.56,2.43c9.75,1.54,13.13,2.64,17.42,6.37c4.33,3.76,6.41,9.75,6.41,16.66
		c0,15.6-12.03,24.74-31.53,24.74c-14.95,0-25.28-3.55-36.32-14.61l-9.75,9.73c12.52,12.56,25.65,17.59,45.73,17.59
		C1026.09,337.64,1044.42,323.26,1044.42,299.85L1044.42,299.85z M1156.82,336.54v-12.73h-68.53v-48.17h58.44v-12.67h-58.44v-47.11
		h68.53v-12.69h-82.72v133.38H1156.82L1156.82,336.54z M1202.81,336.54V203.16h-14.23v133.38H1202.81L1202.81,336.54z
		 M1331.46,268.35c0-18.55,0.76-38.97-13.09-52.84c-8.05-8.03-19.89-12.35-33.74-12.35h-45.7v133.38h45.7
		c13.85,0,25.69-4.29,33.74-12.35C1332.22,310.32,1331.46,286.91,1331.46,268.35L1331.46,268.35z M1317.27,268.35
		c0,16.32,0.34,36.18-8.84,45.73c-6.9,7.13-15.94,9.73-26.22,9.73h-29.04V215.85h29.04c10.28,0,19.32,2.66,26.22,9.77
		C1317.61,235.19,1317.27,252.07,1317.27,268.35L1317.27,268.35z M1447.61,336.54v-12.73h-68.57v-48.17h58.44v-12.67h-58.44v-47.11
		h68.57v-12.69h-82.72v133.38H1447.61L1447.61,336.54z M1575.61,336.54V203.16h-14.15v106.61l-70.92-106.61h-13.43v133.38h14.19
		V229.57l70.89,106.97H1575.61L1575.61,336.54z M1694.38,299.85c0-11.08-3.91-20.23-11.27-26.41c-5.54-4.9-11.76-7.52-24.25-9.37
		l-14.65-2.28c-6.98-1.1-13.93-3.76-18.02-7.29c-4.14-3.58-6-8.82-6-15.37c0-14.84,10.28-24.74,28.12-24.74
		c14.04,0,22.88,3.93,31.08,11.42l9.18-9.18c-11.38-10.28-22.65-14.59-39.69-14.59c-26.45,0-42.73,14.97-42.73,37.64
		c0,10.68,3.38,18.94,10.13,24.91c5.77,5.08,14,8.46,24.52,10.13l15.6,2.43c9.68,1.54,13.05,2.64,17.38,6.37
		c4.33,3.76,6.34,9.75,6.34,16.66c0,15.6-11.92,24.74-31.42,24.74c-14.99,0-25.31-3.55-36.35-14.61l-9.71,9.73
		c12.52,12.56,25.65,17.59,45.69,17.59C1676.05,337.64,1694.38,323.26,1694.38,299.85L1694.38,299.85z M1801.77,215.85v-12.69
		h-91.45v12.69h38.63v120.69h14.23V215.85H1801.77L1801.77,215.85z M1840.7,336.54V203.16h-14.23v133.38H1840.7L1840.7,336.54z
		 M1966.99,297.97h-14.23c-3.53,16.32-15.33,26.96-32.03,26.96c-8.84,0-17.27-3.38-23.07-9.35c-8.42-8.63-9.37-17.78-9.37-45.73
		c0-27.91,0.95-37.09,9.37-45.73c5.81-6,14.23-9.35,23.07-9.35c16.69,0,28.12,10.66,31.65,26.98h14.61
		c-4.48-25.12-22.31-39.71-46.26-39.71c-13.17,0-25.12,4.9-34.11,13.81c-12.56,12.58-12.56,25.71-12.56,54
		c0,28.29,0,41.42,12.56,53.96c8.99,8.99,20.95,13.83,34.11,13.83C1944.48,337.64,1962.66,323.07,1966.99,297.97L1966.99,297.97z
		 M2098.17,336.54l-48-81.87l41.97-51.51h-17.42l-62.19,76.69v-76.69h-14.23v133.38h14.23v-37.26l28.08-33.71l40.72,70.98H2098.17
		L2098.17,336.54z M2202.63,336.54v-12.73h-68.53v-48.17h58.48v-12.67h-58.48v-47.11h68.53v-12.69h-82.76v133.38H2202.63
		L2202.63,336.54z M2325.39,336.54l-31.65-60.52c17.23-3.55,29.03-16.28,29.03-35.78c0-23.03-16.28-37.07-39.54-37.07h-51.11v133.38
		h14.27v-59.2h31.99l30.36,59.2H2325.39L2325.39,336.54z M2308.54,240.44c0,16.32-11.08,24.38-26.6,24.38h-35.56v-48.97h35.56
		C2297.46,215.85,2308.54,224.12,2308.54,240.44L2308.54,240.44z"/>
	<path d="M1050.11,97.27V76.13h-47.02v12.52h32.79v10.15c0,10.28-2.09,17.61-7.51,24.17c-6.19,7.48-15.56,11.42-25.27,11.42
		c-8.84,0-17.27-3.38-23.04-9.37c-8.54-8.61-9.45-17.82-9.45-45.73c0-27.93,0.91-36.92,9.45-45.54c5.78-6,14.2-9.52,23.04-9.52
		c16.62,0,28.61,10.28,32.37,27.13h14.19c-3.91-23.43-21.1-39.88-46.56-39.88c-13.36,0-25.13,4.86-34.16,13.85
		c-12.52,12.54-12.52,25.67-12.52,53.96c0,28.27,0,41.4,12.52,53.96c9.03,9.01,20.99,13.85,34.16,13.85
		c13.62,0,26.22-5.24,35.59-15.33C1046.89,122.98,1050.11,112.66,1050.11,97.27L1050.11,97.27z M1108.55,146.01V12.59h-14.23v133.42
		H1108.55L1108.55,146.01z M1240.95,146.01v-12.75h-68.15V12.59h-14.23v133.42H1240.95L1240.95,146.01z M1365.08,77.8
		c0-18.54,0.72-38.97-13.17-52.84c-8.04-8.05-19.85-12.37-33.7-12.37h-45.77v133.42h45.77c13.85,0,25.65-4.33,33.7-12.37
		C1365.8,119.79,1365.08,96.34,1365.08,77.8L1365.08,77.8z M1350.81,77.8c0,16.3,0.38,36.14-8.8,45.71
		c-6.98,7.13-15.94,9.75-26.26,9.75h-29.07V25.34h29.07c10.32,0,19.28,2.6,26.26,9.73C1351.19,44.62,1350.81,61.52,1350.81,77.8
		L1350.81,77.8z M1489.89,146.01v-12.75h-68.49V85.09h58.44V72.36h-58.44V25.34h68.49V12.59h-82.76v133.42H1489.89L1489.89,146.01z
		 M1644.9,146.01V12.59h-14.23l-42.35,94.64l-43.45-94.64h-14.27v133.42h14.27V44.66l37.11,80.37h12.14l36.54-80.37v101.35H1644.9
		L1644.9,146.01z M1771.68,146.01v-12.75h-68.65V85.09h58.51V72.36h-58.51V25.34h68.65V12.59h-82.8v133.42H1771.68L1771.68,146.01z
		 M1831.29,146.01V12.59h-14.15v133.42H1831.29L1831.29,146.01z M1965.85,109.28c0-11.08-3.95-20.23-11.19-26.43
		c-5.62-4.88-11.84-7.51-24.36-9.39l-14.61-2.24c-7.02-1.1-13.93-3.72-17.99-7.29c-4.17-3.53-6.03-8.81-6.03-15.37
		c0-14.8,10.28-24.74,28.08-24.74c14.08,0,22.92,3.95,31.15,11.46l9.15-9.18c-11.38-10.32-22.65-14.61-39.73-14.61
		c-26.34,0-42.73,14.99-42.73,37.64c0,10.7,3.41,18.95,10.13,24.93c5.81,5.05,14.04,8.44,24.52,10.1l15.6,2.43
		c9.75,1.54,13.13,2.64,17.38,6.37c4.4,3.76,6.45,9.75,6.45,16.7c0,15.54-12.03,24.74-31.53,24.74c-14.95,0-25.23-3.57-36.35-14.61
		l-9.71,9.71c12.56,12.58,25.65,17.61,45.69,17.61C1947.56,147.11,1965.85,132.73,1965.85,109.28L1965.85,109.28z M2078.74,25.34
		V12.59h-91.45v12.75h38.55v120.67h14.31V25.34H2078.74L2078.74,25.34z M2193.18,146.01v-12.75h-68.57V85.09h58.48V72.36h-58.48
		V25.34h68.57V12.59h-82.84v133.42H2193.18L2193.18,146.01z M2325.39,146.01l-31.65-60.55c17.23-3.57,29.03-16.26,29.03-35.76
		c0-23.07-16.28-37.11-39.54-37.11h-51.11v133.42h14.23V86.76h31.99l30.4,59.25H2325.39L2325.39,146.01z M2308.54,49.89
		c0,16.32-11.08,24.36-26.6,24.36h-35.6V25.34h35.6C2297.46,25.34,2308.54,33.58,2308.54,49.89L2308.54,49.89z"/>
	<path d="M247.25,243.34c0-43.26-25.04-63.75-44.62-72.86c16.37-7.74,40.05-30.96,40.05-66.94c0-55.52-36.86-91.03-100.14-91.03
		H12.33v324.18H148C205.83,336.69,247.25,303.87,247.25,243.34L247.25,243.34z M179.42,106.28c0,22.31-15.03,37.34-41.88,37.34
		H75.61V69h61.93C164.4,69,179.42,84.01,179.42,106.28L179.42,106.28z M183.99,240.16c0,21.84-13.69,40.11-42.36,40.11H75.61v-79.71
		h66.02C170.3,200.56,183.99,218.32,183.99,240.16L183.99,240.16z M563.92,336.69L448.74,141.36L556.17,12.52h-76.94L364.94,153.64
		V12.52h-63.28v324.18h63.28v-97.45l41.87-50.09l83.33,147.53H563.92L563.92,336.69z M865.6,336.69L750.43,141.36L857.89,12.52
		h-76.96L666.67,153.64V12.52h-63.27v324.18h63.27v-97.45l41.85-50.09l83.33,147.53H865.6L865.6,336.69z"/>
	<path d="M123.75,836.21v-29.45H45.32v-41.17h66.79v-29.37H45.32v-39.77h78.43v-29.45H12.33v169.2H123.75L123.75,836.21z
		 M189.3,691.25V666.1h-31.59v25.16H189.3L189.3,691.25z M189.03,836.21V712.35h-30.85v123.86H189.03L189.03,836.21z M329.7,836.21
		v-79.12c0-13.55-2.59-25.27-12.57-35.21c-6.88-6.87-16.86-10.89-29.21-10.89c-11.4,0-22.82,4.25-30.93,12.79v-11.39h-30.14v123.82
		h30.86V761.3c0-16.85,10.95-22.5,20.69-22.5c9.75,0,20.46,5.65,20.46,22.5v74.91H329.7L329.7,836.21z M423.8,739.48v-23.56H401
		v-13.47c0-7.17,3.32-11.19,10.68-11.19h12.11v-26.11h-17.57c-25.18,0-36.11,17.8-36.11,35.4v15.37H357.3v23.56h12.82v96.73H401
		v-96.73H423.8L423.8,739.48z M544.34,836.21V754.7c0-29.03-18.06-43.71-52.75-43.71c-20.66,0-32.53,3.8-44.66,17.08l19.71,19.28
		c6.41-7.36,11.9-10.21,23.75-10.21c16.43,0,23.07,5.88,23.07,19.47v6.15h-29.23c-28.73,0-42.28,16.16-42.28,35.94
		c0,10.93,3.56,20.87,10.22,27.74c7.37,7.4,17.58,10.97,31.59,10.97c14.26,0,22.09-3.57,30.43-11.92v10.74H544.34L544.34,836.21z
		 M513.45,790.52c0,7.66-1.18,12.64-4.5,15.75c-5.48,5.24-10.95,5.96-19.53,5.96c-12.08,0-17.8-5.73-17.8-14.27
		c0-8.88,6.2-14.04,17.32-14.04h24.51V790.52L513.45,790.52z M666.72,820.73l-20.9-20.64c-6.42,6.91-11.9,9.71-19.95,9.71
		c-7.38,0-13.09-2.58-17.61-8.01c-4.73-6-6.88-14.61-6.88-27.66c0-13.05,2.14-21.32,6.88-27.28c4.52-5.43,10.23-8.05,17.61-8.05
		c8.05,0,13.53,2.77,19.95,9.68l20.9-20.87c-10.93-11.42-23.76-16.62-40.85-16.62c-24.72,0-55.36,13.05-55.36,63.14
		c0,50.17,30.64,63.45,55.36,63.45C642.96,837.58,655.79,832.11,666.72,820.73L666.72,820.73z M795.09,836.21v-80.07
		c0-26.18-14.27-45.16-41.33-45.16c-10.95,0-21.38,4.25-29.71,12.79v-56.77h-30.87v169.2h30.87v-75.63
		c0-16.13,10.22-21.78,19.98-21.78c9.73,0,20.21,5.43,20.21,21.78v75.63H795.09L795.09,836.21z M862.75,836.21v-35.14h-35.37v35.14
		H862.75L862.75,836.21z M1056.67,766.77V742.1h-63.9v27.51h31.19v6.45c0,8.8-2.16,16.39-7.63,22.61
		c-5.47,5.96-13.51,9.53-23.56,9.53c-9.05,0-16.41-3.38-21.16-8.84c-6.41-7.13-8.12-15.26-8.12-47.74c0-32.6,1.71-40.45,8.12-47.55
		c4.74-5.5,12.1-9.07,21.16-9.07c16.92,0,26.64,8.84,30.43,24.74h33.24c-4.52-28.5-24.44-54.15-63.67-54.15
		c-19.03,0-33.75,6.68-45.59,18.52c-17.11,17.08-16.62,38.25-16.62,67.51c0,29.14-0.49,50.35,16.62,67.43
		c11.84,11.88,27.09,18.52,45.59,18.52c18.1,0,34.23-5.2,47.77-19.2C1052.38,806,1056.67,791.32,1056.67,766.77L1056.67,766.77z
		 M1191.57,836.21V712.39h-30.85v74.79c0,16.96-10.93,22.62-20.68,22.62c-9.79,0-20.45-5.65-20.45-22.62v-74.79h-30.81v79.16
		c0,13.51,2.58,25.16,12.52,35.1c6.87,6.9,16.89,10.93,29.22,10.93c11.42,0,22.84-4.25,30.89-12.83v11.46H1191.57L1191.57,836.21z
		 M1285.2,836.21V810.1h-11.19c-7.36,0-10.66-4.1-10.66-11.16v-59.46h21.86v-23.56h-21.86v-36.54h-30.81v36.54h-13.07v23.56h13.07
		v61.36c0,17.53,10.66,35.37,35.82,35.37H1285.2L1285.2,836.21z M1353.94,836.21v-35.14h-35.37v35.14H1353.94L1353.94,836.21z
		 M1539.01,696.45v-29.45h-111.37v169.2h33.01v-68.72h66.79v-29.41h-66.79v-41.63H1539.01L1539.01,696.45z M1652.92,692.16v-29.64
		h-26.37v29.64H1652.92L1652.92,692.16z M1600.37,692.16v-29.64h-26.3v29.64H1600.37L1600.37,692.16z M1665.1,836.21V712.39h-30.93
		v74.79c0,16.96-10.93,22.62-20.68,22.62c-9.75,0-20.45-5.65-20.45-22.62v-74.79h-30.89v79.16c0,13.51,2.62,25.16,12.64,35.1
		c6.83,6.9,16.81,10.93,29.22,10.93c11.42,0,22.77-4.25,30.89-12.83v11.46H1665.1L1665.1,836.21z M1793.63,722.6
		c-8.65-8.5-17.15-11.61-29.29-11.61c-13.28,0-25.16,6.15-31.08,13.28v-11.88h-30.17v123.82h30.85v-74.68
		c0-15.63,10.47-22.73,20.04-22.73c7.59,0,11.57,2.62,16.36,7.36L1793.63,722.6L1793.63,722.6z M1983.11,836.21l-61.81-169.2h-25.84
		l-61.59,169.2h34.49l10.21-29.98h60.11l10.02,29.98H1983.11L1983.11,836.21z M1929.91,778.46h-42.08l21.4-61.55L1929.91,778.46
		L1929.91,778.46z M2056.46,836.21V810.1h-11.92c-7.85,0-10.89-3.83-10.89-11.16V667.01h-30.85v133.84
		c0,17.53,10.66,35.37,36.05,35.37H2056.46L2056.46,836.21z M2135.96,836.21V810.1h-11.88c-7.85,0-10.93-3.83-10.93-11.16V667.01
		h-30.81v133.84c0,17.53,10.66,35.37,36.01,35.37H2135.96L2135.96,836.21z M2259.78,783.92v-13.81c0-33.96-19.43-59.12-53.92-59.12
		c-32.1,0-53.92,22.81-53.92,63.14c0,50.17,28,63.45,57.26,63.45c22.31,0,34.49-6.87,47.02-19.47l-18.74-18.25
		c-7.82,7.82-14.5,11.65-28.04,11.65c-17.34,0-27.13-11.65-27.13-27.59H2259.78L2259.78,783.92z M2229.39,762.75h-47.09
		c0.26-5.43,0.99-8.73,2.84-13.24c3.42-7.4,10.28-12.83,20.72-12.83c10.47,0,17.34,5.43,20.68,12.83
		C2228.44,754.02,2229.16,757.32,2229.39,762.75L2229.39,762.75z M2325.39,836.21v-35.14h-35.4v35.14H2325.39L2325.39,836.21z"/>
</g>
</svg>
