<?xml version="1.0" encoding="utf-8"?>
<!-- Generator: Adobe Illustrator 26.0.1, SVG Export Plug-In . SVG Version: 6.00 Build 0)  -->
<svg version="1.1" id="Ebene_1" xmlns="http://www.w3.org/2000/svg" xmlns:xlink="http://www.w3.org/1999/xlink" x="0px" y="0px"
	 viewBox="0 0 481.9 155.9" style="enable-background:new 0 0 481.9 155.9;" xml:space="preserve">
<style type="text/css">
	.st0{fill:#0474B5;}
	.st1{fill:#FFCD07;}
	.st2{fill:#656060;}
</style>
<path class="st0" d="M114.3,87c7.2,0.5,18.8-2.8,18.8-12.1c0-6.8-4.4-10.9-10.3-12.2v-0.1c4.7-1.5,8.2-5.1,8.2-10.2
	c0-9.1-8.5-12.6-16.9-12.1H96.6V87H114.3z M106.6,59.1v-11h7.8c4.2,0,6.5,1.7,6.5,5.5s-2.3,5.5-6.5,5.5L106.6,59.1z M106.6,79.2
	V66.8h7.8c4.7,0,7.9,0.8,7.9,6.2s-3.2,6.2-7.9,6.2L106.6,79.2z"/>
<polygon class="st0" points="149.7,60.5 149.8,60.5 165.3,40.3 177,40.3 159.9,61.2 178.5,87 166,87 149.8,63.2 149.7,63.2 
	149.7,87 139.7,87 139.7,40.3 149.7,40.3 "/>
<polygon class="st0" points="192.8,60.5 192.9,60.5 208.4,40.3 220.1,40.3 203,61.2 221.6,87 209.2,87 192.9,63.2 192.8,63.2 
	192.8,87 182.8,87 182.8,40.3 192.8,40.3 "/>
<polygon class="st0" points="274.3,87 274.3,79.2 254,79.2 254,40.3 244,40.3 244,87 "/>
<path class="st0" d="M279.3,40.3v8.4h10.3v-8.4H279.3z M279.6,87h9.7V54.5h-9.7V87z"/>
<path class="st0" d="M307.3,58.3l0.1,0.2c2-3,5-4.9,10-4.9c3.2,0,9.5,2.4,10.7,7.1c0.4,1.7,0.6,3.4,0.6,5.2V87h-9.7V67.5
	c-0.1-3.5-1-7.4-5.8-7.4c-3,0-5.7,2.7-5.8,7.4V87h-9.7V54.5h9.6L307.3,58.3z"/>
<path class="st0" d="M359.5,58.3h-0.1c-2-2.9-5.2-4.6-8.7-4.7c-10.1,0-15.2,8.5-15.2,17.2c0,8.3,4.5,17.2,14,17.2
	c4.1,0.2,8-2,10-5.6h0.1c0,1.6,0.1,3,0.3,4.6h9.7c-0.1-2.1-0.3-4.3-0.3-6.5V40.3h-9.7L359.5,58.3z M345.6,70.8c0-5,0.8-10.7,7-10.7
	c5.2,0,7,6.3,7,10.7s-1.8,10.7-7,10.7C346.4,81.5,345.6,75.7,345.6,70.8"/>
<path class="st0" d="M385.2,66.9c0.1-3.6,1.1-6.9,5.5-6.9c4.7,0,5.7,3.3,5.7,6.9H385.2z M406.4,73.3c0-2.1,0-4.1-0.2-6.2
	c-0.2-2-0.8-4-1.6-5.8c-2.7-5.7-7.8-7.8-13.8-7.8c-9.9,0-15.6,7.5-15.6,17.3c0,10.9,4.5,17.1,15.6,17.1c7.6,0,13.8-2.7,14.7-10.7
	h-8.7c-0.9,3-2.6,4.2-6,4.2c-5,0-5.5-3.9-5.5-8.2H406.4z"/>
<path class="st1" d="M104.1,16.5l2.4-0.5L104.1,16.5z"/>
<path class="st1" d="M101.9,16.8l-0.2,0L101.9,16.8z"/>
<path class="st1" d="M98.9,138.2c-0.9-0.2-1.7-0.3-2.1-0.3C97.5,138.1,98.2,138.2,98.9,138.2z"/>
<path class="st1" d="M245,139.7c-0.1,0.1-0.1,0.1-0.1,0.2C245.1,139.8,245.2,139.8,245,139.7z"/>
<path class="st1" d="M132.6,11.8l-1.1,0.1C131.8,11.9,132.2,11.8,132.6,11.8z"/>
<path class="st1" d="M62.5,126.6c-0.1,0-0.2,0-0.3,0C62.2,126.6,62.4,126.6,62.5,126.6z"/>
<path class="st1" d="M221.5,7.3h1C222.1,7.3,221.8,7.3,221.5,7.3z"/>
<path class="st1" d="M274.8,154.6c0.3,0,0.7-0.1,1-0.3C275.2,154.3,274.8,154.4,274.8,154.6z"/>
<path class="st1" d="M275.2,152.4c-7.5,0.9,1.7,1.2,0.6,1.9c2-0.3,6.3-0.4,4.2-0.8c4,1.2,11.8-1.4,16.2-0.6c0.2-0.1-2.3-0.4,0.6-0.9
	c4.4-0.5,4.1,0.2,5.9,0.3c2.4-0.6,4.8-0.9,7.3-1.1c2.9-0.6-3.2-1,0.8-2c2.7-1.2,6.5-0.8,9.7-1.4c4,0.2-3.8,0.9-5.4,1.3
	c3.7-0.5,7.3-1,11-1.6c3.3,0.1-1.4,1.1-4.6,1.3c4.5,0.1,10.1-1.1,11.3-2.1c2.8-0.2,4.2-0.6,6.8-0.6c-2.5,0.8-2.2,2.1-6.2,2.8
	c-6.7,0.8,2.3-1.3-3.4-0.8l-0.4,0.8c-2.5-0.2-4.4,0.6-7,1c-1.5,0,0.3-0.3,1.2-0.5c-4.7,0.6-8.5,0.5-12,1.8
	c6.5,0.2,15.9-1.9,18.8-1.4c4.2-0.9,8.4-1.8,12.5-2.8c-0.1-0.4-4.5-0.3-1-1.4c1.6,0.7,5.4,0.6,10.3,0c-2-0.7,7.6-2.2,5-2.6
	c-1.2,0.5-2.5,0.6-3.8,0.2c4.7-0.9,0.5-1,3-1.5c8.6-1.3-0.2,0.8,8.2-0.5c-3.4,1.6-7,2.9-10.6,3.9c0.4,0.4,4.6-0.9,6.7-0.7
	c-2.9-0.1,1.8-1.3-0.6-1.1c6.7-1.7,14.4-4.3,22.4-6.4c-0.9,1.9-13.5,4.1-10.5,5.4c4-1.1,3.8-1.8,7-2.4c2.9,0.2,9.5-2.1,14.9-3.6
	l-2.5,0.2c2-0.9,5.9-1.6,8.3-2.3l-0.6,0.4l2.3-1c0.4-0.1,0.5-0.1,0.5,0c2.5-1.2,9.2-2.8,14-4.8c-0.2-0.7-4.9,1.6-7.3,2.3
	c-0.7,0.1-5.3,1.2-3.3,0c6.1-1.9,10.1-4.1,16.9-6.7l-2.2,0.6c2-1.3,5-2.2,8.2-3.5c6-2-3.9,2.8-0.2,1.7c-2.1,1.5-6.4,2.4-6.6,3.5
	l4.1-0.5c2.9-1.8,6.7-2.4,8.8-3.5l-2.5,0.6c0.1-0.9,2.5-1.3,3.7-1.7l-2-0.4c-3.4,1.3-5.3,3.2-8.1,3.5c5.9-2.8,4.1-3.1,11.2-6.3
	c0.5,0.3-1.3,0.8-1.9,1.5c2.5-0.9,4.7-2.8,8.7-4.6c-2,1.5-5.5,3.6-2.3,2.8c0.6-0.6,1.1-1.2,1.7-1.9c1.8-0.8,1.3-0.1,2-0.5
	c2.6-1.2-1-0.4,3.1-2.5c0.7-0.2,2.1-0.8,1.6-0.3c4.5-2.7,2.1-1.5,5.9-4.7c-3.7,2.5-4.5,1.5-0.8-1.2c5.4-3.6,8.2-7,12.1-9.7
	c0.5-0.9,1.1-1.7,1.6-2.6c-0.3,1,0.4,0.2,1.4-1.1l1.6-2.1c0.4-0.8,0.8-1.5,1.2-1.9c0.6-0.1-0.7,2.3-2.3,4.4
	c-1.5,2.3-3.4,4.2-2.8,4.7c3.2-3.2,2.2-1.5,1.5-0.1c1.7-1.9,1.7-2.4,1.5-2.7s-0.6-0.3-0.2-1.4c1-0.9,1.8-1.9,2.5-3
	c1-1.5,1.8-2.7,1.4-1.2c0.9-1.3,1.5-2.8,1.7-4.4c0.2-1.2,0.5-2.1,1-3.8c0.2,0.6,0.5,1.3,1,1.1c-0.2-0.5,1.3-4.7,1.2-5.7
	c-0.3,0.8-0.5-1.7-0.8,2.4c-0.1-1.7,0-3.5,0.2-5.2c-0.1-2.2-0.3-4.3-0.6-4.2c0.5-0.3,0-2.4-0.7-5c-0.9-2.4-1.9-4.7-3.2-7
	c-0.8,0.7,0.5,2,1.4,3.8c0.5,0.9,0.9,1.7,1.3,2.6c0.3,0.6,0.3,1.4,0,2c-1.4-3.8-3.2-7.3-5.5-10.6c-2.6-3.7-5.8-6.9-9.5-9.5
	c-5-4.5,0.5-0.6-0.2-2c5,4,5.8,5.4,9.6,9.7l-1.5-2.1l-1.8-2c-1.3-1.4-2.7-2.8-4.2-4c-1.3-1.2-2.8-2.3-4.2-3.2
	c-1.1-0.8-2.3-1.5-3.5-2.1c-1.9-1.3-3.7-2.8-5.3-4.4c-1.9-1.8-4.1-3.3-6.6-4.3c0.6,1,0.4,1,2.4,2.3c-1.9-0.8-3.9-2.1-5.8-3
	c-1.3-0.3,2.8,1.9,0,0.8c-1-0.6-3.2-1.7-2.6-1.9l0.5,0.2c-6.7-2.6-4.2-3.4-10.2-4.8c0.3,0.5,1.7,0.6,3,1.4c0.9,0.9-2.8-0.1-5.5-0.9
	c0.6-0.2-2.3-1-4.1-1.8c-1-1.1,4.7,1.6,5.8,1.5l-5.1-2l1,0.5c-1.9-0.5-3.8-1-5.8-1.4c4,1.1,1.6,1.4-0.1,0.9c-3.8-1.5-7.7-2.9-7-3.4
	c-0.7,0.5-5.5-1-9-1.8c3.7,1.3,0.3,0.7-0.9,0.6c-1.8-0.8-3.6-1.5-5.5-2.2c6,1.4-1.1-1,0.4-1c1.9-0.3,5.5,1.1,8.6,2.1
	c-5.8-3-8.9-1.8-14.1-3.7c0.1-0.3,0.6-0.6,3,0.1c-0.9-0.5-5.1-0.7-8.6-1.9c0.9,0.4,2.8,1.5-0.9,1l-4.6-1.9c-5.5-1.3-2.1,0.4-6.8-0.2
	l2.9,1.2c-0.6,0.6-6.2-1.3-6.5-0.6c2.9,0.6,4.6,0.4,7.5,1.2c1,1-3.9-0.4-5.7-0.4c-3.2-0.7-6.3-1.6-9.4-2.7c0-1.1,7.9,0.1,7.2-1.5
	c-6.1-1-15-2.1-19-3.1c-5.5-0.5-5.2,0.4-4.5,1.1c-1.6-0.1-3.2-0.4-4.8-0.8h2.6c-6.8-0.6-10.7-0.8-17.8-1.6c-4-0.3-2.5,0.5-1.6,1.1
	l-4.3-0.4l0.6,0.2c-1,0.5-4.9-0.1-7.8-0.4c0-0.3,1.8-0.2,1.6-0.3c-2.8-0.5-5.7-0.7-8.5-0.7c0-0.3,1.8-0.7,4.9-0.3
	c0.3,0.1,0.1,0.2,0.5,0.3l5.2,0.1c-6-0.3-9.5-1.2-9.3-1.8c-6-0.1,4.8,1-2.3,0.7c-9.3-2-17.8-0.9-22.9-2.8c-4.4,0.1-9.6,0.5-16.4,0.4
	c0,0.4-4.5,0.1-3.9,0.7c6.5,0.8,12.2-0.6,17.3,0.5c2.9-0.1,2-0.6,3.3-0.8c2.6,0.1,5,0.2,5.3,0.6c-6,0-1.7,1.1-9.3,0.8
	c0.9,0.5,7.1,0.6,9.8,0.9c-0.8,0.2,0,0.5,1.7,0.8c-2,0.2-6.3,0.4-8.6,0.6c0.8-0.2-0.6-0.4,0-0.5L272.1,5c-2.4-0.4-3-0.8-1.7-1
	c-4.4-0.3-11.8,0-11.8-0.6c-5.7,0,1.8,0.4,2.3,0.7h-0.5l6,0.2c0.6,0.8-6.8-0.5-7.8,0.3c-1,1.4-8.4-0.7-12.6-0.5l4.9-0.9l-4.2,0.2
	c2.4-0.3,2.4-1,6.1-1.4C247,1.8,238.8,1.5,235,1.7c-1.5-0.3-2.1-0.6-1.5-0.9c-5.8,0.7-9.1-0.1-14.1,0.1c-5.3,0.5,5.4,0.2,1.5,0.8
	c-2-0.1-4,0-6,0.3c1.6-0.2,7.3-0.1,11.2-0.1c-2.9,0.1-2.6,0.5-3.4,0.7h4.9c-0.3,0.5-6,0.2-8.2,0.5c1.4-0.5,0.6-0.5,2.1-1
	c-4.2,0.3-10.5,0.6-14.1,0.4c-2.1-0.1,1.8-0.3,2.9-0.5c-1-0.3-4.2,0.4-5,0.1c0.6-0.3,2.6-0.2,4-0.3L197,2.5c1.6-0.3,3.3-0.5,5-0.5
	c-3.6,0-7.2,0.4-10.8,1.2c-4.2,0.1-9,0.4-7.6,0c-1.9,0.3-0.6,0.3-0.6,0.4c-5.7,0.4-6.2,1-9.6,1.3h2.6c-5.5,0.3-1.2,0.5-6.1,0.8
	c0.8-0.3,0.4-0.6-0.4-0.7c-0.8,0.3-3.9,0.5-5.9,0.7c1.3,0.1-4.5,0.7-1.1,0.6c-4.8,0.7-7.1,0.8-10.6,1.4c2.2-0.2-4.1,0.8-2.2,0.6
	c-4.7,0.6-7.9,0.9-6.6,0.5c1.3-0.1,2.7-0.3,4-0.6c-2.8,0.4-5.6,0.8-8.5,1.3c-2.1,0.2-4.8,0.6-5.2,0.6c-2.7,0.6-8,1.3-10,1.9
	c2-0.5,4.1-0.8,6.2-1.1l-1.3,0.2l0.7-0.1l-3.6,0.9c3.5-0.5,0.6-0.3,5.6-1.1c4.3-0.5-9.7,2-5.2,1.3c3.7-0.5,3-0.6,6-1.2l-0.8,0.1
	l6.8-1.2c0.3,0-1.7,0.4-1.7,0.4c8.3-1.2,9.6-1.2,18.6-2.3c-0.7,0-2.5-0.1,1.5-0.7c2.9-0.4,3.2-0.3,5.6-0.5c-1.5,0.3-3.1,0.5-4.6,0.7
	l0.2,0.3c-6.7,1.1-3.1,0.9-12.2,2.1c-0.4,0.2-7,1.1-11.9,1.7l2.4-0.2c-5.1,0.9-1-0.1-7.5,1c-2.8,0.1-7.7,0.8-4.1,0
	c-4.6,0.8-6.2,1.1-10.3,1.9c-2.6,0.4,1.2-0.4,0.8-0.4c-3,0.6-6.8,1.4-4.6,1l-5.7,1.2l2.7-0.6c-2.2,0.4-6.5,1.4-7.7,1.7l2.5-0.6
	l-6.9,1.6l7.4-1.6l-2.8,0.6c3-0.7,6-1.2,7.3-1.4l-4.7,0.9l8.4-1.6c0.4,0,8.9-1.6,5.9-0.9c0.5-0.1,3.8-0.7,5.6-0.9
	c-0.1,0.1-4.6,0.8-6.5,1.2c-8.9,1.5,0.1-0.1-2,0.2c-2.3,0.4-4.5,0.8-6.8,1.2c0.7-0.1-2.7,0.5,1.7-0.3l-9.8,1.9
	c-0.8,0.2,1.7-0.3,2.5-0.5c-0.8,0.2-5,1,0.5,0c-1.6,0.3,2.7-0.5-0.2,0c2.2-0.4,8.3-1.4,5.9-1l10-1.7c0.7,0-1.9,0.3-3,0.5
	c2.6-0.4,5.2-0.8,7.8-1.2l-2.2,0.3c5.8-0.8,9.4-1.5,14-2.2c-0.6,0.3-4.4,0.8-7.5,1.3c2.9-0.2,1.9-0.3,6.7-0.9c0.7-0.1,0.8,0,0.5,0.1
	l3.8-0.6c1.1-0.1,0.5,0,0,0.1c6.5-1-0.2-0.3,8.6-1.4c-5.3,0.5-4.5,0.7-9,1.2c-2.6,0.2,5.1-0.9,6.3-1.1c4.3-0.4,4.9-0.1,10.3-0.9
	c-3.8,0.5-0.1,0.2-5.6,0.8c-3,0.4,1.6-0.1,2.3,0c1.4-0.2-1-0.2,3-0.5l-0.2,0.1l6.5-0.9c6.1-0.4,13.8-1.5,18-1.4l-1-0.3l12-0.9
	c-2,0.4-3.9,0.6-5.9,0.7c6.9-0.4,13-0.9,17.7-1.4c-3.4-0.2-3.9-0.1-7.1-0.2c4.5-0.8,5.3,0.1,11.1-0.4c0.2,0.4-1.8,0.4-0.3,0.8
	c2.4-0.4,6.4-0.4,9.2-0.8c1.5,0.4-1.1,0.8-7,1c-4.5-0.2-9.5,0.6-13.2,0.4l2.3,0.1c-4.5,0.3-7.2,0.4-11.1,0.8l0.2-0.1l-1.9,0.5
	l2.1-0.1c-1.4,0.3-5.7,0.8-7,0.9c6.4-0.4,6.9-1,9.9-1.5c5.8-0.3,8.1,0.4,11.9-0.1c0.3,0.2,3.6,0.3,1,0.6c-3.2,0.2-5.5,0-5.8,0.3
	l7.2-0.1c2.8-0.6,5.6-1.1,8.5-1.3c3.9-0.3,8.9-0.4,11.9-0.2c-3.9,0-7.7,0.5-6.7,0.8c2.2-0.5,7.6,0.3,6.4-0.3
	c4.5,0,12.1,0.1,12.5,0.7c-4.2,0.1-8.4-0.2-12-0.1c1,0,2,0.1,1.4,0.3l-5.3-0.1c2.8,0.3,5.6,0.5,8.4,0.4c-0.3,0-1-0.1-0.5-0.2
	l4.2,0.1l0.2,0.5C234.6,8,242,8.9,249,8.7l-0.6,0.1c5.6,0.3,6.1-0.8,12.2-0.6c-1.8,0.2-1,0.5-0.7,0.8c3-0.2,4.6,0.5,7.7,0.8
	c-3.5-0.6,2.4-0.5-0.1-0.9c-0.1-0.6,6.1-0.3,9.3,0c1.9,0.9-9.9-0.2-5.2,0.9c3.2,0.3,4-0.1,1.8-0.4c4,0.4,10.1,0.9,12.9,1.7
	c4.8-0.2,6.7,0.3,9.8-0.3c-2.5-0.2-2.8,0.4-5.9-0.2l3.6-0.3c4.6,0.4,8.2,1.4,11.4,1.8l-3.4-0.1l0.2-0.1c-1.3,0.2-5.6-0.5-5.1,0.1
	c3.1-0.3,5.4,0.6,9.4,0.6l-0.2,0.1c7,0.3,12,2.5,16.5,1.8c-1.3-0.1-3.8-1-2.9-1.2c1.6,0.5,5.8,1,5.6,1.4l-1.4,0.1
	c4,0.6,6.3,1.1,7.8,1.2c1.1-0.3,0.1-0.9,3-0.7c6.9,1.4-3,0.7,1.7,1.9l6.5,0.5l1.3,0.7c9.5,2.1,17.1,2,27.2,4.3
	c0,0.8-7.4-0.5-9.9-0.9c3,1.4,7.7,1.4,11.7,2.9c3.9,1,6.9,1.1,6.4,0.4c4.8,0.9,3.3,1.3,3.8,1.6c1.8-0.5,7.6,1.5,11.5,2.4v0.6l6,1.2
	c-1.5-0.5,0-0.6,0.1-0.9l1.5,0.5c-5.3-3.2-13.3-3-18.9-6c1.9,0.3-0.5-0.6,1.4-0.4c1.5,0.4,1.8,0.6,1.9,0.8c1-0.1,3.6,0.1,0.3-0.7
	c0.4-1,6.9,0.9,11.4,1.9c3.3,1.8-4-0.1-5.9-0.1c1.9,0.2,3.8,0.7,5.6,1.3l-0.8,0.6c6.2,1.4,1.9-0.2,3.5-0.6c2-0.6,5.5,1.8,7.1,2.2
	l-1.9-0.4c4.6,1.8,5.9,1.4,10.1,3l1.7,1.4c-5-2.7-6.8-1.2-9.6-2.6c7.4,3.4-2.2,1.1-4.8,1c2.8,0.7,5.4,1.7,7.9,3.1
	c5.1,0.7,9.7,4.1,14.5,4.8c2.3,1.2-2.4-0.4,0.2,0.8c4.7,2.1,9.5,4.4,14.4,6.6c2.3,1.5,1.7,1.5,2.2,2.3c5.3,3.7,9.1,6,12.5,8.7
	s6.8,5.9,8.6,11.2l-1.1-1.3c0.4,0.9,0.7,1.9,0.9,2.9c0.2,0.7,0.5,1.4,0.9,2c-0.3,0.8-0.4,1.7-0.5,2.6c-0.1,0.5,0,1-0.1,1.6
	s-0.2,1.1-0.3,1.7c-0.1,0.6-0.2,1.2-0.5,1.8c-0.2,0.6-0.4,1.2-0.7,1.8c-0.6,1.1-1.4,1.9-2.4,2.6c-1.2,1.4-2.3,2.9-3.2,4.5
	c-0.8,1.5-1.8,2.8-3,4c-0.2-0.3,0.4-1.7-1.6-0.3c-6,5-12.7,9.3-19.8,12.7c-7.7,3.8-15.7,7.1-23.8,9.9c0.4-0.3,0.9-0.6,1.4-0.8
	c-11.4,3.8-22.7,8.4-32.7,10.2c-1.8,0.7-7.3,2.2-5.5,2.4c2.4-0.4,2.9,0.3,2.8,0.8c-8.8,2.6-4.6-0.2-10.5,1.2
	c-2.1-0.9,3.6-1.6,3.4-2.6l-8.4,2.5c-4.9,0.5-9.7,2.1-14,2.1c1.9-0.2,0.5-1,3.7-1.1c-0.5,0.1-0.1,0.2-0.6,0.3
	c7.2-1.2,3.8-1.3,10.2-2.7c-6,1.5-12.2,2.6-18.3,3.4c1.2,0.7-4,1-5.4,1.7h-0.3c0,0.4-3.1,1.1-4,1.3l-1.4-0.9
	c-2.2,0.4,0.7,0.4-1.5,0.9c-3.1,0.7-14.4,2.1-15.3,1c-3.8,0.5-4.9,1.2-8.9,1.4c0.3-0.3,1.2-0.5,1.4-0.6c-8.4,0.6-18.8,1.7-26.8,1.6
	c-6.5,0.7-12.1,1-16.2,1.9c1.8-0.1,6.9-0.1,3.7,0.6c-1.8,0.5-4.5,0.4-7.2,0.7c0.6-0.5-6.9-0.3-1.5-0.8c-1.4-1.1-11.7,0.5-11.7-0.6
	c-1.3,0.4-9,0.3-11.9,0.8c-0.6-0.5,4.2-0.3,4.2-0.7l-3.5,0.2v-0.3c-6.7-0.3-8,1.1-12,1.2l0.2-0.1l-2.7,0.1l3.2-0.8
	c-4.3,0.1-6.6,0.9-11.4,0.9l-0.5-0.3l-2.9,0.2c0.5,0,0.7-0.1,0.4-0.2c-2.8,0.8-9,0.1-11.6,0.7c-1.9-0.2-3.5-1.2-6.1-0.8l0.5-0.9
	c6.4,0.2,2.4,0.8,9.1,0.8c-4.9-1.5-18.8-2-28.1-2.8c-7.5,0.1-19.7-2.2-23.1-1.3l0.9-0.4l-12.5-2c-10.7-1.2-21.5-3.5-29.6-4.4
	l-2.1-0.8c-8.6-0.2-28.2-5.9-33.9-6.3c-4.5-1.7,1.5-0.1,2.1-0.2c-3.3-1.1-9.3-2-12.2-3.8c0.1-0.2,4.8,1.4,2.7,0.6
	c-2.3-1.2-3.6-0.8-6.2-2.2c1.1,0.8-4.7-0.7-8.6-2.4c0.3,0.1,0.7,0.3,1,0.5c0.5,0.5-2.5-0.8-4.1-1.4c0.2,0,0.4,0.1,0.6,0.2
	c-5.3-2.2-10.5-4.7-15.5-7.5c-5.2-2.9-10.1-6.4-14.5-10.4c-4.3-4.1-8.2-9-9.9-14.7c-0.4-1.4-0.7-2.9-0.9-4.3l-0.2-2.2l0.1-2.2
	c0.3-2.9,1.1-5.7,2.4-8.3c-0.6,1.3-1.1,2.6-1.4,4c0.7-3.3,3.8-8.3,5.1-9.7l-0.3,0.4c0.9-1.2,1.8-2.1,2.4-2.9s1.2-1.4,1.8-2
	c1.2-1.3,2.6-2.6,4-3.6L19.2,51c5.7-4.9,9.6-7.2,16-11c5.1-2.8,4.6-2.4,8.2-4.2c3-1.5,4.5-2.2,4.6-2.3l-1.5,0.7
	c-1.6,0.7,3.2-1.5,5.4-2.5l-7,3c-4.5,2.1-4.5,1.9-9.5,4.5c-3.9,2.1-7.7,4.4-11.3,6.8c2.2-1.7-5,3.6-1.5,0.8
	c-1.9,1.3-3.7,2.7-5.4,4.2c-2.2,2-4.5,4.4-5.9,5.9c0.3-0.4,0.5-0.8,0.9-1.2c-3.6,4.5-2.6,3-5,6.6h0.3c-0.7,1.5-1.1,1.9-1.6,3.3
	c0.5-1.1,1.7-3.2,1.2-2c-0.8,1.8-1.5,3.6-1.9,5.5c0.1-0.8,0.3-1.7,0.6-2.4c-0.3,0.7-0.6,1.5-0.8,2.2c-0.2,0.9-0.4,1.7-0.7,2.6
	c0.2-0.9,0.3-1.8,0.5-2.7s0.5-1.8,0.7-2.5c-1.1,2.9-1,3.1-1,2.8s0.1-1-0.3,0.5c0.3-0.4-0.1,0.9-0.3,2.8c-0.2,2-0.2,4,0.1,6
	c-0.1,0.4-0.2-2.4-0.4-3.2C3.5,78,3.9,80.9,5,83.5c1.2,3,2.8,5.8,4.8,8.4C9.6,91.8,9,91,8.7,90.6c2.3,3.2,3.9,5.4,5.8,7
	c2.7,2.5,0.1,0.9,4.4,4.7c-0.5-0.7,0.8,0.4,2.2,1.6s3.2,2.4,3.4,2.2c1.1,0.9,2.2,1.9,3.4,2.7c3.4,1.7-0.4-1.3,6,2.4
	c5.8,3.4-1,0.5,2.3,2.7l1.6,0.5l2.8,1.7l-0.5-0.2c1.7,0.7,3.4,1.6,5,2.6c-0.4,0-2.3-0.9-2.6-0.9c1.5,0.6,4.4,2.1,7.3,3.6
	s6,2.7,7.8,2.9c1.8,0.8,5.5,2.2,4.9,2.4c1.8,0.2,8.2,3.1,10.8,3.6c-0.4,0.1,1.9,1.1,3.8,1.5c-2.5-1-0.8-0.6,1-0.4
	c2.1,1.1,8.5,2.5,9.3,3.4c3.6,0.6,2.4-0.2,3.3-0.4c2.1,1,9.3,2.7,7.9,3.1c-1.9-0.6-6.1-1.8-5.4-1.1c3.6,1.2,1.6,0.2,4.6,0.9
	c-0.2,0.1,1.9,0.9,1.3,1c1.8,0.4,4.3,0.9,6.8,1.7c-3.9-1.3,2.6,0.1,0.3-0.8l-3.9-0.4c-4.6-1.1-0.9-0.6-2.6-1.2
	c8.1,1.8,6.7,0.7,14.4,1.9c1.4,0.4,3.9,1.2,4.7,1.3c-2.6-0.4-2.2,0.4-0.8,0.8c4.4,0.2,7.6,1.9,11.1,2.7c-3-0.7-1.3-0.9-0.2-0.9
	c7.4,0.8,2.9,0.8,6,1.7c11.4,1.8,18.6,3.9,27.9,4.4l-4.3-1.3l-1.5,0.5c-3.3-1,0.8-1.5,2.8-1.8c0.5,0.3,6.1,0.8,3.9,1l5.5,0.3
	c-0.8-0.4-4.4-0.7-1.8-0.7c1.8,0.4,7.4,1.1,3.8,1.2c2.9,0.3,6.6,0.4,6-0.1c4.7,0.4-0.6,0.9-2.7,1c3.7,0.4,3.2,1,2,1.1l5.2,0.4
	c-1.1,0.1-1.2,0.4-2.3,0.5c3.4,0.6,5.9-0.1,8.8,0.8l1.4-0.5c9.4,1.2,8.4,1.3,17.2,1.8l-1.4-0.6c6.7-0.6,4.9,1.1,13.8,1.1
	c5.1-0.1,8.3-0.2,7.7-1.1c1.7-0.2,3.3,0,4.9,0.6c2.3-0.4,7.2-1.2,10.7-0.7c-2.4,0.3-4.4,0.5-6.7,0.6c0.7,0.9,7.8,0.2,11.6,0.6
	c2.6-0.3,11.1-1.5,15.8-2.4c-2.1-0.7-1.4-1.6,2.8-2.5c-0.6,0.6,5.7,0.4,8.6,0.6c-1.4,0.6,6.6,0.9,0.4,1.5c-1.8-0.2-2.7-0.9-5.1-0.6
	c3.1,0.7,6.3,1.1,9.5,1.3c-1.4,0.5-3,0.8-4.5,0.8C276.1,152.8,275.4,152.6,275.2,152.4z"/>
<path class="st1" d="M132.6,11.8l0.7-0.1l-0.8,0.1C132.7,11.7,132.7,11.7,132.6,11.8z"/>
<path class="st1" d="M401.3,134.2c0.3-0.1,0.8-0.4,0.8-0.5C401.8,133.7,401.6,133.9,401.3,134.2z"/>
<path class="st1" d="M478,83.3c-0.1,0.1-0.2,0.1-0.3,0.1C477.8,83.5,477.8,83.5,478,83.3z"/>
<path class="st1" d="M126.8,11.5l1.6-0.3L126.8,11.5z"/>
<path class="st2" d="M96.6,99.5h6.3c1.9-0.1,3.8,0.7,5,2.3c1.1,1.5,1.6,3.4,1.6,5.3c0,1.6-0.3,3.1-0.9,4.5c-0.9,2.3-3.2,3.7-5.6,3.6
	h-6.2L96.6,99.5z M102.5,113.4c0.6,0,1.2-0.1,1.7-0.2c0.8-0.3,1.5-0.9,2-1.6c0.5-0.7,0.8-1.6,0.9-2.4c0.1-0.5,0.2-1.1,0.2-1.6
	c0.1-1.6-0.3-3.2-1.1-4.5c-0.9-1.1-2.2-1.7-3.6-1.6h-3.7v12L102.5,113.4z"/>
<path class="st2" d="M116.2,99.5h2.1v15.7h-2.1V99.5z"/>
<path class="st2" d="M125.4,99.5h11.4v1.9h-9.3v4.8h8.6v1.8h-8.6v5.3h9.5v1.9h-11.5V99.5z"/>
<path class="st2" d="M163,100c1.6,0.9,2.6,2.5,2.8,4.3h-2.1c-0.2-1-0.7-1.9-1.6-2.5c-0.9-0.6-1.9-0.8-3-0.8c-1.4,0-2.7,0.6-3.6,1.6
	c-1.1,1.4-1.6,3.1-1.5,4.9c-0.1,1.6,0.3,3.2,1.2,4.6c0.9,1.2,2.4,1.9,3.9,1.8c1.3,0,2.5-0.4,3.5-1.2c1-1.1,1.5-2.5,1.4-4h-4.9v-1.8
	h6.9v8.4h-1.4l-0.5-2c-0.5,0.6-1.2,1.2-1.9,1.6c-1.1,0.6-2.3,0.8-3.5,0.8c-1.7,0-3.4-0.6-4.7-1.8c-1.5-1.7-2.3-3.9-2.1-6.2
	c-0.1-2.3,0.6-4.5,2.1-6.3c1.3-1.5,3.2-2.3,5.2-2.2C160.5,99.1,161.8,99.4,163,100z"/>
<path class="st2" d="M175.3,99.5v9.7c0,1,0.2,2,0.6,2.8c0.7,1.1,1.9,1.8,3.2,1.7c1.8,0,3-0.6,3.7-1.8c0.4-0.8,0.6-1.8,0.5-2.7v-9.7
	h2.1v8.8c0.1,1.5-0.2,3-0.8,4.4c-1,1.9-2.8,2.8-5.4,2.8s-4.5-0.9-5.4-2.8c-0.6-1.4-0.9-2.9-0.8-4.4v-8.8H175.3z"/>
<path class="st2" d="M203.6,99.5v1.9h-5.3v13.8h-2.1v-13.8h-5.3v-1.9H203.6z"/>
<path class="st2" d="M209.1,99.5h11.4v1.9h-9.3v4.8h8.6v1.8h-8.6v5.3h9.5v1.9h-11.5V99.5z"/>
<path class="st2" d="M237.4,99.5l3,12.7l3.5-12.7h2.3l3.5,12.8l3-12.8h2.2l-4.1,15.7h-2.2l-3.6-13l-3.6,13h-2.2l-4.1-15.7
	L237.4,99.5z"/>
<path class="st2" d="M264.1,99.5h2.4l5.7,15.7h-2.3l-1.6-4.7h-6.1l-1.7,4.7h-2.2L264.1,99.5z M267.7,108.8l-2.4-6.9l-2.5,6.9H267.7z
	"/>
<path class="st2" d="M277.6,99.5h2.1v6.5h8.1v-6.5h2.1v15.7h-2.1v-7.3h-8.1v7.3h-2.1V99.5z"/>
<path class="st2" d="M296.7,99.5h2.1v13.8h7.9v1.9h-10V99.5z"/>
</svg>
