<?xml version="1.0" encoding="UTF-8" standalone="no"?>
<!-- Created with Inkscape (http://www.inkscape.org/) -->

<svg
   version="1.1"
   id="svg2"
   xml:space="preserve"
   width="1120"
   height="400"
   viewBox="0 0 1120 400"
   sodipodi:docname="BKK plot - 1120x400.svg"
   inkscape:version="1.1 (c4e8f9ed74, 2021-05-24)"
   xmlns:inkscape="http://www.inkscape.org/namespaces/inkscape"
   xmlns:sodipodi="http://sodipodi.sourceforge.net/DTD/sodipodi-0.dtd"
   xmlns="http://www.w3.org/2000/svg"
   xmlns:svg="http://www.w3.org/2000/svg"><defs
     id="defs6" /><sodipodi:namedview
     id="namedview4"
     pagecolor="#505050"
     bordercolor="#ffffff"
     borderopacity="1"
     inkscape:pageshadow="0"
     inkscape:pageopacity="0"
     inkscape:pagecheckerboard="1"
     showgrid="false"
     inkscape:zoom="0.70710678"
     inkscape:cx="684.47936"
     inkscape:cy="346.48232"
     inkscape:window-width="1920"
     inkscape:window-height="1021"
     inkscape:window-x="0"
     inkscape:window-y="31"
     inkscape:window-maximized="1"
     inkscape:current-layer="g8"
     showguides="false"
     width="1120px" /><g
     id="g8"
     inkscape:groupmode="layer"
     inkscape:label="Bkk plot 4c"
     transform="matrix(1.3333333,0,0,-1.3333333,164,958.51953)"
     style="display:inline"><rect
       style="fill:#313a8c;fill-opacity:1;stroke-width:2.36643"
       id="rect131"
       width="840"
       height="300"
       x="-123"
       y="-718.88965"
       transform="scale(1,-1)" /><path
       d="m 244.91685,681.05961 h 472.08301 v 4.73248 H 244.91685 Z"
       style="fill:#ffc432;fill-opacity:1;fill-rule:nonzero;stroke:none;stroke-width:6.33838"
       id="path12"
       clip-path="none" /><path
       d="m 541.14447,449.75433 h 175.8555 v 4.73248 h -175.8555 z"
       style="fill:#ffc432;fill-opacity:1;fill-rule:nonzero;stroke:none;stroke-width:8.96048"
       id="path14"
       clip-path="none" /><path
       d="M 109.21361,650.28741 70.548517,688.96345 H -6.8143691 l 38.9589171,-38.67604 38.681377,-38.676 h 77.346565 z"
       style="fill:#ffc432;fill-opacity:1;fill-rule:nonzero;stroke:none;stroke-width:5.57024"
       id="path16"
       clip-path="none" /><path
       d="m 196.09592,650.28741 -44.27888,-44.56712 v -24.65796 -12.05432 -11.48856 -29.15656 l 28.86288,29.15656 11.49398,11.48856 12.04885,12.05432 24.95175,25.21832 v 44.00676 33.35056 z"
       style="fill:#ffc432;fill-opacity:1;fill-rule:nonzero;stroke:none;stroke-width:5.57024"
       id="path18"
       clip-path="none" /><path
       d="M 74.747937,527.10085 V 450.58653 H 152.0999 v 76.51432 z"
       style="fill:#ffc432;fill-opacity:1;fill-rule:nonzero;stroke:none;stroke-width:5.57024"
       id="path20"
       clip-path="none" /><path
       d="m 144.46804,589.90717 c 0,-1.10968 -0.27168,-2.13236 -0.82678,-3.0788 -0.54921,-0.952 -1.29468,-1.6972 -2.24658,-2.24656 -0.94655,-0.54924 -1.96917,-0.8214 -3.06796,-0.8214 -1.09335,0 -2.12147,0.2716 -3.06802,0.8214 -0.9519,0.5492 -1.69711,1.29456 -2.24658,2.24656 -0.55477,0.94644 -0.82678,1.96912 -0.82678,3.0788 0,1.0934 0.27172,2.12148 0.82678,3.06796 0.54922,0.9574 1.29468,1.69716 2.24658,2.252 0.94655,0.54428 1.97467,0.81604 3.06802,0.81604 1.09879,0 2.12141,-0.2716 3.06796,-0.81604 0.9519,-0.55472 1.69711,-1.2946 2.24658,-2.252 0.55482,-0.94648 0.82678,-1.97456 0.82678,-3.06796 m -1.19669,0 c 0,1.36536 -0.48393,2.53488 -1.45786,3.50316 -0.96278,0.96828 -2.1323,1.45784 -3.49766,1.45784 -1.35992,0 -2.53493,-0.48948 -3.49771,-1.45784 -0.96284,-0.96828 -1.45237,-2.1378 -1.45237,-3.50316 0,-1.37076 0.48948,-2.54576 1.45237,-3.51404 0.96278,-0.96816 2.13779,-1.45236 3.49771,-1.45236 1.36536,0 2.53488,0.48392 3.49766,1.45236 0.97372,0.96828 1.45786,2.14328 1.45786,3.51404 m -7.73519,3.28016 h 2.9374 c 0.83227,0 1.43603,-0.1632 1.80595,-0.50008 0.37556,-0.332 0.56031,-0.77788 0.56031,-1.3436 0,-0.43492 -0.14168,-0.81596 -0.42447,-1.13148 -0.28836,-0.3268 -0.73982,-0.55476 -1.35447,-0.69628 0.2556,-0.0984 0.44058,-0.2068 0.55476,-0.3148 0.16888,-0.152 0.3428,-0.3752 0.52749,-0.67444 0.01,-0.012 0.36448,-0.6528 1.06078,-1.90392 h -1.93111 c -0.62559,1.25112 -1.04984,2.00176 -1.26202,2.25204 -0.2178,0.2444 -0.42948,0.37 -0.64187,0.37 -0.0454,0 -0.11392,-0.008 -0.20112,-0.036 v -2.58928 h -1.63188 v 6.56568 m 1.63188,-2.74704 h 0.70715 c 0.47335,0 0.80505,0.0764 1.0009,0.2228 0.19052,0.1472 0.28836,0.3428 0.28836,0.58204 0,0.2396 -0.0923,0.43492 -0.27724,0.57656 -0.185,0.1528 -0.50007,0.2284 -0.94651,0.2284 h -0.77238 v -1.61016 z"
       style="fill:#ffffff;fill-opacity:1;fill-rule:nonzero;stroke:none;stroke-width:5.57024"
       id="path22"
       clip-path="none" /><path
       d="m -28.700774,539.82965 v 56.73572 h 21.0677329 c 10.0824322,0 16.8548084,-3.9166 16.8548084,-14.74692 0,-5.11872 -1.656356,-9.25832 -6.2447082,-11.59196 v -0.1472 c 8.1240999,-1.05524 11.5864719,-6.54936 11.5864719,-14.44772 0,-11.89108 -10.1586038,-15.80216 -20.5428721,-15.80216 H -28.700774 m 14.746945,34.4602 h 1.656328 c 3.9110759,0 7.974516,0.67996 7.974516,5.49404 0,5.19492 -4.5910801,5.49412 -8.578328,5.49412 h -1.052516 v -10.98816 m 0,-23.17292 h 1.882064 c 4.3626039,0 11.73604807,-0.2284 11.73604807,6.01624 0,6.84856 -7.29732417,6.174 -12.11412407,6.174 h -1.503988 z"
       style="fill:#ffffff;fill-opacity:1;fill-rule:nonzero;stroke:none;stroke-width:5.57024"
       id="path24"
       clip-path="none" /><path
       d="M 54.969336,596.56537 H 73.252013 L 50.680136,569.70429 75.283701,539.82965 H 56.171468 l -19.036052,24.6036 h -0.14972 v -24.6036 H 22.236072 v 56.73572 h 14.749624 v -23.40148 h 0.14972 z"
       style="fill:#ffffff;fill-opacity:1;fill-rule:nonzero;stroke:none;stroke-width:5.57024"
       id="path26"
       clip-path="none" /><path
       d="m 112.00417,596.56537 h 18.28272 l -22.57188,-26.86108 24.60356,-29.87464 h -19.11222 l -19.036113,24.6036 h -0.14968 v -24.6036 H 79.270881 v 56.73572 h 14.749676 v -23.40148 h 0.14968 z"
       style="fill:#ffffff;fill-opacity:1;fill-rule:nonzero;stroke:none;stroke-width:5.57024"
       id="path28"
       clip-path="none" /><path
       d="m 200.19195,494.92533 v -9.476 h 16.62907 v -12.49484 h -16.62907 v -9.77508 h 17.53202 v -12.48944 h -32.27893 v 56.73024 h 32.27893 v -12.49488 z"
       style="fill:#ffffff;fill-opacity:1;fill-rule:nonzero;stroke:none;stroke-width:5.57024"
       id="path30"
       clip-path="none" /><path
       d="m 276.03715,507.42021 v -31.90364 c 0,-7.30004 -0.29896,-14.52388 -5.94009,-20.01792 -4.74341,-4.6618 -12.1903,-6.32092 -18.81577,-6.32092 -6.62007,0 -14.07241,1.65912 -18.81037,6.32092 -5.6464,5.49404 -5.94553,12.71788 -5.94553,20.01792 v 31.90364 h 14.7469 v -29.8692 c 0,-7.37616 0.5275,-15.42692 10.009,-15.42692 9.48126,0 10.00351,8.05076 10.00351,15.42692 v 29.8692 z"
       style="fill:#ffffff;fill-opacity:1;fill-rule:nonzero;stroke:none;stroke-width:5.57024"
       id="path32"
       clip-path="none" /><path
       d="m 332.54432,450.68997 h -18.36424 l -13.91468,21.81848 h -0.14716 v -21.81848 h -14.7469 v 56.73024 h 22.04146 c 11.21118,0 19.71342,-5.34724 19.71342,-17.45596 0,-7.8222 -4.3681,-14.59996 -12.41337,-16.02516 l 17.83121,-23.24912 m -32.42582,31.29976 h 1.4252 c 4.81413,0 10.23201,0.903 10.23201,7.07156 0,6.16856 -5.41788,7.0716 -10.23201,7.0716 h -1.4252 z"
       style="fill:#ffffff;fill-opacity:1;fill-rule:nonzero;stroke:none;stroke-width:5.57024"
       id="path34"
       clip-path="none" /><path
       d="m 351.27852,494.92533 v -9.476 h 16.62913 v -12.49484 h -16.62913 v -9.77508 h 17.53752 v -12.48944 h -32.28982 v 56.73024 h 32.28982 v -12.49488 z"
       style="fill:#ffffff;fill-opacity:1;fill-rule:nonzero;stroke:none;stroke-width:5.57024"
       id="path36"
       clip-path="none" /><path
       d="m 434.50539,482.35965 c -0.15224,-8.27372 -0.7616,-15.33984 -5.79874,-22.42224 -5.57017,-7.74612 -13.92007,-11.1296 -23.40138,-11.1296 -17.8312,0 -30.24996,12.10872 -30.24996,29.93992 0,18.44044 12.48949,30.54916 30.77761,30.54916 11.66265,0 20.68704,-5.26564 25.58273,-15.873 l -13.99624,-5.8748 c -2.03446,5.42332 -6.32629,9.04072 -12.26643,9.04072 -9.70437,0 -14.74695,-9.25836 -14.74695,-17.90736 0,-8.81224 5.2656,-17.76592 14.97536,-17.76592 6.39167,0 11.28191,3.3182 11.88568,9.86208 H 405.2291 v 11.58104 z"
       style="fill:#ffffff;fill-opacity:1;fill-rule:nonzero;stroke:none;stroke-width:5.57024"
       id="path38"
       clip-path="none" /><path
       d="m 456.02465,450.68997 h -14.75234 v 56.73024 h 14.75234 z"
       style="fill:#ffffff;fill-opacity:1;fill-rule:nonzero;stroke:none;stroke-width:5.57024"
       id="path40"
       clip-path="none" /><path
       d="m 525.54352,480.10765 c 0,-18.36436 -13.16397,-31.29984 -31.37592,-31.29984 -18.21201,0 -31.37598,12.93548 -31.37598,31.29984 0,17.15668 15.04609,29.18924 31.37598,29.18924 16.32983,0 31.37592,-12.03256 31.37592,-29.18924 m -47.40662,-0.0764 c 0,-9.78048 7.22383,-16.9282 16.0307,-16.9282 8.80137,0 16.0252,7.14772 16.0252,16.9282 0,7.82224 -7.22383,14.9754 -16.0252,14.9754 -8.80687,0 -16.0307,-7.15316 -16.0307,-14.9754 z"
       style="fill:#ffffff;fill-opacity:1;fill-rule:nonzero;stroke:none;stroke-width:5.57024"
       id="path42"
       clip-path="none" /><path
       d="m -35.965478,521.82441 -13.61544,0.69628 -3.54124,13.26192 -4.92288,-12.84848 -13.642681,0.79412 10.634521,-8.59456 -4.939161,-12.72888 11.542961,7.44148 10.50396,-8.6708 -3.52488,13.1966 z"
       style="fill:#ffc432;fill-opacity:1;fill-rule:nonzero;stroke:none;stroke-width:5.57024"
       id="path44"
       clip-path="none" /><path
       d="m -0.65120894,482.88733 -13.61546406,0.69624 -3.541216,13.26192 -4.928316,-12.84848 -13.631793,0.7942 10.629048,-8.59472 -4.939168,-12.74508 11.542973,7.45776 10.5039279,-8.69256 -3.5248839,13.2238 z"
       style="fill:#ffc432;fill-opacity:1;fill-rule:nonzero;stroke:none;stroke-width:5.57024"
       id="path46"
       clip-path="none" /><path
       d="m 53.04372,470.12585 -13.620944,0.69084 -3.535768,13.27824 -4.933752,-12.85936 -13.631832,0.79964 10.629148,-8.59472 -4.939244,-12.756 11.548376,7.46328 10.503976,-8.68172 -3.530328,13.20748 z"
       style="fill:#ffc432;fill-opacity:1;fill-rule:nonzero;stroke:none;stroke-width:5.57024"
       id="path48"
       clip-path="none" /><path
       d="m -49.455838,576.71605 -11.3036,-7.63732 3.82408,-13.18572 -10.857561,8.46412 -11.26012,-7.72432 4.65632,12.84844 -10.80856,8.3608 13.73512,-0.41868 4.50408,12.85936 3.81316,-13.13672 z"
       style="fill:#ffc432;fill-opacity:1;fill-rule:nonzero;stroke:none;stroke-width:5.57024"
       id="path50"
       clip-path="none" /><path
       d="m -35.949118,631.21597 -11.30364,-7.63724 3.82956,-13.18576 -10.86312,8.46412 -11.265481,-7.72432 4.667201,12.8484 -10.814001,8.3662 13.729721,-0.42456 4.50944,12.87032 3.8132,-13.14224 z"
       style="fill:#ffc432;fill-opacity:1;fill-rule:nonzero;stroke:none;stroke-width:5.57024"
       id="path52"
       clip-path="none" /><path
       d="m -0.63488894,669.94633 -11.30364006,-7.63724 3.8295159,-13.18576 -10.8683919,8.46412 -11.260089,-7.73524 4.66724,12.85944 -10.814024,8.35532 13.735105,-0.41328 4.509484,12.85936 3.81318,-13.1422 z"
       style="fill:#ffc432;fill-opacity:1;fill-rule:nonzero;stroke:none;stroke-width:5.57024"
       id="path54" /></g></svg>
