<?xml version="1.0" encoding="utf-8"?>
<!-- Generator: Adobe Illustrator 26.0.1, SVG Export Plug-In . SVG Version: 6.00 Build 0)  -->
<svg version="1.1" id="Ebene_1" xmlns="http://www.w3.org/2000/svg" xmlns:xlink="http://www.w3.org/1999/xlink" x="0px" y="0px"
	 viewBox="0 0 221.1 96.4" style="enable-background:new 0 0 221.1 96.4;" xml:space="preserve">
<style type="text/css">
	.st0{fill-rule:evenodd;clip-rule:evenodd;fill:#9D9D9C;}
	.st1{fill-rule:evenodd;clip-rule:evenodd;fill:#FFD500;}
	.st2{fill-rule:evenodd;clip-rule:evenodd;fill:#002E6D;}
</style>
<g>
	<g>
		<path class="st0" d="M3.1,56.9h8c1.6,0,3.4,0,4.9-0.7c2-1,2.5-2.6,2.5-4c0-3.6-3.2-4.1-4.3-4.3v0c0.9-0.2,3.8-0.9,3.8-4
			c0-1.6-0.8-2.5-1.4-3c-1.6-1.4-4-1.4-6.3-1.4H3.1V56.9z M7.9,42.6h2.7c0.5,0,1.1,0,1.6,0.4c0.5,0.4,0.7,1,0.7,1.6
			c0,0.8-0.4,1.4-1,1.7c-0.4,0.2-0.9,0.2-1.7,0.2H7.9V42.6z M8,49.5h2.6c0.7,0,2.7,0,2.7,2.1c0,2-2,2-2.6,2H8V49.5z"/>
		<polygon class="st0" points="21.3,56.9 26.3,56.9 26.3,47.6 32.3,56.9 38.5,56.9 31.8,47.1 38,39.4 32.1,39.4 26.3,47.1 
			26.3,39.4 21.3,39.4 		"/>
		<polygon class="st0" points="40.2,56.9 45.3,56.9 45.3,47.6 51.3,56.9 57.5,56.9 50.7,47.1 57,39.4 51,39.4 45.3,47.1 45.3,39.4 
			40.2,39.4 		"/>
		<path class="st0" d="M58.8,43.7h0.3v-1.5h0.9l1,1.5h0.3l-1-1.5c0.5-0.1,0.9-0.3,0.9-0.9c0-0.6-0.3-0.9-1.1-0.9h-1.2V43.7z
			 M59.1,40.6H60c0.4,0,0.8,0.1,0.8,0.7c0,0.6-0.5,0.6-1.1,0.6h-0.7V40.6z M59.8,39.5c1.4,0,2.5,1.1,2.5,2.5c0,1.4-1.1,2.6-2.5,2.6
			c-1.4,0-2.5-1.1-2.5-2.6C57.3,40.6,58.4,39.5,59.8,39.5z M59.8,39.2c-1.6,0-2.8,1.3-2.8,2.8c0,1.6,1.3,2.8,2.8,2.8
			c1.6,0,2.8-1.3,2.8-2.8C62.6,40.5,61.4,39.2,59.8,39.2z"/>
	</g>
	<polygon class="st1" points="1.7,1.2 32.7,1.2 64.3,32.8 95.7,1.5 95.7,32.7 64.2,64.2 64.2,95.4 33.3,95.4 33.3,64.2 64.3,64.2 
		64.3,32.7 33.2,32.7 	"/>
</g>
<g>
	<polygon class="st2" points="80,65.4 80,65.4 80,95.5 88.3,95.5 88.3,73.8 93.6,73.8 93.6,95.5 101.9,95.5 101.9,73.8 106.9,73.8 
		106.9,95.5 115.2,95.5 115.2,65.4 	"/>
	<path class="st2" d="M120.6,65.4v30.1h8.3v-7.1h6.5v7.1h8.3V65.4H120.6z M128.9,79.9v-6.1h6.5v6.1H128.9z"/>
	<polygon class="st2" points="164.8,65.4 164.8,76.3 157.3,76.3 157.3,65.4 149,65.4 149,95.5 157.3,95.5 157.3,84.7 164.8,84.7 
		164.8,95.5 173.2,95.5 173.2,65.4 	"/>
	<polygon class="st2" points="186.5,87.1 186.5,65.4 178.2,65.4 178.2,95.5 196.7,95.5 196.7,87.1 	"/>
	<polygon class="st2" points="220,72.8 220,65.4 200.4,65.4 200.4,95.5 220,95.5 220,87.2 208.7,87.2 208.7,83.7 220,83.7 220,76.3 
		208.7,76.3 208.7,72.8 	"/>
</g>
</svg>
