<?xml version="1.0" encoding="utf-8"?>
<!-- Generator: Adobe Illustrator 26.0.1, SVG Export Plug-In . SVG Version: 6.00 Build 0)  -->
<svg version="1.1" id="Ebene_1" xmlns="http://www.w3.org/2000/svg" xmlns:xlink="http://www.w3.org/1999/xlink" x="0px" y="0px"
	 viewBox="0 0 419.5 238.1" style="enable-background:new 0 0 419.5 238.1;" xml:space="preserve">
<style type="text/css">
	.st0{fill:#05509E;}
	.st1{fill-rule:evenodd;clip-rule:evenodd;fill:#05509E;}
	.st2{fill:#BDBCBC;}
</style>
<polygon class="st0" points="111.4,119.5 116.3,119.5 122.7,90.9 122.8,90.9 129.1,119.5 134.1,119.5 141.4,86.1 137.3,86.1 
	131.5,113.2 131.4,113.2 125.4,86.1 120.1,86.1 114.1,113.2 114,113.2 108.5,86.1 104.2,86.1 "/>
<polygon class="st0" points="143.8,119.5 159.9,119.5 159.9,115.9 148,115.9 148,104.1 158.7,104.1 158.7,100.3 148,100.3 148,89.8 
	159.3,89.8 159.3,86.1 143.8,86.1 "/>
<path class="st1" d="M164.2,119.5h4.2v-15.1h1.9c3.1,0,4.3,1,5.3,3.8l3.8,11.3h4.5l-4.7-13.4c-0.7-1.9-1.6-2.9-3.6-3.2v-0.1
	c4.9-1,6.6-4.4,6.6-8c0-2.4-0.8-4.7-2.5-6.3c-1.5-1.4-3.5-2.3-7-2.3h-8.5V119.5L164.2,119.5z M168.4,89.6h3.3c3.7,0,6.1,1.8,6.1,5.5
	c0,2.9-1.7,5.9-6.2,5.9h-3.2L168.4,89.6L168.4,89.6z"/>
<path class="st1" d="M187.4,119.5h4.2v-15.1h1.9c3.1,0,4.3,1,5.3,3.8l3.8,11.3h4.5l-4.7-13.4c-0.7-1.9-1.6-2.9-3.6-3.2v-0.1
	c4.9-1,6.6-4.4,6.6-8c0-2.4-0.8-4.7-2.5-6.3c-1.5-1.4-3.5-2.3-7-2.3h-8.5V119.5L187.4,119.5z M191.5,89.6h3.3c3.7,0,6.1,1.8,6.1,5.5
	c0,2.9-1.7,5.9-6.2,5.9h-3.2L191.5,89.6L191.5,89.6z"/>
<path class="st1" d="M218.3,86.1l-11.2,33.4h4.2l2.7-8.7h12.8l2.7,8.7h4.4l-11-33.4H218.3L218.3,86.1z M215.2,107.2l5.2-16.7h0.1
	l5.1,16.7H215.2L215.2,107.2z"/>
<polygon class="st0" points="234.4,104.4 244.8,104.4 244.8,107.8 234.4,107.8 "/>
<polygon class="st0" points="248.7,119.5 252.7,119.5 252.7,90.7 252.8,90.7 261.8,119.5 264.9,119.5 274.4,90.7 274.5,90.7 
	274.5,119.5 278.5,119.5 278.5,86.1 272.2,86.1 263.6,112.7 263.5,112.7 255.2,86.1 248.7,86.1 "/>
<polygon class="st0" points="284.1,119.5 300.3,119.5 300.3,115.9 288.4,115.9 288.4,104.1 299.2,104.1 299.2,100.3 288.4,100.3 
	288.4,89.8 299.7,89.8 299.7,86.1 284.1,86.1 "/>
<polygon class="st0" points="304.6,86.1 308.9,86.1 308.9,119.5 304.6,119.5 "/>
<path class="st0" d="M328.2,86.9c-1.5-0.6-3.8-1.1-6-1.1c-5,0-9.2,2.9-9.2,8.3c0,4.3,1.3,6.3,7.3,9.9c4.5,2.7,5.1,4.2,5.1,6.8
	c0,2.7-2.1,5.2-5.9,5.2c-2,0-4.4-1-6.3-2.1v4.3c1.8,0.9,4.3,1.4,7,1.4c6.4,0,9.7-4.1,9.7-9.4c0-3.8-1.7-6.7-6.9-9.7
	c-4.8-2.8-5.6-4.1-5.6-6.2c0-2.8,2-5,5.2-5c2,0,4.1,0.6,5.7,1.5v-3.9H328.2z"/>
<path class="st0" d="M347.7,86.9c-1.5-0.6-3.8-1.1-6-1.1c-5,0-9.2,2.9-9.2,8.3c0,4.3,1.3,6.3,7.3,9.9c4.5,2.7,5.1,4.2,5.1,6.8
	c0,2.7-2.1,5.2-5.9,5.2c-2,0-4.4-1-6.3-2.1v4.3c1.8,0.9,4.3,1.4,6.9,1.4c6.4,0,9.7-4.1,9.7-9.4c0-3.8-1.7-6.7-6.9-9.7
	c-4.8-2.8-5.6-4.1-5.6-6.2c0-2.8,2-5,5.2-5c2,0,4.1,0.6,5.7,1.5V86.9L347.7,86.9z"/>
<polygon class="st0" points="353.6,119.5 357.6,119.5 357.6,92.1 357.7,92.1 370.2,119.5 375.5,119.5 375.5,86.1 371.5,86.1 
	371.5,113.7 371.4,113.7 358.8,86.1 353.6,86.1 "/>
<polygon class="st0" points="381.1,119.5 397.3,119.5 397.3,115.9 385.3,115.9 385.3,104.1 396.2,104.1 396.2,100.3 385.3,100.3 
	385.3,89.8 396.7,89.8 396.7,86.1 381.1,86.1 "/>
<path class="st1" d="M401.6,119.5h4.2v-15.1h1.9c3.1,0,4.3,1,5.3,3.8l3.8,11.3h4.5l-4.7-13.4c-0.7-1.9-1.6-2.9-3.6-3.2v-0.1
	c4.9-1,6.6-4.4,6.6-8c0-2.4-0.8-4.7-2.5-6.3c-1.5-1.4-3.5-2.3-7-2.3h-8.5V119.5L401.6,119.5z M405.7,89.6h3.3c3.7,0,6.1,1.8,6.1,5.5
	c0,2.9-1.7,5.9-6.2,5.9h-3.2L405.7,89.6L405.7,89.6z"/>
<path class="st2" d="M15.9,199.6c33.6-51.4,94.1-71.4,181.9-60.2c27.7,2.5,52.7,0.8,74.6-5.2C195.9,187.6,110.4,209.4,15.9,199.6
	L15.9,199.6z"/>
<path class="st0" d="M397.8-0.9c-15.4,28.2-32.2,53.7-49.9,75.6l-2.5,3.1h12.6l0.6-0.8c15.7-22.8,30.1-48.4,42.8-76.2L397.8-0.9z"/>
<path class="st0" d="M296.7,127.3l-0.5,0.5c-38.8,32.9-83.4,56.1-132.5,69c-49.1,13-104.2,16.1-163.8,9.1l-2.4-0.3L1.1,239l1.6,0.1
	c10.9,0.6,21.6,0.9,32.2,0.9c52.4,0,100.8-7.5,143.9-22.5c51.8-18,97.6-47.2,136.1-86.9l3.2-3.3L296.7,127.3z"/>
<path class="st1" d="M8,105.7v5.8h1.9c1.1,0,2-0.3,2.6-0.8c0.6-0.5,0.9-1.2,0.9-2.1c0-0.9-0.3-1.7-0.9-2.2c-0.6-0.5-1.5-0.7-2.6-0.7
	L8,105.7L8,105.7z M8,92.6v5.1h1.5c0.9,0,1.6-0.2,2.1-0.7c0.5-0.4,0.7-1.1,0.7-1.9s-0.2-1.5-0.7-1.9s-1.2-0.6-2.1-0.6H8L8,92.6z
	 M-2.6,120.5V84h15.2c3.2,0,5.8,0.9,7.6,2.6c1.8,1.7,2.7,4.2,2.7,7.3c0,2-0.4,3.6-1.3,5c-0.9,1.3-2.1,2.2-3.6,2.6
	c2.1,0.5,3.7,1.5,4.8,2.9c1.1,1.4,1.6,3.3,1.6,5.7c0,3.4-1,6-3,7.7s-4.9,2.6-8.8,2.6L-2.6,120.5L-2.6,120.5z"/>
<polygon class="st0" points="27.1,120.5 27.1,84 38.3,84 38.3,99.5 45.5,84 58.5,84 48.9,102 59.8,120.5 46,120.5 38.3,105.3 
	38.3,120.5 "/>
<polygon class="st0" points="62.4,120.5 62.4,84 73.5,84 73.5,99.5 80.8,84 93.6,84 84.1,102 95,120.5 81.2,120.5 73.5,105.3 
	73.5,120.5 "/>
</svg>
