<?xml version="1.0" encoding="utf-8" standalone="no"?>
<svg xmlns="http://www.w3.org/2000/svg" fill-rule="evenodd" stroke-miterlimit="2.6" width="805" height="347" viewBox="0 0 805 347" clip-rule="evenodd">
  <path fill="#dfdee0" d="M611.4 323.3c-.5-2.2-12.5.8-13-1-1.2 0-3 .8-3.3 0-2-1.2-7-.2-8-1.2-1.3 0-8.2 0-8.5-1-2 0-3.2-.4-4.6-.4-1-2-7-1-7.3-2-.8-.3-2.6-1.5-2.6-1.7-1.6-1.7-7-2.4-8.5-2.4-.6 1.2-5.3-3-5.6-3.8-2.4 0-6-1-7-2.6-2.3 0-3-2.2-4.7-2.2-1.8-1.8-4.8-1.2-5-3.7-1.4-1-3-1.5-4-1.6-1-2-3.8-4.7-5.6-5-.3-.5-2.8-1.5-3.2-1.5-.7-1.5-3.2-4.3-4.4-4.4-1.2-2-4-3.3-4.4-4.7-2-.3-2.6-3-3.6-3.4-1-1.5-4-3-4-3.6-2.6-.8-1.3-3.8-2-4-.5-.8-1-.6-1-.6-1-1.2-2.5-3.2-3.4-3.7-.2-1-.6-1.5-1-1.6-.5-1.4-1.8-3-2.8-3.6-.5-1.6-1.8-3-1.8-4-.8-1-3.3-5-3.7-5.2-.7-2-2-5-2.3-6.7-2.3-1.6-2.2-7.8-4-8.7-.6-4-2.4-7.4-2.4-11.2-1.4-1-2-8.6-2.6-8.8-1-6-1.7-11.7-1.7-17.6 1.5-.8 0-4.5 0-5.5 2-1-.8-6 1-6.7 0-2 1-15.6 2-16 .3-2 2-11 3-11.5 0-2.7 2-4.4 2-7.3.5-.3 1.7-3 1.8-3.3 2-1.3 1.7-6 3.8-6.7 0-.2 0-.3.5-.4.2-1.6 1.7-3.6 1.7-4.7 1.3-.4 2-2 2-3.3 2-1 2-4.3 4.2-4.5.3-.6 1.3-2.6 1.6-2.7.4-1.2 5-6.3 5.6-6.6.2-1.4.7-2.4 1.6-3 .3-2 1.8-2.7 3.2-3.7.5-1.4 5-3.7 5-4.7 1.7-1 1.6-2.6 2.6-3 .5-1 6.5-5.5 6.5-5.8 2.2-.7 3.2-4 5.2-4.2.3-.5 1-1.4 1.7-1.7.3-1 2-.6 2.2-1.3.5-.3 4-2 4.3-2.7.5-.5 7-4.7 7-5 1-.5.8-2.4 2-2.8.6-2.8 3.4-3.3 6.5-3.3.3-1 3-.7 3.3-1.5 1-.5 3.6-2.5 3.8-3.8 1.6-1.2 5-3 7.4-3 .7 1.7 6.6-1.7 6.6-2.5 1 0 11.4-1.6 11.4-3.2 3-2 4.8-3.2 9.5-3.2.8.8 6.6 1 6.7 1.5.4.6 9-2.4 10.6-.5.8 0 6.2-1.8 6.4-.7l7-.2c0-.4.4-1 .7 0 1.8 0 3.5.4 5.7.4 1.4-1 1.8 0 3.2 0 .5 1.6 1.6 0 1.8 0 1.6 0 10.3.7 11.4 1.8h2.4c.7 1.4 4.8 1.7 6.5 1.7.6.8 3.7 1 4 1.4 1.4.4 3.2 2 5.3 2.5.4 1.3 3 1.5 4.8 1.6.5 1 4.4 2 4.6 3.8.5.4 2 1.2 3 1.3 1 1.7 4 .5 4 3.6 1.4.7 2.3 2.7 4.8 3l.8 1.5c1.7.3 2.2 2.6 4.7 2.8 1 2 5.2 4.2 5.6 6.4.7 1 3.2 2 3.3 3.5 1 .7 3 4.8 3.3 6.6l.3 1c1.2.8.5 3.3.5 4.6-2 1.7-3-.5-3.8-.6-2.4-2.3-1.8-4.7-5.6-5-.3-.5-1-1-1-1-.4-2.3-2.6-4-3-5.4-2.3-.4-3.8-1.5-4.4-3.3-2.4-1.7-3-3.7-6-3.7-1-1.8-4.4-2-5.6-2.3-1.5-2.3-2.4-2.4-4.8-3.2-.2-.3-.2-.5-.5-.6-1.4-5-8-1-9-2.8-.6 0-2 0-2.3-.5-2 .5-3.6-.5-5.3-.7-2-2.7-4-3-7-3 0 .3-1.2 1.5-1.5 1.6-1.7 3.2-5.3 0-7 0-.7-1.4-6-.2-6-1.6-2.3-1.5-3.4-1.3-6-1.4-.6-1.2-11 .6-13 .6-1 2.2-4.3 0-6 0-1-1.8-10.3 1-12.2 1-.3 1-6.8 1.5-7 2-1.8.4-3 2.2-4.3 2.2-.8-1.5-10.7 1.6-12.4 1.8-.4 1-3.2 1.6-4.2 1.6-.2.5-1.7 1-2.2 1-1.3 2-5.8 1.4-6.7 3.3-1.3.5-5.6 2.6-6 3.5-2.5.4-4.5 3.4-6.7 3.4-.3.5-1 1-1.3 1.5-3 .2-3 3.2-4.7 3.4-.7 1-3.8 3.7-4.8 4-.8 1.4-3.8 3.5-5.4 3.7 0 .4-1.6 2-2 2.2-.7 1-2.6 2.5-3.7 2.5-.4.8-1 1.3-1.3 2.5-.8.6-5 5-5.3 5-1 1.5-2.7 2.6-3.4 4 0 0-2 3.3-2.2 4-1 .5-3 6-3.4 6-.5 1.6-2.2 2.2-3 3.6-.4.2-.7 3.3-1.2 3.3-.8 1-1.7 3-2 4.6-2 .7-2.5 8.7-4 8.7-.3.5-1 2.8 0 3.4-.6 3.3-2.7 5.6-2.7 9.5 1 .5-1 6.3-.2 6.6v3c-1.3.7-.5 3.2-.5 5-1.4.7-.6 4-.6 5.7 2.3 2.3-1 5.3.5 7.3v3.4c-.5.2-.7 0-.7.5 1 .3 1 6 1 7.4.4 0 2.7 8.7 2.7 10.3 1 .5 2.5 8.2 3 8.3.4 3 .6 3.3 2 5.7 1.5.6.6 4.2 2 5 .5 3 3 4 3.4 7.4.2 0 2 3.3 2.5 3.4 1 2 1.2 3.7 3 5.6.3 2 3 2 3.4 5.6 1.4 1 3 2.4 3.8 4.3.5 0 4.3 3 4.3 4.2.3.2.6 1.2 1.2 1.7.4 0 .8-.5.8 1 .2 0 1.3 0 1.6 1 1.3.2 1 .4 2 1.2 0 0 6 4.6 7 4.7.6.6 4.8 4.2 6 4.2.8 1.3 3.8 3 5.5 3.2.8 1.2 5 3 7 3.2.7 1 5.8 2.6 7.5 2.7 1 1.4 7 2.6 9 2.6 1.5 1.4 6.5 1.7 8.8 1.7 1.5 1.5 7.6 1.6 10.3 1.6.4.3 3 1 4 1 1.4-1.3 5.8 0 8 0 .8-1.4 3 .4 4-.5h6.4c1.5-1.5 7.4-1.6 9.8-1.7.3-.5 4-2 5-2 .6-1.2 7.2-1.7 8.5-1.7.5-.8 3.4-1.5 4.8-1.6 1-1.7 3.7-2 6-2.2.4-.8 8.2-2.4 8.2-3.6 2-1 2-1.4 5.3-1.5.5-1 1.8-2 3-2 2.2-1.4 3.7-2.5 6.6-2.8.7-1 4-2.5 4.5-3.7 1.7-.2 3.3-1 5.4-1.2.2-.6 3-2.5 3.8-2.7.3-.6 4-3.4 5-3.7.5-1.7 3-1.8 3.4-3 1-.6 4-2 4.4-2.7 2-.6 2.6-3 4-3.5 1.2-2 4.8-3.2 5.8-5.3 1.3-.4 3.2-2.6 3.2-3.8 0 0 4.8-4.6 4.8-4.8 1.3-.6 1.2-2.6 2-3 1-1.6 3-2.3 4-4 1-.5 4.3-5 4.3-6 1.3-.8 4.3-6.6 4.4-8 2-1.4 2.4-4 4.2-5.2.2-2.2 2.2-3.6 2.2-5.2.5-.2 3.8-6.8 3.8-7.4.5-.3 2-5.4 2.2-6 1.3-.8 2-2.3 2-3.8 1.5-.7 1.2-6.2 2.2-6.7 0-5.2 2.5-9 3-14.2 1.7-1 0-7 1.2-7.5 0-2.3.7-4.2.7-6.2 1-.8 0-7 0-8.6 1.5-1-1-6 .2-6.6 0-1-1.2-1.7 0-2 0-2.4-1.3-14-2.5-14.7-.3-2.5-1.7-13.5-3.4-14 0-1.7-3-10.6-3.7-11-.3-1.4-1.6-1.6-2-2.5-2.3-1.6-4-7-4.6-7.3 0-.3-.5-.6-.5-1-2-1.8-2.6-5.5-4.8-6.2-.3-1-3.3-5.7-3.7-6-.7-1.3-3.7-4.6-5-4.7-.3-1.7-.4-2-2-2-.6-1.3-4.2-4.2-5-4.4-1.2-2-4.8-3.6-5-4.8-2-1-2.8-2.7-4-3.5-.7-2-4.2-2-4.7-3l-.4-.3c-.8-1.8-5-2-5.8-3.6-1.5-.2-2-1.5-2.6-1.7-1.3-2.5-8.7-2.5-9-3.6-1-.3-2.5-1-2.6-1.6-1.6-1-5-2-7-2.2-.6-1.7-5-1.6-5.7-1.6-1-2-8.2-2-9.2-2-1-1.4-4.4.2-5-1-5-1.4-11-.7-16.3-.8-1-1.8-10.2 1-10.6-.3-3.7 0-7 .6-11 .6-.5.8-5 2-5.6 1-5 0-8.8 1.6-13.2 1.8-.4.8-8.6 2-10 2.2-1 1.4-7 1-8.3 1-.8 1.3-4.6 2.2-6 2.3 0 0-7 3-7.6 3-1 3.7-7 .6-7.8 3-2.6.4-3 2.3-5.2 2.5-1.3 2-4.8 2-5 2.7-3.6.3-5.2 3-8.5 3-.3.4-3.8 2-4.3 2-.5 1-6 4-7 4-1 1.6-8.2 4.6-9.7 4.6-.7 1.4-2.4 1.5-3 2.7-2.7.3-5 4-7.8 4.2-.5 2.8-1.6 1.5-2.4 3.2-1.5 0-3.8 2-4 2-1.3 2.4-3.8 2-4.7 3.7-2 .3-3.3 3.8-4.4 4-1 1.8-4.3 2.5-4.6 4.8-1 .4-2.8 2.4-3.5 2.4-1.5 2-4 2.7-4-.6 1.3-1 2.5-3.4 3.2-3.6.5-.7 3-4.3 3.3-4.5.6-1.6 4-3 4.5-4 2-1 2.6-4.4 4.7-4.6.6-1 2.3-2 2.4-2.6l3-1.7c.4-1 3-2.8 4-3.3.6-2 6.4-4 6.4-5 1-.4 3.2-2.3 3.2-3.3.6-.3 4.8-2.3 4.8-3.2 1.3-.6.5-1 2.6-1.3.8-.7 4-2.5 4.5-3.8.7-.2 5-2 5-2.7 3-.8 3.4-4.3 7-4.5 2-1.2 4.4-3.3 7-3.6 1-1.8 2-2 4.3-2.2.6-.5 4-2.6 5-2.7 1.2-2 3.2-1 5-2.2.4-1.4 6.6-2.3 7-4.7 1.2-.2 1.7-.5 3-.6 1.6-1.5 3.3-1.6 6-1.6.4-.5 3.4-2 4.3-2 .3.5 1 0 2.2-.2.4-.8 1.4-1.8 2.2-2.3.2-1 10.7-3 12.2-3.3.2-.3.6-.6.7-1 .3 0 6.5-.5 7-1.5h.2c2-3 19-2.3 19-3 .5 0 2-.7 2.3 0 .5 0 8-1.6 8-2h16.2v.5c2.2 0 13.5 1 13.6 1 2 0 2.8.3 4.8 1 .3.5 5-1 6 1.8 1.8 0 3-.4 5 .7.4 1.5 7 .5 8.2 2.6 1 0 3.5 0 4.3 1.6 2.8 0 7.4.6 9 3.8 1.5 0 3 0 4.2 1.2.3 1 4.5.4 5.5 2.5 1 .2 3.8 1.4 5 2.6 3.5 0 3.4 1 6.2 2.3.2.6 3.7 2.3 4.8 3 0 0 1 1.6 1.6 2 1.3 2 5.5 1.3 7 3.7 3.5.3 1.4 2.4 3.8 4 0 .7 3.4 3.3 4.8 3.7.7 2 5.7.8 6.6 4.7 0 0 1.8 3 3 3.6.3.8 2 1.5 2.3 2 1.6.2 1 1.3 2.4 2.3 0 .6 1.6 2 2.3 3 1.3 0 .7 1 2 1.7 0 1 2 6.6 3.2 7 0 0 4 4.8 4.4 5 0 1 1.2 1.3 1.7 3 .7.2 2.4 8.2 2.6 10 1 .2-.4 4 1.6 6 1.2 0 2 6 2 7 1 .4 1.4 4.5 3.2 5.7 0 .8.4.8.5 2-2 .5 1.7 8.8 2.2 10.7 1 .4-1.4 5 .4 5.7 0 .5-1.6 3 0 3.8 0 1-.7 6.7.5 7V167c-2 0-1.5 13-2.8 15.6-.8.3.6 6.5-1 7.3 0 1-1 5.4-2 6.2 0 .3-.7 1.8-1.2 2 0 2.7-1.5 3.8-1.7 6.4-1 .6-1.2 6.5-3 7.7-.2 1.6-1.2 4-1.8 5.7-1.2.7-2 5-2.6 5 0 2.4-1.4 4.8-3.3 6 0 1.7-2.3 5-3.7 5.5 0 1-1 1.2-1.3 2.4-1.2.6.3 3-1.6 4 0 2-4.4 3-5 6-.4.2-3.4 7-3.5 8-.8.3-4.8 3.5-5 4-1 .7-2 .3-2 2-2 1.2-4 2.4-4.5 5-.4.2-1.2 1-1.5 1.6-1.8.2-4 4.2-4.2 5.8-1.3.8-2-.3-2.2 1.6l-5 4c-2.7 0-4.3 2.8-5.7 4.8-1 0-1.7.7-2.3 1.5-1.7 0-3.3 1-4.6 2-.2.8-2.3 1.5-3 2 0 1.7-2 2.5-3.3 2.7-2 4-9.5 2.4-11 5.7-2.7.3-3.3 2.8-5.5 3.4-.2.8-5.2 1.7-6.2 2.7-3 0-3 1.8-5.7 2.3-.4 1-2.2-.6-2.8 2-1.2 0-2 1-3 1-.6 1.7-4.2 1.3-5 1.7 0 .4-9.2 2.6-10.3 3.7-1.6 0-5.8 2-6.6.6-1.6 0-5.5 3-6 2-1 0-5 1.6-5.3.7-.7 0-3.7 1.2-3.7 1.4-1.6 1-7.3 1-7.5 1.5 0 1.5-9-1-9.7 1-1 0-4.5-1-4.8.6-.7 1-1.4 1-2 1v.3z"/>
  <path fill="#332d26" d="M637.3 184.8v-1.5h1.7l.2.2v1h-.2l-.3.2h-1.4zm0 .3h1.5l.2.4v1.5h.5v-2l-.2-.2-.2-.2v-.2l.4-.2.2-.2v-.8l-.2-.2-.2-.2h-2v4.2h.4v-2h-.3z"/>
  <path fill="#fac400" d="M594 170.7l-49.3-49.4H594l49.5 49.4H594zm49.5 0l49.5-49.4v49.4l-49.5 49.5v-49.5zm0 49.5H594v49.5h49.5v-49.5z"/>
  <path fill="#332d26" d="M547 210h17.5l.5-.2h.4l.5-.2.2-.2.5-.2.3-.2.7-.3.4-.4.7-.4.3-.7v-.2h.5v-.4l.2-.2v-.2l.2-.2v-.9l.3-.2v-.8l.2-.6V201l-.2-.5v-.4l-.2-.3v-.4l-.2-.2-.3-.2-.2-.3v-.3l-.3-.3-.2-.3-.3-.2-.3-.2h-.4l-.3-.3-.3-.2-.3-.2h-.3l-.3-.2h-.8l-.6-.3H563.8v-.3h.3l.6-.2h.3l.4-.3h.2l.2-.2h.3l.3-.2h.3l.3-.2h.2l.3-.3.3-.2h.3v-.3h.4l.2-.4v-.3l.3-.3v-.4l.3-.3v-.3l.2-.4v-.8l.2-.4v-3l-.2-.3v-.4l-.2-.4v-.6l-.2-.3v-.2l-.3-.4-.2-.3v-.3l-.2-.3-.2-.2v-.2l-.3-.2h-.2l-.2-.3-.3-.2-.4-.2h-1.1l-.3-.4h-.3l-.4-.2h-.3l-.2-.2h-.2l-.4-.2H562l-.7-.3H547V210zm7.7-24h5.6l1 .6v.2h.3v.2h.2v.6l.3.2v.4l.3.3v1.5l-.2.2v1h-.4v.2h-.3l-.2.2-.3.2h-.3l-.3.2h-5.6v-6h.3zm0 11.8h5.7l.3.2h.3l.3.2h.2l.2.2h.2v.8l.2.2v.2l.2.2v.3l.2.6v2h-.2v.3h-.2v.3l-.2.2v.5h-.3l-.2.2h-.2l-.3.2h-.2l-.3.2h-5.8v-6.8zM577 210h8v-15.4l9.3 15.5h9.8l-10.3-16 9.8-13H594l-9 13v-13h-8v29.4-.4zm31.5 0h8v-15.4L626 210h9.5L625 194l9.8-13h-9.3l-9 13v-13h-8v29.4-.4z"/>
  <path fill="none" d="M638 189h1.4l.3-.2.4-.2.6-.2.3-.2.2-.3.4-.6.2-.3.2-.2.2-.5v-.7l.2-.3V184l-.2-.4v-.4l-.3-.3h-.3l-.2-.6-.3-.2-.3-.3-.4-.4-.3-.2-.2-.2h-.2l-.4-.3H637l-.4.4-.3.2-.5.2h-.2l-.3.3-.2.5-.2.3v.4l-.3.4v2.2l.4.8.3.3.2.3.5.5h.4v.3l.5.3h.2l.3.2h1"/>
  <path d="M44.7 158.6H29l-2 7.3H13l16.7-44.6h15L61.2 166H47l-2.3-7.4zM42 149l-5-16-5 16h10zm21-27.6h13.6v16.8L91 121.4h18L93 138l17 27.7H93l-9.4-18.2-7 7.4v10.5H63v-44.3.2zm50.3 0H152v9L127.2 156H153v9.5h-42v-9.2l24.5-25.6h-22.2V121v.4zm40.5 22.4c0-7.2 2-13 6-17s9.6-6 16.8-6c7.4 0 13 2 17 6s6 9.5 6 16.6c0 5.2-.8 9.4-2.5 12.7-1.4 3.6-4 6-7.3 8-3.3 1.8-7.4 2.8-12.3 2.8-5 0-9-.8-12.4-2.4-3.4-1.6-6-4-8-7.6-2-3.3-3-7.6-3-12.8l-.2-.2zm13.7 0c0 4.6.8 7.8 2.5 9.8 1.7 2 4 3 6.8 3 3 0 5.2-1 6.8-3 1.6-2 2.4-5.4 2.4-10.3 0-4.2-.8-7.2-2.5-9.2-1.7-1.6-4-2.6-7-2.6-2.7 0-5 1-6.5 3-1.7 2-2.5 5.2-2.5 9.7v-.2zm53.7-22.4H234l16.7 24.5V121h13v44.3h-13l-16.7-24v24.2h-12.8v-44.3zm45.8 22.2c0-7.2 2-13 6-17s9.7-6 17-6c7.3 0 13 2 17 6s6 9.5 6 16.6c0 5.2-1 9.4-2.6 12.7-1.7 3-4.3 5.6-7.6 7.4-3.3 1.8-7.4 2.8-12.3 2.8-5 0-9-.8-12.4-2.4-3-1.7-5.6-4-8-7.7-2-3.2-3-7.5-3-12.7v.3zm13.8 0c0 4.6.8 7.8 2.5 9.8 1.7 2 4 3 6.8 3 3 0 5.5-1 7-3 1.7-2 2.5-5.4 2.5-10.3 0-4-.8-7-2.5-9s-4-3-7-3c-2.8 0-5 1-6.6 3-1.7 2-2.5 5-2.5 10l-.2-.4zm35.5-22.2H342c4.2 0 7.5 1 9.7 3.2 2.3 2 3.4 4.7 3.4 8 0 2.5-.5 4.8-2 6.7-1 1.2-2.8 2.2-5 3 3 .8 5.5 2 7 4 1.5 1.8 2 4 2 7 0 2.2-.3 4.3-1.4 6-1 2-2.5 3.4-4.4 4.5-1 .7-2.7 1-5 1.4l-6 .6h-23.7v-44.4h-.2zm13.8 17.4h6c2.4 0 4-.4 4.8-1 .8-.8 1.2-2 1.2-3.3 0-1.3-.5-2.3-1.3-3-.8-.7-2.3-1-4.4-1h-6v8.3h-.2zm0 17.4h7c2.7 0 4-.4 5-1.2 1-.8 1.8-2 1.8-3.4 0-1.3-.5-2.4-1.4-3.2-1-.8-2.6-1.2-5-1.2h-7v9h-.3zm31-34.8h36.6v9.5h-23v7H396v9h-21.4v8.5H398v10h-37v-44.3.2zm42 0h13.6v33.4H438v11h-35v-44.4zm-228.4 64.8H200c4.4 0 7.6 1 10 3.2 2.2 2 3.3 4.7 3.3 7.8 0 2.6-.8 5-2.4 6.7-1.4 1-3 2-5 3 3 .5 5.4 2 7 3.6 1.4 2 2 4.2 2 7 0 2.3-.4 4.4-1.5 6.2-1 1.7-2.5 3.2-4.4 4.3-1 .8-3 1-5 1.5l-6 .6h-23.7v-44l.3.2zm13.8 17.4h6c2 0 3.6-.4 4.5-1 .7-.8 1-2 1-3.3 0-1.3-.3-2.3-1-3-1-.7-2.4-1-4.5-1h-6v8.3zm0 17.4h7c2.4 0 4-.4 5-1.2 1-.8 1.5-2 1.5-3.4 0-1.3-.6-2.4-1.5-3.2-1-.8-2.6-1.2-5-1.2h-7v9zm59 2.2H232l-2 7.3h-14l16.5-44.3h15l16.6 44.3h-14.4l-2.2-7.3zm-3-9.6l-4.7-16-5 16h10-.3zm11.3-27.4H271l9 15 9-15h15L286.5 212v18.5H273V212l-17.4-25.8zm49.6 0H342v9.5h-23v7h21.3v9H319v8.8h23.6v10h-37.4v-44.3zm43.4 44.3v-44.3h22.8c4.2 0 7.5.4 9.7 1 2.4.8 4 2.2 5.6 4 1.4 2 2 4.5 2 7.3 0 2.5-.4 4.6-1.5 6.4-1 1.5-2.4 3-4.2 4-1 .7-2.7 1.3-4.7 1.7 1.5.4 2.7 1 3.5 1.5.5.4 1.2 1 2.2 2.3 1 1.2 1.6 2 2 2.8l6.5 12.8H377l-7.3-13.4c-1-1.8-1.8-3-2.5-3.5-1-.6-2.3-1-3.6-1h-1.2v18h-13.7v.5zm13.7-26.3h5.8c.8 0 2-.2 3.8-.6 1-.2 1.7-.6 2.2-1.4.5-.7.8-1.6.8-2.6 0-1.4-.5-2.5-1.4-3.3-1-.8-2.6-1.2-5-1.2h-6v9.4l-.2-.2zm33.2-18h12.8l16.7 24.5v-24.5h13v44.3h-13l-16.5-24.3v24.3h-13v-44.3z"/>
</svg>
