<svg id="Ebene_1" data-name="Ebene 1" xmlns="http://www.w3.org/2000/svg" viewBox="0 0 324.42 191.45"><defs><style>.cls-1{fill:#00305d;}.cls-2{fill:#fec800;}.cls-3{fill:#003063;}</style></defs><path class="cls-1" d="M319.76,432h-3.11v37.4h3.11v-15c0-4.67,2.33-9,7.46-9,4.25,0,6.84,2.64,6.84,7.14v16.79h3.11V453.08c0-3-.68-10.51-9.17-10.51a9,9,0,0,0-8.14,4.71h-.1V432Zm28.6,11.39h-3.21c.1,1.76.25,3.84.25,5.86v20.15h3.11v-15c0-4.67,2.33-9,7.46-9,4.25,0,6.84,2.64,6.84,7.14v16.79h3.11v-15c0-4.67,2.33-9,7.46-9,4.25,0,6.84,2.64,6.84,7.14v16.79h3.11V453.08c0-3-.68-10.51-9.17-10.51-4,0-7.05,2.64-9,5.69a8.54,8.54,0,0,0-8.44-5.69,8.93,8.93,0,0,0-8.13,4.71l-.11-.1-.15-3.84Zm46.26,10.36c.1-5,2.54-8.28,7.15-8.28.62,0,1.29.15,1.92.2v-3a29.38,29.38,0,0,0-3.11-.05,6.69,6.69,0,0,0-5.86,4.61h-.1l-.16-3.84h-3.21c.11,1.76.31,3.84.26,5.86v20.15h3.11V453.7Z" transform="translate(-143.7 -323)"/><path class="cls-1" d="M319.55,389.38h-3.21c.1,1.76.26,3.83.26,5.85v20.15h3.11v-15c0-4.66,2.33-9,7.46-9,4.25,0,6.84,2.64,6.84,7.15v16.78h3.11v-15c0-4.66,2.33-9,7.46-9,4.24,0,6.83,2.64,6.83,7.15v16.78h3.11V399.12c0-3-.67-10.52-9.17-10.52-4,0-7,2.64-9,5.7a8.54,8.54,0,0,0-8.44-5.7,9,9,0,0,0-8.14,4.72l-.1-.11-.16-3.83Zm65.07,13.73c0-8.14-3.16-14.51-11.86-14.51-7.72,0-11.61,6.74-11.61,13.78s3.63,13.78,11.4,13.78c6.27,0,10.15-2.85,11.76-9.06h-3.26a7.76,7.76,0,0,1-7.52,6.21c-6.37,0-8.91-4.66-9-10.2Zm-20-2.85c.42-4.56,3.11-8.81,8.19-8.81,5.39,0,8.08,3.78,8.44,8.81ZM394.67,378h-3.11v37.4h3.11V378Zm8.39,11.4v26h3.11v-26Zm3.37-11.4H402.8v3.89h3.63V378Zm10.31,30.46c0,3.53-.36,7.72,6.22,7.72a13.47,13.47,0,0,0,3.16-.46V413a9.18,9.18,0,0,1-2.7.31c-2.38,0-3.62-1.29-3.57-3.68v-17.4h5.9v-2.85h-5.9v-6.89l-3.11,1.34v5.55h-5.18v2.85h5.18v16.21Zm17.25,0c0,3.53-.36,7.72,6.22,7.72a13.47,13.47,0,0,0,3.16-.46V413a9.14,9.14,0,0,1-2.7.31c-2.38,0-3.62-1.29-3.57-3.68v-17.4H443v-2.85h-5.9v-6.89L434,383.83v5.55h-5.18v2.85H434v16.21Zm16.11-.31c0-6.53,9.22-5.7,13.63-5.85.31,5.44-1,11-7.77,11-3.16,0-5.86-1.66-5.86-5.18Zm13.63-8.7c-3.78.21-8.29-.31-11.76,1.19a8,8,0,0,0-5.24,7.51c0,5.08,3.84,8,8.66,8,3.52,0,7-2.07,8.13-4.25l.16-.36h.1l.1,3.83h3.21c-.1-1.76-.31-3.83-.25-5.85V397.2c.1-6-3.48-8.6-9.23-8.6-5,0-9,2-9.74,7.36h3.32c.41-3.53,3.11-4.51,6.37-4.51,3.68,0,5.86,1.35,6.17,5.6v2.38Z" transform="translate(-143.7 -323)"/><path class="cls-1" d="M322.87,348.42c0-3.58,1.4-8.6,5.59-8.6,5,0,5.6,4.61,5.6,8.6s-.62,8.6-5.6,8.6c-4.19,0-5.59-5-5.59-8.6Zm-7.77,7.82c0,1.71-.16,3.47-.26,5.18h7.77c.1-1.24.21-2.43.21-3.68h.1a8.66,8.66,0,0,0,8,4.46c7.61,0,11.19-7.1,11.19-13.78,0-7-4.09-13.78-12.18-13.78a8.77,8.77,0,0,0-6.94,3.78h-.1V324H315.1v32.22ZM355.4,324h-7.77v37.4h7.77V347.28l.11-.11,7.82,14.25h9.06l-9.53-14.92,9-11.4h-8.66L355.51,346l-.11-.1V324Zm28.81,0h-7.77v37.4h7.77V347.28l.1-.11,7.82,14.25h9.07l-9.53-14.92,9-11.4H392L384.31,346l-.1-.1V324Z" transform="translate(-143.7 -323)"/><path class="cls-2" d="M218,469.65c40.85,0,74-32.8,74-73.26s-33.11-73.25-74-73.25c-16.14-1.45-40.15,8.76-53.63,22.81A72.66,72.66,0,0,0,144,396.39v58.94a14.1,14.1,0,0,0,14,14.08l59.92.24Z" transform="translate(-143.7 -323)"/><path class="cls-3" d="M152.43,498.67h1.41c0,.78-.11,1.69-.11,2.57v6.84c0,2.28.11,4.67-2.41,5.85a5.24,5.24,0,0,1-2.59.52c-2.07,0-4.53-.7-4.53-3.07h1.48c.16,1.37,1.77,1.82,3.23,1.82a3.31,3.31,0,0,0,3.45-3.16V507.9h0a4.17,4.17,0,0,1-3.71,2.14c-3.43,0-4.91-2.61-4.91-5.75s1.39-6,4.87-6a4.36,4.36,0,0,1,3.75,2.12l0-.09Zm-3.73.91c-2.47,0-3.52,2.5-3.52,4.59s1.07,4.62,3.57,4.62,3.61-2.43,3.61-4.66S151.16,499.58,148.7,499.58Z" transform="translate(-143.7 -323)"/><path class="cls-3" d="M157.94,504.7c0,2.43,1.16,4.48,3.95,4.48a3.4,3.4,0,0,0,3.3-2.73h1.43a4.79,4.79,0,0,1-5.16,4c-3.41,0-5-2.94-5-6.05s1.71-6.05,5.09-6.05c3.82,0,5.21,2.8,5.21,6.37Zm7.34-1.25c-.16-2.21-1.34-3.87-3.7-3.87s-3.41,1.87-3.6,3.87Z" transform="translate(-143.7 -323)"/><path class="cls-3" d="M171.13,500.36l0,0a3.94,3.94,0,0,1,3.57-2.07,3.75,3.75,0,0,1,3.71,2.5,4.74,4.74,0,0,1,3.93-2.5c3.73,0,4,3.3,4,4.62v7.14H185v-7.37a2.82,2.82,0,0,0-3-3.14c-2.25,0-3.27,1.89-3.27,3.94v6.57H177.4v-7.37a2.82,2.82,0,0,0-3-3.14c-2.25,0-3.27,1.89-3.27,3.94v6.57h-1.37v-8.85c0-.88-.06-1.79-.11-2.57h1.41Z" transform="translate(-143.7 -323)"/><path class="cls-3" d="M190.8,504.7c0,2.43,1.16,4.48,4,4.48a3.4,3.4,0,0,0,3.29-2.73h1.44a4.8,4.8,0,0,1-5.17,4c-3.41,0-5-2.94-5-6.05s1.71-6.05,5.1-6.05c3.82,0,5.2,2.8,5.2,6.37Zm7.34-1.25c-.16-2.21-1.34-3.87-3.7-3.87s-3.41,1.87-3.59,3.87Z" transform="translate(-143.7 -323)"/><path class="cls-3" d="M204.15,495.38h-1.59v-1.71h1.59Zm-.11,3.29v11.42h-1.37V498.67Z" transform="translate(-143.7 -323)"/><path class="cls-3" d="M209.06,510.09H207.7v-8.85c0-.88-.07-1.79-.12-2.57H209l.07,1.69.05,0a3.92,3.92,0,0,1,3.57-2.07c3.73,0,4,3.3,4,4.62v7.14h-1.36v-7.37a2.83,2.83,0,0,0-3-3.14c-2.26,0-3.28,1.89-3.28,3.94Z" transform="translate(-143.7 -323)"/><path class="cls-3" d="M224.14,498.33c2.16,0,4,.75,4.16,3.16h-1.48c-.13-1.43-1.41-1.91-2.82-1.91s-2.57.5-2.57,1.84c0,1.69,2.21,1.53,5.3,2.62a2.78,2.78,0,0,1,1.93,2.66c0,2.57-2.38,3.73-4.79,3.73-2,0-4.26-.93-4.3-3.46h1.48c.11,1.71,1.61,2.21,3.16,2.21s3-.69,3-2.28-1.8-1.91-3.62-2.32-3.61-.95-3.61-3.07C220,499.15,222.14,498.33,224.14,498.33Z" transform="translate(-143.7 -323)"/><path class="cls-3" d="M238.17,502c-.14-1.87-1.09-2.46-2.71-2.46-1.43,0-2.61.43-2.79,2h-1.46c.34-2.34,2.09-3.23,4.28-3.23,2.52,0,4.09,1.16,4,3.78v5.41c0,.88.07,1.79.12,2.57h-1.41l-.05-1.69h0l-.07.16a4.27,4.27,0,0,1-3.57,1.87,3.53,3.53,0,0,1-1.5-6.82c1.52-.66,3.5-.44,5.16-.53Zm-3.41,7.14c3,0,3.55-2.46,3.41-4.85-1.93.07-6-.29-6,2.57A2.28,2.28,0,0,0,234.76,509.18Z" transform="translate(-143.7 -323)"/><path class="cls-3" d="M244.43,500.36l0,0a3.93,3.93,0,0,1,3.57-2.07,3.75,3.75,0,0,1,3.71,2.5,4.74,4.74,0,0,1,3.93-2.5c3.73,0,4,3.3,4,4.62v7.14h-1.36v-7.37a2.83,2.83,0,0,0-3-3.14c-2.25,0-3.27,1.89-3.27,3.94v6.57H250.7v-7.37a2.83,2.83,0,0,0-3-3.14c-2.25,0-3.27,1.89-3.27,3.94v6.57h-1.37v-8.85c0-.88-.07-1.79-.11-2.57h1.41Z" transform="translate(-143.7 -323)"/><path class="cls-3" d="M271,510.09h-1.37v-8.85c0-.88-.06-1.79-.11-2.57h1.41l.07,1.69h0a3,3,0,0,1,2.57-2c.46,0,.91,0,1.37,0v1.32c-.28,0-.57-.09-.84-.09-2,0-3.1,1.46-3.14,3.64Z" transform="translate(-143.7 -323)"/><path class="cls-3" d="M278.7,495.38h-1.59v-1.71h1.59Zm-.12,3.29v11.42h-1.36V498.67Z" transform="translate(-143.7 -323)"/><path class="cls-3" d="M289.45,502.17c-.11-1.75-1.22-2.59-3.11-2.59-2.09,0-3.39,2.18-3.39,4.78s1.3,4.82,3.39,4.82a2.89,2.89,0,0,0,3.11-2.66h1.48c-.36,2.61-1.86,3.91-4.45,3.91-3.42,0-5-2.94-5-6.05s1.71-6.05,5.1-6.05c2.34,0,4.25,1.41,4.36,3.84Z" transform="translate(-143.7 -323)"/><path class="cls-3" d="M295,500.4h0a3.92,3.92,0,0,1,3.57-2.07c3.72,0,4,3.3,4,4.62v7.14h-1.36v-7.37a2.83,2.83,0,0,0-3-3.14c-2.26,0-3.28,1.89-3.28,3.94v6.57h-1.36V493.67H295Z" transform="translate(-143.7 -323)"/><path class="cls-3" d="M307.24,499.92H305v-1.25h2.27v-2.43l1.36-.59v3h2.6v1.25h-2.6v7.64a1.42,1.42,0,0,0,1.57,1.62,4.22,4.22,0,0,0,1.19-.14v1.18a5.51,5.51,0,0,1-1.39.21c-2.89,0-2.73-1.85-2.73-3.39Z" transform="translate(-143.7 -323)"/><path class="cls-3" d="M321.47,498.67h1.37v8.85c0,.88.07,1.79.11,2.57h-1.41l-.07-1.69,0,0a3.93,3.93,0,0,1-3.57,2.07c-3.73,0-4-3.3-4-4.62v-7.14h1.36V506a2.83,2.83,0,0,0,3,3.14c2.25,0,3.27-1.89,3.27-3.94Z" transform="translate(-143.7 -323)"/><path class="cls-3" d="M327.84,510.09h-1.36v-8.85c0-.88-.07-1.79-.11-2.57h1.41l.06,1.69.05,0a3.93,3.93,0,0,1,3.57-2.07c3.73,0,4,3.3,4,4.62v7.14h-1.36v-7.37a2.83,2.83,0,0,0-3-3.14c-2.25,0-3.28,1.89-3.28,3.94Z" transform="translate(-143.7 -323)"/><path class="cls-3" d="M347.06,498.67h1.41c-.05.78-.11,1.69-.11,2.57v6.84c0,2.28.11,4.67-2.41,5.85a5.26,5.26,0,0,1-2.6.52c-2.07,0-4.52-.7-4.52-3.07h1.48c.16,1.37,1.77,1.82,3.23,1.82A3.31,3.31,0,0,0,347,510V507.9h0a4.17,4.17,0,0,1-3.71,2.14c-3.43,0-4.91-2.61-4.91-5.75s1.39-6,4.86-6a4.38,4.38,0,0,1,3.76,2.12l0-.09Zm-3.73.91c-2.48,0-3.52,2.5-3.52,4.59s1.07,4.62,3.57,4.62,3.61-2.43,3.61-4.66S345.79,499.58,343.33,499.58Z" transform="translate(-143.7 -323)"/><path class="cls-3" d="M366,498.67h1.41c-.05.78-.12,1.69-.12,2.57v6.84c0,2.28.12,4.67-2.41,5.85a5.22,5.22,0,0,1-2.59.52c-2.07,0-4.52-.7-4.52-3.07h1.47c.16,1.37,1.78,1.82,3.23,1.82A3.32,3.32,0,0,0,366,510V507.9h0a4.16,4.16,0,0,1-3.7,2.14c-3.44,0-4.91-2.61-4.91-5.75s1.38-6,4.86-6a4.36,4.36,0,0,1,3.75,2.12l0-.09Zm-3.73.91c-2.48,0-3.53,2.5-3.53,4.59s1.07,4.62,3.57,4.62,3.62-2.43,3.62-4.66S364.75,499.58,362.3,499.58Z" transform="translate(-143.7 -323)"/><path class="cls-3" d="M371.53,504.7c.05,2.43,1.16,4.48,4,4.48a3.4,3.4,0,0,0,3.29-2.73h1.44a4.79,4.79,0,0,1-5.16,4c-3.41,0-5-2.94-5-6.05s1.71-6.05,5.1-6.05c3.82,0,5.2,2.8,5.2,6.37Zm7.35-1.25c-.16-2.21-1.35-3.87-3.71-3.87s-3.41,1.87-3.59,3.87Z" transform="translate(-143.7 -323)"/><path class="cls-3" d="M387.18,498.33c2.16,0,4,.75,4.16,3.16h-1.48c-.14-1.43-1.41-1.91-2.82-1.91s-2.57.5-2.57,1.84c0,1.69,2.21,1.53,5.3,2.62a2.78,2.78,0,0,1,1.93,2.66c0,2.57-2.38,3.73-4.79,3.73-2,0-4.26-.93-4.3-3.46h1.48c.11,1.71,1.61,2.21,3.16,2.21s3-.69,3-2.28-1.79-1.91-3.61-2.32-3.61-.95-3.61-3.07C383,499.15,385.18,498.33,387.18,498.33Z" transform="translate(-143.7 -323)"/><path class="cls-3" d="M402.39,498.67h1.37v8.85c0,.88.06,1.79.11,2.57h-1.41l-.07-1.69,0,0a3.94,3.94,0,0,1-3.57,2.07c-3.73,0-4-3.3-4-4.62v-7.14h1.37V506a2.82,2.82,0,0,0,3,3.14c2.25,0,3.27-1.89,3.27-3.94Z" transform="translate(-143.7 -323)"/><path class="cls-3" d="M408.76,510.09H407.4v-8.85c0-.88-.07-1.79-.12-2.57h1.41l.07,1.69.05,0a3.92,3.92,0,0,1,3.57-2.07c3.72,0,4,3.3,4,4.62v7.14H415v-7.37a2.83,2.83,0,0,0-3-3.14c-2.26,0-3.28,1.89-3.28,3.94Z" transform="translate(-143.7 -323)"/><path class="cls-3" d="M427.91,508.4l-.05-.09a4.63,4.63,0,0,1-3.91,2.12c-3.39,0-4.68-3.23-4.68-6.1s1.29-6,4.68-6a4.55,4.55,0,0,1,3.91,2.07l.05,0v-6.69h1.36v13.85c0,.88.07,1.79.12,2.57H428Zm-3.73-8.82c-2.59,0-3.43,2.41-3.43,4.59s.61,5,3.22,5c3,0,3.89-2.48,3.89-5.07C427.86,501.79,426.84,499.58,424.18,499.58Z" transform="translate(-143.7 -323)"/><path class="cls-3" d="M434.05,500.4h.05a3.92,3.92,0,0,1,3.57-2.07c3.72,0,4,3.3,4,4.62v7.14h-1.36v-7.37a2.83,2.83,0,0,0-3-3.14c-2.25,0-3.27,1.89-3.27,3.94v6.57h-1.36V493.67h1.36Z" transform="translate(-143.7 -323)"/><path class="cls-3" d="M446.13,504.7c0,2.43,1.16,4.48,3.95,4.48a3.4,3.4,0,0,0,3.3-2.73h1.43a4.79,4.79,0,0,1-5.16,4c-3.41,0-5-2.94-5-6.05s1.7-6.05,5.09-6.05c3.82,0,5.21,2.8,5.21,6.37Zm7.34-1.25c-.16-2.21-1.34-3.87-3.71-3.87-2.22,0-3.41,1.87-3.59,3.87Z" transform="translate(-143.7 -323)"/><path class="cls-3" d="M459.48,495.38h-1.6v-1.71h1.6Zm-.12,3.29v11.42H458V498.67Z" transform="translate(-143.7 -323)"/><path class="cls-3" d="M464,499.92h-2.27v-1.25H464v-2.43l1.37-.59v3H468v1.25h-2.59v7.64a1.41,1.41,0,0,0,1.56,1.62,4.22,4.22,0,0,0,1.19-.14v1.18a5.51,5.51,0,0,1-1.39.21c-2.89,0-2.73-1.85-2.73-3.39Z" transform="translate(-143.7 -323)"/></svg>