<?xml version="1.0" encoding="utf-8"?>
<!-- Generator: Adobe Illustrator 16.0.0, SVG Export Plug-In . SVG Version: 6.00 Build 0)  -->
<!DOCTYPE svg PUBLIC "-//W3C//DTD SVG 1.1//EN" "http://www.w3.org/Graphics/SVG/1.1/DTD/svg11.dtd">
<svg version="1.1" id="Ebene_1" xmlns="http://www.w3.org/2000/svg" xmlns:xlink="http://www.w3.org/1999/xlink" x="0px" y="0px"
	 width="841.89px" height="595.28px" viewBox="0 0 841.89 595.28" enable-background="new 0 0 841.89 595.28" xml:space="preserve">
<g>
	<g>
		<path fill="#FFCC00" d="M641.237,74.209h2.787c0.342,0.481,1.576,1.537,2.361,1.17v0.902c3.602-0.333,2.009,5.079,5.839,4.358
			c2.26,3.861,7.457,5.456,10.037,8.863v4.95c1.005,0.604,2.222,0.678,3.117,1.973c0.113-0.124,1.296-0.547,1.03-1.727h4.688v-0.985
			c-0.533-0.23-1.056-0.214-1.729-0.241c-0.237-0.66-0.525-1.037-1.187-1.185c-0.774-3.143-1.804-1.207-1.804-3.761
			c0-3.329,3.701-3.805,5.863-3.805c0.476,0,5.34,1.114,6.093,2.942h1.332c0.24-0.264,0.048-0.602,0.783-0.602
			c1.686,0,2.163,2.34,2.934,2.34c0.729,0,0.584-0.149,0.626-0.55h1.074c0.632,1.523,0.622,3.257,1.427,4.655
			c0.854-0.33,2.117-1.5,3.135-1.173c0.229-0.257,0.187-0.15,0.187-0.883c0-0.732-1.156-2.714-1.756-3.973
			c0.332-0.374,1.165-0.964,1.172-1.694V82c-0.255-0.248-0.59-0.057-0.59-0.79c0-0.73,0.583-1.021,0.629-1.713
			c0.397-0.043,0.501,0.292,0.711,0.547c0.164-0.131,3.938-2.343,4.233-2.343c0.729,0,1.314,0.586,2.025,0.625v2.664
			c0.024,0.731-0.56-0.215-0.581,0.512v0.895h2.331c-0.189,1.686,0.881,1.465,2.003,2.92h4.772c0.735-0.011-0.148,0.575,0.587,0.575
			c0.106,0,2.275,0.117,2.715-1.737c1.295,0.469,2.373-0.816,3.624-1.185c0.653,0.623,1.43,1.751,2.163,1.751
			c0.584,0,1.794-1.171,2.343-1.171c1.358,0,5.863,2.233,5.863,3.219c0,0.732-0.296,0.765-0.604,1.83
			c3.215,1.032,3.44,0.831,5.875,2.64v4.418c0.01,2.007,1.578,2.815,2.898,3.163v1.674h-0.937c-0.238,0.274-0.193,0.171-0.193,0.902
			c0,4.242,7.807,4.737,14.042,12.674v1.623h-1.143v5.819c-1.034,0.564-2.349,4.055-2.349,4.457c0,1.938,5.381,11.779,9.358,12.632
			v3.837c2.501,2.219,4.117,5.706,7.448,7.314c3.402,1.346,6.161,3.074,9.415,4.701c0.939,1.232,1.031,3.185,2.895,3.485
			c2.667,1.882,5.312,7.415,10.082,6.953c1.053,1.553,2.727,5.186,5.336,5.895v1.477c1.338,0.64,3.031,1.478,3.201,2.585h0.721
			c0.225-0.529,0.21-1.048,0.252-1.75h2.809c1.626,2,3.865,4.394,7.054,4.673c0.521,0.935-0.032,2.575,1.771,2.359
			c-0.06,1.759,1.111,3.263,2.39,4.733c0.006,0.929-0.581,0.929-0.581,1.662c0,0.733,0.505,0.894,1.16,1.242v3.839
			c0.012,0.333-1.16,2.965-1.16,3.401c0,0.733,0.146,0.881,0.555,0.921v3.401c-1.219,0.636-3.34,1.825-4.069,1.825
			c-0.769,0-7.083-2.621-8.397-3.529h-1.344c-0.234,1.111-0.434,3.563-2.599,3.201v6.582c0.029,2.231-2.21,3.88-2.346,6.549
			c-7.421,3.82-17.119,4.107-22.437,11.051c-1.546,0.35-4.511,3.205-4.511,4.523c0,0.73,0.583,1.315,0.563,1.826
			c0.527,0.236,1.047,0.22,1.746,0.269c-0.403,4.315,4.557,6.229,6.345,8.855c0.65,0.728,0.012,2.472,1.869,2.271
			c-0.495,1.318,0.795,2.382,1.2,3.627c-1.5,1.713-1.947,4.279-3.541,5.878v0.714c4.177-0.875,6.363,3.22,7.06,6.86
			c-0.939,1.445-1.648,8.603-4.687,8.603c-0.223,0-7.237-5.332-9.385-7.158c0.635-0.698,1.175-1.181,1.175-1.911
			c0-0.366-2.673-2.631-3.112-2.631h-3.63c-0.735,0,0.146-0.586-0.591-0.602h-1.515v2.331c-1.128-0.274-2.801,0.181-2.926,1.744
			h-1.062c-0.961-1.835-1.628-3.253-3.194-4.654c-2.517,0.011-4.75,1.181-6.837,1.181c-0.733,0-1.715-0.628-2.335-1.262
			c-0.009-0.35,0.323-0.451,0.472-0.681v-1c-0.271,0.15-0.852,0.558-1.124,1.74c-0.677,0.032-1.198,0.017-1.712,0.225
			c0.288,0.473,0.594,0.833,0.594,1.563c0,0.729-0.585,1.026-0.585,1.755c0,0.73,0.585,0.73,0.543,1.128
			c-1.276,0.042-2.696,0.37-6.837,0.627c-0.623,0.031-1.769-0.584-2.504-0.584c-0.729,0-8.937,2.341-9.672,2.341
			c-0.733,0-1.905-0.587-2.637-0.587c-0.733,0-1.32,0.587-2.056,0.587c-0.73,0-0.835-0.339-1.08-0.601h-1.339
			c-0.818,1.691-0.352,4.502-2.683,5.266h-6.682c-0.24,1.075-0.233,2.224-0.367,3.346c-1.325,0.885-2.673,0.547-3.734,1.389
			c-1.172,0.914-1.869,1.531-2.654,2.853h-1.065c-0.035-0.403-0.181-0.554-0.578-0.596c-0.042-0.399,0.293-0.5,0.557-0.746v-0.752
			c-0.519-0.231-0.749-0.214-1.479-0.214c-0.438,0-6.268,2.339-9.014,2.32c-0.933-1.589-0.943-1.849-2.898-3.651
			c-0.709-1.149-0.751-2.545-2.438-2.853c0.597-1.013,1.516-1.642,2.335-2.086c-0.783-0.171-1.662-0.462-2.459-0.751
			c-1.317,1.492-1.498,1.755-2.527,1.755c-0.11,0-8.101-3.51-8.504-3.51c-0.146,0-2.053,0.177-2.396,1.716h-4.293v-5.25
			c-1.274,0.635-2.104,0.903-2.104,2.073c0,0.842,1.173,2.378,1.173,3.221c0,0.73-0.588,1.9-0.588,2.631
			c0,0.73,0.531,1.202,1.039,1.599c0.166,0.553-0.502,2.292,0.699,2.857v1.611c-3.005,2.28-7.553,6.415-10.044,10.012
			c-0.973-0.289-1.512-0.574-2.225-0.617v-2.185c-0.021-0.735,0.563-0.258,0.563-0.988s-0.584-1.025-0.584-1.756
			c0-0.735,1.172-1.321,1.172-2.051c0-1.534-1.539-1.17-1.759-1.17c-0.733,0-1.804,0.542-2.501,1.17
			c-0.33-0.349-2.191-1.793-2.191-2.341c0-0.73,0.59-1.025,0.59-1.755c0-0.988-1.833-4.096-3.227-4.096
			c-0.733,0-0.879,0.145-0.968,0.574c-2.976-2.438-5.41-4.673-8.665-4.709c-0.044-0.694-0.613-1.208-0.827-1.725
			c-1.064,0.506-3.467,0.914-3.357,2.904h-1.634c-0.632-0.6-1.486-1.164-2.418-1.802v-0.994c1.988-3.173,6.652-2.164,10.061-4.183
			h5.539c0.753-1.224,0.893-0.659,1.459-1.734h2.821c0.041,0.699,0.022,1.22,0.264,1.744h0.735c0.229-0.524,0.217-1.045,0.217-1.775
			s0.039-1.509-0.578-2.288h1.527c0.236-0.559,0.219-0.783,0.219-1.52c0-2.228-0.845-1.809-2.34-2.743
			c0.646-0.993,1.979-1.965,2.34-3.539c-0.284-0.799-1.682-1.913-2.883-1.643v-1.679c2.127-0.41,1.715-1.362,1.715-2.387
			c0-0.733-0.59-1.609-0.59-2.339c0-0.729,0.59-1.317,0.629-2.303h1.082v-8.038c-0.217-0.252-0.457-0.501-1.112-0.848v-5.083
			c-0.009-2.125-2.628-6.688-4.104-7.796v-3.896c1.756-5.759,10.443-2.33,12.348-7.689c0.572-0.177,1.743-0.124,2.89-0.806
			c-0.282-0.482-0.508-0.711-1.154-1.058v-4.965c-1.979-0.677-1.78-0.89-1.78-2.277c0-0.73,0.306-1.381,0.653-2.027h1.035
			c0.631,0.921,1.682,2.316,2.414,2.316c0.735,0,1.217-1.126,1.904-1.752c0.397,0.336,0.587,0.583,1.32,0.583
			c1.354,0,1.465-1.132,1.465-1.461c0-0.257-1.759-3.361-1.759-4.096c0-0.73,1.175-1.9,1.175-2.636c0-0.729,0.368-1.135,0.368-1.135
			c0.233-0.537,0.216-1.055,0.216-1.788c0-6.104-6.199-9.931-9.954-12.362v-5.008c-3.177-5.407-5.289-2.265-5.289-7.786
			c0-0.732,0.587-1.903,0.587-5.121c0-0.294,0.585-0.111,0.591-0.842v-5.541c-0.256-0.242-0.591-0.055-0.591-0.785
			c0-0.732,0.585-0.732,0.591-1.282c-0.644-1.134-1.456-2.276-1.967-3.412c-1.946,0.699-2.112,2.822-3.404,4.097h-1.582
			c-2.132-2.079-0.89-6.539-5.313-5.282v-2.858c0.389-0.042,0.534,0.106,0.534-0.628c0-0.73-0.504-0.89-1.157-1.238v-4.41
			c-0.557-0.535-1.625-1.37-2.36-1.37c-0.29,0-1.578,0.722-1.813,1.715h-1.664c-0.045-0.689-0.629-0.982-0.629-1.715
			c0-0.545,1.175-1.756,1.175-2.339c0-0.731,0.044-0.924-0.148-1.17c-0.48,0.541-1.042,1.088-1.498,1.75
			c-0.113-0.726-0.685-1.248-0.923-1.772h-0.727c-0.231,0.799-0.854,1.735-1.488,2.33h-1.057v-0.943
			c-0.273-0.237,0.125-0.194-0.607-0.194c-0.733,0-0.439,0.583-1.175,0.583c-0.732,0-1.795-1.169-2.53-1.189h-3.964v1.796h2.917
			c-0.396,1.024,0.06,1.953,0.06,2.906c0,3.764-6.301,3.122-7.971,4.134c-1.489,1.488-1.981,1.899-3.299,4.054
			c-1.994-2.056-5.148-0.836-5.148-3.51c0-2.158,2.352-2.122,1.79-4.642h0.927c0.231-0.542,0.216-0.766,0.216-1.5
			c0-1.39,0.297-1.3-1.156-2.121v-4.396c-1.131-0.828-0.665-0.92-1.754-1.451v-4.971c-1.399-0.603-0.697-1.824-1.765-2.646v-3.797
			c-0.521-0.236-1.188-0.949-1.188-1.68c0-1.718,3.164-4.487,4.629-7.311v0.966c0.312,0.247-0.082,0.201,0.647,0.201
			c0.735,0,0.587-0.145,0.629-0.564h3.879c0.733-0.022,0.33-0.606,1.063-0.606c0.733,0,0.439,0.584,1.171,0.584
			c0.737,0-0.144-0.584,0.588-0.566h0.831c0.445,1.364,1.806,1.74,2.1,1.74c0.732,0,1.189-0.507,1.59-1.17
			c0.421,0.333,1.036,0.664,1.272,1.186h0.742c0.854-1.413,1.163-1.773,1.673-1.773c0.732,0,0.836,0.335,1.026,0.584
			c1.255-1.275,1.607-4.257,2.892-5.843c0.968,0.295,1.505,0.58,2.24,0.58c2.784,0,7.225-11.527,7.683-12.839h1.064
			c0.37,1.468,1.586,1.135,2.1,1.135c3.408,0,8.833-5.288,9.145-6.992C641.154,76.789,640.744,75.149,641.237,74.209"/>
	</g>
	<g>
		<path fill="#004782" d="M302.193,317.311c1.122,0,44.078,2.236,44.078-31.353c0-16.47-12.508-26.228-27.895-28.305v-0.323
			c12.986-2.396,25.008-11.036,25.008-25.274c0-20.309-18.275-30.065-40.07-30.225H247.86v115.48H302.193L302.193,317.311z
			 M279.917,294.911v-24.944h20.992c7.214,0.479,11.705,6.558,11.705,12.956c0,7.197-5.933,11.989-13.947,11.989H279.917
			L279.917,294.911z M279.917,224.219h17.465c7.531,0,13.143,4.641,13.143,11.2c0,8.799-5.612,12.157-14.265,12.157l-16.343,0.161
			V224.219"/>
		<polyline fill="#004782" points="397.605,252.528 397.288,252.528 397.288,201.831 365.229,201.831 365.229,317.311 
			397.288,317.311 397.288,255.887 397.605,255.887 435.75,317.311 475.5,317.311 432.384,252.692 472.294,201.831 434.306,201.831 
			397.605,252.528 		"/>
		<polyline fill="#004782" points="522.354,252.528 522.037,252.528 522.037,201.831 489.981,201.831 489.981,317.311 
			522.037,317.311 522.037,255.887 522.354,255.887 560.5,317.311 600.25,317.311 557.133,252.692 597.046,201.831 559.059,201.831 
			522.354,252.528 		"/>
	</g>
	<rect x="206.57" y="371.788" fill="#004782" width="16.543" height="1.52"/>
	<g>
		<path fill="#004782" d="M161.447,459.834V437.1h4.237v1.367c0,0,2.324-1.321,4.875-1.64c0.866-0.137,1.731-0.183,2.415-0.137
			c2.142,0.09,3.599,0.729,4.647,1.913c1.64-0.638,5.148-2.006,8.109-2.006c6.196,0,7.79,3.145,7.79,11.345v11.892h-4.283v-10.342
			c0-6.516-0.272-8.884-4.282-8.884c-2.688,0-5.604,1.321-5.695,1.412c0.274,0.685,0.456,3.554,0.456,6.014v11.8h-4.283v-11.709
			c0-5.558-0.547-7.517-4.282-7.517c-2.505,0-5.422,1.366-5.422,1.366v17.859H161.447z"/>
		<path fill="#004782" d="M201.449,427.897h4.329v4.784h-4.329V427.897z M201.449,437.1h4.329v22.734h-4.329V437.1z"/>
		<path fill="#004782" d="M218.761,440.972v9.933c0,4.102,0.229,5.376,2.826,5.376c1.275,0,3.872-0.228,3.872-0.228l0.228,3.736
			c0,0-3.052,0.546-4.647,0.546c-4.965,0-6.561-1.869-6.561-8.428v-10.936h-3.052V437.1h3.052v-6.833h4.282v6.833h6.698v3.872
			H218.761z"/>
		<path fill="#004782" d="M248.193,455.962l0.091,3.417c0,0-5.193,0.956-9.066,0.956c-6.834-0.046-9.294-3.826-9.294-11.708
			c0-8.474,3.645-12.029,9.704-12.029c6.287,0,9.43,3.235,9.43,10.524l-0.273,3.145h-14.488c0,4.101,1.458,6.104,5.513,6.104
			C243.318,456.371,248.193,455.962,248.193,455.962z M244.777,446.896c0-4.738-1.503-6.47-5.148-6.47
			c-3.554,0-5.331,1.868-5.376,6.47H244.777z"/>
		<path fill="#004782" d="M255.575,427.897h4.328v4.784h-4.328V427.897z M255.575,437.1h4.328v22.734h-4.328V437.1z"/>
		<path fill="#004782" d="M268.194,459.834V437.1h4.283v1.321c0,0,3.735-1.823,6.561-1.823c6.332,0,7.836,3.418,7.836,11.345v11.892
			h-4.329v-11.845c0-5.148-0.592-7.381-4.236-7.381c-2.552,0-5.832,1.366-5.832,1.366v17.859H268.194z"/>
		<path fill="#004782" d="M311.522,454.412c0.045,1.55,0.865,2.005,2.232,2.188l-0.137,3.689c-3.189,0-4.51-0.5-5.785-1.641
			c0,0-3.964,1.687-7.928,1.687c-4.101,0-6.378-2.643-6.378-7.152c0-4.646,2.46-6.423,7.29-6.835l6.378-0.545v-1.641
			c0-2.324-1.229-3.463-3.371-3.463c-3.371,0-8.747,0.547-8.747,0.547l-0.183-3.735c0,0,5.695-0.913,9.157-0.913
			c4.875,0,7.472,2.143,7.472,7.518V454.412z M301.317,449.629c-2.37,0.183-3.417,1.321-3.417,3.463
			c0,2.278,1.002,3.508,2.779,3.508c2.916,0,6.515-1.14,6.515-1.14v-6.287L301.317,449.629z"/>
		<path fill="#004782" d="M320.133,459.834V437.1h4.283v1.321c0,0,3.735-1.823,6.561-1.823c6.332,0,7.836,3.418,7.836,11.345v11.892
			h-4.329v-11.845c0-5.148-0.592-7.381-4.236-7.381c-2.552,0-5.832,1.366-5.832,1.366v17.859H320.133z"/>
		<path fill="#004782" d="M364.554,459.834h-4.282v-1.321c0,0-3.371,1.776-6.423,1.776c-5.285,0-8.429-2.641-8.429-11.845
			c0-8.11,2.779-11.847,9.477-11.847c1.868,0,4.92,0.502,5.375,0.548v-9.202h4.282V459.834z M360.272,455.006v-14.078
			c-0.501-0.046-3.188-0.455-5.103-0.455c-3.964,0-5.376,2.551-5.376,8.017c0,6.379,1.914,7.791,4.647,7.838
			C357.083,456.28,360.272,455.006,360.272,455.006z"/>
		<path fill="#004782" d="M389.704,455.962l0.091,3.417c0,0-5.194,0.956-9.066,0.956c-6.834-0.046-9.294-3.826-9.294-11.708
			c0-8.474,3.645-12.029,9.704-12.029c6.287,0,9.43,3.235,9.43,10.524l-0.273,3.145h-14.488c0,4.101,1.458,6.104,5.513,6.104
			C384.829,456.371,389.704,455.962,389.704,455.962z M386.287,446.896c0-4.738-1.503-6.47-5.148-6.47
			c-3.554,0-5.331,1.868-5.376,6.47H386.287z"/>
		<path fill="#004782" d="M397.313,437.1h4.283v2.688c0,0,3.235-2.414,7.426-3.234v4.557c-4.191,0.819-7.426,2.777-7.426,2.777
			v15.946h-4.283V437.1z"/>
		<path fill="#004782" d="M456.814,459.834h-4.329v-18.862h-2.733V437.1h2.733v-1.776c0-6.56,1.687-8.383,6.333-8.383
			c1.504,0,4.784,0.411,4.784,0.411l-0.046,3.554c0,0-2.368-0.092-3.781-0.092c-2.278,0-2.961,1.002-2.961,4.555v1.731h6.241v3.872
			h-6.241V459.834z"/>
		<path fill="#004782" d="M486.062,437.1v22.734h-4.328v-1.321c0,0-3.554,1.822-6.378,1.822c-6.47,0-7.792-3.188-7.792-11.39V437.1
			h4.33v11.802c0,5.557,0.409,7.516,4.237,7.516c2.551,0,5.603-1.366,5.603-1.366V437.1H486.062z M470.344,426.895h4.146v4.738
			h-4.146V426.895z M479.729,426.895h4.101v4.738h-4.101V426.895z"/>
		<path fill="#004782" d="M494.536,437.1h4.282v2.688c0,0,3.235-2.414,7.427-3.234v4.557c-4.191,0.819-7.427,2.777-7.427,2.777
			v15.946h-4.282V437.1z"/>
		<path fill="#004782" d="M528.614,455.962l0.091,3.417c0,0-5.193,0.956-9.066,0.956c-6.833-0.046-9.295-3.826-9.295-11.708
			c0-8.474,3.646-12.029,9.705-12.029c6.288,0,9.43,3.235,9.43,10.524l-0.272,3.145h-14.488c0,4.101,1.458,6.104,5.514,6.104
			C523.739,456.371,528.614,455.962,528.614,455.962z M525.198,446.896c0-4.738-1.504-6.47-5.149-6.47
			c-3.554,0-5.331,1.868-5.375,6.47H525.198z"/>
		<path fill="#004782" d="M535.996,427.897h4.327v4.784h-4.327V427.897z M535.996,437.1h4.327v22.734h-4.327V437.1z"/>
		<path fill="#004782" d="M548.616,459.834V437.1h4.282v1.321c0,0,3.736-1.823,6.561-1.823c6.333,0,7.837,3.418,7.837,11.345v11.892
			h-4.328v-11.845c0-5.148-0.594-7.381-4.236-7.381c-2.553,0-5.833,1.366-5.833,1.366v17.859H548.616z"/>
		<path fill="#004782" d="M591.943,454.412c0.046,1.55,0.866,2.005,2.231,2.188l-0.136,3.689c-3.189,0-4.511-0.5-5.786-1.641
			c0,0-3.964,1.687-7.927,1.687c-4.101,0-6.379-2.643-6.379-7.152c0-4.646,2.46-6.423,7.29-6.835l6.379-0.545v-1.641
			c0-2.324-1.232-3.463-3.374-3.463c-3.37,0-8.747,0.547-8.747,0.547l-0.18-3.735c0,0,5.692-0.913,9.156-0.913
			c4.875,0,7.472,2.143,7.472,7.518V454.412z M581.738,449.629c-2.368,0.183-3.418,1.321-3.418,3.463
			c0,2.278,1.003,3.508,2.779,3.508c2.916,0,6.517-1.14,6.517-1.14v-6.287L581.738,449.629z"/>
		<path fill="#004782" d="M600.555,459.834V437.1h4.282v1.321c0,0,3.736-1.823,6.56-1.823c6.334,0,7.838,3.418,7.838,11.345v11.892
			h-4.328v-11.845c0-5.148-0.594-7.381-4.238-7.381c-2.551,0-5.831,1.366-5.831,1.366v17.859H600.555z"/>
		<path fill="#004782" d="M644.975,459.834h-4.281v-1.321c0,0-3.373,1.776-6.426,1.776c-5.284,0-8.429-2.641-8.429-11.845
			c0-8.11,2.78-11.847,9.478-11.847c1.867,0,4.92,0.502,5.377,0.548v-9.202h4.281V459.834z M640.693,455.006v-14.078
			c-0.502-0.046-3.19-0.455-5.104-0.455c-3.962,0-5.376,2.551-5.376,8.017c0,6.379,1.914,7.791,4.648,7.838
			C637.503,456.28,640.693,455.006,640.693,455.006z"/>
		<path fill="#004782" d="M670.125,455.962l0.091,3.417c0,0-5.194,0.956-9.066,0.956c-6.834-0.046-9.295-3.826-9.295-11.708
			c0-8.474,3.646-12.029,9.704-12.029c6.289,0,9.432,3.235,9.432,10.524l-0.273,3.145h-14.489c0,4.101,1.459,6.104,5.514,6.104
			C665.25,456.371,670.125,455.962,670.125,455.962z M666.708,446.896c0-4.738-1.504-6.47-5.149-6.47
			c-3.554,0-5.331,1.868-5.375,6.47H666.708z"/>
		<path fill="#004782" d="M677.733,437.1h4.283v2.688c0,0,3.234-2.414,7.426-3.234v4.557c-4.191,0.819-7.426,2.777-7.426,2.777
			v15.946h-4.283V437.1z"/>
	</g>
	<path fill="#004782" d="M62.365,373.512c-0.145-4.645-0.145-4.857-1.952-5.287c-0.505-0.145-5.567-1.285-11.494-1.069l0.144,13.147
		c0.073,5.432,0.146,6.789,0.288,9.575c2.386,0.073,2.892,0.073,5.423,0.212l-0.071,1.715c-2.676-0.144-3.687-0.217-8.75-0.217
		c-4.12,0-5.059,0.073-7.012,0.217l-0.072-1.715l4.989-0.212c0.58-6.646,0.58-26.656,0.58-34.517c0-6.282-0.075-8.501-0.291-11.932
		l-5.351-0.574l0.073-1.498c2.026,0.073,4.338,0.217,8.749,0.217c17.713,0,19.086,0,22.124-0.217
		c-0.073,2.072-0.147,4.076-0.073,7.502h-1.59c-0.074-0.929-0.145-2.856-0.725-3.574c-1.084-1.216-7.301-2.213-14.026-2.213
		l-3.831,0.074c-0.433,7-0.577,11.93-0.577,22.365c3.833,0.211,11.927-0.218,12.941-1.358c0.359-0.43,0.359-0.786,0.65-4.284h1.588
		l-0.215,7.286c0,1.426,0.072,4.217,0.142,6.356H62.365"/>
	<path fill="#004782" d="M572.827,341.379c-3.39,0-8.973,0.212-9.009,0.21c-0.845-0.009-1.798-0.015-2.883-0.015
		c-4.41,0-6.722-0.144-8.747-0.217l-0.074,1.498l5.352,0.574c0.216,3.431,0.29,5.649,0.29,11.932c0,7.86,0,27.87-0.578,34.517
		l-4.989,0.212l0.071,1.715c1.954-0.144,2.892-0.217,7.012-0.217c5.064,0,6.075,0.073,8.751,0.217l0.07-1.715
		c-2.529-0.139-3.036-0.139-5.421-0.212c-0.144-2.786-0.218-4.144-0.288-9.575c0,0,0-28.716,0.399-36.604
		c1.57,0.11,3.599-0.024,5.989,0.008c7.888,0.108,12.794,3.538,12.794,10.726c0,7.923-6.506,11.444-12.014,11.444
		c-1.859,0-3.271-0.294-4.017-0.662l-0.521,0.294l0.521,1.688c0.671,0.438,2.157,0.951,4.687,0.951
		c11.385,0,16.52-7.845,16.52-14.815C586.742,341.599,577.443,341.379,572.827,341.379z"/>
	<path fill="#004782" d="M89.741,377.33c-2.418,0.053-9.884,0-11.88,0c0.629-1.813,0.842-2.272,1.944-5.096
		c1.577-3.88,3.101-7.715,4.572-11.601c0.58,1.716,2.945,9.28,3.469,10.796L89.741,377.33L89.741,377.33z M92.106,384.44
		c0.156,0.657,0.843,2.725,1.734,5.902c-1.734,0.103-1.946,0.103-3.678,0.254v1.208c2.415-0.103,3.311-0.103,7.988-0.103
		c2.157,0,3.207,0,5.047,0.103v-1.208c-1.472-0.104-1.631-0.104-2.997-0.254c-2.996-7.058-5.728-14.227-8.198-21.534
		c-1.471-4.392-3.155-9.535-4.154-13.317h-2.995c-2.207,6.708-10.198,25.421-15.403,34.903l-3.468,0.202v1.208
		c1.473-0.052,2.892-0.103,5.31-0.103c2.26,0,3.521,0.051,5.834,0.103v-1.208l-3.734-0.254c1.001-3.531,2.314-7.313,4.049-11.548
		c1.893-0.054,3.784-0.104,6.517-0.104c3.838,0,4.73,0.051,6.309,0.104L92.106,384.44"/>
	<path fill="#004782" d="M118.762,357.707c0.946-0.2,1.946-0.35,3.313-0.35c2.311,0,4.203,0.453,5.728,2.268
		c0.895,1.061,1.732,2.775,1.732,5.143c0,4.541-2.682,6.46-3.729,7.012c-1.632,0.959-3.627,1.163-5.52,1.163
		c-0.629,0-1,0-1.786-0.051c0-1.768-0.053-2.672-0.053-4.537C118.448,364.82,118.501,361.238,118.762,357.707L118.762,357.707z
		 M126.907,372.996c2.313-0.611,7.991-2.373,7.991-8.528c0-3.127-1.368-5.297-2.732-6.407c-2.364-1.965-5.834-2.018-7.463-2.018
		c-1.524,0-3.103,0.053-4.681,0.151c-4.782,0.201-7.359,0.154-10.563,0v1.163c1.679,0.149,1.996,0.201,3.835,0.403
		c0.158,2.572,0.261,4.334,0.261,10.991c0,0.356,0,12.057-0.053,15.688c-0.101,3.128-0.208,4.438-0.314,5.954
		c-1.839,0.099-1.998,0.099-3.678,0.252v1.158c1.472-0.103,2.522-0.103,8.409,0c2.682,0.053,4.049,0.15,5.728,0.15
		c8.204,0,12.882-3.934,12.882-9.886c0-5.647-3.521-8.118-9.676-8.723l-1.101-0.052L126.907,372.996L126.907,372.996z
		 M118.555,374.152c1.103-0.053,1.782-0.104,2.731-0.104c4.206,0,9.726,1.112,9.726,7.721c0,2.016-0.581,4.387-1.792,5.999
		c-1.946,2.574-4.781,2.926-7.306,2.926c-1.313,0-2.156-0.098-3.152-0.249C118.555,386.762,118.448,378.845,118.555,374.152"/>
	<path fill="#004782" d="M163.231,378.994c-0.213-2.976-0.213-3.281-1.207-3.635c-2.631-0.954-6.677-1.005-8.202-1.005v3.481
		c0,4.135,0,8.373,0.315,12.404c3.945,0.103,10.354-0.249,12.879-1.308c1.103-0.507,1.103-0.507,1.314-4.036h1.26
		c-0.106,1.663-0.106,2.164-0.106,6.908c-3.361-0.149-4.571-0.149-15.294-0.149c-3.364,0-6.677,0.047-9.987,0.149v-1.208
		c1.786-0.104,2.26-0.104,4.149-0.151c0.264-2.476,0.317-3.938,0.371-7.317c0.05-3.022,0.05-6.201,0.104-8.521v-3.028
		c0-9.073-0.211-11.596-0.368-13.871l-3.625-0.305v-1.208c2.05,0.103,3.625,0.154,7.46,0.154c3.789,0,13.144,0,16.35-0.154
		c-0.05,1.06-0.05,3.684-0.05,6.103h-1.16c-0.05-2.314-0.311-2.82-1.26-3.275c-1.786-0.911-6.203-1.463-9.67-1.463
		c-1,0-1.685,0.051-2.367,0.099c-0.107,2.02-0.107,3.081-0.158,6.305l-0.157,9.235c1.839,0,5.888,0.044,8.202-0.658
		c1.101-0.305,1.101-0.356,1.311-3.482h1.21c-0.107,1.664-0.158,2.976-0.158,5.396c0,1.213,0.051,2.878,0.051,4.49L163.231,378.994"
		/>
	<path fill="#004782" d="M187.623,357.657c0.946-0.099,1.999-0.255,3.47-0.255c2.311,0,7.303,0.207,7.303,7.469
		c0,5.55-3.574,7.567-7.516,7.969c-1.208,0.103-2.311,0.103-3.889,0.052C186.99,369.968,187.094,362.7,187.623,357.657
		L187.623,357.657z M191.247,390.597c-1.893-0.104-2.207-0.151-3.678-0.202c-0.265-3.132-0.368-4.746-0.421-7.669
		c-0.054-1.359-0.158-7.564-0.158-8.827l0.579,0.103l0.789,1.009c1.996,2.568,4.203,4.992,6.306,7.514
		c3.417,4.036,5.363,7.064,6.884,9.281c1.264-0.052,1.739-0.052,3.364-0.052c2.367,0,3.367,0,5.313,0.052v-1.208
		c-1.367-0.054-1.42-0.104-2.734-0.202c-1.157-1.21-2.26-2.373-4.571-5.244c-1.21-1.465-6.52-8.073-7.623-9.387
		c-0.842-0.956-1.157-1.258-1.839-1.865c4.152-0.701,7.463-2.267,9.302-5.497c1.104-2.017,1.104-4.037,1.104-4.59
		c0-3.276-1.625-5.246-2.942-6.154c-1.997-1.412-5.203-1.614-7.777-1.614c-1.474,0-4.417,0.151-5.68,0.151
		c-4.835,0.103-7.463,0.051-9.409,0v1.163l3.892,0.403c0.157,2.873,0.208,4.034,0.208,13.413c0,3.486,0,7.321-0.051,11.904
		c-0.053,4.341-0.21,5.296-0.421,7.316c-1.577,0.051-2.257,0.099-3.785,0.202v1.208c1.735-0.052,2.05-0.052,3.521-0.052
		c3.627,0,7.624,0,9.83,0.052V390.597"/>
	<path fill="#004782" d="M753.209,378.994c-0.214-2.976-0.214-3.281-1.211-3.635c-2.628-0.954-6.674-1.005-8.201-1.005v3.481
		c0,4.135,0,8.373,0.317,12.404c3.941,0.103,10.355-0.249,12.879-1.308c1.104-0.507,1.104-0.507,1.313-4.036h1.261
		c-0.106,1.663-0.106,2.164-0.106,6.908c-3.363-0.149-4.57-0.149-15.293-0.149c-3.367,0-6.678,0.047-9.991,0.149v-1.208
		c1.789-0.104,2.264-0.104,4.153-0.151c0.264-2.476,0.317-3.938,0.371-7.317c0.05-3.022,0.05-6.201,0.104-8.521v-3.028
		c0-9.073-0.211-11.596-0.371-13.871l-3.624-0.305v-1.208c2.05,0.103,3.624,0.154,7.463,0.154c3.787,0,13.143,0,16.35-0.154
		c-0.051,1.06-0.051,3.684-0.051,6.103h-1.159c-0.052-2.314-0.315-2.82-1.261-3.275c-1.786-0.911-6.202-1.463-9.67-1.463
		c-1,0-1.686,0.051-2.367,0.099c-0.107,2.02-0.107,3.081-0.16,6.305l-0.157,9.235c1.842,0,5.891,0.044,8.201-0.658
		c1.104-0.305,1.104-0.356,1.314-3.482h1.207c-0.104,1.664-0.154,2.976-0.154,5.396c0,1.213,0.051,2.878,0.051,4.49L753.209,378.994
		"/>
	<path fill="#004782" d="M776.081,357.657c0.943-0.099,1.996-0.255,3.468-0.255c2.313,0,7.308,0.207,7.308,7.469
		c0,5.55-3.576,7.567-7.519,7.969c-1.207,0.103-2.313,0.103-3.892,0.052C775.446,369.968,775.553,362.7,776.081,357.657
		L776.081,357.657z M779.705,390.597c-1.892-0.104-2.206-0.151-3.678-0.202c-0.264-3.132-0.367-4.746-0.421-7.669
		c-0.054-1.359-0.16-7.564-0.16-8.827l0.581,0.103l0.789,1.009c1.996,2.568,4.203,4.992,6.307,7.514
		c3.417,4.036,5.363,7.064,6.887,9.281c1.264-0.052,1.736-0.052,3.364-0.052c2.367,0,3.364,0,5.31,0.052v-1.208
		c-1.364-0.054-1.418-0.104-2.732-0.202c-1.156-1.21-2.26-2.373-4.574-5.244c-1.209-1.465-6.519-8.073-7.623-9.387
		c-0.842-0.956-1.156-1.258-1.838-1.865c4.151-0.701,7.465-2.267,9.301-5.497c1.106-2.017,1.106-4.037,1.106-4.59
		c0-3.276-1.628-5.246-2.942-6.154c-1.999-1.412-5.205-1.614-7.782-1.614c-1.472,0-4.415,0.151-5.678,0.151
		c-4.838,0.103-7.466,0.051-9.409,0v1.163l3.889,0.403c0.16,2.873,0.211,4.034,0.211,13.413c0,3.486,0,7.321-0.051,11.904
		c-0.053,4.341-0.214,5.296-0.42,7.316c-1.578,0.051-2.259,0.099-3.785,0.202v1.208c1.734-0.052,2.049-0.052,3.52-0.052
		c3.628,0,7.624,0,9.83,0.052V390.597"/>
	<path fill="#004782" d="M633.359,357.657c0.945-0.099,1.999-0.255,3.47-0.255c2.312,0,7.303,0.207,7.303,7.469
		c0,5.55-3.573,7.567-7.517,7.969c-1.206,0.103-2.311,0.103-3.889,0.052C632.727,369.968,632.83,362.7,633.359,357.657
		L633.359,357.657z M636.983,390.597c-1.893-0.104-2.207-0.151-3.678-0.202c-0.264-3.132-0.368-4.746-0.422-7.669
		c-0.054-1.359-0.157-7.564-0.157-8.827l0.579,0.103l0.789,1.009c1.996,2.568,4.203,4.992,6.306,7.514
		c3.417,4.036,5.363,7.064,6.885,9.281c1.264-0.052,1.738-0.052,3.363-0.052c2.367,0,3.367,0,5.313,0.052v-1.208
		c-1.368-0.054-1.422-0.104-2.735-0.202c-1.156-1.21-2.261-2.373-4.571-5.244c-1.209-1.465-6.519-8.073-7.623-9.387
		c-0.843-0.956-1.156-1.258-1.84-1.865c4.153-0.701,7.465-2.267,9.303-5.497c1.104-2.017,1.104-4.037,1.104-4.59
		c0-3.276-1.626-5.246-2.942-6.154c-1.997-1.412-5.204-1.614-7.778-1.614c-1.475,0-4.417,0.151-5.681,0.151
		c-4.835,0.103-7.463,0.051-9.409,0v1.163l3.893,0.403c0.156,2.873,0.207,4.034,0.207,13.413c0,3.486,0,7.321-0.051,11.904
		c-0.052,4.341-0.21,5.296-0.421,7.316c-1.578,0.051-2.257,0.099-3.784,0.202v1.208c1.734-0.052,2.05-0.052,3.521-0.052
		c3.628,0,7.623,0,9.83,0.052V390.597"/>
	<path fill="#004782" d="M267.695,350.65l-0.291-4.362c-5.206-3.499-11.274-4.072-14.098-4.072c-4.553,0-8.821,1.57-12.289,5.431
		c-4.556,5.002-5.855,11.933-5.855,18.722c0,5.432,0.867,12.146,4.194,16.931c3.467,4.937,8.745,7.647,14.532,7.647
		c2.242,0,8.023-0.501,14.674-4.784l-0.072,2.146c-3.542,2.067-8.459,4.567-15.688,4.567c-16.05-0.14-23.208-13.001-23.208-26.294
		c0-14.791,8.893-26.294,25.373-26.294c2.679,0,5.28,0.284,7.739,0.569c2.818,0.429,3.829,0.574,6.434,0.501l-0.071,5.076
		c0,1.285,0,2.215,0.071,4.217H267.695"/>
	<path fill="#004782" d="M296.946,377.33c-2.417,0.053-9.88,0-11.88,0c0.632-1.813,0.843-2.272,1.946-5.096
		c1.578-3.88,3.1-7.715,4.571-11.601c0.582,1.716,2.945,9.28,3.474,10.796L296.946,377.33L296.946,377.33z M299.313,384.44
		c0.158,0.657,0.84,2.725,1.733,5.902c-1.733,0.103-1.943,0.103-3.675,0.254v1.208c2.412-0.103,3.307-0.103,7.985-0.103
		c2.16,0,3.207,0,5.046,0.103v-1.208c-1.471-0.104-1.626-0.104-2.993-0.254c-2.996-7.058-5.731-14.227-8.202-21.534
		c-1.471-4.392-3.153-9.535-4.149-13.317h-2.999c-2.207,6.708-10.198,25.421-15.399,34.903l-3.47,0.202v1.208
		c1.471-0.052,2.892-0.103,5.309-0.103c2.259,0,3.522,0.051,5.833,0.103v-1.208l-3.734-0.254c1.003-3.531,2.316-7.313,4.049-11.548
		c1.892-0.054,3.781-0.104,6.519-0.104c3.838,0,4.731,0.051,6.306,0.104L299.313,384.44"/>
	<path fill="#004782" d="M604.925,377.33c-2.418,0.053-9.883,0-11.88,0c0.629-1.813,0.843-2.272,1.945-5.096
		c1.576-3.88,3.101-7.715,4.572-11.601c0.578,1.716,2.944,9.28,3.47,10.796L604.925,377.33L604.925,377.33z M607.289,384.44
		c0.156,0.657,0.839,2.725,1.732,5.902c-1.732,0.103-1.943,0.103-3.676,0.254v1.208c2.415-0.103,3.311-0.103,7.986-0.103
		c2.159,0,3.208,0,5.048,0.103v-1.208c-1.472-0.104-1.628-0.104-2.996-0.254c-2.996-7.058-5.728-14.227-8.198-21.534
		c-1.472-4.392-3.154-9.535-4.153-13.317h-2.998c-2.207,6.708-10.198,25.421-15.401,34.903l-3.468,0.202v1.208
		c1.472-0.052,2.889-0.103,5.31-0.103c2.258,0,3.521,0.051,5.835,0.103v-1.208l-3.735-0.254c1.001-3.531,2.314-7.313,4.049-11.548
		c1.89-0.054,3.783-0.104,6.518-0.104c3.838,0,4.734,0.051,6.309,0.104L607.289,384.44"/>
	<path fill="#004782" d="M319.181,388.172c2.104,2.522,5.153,2.926,6.989,2.926c4.26,0,7.887-2.724,7.887-7.566
		c0-5.598-4.625-7.261-6.832-8.064c-1.056-0.409-2.156-0.762-3.209-1.165c-5.043-2.165-6.517-5.647-6.517-8.729
		c0-2.62,1-5.193,2.631-6.857c2.417-2.569,6.096-3.276,9.563-3.276c2.103,0,3.841,0.254,6.363,0.707
		c-0.054,1.712-0.054,2.017-0.054,6.099h-1.261l-0.21-3.179c-1.685-1.409-3.471-2.061-5.728-2.061c-5.52,0-6.205,4.991-6.205,6.753
		c0,5.149,3.941,6.56,7.308,7.721c3.204,1.158,9.145,3.278,9.145,9.935c0,7.363-6.413,11.099-14.665,11.099
		c-3.26,0-5.152-0.403-6.992-0.76c0.104-1.006,0.155-2.165,0.155-4.083c0-1.11,0-2.169-0.051-3.13h1.261L319.181,388.172"/>
	<path fill="#004782" d="M344.097,362.297c0.053-2.419,0.107-4.64,0.16-6.201c4.835,0.149,9.67,0.403,14.508,0.403
		c2.257-0.053,6.253-0.15,13.823-0.403c0,0.91-0.053,5.194-0.053,6.201h-1.157c-0.053-1.157-0.104-1.663-0.314-3.275
		c-2.208-0.911-3.575-1.211-9.884-1.515c-0.208,2.924-0.314,4.236-0.418,8.723c-0.104,4.746-0.104,8.326-0.104,16.192
		c0,4.241,0.051,5.698,0.155,7.973c1.893,0.051,2.052,0.099,3.888,0.202v1.208c-2.153-0.103-3.046-0.103-6.146-0.103
		c-3.417,0-5.152,0-7.359,0.103v-1.208c1.628-0.104,2.257-0.104,3.941-0.151c0.576-8.578,0.576-17.906,0.576-26.888
		c0-2.469-0.054-3.881-0.157-5.999c-4.681,0.099-7.781,0.604-9.987,1.56c-0.208,1.262-0.261,1.717-0.368,3.179H344.097"/>
	<path fill="#004782" d="M658.467,362.297c0.054-2.419,0.107-4.64,0.161-6.201c4.835,0.149,9.669,0.403,14.507,0.403
		c2.258-0.053,6.254-0.15,13.823-0.403c0,0.91-0.054,5.194-0.054,6.201h-1.156c-0.054-1.157-0.104-1.663-0.314-3.275
		c-2.207-0.911-3.574-1.211-9.884-1.515c-0.207,2.924-0.313,4.236-0.418,8.723c-0.104,4.746-0.104,8.326-0.104,16.192
		c0,4.241,0.05,5.698,0.154,7.973c1.892,0.051,2.053,0.099,3.889,0.202v1.208c-2.153-0.103-3.046-0.103-6.146-0.103
		c-3.417,0-5.151,0-7.358,0.103v-1.208c1.628-0.104,2.257-0.104,3.941-0.151c0.575-8.578,0.575-17.906,0.575-26.888
		c0-2.469-0.053-3.881-0.156-5.999c-4.681,0.099-7.78,0.604-9.987,1.56c-0.208,1.262-0.262,1.717-0.368,3.179H658.467"/>
	<path fill="#004782" d="M398.5,378.994c-0.208-2.976-0.208-3.281-1.209-3.635c-2.625-0.954-6.671-1.005-8.196-1.005v3.481
		c0,4.135,0,8.373,0.314,12.404c3.942,0.103,10.357-0.249,12.879-1.308c1.101-0.507,1.101-0.507,1.311-4.036h1.261
		c-0.101,1.663-0.101,2.164-0.101,6.908c-3.367-0.149-4.574-0.149-15.3-0.149c-3.363,0-6.674,0.047-9.984,0.149v-1.208
		c1.786-0.104,2.26-0.104,4.15-0.151c0.264-2.476,0.317-3.938,0.368-7.317c0.053-3.022,0.053-6.201,0.11-8.521v-3.028
		c0-9.073-0.214-11.596-0.371-13.871l-3.627-0.305v-1.208c2.049,0.103,3.627,0.154,7.466,0.154c3.781,0,13.14,0,16.343-0.154
		c-0.05,1.06-0.05,3.684-0.05,6.103h-1.157c-0.05-2.314-0.317-2.82-1.261-3.275c-1.789-0.911-6.202-1.463-9.676-1.463
		c-0.997,0-1.679,0.051-2.361,0.099c-0.104,2.02-0.104,3.081-0.16,6.305l-0.154,9.235c1.839,0,5.885,0.044,8.196-0.658
		c1.106-0.305,1.106-0.356,1.316-3.482h1.21c-0.11,1.664-0.16,2.976-0.16,5.396c0,1.213,0.05,2.878,0.05,4.49L398.5,378.994"/>
	<path fill="#004782" d="M413.165,356.194c1.839,0.051,3.21,0.103,8.148,0.103c2.893,0,3.999-0.052,5.574-0.103v1.208
		c-1.84,0.207-2.839,0.305-3.893,0.408c-0.522,5.648-0.522,9.38-0.522,19.169c0,6.148,0.104,8.824,0.365,13.415
		c6.674,0.148,11.041-0.961,13.144-2.021l0.16-3.328h1.204c0,0.353,0,5.147,0.051,6.759c-2.625,0-7.617-0.052-12.452-0.052
		c-5.102,0-10.043,0.052-11.987,0.052v-1.208l4.049-0.151c0.365-2.571,0.418-3.983,0.469-7.922c0.057-6.052,0.11-9.229,0.11-11.245
		c0-9.079-0.053-10.593-0.317-13.42l-4.103-0.456V356.194"/>
	<path fill="#004782" d="M445.283,356.194c1.84,0.051,3.21,0.103,8.148,0.103c2.889,0,3.995-0.052,5.573-0.103v1.208
		c-1.842,0.207-2.838,0.305-3.892,0.408c-0.527,5.648-0.527,9.38-0.527,19.169c0,6.148,0.109,8.824,0.373,13.415
		c6.674,0.148,11.038-0.961,13.135-2.021l0.16-3.328h1.21c0,0.353,0,5.147,0.051,6.759c-2.631,0-7.623-0.052-12.458-0.052
		c-5.096,0-10.038,0.052-11.98,0.052v-1.208l4.046-0.151c0.367-2.571,0.421-3.983,0.478-7.922c0.044-6.052,0.104-9.229,0.104-11.245
		c0-9.079-0.06-10.593-0.314-13.42l-4.105-0.456V356.194"/>
	<path fill="#004782" d="M724.676,357.811c0.466-0.104,2.354-0.201,3.169-0.408v-1.208c-0.7,0.051-2.632,0.103-3.912,0.103
		c-2.192,0-4.112-0.052-4.928-0.103v1.208l3.133,0.456c0.115,2.827,0.147,13.675,0.159,13.835l-0.046,11.509
		c-6.248-7.178-17.467-20.357-21.286-26.762c-0.641,0.06-6.342-0.195-7.431-0.246v1.208l3.153,0.48
		c0.115,0.558,0.427,2.393,0.519,5.13v14.026c0,4.725-0.13,7.893-0.169,10.015c-0.067,1.333-0.157,2.164-0.231,3.341
		c-0.961,0.051-2.242,0.099-3.174,0.202v1.208c1.059-0.052,1.578-0.052,2.478-0.052c2.213,0,4.892,0,6.234,0.052v-1.208
		c-1.153-0.104-1.866-0.151-2.762-0.202c-0.041-0.803-0.077-1.505-0.107-2.155c-0.02-1.217-0.1-2.913-0.1-5.263v-19.743
		c0.014-0.127,0.026-0.26,0.038-0.4c8.06,9.456,21.342,26.178,22.838,28.442l2.526-0.038c-0.155-1.344-0.309-3.407-0.309-5.009
		v-20.071C724.496,363.154,724.555,360.736,724.676,357.811z"/>
	<path fill="#004782" d="M509.866,366.947c1.596-1.509,2.397-3.173,2.397-4.992c0-1.369-0.41-2.475-1.225-3.313
		c-0.802-0.841-1.824-1.267-3.064-1.267c-1.353,0-2.403,0.435-3.147,1.294c-0.729,0.856-1.092,1.994-1.092,3.416
		c0,1.104,0.193,2.305,0.585,3.601c0.409,1.277,0.932,2.602,1.571,3.97C507.653,368.695,508.977,367.79,509.866,366.947
		L509.866,366.947z M506.372,389.056c1.421-0.563,2.779-1.446,4.085-2.656c-1.676-2.103-2.979-3.871-3.925-5.312
		c-0.925-1.437-2.381-3.943-4.372-7.515c-1.826,1.068-3.229,2.135-4.206,3.204c-1.495,1.649-2.242,3.561-2.242,5.73
		c0,2,0.661,3.738,1.973,5.205c1.32,1.457,3.005,2.181,5.066,2.181C503.741,389.894,504.952,389.619,506.372,389.056
		L506.372,389.056z M501.339,371.708c-0.231-0.474-0.502-1.121-0.801-1.948c-0.306-0.822-0.516-1.486-0.641-2
		c-0.14-0.56-0.258-1.117-0.347-1.681c-0.087-0.58-0.128-1.134-0.128-1.681c0-2.524,0.78-4.619,2.34-6.282
		c1.566-1.664,3.545-2.497,5.944-2.497c2.184,0,3.979,0.591,5.384,1.757c1.399,1.18,2.103,2.756,2.103,4.734
		c0,2.316-0.893,4.208-2.692,5.68c-1.792,1.475-3.72,2.656-5.781,3.55c1.566,2.803,2.705,4.782,3.44,5.938
		c0.745,1.157,1.993,2.869,3.759,5.127c1.88-2.279,3.188-4.222,3.915-5.836c0.729-1.61,1.091-2.897,1.091-3.865
		c0-0.98-0.361-1.651-1.091-2.025c-0.465-0.227-1.261-0.389-2.396-0.475v-1.127h11.752v1.127c-1.189,0.146-2.08,0.356-2.667,0.635
		c-0.955,0.472-1.78,1.322-2.449,2.549l-1.392,2.494c-0.991,1.79-1.827,3.159-2.5,4.105c-0.656,0.945-1.655,2.252-2.988,3.916
		c0.713,0.82,1.519,1.653,2.43,2.496c1.97,1.664,3.942,2.495,5.912,2.495c1.171,0,2.172-0.277,2.986-0.843
		c0.496-0.344,1.163-1.021,1.996-2.018l0.801,0.629c-0.104,0.419-0.483,1.087-1.117,2c-0.641,0.889-1.256,1.592-1.839,2.099
		c-0.926,0.806-2,1.375-3.225,1.71c-0.73,0.21-1.438,0.315-2.136,0.315c-1.721,0-3.426-0.538-5.117-1.602
		c-1.005-0.631-2.361-1.745-4.049-3.344c-1.599,1.462-3.215,2.574-4.847,3.344c-2.135,1.049-4.476,1.576-7.039,1.576
		c-2.845,0-5.116-0.744-6.821-2.233c-1.686-1.51-2.527-3.556-2.527-6.154c0-2.434,0.747-4.568,2.263-6.414
		c1.524-1.854,3.657-3.544,6.393-5.068L501.339,371.708"/>
	<circle fill="#004782" cx="428.214" cy="444.942" r="3.844"/>
</g>
</svg>
