<svg xmlns="http://www.w3.org/2000/svg" xmlns:xlink="http://www.w3.org/1999/xlink" width="222.247" height="66.83" viewBox="0 0 222.247 66.83"><defs><style>.a{fill:none;}.b{fill:#ffd400;}.c{clip-path:url(#a);}.d,.e{fill:#9c9c9d;}.d{fill-rule:evenodd;}.f{fill:#004e21;}</style><clipPath id="a"><rect class="a" width="222.247" height="66.829"/></clipPath></defs><g transform="translate(160.056 4)"><g transform="translate(-160.056 -4)"><path class="b" d="M302.237,371.894H324.2v22.3l22.333-22.333-.015-22.353-22.4,22.306-22.37-22.359-21.961-.006Z" transform="translate(-124.289 -349.451)"/><rect class="b" width="22.073" height="22.104" transform="translate(177.861 44.726)"/><g transform="translate(0 0.001)"><g class="c"><path class="d" d="M288.6,376.521c-.353-.784-1.417-.9-2.648-.879-.641,0-1.132,0-1.132,0v3.023c1.328-.086,2.7.349,3.589-.573a1.628,1.628,0,0,0,.191-1.572m.223,4.7c-.747-1.2-2.772-.787-4-.842v3.241a21.093,21.093,0,0,0,3.176-.111,1.929,1.929,0,0,0,.954-.922,1.845,1.845,0,0,0-.127-1.365m.921-7.561a3.273,3.273,0,0,1,2.176,2.366,2.681,2.681,0,0,1-1.191,2.779,6.846,6.846,0,0,1-1.208.541v.079a3.4,3.4,0,0,1,2.62,1.746,3.283,3.283,0,0,1-.3,3.019c-1.1,1.4-2.8,1.716-4.574,1.636l-6.068.008.008-12.508c2.919.059,6.412-.219,8.537.333" transform="translate(-124.102 -346.257)"/><path class="e" d="M296.3,373.418l.024,5.778s2.879-3.868,4.261-5.758h4.05l-4.523,5.7L304.876,386h-4.352s-4.138-6.579-4.2-6.563c-.016,2.335-.008,6.523-.008,6.523l-3.712,0-.018-12.544Z" transform="translate(-122.576 -346.242)"/><path class="e" d="M308.125,373.4l0,5.853,4.4-5.834h4.082l-4.638,5.751c1.478,2.318,4.685,6.83,4.685,6.83h-4.336s-4.15-6.493-4.2-6.493l0,6.445-3.622,0V373.4Z" transform="translate(-120.98 -346.244)"/><path class="f" d="M271.99,373.434H261v2.286a1.3,1.3,0,0,1,1.024-.713h3.665v9.73a1.3,1.3,0,0,1-.713,1.02h3.077a1.3,1.3,0,0,1-.713-1.023v-9.728h3.628a1.3,1.3,0,0,1,1.024.713Z" transform="translate(-126.806 -346.24)"/><path class="f" d="M257.309,380.367c4.536-.412,4.26-3.6,4.26-3.6,0-2.591-2.476-3.327-4.533-3.327h-6.522a1.3,1.3,0,0,1,.714,1.024v10.275a1.3,1.3,0,0,1-.712,1.023h3.194a1.3,1.3,0,0,1-.713-1.024h0v-9.747h3.03c3.316-.066,3.87.764,3.885,1.716s-.5,1.754-1.922,2.222a14.706,14.706,0,0,1-4.019.349v1.091h.041c1.574.068,5.043,4.471,6.883,5.282a4.009,4.009,0,0,0,2.524-.107c-3.092-1.424-5.9-4.911-6.108-5.174" transform="translate(-128.21 -346.24)"/><path class="f" d="M218.21,383.5a1.3,1.3,0,0,1-1.024.713h-6.519v-4.065h5.368a.969.969,0,0,1,.858.564V378.1a.965.965,0,0,1-.812.559h-5.415v-3.675h6.52a1.3,1.3,0,0,1,1.023.714v-.714h0v-1.556H208.152a1.3,1.3,0,0,1,.713,1.025v10.279a1.3,1.3,0,0,1-.713,1.024H218.21v-1.542h0Z" transform="translate(-133.882 -346.24)"/><path class="f" d="M234.473,378.707l5.942-5.279h-2.422l-6.052,5.133v-4.109a1.3,1.3,0,0,1,.713-1.024h-3.192a1.3,1.3,0,0,1,.713,1.025h0v10.286a1.3,1.3,0,0,1-.713,1.024h3.192a1.3,1.3,0,0,1-.713-1.016v-3.882l1.174-1.019,5.9,5.918h2.4Z" transform="translate(-131.029 -346.241)"/><path class="f" d="M228.9,384.1a16,16,0,0,1-2.975.372c-3.422.094-5.965-1.6-5.965-4.813V379.6c0-3.21,2.543-4.906,5.965-4.812a12.714,12.714,0,0,1,2.991.37,1.249,1.249,0,0,1,.721.642v-1.822a14.733,14.733,0,0,0-4.7-.738c-4.364,0-7.013,3.12-6.983,6.361v.056c-.031,3.242,2.618,6.361,6.983,6.361a13.362,13.362,0,0,0,4.7-.737v-1.83a1.16,1.16,0,0,1-.739.648" transform="translate(-132.57 -346.266)"/><path class="f" d="M249.532,384.217h-6.52v-4.065h5.368a.967.967,0,0,1,.858.565V378.1a.962.962,0,0,1-.812.558h-5.416v-3.674h6.521a1.3,1.3,0,0,1,1.023.714v-2.27H240.5a1.3,1.3,0,0,1,.712,1.025v10.279a1.3,1.3,0,0,1-.712,1.024h10.057V383.5a1.3,1.3,0,0,1-1.024.713" transform="translate(-129.551 -346.24)"/><path class="f" d="M206.608,379.289a2.41,2.41,0,0,0,1.649-2.507c0-3.413-3.665-3.358-3.665-3.358h-7.415a1.315,1.315,0,0,1,.713,1.037v10.264a1.3,1.3,0,0,1-.713,1.025l7.745,0s3.609,0,3.647-3.522a3.432,3.432,0,0,0-1.961-2.937m-2.3,4.994h-4.732v-9.3h4.531c.481,0,2.4-.132,2.4,1.518a2.037,2.037,0,0,1-2.182,2.067h-3.858v1.465h3.96s2.3-.108,2.294,2.047c-.006,2.216-2.366,2.2-2.414,2.2" transform="translate(-135.352 -346.242)"/><rect class="f" width="4.376" height="1.233" transform="translate(54.314 32.468)"/><path class="f" d="M190.014,373.426H179.09V375.7a1.3,1.3,0,0,1,1.024-.713h7.606l-8.629,9.355v1.42h10.924v-2.22a1.3,1.3,0,0,1-1.024.713H181.4l8.614-9.413Z" transform="translate(-137.774 -346.241)"/><path class="f" d="M172.971,373.227c-4.73,0-6.951,2.914-6.944,6.619.008,3.549,2.843,6.171,6.944,6.171,4.127,0,6.969-2.541,6.961-6.3-.008-3.784-2.234-6.487-6.961-6.487m0,11.265c-3.3.074-5.062-2.022-5.073-4.792a4.736,4.736,0,0,1,5.073-4.963c3.135.066,5.081,1.885,5.112,4.976.032,3.123-1.658,4.7-5.112,4.779" transform="translate(-139.523 -346.268)"/><path class="f" d="M161.857,380.367c4.536-.412,4.26-3.6,4.26-3.6,0-2.591-2.476-3.327-4.533-3.327h-6.521a1.3,1.3,0,0,1,.713,1.024v10.274a1.3,1.3,0,0,1-.713,1.024h3.194a1.3,1.3,0,0,1-.713-1.024v-9.747h3.03c3.316-.066,3.87.764,3.885,1.716s-.5,1.754-1.922,2.222a14.706,14.706,0,0,1-4.019.349v1.091h.041c1.574.068,5.042,4.471,6.883,5.282a4.009,4.009,0,0,0,2.524-.107c-3.093-1.424-5.9-4.911-6.108-5.174" transform="translate(-140.991 -346.24)"/><path class="f" d="M142.679,379.6c.032,3.318,2.064,6.417,6.429,6.417,4.27,0,6.064-1.472,6.064-1.472v-5.591h-5.8v1.5h4.258v3.209s-1.293.963-4.578.87c-2.78-.079-4.427-1.841-4.427-4.932,0-3.209,2.58-4.812,6.024-4.812a20.329,20.329,0,0,1,3.732.4,1.2,1.2,0,0,1,.791.662v-1.873a24.416,24.416,0,0,0-5.512-.737c-4.363,0-7.012,3.119-6.981,6.36" transform="translate(-142.649 -346.266)"/></g></g></g></g></svg>