<?xml version="1.0" encoding="UTF-8" standalone="no"?>
<svg
   xmlns:dc="http://purl.org/dc/elements/1.1/"
   xmlns:cc="http://creativecommons.org/ns#"
   xmlns:rdf="http://www.w3.org/1999/02/22-rdf-syntax-ns#"
   xmlns:svg="http://www.w3.org/2000/svg"
   xmlns="http://www.w3.org/2000/svg"
   viewBox="0 0 755.90668 226.77333"
   height="226.77333"
   width="755.90668"
   xml:space="preserve"
   id="svg2"
   version="1.1"><metadata
     id="metadata8"><rdf:RDF><cc:Work
         rdf:about=""><dc:format>image/svg+xml</dc:format><dc:type
           rdf:resource="http://purl.org/dc/dcmitype/StillImage" /></cc:Work></rdf:RDF></metadata><defs
     id="defs6" /><g
     transform="matrix(1.3333333,0,0,-1.3333333,0,226.77333)"
     id="g10"><g
       transform="scale(0.1)"
       id="g12"><path
         id="path14"
         style="fill:#3f56a4;fill-opacity:1;fill-rule:nonzero;stroke:none"
         d="m 5241.88,1230.22 c -22.33,5.15 -120.05,26.53 -201.71,26.53 -37.43,0 -71.5,-4.5 -93.36,-17.11 -4.17,-2.41 -8.21,-4.98 -12.05,-7.7 -63.79,47.52 -83.27,136.33 -42.53,206.9 29.45,51.01 82.89,79.52 137.85,79.52 20.99,0 42.23,-4.16 62.41,-12.83 -0.73,-6.19 -1.1,-12.5 -1.1,-18.89 0,-85.54 150.87,-245.77 158.68,-254.03 0.1,-0.3 0.16,-0.46 0.16,-0.46 0,0 -2.96,-0.72 -8.35,-1.93" /><path
         id="path16"
         style="fill:#f4c81f;fill-opacity:1;fill-rule:nonzero;stroke:none"
         d="m 5250.31,1232.38 c -0.06,0.05 -0.14,0.14 -0.24,0.23 -3.32,11.18 -66.61,221.68 -140.62,264.42 -5.55,3.2 -11.23,6.03 -16.96,8.5 9.34,78.92 76.49,140.12 157.9,140.12 81.35,0 148.42,-61.07 157.87,-139.87 -5.84,-2.49 -11.57,-5.36 -17.2,-8.61 -75.17,-43.39 -139.27,-259.71 -140.75,-264.79" /><path
         id="path18"
         style="fill:#deb625;fill-opacity:1;fill-rule:nonzero;stroke:none"
         d="m 5250.07,1232.61 c -7.81,8.26 -158.68,168.49 -158.68,254.03 0,6.39 0.37,12.7 1.1,18.89 5.73,-2.47 11.41,-5.3 16.96,-8.5 74.01,-42.74 137.3,-253.24 140.62,-264.42" /><path
         id="path20"
         style="fill:#33bdf2;fill-opacity:1;fill-rule:nonzero;stroke:none"
         d="m 5562.12,1229.46 c -4.96,3.7 -10.18,7.14 -15.67,10.31 -21.85,12.62 -55.92,17.12 -93.36,17.12 -77.83,0 -170.27,-19.43 -198.1,-25.71 -3.07,0.7 -4.71,1.11 -4.71,1.11 0,0 0,0.03 0.03,0.09 0.05,-0.07 0.08,-0.1 0.08,-0.1 0,0 159,166.54 159,254.36 0,6.47 -0.38,12.87 -1.13,19.14 20.1,8.59 41.25,12.72 62.14,12.72 54.95,0 108.4,-28.52 137.87,-79.53 41.5,-71.88 20.48,-162.69 -46.15,-209.51" /><path
         id="path22"
         style="fill:#34b6cf;fill-opacity:1;fill-rule:nonzero;stroke:none"
         d="m 5250.39,1232.28 c 0,0 -0.03,0.03 -0.08,0.1 1.48,5.08 65.58,221.4 140.75,264.79 5.63,3.25 11.36,6.12 17.2,8.61 0.75,-6.27 1.13,-12.67 1.13,-19.14 0,-87.82 -159,-254.36 -159,-254.36" /><path
         id="path24"
         style="fill:#66cef5;fill-opacity:1;fill-rule:nonzero;stroke:none"
         d="m 5466.79,943.035 c -20.99,0 -42.22,4.164 -62.41,12.836 0.73,6.195 1.11,12.496 1.11,18.887 0,85.552 -150.9,245.812 -158.68,254.032 -0.11,0.3 -0.14,0.46 -0.14,0.46 0,0 2.94,0.72 8.32,1.93 22.34,-5.15 120.06,-26.54 201.71,-26.54 37.44,0 71.51,4.5 93.36,17.12 4.17,2.41 8.21,4.98 12.06,7.7 63.78,-47.52 83.27,-136.33 42.52,-206.89 -29.44,-51.015 -82.89,-79.539 -137.85,-79.535" /><path
         id="path26"
         style="fill:#14b4f0;fill-opacity:1;fill-rule:nonzero;stroke:none"
         d="m 5456.7,1204.64 c -81.65,0 -179.37,21.39 -201.71,26.54 27.83,6.28 120.27,25.71 198.1,25.71 37.44,0 71.51,-4.5 93.36,-17.12 5.49,-3.17 10.71,-6.61 15.67,-10.31 -3.85,-2.72 -7.89,-5.29 -12.06,-7.7 -21.85,-12.62 -55.92,-17.12 -93.36,-17.12" /><path
         id="path28"
         style="fill:#99def9;fill-opacity:1;fill-rule:nonzero;stroke:none"
         d="m 5246.48,815.75 c -81.35,0 -148.42,61.07 -157.86,139.871 5.83,2.492 11.57,5.356 17.19,8.609 75.17,43.38 139.25,259.65 140.76,264.79 0.05,-0.06 0.13,-0.13 0.24,-0.23 3.31,-11.15 66.61,-221.68 140.62,-264.427 5.54,-3.199 11.22,-6.027 16.95,-8.492 -9.34,-78.922 -76.46,-140.121 -157.9,-140.121" /><path
         id="path30"
         style="fill:#3dc1f3;fill-opacity:1;fill-rule:nonzero;stroke:none"
         d="m 5404.38,955.871 c -5.73,2.465 -11.41,5.293 -16.95,8.492 -74.01,42.747 -137.31,253.277 -140.62,264.427 7.78,-8.22 158.68,-168.48 158.68,-254.032 0,-6.391 -0.38,-12.692 -1.11,-18.887" /><path
         id="path32"
         style="fill:#dbf4fd;fill-opacity:1;fill-rule:nonzero;stroke:none"
         d="m 5026.47,942.898 c -54.95,0 -108.4,28.52 -137.84,79.532 -41.5,71.88 -20.51,162.69 46.13,209.51 4.95,-3.7 10.17,-7.14 15.66,-10.31 21.85,-12.62 55.92,-17.11 93.36,-17.12 77.83,0 170.28,19.44 198.1,25.71 3.07,-0.7 4.71,-1.11 4.71,-1.11 0,0 0,-0.02 -0.02,-0.09 -0.06,0.07 -0.09,0.1 -0.09,0.1 0,0 -159,-166.54 -159,-254.362 0,-6.477 0.38,-12.863 1.14,-19.137 -20.11,-8.586 -41.23,-12.723 -62.15,-12.723" /><path
         id="path34"
         style="fill:#9bb4df;fill-opacity:1;fill-rule:nonzero;stroke:none"
         d="m 5043.78,1204.51 c -37.44,0.01 -71.51,4.5 -93.36,17.12 -5.49,3.17 -10.71,6.61 -15.66,10.31 3.84,2.72 7.88,5.29 12.05,7.7 21.86,12.61 55.93,17.11 93.36,17.11 81.66,0 179.38,-21.38 201.71,-26.53 -27.82,-6.27 -120.27,-25.71 -198.1,-25.71" /><path
         id="path36"
         style="fill:#bdeafb;fill-opacity:1;fill-rule:nonzero;stroke:none"
         d="m 5088.62,955.621 c -0.76,6.274 -1.14,12.66 -1.14,19.137 0,87.822 159,254.362 159,254.362 0,0 0.03,-0.03 0.09,-0.1 -1.51,-5.14 -65.59,-221.41 -140.76,-264.79 -5.62,-3.253 -11.36,-6.117 -17.19,-8.609" /><path
         id="path38"
         style="fill:#304d9e;fill-opacity:1;fill-rule:nonzero;stroke:none"
         d="m 416.555,709.234 c -6.035,16.582 -14.246,31.063 -24.653,43.43 -10.406,12.367 -22.55,22.547 -36.422,30.539 -13.875,7.992 -28.804,13.492 -44.789,16.516 12.668,5.429 23.903,12.359 33.707,20.808 9.797,8.442 17.942,18.02 24.43,28.731 6.481,10.699 11.379,22.394 14.703,35.066 3.317,12.664 4.977,25.934 4.977,39.809 0,23.219 -3.778,44.031 -11.313,62.433 -7.539,18.394 -18.773,33.934 -33.703,46.594 -14.929,12.67 -33.554,22.32 -55.871,28.96 -22.324,6.63 -50.976,9.95 -85.961,9.95 H 68.6523 c -6.9414,0 -13.5039,-2.34 -19.6835,-7.01 -6.1836,-4.68 -9.2735,-12.89 -9.2735,-24.66 V 518.32 c 0,-11.769 3.0899,-19.992 9.2735,-24.66 6.1796,-4.68 12.7421,-7.012 19.6835,-7.012 H 221.566 c 22.016,0 41.543,1.582 58.59,4.75 17.035,3.172 33.024,7.911 47.953,14.25 14.93,6.332 28.348,14.172 40.266,23.524 11.91,9.348 22.094,20.207 30.535,32.578 8.445,12.359 15.004,26.309 19.684,41.852 4.672,15.519 7.011,32.488 7.011,50.886 0,19.91 -3.015,38.153 -9.05,54.746 z M 302.789,879.566 c -3.762,-11.918 -9.703,-22.324 -17.828,-31.214 -8.129,-8.899 -18.356,-15.989 -30.691,-21.262 -12.344,-5.281 -28.59,-7.918 -48.75,-7.918 h -88.461 v 189.558 h 80.339 c 22.266,0 40.165,-2.11 53.711,-6.33 13.536,-4.228 24.524,-10.337 32.95,-18.322 8.425,-7.992 14.589,-17.723 18.504,-29.18 3.91,-11.468 5.867,-24.285 5.867,-38.457 0,-12.668 -1.879,-24.961 -5.641,-36.875 z M 335.137,606.988 C 329.418,594.621 321.516,584.289 311.438,576 301.348,567.699 289.684,561.441 276.445,557.219 263.199,553 247.691,550.891 229.938,550.891 H 117.059 v 206.3 h 93.011 c 24.375,0 44.621,-2.336 60.727,-7.015 16.101,-4.68 29.496,-11.531 40.187,-20.582 10.688,-9.047 18.809,-20.211 24.379,-33.485 5.571,-13.269 8.356,-28.648 8.356,-46.14 0,-16.289 -2.864,-30.617 -8.582,-42.981 z m 588.804,-100.66 c -1.058,2.863 -4.148,8.211 -9.273,16.063 l -209.02,277.777 194.086,232.092 c 5.434,6.94 9.121,12.36 11.086,16.29 1.961,3.91 2.942,7.84 2.942,11.76 l -1.582,5.88 c -1.063,1.81 -3.02,3.32 -5.883,4.53 -2.867,1.19 -6.715,2.18 -11.535,2.93 -4.828,0.76 -11.164,1.14 -19.004,1.14 -7.848,0 -14.25,-0.31 -19.227,-0.91 -4.976,-0.61 -9.203,-1.43 -12.668,-2.49 -3.468,-1.06 -6.41,-2.48 -8.824,-4.29 -2.414,-1.82 -4.523,-4.08 -6.332,-6.79 L 621.504,800.168 v 260.142 l -1.813,6.33 c -1.207,1.81 -3.32,3.24 -6.332,4.3 -3.019,1.05 -7.015,1.96 -11.992,2.71 -4.976,0.76 -11.238,1.14 -18.773,1.14 -7.239,0 -13.422,-0.38 -18.547,-1.14 -5.133,-0.75 -9.203,-1.66 -12.219,-2.71 -3.019,-1.06 -5.129,-2.49 -6.332,-4.3 l -1.808,-6.33 v -561.9 l 1.808,-6.109 c 1.203,-1.973 3.313,-3.473 6.332,-4.52 3.016,-1.062 7.086,-1.961 12.219,-2.722 5.125,-0.739 11.308,-1.129 18.547,-1.129 7.535,0 13.797,0.39 18.773,1.129 4.977,0.761 8.973,1.66 11.992,2.722 3.012,1.047 5.125,2.547 6.332,4.52 l 1.813,6.109 V 791.121 L 836.852,498.41 c 2.109,-3.019 4.82,-5.73 8.144,-8.14 3.317,-2.418 8.289,-4.079 14.93,-4.981 6.629,-0.91 15.226,-1.359 25.785,-1.359 8.144,0 14.777,0.39 19.906,1.129 5.125,0.761 9.199,1.73 12.219,2.941 3.012,1.211 5.047,2.789 6.105,4.762 l 1.582,6.547 c 0,1.812 -0.531,4.14 -1.582,7.019 z m 481.369,0 c -1.06,2.863 -4.15,8.211 -9.27,16.063 l -209.02,277.777 194.09,232.092 c 5.43,6.94 9.11,12.36 11.08,16.29 1.96,3.91 2.94,7.84 2.94,11.76 l -1.58,5.88 c -1.06,1.81 -3.02,3.32 -5.88,4.53 -2.87,1.19 -6.72,2.18 -11.54,2.93 -4.83,0.76 -11.16,1.14 -19,1.14 -7.85,0 -14.25,-0.31 -19.23,-0.91 -4.98,-0.61 -9.2,-1.43 -12.67,-2.49 -3.47,-1.06 -6.41,-2.48 -8.82,-4.29 -2.42,-1.82 -4.52,-4.08 -6.33,-6.79 L 1102.87,800.168 v 260.142 l -1.81,6.33 c -1.21,1.81 -3.32,3.24 -6.33,4.3 -3.02,1.05 -7.01,1.96 -11.99,2.71 -4.98,0.76 -11.24,1.14 -18.78,1.14 -7.23,0 -13.42,-0.38 -18.55,-1.14 -5.13,-0.75 -9.2,-1.66 -12.21,-2.71 -3.02,-1.06 -5.13,-2.49 -6.33,-4.3 l -1.82,-6.33 v -561.9 l 1.82,-6.109 c 1.2,-1.973 3.31,-3.473 6.33,-4.52 3.01,-1.062 7.08,-1.961 12.21,-2.722 5.13,-0.739 11.32,-1.129 18.55,-1.129 7.54,0 13.8,0.39 18.78,1.129 4.98,0.761 8.97,1.66 11.99,2.722 3.01,1.047 5.12,2.547 6.33,4.52 l 1.81,6.109 V 791.121 L 1318.22,498.41 c 2.11,-3.019 4.82,-5.73 8.14,-8.14 3.32,-2.418 8.3,-4.079 14.93,-4.981 6.64,-0.91 15.23,-1.359 25.79,-1.359 8.15,0 14.77,0.39 19.91,1.129 5.12,0.761 9.2,1.73 12.21,2.941 3.01,1.211 5.05,2.789 6.11,4.762 l 1.58,6.547 c 0,1.812 -0.53,4.14 -1.58,7.019 z m 669.8,404.235 c -12.97,35.285 -31.9,64.917 -56.78,88.894 -24.88,23.983 -55.5,42.073 -91.84,54.293 -36.35,12.21 -80.6,18.32 -132.78,18.32 h -150.2 c -9.96,0 -18.32,-2.94 -25.11,-8.82 -6.79,-5.88 -10.18,-15.46 -10.18,-28.73 V 524.199 c 0,-13.277 3.39,-22.847 10.18,-28.73 6.79,-5.879 15.15,-8.821 25.11,-8.821 h 139.79 c 51.87,0 96.6,5.653 134.14,16.961 37.56,11.313 69.45,29.032 95.69,53.161 26.24,24.128 46.37,55.269 60.4,93.429 14.02,38.141 21.03,84.071 21.03,137.758 0,46.441 -6.48,87.313 -19.45,122.606 z M 1960.42,695.211 c -7.39,-25.34 -18.54,-46.531 -33.48,-63.57 -14.92,-17.039 -33.55,-29.782 -55.87,-38.219 -22.32,-8.453 -49.76,-12.672 -82.34,-12.672 h -61.98 v 398.121 h 60.17 c 36.49,0 65.98,-4.902 88.45,-14.699 22.47,-9.809 40.87,-23.457 55.19,-40.945 14.33,-17.493 24.73,-38.157 31.22,-61.981 6.48,-23.824 9.73,-49.617 9.73,-77.363 0,-33.785 -3.7,-63.336 -11.09,-88.672 z m 339.09,209.465 c 0,3.015 -0.9,5.656 -2.72,7.918 -1.8,2.265 -4.9,4.219 -9.27,5.879 -4.38,1.656 -10.18,2.941 -17.42,3.847 -7.24,0.907 -16.44,1.36 -27.59,1.36 -11.17,0 -20.36,-0.453 -27.6,-1.36 -7.24,-0.906 -13.05,-2.191 -17.42,-3.847 -4.38,-1.66 -7.47,-3.614 -9.27,-5.879 -1.81,-2.262 -2.72,-4.903 -2.72,-7.918 V 502.031 c 0,-3.019 0.91,-5.66 2.72,-7.922 1.8,-2.257 4.89,-4.148 9.27,-5.648 4.37,-1.52 10.18,-2.641 17.42,-3.402 7.24,-0.739 16.43,-1.129 27.6,-1.129 11.15,0 20.35,0.39 27.59,1.129 7.24,0.761 13.04,1.882 17.42,3.402 4.37,1.5 7.47,3.391 9.27,5.648 1.82,2.262 2.72,4.903 2.72,7.922 v 402.645 z m -4.98,183.454 c -9.04,8.6 -26.24,12.9 -51.57,12.9 -25.64,0 -43.06,-4.46 -52.26,-13.35 -9.2,-8.9 -13.8,-24.81 -13.8,-47.73 0,-22.02 4.45,-37.25 13.35,-45.692 8.89,-8.449 26.16,-12.672 51.8,-12.672 25.34,0 42.68,4.371 52.03,13.121 9.35,8.743 14.03,24.583 14.03,47.503 0,22.01 -4.53,37.33 -13.58,45.92 z M 2756.9,772.117 c 0,27.75 -3.31,51.731 -9.96,71.938 -6.62,20.203 -17.19,36.715 -31.67,49.543 -14.48,12.812 -32.94,22.312 -55.41,28.496 -22.48,6.179 -49.54,9.273 -81.21,9.273 -17.8,0 -35.06,-1.433 -51.8,-4.293 -16.74,-2.867 -32.2,-6.562 -46.37,-11.086 -14.18,-4.523 -26.55,-9.429 -37.1,-14.707 -10.56,-5.277 -17.95,-10.105 -22.17,-14.472 -4.23,-4.379 -7.09,-9.278 -8.6,-14.704 -1.51,-5.433 -2.26,-12.824 -2.26,-22.167 0,-6.942 0.45,-13.278 1.36,-19.004 0.9,-5.731 2.18,-10.563 3.84,-14.477 1.66,-3.926 3.77,-6.945 6.34,-9.047 2.56,-2.117 5.5,-3.168 8.82,-3.168 4.82,0 11.08,2.11 18.78,6.332 7.69,4.219 17.26,8.899 28.72,14.028 11.46,5.125 24.66,9.796 39.59,14.023 14.93,4.223 31.89,6.332 50.9,6.332 14.48,0 26.61,-1.508 36.42,-4.523 9.79,-3.012 17.64,-7.688 23.52,-14.024 5.88,-6.332 10.1,-14.254 12.67,-23.75 2.56,-9.504 3.85,-20.586 3.85,-33.254 v -24.429 h -39.37 c -35.89,0 -67.41,-2.715 -94.55,-8.145 -27.14,-5.43 -49.84,-13.801 -68.09,-25.113 -18.25,-11.309 -31.97,-25.641 -41.17,-42.969 -9.2,-17.352 -13.8,-37.781 -13.8,-61.309 0,-21.722 3.62,-40.722 10.86,-57 7.24,-16.293 17.42,-29.941 30.54,-40.941 13.12,-11.02 28.65,-19.309 46.6,-24.891 17.94,-5.578 37.62,-8.371 59.04,-8.371 25.93,0 49.54,4.981 70.8,14.934 21.27,9.949 40.19,23.816 56.77,41.629 v -32.129 c 0,-4.223 1.29,-7.543 3.85,-9.953 2.55,-2.418 6.94,-4.149 13.13,-5.199 6.16,-1.059 16.07,-1.59 29.63,-1.59 12.68,0 22.23,0.531 28.72,1.59 6.48,1.05 11.25,2.781 14.26,5.199 3.01,2.41 4.52,5.73 4.52,9.953 V 772.117 Z M 2645.16,604.73 c -13.88,-15.691 -27.53,-27.601 -40.95,-35.75 -13.42,-8.128 -28.13,-12.21 -44.11,-12.21 -19,0 -33.86,4.82 -44.56,14.48 -10.71,9.648 -16.06,22.922 -16.06,39.809 0,9.953 1.88,18.781 5.65,26.472 3.77,7.688 9.73,14.25 17.87,19.68 8.15,5.43 18.7,9.5 31.67,12.211 12.97,2.719 28.65,4.078 47.05,4.078 h 43.44 v -68.77 z m 597.86,-91.16 c -1.66,4.371 -4.3,9.571 -7.91,15.602 l -136.63,211.281 118.06,133.91 c 4.55,5.731 7.94,11.157 10.2,16.289 2.26,5.125 3.39,9.957 3.39,14.477 0,3.316 -0.91,6.109 -2.71,8.371 -1.81,2.266 -5.06,4.141 -9.75,5.66 -4.65,1.5 -10.84,2.629 -18.54,3.391 -7.7,0.75 -17.12,1.129 -28.26,1.129 -11.46,0 -20.91,-0.379 -28.28,-1.129 -7.4,-0.762 -13.57,-1.891 -18.55,-3.391 -4.97,-1.519 -8.99,-3.625 -12,-6.34 -3.01,-2.711 -5.73,-5.879 -8.13,-9.5 L 2984.48,742.715 v 354.245 c 0,3 -0.92,5.72 -2.72,8.14 -1.81,2.41 -4.9,4.44 -9.29,6.1 -4.36,1.66 -10.17,2.95 -17.41,3.85 -7.24,0.91 -16.44,1.36 -27.59,1.36 -11.16,0 -20.37,-0.45 -27.61,-1.36 -7.24,-0.9 -13.05,-2.19 -17.41,-3.85 -4.39,-1.66 -7.46,-3.69 -9.29,-6.1 -1.8,-2.42 -2.71,-5.14 -2.71,-8.14 V 502.031 c 0,-3.019 0.91,-5.66 2.71,-7.922 1.83,-2.257 4.9,-4.148 9.29,-5.648 4.36,-1.52 10.17,-2.641 17.41,-3.402 7.24,-0.739 16.45,-1.129 27.61,-1.129 11.15,0 20.35,0.39 27.59,1.129 7.24,0.761 13.05,1.882 17.41,3.402 4.39,1.5 7.48,3.391 9.29,5.648 1.8,2.262 2.72,4.903 2.72,7.922 V 715.566 L 3118.82,502.93 c 2.13,-3.918 4.52,-7.09 7.24,-9.489 2.72,-2.429 6.57,-4.3 11.55,-5.66 4.98,-1.359 11.3,-2.34 19,-2.941 7.7,-0.602 17.71,-0.91 30.09,-0.91 12.05,0 21.85,0.39 29.41,1.129 7.54,0.761 13.49,1.812 17.87,3.171 4.36,1.36 7.38,3.168 9.04,5.43 1.65,2.262 2.48,4.899 2.48,7.918 0,3.621 -0.83,7.613 -2.48,11.992 z m 441.32,289.77 c -8.43,27.742 -21.34,51.125 -38.67,70.121 -17.34,19 -39.3,33.402 -65.83,43.207 -26.54,9.797 -57.89,14.699 -94.09,14.699 -37.11,0 -69.46,-5.582 -97.05,-16.734 -27.61,-11.164 -50.59,-26.918 -69,-47.278 -18.38,-20.359 -32.19,-44.792 -41.39,-73.289 -9.21,-28.503 -13.81,-59.949 -13.81,-94.336 0,-35.589 4.23,-67.261 12.68,-95 8.45,-27.761 21.42,-51.128 38.91,-70.128 17.5,-19 39.51,-33.481 66.05,-43.43 26.53,-9.953 57.75,-14.934 93.65,-14.934 37.09,0 69.52,5.59 97.26,16.742 27.75,11.161 50.82,26.989 69.22,47.508 18.41,20.5 32.14,44.934 41.18,73.282 9.04,28.351 13.57,59.73 13.57,94.109 0,35.891 -4.23,67.707 -12.68,95.461 z M 3573.97,646.121 c -3.93,-16.742 -9.96,-30.992 -18.11,-42.75 -8.13,-11.762 -18.54,-20.742 -31.22,-26.922 -12.65,-6.179 -27.59,-9.269 -44.78,-9.269 -18.71,0 -34.37,3.39 -47.05,10.172 -12.67,6.789 -22.71,16.359 -30.09,28.738 -7.4,12.359 -12.75,26.91 -16.06,43.648 -3.31,16.742 -4.98,35.063 -4.98,54.977 0,21.406 2.04,40.484 6.11,57.226 4.06,16.739 10.17,31.067 18.33,42.981 8.15,11.91 18.54,20.957 31.21,27.141 12.68,6.183 27.46,9.277 44.33,9.277 19,0 34.77,-3.473 47.28,-10.406 12.52,-6.942 22.56,-16.59 30.09,-28.957 7.54,-12.368 12.9,-26.918 16.07,-43.657 3.15,-16.742 4.74,-35.062 4.74,-54.965 0,-21.425 -1.97,-40.496 -5.87,-57.234 z m 598.54,105.192 c 0,29.25 -2.56,54.285 -7.7,75.097 -5.11,20.813 -13.48,38.981 -25.11,54.516 -11.6,15.527 -26.83,27.824 -45.7,36.871 -18.84,9.051 -41.98,13.57 -69.43,13.57 -25.03,0 -49.09,-6.035 -72.15,-18.094 -23.1,-12.066 -45.78,-30.164 -68.09,-54.289 v 46.598 c 0,3.012 -0.76,5.656 -2.26,7.918 -1.54,2.266 -4.01,4.141 -7.49,5.66 -3.47,1.5 -8.37,2.629 -14.69,3.391 -6.32,0.75 -14.32,1.129 -23.98,1.129 -9.36,0 -17.12,-0.379 -23.31,-1.129 -6.19,-0.762 -11.22,-1.891 -15.15,-3.391 -3.93,-1.519 -6.64,-3.394 -8.15,-5.66 -1.51,-2.262 -2.26,-4.906 -2.26,-7.918 V 502.031 c 0,-3.019 0.91,-5.66 2.72,-7.922 1.83,-2.257 4.89,-4.148 9.28,-5.648 4.36,-1.52 10.17,-2.641 17.41,-3.402 7.24,-0.739 16.45,-1.129 27.62,-1.129 11.14,0 20.34,0.39 27.58,1.129 7.24,0.761 13.05,1.882 17.41,3.402 4.39,1.5 7.49,3.391 9.29,5.648 1.8,2.262 2.72,4.903 2.72,7.922 v 268.282 c 15.98,20.203 31.35,35.582 46.12,46.144 14.78,10.555 29.42,15.836 43.9,15.836 11.46,0 21.48,-2.195 30.09,-6.563 8.58,-4.375 15.61,-10.558 21.04,-18.546 5.41,-7.993 9.56,-17.575 12.44,-28.731 2.85,-11.16 4.3,-26.543 4.3,-46.144 V 502.031 c 0,-3.019 0.89,-5.66 2.69,-7.922 1.83,-2.257 4.85,-4.148 9.07,-5.648 4.2,-1.52 10.02,-2.641 17.42,-3.402 7.37,-0.739 16.66,-1.129 27.82,-1.129 10.85,0 19.97,0.39 27.37,1.129 7.38,0.761 13.19,1.882 17.42,3.402 4.22,1.5 7.24,3.391 9.04,5.648 1.8,2.262 2.72,4.903 2.72,7.922 v 249.282 z m 225.74,153.363 c 0,3.015 -0.89,5.656 -2.69,7.918 -1.83,2.265 -4.93,4.219 -9.28,5.879 -4.39,1.656 -10.18,2.941 -17.42,3.847 -7.24,0.907 -16.44,1.36 -27.61,1.36 -11.14,0 -20.35,-0.453 -27.58,-1.36 -7.24,-0.906 -13.06,-2.191 -17.42,-3.847 -4.38,-1.66 -7.48,-3.614 -9.28,-5.879 -1.81,-2.262 -2.72,-4.903 -2.72,-7.918 V 502.031 c 0,-3.019 0.91,-5.66 2.72,-7.922 1.8,-2.257 4.9,-4.148 9.28,-5.648 4.36,-1.52 10.18,-2.641 17.42,-3.402 7.23,-0.739 16.44,-1.129 27.58,-1.129 11.17,0 20.37,0.39 27.61,1.129 7.24,0.761 13.03,1.882 17.42,3.402 4.35,1.5 7.45,3.391 9.28,5.648 1.8,2.262 2.69,4.903 2.69,7.922 v 402.645 z m -4.98,183.454 c -9.04,8.6 -26.21,12.9 -51.56,12.9 -25.65,0 -43.06,-4.46 -52.27,-13.35 -9.17,-8.9 -13.78,-24.81 -13.78,-47.73 0,-22.02 4.44,-37.25 13.35,-45.692 8.88,-8.449 26.16,-12.672 51.78,-12.672 25.35,0 42.69,4.371 52.05,13.121 9.34,8.743 14.02,24.583 14.02,47.503 0,22.01 -4.52,37.33 -13.59,45.92 z m 491.35,-354.462 c 0,28.344 -3.64,54.582 -10.88,78.719 -7.23,24.125 -18.54,45.011 -33.93,62.66 -15.37,17.641 -35.04,31.441 -59.02,41.394 -23.98,9.954 -52.89,14.926 -86.66,14.926 -31.97,0 -60.69,-5.273 -86.17,-15.832 -25.49,-10.558 -47.13,-25.863 -64.92,-45.918 -17.81,-20.062 -31.38,-44.496 -40.72,-73.293 -9.36,-28.804 -14.02,-61.152 -14.02,-97.043 0,-37.711 4.44,-70.582 13.35,-98.633 8.88,-28.046 22.39,-51.269 40.48,-69.66 18.11,-18.41 40.63,-32.129 67.63,-41.179 26.99,-9.047 58.43,-13.571 94.33,-13.571 19.91,0 38.62,1.293 56.11,3.852 17.49,2.558 33.02,5.582 46.59,9.051 13.59,3.461 24.73,7.007 33.47,10.621 8.75,3.629 14.11,6.488 16.07,8.597 l 4.77,6.563 c 1.18,2.269 2.1,5.047 2.69,8.367 0.62,3.32 1.07,7.313 1.37,11.992 0.3,4.668 0.46,10.328 0.46,16.969 0,7.531 -0.25,13.801 -0.7,18.77 -0.43,4.98 -1.27,8.82 -2.48,11.539 -1.21,2.711 -2.72,4.601 -4.52,5.652 -1.8,1.059 -4.06,1.59 -6.78,1.59 -4.52,0 -10.42,-1.442 -17.66,-4.301 -7.24,-2.871 -16.36,-6.039 -27.37,-9.5 -11,-3.469 -24.06,-6.641 -39.13,-9.5 -15.1,-2.871 -32.56,-4.301 -52.48,-4.301 -19.62,0 -36.41,2.563 -50.43,7.692 -14.05,5.129 -25.52,12.589 -34.4,22.398 -8.91,9.789 -15.39,21.711 -19.45,35.742 -4.07,14.02 -6.11,29.629 -6.11,46.821 h 245.66 c 10.87,0 19.37,3.32 25.56,9.949 6.19,6.64 9.29,16.89 9.29,30.765 v 18.102 z m -280.51,14.477 c 0.59,14.171 2.8,27.515 6.56,40.035 3.77,12.515 9.21,23.375 16.28,32.578 7.08,9.191 15.99,16.512 26.7,21.941 10.71,5.426 23.31,8.145 37.79,8.145 28.63,0 49.81,-9.125 63.54,-27.375 13.72,-18.254 20.16,-43.36 19.24,-75.324 h -170.11 v 0" /><path
         id="path40"
         style="fill:#8e9ea8;fill-opacity:1;fill-rule:nonzero;stroke:none"
         d="m 192.309,66.4883 c -0.426,1.1523 -1.664,3.3008 -3.723,6.4414 l -83.887,111.4923 77.899,93.148 c 2.175,2.782 3.656,4.961 4.445,6.539 l 1.18,4.719 -0.633,2.363 -2.363,1.809 -4.629,1.18 c -1.938,0.308 -4.481,0.461 -7.625,0.461 -3.149,0 -5.719,-0.129 -7.719,-0.371 l -5.082,-0.989 -3.543,-1.73 -2.539,-2.723 -83.1642,-104.406 v 104.406 l -0.7227,2.543 -2.5468,1.719 -4.8086,1.09 c -2,0.308 -4.5118,0.461 -7.5352,0.461 -2.9062,0 -5.3906,-0.153 -7.4453,-0.461 l -4.9024,-1.09 -2.5429,-1.719 -0.7266,-2.543 V 63.3086 l 0.7266,-2.4492 2.5429,-1.8203 4.9024,-1.0899 C 49.9219,57.6484 52.4063,57.5 55.3125,57.5 c 3.0234,0 5.5352,0.1484 7.5352,0.4492 l 4.8086,1.0899 2.5468,1.8203 0.7227,2.4492 V 180.789 l 86.4292,-117.4804 3.27,-3.2695 c 1.328,-0.9688 3.324,-1.6407 5.992,-1.9883 2.66,-0.3711 6.11,-0.5508 10.352,-0.5508 3.265,0 5.929,0.1484 7.988,0.4492 l 4.902,1.1797 2.45,1.9102 0.636,2.6289 -0.636,2.8203 z m 130.832,155.9727 -0.364,3.719 -0.636,2.09 -1.453,1.73 -3.723,1.809 -5.902,1.64 -6.262,0.992 -5.36,0.278 c -3.511,0 -6.988,-0.457 -10.437,-1.367 -3.449,-0.903 -6.934,-2.543 -10.441,-4.903 -3.512,-2.359 -7.235,-5.597 -11.168,-9.711 -3.934,-4.117 -8.141,-9.437 -12.618,-15.976 v 23.777 l -0.636,2.461 -2.086,1.809 -4.086,1.089 c -1.758,0.18 -3.969,0.274 -6.629,0.274 -2.785,0 -5.027,-0.094 -6.719,-0.274 l -4.176,-1.089 -2.175,-1.809 -0.547,-2.461 V 63.1289 l 0.632,-2.4492 2.364,-1.7305 4.629,-1.0898 c 1.933,-0.2383 4.355,-0.3594 7.265,-0.3594 3.02,0 5.504,0.1211 7.442,0.3594 l 4.539,1.0898 2.363,1.7305 0.723,2.4492 V 170.621 c 4.238,6.66 8.109,12.277 11.621,16.891 3.512,4.59 6.871,8.289 10.078,11.066 3.207,2.793 6.266,4.781 9.172,5.992 2.906,1.211 5.867,1.821 8.894,1.821 2.543,0 4.907,-0.243 7.082,-0.731 l 5.903,-1.539 4.718,-1.633 3.543,-0.816 2.27,0.816 1.359,2.364 0.727,4.257 c 0.121,1.821 0.183,4.063 0.183,6.719 0,2.793 -0.031,5 -0.089,6.633 z M 476.938,173.16 c 0,10.168 -1.153,19.07 -3.45,26.692 -2.3,7.628 -5.992,14.019 -11.074,19.16 -5.086,5.148 -11.746,9.047 -19.976,11.707 -8.231,2.66 -18.219,4 -29.958,4 -6.296,0 -12.531,-0.578 -18.703,-1.731 -6.172,-1.148 -11.867,-2.609 -17.066,-4.359 -5.207,-1.75 -9.809,-3.688 -13.801,-5.809 -3.996,-2.121 -6.808,-3.961 -8.441,-5.539 l -3.09,-4.992 c -0.426,-1.758 -0.637,-4.141 -0.637,-7.168 l 0.367,-4.992 1.176,-3.731 1.91,-2.168 2.539,-0.73 c 1.454,0 3.661,0.879 6.629,2.629 2.965,1.762 6.657,3.691 11.075,5.812 4.417,2.118 9.562,4.059 15.433,5.809 5.871,1.762 12.5,2.641 19.887,2.641 6.898,0 12.707,-0.821 17.43,-2.461 4.718,-1.629 8.558,-4.051 11.527,-7.258 2.969,-3.203 5.113,-7.231 6.445,-12.07 1.332,-4.852 2,-10.411 2,-16.711 V 159.18 h -22.515 c -12.707,0 -24.149,-1.121 -34.317,-3.36 -10.168,-2.242 -18.765,-5.601 -25.785,-10.082 -7.023,-4.468 -12.41,-10.097 -16.16,-16.879 -3.754,-6.781 -5.629,-14.769 -5.629,-23.968 0,-7.8715 1.363,-14.891 4.086,-21.0629 2.723,-6.1797 6.535,-11.3789 11.441,-15.6172 4.899,-4.2421 10.832,-7.4726 17.793,-9.7109 6.961,-2.2383 14.735,-3.3594 23.332,-3.3594 9.805,0 19.094,2.1211 27.871,6.3477 8.774,4.2422 16.735,10.1719 23.879,17.8008 V 62.9492 l 1.27,-3.2695 4.086,-1.6289 c 1.875,-0.3711 4.386,-0.5508 7.535,-0.5508 3.266,0 5.75,0.1797 7.441,0.5508 l 3.996,1.6289 1.454,3.2695 V 173.16 Z M 447.16,102.891 c -7.387,-8.2308 -14.433,-14.3402 -21.152,-18.3402 -6.719,-3.9922 -14.012,-5.9922 -21.883,-5.9922 -9.684,0 -17.223,2.5117 -22.602,7.543 -5.39,5.0195 -8.082,11.7695 -8.082,20.2384 0,4.969 0.934,9.359 2.813,13.172 1.875,3.808 4.812,7.078 8.805,9.797 4,2.73 9.019,4.781 15.074,6.179 6.051,1.391 13.191,2.082 21.426,2.082 h 25.601 v -34.679 z m 229.606,59.918 c 0,11.621 -0.996,21.582 -2.993,29.871 -2,8.289 -5.3,15.531 -9.898,21.699 -4.602,6.172 -10.621,11.109 -18.07,14.801 -7.442,3.691 -16.61,5.539 -27.504,5.539 -9.324,0 -18.551,-2.399 -27.692,-7.168 -9.14,-4.789 -18.312,-12.321 -27.507,-22.61 v 21.598 l -0.637,2.461 -2.086,1.809 -4.086,1.089 c -1.758,0.18 -3.969,0.274 -6.629,0.274 -2.785,0 -5.023,-0.094 -6.719,-0.274 l -4.175,-1.089 -2.18,-1.809 -0.543,-2.461 V 63.1289 l 0.633,-2.4492 2.363,-1.7305 4.629,-1.0898 c 1.937,-0.2383 4.359,-0.3594 7.262,-0.3594 3.027,0 5.507,0.1211 7.445,0.3594 l 4.539,1.0898 2.359,1.7305 0.727,2.4492 V 177.34 c 8.23,10.289 16.101,18.09 23.605,23.422 7.504,5.328 15.012,7.988 22.516,7.988 5.813,0 10.926,-1.09 15.344,-3.27 4.418,-2.179 8.015,-5.332 10.804,-9.441 2.786,-4.117 4.903,-9.019 6.356,-14.711 1.453,-5.687 2.18,-13.187 2.18,-22.508 V 63.1289 l 0.722,-2.4492 2.36,-1.7305 4.543,-1.0898 c 1.933,-0.2383 4.418,-0.3594 7.441,-0.3594 2.906,0 5.328,0.1211 7.266,0.3594 l 4.539,1.0898 2.363,1.7305 0.723,2.4492 v 99.6801 z m 191.929,-95.9574 -3.359,4.9882 -66.453,86.2502 59.191,59.191 3.903,5.09 1.183,4.359 -0.82,2.629 -2.723,1.641 -4.992,0.898 c -2.062,0.18 -4.602,0.274 -7.629,0.274 -2.902,0 -5.387,-0.094 -7.441,-0.274 l -5.356,-1.089 -3.906,-2 -3.086,-2.989 -61.734,-67.91 v 147.801 l -0.731,2.551 -2.355,1.808 -4.543,1.09 c -1.938,0.238 -4.418,0.36 -7.446,0.36 -2.906,0 -5.328,-0.122 -7.261,-0.36 l -4.629,-1.09 -2.36,-1.808 -0.636,-2.551 V 63.1289 l 0.636,-2.4492 2.36,-1.7305 4.629,-1.0898 c 1.933,-0.2383 4.355,-0.3594 7.261,-0.3594 3.028,0 5.508,0.1211 7.446,0.3594 l 4.543,1.0898 2.355,1.7305 0.731,2.4492 V 153.73 l 68.996,-90.4214 2.453,-2.8203 3.539,-1.8086 5.355,-0.9102 c 2.118,-0.1797 4.813,-0.2695 8.082,-0.2695 3.149,0 5.75,0.1211 7.805,0.3594 l 4.813,1.0898 2.453,1.8203 0.726,2.5391 z m 167.415,90.5194 c 0,10.649 -1.36,20.66 -4.08,30.047 -2.73,9.383 -6.99,17.551 -12.8,24.512 -5.81,6.961 -13.23,12.5 -22.246,16.609 -9.019,4.121 -19.945,6.18 -32.773,6.18 -11.984,0 -22.82,-2.09 -32.504,-6.27 -9.684,-4.168 -17.945,-10.168 -24.785,-17.969 -6.84,-7.808 -12.074,-17.32 -15.707,-28.511 -3.629,-11.199 -5.445,-23.821 -5.445,-37.86 0,-14.769 1.753,-27.718 5.265,-38.847 3.508,-11.1409 8.715,-20.4104 15.613,-27.7932 6.903,-7.379 15.403,-12.9493 25.512,-16.6993 10.11,-3.75 21.883,-5.6289 35.317,-5.6289 7.746,0 15.039,0.5782 21.882,1.7188 6.836,1.1601 12.861,2.4609 18.061,3.9101 5.21,1.4493 9.45,2.9297 12.72,4.4493 3.26,1.5117 5.23,2.6015 5.9,3.2617 l 1.63,2.0898 0.91,2.4492 0.45,3.0899 0.18,4.0898 -0.27,5.5313 -0.82,3.539 -1.55,1.9102 -2.28,0.6406 c -1.46,0 -3.62,-0.6406 -6.48,-1.9101 -2.86,-1.2696 -6.51,-2.6914 -10.95,-4.2696 -4.44,-1.5703 -9.7,-2.9922 -15.782,-4.2695 -6.082,-1.2617 -13.015,-1.9023 -20.797,-1.9023 -9.855,0 -18.187,1.3906 -25,4.1796 -6.812,2.7813 -12.347,6.7813 -16.601,11.9805 -4.258,5.1991 -7.301,11.4411 -9.125,18.6991 -1.825,7.274 -2.739,15.442 -2.739,24.512 h 107.624 c 3.04,0 5.74,1 8.12,3 2.37,2 3.55,5.359 3.55,10.082 v 5.449 z m -119.294,3.449 c 0.247,6.649 1.403,13.039 3.473,19.149 2.07,6.109 4.992,11.472 8.77,16.07 3.773,4.602 8.464,8.289 14.07,11.082 5.598,2.777 12.113,4.168 19.547,4.168 14.492,0 25.422,-4.48 32.793,-13.43 7.361,-8.961 10.861,-21.308 10.501,-37.039 h -89.154 z m 309.684,1.989 c 0,11.621 -1,21.582 -3,29.871 -1.99,8.289 -5.29,15.531 -9.89,21.699 -4.6,6.172 -10.62,11.109 -18.07,14.801 -7.44,3.691 -16.61,5.539 -27.51,5.539 -9.32,0 -18.55,-2.399 -27.69,-7.168 -9.14,-4.789 -18.31,-12.321 -27.51,-22.61 v 21.598 l -0.63,2.461 -2.09,1.809 -4.09,1.089 c -1.75,0.18 -3.96,0.274 -6.62,0.274 -2.79,0 -5.03,-0.094 -6.72,-0.274 l -4.18,-1.089 -2.18,-1.809 -0.54,-2.461 V 63.1289 l 0.64,-2.4492 2.36,-1.7305 4.62,-1.0898 c 1.94,-0.2383 4.36,-0.3594 7.27,-0.3594 3.02,0 5.5,0.1211 7.44,0.3594 l 4.54,1.0898 2.36,1.7305 0.73,2.4492 V 177.34 c 8.23,10.289 16.1,18.09 23.6,23.422 7.51,5.328 15.01,7.988 22.52,7.988 5.81,0 10.92,-1.09 15.34,-3.27 4.42,-2.179 8.02,-5.332 10.81,-9.441 2.78,-4.117 4.9,-9.019 6.35,-14.711 1.45,-5.687 2.18,-13.187 2.18,-22.508 V 63.1289 l 0.73,-2.4492 2.36,-1.7305 4.54,-1.0898 c 1.93,-0.2383 4.41,-0.3594 7.44,-0.3594 2.9,0 5.33,0.1211 7.26,0.3594 l 4.54,1.0898 2.36,1.7305 0.73,2.4492 v 99.6801 z m 191.93,-95.9574 -3.36,4.9882 -66.46,86.2502 59.2,59.191 3.9,5.09 1.18,4.359 -0.81,2.629 -2.73,1.641 -4.99,0.898 c -2.06,0.18 -4.61,0.274 -7.63,0.274 -2.9,0 -5.39,-0.094 -7.44,-0.274 l -5.36,-1.089 -3.9,-2 -3.09,-2.989 -61.74,-67.91 v 147.801 l -0.72,2.551 -2.36,1.808 -4.54,1.09 c -1.94,0.238 -4.42,0.36 -7.45,0.36 -2.9,0 -5.32,-0.122 -7.26,-0.36 l -4.63,-1.09 -2.36,-1.808 -0.64,-2.551 V 63.1289 l 0.64,-2.4492 2.36,-1.7305 4.63,-1.0898 c 1.94,-0.2383 4.36,-0.3594 7.26,-0.3594 3.03,0 5.51,0.1211 7.45,0.3594 l 4.54,1.0898 2.36,1.7305 0.72,2.4492 V 153.73 l 69,-90.4214 2.45,-2.8203 3.55,-1.8086 5.35,-0.9102 c 2.12,-0.1797 4.81,-0.2695 8.08,-0.2695 3.15,0 5.75,0.1211 7.81,0.3594 l 4.81,1.0898 2.45,1.8203 0.73,2.5391 z m 156.7,106.3084 c 0,10.168 -1.15,19.07 -3.45,26.692 -2.3,7.628 -5.99,14.019 -11.07,19.16 -5.09,5.148 -11.75,9.047 -19.98,11.707 -8.23,2.66 -18.22,4 -29.95,4 -6.3,0 -12.54,-0.578 -18.71,-1.731 -6.17,-1.148 -11.86,-2.609 -17.07,-4.359 -5.2,-1.75 -9.8,-3.688 -13.8,-5.809 -3.99,-2.121 -6.8,-3.961 -8.44,-5.539 l -3.08,-4.992 c -0.43,-1.758 -0.64,-4.141 -0.64,-7.168 l 0.36,-4.992 1.18,-3.731 1.91,-2.168 2.54,-0.73 c 1.45,0 3.66,0.879 6.63,2.629 2.96,1.762 6.65,3.691 11.07,5.812 4.42,2.118 9.57,4.059 15.44,5.809 5.87,1.762 12.5,2.641 19.88,2.641 6.9,0 12.71,-0.821 17.43,-2.461 4.72,-1.629 8.56,-4.051 11.53,-7.258 2.97,-3.203 5.12,-7.231 6.45,-12.07 1.33,-4.852 1.99,-10.411 1.99,-16.711 V 159.18 h -22.51 c -12.71,0 -24.15,-1.121 -34.32,-3.36 -10.17,-2.242 -18.76,-5.601 -25.78,-10.082 -7.02,-4.468 -12.41,-10.097 -16.16,-16.879 -3.75,-6.781 -5.63,-14.769 -5.63,-23.968 0,-7.8715 1.36,-14.891 4.09,-21.0629 2.72,-6.1797 6.53,-11.3789 11.44,-15.6172 4.9,-4.2421 10.83,-7.4726 17.79,-9.7109 6.96,-2.2383 14.73,-3.3594 23.33,-3.3594 9.8,0 19.1,2.1211 27.87,6.3477 8.78,4.2422 16.74,10.1719 23.88,17.8008 V 62.9492 l 1.27,-3.2695 4.09,-1.6289 c 1.87,-0.3711 4.38,-0.5508 7.53,-0.5508 3.27,0 5.75,0.1797 7.45,0.5508 l 3.99,1.6289 1.45,3.2695 V 173.16 Z m -29.78,-70.269 c -7.38,-8.2308 -14.43,-14.3402 -21.15,-18.3402 -6.72,-3.9922 -14.01,-5.9922 -21.88,-5.9922 -9.68,0 -17.22,2.5117 -22.61,7.543 -5.38,5.0195 -8.07,11.7695 -8.07,20.2384 0,4.969 0.93,9.359 2.81,13.172 1.88,3.808 4.81,7.078 8.81,9.797 3.99,2.73 9.01,4.781 15.07,6.179 6.05,1.391 13.19,2.082 21.42,2.082 h 25.6 v -34.679 z m 187.94,22.879 c -2.36,5.082 -5.48,9.449 -9.35,13.07 -3.88,3.64 -8.32,6.719 -13.35,9.269 -5.02,2.539 -10.11,4.832 -15.25,6.903 -5.15,2.047 -10.2,4.047 -15.16,5.988 -4.97,1.93 -9.38,4.109 -13.26,6.531 -3.87,2.418 -7.02,5.239 -9.44,8.449 -2.42,3.2 -3.63,7.168 -3.63,11.891 0,3.391 0.64,6.539 1.91,9.438 1.27,2.91 3.14,5.421 5.63,7.543 2.48,2.109 5.65,3.75 9.53,4.898 3.87,1.148 8.35,1.73 13.44,1.73 5.69,0 10.74,-0.671 15.16,-2 4.41,-1.332 8.26,-2.761 11.53,-4.269 3.27,-1.512 5.93,-2.941 7.99,-4.262 l 4.72,-2 2,0.629 1.54,2.094 0.9,3.719 0.28,5.359 -0.28,4.898 -0.54,3.364 -0.91,2.449 -2.54,2.539 c -1.27,0.969 -3.15,2.09 -5.63,3.359 -2.48,1.27 -5.48,2.45 -8.99,3.539 -3.51,1.09 -7.44,2 -11.8,2.731 -4.36,0.723 -8.71,1.09 -13.07,1.09 -9.93,0 -18.61,-1.34 -26.06,-4 -7.44,-2.66 -13.65,-6.199 -18.61,-10.617 -4.96,-4.422 -8.69,-9.571 -11.17,-15.442 -2.48,-5.871 -3.72,-12.012 -3.72,-18.43 0,-7.261 1.18,-13.492 3.54,-18.699 2.36,-5.203 5.48,-9.679 9.36,-13.429 3.87,-3.75 8.25,-6.93 13.16,-9.543 4.9,-2.598 9.92,-4.93 15.07,-6.989 5.14,-2.058 10.13,-4.019 14.98,-5.898 4.84,-1.883 9.2,-4.024 13.07,-6.442 3.88,-2.429 6.99,-5.21 9.35,-8.359 2.36,-3.152 3.54,-7.019 3.54,-11.609 0,-4.492 -0.81,-8.3636 -2.45,-11.6331 -1.63,-3.2695 -3.96,-5.957 -6.99,-8.0781 -3.02,-2.1211 -6.6,-3.7227 -10.71,-4.8125 -4.12,-1.0899 -8.72,-1.6289 -13.8,-1.6289 -6.78,0 -12.77,0.8086 -17.98,2.4492 -5.2,1.6328 -9.71,3.4219 -13.52,5.3516 -3.82,1.9414 -7.02,3.7304 -9.63,5.3593 -2.6,1.6407 -4.57,2.4493 -5.9,2.4493 l -2.27,-0.629 -1.54,-2.0898 -0.91,-3.8086 -0.36,-5.8203 c 0,-3.75 0.3,-6.7109 0.9,-8.8906 l 2.91,-5.0899 c 1.33,-1.2109 3.45,-2.5703 6.36,-4.082 2.9,-1.5195 6.44,-2.9688 10.62,-4.3594 4.17,-1.3906 8.9,-2.539 14.16,-3.4492 5.27,-0.9102 10.8,-1.3594 16.61,-1.3594 9.45,0 18.1,1.1485 25.97,3.4492 7.87,2.3008 14.65,5.6915 20.34,10.1719 5.68,4.4688 10.07,9.9883 13.16,16.5196 3.09,6.539 4.63,13.9804 4.63,22.3277 0,7.02 -1.18,13.082 -3.54,18.161 z m 149.53,0 c -2.36,5.082 -5.48,9.449 -9.35,13.07 -3.87,3.64 -8.32,6.719 -13.34,9.269 -5.03,2.539 -10.11,4.832 -15.26,6.903 -5.14,2.047 -10.2,4.047 -15.16,5.988 -4.96,1.93 -9.38,4.109 -13.25,6.531 -3.88,2.418 -7.02,5.239 -9.45,8.449 -2.42,3.2 -3.63,7.168 -3.63,11.891 0,3.391 0.64,6.539 1.91,9.438 1.27,2.91 3.15,5.421 5.63,7.543 2.48,2.109 5.66,3.75 9.53,4.898 3.87,1.148 8.35,1.73 13.44,1.73 5.69,0 10.74,-0.671 15.16,-2 4.42,-1.332 8.26,-2.761 11.53,-4.269 3.27,-1.512 5.93,-2.941 7.99,-4.262 l 4.72,-2 2,0.629 1.54,2.094 0.91,3.719 0.27,5.359 -0.27,4.898 -0.55,3.364 -0.9,2.449 -2.55,2.539 c -1.27,0.969 -3.15,2.09 -5.62,3.359 -2.49,1.27 -5.48,2.45 -8.99,3.539 -3.52,1.09 -7.45,2 -11.81,2.731 -4.35,0.723 -8.71,1.09 -13.07,1.09 -9.93,0 -18.61,-1.34 -26.06,-4 -7.44,-2.66 -13.65,-6.199 -18.61,-10.617 -4.96,-4.422 -8.68,-9.571 -11.16,-15.442 -2.49,-5.871 -3.73,-12.012 -3.73,-18.43 0,-7.261 1.19,-13.492 3.55,-18.699 2.36,-5.203 5.47,-9.679 9.34,-13.429 3.88,-3.75 8.27,-6.93 13.17,-9.543 4.9,-2.598 9.92,-4.93 15.07,-6.989 5.14,-2.058 10.14,-4.019 14.98,-5.898 4.84,-1.883 9.2,-4.024 13.08,-6.442 3.87,-2.429 6.98,-5.21 9.35,-8.359 2.35,-3.152 3.54,-7.019 3.54,-11.609 0,-4.492 -0.82,-8.3636 -2.45,-11.6331 -1.64,-3.2695 -3.97,-5.957 -7,-8.0781 -3.02,-2.1211 -6.6,-3.7227 -10.71,-4.8125 -4.12,-1.0899 -8.72,-1.6289 -13.8,-1.6289 -6.78,0 -12.77,0.8086 -17.97,2.4492 -5.21,1.6328 -9.72,3.4219 -13.53,5.3516 -3.81,1.9414 -7.02,3.7304 -9.62,5.3593 -2.61,1.6407 -4.58,2.4493 -5.91,2.4493 l -2.27,-0.629 -1.54,-2.0898 -0.91,-3.8086 -0.36,-5.8203 c 0,-3.75 0.3,-6.7109 0.91,-8.8906 l 2.9,-5.0899 c 1.33,-1.2109 3.45,-2.5703 6.36,-4.082 2.9,-1.5195 6.44,-2.9688 10.62,-4.3594 4.18,-1.3906 8.9,-2.539 14.16,-3.4492 5.27,-0.9102 10.81,-1.3594 16.62,-1.3594 9.44,0 18.09,1.1485 25.96,3.4492 7.87,2.3008 14.65,5.6915 20.34,10.1719 5.69,4.4688 10.08,9.9883 13.16,16.5196 3.09,6.539 4.63,13.9804 4.63,22.3277 0,7.02 -1.18,13.082 -3.54,18.161 z m 189.93,31.601 c 0,10.649 -1.36,20.66 -4.08,30.047 -2.72,9.383 -6.99,17.551 -12.8,24.512 -5.81,6.961 -13.23,12.5 -22.24,16.609 -9.03,4.121 -19.95,6.18 -32.78,6.18 -11.98,0 -22.82,-2.09 -32.5,-6.27 -9.69,-4.168 -17.95,-10.168 -24.79,-17.969 -6.84,-7.808 -12.07,-17.32 -15.7,-28.511 -3.63,-11.199 -5.45,-23.821 -5.45,-37.86 0,-14.769 1.75,-27.718 5.27,-38.847 3.51,-11.1409 8.71,-20.4104 15.61,-27.7932 6.9,-7.379 15.4,-12.9493 25.51,-16.6993 10.11,-3.75 21.88,-5.6289 35.32,-5.6289 7.74,0 15.04,0.5782 21.88,1.7188 6.84,1.1601 12.86,2.4609 18.07,3.9101 5.2,1.4493 9.44,2.9297 12.71,4.4493 3.26,1.5117 5.23,2.6015 5.9,3.2617 l 1.63,2.0898 0.91,2.4492 0.45,3.0899 0.18,4.0898 -0.27,5.5313 -0.82,3.539 -1.55,1.9102 -2.28,0.6406 c -1.46,0 -3.62,-0.6406 -6.48,-1.9101 -2.86,-1.2696 -6.51,-2.6914 -10.95,-4.2696 -4.44,-1.5703 -9.7,-2.9922 -15.78,-4.2695 -6.08,-1.2617 -13.02,-1.9023 -20.8,-1.9023 -9.85,0 -18.19,1.3906 -25,4.1796 -6.81,2.7813 -12.35,6.7813 -16.6,11.9805 -4.26,5.1991 -7.3,11.4411 -9.12,18.6991 -1.83,7.274 -2.74,15.442 -2.74,24.512 h 107.62 c 3.04,0 5.75,1 8.12,3 2.37,2 3.55,5.359 3.55,10.082 v 5.449 z m -119.29,3.449 c 0.24,6.649 1.4,13.039 3.47,19.149 2.07,6.109 4.99,11.472 8.77,16.07 3.77,4.602 8.46,8.289 14.07,11.082 5.6,2.777 12.11,4.168 19.54,4.168 14.5,0 25.43,-4.48 32.8,-13.43 7.36,-8.961 10.87,-21.308 10.5,-37.039 h -89.15 z m 346.36,138.809 -0.99,4.18 -1.82,2.812 -4.36,2.449 c -2.18,0.91 -5.26,1.758 -9.26,2.539 -3.99,0.789 -8.11,1.18 -12.35,1.18 -8.96,0 -16.73,-1.238 -23.33,-3.719 -6.6,-2.48 -12.07,-6.332 -16.43,-11.531 -4.36,-5.199 -7.6,-11.891 -9.71,-20.059 -2.13,-8.171 -3.18,-17.949 -3.18,-29.332 v -16.886 h -23.06 l -2.54,-0.633 -1.82,-2.18 -1.09,-3.898 -0.36,-5.813 c 0,-4.359 0.48,-7.508 1.45,-9.437 l 4.36,-2.91 h 23.06 V 63.1289 l 0.72,-2.4492 2.46,-1.7305 4.62,-1.0898 c 1.94,-0.2383 4.36,-0.3594 7.27,-0.3594 2.9,0 5.32,0.1211 7.26,0.3594 l 4.63,1.0898 2.45,1.7305 0.73,2.4492 V 206.391 h 36.5 l 4.35,2.91 c 1.09,1.929 1.64,5.078 1.64,9.437 l -0.46,5.813 -1.27,3.898 -1.81,2.18 -2.45,0.633 h -36.5 v 17.797 c 0,7.019 0.42,12.98 1.27,17.89 0.84,4.903 2.24,8.891 4.18,11.981 1.93,3.09 4.47,5.359 7.62,6.808 3.15,1.453 6.96,2.184 11.44,2.184 3.27,0 6.15,-0.274 8.63,-0.82 2.47,-0.551 4.63,-1.153 6.44,-1.821 l 4.63,-1.812 3.18,-0.809 1.82,0.442 1.17,1.726 0.82,3.363 0.37,5.539 z m 168.33,-73.09 -0.82,2.461 -2.45,1.809 -4.54,1.089 c -1.94,0.18 -4.36,0.274 -7.26,0.274 -3.03,0 -5.48,-0.094 -7.36,-0.274 l -4.63,-1.089 -2.45,-1.809 -0.63,-2.461 V 112.34 c -8.36,-10.301 -16.25,-18.1017 -23.7,-23.4298 -7.44,-5.3321 -14.92,-7.9883 -22.42,-7.9883 -5.81,0 -10.9,1.1172 -15.25,3.3594 -4.36,2.2382 -7.97,5.3906 -10.81,9.4375 -2.84,4.0625 -4.96,8.9612 -6.35,14.7112 -1.4,5.75 -2.09,13.41 -2.09,22.968 v 95.141 l -0.73,2.461 -2.45,1.809 -4.63,1.089 c -1.94,0.18 -4.36,0.274 -7.26,0.274 -2.91,0 -5.33,-0.094 -7.27,-0.274 l -4.72,-1.089 -2.45,-1.809 -0.63,-2.461 v -99.141 c 0,-11.859 0.99,-21.937 2.99,-30.2183 2,-8.3008 5.3,-15.5586 9.9,-21.7891 4.6,-6.2422 10.62,-11.1718 18.07,-14.8008 7.44,-3.6406 16.61,-5.4492 27.5,-5.4492 9.32,0 18.53,2.3594 27.6,7.0782 9.08,4.7226 18.28,12.2304 27.6,22.5195 V 63.1289 l 0.55,-2.4492 2.09,-1.7305 4.17,-1.0898 c 1.76,-0.2383 4.02,-0.3594 6.81,-0.3594 2.54,0 4.69,0.1211 6.45,0.3594 l 4.26,1.0898 2.27,1.7305 0.64,2.4492 z m -88.61,66.281 c -2.3,2.418 -6.78,3.629 -13.44,3.629 -6.53,0 -10.98,-1.211 -13.34,-3.629 -2.36,-2.422 -3.54,-7.019 -3.54,-13.8 0,-6.418 1.15,-10.801 3.45,-13.161 2.3,-2.359 6.72,-3.539 13.25,-3.539 6.54,0 11.01,1.2 13.44,3.629 2.42,2.422 3.63,6.961 3.63,13.621 0,6.41 -1.15,10.828 -3.45,13.25 z m 64.28,0 c -2.3,2.418 -6.78,3.629 -13.44,3.629 -6.54,0 -10.98,-1.211 -13.35,-3.629 -2.36,-2.422 -3.53,-7.019 -3.53,-13.8 0,-6.418 1.14,-10.801 3.45,-13.161 2.29,-2.359 6.71,-3.539 13.25,-3.539 6.54,0 11.01,1.2 13.44,3.629 2.41,2.422 3.63,6.961 3.63,13.621 0,6.41 -1.15,10.828 -3.45,13.25 z m 179.22,-70.359 -0.37,3.719 -0.63,2.09 -1.45,1.73 -3.73,1.809 -5.9,1.64 -6.26,0.992 -5.36,0.278 c -3.51,0 -6.99,-0.457 -10.44,-1.367 -3.45,-0.903 -6.93,-2.543 -10.44,-4.903 -3.51,-2.359 -7.23,-5.597 -11.17,-9.711 -3.93,-4.117 -8.14,-9.437 -12.62,-15.976 v 23.777 l -0.63,2.461 -2.09,1.809 -4.09,1.089 c -1.75,0.18 -3.96,0.274 -6.62,0.274 -2.79,0 -5.03,-0.094 -6.72,-0.274 l -4.18,-1.089 -2.17,-1.809 -0.55,-2.461 V 63.1289 l 0.63,-2.4492 2.36,-1.7305 4.64,-1.0898 c 1.93,-0.2383 4.35,-0.3594 7.26,-0.3594 3.02,0 5.51,0.1211 7.44,0.3594 l 4.54,1.0898 2.36,1.7305 0.73,2.4492 V 170.621 c 4.23,6.66 8.11,12.277 11.62,16.891 3.51,4.59 6.87,8.289 10.08,11.066 3.2,2.793 6.26,4.781 9.17,5.992 2.9,1.211 5.87,1.821 8.89,1.821 2.55,0 4.91,-0.243 7.08,-0.731 l 5.91,-1.539 4.72,-1.633 3.54,-0.816 2.27,0.816 1.36,2.364 0.73,4.257 c 0.12,1.821 0.18,4.063 0.18,6.719 0,2.793 -0.03,5 -0.09,6.633 z m 225.53,-96.691 c -2.37,5.082 -5.49,9.449 -9.37,13.07 -3.87,3.64 -8.32,6.719 -13.32,9.269 -5.03,2.539 -10.12,4.832 -15.26,6.903 -5.14,2.047 -10.2,4.047 -15.18,5.988 -4.95,1.93 -9.37,4.109 -13.24,6.531 -3.88,2.418 -7.03,5.239 -9.45,8.449 -2.42,3.2 -3.63,7.168 -3.63,11.891 0,3.391 0.65,6.539 1.91,9.438 1.27,2.91 3.15,5.421 5.63,7.543 2.47,2.109 5.65,3.75 9.52,4.898 3.88,1.148 8.37,1.73 13.46,1.73 5.68,0 10.74,-0.671 15.15,-2 4.41,-1.332 8.26,-2.761 11.52,-4.269 3.28,-1.512 5.95,-2.941 7.99,-4.262 l 4.74,-2 1.99,0.629 1.53,2.094 0.92,3.719 0.27,5.359 -0.27,4.898 -0.54,3.364 -0.91,2.449 -2.53,2.539 c -1.3,0.969 -3.15,2.09 -5.65,3.359 -2.48,1.27 -5.47,2.45 -8.99,3.539 -3.5,1.09 -7.43,2 -11.79,2.731 -4.36,0.723 -8.72,1.09 -13.08,1.09 -9.93,0 -18.6,-1.34 -26.05,-4 -7.46,-2.66 -13.65,-6.199 -18.63,-10.617 -4.95,-4.422 -8.66,-9.571 -11.17,-15.442 -2.47,-5.871 -3.71,-12.012 -3.71,-18.43 0,-7.261 1.18,-13.492 3.55,-18.699 2.34,-5.203 5.47,-9.679 9.34,-13.429 3.88,-3.75 8.26,-6.93 13.16,-9.543 4.93,-2.598 9.93,-4.93 15.07,-6.989 5.14,-2.058 10.15,-4.019 14.99,-5.898 4.85,-1.883 9.21,-4.024 13.08,-6.442 3.88,-2.429 6.97,-5.21 9.34,-8.359 2.37,-3.152 3.55,-7.019 3.55,-11.609 0,-4.492 -0.83,-8.3636 -2.44,-11.6331 -1.65,-3.2695 -3.99,-5.957 -7,-8.0781 -3.04,-2.1211 -6.6,-3.7227 -10.71,-4.8125 -4.12,-1.0899 -8.72,-1.6289 -13.81,-1.6289 -6.78,0 -12.78,0.8086 -17.98,2.4492 -5.19,1.6328 -9.71,3.4219 -13.51,5.3516 -3.82,1.9414 -7.02,3.7304 -9.63,5.3593 -2.61,1.6407 -4.58,2.4493 -5.9,2.4493 l -2.28,-0.629 -1.54,-2.0898 -0.91,-3.8086 -0.35,-5.8203 c 0,-3.75 0.29,-6.7109 0.89,-8.8906 l 2.9,-5.0899 c 1.35,-1.2109 3.47,-2.5703 6.38,-4.082 2.91,-1.5195 6.43,-2.9688 10.6,-4.3594 4.18,-1.3906 8.91,-2.539 14.19,-3.4492 5.25,-0.9102 10.79,-1.3594 16.6,-1.3594 9.45,0 18.09,1.1485 25.97,3.4492 7.86,2.3008 14.64,5.6915 20.32,10.1719 5.71,4.4688 10.09,9.9883 13.16,16.5196 3.1,6.539 4.63,13.9804 4.63,22.3277 0,7.02 -1.16,13.082 -3.52,18.161 z m 197.45,57.742 c -3.33,10.898 -8.31,20.156 -14.96,27.777 -6.67,7.633 -14.99,13.441 -24.97,17.43 -9.99,4 -21.7,6 -35.15,6 -13.92,0 -26.08,-2.239 -36.5,-6.719 -10.41,-4.48 -19.08,-10.781 -26.05,-18.891 -6.97,-8.109 -12.16,-17.757 -15.61,-28.961 -3.44,-11.199 -5.16,-23.449 -5.16,-36.769 0,-13.801 1.61,-26.141 4.89,-37.039 3.26,-10.8908 8.24,-20.1486 14.89,-27.7814 6.64,-7.6172 14.99,-13.4375 24.97,-17.4297 9.99,-3.9883 21.69,-5.9883 35.12,-5.9883 13.81,0 25.95,2.2696 36.42,6.8086 10.46,4.5391 19.18,10.8594 26.15,18.9727 6.95,8.1094 12.2,17.7695 15.7,28.9571 3.52,11.199 5.27,23.461 5.27,36.769 0,13.68 -1.67,25.973 -5.01,36.864 z m -28.98,-64.821 c -1.97,-7.871 -5.01,-14.652 -9.15,-20.3394 -4.17,-5.6914 -9.47,-10.1016 -15.96,-13.25 -6.46,-3.1524 -14.1,-4.7227 -22.88,-4.7227 -9.66,0 -17.73,1.7227 -24.19,5.1719 -6.49,3.4492 -11.63,8.1094 -15.48,13.9883 -3.84,5.8589 -6.59,12.7309 -8.26,20.6019 -1.64,7.871 -2.47,16.281 -2.47,25.238 0,9.32 1.02,17.91 3.04,25.781 1.99,7.871 5.08,14.68 9.23,20.43 4.17,5.75 9.44,10.199 15.85,13.351 6.43,3.137 14.08,4.719 23.01,4.719 9.64,0 17.71,-1.73 24.17,-5.18 6.48,-3.449 11.6,-8.14 15.39,-14.07 3.8,-5.93 6.51,-12.832 8.16,-20.699 1.64,-7.871 2.47,-16.223 2.47,-25.051 0,-9.441 -0.97,-18.101 -2.93,-25.969 z m 180.99,-41.4918 -1.38,3.9024 -1.99,2.0898 -2.63,0.6367 h -76.63 l 71.73,112.2109 3.07,5.27 2.01,4.441 1.08,4.27 0.38,4.718 v 5.813 l -0.65,5.09 -1.72,3.269 -2.64,1.809 -3.52,0.543 h -93.71 l -2.8,-0.633 -2.02,-2.18 -1.16,-3.988 -0.38,-5.723 c 0,-4.476 0.57,-7.718 1.73,-9.718 l 4.63,-2.989 h 69.91 l -72.09,-112.2224 -3.1,-5.168 -1.99,-4.2695 -1.08,-3.9922 -0.37,-4.5391 v -6.1679 c 0,-4 0.83,-6.8516 2.45,-8.543 1.64,-1.6992 3.74,-2.5391 6.27,-2.5391 h 100.6 l 2.71,0.6407 2,2.1797 1.29,3.9882 0.54,5.9024 z m 77.24,149.3398 -0.73,2.371 -2.34,1.809 -4.55,1.09 c -1.94,0.242 -4.41,0.363 -7.45,0.363 -2.88,0 -5.31,-0.121 -7.24,-0.363 l -4.63,-1.09 -2.37,-1.809 -0.65,-2.371 V 63.1289 l 0.65,-2.4492 2.37,-1.7305 4.63,-1.0898 c 1.93,-0.2383 4.36,-0.3594 7.24,-0.3594 3.04,0 5.51,0.1211 7.45,0.3594 l 4.55,1.0898 2.34,1.7305 0.73,2.4492 z m -0.43,69.281 c -2.62,2.469 -7.43,3.719 -14.46,3.719 -7.13,0 -12.03,-1.269 -14.69,-3.82 -2.67,-2.528 -4.01,-7.321 -4.01,-14.34 0,-6.899 1.32,-11.59 3.9,-14.07 2.61,-2.481 7.43,-3.719 14.45,-3.719 7.14,0 12.03,1.269 14.7,3.808 2.66,2.543 4.01,7.321 4.01,14.34 0,6.91 -1.32,11.59 -3.9,14.082 z m 183.03,-122.66 c 0,10.168 -1.16,19.07 -3.47,26.692 -2.29,7.628 -5.98,14.019 -11.06,19.16 -5.09,5.148 -11.74,9.047 -19.97,11.707 -8.24,2.66 -18.22,4 -29.98,4 -6.27,0 -12.52,-0.578 -18.68,-1.731 -6.19,-1.148 -11.87,-2.609 -17.09,-4.359 -5.2,-1.75 -9.8,-3.688 -13.78,-5.809 -4.01,-2.121 -6.81,-3.961 -8.45,-5.539 l -3.1,-4.992 c -0.43,-1.758 -0.61,-4.141 -0.61,-7.168 l 0.35,-4.992 1.18,-3.731 1.91,-2.168 2.53,-0.73 c 1.45,0 3.66,0.879 6.62,2.629 2.99,1.762 6.67,3.691 11.09,5.812 4.41,2.118 9.55,4.059 15.42,5.809 5.89,1.762 12.51,2.641 19.89,2.641 6.91,0 12.73,-0.821 17.44,-2.461 4.71,-1.629 8.56,-4.051 11.52,-7.258 2.98,-3.203 5.11,-7.231 6.45,-12.07 1.32,-4.852 2,-10.411 2,-16.711 V 159.18 h -22.5 c -12.73,0 -24.17,-1.121 -34.34,-3.36 -10.15,-2.242 -18.76,-5.601 -25.79,-10.082 -7.02,-4.468 -12.4,-10.097 -16.14,-16.879 -3.77,-6.781 -5.63,-14.769 -5.63,-23.968 0,-7.8715 1.35,-14.891 4.07,-21.0629 2.74,-6.1797 6.54,-11.3789 11.46,-15.6172 4.9,-4.2421 10.82,-7.4726 17.79,-9.7109 6.94,-2.2383 14.72,-3.3594 23.33,-3.3594 9.8,0 19.08,2.1211 27.86,6.3477 8.77,4.2422 16.74,10.1719 23.9,17.8008 V 62.9492 l 1.26,-3.2695 4.09,-1.6289 c 1.86,-0.3711 4.39,-0.5508 7.54,-0.5508 3.25,0 5.73,0.1797 7.43,0.5508 l 4.01,1.6289 1.45,3.2695 V 173.16 Z m -29.79,-70.269 c -7.38,-8.2308 -14.43,-14.3402 -21.16,-18.3402 -6.73,-3.9922 -14.02,-5.9922 -21.88,-5.9922 -9.69,0 -17.22,2.5117 -22.6,7.543 -5.39,5.0195 -8.08,11.7695 -8.08,20.2384 0,4.969 0.94,9.359 2.8,13.172 1.89,3.808 4.82,7.078 8.83,9.797 3.98,2.73 9.01,4.781 15.07,6.179 6.06,1.391 13.19,2.082 21.42,2.082 h 25.6 v -34.679 z m 118.84,202.82 -0.72,2.551 -2.37,1.808 -4.52,1.09 c -1.94,0.238 -4.44,0.36 -7.46,0.36 -2.91,0 -5.33,-0.122 -7.26,-0.36 l -4.63,-1.09 -2.37,-1.808 -0.62,-2.551 V 63.1289 l 0.62,-2.4492 2.37,-1.7305 4.63,-1.0898 c 1.93,-0.2383 4.35,-0.3594 7.26,-0.3594 3.02,0 5.52,0.1211 7.46,0.3594 l 4.52,1.0898 2.37,1.7305 0.72,2.4492 z m 198.91,-148.34 c 0,10.649 -1.34,20.66 -4.06,30.047 -2.74,9.383 -7,17.551 -12.81,24.512 -5.81,6.961 -13.21,12.5 -22.26,16.609 -9.01,4.121 -19.94,6.18 -32.75,6.18 -12,0 -22.82,-2.09 -32.51,-6.27 -9.69,-4.168 -17.95,-10.168 -24.79,-17.969 -6.83,-7.808 -12.08,-17.32 -15.71,-28.511 -3.61,-11.199 -5.44,-23.821 -5.44,-37.86 0,-14.769 1.75,-27.718 5.28,-38.847 3.49,-11.1409 8.71,-20.4104 15.6,-27.7932 6.89,-7.379 15.4,-12.9493 25.52,-16.6993 10.09,-3.75 21.88,-5.6289 35.31,-5.6289 7.75,0 15.04,0.5782 21.88,1.7188 6.83,1.1601 12.86,2.4609 18.06,3.9101 5.22,1.4493 9.44,2.9297 12.72,4.4493 3.26,1.5117 5.23,2.6015 5.9,3.2617 l 1.64,2.0898 0.89,2.4492 0.46,3.0899 0.18,4.0898 -0.27,5.5313 -0.83,3.539 -1.53,1.9102 -2.29,0.6406 c -1.45,0 -3.61,-0.6406 -6.49,-1.9101 -2.85,-1.2696 -6.51,-2.6914 -10.95,-4.2696 -4.44,-1.5703 -9.69,-2.9922 -15.77,-4.2695 -6.08,-1.2617 -13.03,-1.9023 -20.8,-1.9023 -9.85,0 -18.2,1.3906 -25.01,4.1796 -6.81,2.7813 -12.32,6.7813 -16.6,11.9805 -4.25,5.1991 -7.29,11.4411 -9.12,18.6991 -1.81,7.274 -2.72,15.442 -2.72,24.512 h 107.62 c 3.04,0 5.73,1 8.1,3 2.37,2 3.55,5.359 3.55,10.082 v 5.449 z m -119.27,3.449 c 0.24,6.649 1.4,13.039 3.47,19.149 2.07,6.109 4.98,11.472 8.77,16.07 3.77,4.602 8.45,8.289 14.05,11.082 5.6,2.777 12.14,4.168 19.57,4.168 14.48,0 25.4,-4.48 32.78,-13.43 7.37,-8.961 10.87,-21.308 10.49,-37.039 h -89.13 z m 411.82,-12.89 c -2.43,6.648 -5.74,12.461 -9.91,17.429 -4.17,4.961 -9.04,9.039 -14.61,12.25 -5.57,3.211 -11.55,5.422 -17.98,6.629 5.09,2.184 9.61,4.961 13.54,8.352 3.93,3.39 7.18,7.23 9.79,11.531 2.61,4.301 4.58,8.988 5.9,14.07 1.34,5.09 2.02,10.411 2.02,15.981 0,9.316 -1.54,17.68 -4.55,25.058 -3.04,7.379 -7.54,13.61 -13.54,18.7 -5.97,5.09 -13.46,8.961 -22.42,11.621 -8.96,2.66 -20.45,4 -34.5,4 h -53.37 c -2.8,0 -5.43,-0.942 -7.91,-2.821 -2.48,-1.878 -3.71,-5.171 -3.71,-9.89 V 71.3008 c 0,-4.7227 1.23,-8.0195 3.71,-9.8906 2.48,-1.8789 5.11,-2.8204 7.91,-2.8204 h 61.36 c 8.83,0 16.69,0.6407 23.52,1.8985 6.84,1.2812 13.25,3.1797 19.25,5.7305 6,2.5429 11.38,5.6796 16.15,9.4414 4.79,3.75 8.88,8.1093 12.27,13.0703 3.39,4.9609 6.03,10.5586 7.88,16.8005 1.89,6.231 2.83,13.039 2.83,20.418 0,7.992 -1.21,15.321 -3.63,21.981 z m -45.68,68.359 c -1.5,-4.789 -3.87,-8.961 -7.15,-12.527 -3.26,-3.571 -7.35,-6.422 -12.3,-8.543 -4.96,-2.117 -11.5,-3.18 -19.57,-3.18 h -35.5 v 76.09 h 32.24 c 8.94,0 16.12,-0.848 21.56,-2.551 5.41,-1.687 9.82,-4.148 13.22,-7.348 3.39,-3.21 5.86,-7.109 7.42,-11.71 1.56,-4.598 2.34,-9.75 2.34,-15.43 0,-5.09 -0.75,-10.02 -2.26,-14.801 z m 13,-109.398 c -2.31,-4.961 -5.46,-9.1097 -9.52,-12.4418 -4.04,-3.3281 -8.72,-5.8398 -14.05,-7.539 -5.3,-1.6914 -11.52,-2.5391 -18.65,-2.5391 h -45.3 v 82.8009 h 37.33 c 9.77,0 17.9,-0.942 24.36,-2.82 6.46,-1.872 11.84,-4.622 16.14,-8.262 4.28,-3.629 7.54,-8.11 9.77,-13.43 2.24,-5.332 3.37,-11.512 3.37,-18.519 0,-6.539 -1.16,-12.289 -3.45,-17.25 z m 223.78,50.48 c 0,10.649 -1.34,20.66 -4.09,30.047 -2.72,9.383 -6.97,17.551 -12.78,24.512 -5.82,6.961 -13.24,12.5 -22.26,16.609 -9.01,4.121 -19.94,6.18 -32.78,6.18 -11.97,0 -22.79,-2.09 -32.48,-6.27 -9.69,-4.168 -17.95,-10.168 -24.79,-17.969 -6.83,-7.808 -12.08,-17.32 -15.72,-28.511 -3.63,-11.199 -5.43,-23.821 -5.43,-37.86 0,-14.769 1.75,-27.718 5.25,-38.847 3.52,-11.1409 8.72,-20.4104 15.63,-27.7932 6.89,-7.379 15.4,-12.9493 25.52,-16.6993 10.09,-3.75 21.88,-5.6289 35.3,-5.6289 7.76,0 15.05,0.5782 21.88,1.7188 6.84,1.1601 12.87,2.4609 18.06,3.9101 5.2,1.4493 9.45,2.9297 12.71,4.4493 3.28,1.5117 5.24,2.6015 5.92,3.2617 l 1.61,2.0898 0.92,2.4492 0.45,3.0899 0.19,4.0898 -0.27,5.5313 -0.83,3.539 -1.56,1.9102 -2.26,0.6406 c -1.48,0 -3.64,-0.6406 -6.49,-1.9101 -2.85,-1.2696 -6.51,-2.6914 -10.95,-4.2696 -4.44,-1.5703 -9.69,-2.9922 -15.77,-4.2695 -6.09,-1.2617 -13.03,-1.9023 -20.81,-1.9023 -9.85,0 -18.19,1.3906 -25,4.1796 -6.81,2.7813 -12.35,6.7813 -16.6,11.9805 -4.26,5.1991 -7.3,11.4411 -9.13,18.6991 -1.83,7.274 -2.74,15.442 -2.74,24.512 h 107.62 c 3.04,0 5.76,1 8.13,3 2.37,2 3.55,5.359 3.55,10.082 v 5.449 z m -119.3,3.449 c 0.27,6.649 1.4,13.039 3.47,19.149 2.07,6.109 5.01,11.472 8.77,16.07 3.8,4.602 8.48,8.289 14.08,11.082 5.6,2.777 12.11,4.168 19.54,4.168 14.5,0 25.43,-4.48 32.8,-13.43 7.35,-8.961 10.88,-21.308 10.5,-37.039 h -89.16 z m 264.39,61.641 -0.35,3.719 -0.65,2.09 -1.45,1.73 -3.71,1.809 -5.93,1.64 -6.24,0.992 -5.35,0.278 c -3.53,0 -7,-0.457 -10.45,-1.367 -3.47,-0.903 -6.94,-2.543 -10.44,-4.903 -3.52,-2.359 -7.24,-5.597 -11.17,-9.711 -3.93,-4.117 -8.15,-9.437 -12.62,-15.976 v 23.777 l -0.65,2.461 -2.07,1.809 -4.09,1.089 c -1.75,0.18 -3.98,0.274 -6.62,0.274 -2.8,0 -5.03,-0.094 -6.73,-0.274 l -4.17,-1.089 -2.18,-1.809 -0.54,-2.461 V 63.1289 l 0.62,-2.4492 2.37,-1.7305 4.63,-1.0898 c 1.94,-0.2383 4.36,-0.3594 7.27,-0.3594 3.01,0 5.49,0.1211 7.42,0.3594 l 4.55,1.0898 2.37,1.7305 0.73,2.4492 V 170.621 c 4.22,6.66 8.1,12.277 11.62,16.891 3.5,4.59 6.87,8.289 10.07,11.066 3.2,2.793 6.27,4.781 9.18,5.992 2.9,1.211 5.86,1.821 8.88,1.821 2.55,0 4.92,-0.243 7.07,-0.731 l 5.93,-1.539 4.71,-1.633 3.55,-0.816 2.26,0.816 1.37,2.364 0.73,4.257 c 0.11,1.821 0.16,4.063 0.16,6.719 0,2.793 -0.03,5 -0.08,6.633 z m 178.32,4.078 -0.83,2.461 -2.45,1.809 -4.55,1.089 c -1.94,0.18 -4.33,0.274 -7.24,0.274 -3.04,0 -5.49,-0.094 -7.37,-0.274 l -4.63,-1.089 -2.45,-1.809 -0.62,-2.461 V 112.34 c -8.37,-10.301 -16.26,-18.1017 -23.71,-23.4298 -7.43,-5.3321 -14.91,-7.9883 -22.42,-7.9883 -5.81,0 -10.9,1.1172 -15.26,3.3594 -4.36,2.2382 -7.96,5.3906 -10.79,9.4375 -2.85,4.0625 -4.98,8.9612 -6.35,14.7112 -1.4,5.75 -2.1,13.41 -2.1,22.968 v 95.141 l -0.73,2.461 -2.45,1.809 -4.63,1.089 c -1.93,0.18 -4.36,0.274 -7.26,0.274 -2.91,0 -5.33,-0.094 -7.27,-0.274 l -4.71,-1.089 -2.45,-1.809 -0.64,-2.461 v -99.141 c 0,-11.859 0.99,-21.937 2.98,-30.2183 2.02,-8.3008 5.31,-15.5586 9.91,-21.7891 4.6,-6.2422 10.63,-11.1718 18.06,-14.8008 7.45,-3.6406 16.63,-5.4492 27.53,-5.4492 9.31,0 18.51,2.3594 27.58,7.0782 9.07,4.7226 18.28,12.2304 27.62,22.5195 V 63.1289 l 0.53,-2.4492 2.08,-1.7305 4.2,-1.0898 c 1.74,-0.2383 4,-0.3594 6.8,-0.3594 2.53,0 4.69,0.1211 6.44,0.3594 l 4.28,1.0898 2.26,1.7305 0.64,2.4492 z m 148.69,73.09 -0.99,4.18 -1.8,2.812 -4.36,2.449 c -2.18,0.91 -5.28,1.758 -9.26,2.539 -4.01,0.789 -8.13,1.18 -12.36,1.18 -8.96,0 -16.74,-1.238 -23.33,-3.719 -6.59,-2.48 -12.08,-6.332 -16.44,-11.531 -4.34,-5.199 -7.59,-11.891 -9.69,-20.059 -2.13,-8.171 -3.2,-17.949 -3.2,-29.332 v -16.886 h -23.04 l -2.56,-0.633 -1.8,-2.18 -1.1,-3.898 -0.35,-5.813 c 0,-4.359 0.48,-7.508 1.45,-9.437 l 4.36,-2.91 h 23.04 V 63.1289 l 0.72,-2.4492 2.48,-1.7305 4.63,-1.0898 c 1.91,-0.2383 4.33,-0.3594 7.24,-0.3594 2.9,0 5.33,0.1211 7.26,0.3594 l 4.63,1.0898 2.45,1.7305 0.73,2.4492 V 206.391 h 36.52 l 4.33,2.91 c 1.11,1.929 1.64,5.078 1.64,9.437 l -0.45,5.813 -1.27,3.898 -1.8,2.18 -2.45,0.633 h -36.52 v 17.797 c 0,7.019 0.43,12.98 1.29,17.89 0.84,4.903 2.23,8.891 4.17,11.981 1.94,3.09 4.47,5.359 7.62,6.808 3.15,1.453 6.97,2.184 11.44,2.184 3.28,0 6.13,-0.274 8.63,-0.82 2.48,-0.551 4.63,-1.153 6.44,-1.821 l 4.63,-1.812 3.17,-0.809 1.83,0.442 1.19,1.726 0.8,3.363 0.38,5.539 z m 158.55,-142.258 c 0,10.649 -1.38,20.66 -4.09,30.047 -2.72,9.383 -7,17.551 -12.81,24.512 -5.82,6.961 -13.22,12.5 -22.23,16.609 -9.02,4.121 -19.95,6.18 -32.78,6.18 -11.98,0 -22.83,-2.09 -32.51,-6.27 -9.69,-4.168 -17.96,-10.168 -24.79,-17.969 -6.84,-7.808 -12.06,-17.32 -15.69,-28.511 -3.63,-11.199 -5.46,-23.821 -5.46,-37.86 0,-14.769 1.74,-27.718 5.27,-38.847 3.5,-11.1409 8.72,-20.4104 15.61,-27.7932 6.89,-7.379 15.39,-12.9493 25.51,-16.6993 10.12,-3.75 21.88,-5.6289 35.31,-5.6289 7.75,0 15.05,0.5782 21.88,1.7188 6.84,1.1601 12.87,2.4609 18.09,3.9101 5.19,1.4493 9.42,2.9297 12.7,4.4493 3.26,1.5117 5.22,2.6015 5.89,3.2617 l 1.65,2.0898 0.91,2.4492 0.43,3.0899 0.19,4.0898 -0.27,5.5313 -0.81,3.539 -1.56,1.9102 -2.29,0.6406 c -1.45,0 -3.6,-0.6406 -6.48,-1.9101 -2.85,-1.2696 -6.49,-2.6914 -10.93,-4.2696 -4.44,-1.5703 -9.71,-2.9922 -15.8,-4.2695 -6.08,-1.2617 -12.99,-1.9023 -20.8,-1.9023 -9.85,0 -18.17,1.3906 -25,4.1796 -6.81,2.7813 -12.33,6.7813 -16.58,11.9805 -4.28,5.1991 -7.32,11.4411 -9.12,18.6991 -1.83,7.274 -2.75,15.442 -2.75,24.512 h 107.63 c 3.04,0 5.73,1 8.1,3 2.37,2 3.58,5.359 3.58,10.082 v 5.449 z m -119.31,3.449 c 0.24,6.649 1.4,13.039 3.48,19.149 2.07,6.109 4.97,11.472 8.77,16.07 3.77,4.602 8.45,8.289 14.05,11.082 5.62,2.777 12.13,4.168 19.56,4.168 14.48,0 25.41,-4.48 32.78,-13.43 7.38,-8.961 10.87,-21.308 10.52,-37.039 h -89.16 v 0" /></g></g></svg>