<?xml version="1.0" encoding="utf-8"?>
<!-- Generator: Adobe Illustrator 24.3.0, SVG Export Plug-In . SVG Version: 6.00 Build 0)  -->
<svg version="1.1" id="Ebene_1" xmlns="http://www.w3.org/2000/svg" xmlns:xlink="http://www.w3.org/1999/xlink" x="0px" y="0px"
	 viewBox="0 0 1870.15 340.21" style="enable-background:new 0 0 1870.15 340.21;" xml:space="preserve">
<style type="text/css">
	.st0{fill:#706F6F;}
	.st1{fill:#0067B2;}
</style>
<path class="st0" d="M162.56,28.35c30.83,0,50,3.38,65.41,14.28c17.67,12.41,28.2,33.84,28.2,55.64c0,17.67-4.51,29.7-12.41,43.23
	c-5.26,9.02-10.9,17.67-15.42,24.44c8.27,6.39,15.42,12.41,22.18,21.43c7.14,9.4,12.03,24.44,12.03,40.6
	c0,26.69-9.02,48.87-27.82,63.54c-17.67,13.91-41.73,20.3-81.96,20.3H28.35V28.35H162.56z M182.49,143.01
	c2.63-4.14,6.39-10.15,9.02-14.66c4.14-7.14,7.9-13.91,7.9-23.31s-3.01-16.91-10.15-20.68c-6.4-3.38-16.54-4.13-33.09-4.13H84.74
	v62.79H182.49z M84.74,259.94h69.18c23.69,0,34.59-1.88,42.48-8.65c6.77-6.02,9.02-13.16,9.02-23.31c0-12.41-4.13-21.43-14.66-27.44
	c-8.27-4.51-19.17-5.64-38.35-5.64H84.74V259.94z"/>
<path class="st0" d="M305.37,28.35h72.56l69.55,159.03l69.55-159.03h71.43v283.46h-54.89V113.69l-62.03,141.73h-49.25l-62.03-141.73
	v198.12h-54.89V28.35z"/>
<path class="st0" d="M677.88,28.35l41.36,209.4L765.85,71.2H823l45.87,166.54l42.11-209.4h56.77l-57.52,283.46h-71.43l-44.74-162.03
	l-44.73,162.03h-72.18L619.98,28.35H677.88z"/>
<g>
	<path class="st1" d="M1183.03,28.35c30.83,0,50,3.38,65.42,14.28c17.68,12.41,28.19,33.84,28.19,55.64c0,17.67-4.5,29.7-12.4,43.23
		c-5.26,9.02-10.9,17.67-15.41,24.44c8.27,6.39,15.41,12.41,22.18,21.43c7.15,9.4,12.03,24.44,12.03,40.6
		c0,26.69-9.03,48.87-27.82,63.54c-17.67,13.91-41.73,20.3-81.95,20.3h-124.44V28.35H1183.03z M1202.95,143.01
		c2.63-4.14,6.4-10.15,9.03-14.66c4.13-7.14,7.89-13.91,7.89-23.31s-3-16.91-10.15-20.68c-6.39-3.38-16.53-4.13-33.08-4.13h-71.43
		v62.79H1202.95z M1105.21,259.94h69.17c23.69,0,34.59-1.88,42.49-8.65c6.77-6.02,9.02-13.16,9.02-23.31
		c0-12.41-4.13-21.43-14.66-27.44c-8.27-4.51-19.17-5.64-38.34-5.64h-67.67V259.94z"/>
	<path class="st1" d="M1325.85,311.81V28.35h56.39v133.09l107.52-133.09h69.17l-112.41,137.22l126.32,146.24h-74.82l-115.79-135.34
		v135.34H1325.85z"/>
	<path class="st1" d="M1588.21,311.81V28.35h56.4v133.09l107.52-133.09h69.17l-112.41,137.22l126.32,146.24h-74.82l-115.79-135.34
		v135.34H1588.21z"/>
</g>
</svg>
