<?xml version="1.0" encoding="utf-8"?>
<!-- Generator: Adobe Illustrator 26.0.1, SVG Export Plug-In . SVG Version: 6.00 Build 0)  -->
<svg version="1.1" id="Ebene_1" xmlns="http://www.w3.org/2000/svg" xmlns:xlink="http://www.w3.org/1999/xlink" x="0px" y="0px"
	 viewBox="0 0 283.5 70.9" style="enable-background:new 0 0 283.5 70.9;" xml:space="preserve">
<style type="text/css">
	.st0{fill:#FFD500;}
	.st1{fill:#878787;}
</style>
<polygon class="st0" points="68.1,24.5 91.1,1.4 91.1,24.4 68.1,47.4 68.1,24.5 45.5,24.5 22.4,1.4 45,1.4 68.1,24.4 "/>
<g>
	<polygon class="st0" points="68.1,70.1 45.4,70.1 45.4,47.3 68.1,47.3 68.1,70.1 	"/>
</g>
<g>
	<path class="st1" d="M32.3,43.5h-4.7V28.3h4.7c2.4,0,4.3,0.9,4.3,3.6c0,1.9-0.9,2.9-2.5,3.5v0c2.1,0.3,3.3,1.7,3.3,3.9
		C37.4,42.6,35.2,43.5,32.3,43.5z M31.2,30.2h-1v4.4h1c1.7,0,2.8-0.3,2.8-2.2C34,30.5,32.9,30.2,31.2,30.2z M31.2,36.4h-1v5.3h1
		c1.9,0,3.5-0.4,3.5-2.6C34.7,36.9,33.1,36.4,31.2,36.4z"/>
	<path class="st1" d="M48.3,43.5l-5.3-7.4h0v7.4h-2.6V28.3h2.6V35h0l4.9-6.6H51l-5.4,7.2l5.8,8H48.3z"/>
	<path class="st1" d="M61.6,43.5l-5.3-7.4h0v7.4h-2.6V28.3h2.6V35h0l4.9-6.6h3.1L59,35.6l5.8,8H61.6z"/>
</g>
<g>
	<path class="st1" d="M259.1,54.9c0,2-1.2,2.8-3.1,2.8h-1.9v-5.6h1.4C257.6,52.1,259.1,52.5,259.1,54.9 M260.8,54.8
		c0-3.2-2-4.2-4.8-4.2h-3.5v15.2h1.7v-6.8h1.8C258.7,59.1,260.8,57.9,260.8,54.8 M246.6,59.7h-4.5l2.2-7.5h0L246.6,59.7z
		 M250.3,65.9l-4.9-15.2h-2.1l-4.9,15.2h1.7l1.5-4.7h5.4l1.5,4.7H250.3z M237.3,65.9v-1.4h-5.5V50.6h-1.7v15.2H237.3z M226.5,61
		V50.6h-1.7v10c0,2.3-0.4,4-3.2,4c-2.7,0-3-1.9-3-4v-10h-1.7V61c0,3.1,1.3,5.1,4.7,5.1C225.1,66.1,226.5,64.3,226.5,61 M214.9,54.8
		c0-2.8-2-4.4-4.7-4.4c-4.4,0-5.7,3.8-5.7,7.6c0,3.8,1.3,8.1,5.9,8.1c1.6,0,2.6-0.3,4-0.9v-1.8c-1,0.8-2.3,1.3-3.6,1.3
		c-3.6,0-4.4-3.8-4.4-6.6c0-2.6,0.5-6.2,3.9-6.2c1.8,0,2.8,1.3,2.8,3H214.9z M202.5,61.8c0-2.3-1.4-3.2-3.2-4.2l-1.4-0.8
		c-1.1-0.6-2.5-1.3-2.5-2.7c0-1.6,1.4-2.3,2.9-2.3c1.1,0,2.3,0.2,3.3,0.7v-1.7c-1.1-0.2-2.1-0.4-3.2-0.4c-2.5,0-4.9,1.1-4.9,3.9
		c0,2.2,1.6,3,3.3,4l1.3,0.8c1.3,0.7,2.5,1.4,2.5,3.1c0,1.9-1.7,2.6-3.3,2.6c-1.3,0-2.5-0.3-3.7-0.8v1.8c1.1,0.3,2.3,0.5,3.5,0.5
		C200,66.1,202.5,65,202.5,61.8 M191.8,65.9v-1.4H186v-5.8h5.4v-1.4H186v-5.1h5.7v-1.4h-7.4v15.2H191.8z M178.5,59.7H174l2.2-7.5h0
		L178.5,59.7z M182.2,65.9l-4.9-15.2h-2.1l-4.9,15.2h1.7l1.5-4.7h5.4l1.5,4.7H182.2z M165.4,47.5h-1.1v22.5h1.1V47.5z M157.7,65.9
		V50.6h-1.6v12.9h0l-6.3-12.9h-2.2v15.2h1.6V53h0l6.3,12.8H157.7z M143.9,61V50.6h-1.7v10c0,2.3-0.4,4-3.2,4c-2.7,0-3-1.9-3-4v-10
		h-1.7V61c0,3.1,1.3,5.1,4.7,5.1C142.6,66.1,143.9,64.3,143.9,61 M128.6,59.7h-4.5l2.2-7.5h0L128.6,59.7z M132.4,65.9l-4.9-15.2
		h-2.1l-4.9,15.2h1.7l1.5-4.7h5.4l1.5,4.7H132.4z M117.2,54.7c0,2.5-2.2,3-4.2,3h-1v-5.6h1.3C115.2,52.1,117.2,52.1,117.2,54.7
		 M119.3,65.9l-0.9-4.2c-0.4-1.8-0.6-2.8-2.6-3.4v0c2.1-0.5,3.1-1.6,3.1-3.8c0-2.9-2.4-3.8-4.9-3.8h-3.8v15.2h1.7v-6.8h1.6
		c2.4,0,2.8,1.2,3.3,3.3l0.8,3.5H119.3z M105.6,61.6c0,2.2-1.6,2.9-3.5,2.9h-2v-5.8h2.2C104.1,58.6,105.6,59.6,105.6,61.6
		 M104.9,54.5c0,2.1-1.4,2.7-3.3,2.7h-1.5v-5.1h1.7C103.5,52.1,104.9,52.5,104.9,54.5 M107.3,61.7c0-2.1-0.9-3.4-2.9-3.9v0
		c1.5-0.5,2.2-1.8,2.2-3.4c0-2.5-1.8-3.8-4.2-3.8h-4v15.2h4C105.2,65.9,107.3,64.7,107.3,61.7 M92.6,63.7h-2.2v2.2h2.2V63.7z
		 M86.8,61.6c0,2.2-1.6,2.9-3.5,2.9h-2v-5.8h2.2C85.4,58.6,86.8,59.6,86.8,61.6 M86.1,54.5c0,2.1-1.4,2.7-3.3,2.7h-1.5v-5.1h1.7
		C84.8,52.1,86.1,52.5,86.1,54.5 M88.6,61.7c0-2.1-0.9-3.4-2.9-3.9v0c1.5-0.5,2.2-1.8,2.2-3.4c0-2.5-1.8-3.8-4.2-3.8h-4v15.2h4
		C86.4,65.9,88.6,64.7,88.6,61.7"/>
</g>
</svg>
