<svg id="Ebene_1" data-name="Ebene 1" xmlns="http://www.w3.org/2000/svg" xmlns:xlink="http://www.w3.org/1999/xlink" viewBox="0 0 187 34.76"><defs><style>.cls-1{fill:none;}.cls-2{clip-path:url(#clip-path);}.cls-3{fill:#004b96;}.cls-4{fill:#1d1d1b;}.cls-5,.cls-6{fill:#fff;}.cls-6{fill-rule:evenodd;}</style><clipPath id="clip-path" transform="translate(0 0)"><rect class="cls-1" width="187" height="34.77"/></clipPath></defs><title>concordia_quer_rgb</title><g id="Logo_quer_RGB" data-name="Logo quer RGB"><g class="cls-2"><g class="cls-2"><path class="cls-3" d="M50.41,17.82a.49.49,0,0,1-.18.19,14,14,0,0,1-5.1.93c-5.09,0-9.31-3.49-9.31-8.78,0-5.71,4.33-8.66,9.24-8.66a14.3,14.3,0,0,1,5.12.93.5.5,0,0,1,.18.2c0,1.15.19,2.83.28,4.07a2.88,2.88,0,0,1-.51.1c-.3,0-.42,0-.49-.29A4.1,4.1,0,0,0,45.41,3c-3.59,0-5.09,2.9-5.09,6.63,0,4.66,2.32,7.78,5.65,7.78,2.2,0,3.24-1.34,3.91-3.51.07-.24.21-.29.51-.27a2.49,2.49,0,0,1,.49.1c-.16,1.24-.35,2.92-.46,4.07" transform="translate(0 0)"/><path class="cls-3" d="M61.41,18.94a8.53,8.53,0,0,1-8.82-8.73,8.35,8.35,0,0,1,8.75-8.71,8.57,8.57,0,0,1,8.82,8.78c0,5.14-3.61,8.66-8.75,8.66m-.28-16c-3.06,0-4.08,3.56-4.08,6.88,0,3.51,1.34,7.75,4.59,7.75,3.06,0,4.05-3.53,4.05-6.85,0-3.51-1.32-7.78-4.56-7.78" transform="translate(0 0)"/><path class="cls-3" d="M88.65,2.85,87.86,3c-.79.15-.95.93-.95,4v6.44c0,2.12.12,4.15.23,5.22a17.51,17.51,0,0,1-2.43.07.47.47,0,0,1-.44-.27,23.41,23.41,0,0,0-1.41-2L75.17,6.85h0l.09,5.66c0,3.88.26,4.76,1.37,4.95l1,.17c.23,0,.28.2.28.49a2.42,2.42,0,0,1-.07.46c-1.16,0-2.11-.07-3.24-.07s-2.06,0-3.22.07a2.42,2.42,0,0,1-.07-.46c0-.29.07-.44.3-.49l.81-.15c.79-.15.93-.93.93-4V5.29a2.73,2.73,0,0,0-.39-1.66A1.57,1.57,0,0,0,71.79,3l-.62-.1c-.23,0-.3-.2-.3-.49a3,3,0,0,1,.07-.51c1.11,0,2,.07,2.92.07,1.11,0,2,0,3-.07a.79.79,0,0,1,.25.12,26.16,26.16,0,0,0,2.08,3L85,12.36h0L85,8C84.95,4.1,84.76,3.22,83.65,3l-1-.17c-.23,0-.3-.2-.3-.49a2.42,2.42,0,0,1,.07-.46c1.16,0,2.13.07,3.27.07s2,0,3.2-.07a2.41,2.41,0,0,1,.07.46c0,.29-.07.44-.3.49" transform="translate(0 0)"/><path class="cls-3" d="M104.47,17.82a.48.48,0,0,1-.19.19,13.94,13.94,0,0,1-5.09.93c-5.09,0-9.31-3.49-9.31-8.78,0-5.71,4.33-8.66,9.24-8.66a14.3,14.3,0,0,1,5.12.93.5.5,0,0,1,.18.2c0,1.15.19,2.83.28,4.07a2.85,2.85,0,0,1-.51.1c-.3,0-.42,0-.49-.29A4.1,4.1,0,0,0,99.47,3c-3.59,0-5.1,2.9-5.1,6.63,0,4.66,2.32,7.78,5.65,7.78,2.2,0,3.24-1.34,3.91-3.51.07-.24.21-.29.51-.27a2.53,2.53,0,0,1,.49.1c-.16,1.24-.35,2.92-.46,4.07" transform="translate(0 0)"/><path class="cls-3" d="M115.47,18.94a8.53,8.53,0,0,1-8.82-8.73,8.35,8.35,0,0,1,8.75-8.71,8.57,8.57,0,0,1,8.82,8.78c0,5.14-3.61,8.66-8.75,8.66m-.28-16c-3.06,0-4.08,3.56-4.08,6.88,0,3.51,1.34,7.75,4.59,7.75,3.06,0,4.05-3.53,4.05-6.85,0-3.51-1.32-7.78-4.56-7.78" transform="translate(0 0)"/><path class="cls-3" d="M142.25,18.58c-.39,0-2-.1-2.76-.1s-2.13,0-2.94.07c-1.39-1.58-2.87-4.56-4.24-7.36a1,1,0,0,0-.16-.15h-.72a.33.33,0,0,0-.12.2v4c0,1.68,0,2.17.58,2.27l.83.14c.23,0,.28.2.28.49a2.49,2.49,0,0,1,0,.46c-1.18,0-2.57-.07-3.7-.07s-2.59,0-3.77.07a2.58,2.58,0,0,1,0-.46c0-.29,0-.44.28-.49l.83-.14c.58-.1.6-.59.6-2.27V5.26c0-1.68,0-2.17-.6-2.27l-.83-.15c-.23,0-.28-.2-.28-.49a2.57,2.57,0,0,1,0-.46c1.18,0,2.06.07,3.2.07C130.3,2,133,1.8,134,1.8c3.41,0,5.49,1.56,5.49,4.41a4.23,4.23,0,0,1-3.08,3.93c0,.1,0,.1,0,.2a49.15,49.15,0,0,0,2.8,4.58c1.39,2.05,1.81,2.51,2.5,2.63l.37.07c.23,0,.28.2.28.49a2.51,2.51,0,0,1-.07.46M132.52,3.12a2.49,2.49,0,0,0-.95.17,5.75,5.75,0,0,0-.26,2.39v4a.23.23,0,0,0,.12.14h1.07c1.48,0,2.66-1,2.66-3.19,0-2.63-1.32-3.49-2.64-3.49" transform="translate(0 0)"/><path class="cls-3" d="M158.26,16A8.3,8.3,0,0,1,152,18.51h-5.7c-1.18,0-2.64,0-3.29.07a2.48,2.48,0,0,1,0-.46c0-.29,0-.44.28-.49l.83-.15c.58-.1.6-.59.6-2.27v-10c0-1.68,0-2.17-.6-2.27l-.83-.15c-.23,0-.28-.17-.28-.46a2.76,2.76,0,0,1,0-.49c.55,0,2.06.1,3.08.1,1.85,0,3.43-.29,5.47-.29a9,9,0,0,1,6.72,2.46,8.41,8.41,0,0,1,2.2,6,8.57,8.57,0,0,1-2.25,5.9M150.94,3.22a6,6,0,0,0-1.88.27c-.12.22-.19.44-.19,2.07v8.76c0,2.19.28,2.68,1.16,2.68h1.43c2.13,0,4.54-1.63,4.54-6.41,0-5.12-2.27-7.36-5.07-7.36" transform="translate(0 0)"/><path class="cls-3" d="M169.33,18.58c-1.18,0-2.57-.07-3.71-.07s-2.59,0-3.77.07a2.58,2.58,0,0,1,0-.46c0-.29,0-.44.28-.49l.83-.15c.58-.1.6-.59.6-2.27V5.26c0-1.68,0-2.17-.6-2.27l-.83-.14c-.23,0-.28-.2-.28-.49a2.58,2.58,0,0,1,0-.46c1.18,0,2.57.07,3.71.07s2.59,0,3.77-.07a2.58,2.58,0,0,1,0,.46c0,.29,0,.44-.28.49l-.83.14c-.58.1-.58.59-.58,2.27v9.95c0,1.68,0,2.17.58,2.27l.83.15c.23,0,.28.2.28.49a2.58,2.58,0,0,1,0,.46" transform="translate(0 0)"/><path class="cls-3" d="M186.93,18.58c-1.14,0-2.71-.07-3.8-.07s-2.8,0-3.94.07a2.51,2.51,0,0,1-.07-.46c0-.29,0-.44.28-.49l.7-.12c.49-.1.7-.24.7-.58a13.41,13.41,0,0,0-.63-2.22l-.53-1.59a.29.29,0,0,0-.19-.15h-4.61c-.09,0-.12.07-.16.15l-.49,1.59c-.51,1.68-.33,2.66.55,2.8l.74.12c.23,0,.28.2.28.49a2.42,2.42,0,0,1-.07.46c-1.13,0-1.74-.07-2.8-.07s-1.53,0-2.66.07a2.42,2.42,0,0,1-.07-.46c0-.29,0-.44.28-.49l.33-.07c.6-.15,1-.76,1.64-2.88l3.2-9.95a3.63,3.63,0,0,0,.18-1,.88.88,0,0,0,0-.25c.21-.51.7-.49,2-1.2s1.32-1,1.78-1a.57.57,0,0,1,.42.2,32.35,32.35,0,0,0,1.23,3.73l3.5,9.46c.79,2.17,1,2.71,1.64,2.85l.37.1c.23,0,.3.2.3.49a2.34,2.34,0,0,1-.07.46M177.06,5.29H177l-1.78,6a.32.32,0,0,0,.14.17h3.59a.32.32,0,0,0,.14-.17Z" transform="translate(0 0)"/><polygon class="cls-4" points="45.64 22.89 46.74 22.89 43.02 32.02 41.83 32.02 38.35 22.89 39.64 22.89 42.54 30.55 45.64 22.89"/><path class="cls-4" d="M56.49,30.33h1.09v.06a1.49,1.49,0,0,1-.34.89,2.14,2.14,0,0,1-.9.69,3.31,3.31,0,0,1-1.29.24,2.79,2.79,0,0,1-2.28-1,4.16,4.16,0,0,1,0-5,2.89,2.89,0,0,1,3.52-.67,2.28,2.28,0,0,1,.94,1,4.3,4.3,0,0,1,.35,1.91v.36H53.05a2.67,2.67,0,0,0,.55,1.74,1.86,1.86,0,0,0,1.53.68,1.55,1.55,0,0,0,1-.28.81.81,0,0,0,.32-.62ZM53.12,28h3.46v-.13a2,2,0,0,0-.21-.89,1.44,1.44,0,0,0-.59-.64,1.79,1.79,0,0,0-.88-.21,1.55,1.55,0,0,0-1.1.49A2.48,2.48,0,0,0,53.12,28" transform="translate(0 0)"/><path class="cls-4" d="M64.82,32H63.72V25.45h1.09v1.16a2.72,2.72,0,0,1,.61-.78,2.48,2.48,0,0,1,.7-.42,2.07,2.07,0,0,1,.76-.14,1.65,1.65,0,0,1,.6.1V26.5a2,2,0,0,0-.84-.19,1.82,1.82,0,0,0-1.23.54,2.53,2.53,0,0,0-.59,1.92Z" transform="translate(0 0)"/><path class="cls-4" d="M72.47,30.29h1.09v0a.89.89,0,0,0,.32.7,1.66,1.66,0,0,0,1.09.28A1.71,1.71,0,0,0,76.06,31a1,1,0,0,0,.42-.78q0-.61-.82-.86l-.56-.17L74.73,29,74,28.8a1.66,1.66,0,0,1-1.29-1.58,1.82,1.82,0,0,1,.63-1.37,2.62,2.62,0,0,1,1.86-.59,2.43,2.43,0,0,1,1.73.5,1.53,1.53,0,0,1,.52,1.11v0h-1.1v0a.58.58,0,0,0-.33-.52,1.77,1.77,0,0,0-.88-.19,1.59,1.59,0,0,0-1,.27.83.83,0,0,0-.35.67.62.62,0,0,0,.22.5,2.09,2.09,0,0,0,.76.34l.53.15.38.11a8.94,8.94,0,0,1,1,.32,2.47,2.47,0,0,1,.39.24,1.3,1.3,0,0,1,.41.51,1.74,1.74,0,0,1,.13.7,2.08,2.08,0,0,1-.66,1.56A2.71,2.71,0,0,1,75,32.2,3.26,3.26,0,0,1,73.63,32a2.12,2.12,0,0,1-.85-.67,1.61,1.61,0,0,1-.32-1Z" transform="translate(0 0)"/><path class="cls-4" d="M83.51,22.89H84.6V24H83.51Zm0,2.56H84.6V32H83.51Z" transform="translate(0 0)"/><path class="cls-4" d="M95,30.33h1.1v.06a1.48,1.48,0,0,1-.34.89,2.16,2.16,0,0,1-.88.69,3.25,3.25,0,0,1-1.31.24,2.81,2.81,0,0,1-2.26-.92,3.79,3.79,0,0,1-.79-2.55,3.78,3.78,0,0,1,.79-2.55,2.82,2.82,0,0,1,2.26-.92,3.25,3.25,0,0,1,1.31.24,2.28,2.28,0,0,1,.88.65,1.43,1.43,0,0,1,.34.92v.06H95v-.06a.74.74,0,0,0-.32-.63,1.65,1.65,0,0,0-1-.27,1.84,1.84,0,0,0-1.4.61,2.79,2.79,0,0,0-.57,1.95,2.81,2.81,0,0,0,.57,2,1.84,1.84,0,0,0,1.4.61,1.62,1.62,0,0,0,1-.27.8.8,0,0,0,.33-.63Z" transform="translate(0 0)"/><path class="cls-4" d="M103,32h-1.09v-9.5H103v4.06a3.28,3.28,0,0,1,.67-.79,2.5,2.5,0,0,1,.68-.39,2.25,2.25,0,0,1,.79-.13,2.39,2.39,0,0,1,1.11.25,1.79,1.79,0,0,1,.76.75,3.42,3.42,0,0,1,.27,1.57V32H106.2V28.31a4.56,4.56,0,0,0-.12-1.25,1,1,0,0,0-.45-.58,1.38,1.38,0,0,0-.75-.21,1.66,1.66,0,0,0-.92.28,2,2,0,0,0-.7.79,3.21,3.21,0,0,0-.26,1.45Z" transform="translate(0 0)"/><path class="cls-4" d="M117.64,30.33h1.09v.06a1.49,1.49,0,0,1-.34.89,2.14,2.14,0,0,1-.9.69,3.3,3.3,0,0,1-1.29.24,2.79,2.79,0,0,1-2.28-1,4.16,4.16,0,0,1,0-5,2.89,2.89,0,0,1,3.52-.67,2.28,2.28,0,0,1,.94,1,4.3,4.3,0,0,1,.35,1.91v.36H114.2a2.67,2.67,0,0,0,.55,1.74,1.86,1.86,0,0,0,1.53.68,1.55,1.55,0,0,0,1-.28.81.81,0,0,0,.32-.62ZM114.27,28h3.46v-.13a2,2,0,0,0-.21-.89,1.43,1.43,0,0,0-.59-.64,1.79,1.79,0,0,0-.88-.21,1.55,1.55,0,0,0-1.1.49,2.48,2.48,0,0,0-.66,1.38" transform="translate(0 0)"/><path class="cls-4" d="M126,32h-1.09V25.45H126v1.16a2.74,2.74,0,0,1,.61-.78,2.46,2.46,0,0,1,.7-.42,2.07,2.07,0,0,1,.76-.14,1.65,1.65,0,0,1,.6.1V26.5a2,2,0,0,0-.84-.19,1.82,1.82,0,0,0-1.23.54,2.52,2.52,0,0,0-.59,1.92Z" transform="translate(0 0)"/><path class="cls-4" d="M138.28,25.45h1.09V32h-1.09V30.87a3.32,3.32,0,0,1-.68.79,2.62,2.62,0,0,1-.69.4,2.13,2.13,0,0,1-.77.14,2.44,2.44,0,0,1-1.57-.52,2.59,2.59,0,0,1-.64-2.08V25.45H135v3.71q0,1.44.39,1.74a1.53,1.53,0,0,0,1,.3,1.69,1.69,0,0,0,.94-.29,2,2,0,0,0,.7-.8,3.23,3.23,0,0,0,.26-1.43Z" transform="translate(0 0)"/><path class="cls-4" d="M146.64,32h-1.09V25.45h1.09v1.14a3.28,3.28,0,0,1,.67-.79,2.5,2.5,0,0,1,.68-.39,2.25,2.25,0,0,1,.79-.13,2.39,2.39,0,0,1,1.11.25,1.79,1.79,0,0,1,.76.75,3.42,3.42,0,0,1,.27,1.57V32h-1.09V28.31a4.56,4.56,0,0,0-.12-1.25,1,1,0,0,0-.46-.58,1.4,1.4,0,0,0-.74-.21,1.66,1.66,0,0,0-.92.28,2,2,0,0,0-.7.79,3.21,3.21,0,0,0-.26,1.45Z" transform="translate(0 0)"/><path class="cls-4" d="M161.61,30.63a2.5,2.5,0,0,1-.87,1,2.29,2.29,0,0,1-1.27.35,2.41,2.41,0,0,1-1.94-.92,3.67,3.67,0,0,1-.76-2.42,4.58,4.58,0,0,1,.34-1.8,2.57,2.57,0,0,1,1-1.21,2.61,2.61,0,0,1,1.45-.4,2.46,2.46,0,0,1,1.11.24,2.81,2.81,0,0,1,1,1V25.45h1.09v5.37a5.52,5.52,0,0,1-.42,2.67,2.65,2.65,0,0,1-1.08,1,3.51,3.51,0,0,1-1.53.31,4.15,4.15,0,0,1-1.46-.24,2.2,2.2,0,0,1-1-.66,1.38,1.38,0,0,1-.34-.87v-.1H158V33a.78.78,0,0,0,.47.7,2.45,2.45,0,0,0,1.2.26,2.31,2.31,0,0,0,1-.2,1.54,1.54,0,0,0,.68-.66,3.7,3.7,0,0,0,.26-1.66Zm0-2.1a2.58,2.58,0,0,0-.54-1.71,1.65,1.65,0,0,0-2.63,0,2.88,2.88,0,0,0-.53,1.85,3.74,3.74,0,0,0,.21,1.32,1.69,1.69,0,0,0,.66.86,1.74,1.74,0,0,0,1,.29,1.58,1.58,0,0,0,1.35-.73,3.2,3.2,0,0,0,.52-1.89" transform="translate(0 0)"/><path class="cls-4" d="M173.13,30.33h1.09v.06a1.49,1.49,0,0,1-.34.89,2.14,2.14,0,0,1-.9.69,3.3,3.3,0,0,1-1.29.24,2.79,2.79,0,0,1-2.28-1,4.16,4.16,0,0,1,0-5,2.89,2.89,0,0,1,3.52-.67,2.28,2.28,0,0,1,.94,1,4.3,4.3,0,0,1,.35,1.91v.36h-4.57a2.67,2.67,0,0,0,.55,1.74,1.86,1.86,0,0,0,1.53.68,1.55,1.55,0,0,0,1-.28.81.81,0,0,0,.32-.62ZM169.76,28h3.46v-.13A2,2,0,0,0,173,27a1.43,1.43,0,0,0-.59-.64,1.79,1.79,0,0,0-.88-.21,1.55,1.55,0,0,0-1.1.49,2.48,2.48,0,0,0-.66,1.38" transform="translate(0 0)"/><path class="cls-4" d="M181.45,32h-1.09V25.45h1.09v1.14a3.31,3.31,0,0,1,.67-.79,2.5,2.5,0,0,1,.68-.39,2.25,2.25,0,0,1,.79-.13,2.39,2.39,0,0,1,1.11.25,1.79,1.79,0,0,1,.76.75,3.42,3.42,0,0,1,.27,1.57V32h-1.09V28.31a4.61,4.61,0,0,0-.12-1.25,1,1,0,0,0-.46-.58,1.4,1.4,0,0,0-.74-.21,1.66,1.66,0,0,0-.92.28,2,2,0,0,0-.7.79,3.21,3.21,0,0,0-.26,1.45Z" transform="translate(0 0)"/><path class="cls-3" d="M0,.63V17.91C.15,25.77,6.25,31.4,14.95,33.76c8.3-2.43,14.7-8,14.95-15.85V.63S22.39,0,14.95,0,0,.63,0,.63" transform="translate(0 0)"/><polygon class="cls-5" points="15.39 19.39 21.05 24.72 24.94 20.78 19.44 15.6 15.43 19.38 15.39 19.39"/><path class="cls-6" d="M8.9,11.59l-1-2.54a1.48,1.48,0,0,1-.06-.23c0-.28.06-.49.29-.49.39,0,.49.39.56.47a7.86,7.86,0,0,1,1.21,3.14,2.54,2.54,0,0,1-.29,1.52.59.59,0,0,0-.07.29c0,.16.1.15.22.31l.7.68,4.07-3.86L11.12,7.64C9.9,6.47,9.81,6.17,8.5,5.84a3.48,3.48,0,0,0-2.6.73A9.67,9.67,0,0,1,4,8c-.14.05-.26.11-.29.27a.54.54,0,0,0,.07.37c.07.16.16.2.27.33l4.18,4,.67-.9a.41.41,0,0,0,0-.42" transform="translate(0 0)"/><path class="cls-6" d="M21,11.59l1-2.54a1.48,1.48,0,0,0,.06-.23c0-.28-.06-.49-.29-.49-.39,0-.49.39-.56.47A7.89,7.89,0,0,0,20,11.94a2.56,2.56,0,0,0,.29,1.52.59.59,0,0,1,.07.29c0,.16-.1.15-.22.31L8.83,24.73,5.18,20.67l13.6-13C20,6.47,20.08,6.23,21.39,5.9a3.47,3.47,0,0,1,2.6.67A11.88,11.88,0,0,0,25.93,8c.14.06.26.11.29.27a.54.54,0,0,1-.07.37c-.07.16-.16.2-.27.33l-4.18,4L21,12a.41.41,0,0,1,0-.42" transform="translate(0 0)"/><path class="cls-5" d="M14.94,32.49l-.17,0c-8.39-2.3-13.47-7.8-13.6-14.7v-16l.57,0c.07,0,6.64-.56,13.11-.56H15c6.5,0,13.14.56,13.21.56l.57,0V17.73c-.21,6.76-5.3,12.25-13.61,14.71ZM2.42,2.94V17.73C2.54,24,7.21,29,14.93,31.18c7.67-2.32,12.35-7.35,12.54-13.47V2.94c-1.74-.13-7.18-.51-12.53-.51h-.1c-5.31,0-10.69.38-12.43.51" transform="translate(0 0)"/></g></g></g></svg>