<?xml version="1.0" encoding="utf-8"?>
<!-- Generator: Adobe Illustrator 18.0.0, SVG Export Plug-In . SVG Version: 6.00 Build 0)  -->
<!DOCTYPE svg PUBLIC "-//W3C//DTD SVG 1.1//EN" "http://www.w3.org/Graphics/SVG/1.1/DTD/svg11.dtd">
<svg version="1.1" xmlns="http://www.w3.org/2000/svg" xmlns:xlink="http://www.w3.org/1999/xlink" x="0px" y="0px"
	 viewBox="0 0 113.4 113.4" enable-background="new 0 0 113.4 113.4" xml:space="preserve">
<g id="Ebene_1" display="none">
	<g display="inline">
		<defs>
			<rect id="SVGID_1_" x="-124.1" y="-18.5" width="301.7" height="144.7"/>
		</defs>
		<clipPath id="SVGID_2_">
			<use xlink:href="#SVGID_1_"  overflow="visible"/>
		</clipPath>
		<g clip-path="url(#SVGID_2_)">
			<defs>
				<rect id="SVGID_3_" x="-124.1" y="-18.5" width="301.7" height="144.7"/>
			</defs>
			<clipPath id="SVGID_4_">
				<use xlink:href="#SVGID_3_"  overflow="visible"/>
			</clipPath>
			
				<linearGradient id="SVGID_5_" gradientUnits="userSpaceOnUse" x1="-221.8109" y1="192.0685" x2="-221.2734" y2="192.0685" gradientTransform="matrix(434.9772 434.9772 -434.9772 434.9772 179938.7188 12875.0098)">
				<stop  offset="0" style="stop-color:#666564"/>
				<stop  offset="9.911732e-02" style="stop-color:#777776"/>
				<stop  offset="0.2251" style="stop-color:#898A8A"/>
				<stop  offset="0.3064" style="stop-color:#8F9191"/>
				<stop  offset="0.4997" style="stop-color:#AEADAE"/>
				<stop  offset="0.6204" style="stop-color:#BCBABB"/>
				<stop  offset="0.7253" style="stop-color:#B5B3B4"/>
				<stop  offset="0.8575" style="stop-color:#A2A1A1"/>
				<stop  offset="0.9998" style="stop-color:#868686"/>
				<stop  offset="1" style="stop-color:#868686"/>
			</linearGradient>
			<polygon clip-path="url(#SVGID_4_)" fill="url(#SVGID_5_)" points="-196.5,53.9 26.7,277.1 249.9,53.9 26.7,-169.3 			"/>
		</g>
		<g clip-path="url(#SVGID_2_)">
			<defs>
				<rect id="SVGID_6_" x="-124.1" y="-18.5" width="301.7" height="144.7"/>
			</defs>
			<clipPath id="SVGID_7_">
				<use xlink:href="#SVGID_6_"  overflow="visible"/>
			</clipPath>
			<g clip-path="url(#SVGID_7_)">
				<g>
					<defs>
						<rect id="SVGID_8_" x="-168" y="-28.5" width="397.7" height="392.3"/>
					</defs>
					<clipPath id="SVGID_9_">
						<use xlink:href="#SVGID_8_"  overflow="visible"/>
					</clipPath>
					<g clip-path="url(#SVGID_9_)">
						<defs>
							<rect id="SVGID_10_" x="-124.8" y="-19" width="302.9" height="145.9"/>
						</defs>
						<clipPath id="SVGID_11_">
							<use xlink:href="#SVGID_10_"  overflow="visible"/>
						</clipPath>
						<g clip-path="url(#SVGID_11_)">
							<defs>
								<rect id="SVGID_12_" x="-124.8" y="-19" width="302.9" height="145.9"/>
							</defs>
							<clipPath id="SVGID_13_">
								<use xlink:href="#SVGID_12_"  overflow="visible"/>
							</clipPath>
							<g clip-path="url(#SVGID_13_)">
								
									<image overflow="visible" width="1174" height="566" xlink:href="EAD61B8C4E1E8626.jpg"  transform="matrix(-0.258 0 0 -0.2578 178.1214 126.8779)">
								</image>
							</g>
						</g>
					</g>
				</g>
			</g>
		</g>
	</g>
</g>
<g id="Grau">
	<rect fill="#FFFFFF" width="113.4" height="113.4"/>
</g>
<g id="Logo_weiss" display="none">
	<g display="inline">
		<path fill="#FFFFFF" d="M7.9,48.7v13.7h2c2.8,0,3.7-0.1,4.8-0.7c2-1,3.2-3.3,3.2-6.1c0-2.7-1.2-5-3.1-6.1
			c-1.1-0.6-2.2-0.8-4.8-0.8H7.9L7.9,48.7z M9.4,61V50H10c2.4,0,3,0.1,3.9,0.6c1.5,0.8,2.4,2.6,2.4,4.9c0,2.2-0.8,4-2.2,4.8
			c-0.9,0.6-1.6,0.7-3.7,0.7H9.4L9.4,61z M21.2,55.2c0.2-1.1,0.9-1.6,2.2-1.6c1.5,0,2,0.5,2,2V56c-1.8,0.3-2.7,0.5-3.7,0.9
			c-1.5,0.6-2.3,1.6-2.3,2.9c0,1.7,1.2,2.8,3.1,2.8c1.4,0,2.3-0.5,2.9-1.6c0.1,0.6,0.1,0.9,0.2,1.3H27c-0.2-0.7-0.3-1-0.3-2.6v-3.7
			c0-1.2,0-1.7-0.2-2.2c-0.4-1-1.5-1.6-3.1-1.6c-2.2,0-3.4,1-3.6,2.8H21.2L21.2,55.2z M25.4,58.1c0,1-0.1,1.7-0.4,2.1
			c-0.4,0.8-1.2,1.2-2.2,1.2c-1.1,0-1.9-0.7-1.9-1.7c0-1.3,1.2-2,4.4-2.6V58.1L25.4,58.1z M29.2,52.6v9.7h1.5v-9.7H29.2L29.2,52.6z
			 M30,48.5c-0.6,0-1.1,0.5-1.1,1.1c0,0.6,0.5,1,1,1c0.6,0,1-0.5,1-1C31,48.9,30.6,48.5,30,48.5L30,48.5z M33,52.6
			c0.2,0.8,0.2,1,0.2,3v6.7h1.4v-5.7c0-0.9,0.1-1.5,0.4-1.9c0.4-0.7,1.1-1.1,2-1.1c0.8,0,1.4,0.3,1.6,0.9c0.2,0.4,0.2,0.6,0.2,2.1
			v5.7h1.4v-5.7c0-0.9,0.1-1.4,0.4-1.9c0.4-0.7,1-1.1,1.9-1.1c0.8,0,1.3,0.2,1.6,0.7c0.2,0.4,0.3,0.7,0.3,2v6H46v-6
			c0-1.8,0-2.2-0.4-2.8c-0.5-0.8-1.3-1.3-2.5-1.3c-1.4,0-2.3,0.5-3,1.7c-0.5-1.2-1.3-1.7-2.7-1.7c-1.4,0-2.2,0.5-2.8,1.6
			c0-0.5-0.1-1-0.2-1.3H33L33,52.6z M48.5,48.6v13.8H50V48.6H48.5L48.5,48.6z M60.1,57.7c0-0.2,0-0.3,0-0.4c0-3-1.6-5-3.9-5
			c-2.5,0-4.2,2.1-4.2,5.2c0,3.1,1.6,5,4.3,5c1.8,0,3-0.9,3.6-2.5l-1.3-0.2c-0.6,1.1-1.2,1.5-2.3,1.5c-1.8,0-2.8-1.3-2.8-3.6H60.1
			L60.1,57.7z M53.5,56.6c0.3-2,1.2-3,2.6-3c1.5,0,2.3,1.1,2.5,3H53.5L53.5,56.6z M61.9,52.6c0.1,0.9,0.2,1.1,0.2,3.3v6.4h1.5V58
			c0-1.3,0.1-2.1,0.4-2.8c0.4-0.9,1.1-1.5,1.9-1.5c0.4,0,0.6,0.1,1.3,0.4v-1.4c-0.4-0.2-0.8-0.3-1.2-0.3c-1,0-1.8,0.7-2.5,2.4
			c0-0.3,0-0.5,0-0.6c0-0.5-0.1-1-0.2-1.5H61.9L61.9,52.6z M70.2,48.7v13.7h3.2c2.4,0,3-0.1,4-0.3c1.5-0.5,2.5-1.9,2.5-3.6
			c0-1.8-1-3-3-3.4c1.6-0.5,2.3-1.4,2.3-2.9c0-1.5-0.8-2.7-2.1-3.1c-0.7-0.3-1.6-0.3-3.2-0.3H70.2L70.2,48.7z M72.8,54.2v-3.4h1
			c1.1,0,1.6,0.1,2,0.2c0.5,0.2,0.8,0.8,0.8,1.4c0,0.7-0.3,1.3-0.9,1.5c-0.4,0.2-0.9,0.2-1.9,0.2H72.8L72.8,54.2z M72.8,60.2v-4H74
			c1.2,0,1.7,0.1,2.2,0.2c0.7,0.3,1,0.9,1,1.7c0,0.8-0.3,1.4-0.9,1.7c-0.5,0.2-0.9,0.3-2.4,0.3H72.8L72.8,60.2z M89.4,48.7l-5,6.4
			l5,7.3h3.3L87.3,55l5.1-6.3H89.4L89.4,48.7z M81.7,48.7v13.7h2.6V48.7H81.7L81.7,48.7z M101.7,48.7l-5,6.4l5,7.3h3.3L99.6,55
			l5.1-6.3H101.7L101.7,48.7z M94,48.7v13.7h2.6V48.7H94L94,48.7z"/>
	</g>
</g>
<g id="Logo_schwarz">
	<g>
		<path d="M7.9,48.7v13.7h2c2.8,0,3.7-0.1,4.8-0.7c2-1,3.2-3.3,3.2-6.1c0-2.7-1.2-5-3.1-6.1c-1.1-0.6-2.2-0.8-4.8-0.8H7.9L7.9,48.7z
			 M9.4,61V50H10c2.4,0,3,0.1,3.9,0.6c1.5,0.8,2.4,2.6,2.4,4.9c0,2.2-0.8,4-2.2,4.8c-0.9,0.6-1.6,0.7-3.7,0.7H9.4L9.4,61z
			 M21.2,55.2c0.2-1.1,0.9-1.6,2.2-1.6c1.5,0,2,0.5,2,2V56c-1.8,0.3-2.7,0.5-3.7,0.9c-1.5,0.6-2.3,1.6-2.3,2.9
			c0,1.7,1.2,2.8,3.1,2.8c1.4,0,2.3-0.5,2.9-1.6c0.1,0.6,0.1,0.9,0.2,1.3H27c-0.2-0.7-0.3-1-0.3-2.6v-3.7c0-1.2,0-1.7-0.2-2.2
			c-0.4-1-1.5-1.6-3.1-1.6c-2.2,0-3.4,1-3.6,2.8H21.2L21.2,55.2z M25.4,58.1c0,1-0.1,1.7-0.4,2.1c-0.4,0.8-1.2,1.2-2.2,1.2
			c-1.1,0-1.9-0.7-1.9-1.7c0-1.3,1.2-2,4.4-2.6V58.1L25.4,58.1z M29.2,52.6v9.7h1.5v-9.7H29.2L29.2,52.6z M30,48.5
			c-0.6,0-1.1,0.5-1.1,1.1c0,0.6,0.5,1,1,1c0.6,0,1-0.5,1-1C31,48.9,30.6,48.5,30,48.5L30,48.5z M33,52.6c0.2,0.8,0.2,1,0.2,3v6.7
			h1.4v-5.7c0-0.9,0.1-1.5,0.4-1.9c0.4-0.7,1.1-1.1,2-1.1c0.8,0,1.4,0.3,1.6,0.9c0.2,0.4,0.2,0.6,0.2,2.1v5.7h1.4v-5.7
			c0-0.9,0.1-1.4,0.4-1.9c0.4-0.7,1-1.1,1.9-1.1c0.8,0,1.3,0.2,1.6,0.7c0.2,0.4,0.3,0.7,0.3,2v6H46v-6c0-1.8,0-2.2-0.4-2.8
			c-0.5-0.8-1.3-1.3-2.5-1.3c-1.4,0-2.3,0.5-3,1.7c-0.5-1.2-1.3-1.7-2.7-1.7c-1.4,0-2.2,0.5-2.8,1.6c0-0.5-0.1-1-0.2-1.3H33L33,52.6
			z M48.5,48.6v13.8H50V48.6H48.5L48.5,48.6z M60.1,57.7c0-0.2,0-0.3,0-0.4c0-3-1.6-5-3.9-5c-2.5,0-4.2,2.1-4.2,5.2
			c0,3.1,1.6,5,4.3,5c1.8,0,3-0.9,3.6-2.5l-1.3-0.2c-0.6,1.1-1.2,1.5-2.3,1.5c-1.8,0-2.8-1.3-2.8-3.6H60.1L60.1,57.7z M53.5,56.6
			c0.3-2,1.2-3,2.6-3c1.5,0,2.3,1.1,2.5,3H53.5L53.5,56.6z M61.9,52.6c0.1,0.9,0.2,1.1,0.2,3.3v6.4h1.5V58c0-1.3,0.1-2.1,0.4-2.8
			c0.4-0.9,1.1-1.5,1.9-1.5c0.4,0,0.6,0.1,1.3,0.4v-1.4c-0.4-0.2-0.8-0.3-1.2-0.3c-1,0-1.8,0.7-2.5,2.4c0-0.3,0-0.5,0-0.6
			c0-0.5-0.1-1-0.2-1.5H61.9L61.9,52.6z M70.2,48.7v13.7h3.2c2.4,0,3-0.1,4-0.3c1.5-0.5,2.5-1.9,2.5-3.6c0-1.8-1-3-3-3.4
			c1.6-0.5,2.3-1.4,2.3-2.9c0-1.5-0.8-2.7-2.1-3.1c-0.7-0.3-1.6-0.3-3.2-0.3H70.2L70.2,48.7z M72.8,54.2v-3.4h1c1.1,0,1.6,0.1,2,0.2
			c0.5,0.2,0.8,0.8,0.8,1.4c0,0.7-0.3,1.3-0.9,1.5c-0.4,0.2-0.9,0.2-1.9,0.2H72.8L72.8,54.2z M72.8,60.2v-4H74
			c1.2,0,1.7,0.1,2.2,0.2c0.7,0.3,1,0.9,1,1.7c0,0.8-0.3,1.4-0.9,1.7c-0.5,0.2-0.9,0.3-2.4,0.3H72.8L72.8,60.2z M89.4,48.7l-5,6.4
			l5,7.3h3.3L87.3,55l5.1-6.3H89.4L89.4,48.7z M81.7,48.7v13.7h2.6V48.7H81.7L81.7,48.7z M101.7,48.7l-5,6.4l5,7.3h3.3L99.6,55
			l5.1-6.3H101.7L101.7,48.7z M94,48.7v13.7h2.6V48.7H94L94,48.7z"/>
	</g>
</g>
<g id="Ebene_3">
</g>
</svg>
