<?xml version="1.0" encoding="utf-8"?>
<!-- Generator: Adobe Illustrator 23.1.0, SVG Export Plug-In . SVG Version: 6.00 Build 0)  -->
<svg version="1.1" id="Ebene_1" xmlns="http://www.w3.org/2000/svg" xmlns:xlink="http://www.w3.org/1999/xlink" x="0px" y="0px"
	 viewBox="0 0 303.65448 145.7542114" style="enable-background:new 0 0 303.65448 145.7542114;" xml:space="preserve">
<style type="text/css">
	.st0{fill:#FFFFFF;}
	.st1{fill:#5BC5F2;}
	.st2{fill:#009FE3;}
</style>
<polygon class="st0" points="145.7541199,48.5847778 145.7541199,97.1694946 255.0697632,97.1694946 255.0697632,48.5847778 
	145.7541199,48.5847778 "/>
<polygon class="st1" points="157.9002991,0 206.4850464,0 255.0697632,48.5847778 206.4850464,48.5847778 157.9002991,0 "/>
<polygon class="st1" points="255.0697632,97.1694946 255.0697632,48.5847778 303.65448,0.0000618 303.65448,48.5847778 
	255.0697632,97.1694946 "/>
<polygon class="st1" points="206.4850464,97.1694946 206.4850464,145.7542114 255.0697632,145.7542114 255.0697632,97.1694946 
	206.4850464,97.1694946 "/>
<path class="st2" d="M167.2579193,64.4782028h6.0961914c1.0953674,0,1.9235382,0.2196884,2.4842987,0.6593628
	c0.5603333,0.4394989,0.840683,1.0862579,0.840683,1.9394836c0,0.9175339-0.2993774,1.602356-0.8979797,2.05439
	c-0.598999,0.4524612-1.5097809,0.6785736-2.7328949,0.6785736h-5.7902985V64.4782028L167.2579193,64.4782028z
	 M167.2579193,75.141571h6.1724854c1.2996674,0,2.2772217,0.25811,2.9335327,0.774086
	c0.6558685,0.516037,0.9840393,1.283638,0.9840393,2.302742c0,1.1340103-0.3439484,1.9397278-1.0318604,2.4175186
	c-0.6880493,0.4776764-1.8919678,0.7165756-3.6118622,0.7165756h-5.4463348V75.141571L167.2579193,75.141571z
	 M171.3665619,86.9516754c2.598877,0,4.5226288-0.1018066,5.7712708-0.3056793
	c1.2490082-0.2036209,2.3118286-0.5476074,3.1903839-1.0320129c1.2996674-0.700386,2.3097992-1.687851,3.0304871-2.9620361
	c0.7186432-1.2736969,1.0789948-2.7007217,1.0789948-4.2807083c0-1.6176758-0.4332275-2.9715576-1.2996674-4.0608978
	c-0.8664246-1.0892792-2.1154327-1.8441544-3.7450867-2.2644348c1.4272156-0.5352478,2.4879456-1.2963638,3.182312-2.2837067
	c0.694397-0.9872894,1.0405731-2.2389221,1.0405731-3.7551575c0-2.4462509-0.7794342-4.2582779-2.34021-5.4368324
	c-1.5607452-1.1783638-3.9786682-1.7676735-7.252655-1.7676735h-13.6638794v28.1491394H171.3665619L171.3665619,86.9516754z
	 M195.9806061,86.9516754v-8.8478775l0.0708618-5.0410767l10.2675476,13.8889542h8.5995026l-11.6562805-15.3636703
	l11.3890533-12.7854691h-8.6561432l-10.0145416,11.6961823V58.802536h-7.0893097v28.1491394H195.9806061L195.9806061,86.9516754z
	 M224.5504608,86.9516754v-8.8478775l0.0708313-5.0410767l10.2676086,13.8889542h8.5995026l-11.656311-15.3636703
	l11.3890533-12.7854691h-8.6561737l-10.0145111,11.6961823V58.802536h-7.089325v28.1491394H224.5504608L224.5504608,86.9516754z"/>
<polygon class="st2" points="0,48.5847778 0,97.1694946 145.7541199,97.1694946 145.7541199,48.5847778 0,48.5847778 "/>
<path class="st0" d="M119.5803223,82.2630463c-0.6249161,0.633049-1.7883072,1.597229-2.6069641,0.9966125
	c-0.7016525-0.5157852,0.0848236-3.7636795,0.7581177-6.0866776c0.0457458-0.1574783,0.0914917-0.3111191,0.134613-0.4576569
	c0.1172256-0.3852539,0.6947632-1.9822922,0.5560989-1.9365158c-0.0700531,0.0242767-0.4107285,0.3728943-0.7297592,0.7123718
	c-0.0054932,0.005249-0.0121689,0.0121078-0.0176086,0.0188446c-0.3028946,0.3230972-0.5818253,0.6315613-0.5818253,0.6315613
	c-0.5694504,0.6072845-1.374733,1.4395676-2.2243729,2.2205124c-0.8484039,0.7822342-1.7413559,1.5136337-2.4818649,1.9241562
	c-0.0013885,0.0014801-0.0040817,0.002655-0.005249,0.002655c-0.0243149,0.0161896-0.0485916,0.0311966-0.0726852,0.0445404
	c-0.0055008,0.0028458-0.0095139,0.0054398-0.0149841,0.0080948c-0.0309525,0.0176086-0.0605392,0.0350266-0.0900726,0.0512161
	c-0.0311966,0.0174179-0.0619659,0.0336075-0.0915222,0.0497894c-0.0311966,0.0160065-0.06073,0.0321884-0.0916824,0.047142
	c-0.1806107,0.0942078-0.3542709,0.1697006-0.521286,0.2249985c-0.0793533,0.0295258-0.1587067,0.0523834-0.2356262,0.071228
	c-0.1210861,0.0295334-0.2368546,0.0483704-0.345993,0.0566483c-0.1319885,0.0093307-0.2558823,0.0026627-0.3702393-0.0216827
	c-0.1360626-0.0295258-0.2572708-0.0833969-0.3623581-0.1629105c-0.9694672-0.7352295-0.1749268-3.4094391,1.7735367-5.972084
	c0.0295639-0.0391006,0.0605469-0.0782089,0.0914993-0.1171875v-0.001236h0.0014191
	c0.7876816-1.0180511,1.63871-1.8583679,2.435936-2.4442139c0.036232-0.0307617,0.0728683-0.0605392,0.1091309-0.0900726
	c0.0040131-0.002655,0.0080566-0.0069199,0.0119247-0.0095749c0.0352097-0.0240936,0.0688171-0.0483093,0.1026077-0.0712357
	c0.001236-0.0014191,0.0024109-0.0014191,0.00383-0.0028381c0.014801-0.0107498,0.0310135-0.0214386,0.0459671-0.0309525
	c0.0133743-0.0093307,0.0255127-0.0174179,0.0390778-0.0255127l0.001236-0.0014191
	c0.0888672-0.0712967,0.1803589-0.1386337,0.2706451-0.2005997c0.012146-0.0080948,0.0228958-0.016243,0.0336075-0.0228577
	c0.0364227-0.0243378,0.0714493-0.0457764,0.1064758-0.067276c0.0269089-0.0176086,0.0552673-0.0352097,0.0821991-0.0499802
	c0.0781174-0.0483704,0.1560822-0.0914917,0.2327805-0.1317749c0.0040512-0.0028381,0.0083084-0.0042572,0.0121765-0.0068512
	c0.5913086-0.303093,1.1555023-0.3986588,1.5190735-0.2545319c0.0040436,0.0014191,0.0079041,0.002655,0.0107498,0.0055008
	c0.1035995,0.0416946,0.1898422,0.1036606,0.2558517,0.1884232c0.3971786,0.4982452-0.0902863,1.5499039-1.0881042,2.3470917
	c-0.391922,0.3137741-0.8052826,0.5413055-1.1864624,0.6706696l0.0581055,0.5694809
	c0.2556686-0.0429382,0.5169907-0.1008224,0.7809753-0.1748962c0.4967651-0.1386948,0.9573517-0.323349,1.3680878-0.5360565
	c0.030983-0.016243,0.0605087-0.0322495,0.0902863-0.0484314c0.0054703-0.002594,0.012146-0.0054398,0.017395-0.0094528h0.0014191
	c1.3208923-0.7217636,2.0992737-1.7652664,1.8514786-2.6541367c-0.0593414-0.2114029-0.1708527-0.3986588-0.3299637-0.5616302
	c-0.1924973-0.2003479-0.4522476-0.3647995-0.7660217-0.4860153c-0.0054398-0.002655-0.0107193-0.0040741-0.0161896-0.0066681
	c-0.4188538-0.1615524-0.9279785-0.2503891-1.4907455-0.2558899c-0.2947464-0.0040741-0.6032715,0.0147705-0.9210892,0.0578918
	c-0.4038467,0.0471344-0.8105698,0.1212082-1.2201004,0.2222748c-0.00383,0-0.0093002,0.0011749-0.0133438,0.0040817
	c-0.6475601,0.1601257-1.2980347,0.3875961-1.9443893,0.6773376c-0.0054703,0.00383-0.0107193,0.0066757-0.0162201,0.0080948
	c-3.0998993,1.4621735-6.1459579,4.6671906-8.1954346,8.9492569c0,0.0014191-0.0012054,0.002655-0.0026245,0.0055008
	c-0.0066986,0.0174179-0.1415024,0.3163681-0.1992035,0.4510422c-0.0323715,0.0740738-0.063324,0.1493835-0.0931015,0.2222824
	c-0.0805893,0.1831741-0.1654129,0.3714142-0.2556686,0.5587234c-0.3407135,0.7164459-0.7419662,1.4327698-1.1433716,1.865036
	c-0.0336075,0.0362015-0.067215,0.0700607-0.1010361,0.1022415c-0.0926971,0.0942764-0.1803665,0.175087-0.2597198,0.2439041
	c-0.2141571,0.1858292-0.3730774,0.2894974-0.4350128,0.327179c-0.0295639,0.0147705-0.0579147,0.0309525-0.0874786,0.0444794
	c-0.7957687,0.3500443-1.3951797-0.0578842-1.8045273-0.5844193c-0.297554-0.3192749-0.5157852-0.7971954-0.6773071-1.3129883
	c-0.001236-0.0069199-0.0038605-0.0121078-0.0038605-0.0121078c-0.29496-0.9533081-0.3933182-2.0265884-0.421669-2.4440842
	c0.4793396-0.1508026,1.2753601-0.4685898,2.5869522-1.096199c0.0159683-0.0080338,0.0321503-0.0176086,0.0483398-0.0254593
	c0.5062714-0.2316055,1.0139999-0.5279541,1.5041199-0.8901062c0.1615219-0.1198502,0.3204498-0.2463684,0.477951-0.3798141
	c0.129364-0.1103363,0.2546539-0.2222748,0.3757401-0.3392258c0.3864594-0.3650513,0.7285233-0.7541275,1.0194397-1.1541443
	c1.3103867-1.7909698,1.6265717-3.7879639,0.6275482-4.9634857c-1.0449524-1.229393-3.2089996-1.1836777-5.2732391-0.0350266
	c-0.4619827,0.2558823-0.9170761,0.5681763-1.3547134,0.9332275h-0.002655c0,0-1.6132278,1.2563324-3.1658783,3.3178864
	c0.7378845-2.0413589,1.4409256-3.9857178,2.061615-5.706871c0.1911087-0.527771,0.3743134-1.035408,0.5493927-1.5174713
	c0.0162201-0.0040131,0.0324097-0.0080872,0.0485916-0.0121078c0.8308029-0.2113419,1.7047195-0.5144272,2.5948257-0.9075241
	c0.4765625-0.1751404,0.9561157-0.4014359,1.4273987-0.6747513c0.1427078-0.08358,0.2827911-0.1695786,0.4186401-0.2585373
	c0.4566727-0.2989502,0.8726883-0.6260681,1.240303-0.9748688c1.7275772-1.8502731,2.3768082-3.9993668,1.4328613-5.134613
	c-1.0530472-1.2670174-3.7112885-0.8133774-6.0475769,0.9911766c-0.0243073,0.0187836-0.0471954,0.0361404-0.0700531,0.0551682
	c-0.1548462,0.125164-0.3111191,0.255703-0.4672318,0.3905678c-0.0337982,0.0281067-0.0660095,0.0578842-0.098381,0.0874138
	c-0.2287369,0.2006569-0.4564819,0.4133644-0.6840134,0.638237l0.0013885-0.0040169c0,0-0.3649902,0.3085251-0.9870682,1.0464096
	c-0.0040207,0.005249-0.0095444,0.0107498-0.0149841,0.0174217c-0.4900589,0.5844879-1.135025,1.4328346-1.8836899,2.6043434
	c-0.4080811,0.6356354-0.8443604,1.3666-1.303688,2.2016678c-0.8994064,1.6375656-1.8850784,3.6760712-2.8909302,6.186264
	c-0.0081253,0.0229187-0.0162506,0.0457764-0.0229187,0.068634c0,0,0,0,0,0.0014267l-1.8219147,5.0455246
	c0,0.0014191-0.0014267,0.0042572-0.0014267,0.0054321l-0.2113724,0.5856628
	c-0.001358,0.0014191-0.0040131,0.0040131-0.0054703,0.0054398c-0.4199982,0.3623886-0.8712616,0.7028503-1.3571167,0.9721451
	c-0.0149536,0.0082779-0.0297165,0.0161896-0.0432816,0.0228577c-0.1117554,0.062149-0.2247162,0.1200409-0.3393173,0.1724854
	c-0.0133438,0.0054398-0.0269012,0.0121765-0.0404358,0.0174255c-0.5156326,0.2491531-1.0045471,0.4390564-1.4555359,0.5629883
	c-0.0081253,0.002594-0.0174179,0.0054398-0.0257263,0.0080338c-0.0240936,0.0067291-0.0469818,0.0121689-0.0712357,0.018837
	c-0.1387253,0.0376892-0.2706833,0.0619659-0.3892975,0.0726547c-0.0052795,0-0.0119858,0.0014191-0.0174179,0.0014191
	c-0.0240936,0.0014877-0.0471725,0.0041428-0.0700607,0.0055008c-0.2423248,0.0200119-0.491478-0.0040131-0.7352295-0.0766678
	c-0.7769241-0.2304382-1.3156357-0.8849182-1.4530945-1.6485062c-0.0012054-0.0024033-0.0012054-0.0066681-0.0012054-0.0092621
	c-0.0092926-0.0619659-0.0174179-0.1265259-0.0243073-0.19133c-0.0011749-0.0240936-0.0040131-0.0484314-0.0067062-0.0740738
	c0-0.0079041,0-0.0174179-0.001358-0.0255127c-0.0148239-0.1682892-0.0200424-0.3433685-0.018837-0.525116
	c0.0216217-0.0040207,0.0445404-0.0095825,0.0660095-0.0133438c0.0282593-0.0055008,0.0566177-0.0124207,0.0847855-0.0176697
	c0.0686417-0.0147095,0.1360703-0.0295334,0.2034378-0.0442963c0.6261597-0.1415329,1.2239304-0.320694,1.7881241-0.5332718
	c0.1334457-0.0499802,0.2654037-0.1009521,0.394577-0.1550064c0.0082855-0.0040131,0.0176086-0.0079041,0.0257339-0.0107498
	c0.1050262-0.0417023,0.2098923-0.0862427,0.3123245-0.132019c0.2222748-0.0969315,0.4390869-0.2020187,0.6489792-0.3137131
	c0.1966171-0.1036682,0.3864594-0.2140045,0.5710831-0.329834c0.0257339-0.0161896,0.0510025-0.0309525,0.0767288-0.0485611
	c0.343338-0.2180176,0.6652069-0.4550629,0.962822-0.7097092c0.0673676-0.0577011,0.1333847-0.115593,0.197937-0.1763229
	c0.129364-0.1184235,0.2532654-0.2409363,0.3716965-0.3649826c0.0269318-0.0267563,0.0524139-0.0551071,0.0781174-0.0820465
	c1.4205399-1.5203094,2.0831146-3.3598328,1.6494598-4.7495422c-0.0228882-0.0779648-0.0510025-0.1534576-0.0821991-0.2301254
	c-0.0497589-0.1144104-0.1117554-0.2221527-0.1829834-0.3231049c-0.0026627-0.0069199-0.0068588-0.013588-0.012146-0.0216827
	c-0.0943604-0.129364-0.2020111-0.2492142-0.3245163-0.3554764c-0.3704605-0.323288-0.868454-0.5317841-1.4382706-0.6194534
	c-0.0093307-0.0014191-0.0174561-0.002655-0.0253296-0.0040741c-0.024498-0.0040131-0.0485916-0.0066757-0.0728989-0.0092697
	c-0.0862122-0.0121689-0.1736603-0.0216827-0.2637329-0.0283585c-0.0042648-0.0014191-0.0083084-0.0014191-0.0123901-0.0014191
	c-0.0066376,0-0.0147629-0.0011749-0.0228577-0.0011749c-0.0390778-0.0028381-0.0793228-0.0054932-0.1198502-0.0069199
	c-0.0269318-0.0012283-0.0552597-0.0012283-0.0833664-0.002655c-0.0350647-0.0014191-0.0714798-0.0014191-0.1091385-0.0014191
	c-0.0376511,0-0.0754929,0.0014191-0.1145935,0.0014191c-0.0119247,0-0.0228882,0.0014267-0.0348129,0.0014267
	c-0.0499802,0.002655-0.1024017,0.0053101-0.1534271,0.0081482c-0.0202637,0.0011749-0.0406799,0.002594-0.06073,0.0040207
	c-0.0067062,0-0.0135574,0.001236-0.0202637,0.001236c-0.034996,0.0027771-0.0714798,0.0054321-0.1076508,0.0080872h-0.0012665
	c-0.0485535,0.0040207-0.098381,0.0094528-0.1483612,0.0147705h-0.0012665
	c-0.3566818,0.0390396-0.7364044,0.1091003-1.1242752,0.2141266c-0.0269394,0.0081482-0.0538406,0.0148239-0.0809631,0.0243378
	c-0.0241241,0.005249-0.0484009,0.0121689-0.0712967,0.0188446c-0.0107117,0.002594-0.0214615,0.0054321-0.0321808,0.0093231
	c-0.06073,0.0161896-0.1212463,0.0337982-0.1832047,0.0525742c-0.1617355,0.048439-0.3230438,0.1022491-0.4848404,0.1642075
	c-0.0080643,0.0014267-0.0121689,0.0040207-0.0188141,0.0068588c-0.2020493,0.0753098-0.4067154,0.1615524-0.6099091,0.2544708
	c-0.0081253,0.0040741-0.0150146,0.0066681-0.0228882,0.0107422c-0.0634155,0.0297775-0.1253204,0.0604858-0.1886749,0.0914383
	l-0.0079346,0.0041351c-0.2182007,0.1091003-0.4364395,0.2303162-0.6532822,0.3609161
	c-0.0011749,0-0.0040131,0.0014191-0.0054321,0.002594c-0.643486,0.386734-1.2791595,0.8591537-1.8877106,1.4099731
	c-0.0674286,0.0606003-0.1346436,0.1225052-0.2008133,0.1844101l-0.0040436,0.0040741
	c-0.1508026,0.1427078-0.3002167,0.2894974-0.4469986,0.4431381c-0.262558,0.2706528-0.5184174,0.5573654-0.7647629,0.8577347
	c-0.047226,0.0564651-0.094368,0.1157761-0.1415024,0.1737213c-0.0026855,0.0040207-0.0052795,0.0066147-0.0079041,0.0106888
	c-0.0162506,0.0202637-0.0324402,0.0404663-0.0486221,0.06073c-0.0149536,0.0200119-0.0309525,0.0417633-0.0457458,0.0619659
	c-0.0295944,0.0391006-0.0593109,0.0793228-0.0876312,0.1195984c-0.1400833,0.1980057-0.2733154,0.3974228-0.4012222,0.5980225
	c-0.0281754,0.0443573-0.0565338,0.0888977-0.0834045,0.1334381c-0.0190887,0.0309525-0.0378723,0.0617218-0.0566788,0.0926666
	c-0.0093307,0.0149536-0.0188751,0.0310135-0.0269394,0.0459671c-0.0309525,0.0497894-0.0605392,0.0995865-0.0900726,0.1494446
	c-0.0067062,0.0135269-0.0161819,0.0268707-0.0243073,0.0416946c-0.0431213,0.0728378-0.0834045,0.1454926-0.1239014,0.2167816
	c-0.0404663,0.0726547-0.0807724,0.1455536-0.1186142,0.2182083c-0.0026245,0.0054321-0.0052795,0.0107498-0.0079041,0.0147629
	c-0.0404968,0.0755539-0.0795746,0.1493759-0.1171951,0.2249374c-0.0390778,0.0767288-0.0769196,0.1534576-0.1143875,0.2289505
	c0,0.001236-0.0014191,0.001236-0.0014191,0.002594c-0.0364151,0.0755539-0.0728989,0.1522827-0.1064758,0.2275925
	c-0.0228882,0.0485611-0.0457764,0.0983505-0.0671844,0.1482086c-0.0107498,0.0255127-0.0231323,0.0523834-0.0338211,0.0780869
	c-0.001236,0.001236-0.002655,0.0040131-0.002655,0.0053101c-0.0121765,0.0268784-0.0240631,0.0552292-0.0364227,0.0821686
	c-0.0457764,0.1064453-0.0886536,0.2127686-0.1306,0.3190231c-0.0040131,0.0109329-0.0078735,0.0202026-0.0121384,0.0311966
	c-0.0052185,0.0133438-0.0107498,0.0269394-0.0159683,0.0402832c-0.0042648,0.0107498-0.0081253,0.0216217-0.0121384,0.0309525
	c-0.0133438,0.0350266-0.0269394,0.068634-0.0391083,0.1024246c-0.0216217,0.0565262-0.0416718,0.112999-0.0619049,0.1696472
	c-0.0107498,0.0310135-0.0217133,0.0619659-0.0324326,0.0915527c-0.0092621,0.0268784-0.0188065,0.0537491-0.0282898,0.0806885
	c-0.0026932,0.0081482-0.0052872,0.016243-0.0079117,0.0243378c-0.0202637,0.0578842-0.0390778,0.1131821-0.0566788,0.1710052
	c-0.0026627,0.0081558-0.0052872,0.0174789-0.0081253,0.0255127c-0.0038605,0-0.0093307-0.0011749-0.0133438-0.0011749
	c-0.0876617-0.0080948-0.1751404-0.0161819-0.262558-0.0271835c-0.1467896-0.0147018-0.2909164-0.0321198-0.4364395-0.0523834
	c-0.067276-0.0092697-0.1346436-0.0188446-0.20047-0.0295334c-0.130722-0.0176086-0.2586975-0.0391083-0.3880615-0.0619659
	c0.1806412-0.651825,0.3016663-1.2996368,0.3649902-1.9295959c0.0214615-0.195343,0.0364761-0.3879013,0.0459595-0.5791702
	h-0.0054398c0.0093002-0.3016663-0.0080566-0.6153793-0.0538635-0.9344635
	c-0.0080643-0.0552902-0.0176086-0.110527-0.0269089-0.1656342c-0.0188141-0.1091003-0.0417023-0.216774-0.0673981-0.3218002
	c-0.0081253-0.0324326-0.0162201-0.0648041-0.0243149-0.0969925c-0.005249-0.0202026-0.0107498-0.0405273-0.0159988-0.0593109
	c-0.002594-0.0107498-0.0054321-0.0200729-0.0095139-0.0309525c-0.0092621-0.0376816-0.0202637-0.0767288-0.0321884-0.1131744
	c-0.0068512-0.0241547-0.013588-0.0469513-0.0216217-0.06987c0-0.0014267,0-0.0014267-0.001236-0.0014267
	c-0.0069199-0.0242157-0.014946-0.0471344-0.0231018-0.0700531c-0.0187836-0.0578842-0.0390472-0.1145401-0.0619049-0.1710052
	c-0.0134048-0.0391006-0.0283585-0.0767288-0.0445404-0.1144104c-0.0093307-0.0216217-0.0188446-0.0444794-0.0281677-0.065979
	c-0.0295334-0.0714188-0.0619049-0.1427078-0.0957642-0.2101746c-0.0228577-0.0471344-0.0469513-0.0942764-0.071228-0.1386337
	c-0.0228577-0.0442886-0.0471954-0.0888367-0.071228-0.1305313c-0.0297775-0.0527039-0.06073-0.1024323-0.0915604-0.1508636
	c-0.014946-0.0228653-0.0283508-0.044548-0.0433044-0.0659866c-0.0106888-0.017601-0.0228577-0.0336075-0.0348434-0.0512085
	c-0.0189667-0.0282974-0.0390472-0.0564651-0.0593109-0.0848236c-0.0040131-0.0055008-0.0080872-0.0107498-0.0121078-0.0161896
	c-0.0362015-0.0497894-0.0727081-0.0969925-0.1116943-0.1427078c-0.0324936-0.0405273-0.06604-0.0781479-0.0998306-0.1157684
	c-0.0200806-0.0229263-0.0417023-0.045784-0.0632019-0.0687027c-0.0228577-0.0227966-0.0445404-0.0458984-0.0673981-0.067337
	c-0.0161896-0.0161896-0.0323715-0.0323715-0.0497971-0.0457764c-0.0402756-0.0404663-0.0819778-0.0767288-0.1239243-0.111763
	c-0.0309525-0.0256958-0.0619049-0.0497894-0.0942764-0.0740662c-0.0255127-0.0202026-0.051033-0.0391083-0.0779648-0.0565338
	c-0.0390472-0.0282898-0.0795746-0.0538635-0.1198502-0.0780869v-0.0014191
	c-0.2046738-0.1239243-0.4188004-0.2087479-0.6370621-0.2477951c-0.1305389-0.0240936-0.262558-0.0321884-0.394516-0.0229187
	c-0.0362701,0.002655-0.0727158,0.0069809-0.110405,0.0121689c-0.1805115,0.0269394-0.3528137,0.0834656-0.5117111,0.1684113
	c-0.0888977,0.0470123-0.1736603,0.1022415-0.2544632,0.1668625c-0.1588974,0.1238632-0.3030853,0.2775116-0.4295502,0.455246
	c-0.002594,0.002655-0.0040741,0.0052567-0.0054932,0.0080948c-0.3418884,0.4819946-0.5601501,1.1417313-0.6139603,1.8865356
	c0,0,0,0,0,0.0011749c-0.0107498,0.1401138-0.0162506,0.2843018-0.0121689,0.4310303
	c-0.0011749,0.0040131-0.0011749,0.0080872,0,0.0121078c-0.0066757,0.3717194,0.0297775,0.7459793,0.1145401,1.1176987
	c0.018898,0.0847626,0.0403366,0.1681595,0.06604,0.2503891c0.0888367,0.3137741,0.2126999,0.6141434,0.3635635,0.898201
	c0.1601334,0.3016052,0.3528824,0.5844879,0.574913,0.8484039c0.1844711,0.2222824,0.390564,0.4281921,0.6142044,0.6208725
	c0.0565262,0.048378,0.114418,0.0968094,0.1748962,0.1439514c0.0523911,0.0416946,0.1065063,0.0833969,0.1601334,0.1224442
	c0.0028381,0.0014191,0.0054321,0.0040741,0.0082779,0.0054932c0.0067291,0.0055008,0.0147629,0.0106888,0.0214996,0.0161896
	c0.002594,0.002655,0.0040131,0.0040741,0.0066681,0.005249c0.0404663,0.0297775,0.0808105,0.0578918,0.1212082,0.0848236
	c0.0214996,0.0161896,0.0444183,0.0311966,0.0674667,0.0457764c0.021431,0.0149536,0.0429306,0.0297775,0.0657883,0.0433121
	c0.0364532,0.0255127,0.0755005,0.0483704,0.113121,0.0727081c-0.5143738,2.1828918-1.5888901,3.6855316-2.830452,3.6826859
	c-0.0161896,0-0.0336075,0-0.0497971-0.0011673c-0.0524445,0.0027771-0.1064377,0.0011673-0.1601257-0.001236
	c-0.0378723-0.0028458-0.0754929-0.0055008-0.1119461-0.0095139c-0.0106888-0.0014267-0.0202026-0.0026627-0.0295258-0.0040817
	c-0.0297775-0.0040131-0.0593719-0.0095139-0.0890884-0.0147629c-0.0159988-0.0028458-0.0336075-0.0067368-0.0496063-0.0107498
	c-0.0189667-0.0042648-0.0364532-0.0080948-0.0552902-0.0135269c-0.0080338-0.0014267-0.0173645-0.0040817-0.0257034-0.0066757
	c-0.0336075-0.0081558-0.0671539-0.0188446-0.0995255-0.0297775c-0.0498581-0.0174179-0.0996475-0.0362625-0.1480179-0.0577011
	c-0.0242844-0.0109329-0.0486221-0.0216827-0.0714188-0.0338516c-0.0295944-0.0134735-0.0593109-0.0295334-0.0874786-0.0457153
	c-0.0391083-0.0214386-0.076973-0.0459671-0.1146011-0.0699997c-0.0200729-0.0121689-0.0391006-0.0255127-0.0578842-0.0402756
	c-0.0269394-0.0189056-0.0538712-0.0391083-0.0793839-0.0593719c-0.0309525-0.0255127-0.0619659-0.0512161-0.0903244-0.0781479
	c-0.0135269-0.0121078-0.0268707-0.0242844-0.0402145-0.0376282c-0.0269394-0.0243378-0.0526352-0.0512695-0.0781555-0.0781479
	c-0.0242767-0.0256958-0.0486145-0.0526352-0.0714722-0.0807419c-0.001236-0.0014267-0.002655-0.002655-0.0040207-0.0040817
	c-0.0093231-0.0121078-0.018837-0.0228577-0.0283508-0.0364456c-0.0228577-0.0283585-0.045784-0.0578918-0.0671539-0.0888367
	c-0.0014267-0.001236-0.0027237-0.0026627-0.0027237-0.0040817c-0.0283508-0.0388565-0.0552292-0.0779037-0.0795059-0.1184311
	c-0.0255127-0.0431213-0.0512161-0.0862427-0.0741348-0.1307831c-0.0187836-0.0335464-0.0349655-0.068634-0.0524521-0.1048355
	c-0.0054321-0.0121689-0.0106888-0.0257034-0.0161819-0.0376892c-0.0173645-0.0390396-0.0335464-0.0780869-0.0485611-0.1186142
	c-0.0295258-0.0767288-0.0550461-0.1561127-0.0753098-0.2370453c-0.0107498-0.0321884-0.0216827-0.0657959-0.0323715-0.1010056
	c-0.0079041-0.0267487-0.0147629-0.0550461-0.0214996-0.0834045c-0.0080261-0.0321808-0.0161819-0.065979-0.0227966-0.0995865
	c-0.0081482-0.0336075-0.0147629-0.0673981-0.0203247-0.1038513c-0.0040131-0.0174179-0.0066071-0.0348434-0.0092621-0.0536194
	c0-0.0014191,0-0.0028458,0-0.0028458c-0.0028458-0.0174789-0.0055008-0.0362625-0.0080948-0.0538712
	c-0.0028381-0.0187759-0.0054398-0.0376816-0.0081558-0.0564651c-0.002594-0.018837-0.0054321-0.0376205-0.0068588-0.0579453
	c-0.002594-0.0216217-0.005249-0.0431213-0.0066681-0.0644989c-0.002655-0.0176086-0.0040817-0.0365067-0.005249-0.0552902
	c-0.0040207-0.0405273-0.0082855-0.0822296-0.0095139-0.1238632v-0.0014267
	c-0.0014267-0.0148239-0.0026627-0.0295868-0.0026627-0.0444183c-0.0028381-0.0418243-0.0054321-0.0835266-0.0054321-0.1266479
	c-0.0014191-0.0107422-0.0014191-0.0200729-0.0014191-0.0307617c0-0.0176086-0.001236-0.0364532-0.001236-0.0552902
	c-0.0013657-0.0497971-0.0013657-0.0998383-0.0013657-0.1508026v-0.0512161c0-0.0593719,0.0013657-0.1198502,0.0026016-0.1818161
	c0.0040131-0.1239243,0.0095139-0.2518082,0.0190277-0.3837662v-0.0067368
	c0.0040131-0.064743,0.0093231-0.129364,0.0145798-0.195343c0.0016022-0.002594,0.0016022-0.0066681,0.0016022-0.0093307
	c0-0.0068512,0-0.0121689,0.0011749-0.017601c0.0095749-0.1088562,0.0203247-0.2206116,0.0336685-0.3352127
	c0.0068588-0.0565262,0.013588-0.114418,0.0202026-0.1724854c0.0081558-0.067215,0.0176086-0.1358566,0.0269318-0.2059097
	c0.0147705-0.1024323,0.0297775-0.2074509,0.047142-0.3151321c0.0093918-0.064621,0.0202637-0.1306,0.0310135-0.196579
	c0.0121689-0.067215,0.0242767-0.1346817,0.0364456-0.2032547c0.0145798-0.0862427,0.0307693-0.1739044,0.0483704-0.2627411
	c0.0147705-0.0753098,0.0297775-0.1535263,0.0442963-0.2316132c0.0028458-0.0107498,0.0042648-0.0214996,0.0067368-0.0321808
	c0.0135269-0.0686417,0.0284805-0.1375198,0.0433044-0.2074585c0.0202637-0.1010666,0.0431213-0.2046738,0.067215-0.3083344
	c0.0080948-0.0376892,0.0176086-0.0753708,0.0257034-0.114418c0.016243-0.0714111,0.0336075-0.1441269,0.0512161-0.2167816
	c0.0214996-0.0929108,0.0443573-0.1873093,0.068634-0.2828217c0-0.0054932,0.001236-0.0095139,0.002594-0.014946
	c0.0214996-0.0886536,0.0443573-0.1775513,0.068634-0.2678757c0.0216827-0.0874786,0.0446091-0.1736603,0.0687027-0.2624969
	c0.0054321-0.0189056,0.0108719-0.0391083,0.0161819-0.0593033c0.0216217-0.0848846,0.0457153-0.1711273,0.068573-0.25737
	c0.0512772-0.182991,0.1038513-0.3675842,0.1588974-0.5546494c0.0269318-0.0929184,0.0552902-0.1858368,0.0836487-0.2787476
	c0.0147629-0.0512161,0.0309525-0.1036682,0.0471344-0.1548767c0.0323715-0.1065063,0.0645599-0.2127686,0.0996475-0.3204498
	c0.0337982-0.1077423,0.0685806-0.2154236,0.1036072-0.3244629c0.0310135-0.0969925,0.063385-0.1954041,0.0969315-0.2935715
	c0.0324326-0.0984116,0.06604-0.1968231,0.0996475-0.2949905c0.2034378-0.5951157,0.4242935-1.2038803,0.6654205-1.8219147
	c0.002655-0.0080948,0.0066681-0.0173645,0.0106888-0.0255127c0.0336685-0.0890274,0.068634-0.176445,0.1036606-0.2654037
	c0.0066757-0.0161896,0.0119247-0.0309525,0.0188446-0.0471344c0.0080948-0.0188446,0.0147629-0.0390472,0.0228577-0.0579529
	c0.0229187-0.0578842,0.0442963-0.1143494,0.068634-0.1710052c0.0605469-0.1508636,0.1226349-0.3002396,0.1845932-0.4483871
	c0.0229187-0.0552902,0.045784-0.1102753,0.0686417-0.1655655c-0.0014267,0-0.0014267,0-0.0028458,0
	c-0.0011749,0-0.0011749,0-0.002594,0c0.0269318-0.06604,0.0538712-0.132019,0.0807419-0.19664
	c0.0836487-0.1965179,0.1658783-0.3904419,0.2492142-0.5817719c0.1049042-0.2408752,0.2113495-0.4779816,0.3178558-0.7109451
	c0.002594-0.001236,0.0066071-0.001236,0.0093307-0.0026016c0.1831741-0.0431824,0.3690033-0.0903168,0.5560684-0.1427689
	c0.3678284-0.0995865,0.7407227-0.2153549,1.1204758-0.3487396c0.3082809-0.1077423,0.6084595-0.2223434,0.898201-0.3433685
	c0.0295334-0.0121689,0.0590591-0.0257568,0.0888367-0.0391006c0.0121689-0.0054398,0.0229187-0.0094528,0.0336075-0.0149536
	c0.0364532-0.0147629,0.0712357-0.0281067,0.1077423-0.0443573c0.0848236-0.0362015,0.1710052-0.0740738,0.2572479-0.1131134
	c0.5749741-0.2585449,1.1027222-0.5387115,1.568718-0.8267822c0.5372543-0.3311386,0.9925613-0.6747513,1.3465576-1.011322
	c0.1966095-0.1870651,0.3623581-0.3728943,0.491539-0.5532913c0.0014191-0.0028381,0.0026245-0.0042572,0.0054703-0.0069122
	c0.0536499-0.0685806,0.1050873-0.1386337,0.1560822-0.2086945c0.5279617-0.7286148,0.8779984-1.491951,1.0247192-2.2043228
	c0.0014267-0.002594,0.0014267-0.0040131,0.0028458-0.0066719c0.0079041-0.0378685,0.0147629-0.0755539,0.02005-0.1117554
	c0.0161819-0.0888405,0.0297775-0.1765022,0.0378342-0.2639809c0-0.0026588,0.001236-0.0040779,0.001236-0.0066719
	c0.0028152-0.0269356,0.0054703-0.055294,0.0068893-0.0821648v-0.0055008
	c0.0240936-0.2894325,0.0107498-0.5641632-0.0419159-0.8214684c-0.0040436-0.0255165-0.0093307-0.0524521-0.0161896-0.0779648
	c-0.0228577-0.1024323-0.0536194-0.2072678-0.0926971-0.3111191c-0.1307831-0.3447876-0.3273926-0.6302032-0.5494308-0.8227081
	c-0.0190582-0.0176048-0.0378342-0.0338516-0.0567093-0.0486183c-0.0793533-0.0699959-0.1655655-0.1291161-0.2570953-0.1817513
	c-0.428154-0.2477951-0.9748917-0.3352737-1.5862885-0.2747307c-0.095726,0.0095139-0.1938934,0.0231056-0.2922745,0.0391045
	c-0.001236-0.001236-0.002655,0-0.002655,0c-0.3002167,0.0511551-0.6127853,0.1360359-0.9318085,0.2506371
	c-0.2127686,0.0766678-0.4295502,0.1681633-0.6463928,0.2718887c-0.5603333,0.2544022-1.1392593,0.5938759-1.7289963,1.0127373
	c-0.002655,0.002655-0.0054398,0.00383-0.0080948,0.0066719c-1.2982178,0.9237137-2.6460419,2.2272453-3.9333191,3.8297195
	c-0.6221161,0.7729111-1.2322388,1.6158218-1.8152466,2.5193329c-0.0848236,0.131958-0.1697083,0.2639236-0.2532272,0.3985367
	c-0.0927963,0.1496277-0.1856461,0.3004303-0.2773895,0.452713c-0.2315445,0.3835831-0.4577179,0.7781677-0.6785736,1.1807175
	c-0.0121078,0.0217438-0.0228577,0.0417633-0.0337982,0.063446c-0.0080872,0.0147629-0.0159988,0.0295258-0.0240936,0.0442963
	c-0.0121078,0.0228577-0.0242767,0.0445404-0.0350266,0.0673981c-0.4686508,0.9237137-0.8848572,1.8462524-1.2444077,2.7552032
	c-0.2112808,0.5345688-0.4052048,1.0652542-0.5789261,1.5874634c0,0.0014267,0,0.0014267-0.0014191,0.0028458
	c-0.0417023,0.1250992-0.0821686,0.2504501-0.1210861,0.3743134c-0.0135345,0.0405273-0.0256424,0.0822296-0.0378113,0.1224442
	c-0.00383,0.0135956-0.0081558,0.0269394-0.0119247,0.0405273c-0.0310135,0.0969925-0.06073,0.1925049-0.0890808,0.2880783
	c0,0.0040131-0.001236,0.0068588-0.0026627,0.0108719c-0.0471344,0.1561127-0.0914917,0.3109894-0.134613,0.4646378
	c-0.0402756,0.1425247-0.0781479,0.2840576-0.1145401,0.4252853c-0.0712891,0.2761459-0.1372681,0.5494537-0.1978149,0.8188705
	c-0.0202637,0.0900803-0.0390396,0.180336-0.0579453,0.2692337c-0.0014191,0.0066757-0.0027771,0.0121689-0.0040131,0.0188446
	c-0.0187836,0.0876617-0.0363922,0.1751404-0.0525742,0.259903c-0.0200806,0.0995865-0.0391083,0.197998-0.0565262,0.2949295
	c-0.0147705,0.0874786-0.0309525,0.1737213-0.044487,0.259964c-0.0148239,0.0860596-0.0295868,0.1723022-0.0417633,0.2571259
	c-0.0011673,0.0054321-0.002594,0.0121689-0.002594,0.0176086c-0.0081482,0.0391006-0.013588,0.0778961-0.017601,0.1170044
	c-0.001297,0.0054398-0.0026627,0.0121689-0.0026627,0.0176086c-0.0106812,0.065979-0.0202637,0.131958-0.0281677,0.196579
	c-0.0270615,0.1805801-0.0485611,0.3594894-0.0661621,0.5358047c-0.0011749,0.0083389-0.0011749,0.0135956-0.002594,0.0216827
	c-0.4417191,0.4955292-0.9249535,0.9547272-1.4300575,1.3923111c-0.844326,0.7297897-1.8178978,1.3680878-2.9436302,1.5324783
	c-2.0172577,0.2949905-2.8426208-1.5217285-2.7415504-3.2628403c0.1870041-0.0093307,0.378273-0.0281677,0.572258-0.0550461
	c0.002655,0,0.005249,0,0.0092659-0.0014191c0.4686508-0.0498581,0.9602242-0.1603775,1.4571724-0.3300247
	c0.6368752-0.214119,1.284626-0.525116,1.9093933-0.9303818c2.3577843-1.5298233,3.5966911-3.8809357,3.0055962-5.5143661
	c-0.0243454-0.071228-0.0538712-0.1401138-0.0862427-0.2086868c-0.0524521-0.1037292-0.1158371-0.2006607-0.1884918-0.2921524
	c-0.002594-0.0069199-0.0081558-0.0121078-0.0133438-0.0190277c-0.0957565-0.1170044-0.2060928-0.2246857-0.3300171-0.3202591
	c-0.4242973-0.325943-1.0058823-0.5198669-1.6710548-0.567009c-0.0498543-0.0040131-0.1024284-0.0080872-0.1548767-0.0095139
	c-0.0269356-0.0012283-0.055294-0.0012283-0.0836487-0.002655c-0.0350304-0.0014191-0.0712929-0.0014191-0.1089172-0.0014191
	c-0.0378685,0-0.0754929,0.0014191-0.1145363,0.0014191c-0.0619659,0.002655-0.125103,0.0054398-0.188488,0.0095749
	c-0.0202637,0.0011749-0.0404663,0.002594-0.0607262,0.0040207c-0.0900764,0.0066681-0.182991,0.0133438-0.2773895,0.0240936
	h-0.0011711c-0.3568954,0.0390396-0.7366486,0.1091003-1.1244965,0.2141266
	c-0.0269356,0.0081482-0.0538712,0.0148239-0.0808067,0.0243378c-0.0240936,0.005249-0.0483704,0.0121689-0.0712318,0.0188446
	c-0.2330284,0.0631332-0.4660568,0.1372681-0.7005081,0.2261047c-0.007843,0.0014267-0.0118599,0.0040207-0.0185318,0.0068588
	c-0.2020798,0.0753098-0.4067497,0.1615524-0.6101265,0.2544708c-0.0081558,0.0040741-0.0148277,0.0066681-0.0229187,0.0107422
	c-0.063324,0.0297775-0.125351,0.0604858-0.188488,0.0914383c-0.002594,0.0014191-0.0054359,0.0028381-0.0080299,0.0041351
	c-0.8658905,0.4375839-1.730484,1.0342407-2.5465164,1.7734833c-0.067215,0.0606003-0.1346169,0.1225052-0.2005959,0.1844101
	L55.772171,72.568985c-0.4752617,0.4472198-0.9318085,0.9439774-1.3613548,1.4852829
	c-0.0161858,0.0202637-0.0323715,0.0404663-0.0483742,0.06073c-0.0150108,0.0200119-0.0309486,0.0417633-0.0459633,0.0619659
	c-0.0295296,0.0391006-0.0591202,0.0793228-0.0874786,0.1195984c-0.1401138,0.1980057-0.2733078,0.3974228-0.4012527,0.5980225
	c-1.5338402,2.4170914-2.1518097,5.0147552-1.8166008,7.0467834c0.1886101,1.1445694,0.6801834,2.1088104,1.4826279,2.7590332
	c0.0605431,0.0512161,0.123867,0.0983505,0.1884842,0.1441269c1.2484245,0.8834381,2.9343033,0.9022827,4.6646614,0.2182693
	c0.3958778-0.1577225,0.7944107-0.3502884,1.1918335-0.5791779c0.1008224-0.0577011,0.2004089-0.1199112,0.3001823-0.1818161
	c0.0524521-0.0321884,0.1036034-0.065979,0.1562996-0.0996475c0.0402794-0.0254517,0.0793266-0.0525742,0.119606-0.0793228
	c0.0499763-0.0323715,0.0998344-0.064743,0.1496277-0.0984116c0.0793839-0.0551682,0.1574745-0.111702,0.2370453-0.1683502
	c0.8050995-0.5802231,1.6198959-1.226799,2.4278374-1.9308929c0.2141266-0.1858292,0.4228745-0.3730164,0.6289711-0.5615082
	c0.3997688-0.3664093,0.782177-0.7352905,1.1498222-1.1042938v0.0014267
	c0.0014191,0.0281067,0.0028458,0.0564651,0.0040131,0.0833359c0.0014267,0.0458374,0.0026627,0.0915604,0.0055008,0.1375198
	c0.002594,0.071228,0.0066757,0.1412277,0.0119858,0.2098618c0.0042038,0.0486221,0.0068588,0.0969925,0.012291,0.1456146
	c0.00383,0.0524521,0.0079117,0.1050186,0.0133438,0.1562958c0.0040817,0.0402222,0.0081558,0.0807495,0.0121765,0.119606
	c0.002594,0.0228577,0.0054321,0.0445404,0.0080872,0.0661621c0.0106888,0.0915604,0.0240326,0.1804581,0.0376282,0.2678757
	c0.0041351,0.0390472,0.0107498,0.0781479,0.0174789,0.1171951c0.0121078,0.0753098,0.0256424,0.1493759,0.0404663,0.2220917
	c0.0080948,0.0445404,0.0161285,0.0876617,0.0255127,0.129364c0.0027847,0.0121078,0.0054398,0.0240326,0.0080948,0.0363922
	c0.0054398,0.021431,0.0094528,0.0429306,0.0147629,0.0645523c0.0080948,0.0365143,0.0161896,0.0740738,0.0257034,0.109169
	c0.0014191,0.0054321,0.002655,0.0093231,0.0040741,0.0147629c0.0106888,0.0471344,0.0228577,0.0943375,0.0362091,0.1400528
	c0.0161819,0.062027,0.0337906,0.1225052,0.0526962,0.1818161c0.0161209,0.0591202,0.0349655,0.1170044,0.0551682,0.1737213
	c0.001297,0.0066681,0.003891,0.0147629,0.0067291,0.0214386c0.0174255,0.0512085,0.0349655,0.0995865,0.0523911,0.14814
	c0.0148239,0.0391083,0.0297775,0.0767288,0.0457764,0.114418c0.0095139,0.0269318,0.0202637,0.0526352,0.0310135,0.0780869
	c0.0014191,0.0041351,0.0040131,0.0081558,0.0054398,0.0121689c0.0107498,0.0269394,0.0229187,0.0538712,0.0349655,0.0793839
	c0.0027161,0.0082779,0.0067291,0.0161896,0.0107498,0.0230484c0.013588,0.0336075,0.0295868,0.0674591,0.0457764,0.0996475
	c0.0080948,0.0202026,0.0176086,0.0390396,0.0282974,0.0578842c0.0121689,0.0255127,0.0255737,0.0512161,0.0391006,0.0767288
	c0.0066757,0.0147629,0.0147705,0.0282974,0.0228577,0.0430603c0.0040817,0.0095749,0.0093307,0.0188446,0.0147705,0.0269394
	c0.0255127,0.0483704,0.0512772,0.0943298,0.079628,0.1400528c0.0362015,0.0606003,0.0726547,0.1199112,0.1116943,0.1763763
	c0.0066757,0.0106888,0.0133514,0.0202637,0.0214996,0.0295868c0.1386337,0.2047958,0.2963562,0.389267,0.4712524,0.5481644
	c0.0040131,0.0040817,0.0095139,0.0080948,0.0135269,0.0119858c0.0793228,0.0809326,0.1643906,0.1590805,0.2504501,0.2317352
	c0.0014191,0,0.0014191,0.0014191,0.002594,0.0014191c0.4015045,0.3419418,0.8551407,0.6059265,1.3587646,0.7755051
	c1.229454,0.4148483,2.5638733,0.2087479,3.812294-0.4779205c0.6542358-0.3595505,1.2858658-0.852417,1.865036-1.4556885
	c0.0107498-0.0109329,0.0214386-0.0214996,0.0310135-0.0324326c0.9708557-0.9694977,1.8340225-2.1961746,2.4897461-3.6209106
	c0.0900726-0.19664,0.1751404-0.393158,0.2532272-0.5897369c0.1251678,0.0442963,0.2530441,0.0862427,0.3824081,0.1236801
	c0.2342072,0.0702438,0.4753571,0.129364,0.7217331,0.1765594c0.09832,0.0202026,0.197937,0.0375671,0.2975235,0.0523911h0.0014191
	c-0.0081177,0.0567093-0.0161819,0.1119461-0.0242462,0.1684723c-0.0055237,0.0402756-0.0107498,0.0807419-0.0148239,0.1197891
	c-0.0068893,0.0497894-0.0121078,0.0996475-0.017395,0.1493759c-0.0123825,0.1186829-0.0216217,0.2370453-0.029747,0.3543015
	c-0.0038605,0.065979-0.0066986,0.133194-0.0107422,0.199173c-0.0066452,0.1563034-0.0080643,0.309761-0.0054703,0.4605637
	c0,0.0014191,0,0.0014191,0,0.002655c0.0028687,0.1454926,0.0107498,0.2882614,0.0216522,0.4297943
	c0.0081253,0.0926666,0.0161896,0.1856461,0.0269394,0.2773285c0.0107117,0.0914917,0.0240631,0.1817474,0.0390701,0.2720108
	c0.1884918,1.1445694,0.6799698,2.1088104,1.4824448,2.7590332c0.0607605,0.0512161,0.1238937,0.0983505,0.1886673,0.1441269
	c0.2437515,0.1723022,0.5048904,0.312355,0.7795868,0.4200974c0.4672318,0.1831741,0.9748993,0.2747269,1.5083237,0.2787476
	c0.6946106-0.0107498,1.4338837-0.1763153,2.1800766-0.4805756c0.3837738-0.1577225,0.7700424-0.3502884,1.1553268-0.5791779
	c0.098381-0.0577011,0.1938629-0.1199112,0.2908859-0.1818161c0.051178-0.0321884,0.1010056-0.065979,0.1521912-0.0996475
	c0.0389175-0.0254517,0.0767593-0.0525742,0.1158295-0.0793228c0.0484085-0.0323715,0.096962-0.064743,0.1453705-0.0984116
	c0.0766678-0.0551682,0.1521606-0.111702,0.22892-0.1683502c0.3783951-0.2814026,0.7581177-0.5776291,1.1378708-0.8901672
	c0.3891144-0.3176041,0.7795868-0.6515808,1.1674576-0.9990234L86.952446,85.18116h2.7496796v0.001236h2.7308655
	c0,0,0.4808197-1.5861053,1.1796341-3.8215637c0.1764984,0.456665,0.4202423,1.0826111,0.6558685,1.668457
	c0.1467896,0.4336243,0.3164291,0.8417358,0.5077591,1.2227249c0.002594,0.0068512,0.0066452,0.0147629,0.0092392,0.021431
	c0.0052795,0.0123596,0.0107803,0.0229263,0.0176697,0.0338593c0.0054626,0.0106888,0.010498,0.0202026,0.0159683,0.0309525
	c0.9279785,1.8031311,2.3256226,2.9503021,3.8890228,2.9503021c0.5589142,0,1.0947495-0.1482086,1.5970154-0.4174423
	c0.0066681-0.002655,0.0121078-0.0066681,0.0189972-0.0106888c0.0967712-0.0538712,0.1937637-0.1103363,0.2880707-0.1739044
	c1.6441803-1.034111,2.6000824-2.5085831,3.0164948-3.276062c0.0336075-0.0619659,0.0631714-0.1186142,0.0901108-0.1710052
	c0.0188065,0.114357,0.0431213,0.2274704,0.0726776,0.3366318c0.0014191,0.0011749,0.0014191,0.0040207,0.002594,0.0052567
	c0.0702744,0.1898422,0.1899109,0.4781647,0.369072,0.8092957c0.0726471,0.1334457,0.0955658,0.1791611,0.0888672,0.1441956
	c0.0092926,0.0161819,0.018837,0.0323715,0.0283203,0.0485535c0.0941238,0.1494446,0.2020493,0.2840576,0.3271484,0.4024277
	c0.0578918,0.0565262,0.1184311,0.1079254,0.1832047,0.1563034c1.1002502,0.8282013,2.9181213,0.4350433,4.7938766-0.8443298
	c0.6342468-0.4308472,1.2737503-0.9640579,1.8958282-1.5848694c0.1415024-0.1415405,0.2815857-0.2869034,0.4202499-0.4365311
	c-0.0216217,0.3261337-0.0242767,0.6385422-0.0080643,0.9334793c-0.0014191,0.0631332-0.0014191,0.1278763,0,0.1899033v0.0161896
	c0,0.0119247,0,0.0254517,0.0013962,0.0374374c0.0133743,0.325943,0.0753021,0.6384811,0.1858597,0.9265518
	c0.0066681,0.0228577,0.0133438,0.0459671,0.0200424,0.067215c0.0862122,0.2088776,0.1993942,0.4026794,0.3340073,0.5791779
	c0.0228577,0.0242767,0.0457458,0.0483704,0.0686035,0.071228c0.0176392,0.0245285,0.0378723,0.045784,0.0578918,0.0688248
	c0.5091782,0.5587234,1.2334747,0.840065,2.04422,0.8577957c1.1621857,0.0254517,2.4978714-0.4889755,3.6076279-1.4989319
	c0.0307693-0.0281143,0.0617218-0.0564041,0.0914993-0.0874176c0.759346-0.7163849,1.2858887-1.5634384,1.5512619-2.4009094
	C119.7606888,82.1122437,119.6677704,82.1903915,119.5803223,82.2630463L119.5803223,82.2630463z M102.1204071,60.5130653
	c1.734436-1.8852386,1.2832336,0.259964,1.2832336,0.259964c-1.4030838,5.0214348-4.7896347,5.9841881-4.7896347,5.9841881
	S100.3861237,62.3981781,102.1204071,60.5130653L102.1204071,60.5130653z M83.6814575,75.3725662
	c0.146965-0.3204498,0.3070984-0.6476288,0.4808197-0.9801865c0.2237015-0.4281845,0.4672012-0.8672485,0.7340546-1.3142776
	c0.0066376-0.0135269,0.0147629-0.0271225,0.0228882-0.0404663c0.119606-0.1910782,0.2382202-0.3728943,0.3568344-0.5439606
	c0.6354828-0.9884567,1.2723312-1.6939697,1.7235336-1.9027176c0.0026855-0.0014191,0.0054626-0.0028458,0.0081253-0.0054398
	c0.1050491-0.0471344,0.200592-0.0673981,0.2827911-0.0578842c0.0092926-0.0014191,0.0174484-0.0014191,0.0267487-0.0014191
	c0.0781174,0.0040131,0.1481476,0.0297775,0.2060928,0.0726471c0.001358,0,0.001358,0,0.0027771,0.0014267
	c0.0674362,0.0485535,0.117012,0.1212692,0.1386642,0.2046661c0,0,0.0014191,0.0014267,0.0014191,0.0028458
	c0.0052872,0.0240936,0.0093307,0.0497971,0.0134048,0.0753098c0,0.002655,0.0014267,0.0054932,0.0014267,0.0080948
	c0.0119247,0.0793228,0.0214691,0.1629715,0.0269318,0.2477875c0.0173645,0.2492218,0.0011749,0.5196228-0.0457764,0.8065262
	c-0.1360703,0.8376541-0.5334244,1.8018951-1.1783981,2.7362976c-0.8805923,1.2792511-2.0118179,2.1962357-3.0110321,2.5424423
	c-0.1358185,0.0471344-0.2680206,0.0807419-0.397171,0.1062546C83.2090302,76.7017288,83.4108353,76.0419998,83.6814575,75.3725662
	L83.6814575,75.3725662z M74.4910431,64.9029312c0.0028458-0.0054932,0.0055008-0.0107498,0.0107498-0.018837
	c0.2628098-0.4821854,0.5644073-0.9911194,0.898201-1.5081444c0.3758011-0.580349,0.7528381-1.1097298,1.1069489-1.5633698
	c0.9520416-1.284687,1.7949829-2.0685349,2.1342697-1.9431877c0.0083084,0,0.013588,0.002594,0.0216522,0.0040169
	c0.0619659,0.0161858,0.1117249,0.0552902,0.1494446,0.1144142c0,0,0,0,0.001358,0.0014191
	c0.0484009,0.0780907,0.0700531,0.1857719,0.0579453,0.3029633c-0.0014191,0.0147667-0.002655,0.0310745-0.0054932,0.0458412
	c-0.0161896,0.1305389-0.0402832,0.2705917-0.0726547,0.4121246c-0.06073,0.2692299-0.1494141,0.5532265-0.2639771,0.8496437
	c-0.3326187,0.8616867-0.8832245,1.8083229-1.5917587,2.6729736c-1.1417313,1.3923721-2.3806458,2.1814041-3.1830902,2.1301956
	C73.9593124,65.9128876,74.2056885,65.4066162,74.4910431,64.9029312L74.4910431,64.9029312z M58.2593193,75.4211197
	c0.0014191-0.0054932,0.0040779-0.0107498,0.0066719-0.0176086c0.1669884-0.4524002,0.3716583-0.9358215,0.6127815-1.431221
	c0.2706528-0.5574951,0.5575523-1.0719223,0.8417358-1.5203094c0.7419586-1.2576904,1.5041237-2.0791626,1.9417648-2.0470428
	c0.0093269-0.0011673,0.0174217-0.0011673,0.0266876-0.0011673c0.0782127,0,0.1496887,0.0228577,0.2101707,0.0631332
	c0.0014191,0,0.0014191,0,0.002655,0.0014191c0.0809326,0.0538712,0.1388168,0.1386948,0.1588974,0.2370453
	c0.0028419,0.0133438,0.0054359,0.0269394,0.006855,0.0390472c0.0202637,0.1118164,0.0321884,0.2316055,0.0362663,0.3554764
	c0.0095139,0.2342606-0.0107498,0.4874954-0.057888,0.7555542c-0.136097,0.7810059-0.5037422,1.6763611-1.0840302,2.5369339
	c-0.9344635,1.3856354-2.1612663,2.2945862-3.1254425,2.4196854C57.9322014,76.365097,58.0720673,75.8964462,58.2593193,75.4211197
	L58.2593193,75.4211197z M93.7784042,80.1530609c1.0852661-2.892601,2.9367142-4.757637,2.9367142-4.757637l0.0014191,0.0014191
	c0.0741348-0.0834656,0.1522522-0.1669846,0.2342606-0.2490311c0.0821381-0.0820999,0.1670227-0.1629105,0.2558594-0.2410583
	c1.0706863-0.9468231,2.3134537-1.3654327,3.0796661-1.1069489c0.1779556,0.0593033,0.3299942,0.1562958,0.4471817,0.2894897
	c0.0026321,0.0028458,0.0038605,0.0054398,0.0052872,0.0067368c0.0323715,0.0378113,0.062149,0.0780869,0.0874481,0.1200333
	c0.0054321,0.0092697,0.0121078,0.0173645,0.017601,0.0266876c0.0242844,0.041893,0.0457535,0.0876083,0.0631409,0.1334457
	c0.0054703,0.0106888,0.0095444,0.0227966,0.0135574,0.0349655c0.0176392,0.0472031,0.030983,0.0943375,0.0417023,0.1453629
	c0.0028458,0.0109406,0.0040512,0.0242844,0.0068893,0.0350342c0.0093002,0.0486145,0.0159988,0.0983505,0.02005,0.1495667
	c0,0.0107498,0.0014191,0.0229187,0.0014191,0.0350266c0.0028381,0.0497894,0.0014191,0.0996475,0,0.1520386
	c-0.0014191,0.0161819-0.0014191,0.0337906-0.0026245,0.0512772c-0.0040817,0.0525742-0.0107193,0.1064377-0.0188446,0.1603088
	c-0.0040436,0.0214386-0.0080643,0.0442963-0.0121689,0.0657349c-0.0094833,0.0540543-0.0214386,0.1078644-0.0364227,0.1617355
	c-0.005249,0.0243454-0.0135574,0.0498581-0.0202332,0.0741348c-0.0133743,0.0417023-0.0269012,0.0834045-0.0402756,0.1251068
	c-0.0133743,0.0363846-0.0269394,0.0740662-0.0404663,0.1105194c-0.0161819,0.0402756-0.0322189,0.0808029-0.0498199,0.1212082
	c-0.0133514,0.0281754-0.0255203,0.0577621-0.0390778,0.0874786c0,0.001236-0.0012054,0.001236-0.0012054,0.002655
	c-0.1267395,0.2694168-0.29496,0.5441513-0.502449,0.8145523c-0.2072983,0.2709656-0.4536667,0.5375366-0.7364883,0.7865067
	c-0.0133438,0.0121689-0.0283279,0.0228577-0.0416718,0.0350266c-0.0512161,0.0457153-0.1157761,0.0998383-0.1898804,0.1588974
	c-0.0107498,0.0081558-0.0216827,0.0176086-0.033638,0.0257568C98.2664413,78.4671783,95.654007,80.1530609,93.7784042,80.1530609
	L93.7784042,80.1530609z M52.2119293,76.0063477c0.197998-0.261322,0.3824081-0.525116,0.5548935-0.7905197
	c0.0391083-0.0602951,0.0767288-0.1195984,0.1143532-0.1803284c0.0512161-0.0808029,0.1010704-0.1613693,0.1482086-0.2423553
	c0.0483704-0.0809326,0.0955086-0.1615524,0.1413498-0.2423019c0.0457153-0.0807419,0.0914307-0.1631546,0.134613-0.2439575
	c0.0687599-0.1291199,0.1348038-0.2570648,0.1979408-0.3850098c0.0297775-0.0604782,0.0578842-0.1212082,0.0862427-0.1803284
	c0.0619011-0.1333847,0.1212082-0.2666397,0.1777382-0.4000778c0.0176048-0.0390472,0.0336075-0.0780869,0.0485573-0.117012
	c0.0281715-0.0699921,0.0564651-0.1414719,0.0834007-0.2115326c0.0283546-0.0728302,0.0552902-0.1453018,0.0808067-0.2182007
	c0.0255127-0.068634,0.0497932-0.1386261,0.0727119-0.2085037c0.0227966-0.0700531,0.0459023-0.1402969,0.0673409-0.211586
	c0.0161858-0.0525742,0.0323715-0.1062622,0.0471992-0.1588364c0.008091-0.0269318,0.0159988-0.0525131,0.0228577-0.0793839
	c0.0147629-0.0499802,0.0281715-0.1010742,0.0402794-0.1510468c0.008091-0.0281143,0.0148277-0.0550461,0.0216827-0.0832214
	c0.0107498-0.0433044,0.0214386-0.0850067,0.0321884-0.1279449c0.0162468-0.0687561,0.0309486-0.1374512,0.0459633-0.2060928
	c0.0188408-0.083519,0.0350266-0.1684036,0.0497932-0.2518082c0.0173607-0.0943375,0.0335464-0.1898422,0.0471382-0.2841797
	c0.0093269-0.0631409,0.0186577-0.1279449,0.0267487-0.19133c0.0068588-0.0552902,0.0135307-0.1089172,0.0176086-0.1627274
	c0.002594-0.0095749,0.0040741-0.018837,0.0040741-0.0283508c0.0054398-0.0512161,0.0106888-0.1024323,0.0133476-0.1534576
	c0.006855-0.0647507,0.0109329-0.1293716,0.0149498-0.1927567c0.0053101-0.0833359,0.0093269-0.1655655,0.0119209-0.2489624
	v-0.0080948c0.0028419-0.0834045,0.0041389-0.1670532,0.0041389-0.2503891c0-0.4753876-0.0417595-0.9520721-0.1265831-1.4262238
	c-0.8388939-4.6712074-5.6959305-8.0269623-12.294323-9.206562c-1.0004463-0.1789131-2.0399933-0.3069191-3.1118546-0.382412
	l0.9599152-2.6405449h-4.9204216l-0.7581482,2.0870705l-0.1789093,0.4915733
	c-0.5239449,0.0161858-1.0519066,0.0390434-1.5836372,0.0699959c-1.8488483,0.1091614-3.6453094,0.3150063-5.3676376,0.6087646
	c-1.7961521,0.3028412-3.5130444,0.7001991-5.1276913,1.1781197c-1.5310593,0.4524689-2.9705639,0.9775848-4.2983112,1.5634956
	l0.7986126,1.5848694l1.160759,2.3026733c2.4156685-1.4004593,5.3742504-2.5357018,8.6545734-3.2183571
	c1.5350761-0.3192101,3.0431538-0.5210419,4.498909-0.6113014l-0.0674019,0.1843491l-2.4468689,6.7276382L25.793148,81.5288086
	l-0.450922,1.2415619l-0.0445423,0.1210251l-0.1022453,0.2842484h-0.0014191l-0.7326336,2.0186768
	c0.8081264,0.0320663,1.6281757,0.0470123,2.4575539,0.0429382c0.833643-0.0040207,1.6577702-0.0269394,2.4710865-0.0688248
	c6.5765839-0.3257599,12.4369087-1.8164139,16.6680679-4.0262375c0.001236,0,0.001236,0,0.001236,0
	c0.8564377-0.448204,1.6455994-0.9249496,2.3606224-1.4273987c0.9399033-0.6611557,1.7517967-1.3668518,2.4170914-2.1085663
	c0.190033-0.195343,0.3704262-0.391922,0.5441475-0.58992c0.0797539-0.0890274,0.1578445-0.17836,0.2350044-0.2676315
	c0.0467682-0.0538025,0.0931015-0.1076736,0.1378288-0.1619186c0.0364494-0.0417023,0.0714798-0.0834045,0.1050873-0.1265259
	c0.0633202-0.0781479,0.1253471-0.1562958,0.1858292-0.2344437C52.1016541,76.1533203,52.1581192,76.0804825,52.2119293,76.0063477
	L52.2119293,76.0063477z M47.6134338,70.6928329c0,0.0174179-0.0014229,0.0350266-0.0014229,0.0512085
	c-0.0012321,0.0431213-0.0040741,0.0859985-0.0067329,0.1291199c0,0.0068588-0.0014191,0.0134048-0.0014191,0.0202637v0.0080948
	c-0.0011749,0.0229187-0.002594,0.0471954-0.0040169,0.0700531c-0.0040169,0.0389252-0.0066719,0.0767288-0.0107498,0.1158371
	c-0.0014191,0.0066071-0.0014191,0.0147629-0.002594,0.0213776c-0.0040169,0.0538712-0.0109978,0.1091614-0.0176086,0.1632156
	c-0.0040741,0.0321274-0.008152,0.0645599-0.011982,0.0967484c-0.0080948,0.0619659-0.0175476,0.1238632-0.0283585,0.1858902
	c-0.008091,0.0593109-0.0187798,0.117012-0.0309525,0.1763153c0,0.0027847,0,0.0066147-0.0014191,0.0108719
	c-0.0011749,0.0093307-0.0040169,0.0189056-0.005497,0.0281143c-0.0118637,0.0567093-0.0240326,0.1144104-0.0362053,0.1711273
	c-0.0147629,0.0687561-0.0309486,0.1388168-0.0485573,0.2074509c-0.0133438,0.0524521-0.0269356,0.1048355-0.0416985,0.1575317
	c-0.0093307,0.0362091-0.0202637,0.0740738-0.0309525,0.110527c-0.0041389,0.0159378-0.0093269,0.0307617-0.0134048,0.0469513
	c-0.0256996,0.0888977-0.0538101,0.1779175-0.0848236,0.2653961c-0.0135918,0.0415192-0.0282936,0.0834045-0.0431213,0.1252899
	c-0.0229187,0.0658569-0.0471382,0.1317749-0.0726509,0.1963959c-0.0283585,0.0728378-0.0567131,0.1454849-0.0876656,0.2182007
	c-0.0321846,0.0767288-0.0645561,0.1520386-0.0995865,0.2289505c-0.0324326,0.06987-0.0645599,0.1413498-0.0983505,0.2113495
	c-0.0417023,0.084816-0.0848846,0.1696396-0.1291809,0.2544632c-0.0365105,0.0714798-0.07407,0.1427689-0.1145973,0.2127686
	c-0.002594,0.0054932-0.0052528,0.0093231-0.0080948,0.014946c-0.0321846,0.0591278-0.0657921,0.117012-0.0995865,0.1748962
	c-0.0512161,0.0874786-0.1036644,0.1737213-0.1574745,0.259964c-0.0350266,0.0564651-0.071476,0.1131821-0.1091614,0.1698303
	c-0.059124,0.0927277-0.122448,0.1856461-0.1870041,0.2786255c-0.0431213,0.0618973-0.0862427,0.1226273-0.129364,0.1831741
	c-0.1453667,0.197937-0.2963524,0.393158-0.4579048,0.5856552c-0.0269356,0.0349731-0.0565262,0.0699997-0.0860558,0.1036072
	c-0.0984154,0.1174393-0.1994247,0.2330246-0.3045082,0.3473816c-0.0511551,0.0567093-0.1036034,0.1131134-0.1560555,0.1696396
	l-0.0054359,0.0056839c-0.0524483,0.0552368-0.1062584,0.111702-0.1601295,0.1669922
	c-0.004261,0.00383-0.006855,0.006546-0.0095749,0.0107498c-0.0390434,0.0402756-0.0780869,0.0793228-0.1171341,0.1184311
	c-0.0324326,0.0336075-0.06604,0.0645523-0.0982285,0.0969315c-0.0673981,0.0674591-0.1348,0.131958-0.203434,0.1954041
	c-0.0391083,0.0390396-0.0793877,0.0764771-0.1198502,0.1129303c-0.0712318,0.0673981-0.1453056,0.133255-0.2194405,0.1994171
	c-0.0538712,0.048378-0.1077423,0.0969925-0.1629715,0.1427155c-0.0444794,0.0390396-0.0888367,0.0781479-0.1346169,0.1157684
	c-0.0593071,0.0497971-0.1186142,0.0995865-0.1791573,0.1494446c-0.002594,0.002594-0.0054359,0.0040131-0.008091,0.0066071
	c-0.0686378,0.0567169-0.1374588,0.1146011-0.2086906,0.1684723c-0.0767899,0.0619659-0.1548767,0.1224442-0.2342033,0.1831741
	c-0.1670494,0.1277618-0.3366928,0.2542801-0.510601,0.376976c-0.0645561,0.0469513-0.1305351,0.0931015-0.196579,0.1388168
	c-0.0807419,0.0565262-0.1641464,0.1117554-0.2463112,0.1682816c-0.0943336,0.0631409-0.1899071,0.1252899-0.2868996,0.1870651
	c-0.1103363,0.0714188-0.2220306,0.1426468-0.3366318,0.2127075c-0.1992378,0.1212692-0.4011917,0.2411804-0.6087036,0.3583755
	c-0.059124,0.0335464-0.1184311,0.0671539-0.1775551,0.0995255c-0.0364494,0.0202637-0.072834,0.0405273-0.1091003,0.0606079
	c-0.0552902,0.0309525-0.1105194,0.06073-0.1669884,0.0900726c-0.008152,0.0056229-0.0161858,0.0094528-0.0243378,0.01371
	c-0.1197891,0.0632019-0.2396393,0.1265259-0.3609734,0.1883087c-0.0051918,0.0015411-0.0092659,0.0042572-0.0147667,0.0068512
	c-0.0631371,0.0323715-0.126461,0.0648117-0.189846,0.0957565c-0.0645561,0.0320053-0.127697,0.0632019-0.1925621,0.0941544
	c-0.1036034,0.0497894-0.2072678,0.0995865-0.312294,0.1479568c-0.1360359,0.0635757-0.2720718,0.1252899-0.4107628,0.1872559
	c-0.0700607,0.0311966-0.1400528,0.0605392-0.2112846,0.0917358c-0.136097,0.0576401-0.2735558,0.115593-0.4107666,0.1708221
	c-0.0782127,0.0324326-0.1575356,0.0648041-0.2371063,0.0957565c-0.002655,0.001236-0.0040779,0.001236-0.0066719,0.002594
	c-0.0767288,0.0310135-0.1534576,0.0605392-0.2316093,0.0903168c-0.0014191,0-0.0014191,0.001236-0.002594,0
	c-0.0971794,0.0374451-0.193924,0.0740738-0.2923355,0.1103439c-0.0981674,0.0363846-0.1953468,0.0712891-0.2935104,0.1050797
	c-0.0917435,0.0321274-0.1844711,0.0645599-0.2773857,0.0957565c-0.0161858,0.006424-0.0337944,0.0118637-0.0499802,0.0171738
	c-0.0011749,0-0.003891,0.0014267-0.0052528,0.0014267c-0.0767288,0.0257568-0.1522217,0.0512085-0.2303696,0.0754929
	c-0.1548805,0.0512161-0.3097,0.1010056-0.4672356,0.1479568c-0.0848198,0.0257645-0.1710625,0.0526962-0.2585411,0.0767288
	c-0.0740738,0.0216827-0.1481476,0.0433121-0.2234535,0.0648041c-0.1064453,0.0297775-0.2127647,0.0591278-0.3192711,0.0876694
	c-0.4779205,0.1277542-0.9639969,0.2437134-1.4595222,0.3459549c-0.6087685,0.1252899-1.2146301,0.2275314-1.8152428,0.3082809
	c-0.0040169,0-0.0081558,0.0014191-0.0135918,0.0014191c-0.5951138,0.0782089-1.1848526,0.1346741-1.7666225,0.1696472
	l0.5574913-1.5309982l4.6120853-12.6834717l2.1612015-5.9439125l0.0391083-0.1091614
	c0.1601295,0.0203247,0.320446,0.0431213,0.4781647,0.0686378c0.0753098,0.010994,0.1506195,0.0231018,0.2246895,0.0365105
	c0.0040169,0,0.0080948,0.0014191,0.0121727,0.0014191c0.1238632,0.0202026,0.2477913,0.0416412,0.3702393,0.065918
	c0.1091003,0.0202637,0.2182007,0.0403404,0.325882,0.0632019c0.0176048,0.0040741,0.0350914,0.0066719,0.0526962,0.0109329
	c0.0159378,0.003891,0.0335464,0.0066719,0.0497322,0.0107498c0.0700569,0.0147667,0.1401138,0.0295296,0.2086868,0.0457153
	c0.0632019,0.0135918,0.125164,0.0283585,0.1870689,0.0431213c0.0607262,0.0133438,0.1212692,0.0281715,0.1805763,0.0431213
	c0.0606079,0.0147667,0.1210861,0.0295296,0.1818161,0.0457802c0.0874786,0.0228577,0.1737213,0.0457153,0.259964,0.0700569
	c0.0726509,0.0187798,0.1453667,0.0389824,0.2165337,0.060482c0.0728989,0.0201988,0.1441917,0.0416985,0.2156067,0.0645561
	c0.0712929,0.0202637,0.1427727,0.0431213,0.2128296,0.0660439c0.0699959,0.0216217,0.1400528,0.0445404,0.2101097,0.0687561
	c0.068634,0.0229225,0.1386299,0.0470161,0.2072678,0.0712929c0.068634,0.0228615,0.1372108,0.0484352,0.20467,0.0740738
	c0.0686378,0.0243416,0.1360397,0.0498543,0.2032547,0.0767899c0.0485573,0.0176086,0.0956955,0.0363884,0.1429558,0.055233
	c0.0874138,0.0350266,0.1735954,0.0700569,0.259655,0.1063194c0.0431213,0.0175438,0.0862427,0.0363884,0.129364,0.0551682
	c0.0202637,0.0081558,0.0405273,0.0162468,0.0593071,0.0255775c0.064621,0.0282936,0.1291809,0.0566521,0.1925011,0.0862427
	c0.1265869,0.057888,0.251812,0.1171951,0.374382,0.1790962c0.0619011,0.0295906,0.1238632,0.0605431,0.1843452,0.0929756
	c0.3030853,0.1562424,0.5954247,0.3231049,0.8727493,0.4981842c0.0550423,0.0350266,0.1102753,0.0699921,0.1655655,0.1062622
	c0.1091614,0.0714722,0.2154236,0.1441879,0.320507,0.2196808c0.0524521,0.0363922,0.1050224,0.0740738,0.1562996,0.113121
	c0.0511551,0.0376816,0.1021843,0.0767288,0.1521606,0.1157684c0.0510902,0.0376892,0.1008224,0.0767899,0.1493835,0.117012
	c0.0484314,0.0391006,0.0970535,0.079628,0.1453629,0.1199112c0.063385,0.0525742,0.1265221,0.1076813,0.188488,0.1643295
	c0.0780869,0.065979,0.1536446,0.1360397,0.2277145,0.2060928c0.0443573,0.0417023,0.0889015,0.0848846,0.1318359,0.1277618
	c0.0202026,0.0204468,0.0390434,0.0390396,0.0593071,0.0593033c0.0390434,0.0390472,0.0767288,0.0781555,0.1145401,0.1186142
	c0.0269356,0.0268784,0.0524483,0.0550461,0.0779648,0.0834045c0.0418854,0.0442963,0.0821648,0.0902557,0.1212692,0.1346741
	c0.0349693,0.0404053,0.0700569,0.0795135,0.1036644,0.1197891c0.0928535,0.110527,0.1831131,0.2237015,0.2694168,0.3380585
	c0.0026588,0.002655,0.0040779,0.0066681,0.0066719,0.0093231c0.0188446,0.0242844,0.0362053,0.0486221,0.0538101,0.0728378
	c0.0202637,0.0269394,0.0391045,0.0538712,0.057888,0.0808105c0.0041389,0.0040131,0.0067329,0.0093231,0.0107498,0.0148239
	c0.0822258,0.1171951,0.1617966,0.2355652,0.2356834,0.3568344c0.0027809,0.0040131,0.0040779,0.0067368,0.0069199,0.0107498
	c0.0159378,0.0269394,0.0321236,0.0524521,0.0468903,0.0793228c0.0297775,0.0486221,0.0579491,0.0969925,0.0850677,0.1455536
	c0.00383,0.0081558,0.0092697,0.0161819,0.0133438,0.0243378c0.0362053,0.0645599,0.0699959,0.1291809,0.1050873,0.1936798
	c0.0040169,0.0095749,0.0092659,0.0202637,0.0147667,0.0297775c0.0336075,0.06604,0.065979,0.133194,0.0969276,0.2006531
	c0.0014229,0.0040131,0.0040779,0.0066147,0.0055008,0.0107498c0.0347786,0.0726547,0.0671539,0.1467285,0.0981636,0.2222824
	c0.0014229,0.002594,0.0028419,0.005188,0.0040779,0.0080261c0.0297775,0.0726547,0.0593071,0.1453705,0.0862427,0.2194443
	c0.0282974,0.0753021,0.054985,0.152092,0.0807457,0.2289505c0.0255165,0.0781479,0.0497932,0.1560516,0.0726509,0.2342606
	c0.0229225,0.0780869,0.0445442,0.1574783,0.063385,0.2370453c0.0080948,0.0295334,0.0147667,0.0591202,0.0214996,0.0888367
	c0.0121078,0.0497971,0.0227966,0.0996552,0.0337334,0.1508026C47.5890923,69.6976395,47.6296196,70.1946487,47.6134338,70.6928329
	L47.6134338,70.6928329z"/>
<path class="st2" d="M247.0411072,62.1295662h0.3947601c0.4615479,0,0.680191,0.1750793,0.7449646,0.5690422
	c0.1093445,0.4160194,0.1761322,0.7441864,0.2834015,0.8755264h0.8947754
	c-0.0870514-0.13134-0.1517944-0.3502235-0.2611389-0.8973961c-0.109314-0.4815636-0.3056793-0.7429504-0.6538696-0.8735504
	V61.759758c0.4352417-0.1306,0.7409515-0.4369583,0.7409515-0.8314781c0-0.3505936-0.1539001-0.6344681-0.3482208-0.7866287
	c-0.2631683-0.1524086-0.5668182-0.2612-1.2470245-0.2612c-0.5911102,0-1.0486145,0.0435562-1.3765564,0.1087914v3.5848923
	h0.8279572V62.1295662L247.0411072,62.1295662z M247.0633698,60.5118904
	c0.0890961-0.0220528,0.2409058-0.0439224,0.4615479-0.0439224c0.524353,0,0.7652588,0.2192497,0.7652588,0.5479774
	c0,0.3727074-0.3725281,0.526104-0.8320313,0.526104h-0.3947754V60.5118904L247.0633698,60.5118904z M247.611969,58.1096268
	c-2.0547333,0-3.694458,1.5953751-3.694458,3.5847092c0,2.0330734,1.6397247,3.6272125,3.694458,3.6272125
	c2.0770264,0,3.6722107-1.5941391,3.6722107-3.6272125C251.2841797,59.7050018,249.6889954,58.1096268,247.611969,58.1096268
	L247.611969,58.1096268z M247.611969,58.8282394c1.5952454,0,2.7551727,1.2915421,2.7551727,2.8879662
	c0,1.5735016-1.1599274,2.8430519-2.7328949,2.8430519c-1.6174622,0-2.7996979-1.2695503-2.7996979-2.8649216
	C244.834549,60.1197815,246.0167847,58.8282394,247.611969,58.8282394L247.611969,58.8282394z"/>
</svg>
