<?xml version="1.0" encoding="utf-8"?>
<!-- Generator: Adobe Illustrator 22.1.0, SVG Export Plug-In . SVG Version: 6.00 Build 0)  -->
<svg version="1.1" id="DKV" xmlns="http://www.w3.org/2000/svg" xmlns:xlink="http://www.w3.org/1999/xlink" x="0px" y="0px"
	 viewBox="0 0 419.2 156.7" style="enable-background:new 0 0 419.2 156.7;" xml:space="preserve">
<style type="text/css">
	.st0{fill:#98A92A;}
	.st1{fill:#095751;}
</style>
<g>
	<g id="Claim_x5F_DE">
		<path class="st0" d="M4.7,129.8c3.7,0,6,0.7,7.7,2.5c1.5,1.6,2.5,4,2.5,7.5S14,146.1,12,148c-1.7,1.6-4,2.1-7.1,2.1H0v-20.2h4.7
			V129.8z M2.7,147.8h2.2c1.9,0,3.8-0.4,5.1-1.6c1.4-1.3,2.1-3.5,2.1-6.4c0-2.6-0.6-4.5-1.6-5.8c-1.1-1.3-2.8-2.1-5.4-2.1H2.7
			C2.7,131.9,2.7,147.8,2.7,147.8z"/>
		<path class="st0" d="M20.8,143.5c0.1,1.6,0.5,2.8,1.4,3.5c0.8,0.7,1.9,1,3.3,1c1.2,0,2.4-0.3,3.7-0.9c0.3-0.1,0.4-0.2,0.7,0.5
			l0.1,0.3c0.3,0.7,0.3,0.9,0.1,1c-1.4,0.8-3.2,1.3-5.1,1.3c-4.6,0-6.9-2.8-6.9-7.4c0-4.7,2.6-8,6.7-8c2.5,0,4.2,1.2,5.1,3.1
			c0.6,1.3,0.9,2.8,0.9,4.5c0,0.8-0.1,1-0.3,1L20.8,143.5L20.8,143.5z M28.4,141.4c0-2.1-1.1-4.2-3.5-4.2c-2.1,0-3.7,1.3-4,4.2H28.4
			z"/>
		<path class="st0" d="M36,135.2c1.1,0,1.2,0.1,1.2,0.3v7.4c0,2.2,0.1,3.4,0.7,4.1c0.5,0.6,1.3,1,2.5,1c1.1,0,2.4-0.4,3.1-1
			c0.6-0.6,0.9-1.4,0.9-4.5v-6.9c0-0.2,0.2-0.3,1.1-0.3h0.3c1,0,1.2,0.1,1.2,0.3v9.6c0,1.9,0.1,3.9,0.1,4.6c0,0.2-0.1,0.3-1.2,0.3
			h-0.1c-1,0-1.2-0.1-1.2-0.3l-0.1-1.2l0,0c-1,1.2-2.6,1.8-4.7,1.8c-1.5,0-2.8-0.5-3.7-1.5c-1-1-1.4-2.5-1.4-4.8v-8.5
			c0-0.2,0.1-0.3,1.1-0.3H36V135.2z"/>
		<path class="st0" d="M53.8,131c1.1,0,1.2,0.1,1.2,0.3v3.8h3.5c0.2,0,0.3,0.1,0.3,0.9v0.2c0,0.8-0.1,0.9-0.3,0.9H55v8.3
			c0,1.1,0.1,1.8,0.4,2.2c0.3,0.3,0.8,0.5,1.4,0.5s1.3-0.2,1.9-0.4c0.3-0.1,0.4,0,0.5,0.6l0.1,0.4c0.1,0.6,0.1,0.8-0.1,0.9
			c-0.7,0.4-1.9,0.7-3,0.7c-1.3,0-2.2-0.3-2.8-0.9c-0.8-0.8-1.1-1.8-1.1-3.7v-8.5h-1.8c-0.2,0-0.3-0.1-0.3-0.9V136
			c0-0.7,0.1-0.9,0.3-0.9h1.8v-3.8c0-0.2,0.1-0.3,1.2-0.3H53.8z"/>
		<path class="st0" d="M71.6,137.7c-0.5,0.7-0.6,0.7-0.8,0.6c-1-0.7-2-1.2-3.3-1.2c-1.2,0-2.8,0.5-2.8,2s1.6,1.9,2.9,2.2
			c2.3,0.6,4.8,1.4,4.8,4.4s-2.5,4.6-5.6,4.6c-1.8,0-3.5-0.6-4.6-1.4c-0.3-0.2-0.2-0.4,0.1-1l0.1-0.3c0.4-0.8,0.5-0.8,0.8-0.6
			c1.1,0.6,2.4,1.1,3.7,1.1s3.1-0.6,3.1-2.3c0-1.5-1.8-2-3.2-2.3c-1.5-0.3-2.6-0.7-3.3-1.4c-0.7-0.6-1.1-1.6-1.1-2.7
			c0-2.8,2.4-4.4,5.2-4.4c1.8,0,3.4,0.6,4.4,1.5c0.2,0.2,0.3,0.4-0.1,1L71.6,137.7z"/>
		<path class="st0" d="M86.6,148c0.3,0.7,0.2,0.9,0,1c-1.4,0.8-3,1.3-4.8,1.3c-4.3,0-6.4-3.3-6.4-7.5c0-5.1,3-7.9,6.9-7.9
			c1.8,0,3.3,0.6,4.5,1.5c0.2,0.2,0.2,0.4-0.2,1.3c-0.4,1-0.7,0.9-0.9,0.7c-1-0.7-2.2-1.2-3.3-1.2c-2.6,0-4.4,2-4.4,5.5
			c0,2.7,1.1,5.3,4.1,5.3c1.2,0,2.5-0.3,3.6-0.9c0.2-0.1,0.5,0,0.7,0.6L86.6,148z"/>
		<path class="st0" d="M92,128.6c1.1,0,1.2,0.1,1.2,0.3v7.7c1-1.1,2.8-1.8,4.5-1.8c1.5,0,2.9,0.5,3.9,1.5s1.4,2.5,1.4,4.8v8.5
			c0,0.2,0,0.3-1.2,0.3h-0.2c-1.1,0-1.2-0.1-1.2-0.3v-7.3c0-2.3-0.1-3.3-0.8-4.1c-0.5-0.6-1.4-0.9-2.7-0.9c-1,0-2.3,0.4-3,1
			c-0.3,0.3-0.6,0.8-0.8,2c-0.1,0.8-0.1,2.2-0.1,3.9v5.5c0,0.2,0,0.3-1.2,0.3h-0.2c-1.1,0-1.2-0.1-1.2-0.3V129c0-0.2,0-0.3,1.2-0.3
			L92,128.6L92,128.6z"/>
		<path class="st0" d="M109.1,143.5c0.1,1.6,0.5,2.8,1.4,3.5c0.8,0.7,1.9,1,3.3,1c1.2,0,2.4-0.3,3.7-0.9c0.3-0.1,0.4-0.2,0.7,0.5
			l0.1,0.3c0.3,0.7,0.3,0.9,0.1,1c-1.4,0.8-3.2,1.3-5.1,1.3c-4.6,0-6.9-2.8-6.9-7.4c0-4.7,2.6-8,6.7-8c2.5,0,4.2,1.2,5.1,3.1
			c0.6,1.3,0.9,2.8,0.9,4.5c0,0.8-0.1,1-0.3,1L109.1,143.5L109.1,143.5z M116.7,141.4c0-2.1-1.1-4.2-3.5-4.2c-2,0-3.7,1.3-4,4.2
			H116.7z"/>
		<path class="st0" d="M132.7,129.8c0.8,0,1.2,0.1,1.2,0.3v9.6l2.2-2.4c2.6-2.9,4.4-5.3,5.4-7.2c0.1-0.2,0.3-0.3,1.2-0.3h0.2
			c1,0,1.2,0.1,1.1,0.3c-0.7,1.7-3,5-6,8.2l6.9,11.4c0.1,0.2-0.4,0.3-1.2,0.3h-0.5c-0.7,0-1.2-0.1-1.3-0.3l-5.6-9.6l-2.3,2.6v7.1
			c0,0.2-0.4,0.3-1.2,0.3h-0.3c-0.8,0-1.2-0.1-1.2-0.3v-19.6c0-0.2,0.4-0.3,1.2-0.3h0.2V129.8z"/>
		<path class="st0" d="M149.7,135.2c1,0,1.2,0.1,1.2,0.3l0.1,2.9c1.1-2.4,2.6-3.4,4.1-3.4c0.3,0,0.5,0,0.6,0.1
			c0.3,0.1,0.3,0.1,0.3,0.8v0.4c0,0.8,0,1-0.3,1c-2,0-3,1.2-3.8,2.6c-0.4,0.6-0.6,1.4-0.7,2.4c-0.1,0.8-0.1,2.5-0.1,4.2v3.2
			c0,0.2,0,0.3-1.2,0.3h-0.2c-1.1,0-1.2-0.1-1.2-0.3v-9.6c0-1.9-0.1-3.9-0.1-4.6c0-0.2,0.1-0.3,1.2-0.3L149.7,135.2L149.7,135.2z"/>
		<path class="st0" d="M169.4,135.2c1.1,0,1.1,0.1,1.1,0.3c0,0.7-0.1,2.5-0.1,4.3v3.9c0,2.6,0.1,4.4,0.2,6c0,0.2-0.1,0.3-1,0.3h-0.1
			c-0.9,0-1-0.1-1.1-0.3l-0.2-1.3c-0.9,1.1-2.5,1.9-4.3,1.9c-4.1,0-6-3.4-6-7.4c0-4.8,2.8-8,6.5-8c1.7,0,3,0.8,3.8,1.8l0.1-1.2
			C168.3,135.2,168.5,135.2,169.4,135.2L169.4,135.2z M167.9,139.1c-0.6-1-1.9-1.9-3.2-1.9c-2.6,0-4.1,2.2-4.1,5.5
			c0,2.6,0.9,5.3,3.8,5.3c0.9,0,2.1-0.3,2.8-1.1c0.6-0.6,0.7-1.4,0.7-3.9L167.9,139.1L167.9,139.1z"/>
		<path class="st0" d="M176.3,135.2c1,0,1.2,0.1,1.2,0.3v1.3l0,0c1-1.2,2.8-1.9,4.6-1.9c1.5,0,2.9,0.5,3.8,1.5c1,1,1.4,2.5,1.4,4.8
			v8.5c0,0.2,0,0.3-1.2,0.3h-0.2c-1.1,0-1.2-0.1-1.2-0.3v-7.3c0-2.3-0.1-3.3-0.8-4.1c-0.5-0.6-1.4-0.9-2.7-0.9c-1,0-2.3,0.4-3,1
			c-0.3,0.3-0.6,0.8-0.8,2c-0.1,0.8-0.1,2.2-0.1,3.9v5.5c0,0.2,0,0.3-1.2,0.3h-0.2c-1.1,0-1.2-0.1-1.2-0.3v-9.6
			c0-1.9-0.1-3.9-0.1-4.6c0-0.2,0.1-0.3,1.2-0.3L176.3,135.2L176.3,135.2z"/>
		<path class="st0" d="M193.5,128.6c1.1,0,1.2,0.1,1.2,0.3v12.2l1.7-1.6c1.5-1.4,2.4-2.4,3.7-4.2c0.2-0.2,0.3-0.3,1.3-0.3
			s1.3,0.2,1.2,0.4c-0.6,1-2.4,3.3-4.7,5.5l5.3,8.5c0.1,0.2,0,0.4-1.1,0.4H202c-1.1,0-1.3-0.1-1.5-0.3l-4.4-7.1l-1.4,1.3v5.8
			c0,0.2,0,0.3-1.2,0.3h-0.2c-1.1,0-1.2-0.1-1.2-0.3V129c0-0.2,0.1-0.3,1.2-0.3L193.5,128.6L193.5,128.6z"/>
		<path class="st0" d="M208.2,143.5c0.1,1.6,0.5,2.8,1.4,3.5c0.8,0.7,1.9,1,3.3,1c1.2,0,2.4-0.3,3.7-0.9c0.3-0.1,0.4-0.2,0.7,0.5
			l0.1,0.3c0.3,0.7,0.3,0.9,0.1,1c-1.4,0.8-3.2,1.3-5.1,1.3c-4.6,0-6.9-2.8-6.9-7.4c0-4.7,2.6-8,6.7-8c2.5,0,4.2,1.2,5.1,3.1
			c0.6,1.3,0.9,2.8,0.9,4.5c0,0.8-0.1,1-0.3,1L208.2,143.5L208.2,143.5z M215.8,141.4c0-2.1-1.1-4.2-3.5-4.2c-2.1,0-3.7,1.3-4,4.2
			H215.8z"/>
		<path class="st0" d="M223.7,135.2c1,0,1.2,0.1,1.2,0.3v1.3l0,0c1-1.2,2.8-1.9,4.6-1.9c1.5,0,2.9,0.5,3.8,1.5c1,1,1.4,2.5,1.4,4.8
			v8.5c0,0.2,0,0.3-1.2,0.3h-0.2c-1.1,0-1.2-0.1-1.2-0.3v-7.3c0-2.3-0.1-3.3-0.8-4.1c-0.5-0.6-1.4-0.9-2.7-0.9c-1,0-2.3,0.4-3,1
			c-0.3,0.3-0.6,0.8-0.8,2c-0.1,0.8-0.1,2.2-0.1,3.9v5.5c0,0.2,0,0.3-1.2,0.3h-0.2c-1.1,0-1.2-0.1-1.2-0.3v-9.6
			c0-1.9-0.1-3.9-0.1-4.6c0-0.2,0.1-0.3,1.2-0.3L223.7,135.2L223.7,135.2z"/>
		<path class="st0" d="M244.3,147.1L244.3,147.1c1.4-3.7,2.8-7.7,3.6-11.7c0.1-0.2,0.1-0.3,1.2-0.3s1.3,0,1.2,0.5
			c-1.3,5.4-3.1,10.4-4.7,14c-0.1,0.3-0.4,0.3-1.5,0.3s-1.3-0.1-1.4-0.3l-5.1-14.1c-0.1-0.3,0.2-0.4,1.2-0.4s1.4,0.1,1.5,0.3
			L244.3,147.1z"/>
		<path class="st0" d="M255.2,143.5c0.1,1.6,0.5,2.8,1.4,3.5c0.8,0.7,1.9,1,3.3,1c1.2,0,2.4-0.3,3.7-0.9c0.3-0.1,0.4-0.2,0.7,0.5
			l0.1,0.3c0.3,0.7,0.3,0.9,0.1,1c-1.4,0.8-3.2,1.3-5.1,1.3c-4.5,0-6.9-2.8-6.9-7.4c0-4.7,2.6-8,6.7-8c2.5,0,4.2,1.2,5.1,3.1
			c0.6,1.3,0.9,2.8,0.9,4.5c0,0.8-0.1,1-0.3,1L255.2,143.5L255.2,143.5z M262.7,141.4c0-2.1-1.1-4.2-3.5-4.2c-2.1,0-3.6,1.3-4,4.2
			H262.7z"/>
		<path class="st0" d="M270.7,135.2c1,0,1.2,0.1,1.2,0.3l0.1,2.9c1.1-2.4,2.6-3.4,4.1-3.4c0.2,0,0.5,0,0.6,0.1
			c0.3,0.1,0.3,0.1,0.3,0.8v0.4c0,0.8,0,1-0.3,1c-2,0-3,1.2-3.8,2.6c-0.4,0.6-0.6,1.4-0.7,2.4c-0.1,0.8-0.1,2.5-0.1,4.2v3.2
			c0,0.2,0,0.3-1.2,0.3h-0.2c-1.1,0-1.2-0.1-1.2-0.3v-9.6c0-1.9-0.1-3.9-0.1-4.6c0-0.2,0.1-0.3,1.1-0.3L270.7,135.2L270.7,135.2z"/>
		<path class="st0" d="M289,137.7c-0.5,0.7-0.7,0.7-0.8,0.6c-1-0.7-2-1.2-3.3-1.2c-1.2,0-2.8,0.5-2.8,2s1.6,1.9,2.9,2.2
			c2.3,0.6,4.7,1.4,4.7,4.4s-2.5,4.6-5.6,4.6c-1.8,0-3.5-0.6-4.6-1.4c-0.3-0.2-0.2-0.4,0.1-1l0.1-0.3c0.4-0.8,0.5-0.8,0.8-0.6
			c1.1,0.6,2.4,1.1,3.7,1.1c1.3,0,3.1-0.6,3.1-2.3c0-1.5-1.8-2-3.2-2.3c-1.5-0.3-2.6-0.7-3.3-1.4c-0.7-0.6-1.1-1.6-1.1-2.7
			c0-2.8,2.4-4.4,5.2-4.4c1.8,0,3.4,0.6,4.4,1.5c0.2,0.2,0.3,0.4-0.1,1L289,137.7z"/>
		<path class="st0" d="M295.1,128.8c1,0,1.8,0.8,1.8,1.8s-0.8,1.8-1.8,1.8s-1.8-0.8-1.8-1.8C293.3,129.6,294.1,128.8,295.1,128.8z
			 M295.2,135.2c1.1,0,1.2,0.1,1.2,0.3v14.2c0,0.2,0,0.3-1.2,0.3H295c-1.1,0-1.2-0.1-1.2-0.3v-14.2c0-0.2,0.1-0.3,1.2-0.3H295.2z"/>
		<path class="st0" d="M311.6,148c0.3,0.7,0.2,0.9,0,1c-1.4,0.8-3,1.3-4.8,1.3c-4.3,0-6.4-3.3-6.4-7.5c0-5.1,3-7.9,6.9-7.9
			c1.8,0,3.3,0.6,4.5,1.5c0.2,0.2,0.2,0.4-0.2,1.3c-0.4,1-0.7,0.9-0.9,0.7c-1-0.7-2.2-1.2-3.3-1.2c-2.6,0-4.4,2-4.4,5.5
			c0,2.7,1.1,5.3,4.1,5.3c1.2,0,2.5-0.3,3.6-0.9c0.2-0.1,0.5,0,0.7,0.6L311.6,148z"/>
		<path class="st0" d="M317,128.6c1.1,0,1.2,0.1,1.2,0.3v7.7c1-1.1,2.8-1.8,4.5-1.8c1.5,0,2.9,0.5,3.9,1.5s1.4,2.5,1.4,4.8v8.5
			c0,0.2,0,0.3-1.2,0.3h-0.2c-1.1,0-1.2-0.1-1.2-0.3v-7.3c0-2.3-0.1-3.3-0.8-4.1c-0.5-0.6-1.4-0.9-2.7-0.9c-1,0-2.3,0.4-3,1
			c-0.3,0.3-0.6,0.8-0.8,2c-0.1,0.8-0.1,2.2-0.1,3.9v5.5c0,0.2,0,0.3-1.2,0.3h-0.2c-1.1,0-1.2-0.1-1.2-0.3V129c0-0.2,0-0.3,1.1-0.3
			L317,128.6L317,128.6z"/>
		<path class="st0" d="M334.2,143.5c0.1,1.6,0.5,2.8,1.4,3.5c0.8,0.7,1.9,1,3.3,1c1.2,0,2.4-0.3,3.7-0.9c0.3-0.1,0.4-0.2,0.7,0.5
			l0.1,0.3c0.3,0.7,0.3,0.9,0.1,1c-1.4,0.8-3.2,1.3-5.1,1.3c-4.6,0-6.9-2.8-6.9-7.4c0-4.7,2.6-8,6.7-8c2.5,0,4.2,1.2,5.1,3.1
			c0.6,1.3,0.9,2.8,0.9,4.5c0,0.8-0.1,1-0.3,1L334.2,143.5L334.2,143.5z M341.8,141.4c0-2.1-1.1-4.2-3.5-4.2c-2.1,0-3.7,1.3-4.1,4.2
			H341.8z"/>
		<path class="st0" d="M349.7,135.2c1,0,1.2,0.1,1.2,0.3l0.1,2.9c1.1-2.4,2.6-3.4,4.1-3.4c0.3,0,0.5,0,0.6,0.1
			c0.3,0.1,0.3,0.1,0.3,0.8v0.4c0,0.8,0,1-0.3,1c-2,0-3,1.2-3.8,2.6c-0.4,0.6-0.6,1.4-0.7,2.4c-0.1,0.8-0.1,2.5-0.1,4.2v3.2
			c0,0.2,0,0.3-1.2,0.3h-0.2c-1.1,0-1.2-0.1-1.2-0.3v-9.6c0-1.9-0.1-3.9-0.1-4.6c0-0.2,0.1-0.3,1.2-0.3L349.7,135.2L349.7,135.2z"/>
		<path class="st0" d="M360.4,135.2c1.1,0,1.2,0.1,1.2,0.3v7.4c0,2.2,0.1,3.4,0.7,4.1c0.5,0.6,1.4,1,2.5,1s2.4-0.4,3.1-1
			c0.6-0.6,0.9-1.4,0.9-4.5v-6.9c0-0.2,0.2-0.3,1.1-0.3h0.3c1,0,1.2,0.1,1.2,0.3v9.6c0,1.9,0.1,3.9,0.1,4.6c0,0.2-0.1,0.3-1.2,0.3
			h-0.1c-1,0-1.2-0.1-1.2-0.3l-0.1-1.2l0,0c-1,1.2-2.6,1.8-4.7,1.8c-1.5,0-2.8-0.5-3.7-1.5c-1-1-1.4-2.5-1.4-4.8v-8.5
			c0-0.2,0.1-0.3,1.1-0.3h0.2V135.2z"/>
		<path class="st0" d="M376.9,135.2c1,0,1.2,0.1,1.2,0.3v1.3l0,0c1-1.2,2.8-1.9,4.6-1.9c1.5,0,2.9,0.5,3.9,1.5s1.4,2.5,1.4,4.8v8.5
			c0,0.2,0,0.3-1.2,0.3h-0.2c-1.1,0-1.2-0.1-1.2-0.3v-7.3c0-2.3-0.1-3.3-0.8-4.1c-0.5-0.6-1.4-0.9-2.7-0.9c-1,0-2.3,0.4-3,1
			c-0.3,0.3-0.7,0.8-0.8,2c-0.1,0.8-0.1,2.2-0.1,3.9v5.5c0,0.2,0,0.3-1.2,0.3h-0.2c-1.1,0-1.2-0.1-1.2-0.3v-9.6
			c0-1.9-0.1-3.9-0.1-4.6c0-0.2,0.1-0.3,1.2-0.3L376.9,135.2L376.9,135.2z"/>
		<path class="st0" d="M403.2,135.2c0.9,0,1.1,0.1,1.1,0.4c0.1,1.4,0.2,5.3,0.2,7v4.7c0,2.4-0.1,4-0.5,5.3c-0.8,2.7-3.4,4.1-6.2,4.1
			c-1.4,0-3.3-0.3-4.2-0.9c-0.2-0.1-0.2-0.3,0-1l0.1-0.3c0.2-0.7,0.3-0.8,0.5-0.8c0.1,0,0.5,0.1,0.7,0.2c0.8,0.3,1.6,0.5,2.7,0.5
			c2.4,0,3.9-1,4.3-3.2c0.1-0.7,0.2-1.9,0.2-2.7c-1,1.1-2.7,1.6-4.1,1.6c-4,0-6-3.1-6-7.3c0-4.9,2.8-7.9,6.4-7.9
			c1.6,0,3,0.7,3.7,1.8l0,0v-1.2C401.9,135.3,402.1,135.2,403.2,135.2L403.2,135.2z M402,142c0-1.9-0.1-2.6-0.4-3.3
			c-0.4-0.9-1.4-1.5-3-1.5c-2.4,0-4,2.1-4,5.4c0,3.3,1.3,5.1,3.9,5.1c1.4,0,2.8-0.7,3.6-1.7v-4H402z"/>
	</g>
	<g id="Wortmarke">
		<g>
			<path class="st0" d="M186.2,46.5V100h-42.1V47.6V47c13.8-0.6,27.9-0.9,42.1-1V46.5z"/>
			<path class="st0" d="M302.8,53.3l20.6,46.7H375l12.9-29.3v-0.5c-11.3-3.4-23.1-6.5-35.7-9.2l-0.2,0.6l-1.4,3.5L349,61l-0.2-0.5
				c-14.5-3-30.2-5.6-46.2-7.7L302.8,53.3z"/>
			<path class="st0" d="M237.9,47.5l43.2,52.5h-52.9l-39.5-53.5l0.4-0.5h1.7c15.1,0,47.4,1,47.4,1L237.9,47.5z"/>
			<path class="st0" d="M125.1,48.2c-14.1,1-28,2.2-41.4,3.8l0,0c0,0.2,0,0.4,0,0.6c-1,17-12.3,24.8-30.5,24.8H41.6v-19
				c-14.4,2.7-28.4,5.8-41.4,9.3l0,0V100H58c30.9,0,42-3.9,53.7-13.3c8.7-6.9,13.6-21.2,13.6-35.9c0-0.7,0-1.5,0-2.2L125.1,48.2z"/>
		</g>
		<g>
			<path class="st1" d="M0,68.1V0h50.6c29.5,0,48.6,2.6,62.3,16.5c6.9,7,11.7,18.2,12.2,32.2c-14.3,1-28.2,2.3-41.5,3.9
				c0-0.8,0.1-1.7,0.1-2.5c0-18.7-11.5-27.3-30.6-27.3H41.5V59C26.8,61.6,13,64.7,0,68.1z"/>
			<path class="st1" d="M188.7,46.5l36-46.5h51.9l-38.8,47.5C222.2,46.9,205.7,46.5,188.7,46.5z"/>
			<path class="st1" d="M144.1,47.6V0h42.1v46.5C171.7,46.6,157.7,46.9,144.1,47.6z"/>
			<path class="st1" d="M352,61.6L376.3,0h42.9L388,70.7C376.7,67.4,364.7,64.4,352,61.6z"/>
			<path class="st1" d="M302.8,53.3L279.3,0h46.4l23.4,61C334.6,58,319.1,55.4,302.8,53.3z"/>
		</g>
	</g>
</g>
</svg>
