<?xml version="1.0" encoding="utf-8"?>
<!-- Generator: Adobe Illustrator 24.0.2, SVG Export Plug-In . SVG Version: 6.00 Build 0)  -->
<svg version="1.2" baseProfile="tiny" id="Ebene_1" xmlns="http://www.w3.org/2000/svg" xmlns:xlink="http://www.w3.org/1999/xlink"
	 x="0px" y="0px" viewBox="0 0 678.47 125" xml:space="preserve">
<polygon fill="#E3000F" points="554.08,97.42 563.06,97.42 563.06,73.77 574.31,63.27 598.72,97.42 610.07,97.42 580.46,57.13 
	608.93,29.89 597.29,29.89 563.06,63.56 563.06,29.89 554.08,29.89 "/>
<polygon fill="#E3000F" points="617.15,97.42 626.13,97.42 626.13,73.77 637.39,63.27 661.79,97.42 673.13,97.42 643.53,57.13 
	672,29.89 660.37,29.89 626.13,63.56 626.13,29.89 617.15,29.89 "/>
<path fill="#E3000F" d="M117.37,30.68c15.79-1.66,29.82,6.38,27.5,19.04c-0.45,2.45-1.68,9.42-2.59,13.48l-5.84,27.66
	c-1.04,4.58-1.17,4.71-5.83,4.71h-5.83c-4.14,0-5.44-0.78-5.44-3.14c0-0.66,0-0.66,0.52-3.01l6.61-31.16
	c0.65-3.01,0.78-4.33,0.78-6.16c0-4.58-3.5-8.12-8.17-8.12c-9.2,0-15.81,6.42-18.14,17.81l-6.09,29.07
	c-1.03,4.58-1.17,4.71-5.83,4.71h-5.96c-4.02,0-5.32-0.78-5.32-3.14c0-0.66,0-0.66,0.52-3.01l5.81-27.11
	c1.61-7.45,2.3-11.25,5.2-16.38C94.82,36.11,107.35,31.74,117.37,30.68"/>
<path fill="#E3000F" d="M55.97,57.6c0.13-0.79,0.13-1.44,0.13-1.7c0-8.25-4.54-13.09-12.31-13.09c-8.17,0-14.38,5.49-16.98,14.79
	H55.97z M25.13,68.21c0,1.18-0.13,2.36-0.13,2.75c0,8.91,5.06,14.14,13.48,14.14c5.96,0,9.85-2.23,12.31-7.08
	c0.78-1.57,1.56-1.83,5.06-1.83h5.57c4.02,0,5.45,0.79,5.45,3.01c0,2.49-2.73,6.94-5.96,10.08c-5.83,5.5-13.22,7.99-23.71,7.99
	C18.9,97.28,8.67,87.07,8.67,69c0-22.26,15.03-38.37,35.64-38.37C61.54,30.63,72.3,41.1,72.3,58c0,9.17-0.65,10.21-6.09,10.21H25.13
	z"/>
<path fill="#E3000F" d="M199.94,57.6c0.13-0.79,0.13-1.44,0.13-1.7c0-8.25-4.54-13.09-12.31-13.09c-8.17,0-14.39,5.49-16.98,14.79
	H199.94z M169.1,68.21c0,1.18-0.13,2.36-0.13,2.75c0,8.91,5.05,14.14,13.48,14.14c5.96,0,9.85-2.23,12.31-7.08
	c0.78-1.57,1.56-1.83,5.05-1.83h5.57c4.02,0,5.44,0.79,5.44,3.01c0,2.49-2.72,6.94-5.96,10.08c-5.83,5.5-13.22,7.99-23.72,7.99
	c-18.27,0-28.51-10.21-28.51-28.28c0-22.26,15.03-38.37,35.63-38.37c17.24,0,27.99,10.47,27.99,27.37c0,9.17-0.65,10.21-6.09,10.21
	H169.1z"/>
<path fill="#E3000F" d="M269.01,30.63c3.5,0,5.19,1.05,5.19,3.27c0,0.78,0,0.65-0.52,3.01l-1.04,5.24
	c-0.91,3.66-1.81,4.84-3.63,4.71l-5.05-0.52c-0.13,0-0.65,0.13-1.56,0.26c-10.75,1.7-15.94,7.46-18.79,20.95l-4.79,23.31
	c-1.04,4.58-1.17,4.71-5.83,4.71h-5.96c-4.02,0-5.31-0.78-5.31-3.14c0-0.65,0-0.65,0.52-3.01l11.01-52.38
	c0.91-4.58,1.17-4.71,5.71-4.71h5.31c4.15,0,5.44,0.78,5.44,3.14c0,0.66,0,0.66-0.52,2.88C249.19,38.35,260.33,30.63,269.01,30.63"
	/>
<path fill="#E3000F" d="M289.62,67.69c0,8.65,4.66,13.75,12.31,13.75c10.11,0,17.88-10.61,17.88-24.23
	c0-8.25-4.67-13.23-12.57-13.23C297.4,43.98,289.62,54.46,289.62,67.69 M314.24,85.36c-4.66,5.89-10.11,8.38-17.76,8.38
	c-14.12,0-24.48-10.12-23.46-25.27c1.05-15.55,7.58-29.82,23.62-36.31c16.03-6.49,32.39,1.16,37.11,11.78
	c5.25,11.81,1.62,20.15-0.31,30.11c-0.13,0.64-2.49,11.19-2.49,11.19c-2.73,12.83-5.18,19.83-7.91,22.92
	c-9.14,10.38-22.41,11.58-33.41,10.55c-14.97-1.4-23.58-7.66-23.58-16.96c0-2.75,1.17-3.54,5.45-3.54h6.74c4.54,0,4.05,0.54,5.7,3.8
	c3.1,6.11,7.84,6.39,13.02,6.39c9.07,0,13.51-4.96,16.1-17.14L314.24,85.36z"/>
<path fill="#E3000F" d="M377.09,18.32c-0.91,4.58-1.04,4.71-5.7,4.71h-5.96c-4.02,0-5.32-0.79-5.32-3.15c0-0.66,0.13-1.18,0.52-3.01
	l0.78-3.92c0.91-4.58,1.17-4.72,5.83-4.72h5.83c4.15,0,5.31,0.66,5.31,3.14c0,0.52-0.13,1.7-0.39,3.01L377.09,18.32z"/>
<path fill="#E3000F" d="M361.93,90.87c-1.04,4.58-1.16,4.71-5.83,4.71h-5.96c-4.02,0-5.31-0.78-5.31-3.14c0-0.66,0-0.66,0.52-3.01
	l11.01-52.38c0.91-4.58,1.17-4.71,5.7-4.71h5.96c4.15,0,5.31,0.65,5.31,3.14c0,0.66-0.13,1.44-0.39,3.01L361.93,90.87z"/>
<path fill="#E3000F" d="M425.82,57.6c0.13-0.79,0.13-1.44,0.13-1.7c0-8.25-4.53-13.09-12.31-13.09c-8.17,0-14.38,5.49-16.98,14.79
	H425.82z M394.97,68.21c0,1.18-0.13,2.36-0.13,2.75c0,8.91,5.05,14.14,13.48,14.14c5.96,0,9.85-2.23,12.31-7.08
	c0.78-1.57,1.56-1.83,5.05-1.83h5.57c4.02,0,5.44,0.79,5.44,3.01c0,2.49-2.72,6.94-5.96,10.08c-5.83,5.5-13.22,7.99-23.72,7.99
	c-18.27,0-28.51-10.21-28.51-28.28c0-22.26,15.03-38.37,35.64-38.37c17.23,0,27.99,10.47,27.99,27.37c0,9.17-0.65,10.21-6.09,10.21
	H394.97z"/>
<path fill="#E3000F" d="M470.45,65.32c-0.65,3.26-0.74,3.35-4.05,3.35h-4.24c-2.85,0-3.78-0.56-3.78-2.24
	c0-0.47,0.09-0.84,0.37-2.14l0.55-2.79c0.64-3.26,0.83-3.35,4.14-3.35h4.15c2.95,0,3.78,0.47,3.78,2.23c0,0.37-0.09,1.21-0.28,2.14
	L470.45,65.32z"/>
<path fill="#E3000F" d="M498.28,37.06h17.97c7.76,0,14.38,1.33,14.38,10.69c0,7.1-4.17,10.78-14.38,10.78h-17.97V37.06z
	 M489.3,97.02h32.63c13.43,0,20.52-9.45,20.52-19.38c0-8.32-4.21-12.53-12.53-14.23v-0.59c6.24-2.55,9.7-9.58,9.7-16.76
	c0-6.62-3.5-11.45-7.94-14.1c-4.07-2.46-11.92-2.46-17.88-2.46h-24.5V97.02z M498.2,68.13l20.88-0.4c7.57,0,14.38,0.82,14.38,9.62
	c0,7.37-4.92,12.1-12.67,12.1h-22.51V66.1L498.2,68.13z"/>
</svg>
