<svg xmlns="http://www.w3.org/2000/svg" xmlns:xlink="http://www.w3.org/1999/xlink" viewBox="0 0 187.8 74.55"><defs><style>.a{fill:none;}.b{clip-path:url(#a);}.c{fill:url(#b);}.d{clip-path:url(#c);}.e{fill:#595a5c;}</style><clipPath id="a"><path class="a" d="M23,0C21.86,0,21.5.49,21.5,1.59V16.84H8.27V1.59C8.27.49,7.9,0,6.8,0H1.47C.37,0,0,.49,0,1.59V40.05c0,1.11.37,1.6,1.47,1.6H6.8c1.1,0,1.47-.49,1.47-1.6V23.7H21.5V40.05c0,1.11.36,1.6,1.47,1.6h5.32c1.11,0,1.48-.49,1.48-1.6V1.59C29.77.49,29.4,0,28.29,0ZM39.81,0c-1.1,0-1.47.49-1.47,1.59V40.05c0,1.11.37,1.6,1.47,1.6H61.37c1.1,0,1.53-.43,1.53-1.53V36.26c0-1.1-.43-1.47-1.53-1.47H46.61V23.4H59.72c1.1,0,1.59-.43,1.59-1.48V18.25c0-1.1-.49-1.47-1.59-1.47H46.61V6.86H60.76c1,0,1.53-.43,1.53-1.53V1.47C62.29.37,61.8,0,60.76,0ZM71.17,0c-1.1,0-1.46.49-1.46,1.59V40.05c0,1.11.36,1.6,1.46,1.6H76.5c1.11,0,1.47-.49,1.47-1.6V1.59C78,.49,77.61,0,76.5,0Zm45.94,0c-.73,0-1.16.18-1.41.73L105,26.1,94.14.86A1.25,1.25,0,0,0,92.8,0H88c-1.1,0-1.48.49-1.48,1.53V40.12c0,1,.38,1.53,1.48,1.53H92.8c1.1,0,1.47-.49,1.47-1.53V17.83c.15.55,6.61,16,6.61,16a2,2,0,0,0,2,1.53h4.35a2.08,2.08,0,0,0,2-1.53s6.37-15.8,6.43-16V40.12c0,1,.37,1.53,1.47,1.53h5.08c1.11,0,1.47-.49,1.47-1.53V1.53c0-1-.36-1.53-1.47-1.53Zm27.57,9.78c.06.8,3.8,16.31,3.8,16.31H140.7s3.86-15.51,4-16.31M142.17,0a1.75,1.75,0,0,0-1.9,1.53L128.81,40.12c-.3,1,.06,1.53,1.17,1.53h5c1.1,0,1.53-.55,1.84-1.53l2.14-7.47h11.39l2.15,7.47c.3,1,.73,1.53,1.77,1.53h5.51c1,0,1.41-.55,1.11-1.53L149.45,1.53A1.81,1.81,0,0,0,147.5,0Zm18.37,0c-1.1,0-1.52.37-1.52,1.47V5.33c0,1.1.42,1.53,1.52,1.53h8.7V40.05c0,1.11.43,1.6,1.53,1.6h5.33c1.1,0,1.47-.49,1.47-1.6V6.86h8.7c1,0,1.48-.39,1.53-1.37V1.31c-.05-1-.54-1.31-1.53-1.31Z"/></clipPath><linearGradient id="b" x1="-325.29" y1="333.44" x2="-324.29" y2="333.44" gradientTransform="matrix(187.8, 0, 0, -187.8, 61089.17, 62640.14)" gradientUnits="userSpaceOnUse"><stop offset="0" stop-color="#0f91d1"/><stop offset="0.05" stop-color="#0f91d1"/><stop offset="0.95" stop-color="#9aca3e"/><stop offset="1" stop-color="#9aca3e"/></linearGradient><clipPath id="c"><rect class="a" width="187.8" height="74.55"/></clipPath></defs><title>logo</title><g class="b"><rect class="c" width="187.8" height="41.65"/></g><g class="d"><path class="e" d="M12.15,74c.15.15,0,.35-.17.35H10.83c-.26,0-.37-.17-.55-.35L2.54,65.11h-1V74c0,.24-.09.35-.32.35H.35A.31.31,0,0,1,0,74V55.09a.31.31,0,0,1,.35-.35h.86c.23,0,.32.12.32.35v8.84h1l7.11-8.87a.75.75,0,0,1,.57-.32h1c.26,0,.32.14.18.35l-7.49,9.3Z"/><path class="e" d="M27.73,74,23.79,66c2.79-.52,3.68-2.05,3.68-3.89V58.8c0-2.25-1.38-4.06-6-4.06H15.84c-.2,0-.32.12-.32.35V74a.31.31,0,0,0,.35.35h.86c.23,0,.32-.11.32-.35V66.2h4.41a8.33,8.33,0,0,0,.86,0l3.8,7.8c.09.21.14.35.43.35h.86c.26,0,.41-.14.32-.35m-6.27-9.06H17.05V56.07h4.41c3.36,0,4.49,1.2,4.49,3v2.91c0,1.76-1.13,3-4.49,3"/><path class="e" d="M43.86,74,38,55.09a.41.41,0,0,0-.43-.35h-.89a.41.41,0,0,0-.43.35L30.41,74c-.09.24,0,.35.26.35h.83c.24,0,.35-.11.41-.35l1.7-5.58h6.94L42.3,74a.39.39,0,0,0,.41.35h.89c.23,0,.34-.11.26-.35M34,67.15l2.45-7.77c.29-1,.63-2.8.66-3,.06.29.43,2.1.72,3l2.39,7.72Z"/><path class="e" d="M59.38,74c0,.24-.09.35-.32.35h-.78a.31.31,0,0,1-.31-.17L49.73,59.49a16.58,16.58,0,0,1-.92-1.73V74c0,.24-.09.35-.32.35h-.77a.31.31,0,0,1-.35-.35V55.09a.31.31,0,0,1,.35-.35h.77a.33.33,0,0,1,.29.14L57.1,69.66c.26.46.84,1.64.84,1.64V55.09a.31.31,0,0,1,.34-.35h.78c.23,0,.32.12.32.35Z"/><path class="e" d="M77.06,74a.21.21,0,0,1-.17.35H75.74c-.26,0-.38-.17-.55-.35l-7.75-8.86h-1V74c0,.24-.09.35-.32.35h-.86a.3.3,0,0,1-.35-.35V55.09a.31.31,0,0,1,.35-.35h.86c.23,0,.32.12.32.35v8.84h1l7.12-8.87a.75.75,0,0,1,.57-.32h1c.26,0,.32.14.18.35l-7.49,9.3Z"/><path class="e" d="M80.75,74.32c-.2,0-.32-.11-.32-.35V55.09a.31.31,0,0,1,.35-.35h9.81c.23,0,.35.09.35.35v.63c0,.26-.12.35-.35.35H82v7.31h8.12c.23,0,.34.09.34.34v.61a.31.31,0,0,1-.34.35H82V73h9c.23,0,.34.08.34.34V74c0,.27-.11.35-.34.35Z"/><path class="e" d="M107.61,74c0,.24-.08.35-.31.35h-.78a.32.32,0,0,1-.32-.17L98,59.49A17.45,17.45,0,0,1,97,57.76V74c0,.24-.08.35-.31.35H96A.31.31,0,0,1,95.6,74V55.09a.31.31,0,0,1,.35-.35h.78a.34.34,0,0,1,.29.14l8.32,14.78c.26.46.83,1.64.83,1.64V55.09a.31.31,0,0,1,.35-.35h.78c.23,0,.31.12.31.35Z"/><path class="e" d="M125.29,74c.15.15,0,.35-.17.35H124c-.26,0-.37-.17-.55-.35l-7.74-8.86h-1V74c0,.24-.09.35-.32.35h-.86a.31.31,0,0,1-.35-.35V55.09a.31.31,0,0,1,.35-.35h.86c.23,0,.32.12.32.35v8.84h1l7.11-8.87a.75.75,0,0,1,.58-.32h.94c.26,0,.32.14.18.35L117,64.39Z"/><path class="e" d="M140.38,74l-5.84-18.88a.42.42,0,0,0-.44-.35h-.89a.41.41,0,0,0-.43.35L126.94,74c-.09.24,0,.35.25.35H128c.23,0,.34-.11.4-.35l1.7-5.58h6.94L138.83,74c.06.24.17.35.4.35h.89c.23,0,.35-.11.26-.35m-9.87-6.82L133,59.38c.29-1,.64-2.8.67-3,0,.29.43,2.1.72,3l2.39,7.72Z"/><path class="e" d="M152.88,58.74c0-1.72-.95-2.93-4.29-2.93S144.3,57,144.3,58.74v1.07a2.56,2.56,0,0,0,1.81,2.45l5.53,2.1a3.9,3.9,0,0,1,2.88,3.6v2.53c0,2.25-1.38,4.06-6,4.06s-6-1.81-6-4.06V69c0-.26.12-.37.35-.37h.83c.23,0,.35.11.35.37v1.33c0,1.73,1.06,2.93,4.43,2.93s4.49-1.2,4.49-2.93v-2c0-1.55-1.26-2.24-2.38-2.67l-5.36-2.08a3.68,3.68,0,0,1-2.48-3.39V58.57c0-2.25,1.27-4.06,5.79-4.06s5.79,1.81,5.79,4.06V60c0,.23-.09.35-.35.35h-.83c-.23,0-.32-.12-.32-.35Z"/><path class="e" d="M169.09,58.74c0-1.72-.94-2.93-4.29-2.93s-4.29,1.21-4.29,2.93v1.07a2.56,2.56,0,0,0,1.82,2.45l5.53,2.1a3.91,3.91,0,0,1,2.88,3.6v2.53c0,2.25-1.39,4.06-6,4.06s-6-1.81-6-4.06V69c0-.26.11-.37.34-.37H160c.23,0,.34.11.34.37v1.33c0,1.73,1.07,2.93,4.43,2.93s4.5-1.2,4.5-2.93v-2c0-1.55-1.27-2.24-2.39-2.67l-5.36-2.08A3.68,3.68,0,0,1,159,60.13V58.57c0-2.25,1.26-4.06,5.78-4.06s5.79,1.81,5.79,4.06V60c0,.23-.08.35-.34.35h-.84c-.23,0-.32-.12-.32-.35Z"/><path class="e" d="M175.89,74.32c-.2,0-.32-.11-.32-.35V55.09a.31.31,0,0,1,.35-.35h9.82c.23,0,.34.09.34.35v.63c0,.26-.11.35-.34.35H177.1v7.31h8.12c.23,0,.34.09.34.34v.61a.31.31,0,0,1-.34.35H177.1V73h9c.24,0,.35.08.35.34V74c0,.27-.11.35-.35.35Z"/></g></svg>