<svg id="Ebene_1" data-name="Ebene 1" xmlns="http://www.w3.org/2000/svg" xmlns:xlink="http://www.w3.org/1999/xlink" viewBox="0 0 1069.694 580.102"><defs><style>.cls-1{fill:none;}.cls-2{fill:#3f3f3e;}.cls-3{clip-path:url(#clip-path);}.cls-4{fill:#4eadda;}</style><clipPath id="clip-path" transform="translate(-60.469 -130.277)"><rect class="cls-1" x="60.471" y="130.273" width="1069.688" height="580.103"/></clipPath></defs><polygon class="cls-2" points="26.667 537.925 26.667 553.262 9.066 553.262 9.066 537.925 0 537.925 0 579.058 9.066 579.058 9.066 561.274 26.667 561.274 26.667 579.058 35.733 579.058 35.733 537.925 26.667 537.925"/><path class="cls-2" d="M127.708,680.171l5.051,12.782H122.706ZM124.225,668.2,106.44,709.335h10l3.425-8.718h15.984l3.542,8.718h10.227l-17.9-41.133Z" transform="translate(-60.469 -130.277)"/><polygon class="cls-2" points="127.841 537.925 127.841 566.508 127.725 566.508 110.231 537.925 97.923 537.925 97.923 579.058 106.979 579.058 106.979 549.769 107.096 549.769 125.054 579.058 136.907 579.058 136.907 537.925 127.841 537.925"/><g class="cls-3"><path class="cls-2" d="M237.937,671.451a15.542,15.542,0,0,0-5.864-3.309,23.167,23.167,0,0,0-6.744-.987,20.566,20.566,0,0,0-5.864.842,15.1,15.1,0,0,0-5.031,2.525,12.6,12.6,0,0,0-3.484,4.18,12.4,12.4,0,0,0-1.306,5.816,9.635,9.635,0,0,0,1.422,5.515,11.2,11.2,0,0,0,3.571,3.367,20.264,20.264,0,0,0,4.654,2.032q2.5.77,4.645,1.519a13.1,13.1,0,0,1,3.57,1.829,3.476,3.476,0,0,1,1.422,2.932,3.336,3.336,0,0,1-.551,1.916,4.38,4.38,0,0,1-1.452,1.335,7.284,7.284,0,0,1-2.032.784,9.916,9.916,0,0,1-2.235.261,10.032,10.032,0,0,1-4.383-1.016,9.36,9.36,0,0,1-3.522-2.874l-6.444,7.093a18.623,18.623,0,0,0,6.386,3.948,23.2,23.2,0,0,0,13.508.406,14.757,14.757,0,0,0,5.06-2.5,12.081,12.081,0,0,0,3.454-4.248,13.207,13.207,0,0,0,1.278-5.98,10.5,10.5,0,0,0-1.394-5.757,10.781,10.781,0,0,0-3.512-3.425,18.959,18.959,0,0,0-4.567-1.974q-2.439-.7-4.557-1.394a13.181,13.181,0,0,1-3.513-1.683,3.273,3.273,0,0,1-1.393-2.845,3.36,3.36,0,0,1,.58-1.984,4.3,4.3,0,0,1,1.51-1.306,7.787,7.787,0,0,1,1.974-.726,9.4,9.4,0,0,1,2.032-.232,10.719,10.719,0,0,1,3.57.668,6.529,6.529,0,0,1,3,2.061Z" transform="translate(-60.469 -130.277)"/></g><polygon class="cls-2" points="190.437 537.925 190.437 579.058 219.426 579.058 219.426 570.688 199.503 570.688 199.503 562.328 217.336 562.328 217.336 553.959 199.503 553.959 199.503 546.285 218.381 546.285 218.381 537.925 190.437 537.925"/><path class="cls-2" d="M309.931,680.171l5.06,12.782H304.938ZM306.447,668.2l-17.774,41.133h9.985l3.435-8.718h15.975l3.542,8.718h10.227L313.946,668.2Z" transform="translate(-60.469 -130.277)"/><polygon class="cls-2" points="272.086 537.925 272.086 545.937 283.823 545.937 283.823 579.058 292.88 579.058 292.88 545.937 304.617 545.937 304.617 537.925 272.086 537.925"/><rect class="cls-2" x="313.784" y="537.923" width="9.057" height="41.133"/><g class="cls-3"><path class="cls-2" d="M423.9,671.451a15.534,15.534,0,0,0-5.864-3.309,23.162,23.162,0,0,0-6.744-.987,20.559,20.559,0,0,0-5.863.842,15.112,15.112,0,0,0-5.032,2.525,12.609,12.609,0,0,0-3.483,4.18,12.391,12.391,0,0,0-1.306,5.816,9.635,9.635,0,0,0,1.422,5.515,11.187,11.187,0,0,0,3.57,3.367,20.271,20.271,0,0,0,4.655,2.032q2.5.77,4.644,1.519a13.1,13.1,0,0,1,3.57,1.829,3.474,3.474,0,0,1,1.423,2.932,3.329,3.329,0,0,1-.552,1.916,4.367,4.367,0,0,1-1.451,1.335,7.284,7.284,0,0,1-2.032.784,9.874,9.874,0,0,1-6.618-.755,9.344,9.344,0,0,1-3.522-2.874l-6.445,7.093a18.632,18.632,0,0,0,6.386,3.948,23.2,23.2,0,0,0,13.508.406,14.762,14.762,0,0,0,5.061-2.5,12.1,12.1,0,0,0,3.454-4.248,13.22,13.22,0,0,0,1.277-5.98,10.5,10.5,0,0,0-1.393-5.757,10.784,10.784,0,0,0-3.513-3.425,18.959,18.959,0,0,0-4.567-1.974q-2.437-.7-4.557-1.394a13.174,13.174,0,0,1-3.512-1.683,3.273,3.273,0,0,1-1.394-2.845,3.361,3.361,0,0,1,.581-1.984,4.3,4.3,0,0,1,1.509-1.306,7.815,7.815,0,0,1,1.974-.726,9.408,9.408,0,0,1,2.032-.232,10.72,10.72,0,0,1,3.571.668,6.531,6.531,0,0,1,3,2.061Z" transform="translate(-60.469 -130.277)"/><path class="cls-2" d="M469.3,673.194a13.961,13.961,0,0,0-3.019-2.845,16.58,16.58,0,0,0-3.512-1.858,19.95,19.95,0,0,0-3.726-1.016,21.839,21.839,0,0,0-3.628-.319,25.357,25.357,0,0,0-8.892,1.51,20.326,20.326,0,0,0-7.025,4.325,19.768,19.768,0,0,0-4.625,6.821,25.03,25.03,0,0,0,0,17.9,19.768,19.768,0,0,0,4.625,6.821,20.2,20.2,0,0,0,7.025,4.335,25.357,25.357,0,0,0,8.892,1.51,20.558,20.558,0,0,0,8.253-1.742,15.743,15.743,0,0,0,6.619-5.409l-7.547-5.631a9.929,9.929,0,0,1-3.552,3.251,10.211,10.211,0,0,1-4.934,1.161,10.663,10.663,0,0,1-4.558-.987,11.118,11.118,0,0,1-3.7-2.758,13.189,13.189,0,0,1-2.467-4.18,16.07,16.07,0,0,1,0-10.6,13.008,13.008,0,0,1,2.5-4.218,11.3,11.3,0,0,1,8.515-3.745,10.9,10.9,0,0,1,4.5.871,8.9,8.9,0,0,1,3.281,2.5Z" transform="translate(-60.469 -130.277)"/></g><polygon class="cls-2" points="447.142 537.925 447.142 553.262 429.532 553.262 429.532 537.925 420.465 537.925 420.465 579.058 429.532 579.058 429.532 561.274 447.142 561.274 447.142 579.058 456.199 579.058 456.199 537.925 447.142 537.925"/><polygon class="cls-2" points="470.663 537.925 470.663 579.058 499.653 579.058 499.653 570.688 479.73 570.688 479.73 562.328 497.563 562.328 497.563 553.959 479.73 553.959 479.73 546.285 498.608 546.285 498.608 537.925 470.663 537.925"/><polygon class="cls-2" points="556.319 537.925 540.344 555.004 540.344 537.925 531.278 537.925 531.278 579.058 540.344 579.058 540.344 559.532 557.074 579.058 569.739 579.058 549.875 557.035 568.172 537.925 556.319 537.925"/><g class="cls-3"><path class="cls-2" d="M661.215,680.636a4.152,4.152,0,0,1-.726,2.612,4.275,4.275,0,0,1-1.829,1.365,8.092,8.092,0,0,1-2.467.522q-1.365.087-2.583.087h-5.351v-9.357h5.931a18.315,18.315,0,0,1,2.5.175,7.209,7.209,0,0,1,2.265.667,4.253,4.253,0,0,1,1.625,1.423,4.346,4.346,0,0,1,.639,2.506m7.15,7.46a12.07,12.07,0,0,0,2.265-7.412,12.979,12.979,0,0,0-1.249-6.009,10.118,10.118,0,0,0-3.367-3.831,14.07,14.07,0,0,0-4.944-2.032,28.03,28.03,0,0,0-5.951-.61H639.2v41.133h9.057v-16.45h4.48l8.592,16.45H672.2l-10.46-17.378a10.19,10.19,0,0,0,6.628-3.861" transform="translate(-60.469 -130.277)"/></g><path class="cls-2" d="M699.683,680.171l5.06,12.782H694.69ZM696.2,668.2l-17.774,41.133h9.985l3.435-8.718H707.82l3.541,8.718h10.228L703.7,668.2Z" transform="translate(-60.469 -130.277)"/><polygon class="cls-2" points="700.808 537.925 700.808 566.508 700.692 566.508 683.208 537.925 670.89 537.925 670.89 579.058 679.947 579.058 679.947 549.769 680.063 549.769 698.022 579.058 709.875 579.058 709.875 537.925 700.808 537.925"/><polygon class="cls-2" points="749.41 537.925 733.435 555.004 733.435 537.925 724.368 537.925 724.368 579.058 733.435 579.058 733.435 559.532 750.164 579.058 762.84 579.058 742.965 557.035 761.263 537.925 749.41 537.925"/><polygon class="cls-2" points="772.095 537.925 772.095 579.058 801.084 579.058 801.084 570.688 781.161 570.688 781.161 562.328 798.994 562.328 798.994 553.959 781.161 553.959 781.161 546.285 800.039 546.285 800.039 537.925 772.095 537.925"/><polygon class="cls-2" points="844.261 537.925 844.261 566.508 844.135 566.508 826.651 537.925 814.343 537.925 814.343 579.058 823.4 579.058 823.4 549.769 823.516 549.769 841.465 579.058 853.318 579.058 853.318 537.925 844.261 537.925"/><polygon class="cls-2" points="892.584 537.925 876.609 555.004 876.609 537.925 867.552 537.925 867.552 579.058 876.609 579.058 876.609 559.532 893.339 579.058 906.014 579.058 886.14 557.035 904.437 537.925 892.584 537.925"/><path class="cls-2" d="M992.615,680.171l5.06,12.782H987.612ZM989.132,668.2l-17.785,41.133h10l3.426-8.718h15.984l3.542,8.718h10.227l-17.9-41.133Z" transform="translate(-60.469 -130.277)"/><g class="cls-3"><path class="cls-2" d="M1050.9,671.451a15.534,15.534,0,0,0-5.864-3.309,23.167,23.167,0,0,0-6.744-.987,20.559,20.559,0,0,0-5.863.842,15.093,15.093,0,0,0-5.032,2.525,12.609,12.609,0,0,0-3.483,4.18,12.391,12.391,0,0,0-1.307,5.816,9.635,9.635,0,0,0,1.423,5.515,11.187,11.187,0,0,0,3.57,3.367,20.264,20.264,0,0,0,4.654,2.032q2.5.77,4.645,1.519a13.1,13.1,0,0,1,3.57,1.829,3.474,3.474,0,0,1,1.423,2.932,3.329,3.329,0,0,1-.552,1.916,4.377,4.377,0,0,1-1.451,1.335,7.284,7.284,0,0,1-2.032.784,9.929,9.929,0,0,1-2.235.261,10.033,10.033,0,0,1-4.384-1.016,9.36,9.36,0,0,1-3.522-2.874l-6.444,7.093a18.632,18.632,0,0,0,6.386,3.948,23.2,23.2,0,0,0,13.508.406,14.762,14.762,0,0,0,5.061-2.5,12.1,12.1,0,0,0,3.454-4.248,13.22,13.22,0,0,0,1.277-5.98,10.5,10.5,0,0,0-1.393-5.757,10.784,10.784,0,0,0-3.513-3.425,18.959,18.959,0,0,0-4.567-1.974q-2.437-.7-4.557-1.394a13.181,13.181,0,0,1-3.513-1.683,3.275,3.275,0,0,1-1.393-2.845,3.361,3.361,0,0,1,.581-1.984,4.3,4.3,0,0,1,1.509-1.306,7.787,7.787,0,0,1,1.974-.726,9.408,9.408,0,0,1,2.032-.232,10.714,10.714,0,0,1,3.57.668,6.529,6.529,0,0,1,3,2.061Z" transform="translate(-60.469 -130.277)"/><path class="cls-2" d="M1090.059,671.451a15.542,15.542,0,0,0-5.864-3.309,23.167,23.167,0,0,0-6.744-.987,20.566,20.566,0,0,0-5.864.842,15.1,15.1,0,0,0-5.031,2.525,12.6,12.6,0,0,0-3.484,4.18,12.4,12.4,0,0,0-1.306,5.816,9.628,9.628,0,0,0,1.423,5.515,11.187,11.187,0,0,0,3.57,3.367,20.264,20.264,0,0,0,4.654,2.032q2.5.77,4.645,1.519a13.1,13.1,0,0,1,3.57,1.829,3.476,3.476,0,0,1,1.422,2.932,3.336,3.336,0,0,1-.551,1.916,4.38,4.38,0,0,1-1.452,1.335,7.284,7.284,0,0,1-2.032.784,9.916,9.916,0,0,1-2.235.261,10.032,10.032,0,0,1-4.383-1.016,9.36,9.36,0,0,1-3.522-2.874l-6.444,7.093a18.623,18.623,0,0,0,6.386,3.948,23.2,23.2,0,0,0,13.508.406,14.757,14.757,0,0,0,5.06-2.5,12.081,12.081,0,0,0,3.454-4.248,13.207,13.207,0,0,0,1.278-5.98,10.5,10.5,0,0,0-1.394-5.757,10.771,10.771,0,0,0-3.512-3.425,18.959,18.959,0,0,0-4.567-1.974q-2.439-.7-4.557-1.394a13.181,13.181,0,0,1-3.513-1.683,3.273,3.273,0,0,1-1.393-2.845,3.36,3.36,0,0,1,.58-1.984,4.3,4.3,0,0,1,1.51-1.306,7.787,7.787,0,0,1,1.974-.726,9.4,9.4,0,0,1,2.032-.232,10.719,10.719,0,0,1,3.57.668,6.529,6.529,0,0,1,3,2.061Z" transform="translate(-60.469 -130.277)"/></g><polygon class="cls-2" points="1040.705 537.925 1040.705 579.058 1069.694 579.058 1069.694 570.688 1049.761 570.688 1049.761 562.328 1067.594 562.328 1067.594 553.959 1049.761 553.959 1049.761 546.285 1068.649 546.285 1068.649 537.925 1040.705 537.925"/><g class="cls-3"><path class="cls-4" d="M99.749,343.132s-30.76-39.7-34.407-47.006c-60.5-121,455.312-177.883,860.88-163.727-405.81,0-792.829,75.415-826.473,210.733" transform="translate(-60.469 -130.277)"/><path class="cls-4" d="M1090.874,372.3s30.77,39.7,34.418,47.016C1185.8,540.307,669.97,597.211,264.4,583.036c405.811,0,792.849-75.4,826.473-210.733" transform="translate(-60.469 -130.277)"/></g><polygon class="cls-2" points="765.417 133.224 818.576 133.224 753.554 217.879 821.189 317.28 766.133 317.28 703.481 220.085 765.417 133.224"/><rect class="cls-2" x="646.666" y="133.225" width="45.69" height="184.056"/><polygon class="cls-2" points="371.639 133.224 371.639 210.593 293.911 210.593 293.911 133.224 248.492 133.224 248.492 317.28 293.911 317.28 293.911 240.753 371.639 240.753 371.639 317.28 417.328 317.28 417.328 133.224 371.639 133.224"/><polygon class="cls-2" points="511.043 287.641 511.043 238.323 586.467 238.323 586.467 209.024 511.043 209.024 511.043 162.86 598.069 162.86 598.069 133.222 465.924 133.222 465.924 317.279 598.069 317.279 598.069 287.641 511.043 287.641"/></svg>