<svg xmlns="http://www.w3.org/2000/svg" viewBox="0 0 103 65"><title>hkk Krankenkasse</title><g fill="none" fill-rule="evenodd"><path fill="#DC0A1E" d="M20.6 12.9c-6.18 0-9.52 4.96-9.52 4.96h-.12V1.36c0-.23-.2-.42-.42-.42H1.37c-.23 0-.42.2-.42.42V44.9c0 .24.2.43.42.43h9.17c.23 0 .42-.2.42-.42V26.8c0-2.58 2.3-5.2 5.18-5.2 4.3 0 4.77 2.74 4.77 5.45V44.9c0 .24.2.43.43.43h9.17c.23 0 .42-.2.42-.42V23.5c0-7.62-4.4-10.58-10.33-10.58"/><path fill="#00406F" d="M68.38 45.05c-5.9-7.9-10.4-15.1-11.46-16.83 0-.02 0-.03-.02-.05l-.22-.35.25-.34 4.73-6.64 4.73-6.65c.12-.2.04-.35-.2-.35H55.6c-.24 0-.53.16-.66.35L47.3 26.12h-.13V1.36c0-.23-.18-.42-.4-.42H37.7c-.22 0-.4.2-.4.42V44.9c0 .24.18.43.4.43h9.06c.23 0 .4-.2.4-.42V31.05h.09s4.78 8.24 9.2 14.3h11.72c.2 0 .28-.13.22-.3m34.22 0c-5.88-7.9-10.4-15.1-11.45-16.82 0-.02-.02-.03-.03-.05-.14-.22-.2-.35-.2-.35l.23-.34 4.73-6.64 4.73-6.65c.15-.2.07-.35-.16-.35H89.82c-.24 0-.53.16-.65.35l-7.65 11.92h-.12V1.36c0-.23-.2-.42-.42-.42h-9.05c-.23 0-.42.2-.42.42V44.9c0 .24.2.43.43.43h9.05c.23 0 .42-.2.42-.42V31.05h.06s4.8 8.24 9.2 14.3h11.73c.2 0 .27-.13.2-.3M6 64.53c-1.17-1.56-2.72-3.96-2.72-3.96h-.02v3.96H.93v-9.6h2.33v3.93h.02l2.6-3.93h2.68L5.3 59.54s1.55 2.27 3.63 4.98H6zm8.63 0l-1.08-2.72c-.2-.52-.44-.8-.83-.8h-.66v3.52H9.73v-9.6h3.54c2.07 0 3.58.7 3.58 2.84 0 1.36-.95 2.15-1.86 2.47v.02s.47.1.84.97l1.45 3.3h-2.67zm-1.54-7.77h-1.04v2.44h.97c1 0 1.47-.5 1.47-1.26s-.37-1.2-1.4-1.2zm10.97 7.77l-.54-2.04h-2.97L20 64.52h-2.35l2.98-9.6h3.04l2.9 9.6h-2.5zm-2-7.63h-.03l-1 3.73h2.03l-1-3.74zM32.98 64.52l-3.26-6.1h-.02l.03 6.1H27.6v-9.6h2.5l3.25 6.1h.02l-.03-6.1h2.12v9.6M42.4 64.52c-1.2-1.56-2.74-3.96-2.74-3.96v3.96H37.3v-9.6h2.35v3.93l2.6-3.93h2.7l-3.28 4.62s1.56 2.27 3.65 4.98H42.4zM46.1 64.52v-9.6h5.95v1.87h-3.6v1.85h3.28v1.82h-3.3v2.16l3.62.02v1.87M59.3 64.52l-3.26-6.1h-.02l.03 6.1h-2.1v-9.6h2.46l3.28 6.1-.02-6.1h2.12v9.6M68.72 64.52c-1.18-1.56-2.74-3.96-2.74-3.96v3.96h-2.34v-9.6h2.33v3.93l2.6-3.93h2.7L68 59.54s1.55 2.27 3.64 4.98h-2.92zm9.5 0l-.54-2.04h-2.96l-.56 2.04H71.8l3-9.6h3.02l2.9 9.6h-2.5zm-2-7.63h-.02l-1 3.73h2.02l-1-3.74zm8.1 7.85c-1.15 0-2.03-.26-2.77-.6l.1-2c.8.47 1.67.73 2.5.73 1.12 0 1.48-.5 1.48-1.08 0-.54-.5-.86-1.2-1.1l-.43-.15c-1.7-.56-2.45-1.43-2.45-3.05 0-1.6 1.2-2.8 3.46-2.8 1.07 0 1.9.22 2.54.48l-.1 1.96c-.46-.23-1.3-.6-2.3-.6-.82 0-1.2.37-1.2.94 0 .53.38.84 1.2 1.1l.4.14c1.65.55 2.46 1.38 2.46 2.95 0 1.74-1.17 3.08-3.68 3.08m7.26 0c-1.15 0-2.03-.26-2.76-.6l.1-2c.8.47 1.67.73 2.5.73 1.1 0 1.47-.5 1.47-1.08 0-.54-.5-.86-1.22-1.1l-.4-.15c-1.73-.56-2.46-1.43-2.46-3.05 0-1.6 1.2-2.8 3.45-2.8 1.07 0 1.9.22 2.54.48l-.1 1.96c-.45-.23-1.3-.6-2.28-.6-.84 0-1.22.37-1.22.94 0 .53.38.84 1.2 1.1l.42.14c1.64.55 2.45 1.38 2.45 2.95 0 1.74-1.17 3.08-3.7 3.08M96.65 64.52v-9.6h5.95v1.87H99v1.85h3.28v1.82h-3.3v2.16l3.62.02v1.87"/></g></svg>
