<?xml version="1.0" encoding="utf-8"?>
<!-- Generator: Adobe Illustrator 26.0.1, SVG Export Plug-In . SVG Version: 6.00 Build 0)  -->
<svg version="1.1" id="Logo" xmlns="http://www.w3.org/2000/svg" xmlns:xlink="http://www.w3.org/1999/xlink" x="0px" y="0px"
	 viewBox="0 0 149.4 70.8" style="enable-background:new 0 0 149.4 70.8;" xml:space="preserve">
<style type="text/css">
	.st0{fill:#009CC1;}
	.st1{fill:#003A76;}
</style>
<g>
	<g>
		<path class="st0" d="M66,25.2c-0.4-0.4-0.9-0.8-1.6-1C63.8,24,63,23.9,62,23.9h-4.3v11.9H62c1,0,1.8-0.1,2.5-0.3
			c0.7-0.2,1.2-0.6,1.6-1c0.4-0.4,0.7-1,0.8-1.7c0.2-0.7,0.2-1.4,0.2-2.3v-1.4c0-0.9-0.1-1.6-0.2-2.3C66.7,26.2,66.4,25.6,66,25.2z
			 M65.3,30.4c0,0.8-0.1,1.4-0.2,1.9s-0.3,0.9-0.6,1.2c-0.3,0.3-0.6,0.5-1,0.6c-0.4,0.1-0.9,0.2-1.5,0.2h-2.6v-8.8H62
			c0.6,0,1.1,0.1,1.5,0.2c0.4,0.1,0.8,0.3,1,0.6c0.3,0.3,0.4,0.7,0.6,1.2c0.1,0.5,0.2,1.1,0.2,2V30.4z"/>
		<path class="st0" d="M69.9,23.5c-0.4,0-0.7,0.1-0.8,0.3s-0.3,0.5-0.3,0.8c0,0.4,0.1,0.7,0.3,0.8s0.5,0.3,0.8,0.3
			c0.4,0,0.7-0.1,0.8-0.3S71,25,71,24.6c0-0.4-0.1-0.7-0.3-0.8S70.3,23.5,69.9,23.5z"/>
		<rect x="69" y="27.1" class="st0" width="1.8" height="8.7"/>
		<path class="st0" d="M80,28.9c-0.1-0.4-0.3-0.7-0.6-1c-0.3-0.3-0.6-0.5-1.1-0.7c-0.5-0.2-1.1-0.3-1.8-0.3c-0.8,0-1.5,0.1-2,0.3
			c-0.5,0.2-0.9,0.5-1.2,0.8c-0.3,0.4-0.5,0.8-0.6,1.3c-0.1,0.5-0.2,1.1-0.2,1.7v0.9c0,0.6,0.1,1.1,0.2,1.6c0.1,0.5,0.3,0.9,0.6,1.2
			c0.3,0.3,0.7,0.6,1.2,0.8c0.5,0.2,1.1,0.3,1.9,0.3c0.3,0,0.5,0,0.7,0c0.2,0,0.4,0,0.6,0c0.2,0,0.4,0,0.7,0c0.2,0,0.5,0,0.9,0
			l0.3-1.5c-0.8,0-1.4,0-1.9,0c-0.5,0-0.9,0-1.2,0c-0.4,0-0.8,0-1.1-0.1c-0.3-0.1-0.5-0.2-0.6-0.3c-0.2-0.2-0.3-0.4-0.3-0.7
			c-0.1-0.3-0.1-0.7-0.1-1.1h4.6c0.2,0,0.4,0,0.5-0.1c0.2,0,0.3-0.1,0.4-0.3c0.1-0.1,0.2-0.3,0.2-0.5c0-0.2,0.1-0.6,0.1-1v-0.3
			C80.1,29.6,80.1,29.2,80,28.9z M78.5,30.8h-4.2c0-0.5,0-0.9,0.1-1.3c0.1-0.3,0.2-0.6,0.3-0.8c0.2-0.2,0.4-0.3,0.6-0.4
			c0.3-0.1,0.6-0.1,1.1-0.1c0.4,0,0.8,0,1,0.1c0.3,0.1,0.5,0.2,0.6,0.3c0.2,0.1,0.3,0.3,0.3,0.6s0.1,0.6,0.1,0.9V30.8z"/>
	</g>
	<g>
		<rect x="57.7" y="38.4" class="st1" width="1.8" height="11.9"/>
		<path class="st1" d="M69.3,50.4v-6.1c0-1-0.3-1.7-0.9-2.2c-0.6-0.4-1.6-0.7-2.9-0.7c-1.3,0-2.3,0.2-2.9,0.7
			c-0.6,0.4-0.9,1.2-0.9,2.2v6.1h1.8v-5.8c0-0.3,0-0.5,0.1-0.7c0-0.2,0.1-0.4,0.3-0.5c0.1-0.1,0.3-0.3,0.6-0.3
			c0.3-0.1,0.7-0.1,1.2-0.1c0.5,0,0.9,0,1.2,0.1c0.3,0.1,0.5,0.2,0.6,0.3c0.1,0.1,0.2,0.3,0.3,0.5s0.1,0.5,0.1,0.7v5.8H69.3z"/>
		<path class="st1" d="M77.1,43.9c0,0.2,0.1,0.5,0.1,0.7v5.8h1.8v-6.1c0-1-0.3-1.7-0.9-2.2c-0.6-0.4-1.6-0.7-2.9-0.7
			c-1.3,0-2.3,0.2-2.9,0.7c-0.6,0.4-0.9,1.2-0.9,2.2v6.1H73v-5.8c0-0.3,0-0.5,0.1-0.7c0-0.2,0.1-0.4,0.3-0.5
			c0.1-0.1,0.3-0.3,0.6-0.3c0.3-0.1,0.7-0.1,1.2-0.1c0.5,0,0.9,0,1.2,0.1c0.3,0.1,0.5,0.2,0.6,0.3C77,43.5,77.1,43.7,77.1,43.9z"/>
		<path class="st1" d="M87.9,49.8c0.3-0.3,0.6-0.7,0.7-1.3s0.2-1.2,0.2-2v-0.9c0-0.8-0.1-1.5-0.2-2c-0.2-0.5-0.4-1-0.7-1.3
			c-0.3-0.3-0.7-0.5-1.2-0.7c-0.5-0.1-1.1-0.2-1.9-0.2c-0.7,0-1.3,0.1-1.9,0.2c-0.5,0.1-0.9,0.4-1.2,0.7s-0.6,0.7-0.7,1.3
			c-0.2,0.5-0.2,1.2-0.2,2v0.9c0,0.8,0.1,1.5,0.2,2c0.2,0.5,0.4,1,0.7,1.3c0.3,0.3,0.7,0.5,1.2,0.7c0.5,0.1,1.1,0.2,1.9,0.2
			c0.7,0,1.3-0.1,1.9-0.2C87.1,50.3,87.6,50.1,87.9,49.8z M85.9,49.1c-0.3,0.1-0.7,0.1-1.1,0.1c-0.5,0-0.9,0-1.1-0.1
			c-0.3-0.1-0.5-0.2-0.7-0.4c-0.2-0.2-0.3-0.5-0.3-0.8c-0.1-0.4-0.1-0.8-0.1-1.4v-0.9c0-0.6,0-1.1,0.1-1.4c0.1-0.4,0.2-0.6,0.3-0.8
			c0.2-0.2,0.4-0.3,0.7-0.4c0.3-0.1,0.7-0.1,1.1-0.1c0.5,0,0.8,0,1.1,0.1c0.3,0.1,0.5,0.2,0.7,0.4c0.2,0.2,0.3,0.5,0.3,0.8
			C87,44.5,87,45,87,45.6v0.9c0,0.6,0,1.1-0.1,1.4c-0.1,0.4-0.2,0.6-0.3,0.8C86.4,48.9,86.2,49.1,85.9,49.1z"/>
		<polygon class="st1" points="98.4,41.7 96.5,41.7 94.1,48.5 91.7,41.7 89.8,41.7 93.1,50.4 95,50.4 		"/>
		<path class="st1" d="M102.8,41.7c-0.5,0-0.9,0-1.4,0c-0.5,0-0.8,0-1.2,0l-0.3,1.5c0.4,0,0.8,0,1.4,0c0.5,0,1,0,1.5,0
			c0.5,0,0.9,0,1.2,0.1c0.3,0.1,0.5,0.2,0.7,0.3c0.2,0.1,0.2,0.3,0.3,0.5c0,0.2,0.1,0.5,0.1,0.7v0.5c-0.2-0.1-0.5-0.2-0.8-0.3
			c-0.4-0.1-0.9-0.2-1.6-0.2c-1.2,0-2,0.2-2.6,0.6c-0.6,0.4-0.8,1.1-0.8,2v0.4c0,0.9,0.3,1.5,0.8,1.9c0.5,0.4,1.3,0.6,2.5,0.6h2.5
			c0.6,0,1.1-0.1,1.3-0.3c0.2-0.2,0.4-0.6,0.4-1.1v-4.4c0-0.9-0.3-1.6-0.9-2.1C105.1,41.9,104.2,41.7,102.8,41.7z M105,49h-2.5
			c-0.6,0-1.1-0.1-1.3-0.3c-0.2-0.2-0.4-0.5-0.4-0.9v-0.4c0-0.2,0-0.4,0.1-0.6c0.1-0.2,0.2-0.3,0.3-0.4c0.1-0.1,0.3-0.2,0.6-0.2
			s0.5-0.1,0.9-0.1h0.4c0.4,0,0.8,0,1,0.1c0.3,0,0.5,0.1,0.6,0.2c0.1,0.1,0.2,0.2,0.3,0.4c0,0.2,0.1,0.3,0.1,0.6V49z"/>
		<path class="st1" d="M113.2,43.2l0.3-1.5h-3.2v-2.4l-1.8,0.3v7.6c0,0.6,0,1.1,0.1,1.5c0.1,0.4,0.3,0.7,0.5,1
			c0.3,0.2,0.6,0.4,1,0.5s1,0.2,1.7,0.2h1.2l0.3-1.4h-1.5c-0.3,0-0.6,0-0.8-0.1c-0.2,0-0.4-0.1-0.5-0.3c-0.1-0.1-0.2-0.3-0.2-0.5
			c0-0.2-0.1-0.5-0.1-0.9v-4H113.2z"/>
		<path class="st1" d="M115.9,38c-0.4,0-0.7,0.1-0.8,0.3c-0.2,0.2-0.3,0.5-0.3,0.8s0.1,0.7,0.3,0.8s0.5,0.3,0.8,0.3
			c0.4,0,0.7-0.1,0.8-0.3s0.3-0.5,0.3-0.8s-0.1-0.7-0.3-0.8C116.6,38.1,116.3,38,115.9,38z"/>
		<rect x="115.1" y="41.7" class="st1" width="1.8" height="8.7"/>
		<path class="st1" d="M125.7,42.3c-0.3-0.3-0.7-0.5-1.2-0.7c-0.5-0.1-1.1-0.2-1.9-0.2c-0.7,0-1.3,0.1-1.9,0.2
			c-0.5,0.1-0.9,0.4-1.2,0.7s-0.6,0.7-0.7,1.3c-0.2,0.5-0.2,1.2-0.2,2v0.9c0,0.8,0.1,1.5,0.2,2c0.2,0.5,0.4,1,0.7,1.3
			c0.3,0.3,0.7,0.5,1.2,0.7c0.5,0.1,1.1,0.2,1.9,0.2c0.7,0,1.3-0.1,1.9-0.2c0.5-0.1,0.9-0.4,1.2-0.7c0.3-0.3,0.6-0.7,0.7-1.3
			s0.2-1.2,0.2-2v-0.9c0-0.8-0.1-1.5-0.2-2C126.3,43.1,126.1,42.6,125.7,42.3z M124.9,46.5c0,0.6,0,1.1-0.1,1.4
			c-0.1,0.4-0.2,0.6-0.3,0.8c-0.2,0.2-0.4,0.3-0.7,0.4c-0.3,0.1-0.7,0.1-1.1,0.1c-0.5,0-0.9,0-1.1-0.1c-0.3-0.1-0.5-0.2-0.7-0.4
			c-0.2-0.2-0.3-0.5-0.3-0.8c-0.1-0.4-0.1-0.8-0.1-1.4v-0.9c0-0.6,0-1.1,0.1-1.4c0.1-0.4,0.2-0.6,0.3-0.8c0.2-0.2,0.4-0.3,0.7-0.4
			c0.3-0.1,0.7-0.1,1.1-0.1c0.5,0,0.8,0,1.1,0.1c0.3,0.1,0.5,0.2,0.7,0.4c0.2,0.2,0.3,0.5,0.3,0.8c0.1,0.4,0.1,0.8,0.1,1.4V46.5z"/>
		<path class="st1" d="M135.2,42.1c-0.6-0.4-1.6-0.7-2.9-0.7c-1.3,0-2.3,0.2-2.9,0.7c-0.6,0.4-0.9,1.2-0.9,2.2v6.1h1.8v-5.8
			c0-0.3,0-0.5,0.1-0.7c0-0.2,0.1-0.4,0.3-0.5c0.1-0.1,0.3-0.3,0.6-0.3c0.3-0.1,0.7-0.1,1.2-0.1c0.5,0,0.9,0,1.2,0.1
			c0.3,0.1,0.5,0.2,0.6,0.3c0.1,0.1,0.2,0.3,0.3,0.5s0.1,0.5,0.1,0.7v5.8h1.8v-6.1C136.2,43.3,135.8,42.5,135.2,42.1z"/>
		<path class="st1" d="M145,46.9c-0.1-0.3-0.2-0.5-0.3-0.7c-0.2-0.2-0.4-0.4-0.7-0.6c-0.3-0.2-0.7-0.3-1.2-0.3l-1.9-0.2
			c-0.3,0-0.5-0.1-0.6-0.1c-0.2-0.1-0.3-0.1-0.4-0.2s-0.1-0.2-0.2-0.3c0-0.1,0-0.2,0-0.4c0-0.4,0.1-0.6,0.3-0.7
			c0.2-0.1,0.6-0.2,1.2-0.2c0.2,0,0.4,0,0.6,0s0.5,0,0.7,0c0.3,0,0.6,0,0.9,0s0.8,0,1.2,0l0.3-1.5c-0.7,0-1.4,0-2,0
			c-0.6,0-1.1,0-1.7,0c-1.2,0-2.1,0.2-2.6,0.6c-0.5,0.4-0.8,1-0.8,1.8v0.3c0,0.3,0,0.5,0.1,0.8c0.1,0.3,0.2,0.5,0.4,0.7
			s0.4,0.4,0.7,0.5c0.3,0.1,0.6,0.2,1.1,0.3l2,0.2c0.3,0,0.5,0.1,0.6,0.1c0.2,0.1,0.3,0.1,0.4,0.2c0.1,0.1,0.1,0.2,0.2,0.3
			c0,0.1,0,0.2,0,0.4c0,0.4-0.1,0.7-0.4,0.9s-0.7,0.2-1.3,0.2c-0.5,0-1.1,0-1.7,0c-0.6,0-1.2,0-1.8,0l-0.3,1.5c0.7,0,1.3,0,2,0
			c0.7,0,1.2,0,1.8,0c1.2,0,2.1-0.2,2.6-0.7c0.6-0.4,0.9-1.1,0.9-1.9v-0.2C145.1,47.4,145.1,47.2,145,46.9z"/>
		<polygon class="st1" points="66.6,53 64.5,53 59.4,58.3 59.4,53 57.7,53 57.7,65 59.4,65 59.4,59.3 64.7,65 67.2,65 61.2,58.7 		
			"/>
		<path class="st1" d="M71.2,56.3c-0.5,0-0.9,0-1.4,0c-0.5,0-0.8,0-1.2,0l-0.3,1.5c0.4,0,0.8,0,1.4,0c0.5,0,1,0,1.5,0
			c0.5,0,0.9,0,1.2,0.1c0.3,0.1,0.5,0.2,0.7,0.3c0.2,0.1,0.2,0.3,0.3,0.5c0,0.2,0.1,0.5,0.1,0.7v0.5c-0.2-0.1-0.5-0.2-0.8-0.3
			c-0.4-0.1-0.9-0.2-1.6-0.2c-1.2,0-2,0.2-2.6,0.6c-0.6,0.4-0.8,1.1-0.8,2v0.4c0,0.9,0.3,1.5,0.8,1.9c0.5,0.4,1.3,0.6,2.5,0.6h2.5
			c0.6,0,1.1-0.1,1.3-0.3c0.2-0.2,0.4-0.6,0.4-1.1v-4.4c0-0.9-0.3-1.6-0.9-2.1C73.6,56.5,72.6,56.3,71.2,56.3z M73.4,63.5h-2.5
			c-0.6,0-1.1-0.1-1.3-0.3c-0.2-0.2-0.4-0.5-0.4-0.9V62c0-0.2,0-0.4,0.1-0.6c0.1-0.2,0.2-0.3,0.3-0.4c0.1-0.1,0.3-0.2,0.6-0.2
			c0.2,0,0.5-0.1,0.9-0.1h0.4c0.4,0,0.8,0,1,0.1c0.3,0,0.5,0.1,0.6,0.2c0.1,0.1,0.2,0.2,0.3,0.4c0,0.2,0.1,0.3,0.1,0.6V63.5z"/>
		<path class="st1" d="M83.5,60.7c-0.2-0.2-0.4-0.4-0.7-0.6c-0.3-0.2-0.7-0.3-1.2-0.3l-1.9-0.2c-0.3,0-0.5-0.1-0.6-0.1
			c-0.2-0.1-0.3-0.1-0.4-0.2c-0.1-0.1-0.1-0.2-0.2-0.3c0-0.1,0-0.2,0-0.4c0-0.4,0.1-0.6,0.3-0.7c0.2-0.1,0.6-0.2,1.2-0.2
			c0.2,0,0.4,0,0.6,0s0.5,0,0.7,0c0.3,0,0.6,0,0.9,0s0.8,0,1.2,0l0.3-1.5c-0.7,0-1.4,0-2,0c-0.6,0-1.1,0-1.7,0
			c-1.2,0-2.1,0.2-2.6,0.6c-0.5,0.4-0.8,1-0.8,1.8V59c0,0.3,0,0.5,0.1,0.8c0.1,0.3,0.2,0.5,0.4,0.7c0.2,0.2,0.4,0.4,0.7,0.5
			c0.3,0.1,0.6,0.2,1.1,0.3l2,0.2c0.3,0,0.5,0.1,0.6,0.1c0.2,0.1,0.3,0.1,0.4,0.2c0.1,0.1,0.1,0.2,0.2,0.3c0,0.1,0,0.2,0,0.4
			c0,0.4-0.1,0.7-0.4,0.9s-0.7,0.2-1.3,0.2c-0.5,0-1.1,0-1.7,0c-0.6,0-1.2,0-1.8,0L76.7,65c0.7,0,1.3,0,2,0c0.7,0,1.2,0,1.8,0
			c1.2,0,2.1-0.2,2.6-0.7c0.6-0.4,0.9-1.1,0.9-1.9v-0.2c0-0.2,0-0.5-0.1-0.8C83.8,61.2,83.7,61,83.5,60.7z"/>
		<path class="st1" d="M92.2,60.7c-0.2-0.2-0.4-0.4-0.7-0.6c-0.3-0.2-0.7-0.3-1.2-0.3l-1.9-0.2c-0.3,0-0.5-0.1-0.6-0.1
			c-0.2-0.1-0.3-0.1-0.4-0.2c-0.1-0.1-0.1-0.2-0.2-0.3c0-0.1,0-0.2,0-0.4c0-0.4,0.1-0.6,0.3-0.7c0.2-0.1,0.6-0.2,1.2-0.2
			c0.2,0,0.4,0,0.6,0s0.5,0,0.7,0c0.3,0,0.6,0,0.9,0s0.8,0,1.2,0l0.3-1.5c-0.7,0-1.4,0-2,0c-0.6,0-1.1,0-1.7,0
			c-1.2,0-2.1,0.2-2.6,0.6c-0.5,0.4-0.8,1-0.8,1.8V59c0,0.3,0,0.5,0.1,0.8c0.1,0.3,0.2,0.5,0.4,0.7c0.2,0.2,0.4,0.4,0.7,0.5
			c0.3,0.1,0.6,0.2,1.1,0.3l2,0.2c0.3,0,0.5,0.1,0.6,0.1c0.2,0.1,0.3,0.1,0.4,0.2c0.1,0.1,0.1,0.2,0.2,0.3c0,0.1,0,0.2,0,0.4
			c0,0.4-0.1,0.7-0.4,0.9s-0.7,0.2-1.3,0.2c-0.5,0-1.1,0-1.7,0c-0.6,0-1.2,0-1.8,0L85.4,65c0.7,0,1.3,0,2,0c0.7,0,1.2,0,1.8,0
			c1.2,0,2.1-0.2,2.6-0.7c0.6-0.4,0.9-1.1,0.9-1.9v-0.2c0-0.2,0-0.5-0.1-0.8C92.5,61.2,92.3,61,92.2,60.7z"/>
		<path class="st1" d="M101.1,57c-0.3-0.3-0.6-0.5-1.1-0.7c-0.5-0.2-1.1-0.3-1.8-0.3c-0.8,0-1.5,0.1-2,0.3c-0.5,0.2-0.9,0.5-1.2,0.8
			c-0.3,0.4-0.5,0.8-0.6,1.3c-0.1,0.5-0.2,1.1-0.2,1.7v0.9c0,0.6,0.1,1.1,0.2,1.6c0.1,0.5,0.3,0.9,0.6,1.2c0.3,0.3,0.7,0.6,1.2,0.8
			c0.5,0.2,1.1,0.3,1.9,0.3c0.3,0,0.5,0,0.7,0c0.2,0,0.4,0,0.6,0s0.4,0,0.7,0c0.2,0,0.5,0,0.9,0l0.3-1.5c-0.8,0-1.4,0-1.9,0
			c-0.5,0-0.9,0-1.2,0c-0.4,0-0.8,0-1.1-0.1c-0.3-0.1-0.5-0.2-0.6-0.3c-0.2-0.2-0.3-0.4-0.3-0.7C96,62.1,96,61.7,96,61.3h4.6
			c0.2,0,0.4,0,0.5-0.1c0.2,0,0.3-0.1,0.4-0.3c0.1-0.1,0.2-0.3,0.2-0.5c0-0.2,0.1-0.6,0.1-1v-0.3c0-0.4-0.1-0.8-0.2-1.2
			C101.6,57.6,101.4,57.3,101.1,57z M100.2,59.9H96c0-0.5,0-0.9,0.1-1.3c0.1-0.3,0.2-0.6,0.3-0.8c0.2-0.2,0.4-0.3,0.6-0.4
			c0.3-0.1,0.6-0.1,1.1-0.1c0.4,0,0.8,0,1,0.1c0.3,0.1,0.5,0.2,0.6,0.3c0.2,0.1,0.3,0.3,0.3,0.6c0.1,0.3,0.1,0.6,0.1,0.9V59.9z"/>
	</g>
</g>
<g>
	<path class="st0" d="M27.2,25.4c0-0.8-0.7-1.5-1.5-1.5H14.2c-0.8,0-1.5,0.7-1.5,1.5v10.8l14.5-6.3V25.4z"/>
	<ellipse transform="matrix(0.7071 -0.7071 0.7071 0.7071 -3.0152 17.764)" class="st0" cx="19.9" cy="12.5" rx="8.5" ry="8.5"/>
	<path class="st0" d="M12.7,63.5c0,0.8,0.7,1.5,1.5,1.5h11.5c0.8,0,1.5-0.7,1.5-1.5v-4l-14.5-5V63.5z"/>
	<path class="st1" d="M48,51.8l-20.8-6.1l12.5-6.3c0.6-0.3,0.9-0.8,0.9-1.5V26.7c0-1.2-1.2-2-2.3-1.5l-11.1,4.8l-14.5,6.3l-7.9,3.4
		c-0.6,0.3-1,0.9-1,1.5v9c0,0.7,0.4,1.3,1.1,1.5l7.8,2.7l14.5,5L47,66.3c1.1,0.4,2.2-0.4,2.2-1.5V53.4C49.1,52.7,48.7,52,48,51.8z"
		/>
</g>
</svg>
