<?xml version="1.0" encoding="utf-8"?>
<!-- Generator: Adobe Illustrator 18.0.0, SVG Export Plug-In . SVG Version: 6.00 Build 0)  -->
<!DOCTYPE svg PUBLIC "-//W3C//DTD SVG 1.1//EN" "http://www.w3.org/Graphics/SVG/1.1/DTD/svg11.dtd">
<svg version="1.1" id="Ebene_1" xmlns="http://www.w3.org/2000/svg" xmlns:xlink="http://www.w3.org/1999/xlink" x="0px" y="0px"
	 viewBox="0 0 727 437" enable-background="new 0 0 727 437" xml:space="preserve">
<path fill-rule="evenodd" clip-rule="evenodd" fill="#010202" d="M90.2,294.1v-105h19v105H90.2L90.2,294.1z M90.2,169.9v-19h19v19
	H90.2z"/>
<polygon fill-rule="evenodd" clip-rule="evenodd" fill="#010202" points="140.1,294.1 140.1,141.3 159.2,141.3 159.2,239.1 
	204.3,189.1 223.5,189.1 181.8,235.7 233.9,294.1 208.4,294.1 159.2,239.3 159.2,294.1 "/>
<polygon fill-rule="evenodd" clip-rule="evenodd" fill="#010202" points="249.4,294.1 249.4,141.3 268.5,141.3 268.5,239.1 
	313.7,189.1 332.6,189.1 291.1,235.7 343.1,294.1 317.6,294.1 268.5,239.3 268.5,294.1 "/>
<path fill="#010202" d="M430.6,143.5v48.7c0,8.8-2,15.3-6,19.6c-4.5,4.9-11.8,7.3-21.7,7.3c-3,0-5.9-0.2-8.9-0.7
	c-2.9-0.5-5.8-1.2-8.6-2.3l1.1-8.5c2.6,1.2,5.4,2.2,8.3,3c2.9,0.8,5.8,1.1,8.7,1.1c6.7,0,11.3-1.9,13.9-5.6c2.1-3,3.1-7.4,3.1-13.5
	l0.6-6h-0.6c-1.6,3.5-4,6.3-7.3,8.3c-3.3,2.1-6.8,3.1-10.7,3.1c-7.5,0-13.1-2.8-17-8.3c-3.3-4.8-4.9-11.1-4.9-18.9
	c0-7.8,1.9-14.4,5.8-19.7c4.3-5.9,10.3-8.9,18-8.9c6.5,0,11.9,2.5,16,7.4h0.6v-6.2H430.6z M420.6,180.4v-23.9
	c-1.9-2.1-4.1-3.8-6.6-5c-2.5-1.2-5.2-1.8-8-1.8c-5.1,0-8.9,2.2-11.4,6.5c-2.1,3.8-3.2,8.9-3.2,15.2c0,5.2,0.8,9.3,2.5,12.3
	c2.2,3.8,5.6,5.8,10.3,5.8c3.1,0,6.1-0.8,8.9-2.5C415.9,185.2,418.4,183.1,420.6,180.4z"/>
<path fill="#010202" d="M487.6,172.3h-34.2c0,5.9,1.6,10.7,4.7,14.2c3.2,3.5,7.7,5.3,13.8,5.3c5.2,0,10.4-1.2,15.7-3.6v8
	c-2.9,0.9-5.9,1.6-8.9,2.2c-3.1,0.6-6.2,0.8-9.6,0.8c-9.8,0-17.1-3.6-21.6-10.8c-3.1-5-4.7-10.9-4.7-17.6c0-7.7,2-14.2,5.9-19.6
	c4.4-6,10.4-9,17.8-9c8,0,13.7,3.2,17.1,9.7C486.2,157,487.6,163.8,487.6,172.3z M453.7,165.6H477c0-4.5-0.7-8.1-2.1-10.7
	c-1.9-3.4-4.9-5.1-9-5.1c-4,0-7,1.7-9.3,5.1C454.7,157.8,453.7,161.4,453.7,165.6z"/>
<path fill="#010202" d="M498.1,196.2V187c2.6,1.3,5.5,2.4,8.5,3.4c3,1,5.8,1.4,8.3,1.4c2.6,0,4.9-0.6,6.9-2c2.2-1.6,3.3-3.6,3.3-6.1
	c0-3-2.2-5.5-6.7-7.6c-2.2-1.1-4.4-2.2-6.6-3.2c-2.2-1-4.4-2.1-6.5-3.1c-4.6-3.1-7-7.2-7-12.4c0-5,1.7-8.8,5.1-11.4
	c3.4-2.6,8-3.9,13.9-3.9c1.1,0,2.2,0,3.3,0.1c1.1,0.1,2.1,0.2,3.1,0.3c3,0.6,5.4,1,7.2,1.2v8.2c-2.6-0.8-5-1.4-7-1.9
	c-2-0.4-4.2-0.6-6.4-0.6c-2.6,0-4.8,0.6-6.8,1.7c-2,1.1-3,2.9-3,5.3c0,2.7,2.4,5.1,7.1,7.3c4.1,1.9,7.2,3.4,9.4,4.5
	c2.1,1.1,3.4,1.7,3.7,1.9c4.8,3.2,7.2,7.3,7.2,12.4c0,5.4-2.2,9.5-6.4,12.6c-3.9,2.6-8.6,3.9-14.2,3.9c-2.5,0-5.1-0.3-7.7-0.8
	C504.1,197.9,501.2,197.2,498.1,196.2z"/>
<path fill="#010202" d="M594.8,198.1h-10l0.6-10.2h-0.6c-2.4,3.5-5.3,6.3-8.7,8.3c-3.4,2-7.1,3-11.1,3c-4.7,0-8.5-1.5-11.2-4.6
	c-2.8-3-4.2-6.7-4.2-11v-40.1h10v38.8c0,2.6,0.7,4.6,2.1,6.1c1.4,1.5,3.3,2.2,5.6,2.2c3.5,0,6.9-1.2,10.2-3.6c2.7-2,5.1-4.7,7.3-8.2
	v-35.3h10V198.1z"/>
<path fill="#010202" d="M620.4,143.5l-0.6,10.2h0.6c2.5-3.5,5.3-6.2,8.5-8.1c3.7-2.2,7.5-3.3,11.4-3.3c4.7,0,8.5,1.6,11.4,4.8
	c2.7,3,4.1,6.7,4.1,10.9v40.1h-10v-38.8c0-2.6-0.7-4.6-2.1-6.1c-1.4-1.5-3.3-2.2-5.6-2.2c-3.6,0-7,1.2-10.2,3.6
	c-2.7,2-5.2,4.7-7.3,8.2v35.3h-10v-54.6H620.4z"/>
<path fill="#010202" d="M708.6,198.1l0.6-10.2h-0.6c-1.9,3.7-4.4,6.5-7.5,8.4c-3.1,1.9-6.8,2.9-10.9,2.9c-7.3,0-12.8-2.7-16.5-8.2
	c-3.3-4.9-4.9-11.1-4.9-18.6c0-8,1.8-14.8,5.4-20.3c4.3-6.5,10.2-9.8,17.8-9.8c3.6,0,6.7,0.6,9.4,1.7c2.7,1.1,5.1,3,7.2,5.7h0.6
	l-0.6-7.4v-23.6h10v79.4H708.6z M708.6,181.6v-25c-1.4-1.2-2.7-2.3-3.8-3.1c-1.1-0.8-2.1-1.5-3-2c-2.4-1.2-5.2-1.9-8.2-1.9
	c-5.1,0-8.8,2.4-11.3,7.3c-1.9,3.8-2.9,8.5-2.9,14.2c0,7.2,1.3,12.4,3.8,15.5c2.1,2.6,5,3.9,8.8,3.9c3.1,0,6.1-0.9,9.2-2.7
	C703.8,186.5,706.2,184.4,708.6,181.6z"/>
<path fill="#010202" d="M559.1,241.6l-0.6,9.7h0.6c1.8-3.5,4.2-6.2,7.2-8.1c3-1.9,6.5-2.8,10.6-2.8c7.1,0,12.5,2.6,16.1,7.9
	c3.1,4.4,4.6,10.4,4.6,17.8c0,7.7-1.7,14.1-5.2,19.3c-4.1,6.1-9.8,9.2-17.2,9.2c-3.4,0-6.4-0.5-9-1.6c-2.6-1.1-5-2.9-7.1-5.4h-0.6
	l0.6,7.1v17.8h-9.7v-70.8H559.1z M559.1,257.3V281c1.3,1.2,2.6,2.2,3.7,2.9c1.1,0.8,2.1,1.4,2.9,1.9c2.3,1.2,4.9,1.8,8,1.8
	c4.9,0,8.6-2.3,11-6.9c1.9-3.6,2.8-8.1,2.8-13.5c0-6.9-1.2-11.8-3.7-14.8c-2-2.5-4.9-3.7-8.5-3.7c-3,0-5.9,0.8-8.9,2.5
	C563.7,252.6,561.4,254.7,559.1,257.3z"/>
<path fill="#010202" d="M610.3,294.6V219h9.9v75.6H610.3z"/>
<path fill="#010202" d="M675.8,293.6h-9.5l0.6-9.7h-0.6c-2.3,3.3-5,6-8.3,7.9c-3.3,1.9-6.8,2.9-10.6,2.9c-4.5,0-8.1-1.5-10.7-4.4
	c-2.6-2.9-4-6.4-4-10.5v-38.2h9.5v37c0,2.5,0.7,4.4,2,5.8c1.3,1.4,3.1,2.1,5.3,2.1c3.4,0,6.6-1.1,9.7-3.4c2.6-1.9,4.9-4.5,6.9-7.8
	v-33.6h9.5V293.6z"/>
<path fill="#010202" d="M688.1,291.8V283c2.5,1.2,5.1,2.3,8,3.2c2.8,0.9,5.4,1.4,7.8,1.4c2.5,0,4.6-0.6,6.4-1.9
	c2.1-1.5,3.1-3.4,3.1-5.8c0-2.9-2.1-5.3-6.2-7.2c-2.1-1-4.1-2.1-6.2-3c-2-1-4.1-2-6.1-2.9c-4.3-2.9-6.5-6.9-6.5-11.8
	c0-4.8,1.6-8.4,4.8-10.8c3.2-2.4,7.5-3.7,13-3.7c1,0,2.1,0,3.1,0.1c1,0.1,2,0.2,2.9,0.3c2.8,0.5,5,0.9,6.7,1.2v7.8
	c-2.5-0.8-4.6-1.4-6.5-1.8c-1.9-0.4-3.9-0.6-6-0.6c-2.4,0-4.5,0.5-6.4,1.6c-1.8,1.1-2.8,2.8-2.8,5.1c0,2.5,2.2,4.9,6.6,7
	c3.8,1.8,6.7,3.3,8.7,4.3c2,1,3.2,1.6,3.5,1.8c4.5,3.1,6.7,7,6.7,11.8c0,5.1-2,9.1-6,12c-3.6,2.5-8.1,3.7-13.3,3.7
	c-2.3,0-4.7-0.2-7.2-0.7C693.7,293.4,691,292.7,688.1,291.8z"/>
<path fill-rule="evenodd" clip-rule="evenodd" fill="#43ABE1" d="M309.6,64.9C260.3,13,149.9,29.5,75.3,100.3
	C13.6,158.9,5,228.9,44,266.8C-1.8,227.2,6.6,150.9,75.2,87.2c81.3-75.3,202.5-93.9,256.2-38.8c30.6,31.4,24.5,80.3,0.2,124.1h12.5
	c26.3-47.1,32.6-99,0.6-134.1C286.4-25.7,151.5-6.5,62,79.2c-79.4,76.1-80.1,166.3-15.8,204.6c6.9,4.2,14.3,7.5,22.3,10.3v-26.9
	C21.8,233.8,26.9,162.4,90,103.4c71.1-66.6,176-82.3,223.6-34.1C313.6,69.3,311,66.2,309.6,64.9z"/>
<g>
	<path fill="#010202" d="M90,426.7v-36.4h6.6l9.8,28.7l10.2-28.7h5.9v36.4H118v-30l-9.8,27.6h-4.6l-9.4-27.6l-0.1,30H90z"/>
	<path fill="#010202" d="M149.3,414.1h-15.9c0,2.9,0.7,5.2,2.2,6.9c1.5,1.7,3.6,2.6,6.4,2.6c2.4,0,4.9-0.6,7.3-1.8v3.9
		c-1.4,0.4-2.7,0.8-4.2,1.1c-1.4,0.3-2.9,0.4-4.5,0.4c-4.6,0-7.9-1.8-10.1-5.3c-1.5-2.5-2.2-5.3-2.2-8.6c0-3.8,0.9-7,2.8-9.6
		c2.1-2.9,4.8-4.4,8.3-4.4c3.7,0,6.4,1.6,7.9,4.7C148.6,406.6,149.3,410,149.3,414.1z M133.5,410.8h10.8c0-2.2-0.3-4-1-5.2
		c-0.9-1.7-2.3-2.5-4.2-2.5c-1.8,0-3.3,0.8-4.3,2.5C133.9,407,133.5,408.7,133.5,410.8z"/>
	<path fill="#010202" d="M155.1,426.7v-38.9h4.6V400l-0.3,5h0.3c1.2-1.7,2.5-3,3.9-4c1.7-1.1,3.5-1.6,5.3-1.6c2.2,0,3.9,0.8,5.3,2.4
		c1.3,1.5,1.9,3.3,1.9,5.3v19.6h-4.6v-19c0-1.3-0.3-2.3-1-3c-0.6-0.7-1.5-1.1-2.6-1.1c-1.6,0-3.2,0.6-4.7,1.8c-1.3,1-2.4,2.3-3.4,4
		v17.3H155.1z"/>
	<path fill="#010202" d="M187.9,400l-0.3,5h0.3c0.8-1.7,2-3.1,3.4-4.1c1.4-1,3-1.5,4.8-1.5h1.4v4.6c-0.3-0.1-0.6-0.2-1-0.3
		c-0.3-0.1-0.7-0.1-1.1-0.1c-1.6,0-3.1,0.5-4.5,1.6c-1.2,0.9-2.2,2.2-3,3.9v17.6h-4.6V400H187.9z"/>
	<path fill="#010202" d="M217.3,426.7v-36.4h4.6v32.8h15.8v3.6H217.3z"/>
	<path fill="#010202" d="M260.7,414.1h-15.9c0,2.9,0.7,5.2,2.2,6.9c1.5,1.7,3.6,2.6,6.4,2.6c2.4,0,4.9-0.6,7.3-1.8v3.9
		c-1.4,0.4-2.7,0.8-4.2,1.1c-1.4,0.3-2.9,0.4-4.5,0.4c-4.6,0-7.9-1.8-10.1-5.3c-1.5-2.5-2.2-5.3-2.2-8.6c0-3.8,0.9-7,2.8-9.6
		c2.1-2.9,4.8-4.4,8.3-4.4c3.7,0,6.4,1.6,7.9,4.7C260.1,406.6,260.7,410,260.7,414.1z M244.9,410.8h10.8c0-2.2-0.3-4-1-5.2
		c-0.9-1.7-2.3-2.5-4.2-2.5c-1.8,0-3.3,0.8-4.3,2.5C245.4,407,244.9,408.7,244.9,410.8z"/>
	<path fill="#010202" d="M266.6,395.1v-4.8h4.6v4.8H266.6z M266.6,426.7V400h4.6v26.7H266.6z"/>
	<path fill="#010202" d="M277.6,425.8v-4.5c1.2,0.6,2.5,1.2,4,1.7c1.4,0.5,2.7,0.7,3.9,0.7c1.2,0,2.3-0.3,3.2-1c1-0.8,1.5-1.8,1.5-3
		c0-1.5-1-2.7-3.1-3.7c-1-0.5-2.1-1.1-3.1-1.6c-1-0.5-2-1-3-1.5c-2.2-1.5-3.2-3.5-3.2-6.1c0-2.4,0.8-4.3,2.4-5.6
		c1.6-1.3,3.7-1.9,6.5-1.9c0.5,0,1,0,1.5,0.1c0.5,0,1,0.1,1.4,0.1c1.4,0.3,2.5,0.5,3.3,0.6v4c-1.2-0.4-2.3-0.7-3.2-0.9
		c-0.9-0.2-1.9-0.3-3-0.3c-1.2,0-2.3,0.3-3.2,0.8c-0.9,0.6-1.4,1.4-1.4,2.6c0,1.3,1.1,2.5,3.3,3.6c1.9,0.9,3.4,1.7,4.4,2.2
		c1,0.5,1.6,0.8,1.7,0.9c2.2,1.6,3.3,3.6,3.3,6c0,2.6-1,4.7-3,6.1c-1.8,1.3-4,1.9-6.6,1.9c-1.2,0-2.4-0.1-3.6-0.4
		C280.4,426.6,279,426.3,277.6,425.8z"/>
	<path fill="#010202" d="M305.9,400h6.1v3.6h-6.1v14.2c0,1.9,0.2,3.3,0.7,4.2c0.6,1.1,1.8,1.7,3.6,1.7c0.7,0,1.5-0.1,2.3-0.3v3.3
		c-0.5,0.1-1,0.2-1.6,0.4c-0.6,0.1-1.3,0.2-2.1,0.2c-2.8,0-4.8-0.9-6.1-2.7c-1-1.3-1.5-3-1.5-4.8v-16.1h-3.2V400h3.2v-4.9l4.6-0.5
		V400z"/>
	<path fill="#010202" d="M338.1,426.7h-4.6l0.3-5h-0.3c-1.1,1.7-2.4,3.1-4,4.1c-1.6,1-3.3,1.5-5.2,1.5c-2.2,0-3.9-0.8-5.2-2.3
		c-1.3-1.5-1.9-3.3-1.9-5.4V400h4.6v19c0,1.3,0.3,2.3,1,3c0.6,0.7,1.5,1.1,2.6,1.1c1.6,0,3.2-0.6,4.7-1.8c1.3-1,2.4-2.3,3.4-4V400
		h4.6V426.7z"/>
	<path fill="#010202" d="M350,400l-0.3,5h0.3c1.2-1.7,2.5-3,3.9-4c1.7-1.1,3.5-1.6,5.3-1.6c2.2,0,3.9,0.8,5.3,2.4
		c1.3,1.5,1.9,3.3,1.9,5.3v19.6h-4.6v-19c0-1.3-0.3-2.3-1-3c-0.6-0.7-1.5-1.1-2.6-1.1c-1.6,0-3.2,0.6-4.7,1.8c-1.3,1-2.4,2.3-3.4,4
		v17.3h-4.6V400H350z"/>
	<path fill="#010202" d="M395.2,400v23.8c0,4.3-0.9,7.5-2.8,9.6c-2.1,2.4-5.5,3.6-10.1,3.6c-1.4,0-2.8-0.1-4.1-0.4
		c-1.4-0.2-2.7-0.6-4-1.1l0.5-4.2c1.2,0.6,2.5,1.1,3.9,1.5c1.4,0.4,2.7,0.6,4.1,0.6c3.1,0,5.3-0.9,6.5-2.7c1-1.4,1.5-3.6,1.5-6.6
		l0.3-2.9h-0.3c-0.7,1.7-1.9,3.1-3.4,4.1c-1.5,1-3.2,1.5-5,1.5c-3.5,0-6.1-1.4-7.9-4.1c-1.5-2.4-2.3-5.4-2.3-9.3
		c0-3.8,0.9-7,2.7-9.6c2-2.9,4.8-4.3,8.4-4.3c3,0,5.5,1.2,7.5,3.6h0.3v-3H395.2z M390.5,418.1v-11.7c-0.9-1-1.9-1.9-3.1-2.4
		c-1.2-0.6-2.4-0.9-3.7-0.9c-2.4,0-4.2,1.1-5.3,3.2c-1,1.8-1.5,4.3-1.5,7.5c0,2.6,0.4,4.6,1.2,6c1,1.9,2.6,2.8,4.8,2.8
		c1.5,0,2.8-0.4,4.1-1.2C388.3,420.4,389.5,419.4,390.5,418.1z"/>
	<path fill="#010202" d="M402.5,426.7v-6h5.9v6H402.5z"/>
	<path fill="#010202" d="M436.6,426.7v-36.4h6.6L453,419l10.2-28.7h5.9v36.4h-4.4v-30l-9.8,27.6h-4.6l-9.4-27.6l-0.1,30H436.6z"/>
	<path fill="#010202" d="M495.8,414.1h-15.9c0,2.9,0.7,5.2,2.2,6.9c1.5,1.7,3.6,2.6,6.4,2.6c2.4,0,4.9-0.6,7.3-1.8v3.9
		c-1.4,0.4-2.7,0.8-4.2,1.1c-1.4,0.3-2.9,0.4-4.5,0.4c-4.6,0-7.9-1.8-10.1-5.3c-1.5-2.5-2.2-5.3-2.2-8.6c0-3.8,0.9-7,2.8-9.6
		c2.1-2.9,4.8-4.4,8.3-4.4c3.7,0,6.4,1.6,7.9,4.7C495.2,406.6,495.8,410,495.8,414.1z M480.1,410.8h10.8c0-2.2-0.3-4-1-5.2
		c-0.9-1.7-2.3-2.5-4.2-2.5c-1.8,0-3.3,0.8-4.3,2.5C480.5,407,480.1,408.7,480.1,410.8z"/>
	<path fill="#010202" d="M501.7,426.7v-38.9h4.6V400l-0.3,5h0.3c1.2-1.7,2.5-3,3.9-4c1.7-1.1,3.5-1.6,5.3-1.6c2.2,0,3.9,0.8,5.3,2.4
		c1.3,1.5,1.9,3.3,1.9,5.3v19.6H518v-19c0-1.3-0.3-2.3-1-3c-0.6-0.7-1.5-1.1-2.6-1.1c-1.6,0-3.2,0.6-4.7,1.8c-1.3,1-2.4,2.3-3.4,4
		v17.3H501.7z"/>
	<path fill="#010202" d="M534.5,400l-0.3,5h0.3c0.8-1.7,2-3.1,3.4-4.1c1.4-1,3-1.5,4.8-1.5h1.4v4.6c-0.3-0.1-0.6-0.2-1-0.3
		c-0.3-0.1-0.7-0.1-1.1-0.1c-1.6,0-3.1,0.5-4.5,1.6c-1.2,0.9-2.2,2.2-3,3.9v17.6h-4.6V400H534.5z"/>
	<path fill="#010202" d="M561.8,425.9V421c1,0.5,1.9,0.9,2.7,1.2c0.8,0.4,1.5,0.6,2.1,0.8c1.7,0.6,3.4,0.9,5.1,0.9
		c0.9,0,1.8-0.1,2.5-0.4c0.8-0.3,1.5-0.7,2.1-1.2c0.6-0.5,1.1-1.1,1.4-1.9c0.3-0.7,0.5-1.5,0.5-2.4c0-2.4-1.4-4.6-4.2-6.5
		c-1.3-0.8-2.6-1.7-3.9-2.5c-1.3-0.8-2.6-1.6-3.9-2.5c-2.8-2.1-4.2-4.7-4.2-7.5c0-2.2,0.7-4.2,2.2-6c1.9-2.4,4.7-3.7,8.3-3.7
		c1.4,0,2.8,0.1,4.1,0.4c1.4,0.2,2.7,0.6,4.1,1.1v4.5c-0.8-0.3-1.5-0.6-2-0.8c-0.5-0.2-0.8-0.3-1-0.4c-1.9-0.7-3.7-1.1-5.3-1.1
		c-2,0-3.5,0.6-4.6,1.8c-1,1-1.5,2.1-1.5,3.4c0,2,1.4,4,4.3,5.8c1.4,0.9,2.7,1.7,4,2.6c1.3,0.8,2.6,1.7,4,2.5c2.8,2.3,4.3,5,4.3,8.2
		c0,2.5-0.8,4.6-2.4,6.5c-2.2,2.6-5.3,3.8-9.5,3.8c-1.5,0-2.9-0.1-4.4-0.4C565.1,426.9,563.5,426.5,561.8,425.9z"/>
	<path fill="#010202" d="M607.7,414.1h-15.9c0,2.9,0.7,5.2,2.2,6.9c1.5,1.7,3.6,2.6,6.4,2.6c2.4,0,4.9-0.6,7.3-1.8v3.9
		c-1.4,0.4-2.7,0.8-4.2,1.1c-1.4,0.3-2.9,0.4-4.5,0.4c-4.6,0-7.9-1.8-10.1-5.3c-1.5-2.5-2.2-5.3-2.2-8.6c0-3.8,0.9-7,2.8-9.6
		c2.1-2.9,4.8-4.4,8.3-4.4c3.7,0,6.4,1.6,7.9,4.7C607.1,406.6,607.7,410,607.7,414.1z M591.9,410.8h10.8c0-2.2-0.3-4-1-5.2
		c-0.9-1.7-2.3-2.5-4.2-2.5c-1.8,0-3.3,0.8-4.3,2.5C592.4,407,591.9,408.7,591.9,410.8z"/>
	<path fill="#010202" d="M618.2,400l-0.3,5h0.3c0.8-1.7,2-3.1,3.4-4.1c1.4-1,3-1.5,4.8-1.5h1.4v4.6c-0.3-0.1-0.6-0.2-1-0.3
		c-0.3-0.1-0.7-0.1-1.1-0.1c-1.6,0-3.1,0.5-4.5,1.6c-1.2,0.9-2.2,2.2-3,3.9v17.6h-4.6V400H618.2z"/>
	<path fill="#010202" d="M640.8,426.7L630.2,400h4.7l8.7,21.9l9.1-21.9h3.9l-11.1,26.7H640.8z"/>
	<path fill="#010202" d="M660.7,395.1v-4.8h4.6v4.8H660.7z M660.7,426.7V400h4.6v26.7H660.7z"/>
	<path fill="#010202" d="M690.7,400.3v4.1c-1.3-0.4-2.4-0.8-3.5-1c-1-0.2-2.2-0.3-3.3-0.3c-2.6,0-4.6,1.1-6,3.2
		c-1.2,1.9-1.8,4.3-1.8,7.1c0,2.9,0.6,5.3,1.9,7.1c1.5,2.1,3.6,3.1,6.3,3.1c2.4,0,4.6-0.6,6.7-1.7v3.9c-0.8,0.3-1.5,0.5-2.2,0.7
		c-0.7,0.2-1.3,0.3-1.9,0.4c-0.6,0.1-1.2,0.2-1.7,0.2c-0.6,0.1-1.2,0.1-1.8,0.1c-4.6,0-7.9-1.8-10.1-5.3c-1.5-2.5-2.2-5.3-2.2-8.6
		c0-3.7,0.8-6.7,2.5-9.2c2.1-3.2,5.4-4.7,9.8-4.7C685.5,399.4,687.9,399.7,690.7,400.3z"/>
	<path fill="#010202" d="M715.1,414.1h-15.9c0,2.9,0.7,5.2,2.2,6.9c1.5,1.7,3.6,2.6,6.4,2.6c2.4,0,4.9-0.6,7.3-1.8v3.9
		c-1.4,0.4-2.7,0.8-4.2,1.1c-1.4,0.3-2.9,0.4-4.5,0.4c-4.6,0-7.9-1.8-10.1-5.3c-1.5-2.5-2.2-5.3-2.2-8.6c0-3.8,0.9-7,2.8-9.6
		c2.1-2.9,4.8-4.4,8.3-4.4c3.7,0,6.4,1.6,7.9,4.7C714.5,406.6,715.1,410,715.1,414.1z M699.4,410.8h10.8c0-2.2-0.3-4-1-5.2
		c-0.9-1.7-2.3-2.5-4.2-2.5c-1.8,0-3.3,0.8-4.3,2.5C699.8,407,699.4,408.7,699.4,410.8z"/>
	<path fill="#010202" d="M721.2,426.7v-6h5.9v6H721.2z"/>
</g>
</svg>
