<svg xmlns="http://www.w3.org/2000/svg" viewBox="0 0 197.89 130.84"><defs><style>.a{fill:#006eb7;}.a,.b{fill-rule:evenodd;}.b,.c{fill:#1d1d1b;}.d{fill:#d20a11;}.e{fill:#646363;}</style></defs><title>Signet IKKBB_Innung_unten-01</title><path class="a" d="M146.41,94.21H135.32c-.81-11.07-5.73-19.68-13.95-25.45a32.89,32.89,0,0,0-19.29-6.12,30.24,30.24,0,0,0-22.94,9.84,31.81,31.81,0,0,0-9.88,23.36,33.74,33.74,0,0,0,5,17.67,36.7,36.7,0,0,0,18,13.95v11.9C78.29,135.25,68.45,127,62.71,116a48.29,48.29,0,0,1-4.49-20.12,44.11,44.11,0,0,1,43.86-44.28,44.59,44.59,0,0,1,22.16,5.73,46.78,46.78,0,0,1,16,16.43c3.29,5.31,5.34,12.28,6.16,20.49" transform="translate(-58.22 -51.56)"/><polygon class="b" points="54.56 46.77 66.03 46.77 66.03 63.58 77.11 46.77 88.19 46.77 77.92 61.53 90.24 85.75 90.24 46.77 101.71 46.77 101.71 63.58 112.79 46.77 124.36 46.75 113.61 61.96 126.35 87.38 112.25 87.3 105.43 72.61 101.71 78.34 101.71 87.38 77.53 87.38 70.56 72.18 66.03 78.34 66.03 87.38 54.56 87.38 54.56 46.77"/><rect class="c" x="38.13" y="30.34" width="12.71" height="12.32"/><rect class="c" x="38.13" y="46.77" width="12.71" height="40.61"/><path class="d" d="M189.61,138.92V98.24H207.2c6.33,0,11.62,2.53,11.62,9.23,0,6-5.92,9-11,10.13v.11c6.16,1,12.71,4.21,12.71,11.25,0,4.11-2.67,10-12.77,10Zm10-24.42a8.71,8.71,0,0,0,2.05.23c4.49,0,6.2-2.93,6.2-5.86,0-3.71-2.85-3.88-4.95-3.88h-3.3Zm0,17.5a32.74,32.74,0,0,0,4.44.17c2.44,0,5.52-1,5.52-4.5,0-5.07-4.38-6.53-10-6.53Z" transform="translate(-58.22 -51.56)"/><path class="d" d="M225.2,138.92V98.24h17.59c6.32,0,11.61,2.53,11.61,9.23,0,6-5.92,8.94-11,10.13v.11c6.15,1,12.69,4.21,12.69,11.25,0,4.11-2.68,10-12.75,10Zm10-24.42a8.82,8.82,0,0,0,2.05.23c4.5,0,6.21-2.93,6.21-5.86,0-3.71-2.85-3.88-4.95-3.88h-3.31Zm0,17.5a32.74,32.74,0,0,0,4.44.17c2.45,0,5.53-1,5.53-4.5,0-5.07-4.39-6.53-10-6.53Z" transform="translate(-58.22 -51.56)"/><path class="e" d="M96.56,150.76h1.35v10.62H96.56Z" transform="translate(-58.22 -51.56)"/><path class="e" d="M101.82,155.05h.08a3.27,3.27,0,0,1,2.67-1.63,2.1,2.1,0,0,1,2.07,2.25v5.71H105.3v-5.54a1,1,0,0,0-1-1.19,3,3,0,0,0-2.36,1.69v5h-1.34V153.6h1.34Z" transform="translate(-58.22 -51.56)"/><path class="e" d="M110.52,155.05h.08a3.25,3.25,0,0,1,2.66-1.63,2.11,2.11,0,0,1,2.08,2.25v5.71H114v-5.54a1,1,0,0,0-1-1.19,3,3,0,0,0-2.36,1.69v5h-1.35V153.6h1.35Z" transform="translate(-58.22 -51.56)"/><path class="e" d="M122.71,161.38h0l.09-1.45h-.09a3.25,3.25,0,0,1-2.66,1.63,2.11,2.11,0,0,1-2.08-2.25V153.6h1.35v5.54a1,1,0,0,0,1,1.19,3,3,0,0,0,2.35-1.69v-5H124v7.78Z" transform="translate(-58.22 -51.56)"/><path class="e" d="M127.91,155.05H128a3.24,3.24,0,0,1,2.66-1.63,2.1,2.1,0,0,1,2.07,2.25v5.71h-1.34v-5.54a1,1,0,0,0-1-1.19,3,3,0,0,0-2.35,1.69v5h-1.35V153.6H128Z" transform="translate(-58.22 -51.56)"/><path class="e" d="M141.52,160.55c0,2.36-.94,3.85-3.75,3.85a6.52,6.52,0,0,1-2.35-.43l.15-1.22a5,5,0,0,0,2.3.59c1.95,0,2.3-1.22,2.3-2.73l.08-.86h-.08a2.71,2.71,0,0,1-2.43,1.63c-2.16,0-2.94-1.89-2.94-3.89s1-4.07,3.21-4.07a2.59,2.59,0,0,1,2.16,1.06h.08v-.88h1.27Zm-1.35-5.1a2.63,2.63,0,0,0-2-1c-1.5,0-2,1.44-2,3.1,0,1.23.34,2.57,1.72,2.57a3,3,0,0,0,2.22-1.29Z" transform="translate(-58.22 -51.56)"/><path class="e" d="M143.86,159.81a5.31,5.31,0,0,0,2.27.69,1.24,1.24,0,0,0,1.38-1.14c0-1.65-3.61-1.15-3.61-3.76,0-1.47,1-2.18,2.57-2.18a10,10,0,0,1,1.82.23v1.18a5.93,5.93,0,0,0-1.81-.35c-.59,0-1.31.26-1.31,1,0,1.44,3.68,1.2,3.68,3.71,0,1.64-1.4,2.37-2.79,2.37a7.55,7.55,0,0,1-2.2-.44Z" transform="translate(-58.22 -51.56)"/><path class="e" d="M151.28,150.06h1.35v7.25l3.18-3.71h1.36l-2.94,3.45,3.68,4.33h-1.8l-3.48-4.07v4.07h-1.35Z" transform="translate(-58.22 -51.56)"/><path class="e" d="M160.75,155.05h.08a2.68,2.68,0,0,1,2.36-1.63h.41v1.35a1.84,1.84,0,0,0-.61-.12,2.56,2.56,0,0,0-2.16,1.61v5.12h-1.34V153.6h1.34Z" transform="translate(-58.22 -51.56)"/><path class="e" d="M171.2,161.34a2.31,2.31,0,0,1-1,.22A1.26,1.26,0,0,1,169,160.4a3.34,3.34,0,0,1-2.29,1.16,2.08,2.08,0,0,1-2.17-2.14c0-1.42,1.16-2.65,3.75-2.65h.54v-.53c0-1.12-.14-1.76-1.38-1.76a5,5,0,0,0-2.27.69V154a6.37,6.37,0,0,1,2.6-.59,2.09,2.09,0,0,1,2.39,2.31v3.46c0,.58,0,1.39.72,1.36h.25Zm-2.41-3.73h-.65c-.8,0-2.3.37-2.3,1.6a1.2,1.2,0,0,0,1.22,1.2,2.74,2.74,0,0,0,1.73-.79Z" transform="translate(-58.22 -51.56)"/><path class="e" d="M174.19,155.05h.08a3.25,3.25,0,0,1,2.67-1.63,2.11,2.11,0,0,1,2.07,2.25v5.71h-1.34v-5.54a1,1,0,0,0-1-1.19,3,3,0,0,0-2.36,1.69v5h-1.34V153.6h1.34Z" transform="translate(-58.22 -51.56)"/><path class="e" d="M181.67,150.06H183v7.25l3.18-3.71h1.37l-2.95,3.45,3.69,4.33h-1.81L183,157.31v4.07h-1.34Z" transform="translate(-58.22 -51.56)"/><path class="e" d="M190.71,157.71c0,1.63.87,2.79,2.5,2.79a4.63,4.63,0,0,0,2.12-.51v1.13a7.68,7.68,0,0,1-2.5.44c-3,0-3.55-2.79-3.55-4.07,0-2,1.07-4.07,3.2-4.07,2.34,0,2.92,2.28,2.85,4.29Zm3.19-1c0-1.06-.28-2.26-1.5-2.26s-1.59,1.22-1.65,2.26Z" transform="translate(-58.22 -51.56)"/><path class="e" d="M198.91,155.05H199a3.25,3.25,0,0,1,2.66-1.63,2.11,2.11,0,0,1,2.08,2.25v5.71h-1.35v-5.54a1,1,0,0,0-1-1.19,3,3,0,0,0-2.36,1.69v5h-1.35V153.6H199Z" transform="translate(-58.22 -51.56)"/><path class="e" d="M206.38,150.06h1.35v7.25l3.18-3.71h1.36l-2.94,3.45,3.69,4.33h-1.81l-3.48-4.07v4.07h-1.35Z" transform="translate(-58.22 -51.56)"/><path class="e" d="M220.56,161.34a2.3,2.3,0,0,1-1,.22,1.26,1.26,0,0,1-1.25-1.16,3.32,3.32,0,0,1-2.29,1.16,2.08,2.08,0,0,1-2.17-2.14c0-1.42,1.16-2.65,3.76-2.65h.53v-.53c0-1.12-.14-1.76-1.37-1.76a5,5,0,0,0-2.28.69V154a6.37,6.37,0,0,1,2.6-.59,2.1,2.1,0,0,1,2.4,2.31v3.46c0,.58-.05,1.39.71,1.36h.25Zm-2.41-3.73h-.64c-.8,0-2.3.37-2.3,1.6a1.2,1.2,0,0,0,1.22,1.2,2.72,2.72,0,0,0,1.72-.79Z" transform="translate(-58.22 -51.56)"/><path class="e" d="M222.07,159.81a5.26,5.26,0,0,0,2.27.69,1.24,1.24,0,0,0,1.37-1.14c0-1.65-3.6-1.15-3.6-3.76,0-1.47,1-2.18,2.56-2.18a10.15,10.15,0,0,1,1.83.23v1.18a5.93,5.93,0,0,0-1.81-.35c-.59,0-1.32.26-1.32,1,0,1.44,3.69,1.2,3.69,3.71,0,1.64-1.4,2.37-2.79,2.37a7.48,7.48,0,0,1-2.2-.44Z" transform="translate(-58.22 -51.56)"/><path class="e" d="M229.22,159.81a5.31,5.31,0,0,0,2.27.69,1.24,1.24,0,0,0,1.38-1.14c0-1.65-3.61-1.15-3.61-3.76,0-1.47,1-2.18,2.57-2.18a10,10,0,0,1,1.82.23v1.18a5.93,5.93,0,0,0-1.81-.35c-.59,0-1.32.26-1.32,1,0,1.44,3.69,1.2,3.69,3.71,0,1.64-1.4,2.37-2.79,2.37a7.55,7.55,0,0,1-2.2-.44Z" transform="translate(-58.22 -51.56)"/><path class="e" d="M237.48,157.71c0,1.63.87,2.79,2.5,2.79a4.66,4.66,0,0,0,2.12-.51v1.13a7.68,7.68,0,0,1-2.5.44c-3,0-3.55-2.79-3.55-4.07,0-2,1.07-4.07,3.2-4.07,2.34,0,2.92,2.28,2.85,4.29Zm3.19-1c0-1.06-.29-2.26-1.51-2.26s-1.58,1.22-1.64,2.26Z" transform="translate(-58.22 -51.56)"/><path class="e" d="M96.56,168.76h2.86c1.46,0,2.82.78,2.82,2.32a3,3,0,0,1-2,2.76v0a3,3,0,0,1,2.44,2.88,2.6,2.6,0,0,1-2.6,2.63H96.56Zm1.35,4.69h.56c1.27,0,2.42-.58,2.42-2s-1.2-1.59-2.17-1.59h-.81Zm0,4.8a9.93,9.93,0,0,0,1.27.08c1.78,0,2-1,2-1.71,0-1.91-2.18-2.32-3.3-2.29Z" transform="translate(-58.22 -51.56)"/><path class="e" d="M105.89,173.05H106a2.66,2.66,0,0,1,2.36-1.63h.4v1.35a1.73,1.73,0,0,0-.6-.12,2.56,2.56,0,0,0-2.16,1.61v5.12h-1.34V171.6H106Z" transform="translate(-58.22 -51.56)"/><path class="e" d="M116.34,179.34a2.31,2.31,0,0,1-1,.22,1.27,1.27,0,0,1-1.25-1.16,3.32,3.32,0,0,1-2.28,1.16,2.09,2.09,0,0,1-2.18-2.14c0-1.42,1.17-2.65,3.76-2.65h.53v-.53c0-1.12-.14-1.76-1.37-1.76a5,5,0,0,0-2.27.69V172a6.36,6.36,0,0,1,2.59-.59,2.09,2.09,0,0,1,2.4,2.31v3.46c0,.58,0,1.39.72,1.36h.25Zm-2.42-3.73h-.64c-.8,0-2.3.37-2.3,1.6a1.2,1.2,0,0,0,1.22,1.2,2.7,2.7,0,0,0,1.72-.79Z" transform="translate(-58.22 -51.56)"/><path class="e" d="M119.33,173.05h.08a3.25,3.25,0,0,1,2.66-1.63,2.11,2.11,0,0,1,2.08,2.25v5.71H122.8v-5.54a1,1,0,0,0-1-1.19,3,3,0,0,0-2.36,1.69v5h-1.35V171.6h1.35Z" transform="translate(-58.22 -51.56)"/><path class="e" d="M131.67,177.93h-.09a2.67,2.67,0,0,1-2.48,1.63c-2.12,0-2.89-1.91-2.89-3.85s.93-4.29,3.13-4.29a2.58,2.58,0,0,1,2.24,1.06h.09l-.09-1.06v-3.36h1.35v11.32h-1.35Zm-.09-4.47a2.71,2.71,0,0,0-2-1c-1.53,0-1.93,1.76-1.93,3.07s.27,2.78,1.71,2.78a3.06,3.06,0,0,0,2.23-1.3Z" transform="translate(-58.22 -51.56)"/><path class="e" d="M136.48,175.71c0,1.63.87,2.79,2.5,2.79a4.66,4.66,0,0,0,2.12-.51v1.13a7.68,7.68,0,0,1-2.5.44c-3,0-3.55-2.79-3.55-4.07,0-2,1.07-4.07,3.2-4.07,2.34,0,2.92,2.28,2.85,4.29Zm3.18-1c0-1.06-.28-2.26-1.5-2.26s-1.58,1.22-1.64,2.26Z" transform="translate(-58.22 -51.56)"/><path class="e" d="M144.67,173.05h.09a3.24,3.24,0,0,1,2.66-1.63,2.11,2.11,0,0,1,2.08,2.25v5.71h-1.35v-5.54a1,1,0,0,0-1-1.19,3,3,0,0,0-2.35,1.69v5h-1.35V171.6h1.35Z" transform="translate(-58.22 -51.56)"/><path class="e" d="M152,168.06h1.35v3.54l-.09,1.45h.09a2.67,2.67,0,0,1,2.48-1.63c2.13,0,2.89,1.91,2.89,3.85s-.91,4.29-3.13,4.29a2.6,2.6,0,0,1-2.24-1.06h-.09l-.17,1H152Zm1.35,9.46a2.71,2.71,0,0,0,2,1c1.52,0,1.92-1.76,1.92-3.07s-.27-2.78-1.71-2.78a3.06,3.06,0,0,0-2.23,1.3Z" transform="translate(-58.22 -51.56)"/><path class="e" d="M165.7,179.38h0l.08-1.45h-.08a3.27,3.27,0,0,1-2.67,1.63,2.1,2.1,0,0,1-2.07-2.25V171.6h1.34v5.54a1,1,0,0,0,1,1.19,3,3,0,0,0,2.36-1.69v-5H167v7.78Z" transform="translate(-58.22 -51.56)"/><path class="e" d="M171,173.05H171a2.66,2.66,0,0,1,2.36-1.63h.4v1.35a1.73,1.73,0,0,0-.6-.12,2.56,2.56,0,0,0-2.16,1.61v5.12h-1.34V171.6H171Z" transform="translate(-58.22 -51.56)"/><path class="e" d="M181.27,178.55c0,2.36-.94,3.85-3.74,3.85a6.61,6.61,0,0,1-2.36-.43l.16-1.22a5,5,0,0,0,2.3.59c2,0,2.3-1.22,2.3-2.73l.08-.86h-.08a2.72,2.72,0,0,1-2.43,1.63c-2.16,0-2.94-1.89-2.94-3.89s1-4.07,3.21-4.07a2.6,2.6,0,0,1,2.16,1.06H180v-.88h1.26Zm-1.34-5.1a2.63,2.63,0,0,0-2-1c-1.5,0-2,1.44-2,3.1,0,1.23.33,2.57,1.72,2.57a3,3,0,0,0,2.22-1.29Z" transform="translate(-58.22 -51.56)"/><path class="e" d="M193,179.38h0l.08-1.45H193a3.27,3.27,0,0,1-2.67,1.63,2.1,2.1,0,0,1-2.07-2.25V171.6h1.34v5.54a1,1,0,0,0,1,1.19,3,3,0,0,0,2.36-1.69v-5h1.34v7.78Z" transform="translate(-58.22 -51.56)"/><path class="e" d="M198.23,173.05h.09a3.25,3.25,0,0,1,2.66-1.63,2.11,2.11,0,0,1,2.08,2.25v5.71h-1.35v-5.54a1,1,0,0,0-1-1.19,3,3,0,0,0-2.35,1.69v5H197V171.6h1.35Z" transform="translate(-58.22 -51.56)"/><path class="e" d="M210.58,177.93h-.09a2.67,2.67,0,0,1-2.48,1.63c-2.12,0-2.89-1.91-2.89-3.85s.93-4.29,3.13-4.29a2.59,2.59,0,0,1,2.24,1.06h.09l-.09-1.06v-3.36h1.35v11.32h-1.35Zm-.09-4.47a2.71,2.71,0,0,0-2-1c-1.52,0-1.92,1.76-1.92,3.07s.27,2.78,1.71,2.78a3.06,3.06,0,0,0,2.23-1.3Z" transform="translate(-58.22 -51.56)"/><path class="e" d="M219,168.76h2.86c1.46,0,2.82.78,2.82,2.32a3,3,0,0,1-2,2.76v0a3,3,0,0,1,2.44,2.88,2.59,2.59,0,0,1-2.6,2.63H219Zm1.35,4.69h.56c1.28,0,2.43-.58,2.43-2s-1.21-1.59-2.18-1.59h-.81Zm0,4.8a9.93,9.93,0,0,0,1.27.08c1.79,0,2-1,2-1.71,0-1.91-2.19-2.32-3.31-2.29Z" transform="translate(-58.22 -51.56)"/><path class="e" d="M227.89,175.71c0,1.63.87,2.79,2.5,2.79a4.59,4.59,0,0,0,2.11-.51v1.13a7.57,7.57,0,0,1-2.49.44c-3,0-3.55-2.79-3.55-4.07,0-2,1.07-4.07,3.2-4.07,2.34,0,2.91,2.28,2.84,4.29Zm3.18-1c0-1.06-.28-2.26-1.5-2.26s-1.58,1.22-1.64,2.26Z" transform="translate(-58.22 -51.56)"/><path class="e" d="M236.12,173.05h.09a2.65,2.65,0,0,1,2.35-1.63H239v1.35a1.78,1.78,0,0,0-.6-.12,2.55,2.55,0,0,0-2.16,1.61v5.12h-1.35V171.6h1.35Z" transform="translate(-58.22 -51.56)"/><path class="e" d="M240.6,168.06H242v11.32H240.6Z" transform="translate(-58.22 -51.56)"/><path class="e" d="M244.65,168.76H246v1.41h-1.35Zm0,2.84H246v7.78h-1.35Z" transform="translate(-58.22 -51.56)"/><path class="e" d="M249.93,173.05H250a3.25,3.25,0,0,1,2.67-1.63,2.11,2.11,0,0,1,2.07,2.25v5.71H253.4v-5.54a1,1,0,0,0-1-1.19,3,3,0,0,0-2.36,1.69v5h-1.35V171.6H250Z" transform="translate(-58.22 -51.56)"/></svg>