<?xml version="1.0" encoding="utf-8"?>
<!-- Generator: Adobe Illustrator 26.0.1, SVG Export Plug-In . SVG Version: 6.00 Build 0)  -->
<svg version="1.1" id="Ebene_1" xmlns="http://www.w3.org/2000/svg" xmlns:xlink="http://www.w3.org/1999/xlink" x="0px" y="0px"
	 viewBox="0 0 127.6 39.7" style="enable-background:new 0 0 127.6 39.7;" xml:space="preserve">
<style type="text/css">
	.st0{fill:#1EA0DB;}
	.st1{fill:#020203;}
</style>
<path class="st0" d="M34.4,19.1C33.2,7.4,24,4.9,19.5,4.9c-8.1,0-14.8,6.6-14.8,14.9c0,4.7,2.5,11.3,10.3,14.1v5.3
	C0.4,34.6-0.3,22.3-0.3,19.7c0-11,9-19.8,19.8-19.8c7.1,0,13.7,3.8,17.2,9.9c2.3,3.9,2.5,7.2,2.7,9.3L34.4,19.1L34.4,19.1L34.4,19.1
	z"/>
<g>
	<polygon class="st1" points="22.4,13.5 22.4,19.1 16.8,19.1 16.8,13.5 22.4,13.5 	"/>
	<polygon class="st1" points="16.8,39.1 16.8,21 22.4,21 22.4,39.1 16.8,39.1 	"/>
	<polygon class="st1" points="29.4,21 29.4,28.5 34.4,21 39.4,21 34.8,27.6 40.1,38.4 40.1,21 45.3,21 45.3,28.5 50.3,21 55.3,21 
		50.7,27.6 56.4,39.1 50.3,39.1 47.2,32.3 45.3,35 45.3,39.1 34.4,39.1 31.3,32.3 29.4,35 29.4,39.1 24.2,39.1 24.2,21 29.4,21 	"/>
	<path class="st1" d="M68.4,29.8c-0.6-2-1.9-3.2-4-3.2c-3.2,0-4.6,2.9-4.6,5.8c0,2.8,1.3,5.7,4.6,5.7c2.3,0,3.8-1.4,4.2-3.6h1.7
		c-0.6,3-2.4,5.1-5.8,5.1c-4.3,0-6.2-3.1-6.2-7.1c0-3.8,2.2-7.2,6.2-7.2c3.1,0,5.2,1.5,5.6,4.6H68.4z"/>
	<path class="st1" d="M71.8,39.1V21h1.6v18.1H71.8z"/>
	<path class="st1" d="M81.8,31.2c0.6-0.1,1.5-0.2,2.1-0.4c0.5-0.2,0.6-0.9,0.6-1.4c0-1.6-0.9-2.8-3.4-2.8c-2.2,0-3.7,0.7-4,3.1h-1.6
		c0.2-3.2,2.6-4.5,5.6-4.5c2.8,0,4.9,1.1,4.9,4.2v7.4c0,1.2,0.3,1.5,1.7,1.1V39c-0.2,0.1-0.8,0.3-1.2,0.3c-0.3,0-0.5,0-0.7-0.1
		c-1.1-0.2-1.2-1.1-1.3-2c-1.3,1.5-3.1,2.2-5.1,2.2c-2.4,0-4.5-1.3-4.5-3.9c0-2.3,1.6-3.7,4.7-4.1L81.8,31.2z M84.4,32
		c-1.3,0.6-2.7,0.7-4.1,0.8c-2.4,0.2-3.8,1.1-3.8,2.9c0,1.7,1.4,2.4,2.9,2.4c2.5,0,4.9-1.2,4.9-4V32z"/>
	<path class="st1" d="M89.7,34.8c0.5,2.3,1.7,3.2,4.1,3.2c2.3,0,3.3-1.2,3.3-2.5c0-3.9-8.7-1.2-8.7-6.5c0-2.2,1.8-3.9,4.8-3.9
		c2.9,0,4.8,1.2,5.2,4.3h-1.6c-0.3-2.1-1.7-2.9-3.7-2.9c-2,0-3.1,0.9-3.1,2.3c0,3.7,8.7,1.4,8.7,6.6c0,2.6-2.3,3.9-5.5,3.9
		s-5-2-5.2-4.6L89.7,34.8L89.7,34.8z"/>
	<path class="st1" d="M101.5,34.8c0.5,2.3,1.7,3.2,4.1,3.2c2.3,0,3.3-1.2,3.3-2.5c0-3.9-8.7-1.2-8.7-6.5c0-2.2,1.8-3.9,4.8-3.9
		c2.9,0,4.8,1.2,5.2,4.3h-1.6c-0.3-2.1-1.7-2.9-3.7-2.9c-2,0-3.1,0.9-3.1,2.3c0,3.7,8.7,1.4,8.7,6.6c0,2.6-2.3,3.9-5.5,3.9
		c-3.2,0-5-2-5.2-4.6L101.5,34.8L101.5,34.8z"/>
	<rect x="112.1" y="21" class="st1" width="1.6" height="2.3"/>
	<rect x="112.1" y="25.5" class="st1" width="1.6" height="13.6"/>
	<path class="st1" d="M125.5,29.8c-0.6-2-1.9-3.2-4-3.2c-3.2,0-4.6,2.9-4.6,5.8c0,2.8,1.3,5.7,4.6,5.7c2.3,0,3.8-1.4,4.2-3.6h1.7
		c-0.6,3-2.4,5.1-5.8,5.1c-4.3,0-6.2-3.1-6.2-7.1c0-3.8,2.2-7.2,6.2-7.2c3.1,0,5.2,1.5,5.6,4.6H125.5z"/>
</g>
</svg>
