<?xml version="1.0" encoding="utf-8"?>
<!-- Generator: Adobe Illustrator 26.5.2, SVG Export Plug-In . SVG Version: 6.00 Build 0)  -->
<svg version="1.1" id="Ebene_1" xmlns="http://www.w3.org/2000/svg" xmlns:xlink="http://www.w3.org/1999/xlink" x="0px" y="0px"
	 viewBox="0 0 841.9 595.3" style="enable-background:new 0 0 841.9 595.3;" xml:space="preserve">
<style type="text/css">
	.st0{fill:#082E79;}
	.st1{fill:#FFFFFF;}
</style>
<g>
	<path class="st0" d="M1.7,68.3h840.5v299.9c-32.6,0-65.1,0-98,0c-273.2,0-527.9,31.8-742.4,86.7L1.7,68.3L1.7,68.3z"/>
	<path class="st1" d="M242.2,209.2l62.3,80.6c7.4,8.9,2.8,17.2-7.2,17.2h-35.6c-6.7,0-13.8-0.8-21.5-10.9L184,221.8v71.4
		c0,7.6-6.2,13.8-13.8,13.8h-32.4c-7.6,0-13.8-6.2-13.8-13.8v-150c0-7.6,6.2-13.8,13.8-13.8h32.4c7.6,0,13.8,6.2,13.8,13.8v58.2
		l54.2-64c5.7-6.8,10.8-8,17.2-8h33.9c9.9,0,14.2,8.8,7,17.1L242.2,209.2L242.2,209.2z"/>
	<path class="st1" d="M463.6,129.4h33.9c9.9,0,14.2,8.8,7,17.1l-54.1,62.7l62.3,80.6c7.4,8.9,2.8,17.2-7.2,17.2h-35.6
		c-6.7,0-13.8-0.8-21.5-10.9l-56.2-74.4v71.4c0,7.6-6.2,13.8-13.8,13.8H346c-7.6,0-13.8-6.2-13.8-13.8v-150
		c0-7.6,6.2-13.8,13.8-13.8h32.4c7.6,0,13.8,6.2,13.8,13.8v58.2l54.2-64C452.2,130.6,457.2,129.4,463.6,129.4L463.6,129.4
		L463.6,129.4z"/>
	<path class="st1" d="M554,129.4h32.4c7.6,0,13.8,6.2,13.8,13.8v47.4h59.6v-47.4c0-7.6,6.2-13.8,13.8-13.8h32.4
		c7.6,0,13.8,6.2,13.8,13.8v150c0,7.6-6.2,13.8-13.8,13.8h-32.4c-7.6,0-13.8-6.2-13.8-13.8v-57h-59.6v57c0,7.6-6.2,13.8-13.8,13.8
		H554c-7.6,0-13.8-6.2-13.8-13.8v-150C540.2,135.6,546.4,129.4,554,129.4L554,129.4L554,129.4z"/>
</g>
</svg>
