<?xml version="1.0" encoding="utf-8"?>
<!-- Generator: Adobe Illustrator 25.4.1, SVG Export Plug-In . SVG Version: 6.00 Build 0)  -->
<svg version="1.1" id="Ebene_1" xmlns="http://www.w3.org/2000/svg" xmlns:xlink="http://www.w3.org/1999/xlink" x="0px" y="0px"
	 viewBox="0 0 302.1 79.37" style="enable-background:new 0 0 302.1 79.37;" xml:space="preserve">
<style type="text/css">
	.st0{fill:#AE130F;}
	.st1{fill:#FFFFFF;}
</style>
<polygon class="st0" points="0,0 0,70.87 70.58,70.87 70.58,79.37 302.1,79.37 302.1,0 "/>
<g>
	<path class="st1" d="M77.43,43.1h3.42v-7.57l7.17,7.57h4.69l-8.15-8.39l7.42-7.02h-4.36l-6.76,6.55v-6.55h-3.42V43.1L77.43,43.1z
		 M94.16,43.1h3.23V31.41l7.36,11.68h4.94v-15.4h-3.25v11.85l-7.49-11.85h-4.79V43.1L94.16,43.1z M111.45,43.1h3.68l1.75-3.79h8.41
		l1.73,3.79h3.89l-7.51-15.4h-4.24L111.45,43.1L111.45,43.1z M118.13,36.72l3.15-6.35l2.85,6.35H118.13L118.13,36.72z M132.69,43.1
		h3.42v-6.44h3.94c2.05,0,3.57-0.09,4.75-0.9c1.05-0.73,1.6-1.93,1.6-3.55c0-1.75-0.66-3.06-1.86-3.77
		c-1.15-0.68-2.63-0.75-4.58-0.75h-7.27V43.1L132.69,43.1z M136.12,34.28v-4.19h3.15c2.48,0,3.7,0.15,3.7,2.1
		c0,1.99-1.24,2.1-3.7,2.1H136.12L136.12,34.28z M149.08,43.1h3.42v-6.44h3.94c2.05,0,3.57-0.09,4.75-0.9
		c1.05-0.73,1.6-1.93,1.6-3.55c0-1.75-0.66-3.06-1.86-3.77c-1.15-0.68-2.63-0.75-4.58-0.75h-7.27V43.1L149.08,43.1z M152.51,34.28
		v-4.19h3.15c2.48,0,3.7,0.15,3.7,2.1c0,1.99-1.24,2.1-3.7,2.1H152.51L152.51,34.28z M164.49,38.3c0,0.04,0,0.11,0,0.15
		c0,3.1,2.5,4.9,7.17,4.9c4.75,0,7.34-1.84,7.34-4.99c0-2.59-1.82-3.62-5.58-4.28c-3.59-0.64-5.35-0.71-5.35-2.16
		c0-1.37,1.26-2.1,3.74-2.1c2.05,0,3.34,0.86,3.42,2.05h3.14c-0.06-2.82-2.35-4.45-6.61-4.45c-4.49,0-6.91,1.75-6.91,4.51
		c0,3.02,2.08,3.94,6.46,4.73c2.78,0.49,4.36,0.51,4.36,2.05c0,1.31-1.37,2.16-3.89,2.16c-2.65,0-4.09-0.94-4.11-2.59H164.49
		L164.49,38.3z M193.16,32.27h3.42c-0.13-3.08-2.42-4.81-6.63-4.81c-5.67,0-8.88,2.91-8.88,7.94c0,5.01,3.12,7.96,8.43,7.96
		c4.69,0,7.27-1.9,7.27-4.99c0-0.06,0-0.13,0-0.21h-3.49c0,0.04,0,0.09,0,0.13c0,1.63-1.28,2.63-3.53,2.63
		c-3.29,0-5.16-1.99-5.16-5.54c0-3.36,1.95-5.41,4.96-5.41C191.83,29.96,193.07,30.82,193.16,32.27L193.16,32.27z M203.15,43.1
		v-6.74h8.22v6.74h3.47v-15.4h-3.47v6.18h-8.22v-6.18h-3.47v15.4H203.15L203.15,43.1z M216.63,43.1h3.68l1.75-3.79h8.41l1.73,3.79
		h3.89l-7.51-15.4h-4.24L216.63,43.1L216.63,43.1z M223.3,36.72l3.15-6.35l2.85,6.35H223.3L223.3,36.72z M237.87,43.1h3.38v-6.85
		h8.17v-2.42h-8.17v-3.81h8.9v-2.33h-12.28V43.1L237.87,43.1z M260.61,30.26h6.05v-2.57h-15.55v2.57h6.03V43.1h3.47V30.26
		L260.61,30.26z"/>
	<path class="st1" d="M45.18,35.43c0-4.4,3.57-7.97,7.97-7.97s7.97,3.57,7.97,7.97c0,4.4-3.57,7.97-7.97,7.97
		S45.18,39.84,45.18,35.43L45.18,35.43z M70.67,38.11c-1.29,8.52-8.64,15.04-17.52,15.04c-2.87,0-5.58-0.68-7.97-1.89v-8.14
		c2.01,2.09,4.84,3.39,7.97,3.39c2.02,0,3.91-0.54,5.54-1.48L70.67,38.11L70.67,38.11z M46.71,18.92c2-0.78,4.17-1.21,6.44-1.21
		c9.45,0,17.17,7.39,17.69,16.71l-7.04,4.07c0.28-0.97,0.43-2,0.43-3.06c0-4.1-2.22-7.68-5.53-9.59L46.71,18.92L46.71,18.92z
		 M35.43,35.43c0-6.2,3.18-11.65,8-14.82l7.05,4.07c-4.83,1.19-8.4,5.55-8.4,10.75v13.83C38.03,46.02,35.43,41.03,35.43,35.43
		L35.43,35.43z"/>
</g>
<path class="st1" d="M218.36,62.74c-0.96-0.67-1.3-2.1-1.26-3.79c-1.28,1.68-2.61,2.88-3.61,2.88c-1.08,0-2.05-1.07-1.38-3.03
	c0.98-2.84,3.08-3.98,4.03-3.98c0.68,0,1.14,0.45,1.41,0.9c0.55-2.33,1.51-4.61,2.41-5.79c0.63-0.83,1.53-0.53,1.32,0.58
	c-0.28,1.49-1.16,3.57-2.28,5.53c-0.63,3.09-0.46,5.48,0.12,6.48C219.32,62.83,218.97,63.17,218.36,62.74 M216.88,57.19
	c-0.08-0.59-0.29-0.88-0.74-0.88c-1.16,0-2.35,2.34-2.5,3.14c-0.15,0.79,0.15,1.02,0.71,0.65
	C215.22,59.52,216.12,58.42,216.88,57.19 M111.01,56.68c0.88-0.04,1.82-0.41,2.79-0.73c1.17-3.02,2.76-6.15,4.31-8.16
	c0.32-0.41,0.86-0.61,1.46-0.1c0.84,0.7,0.38,1.2,0.2,1.09c-0.25-0.14-0.43-0.08-0.54,0.06c-1.1,1.35-2.47,3.81-3.64,6.68
	c0.1-0.01,0.2-0.02,0.3-0.02c0.98-0.05,1.6,0.42,1.72,1.03c0.05,0.25-0.16,0.32-0.34,0.31c-0.75-0.04-1.53,0.11-2.32,0.32
	c-0.84,2.35-1.49,4.88-1.72,7.23c-0.07,0.7-1.27,0.39-1.29-1.09c-0.02-1.29,0.45-3.34,1.22-5.6c-0.19,0.06-0.38,0.11-0.57,0.16
	c-1.18,0.32-1.88-0.53-1.96-0.71C110.51,56.86,110.69,56.69,111.01,56.68 M121.15,52.28c0.82-0.13,0.87,0.33,0.66,0.89
	c-0.35,0.91-0.78,0.84-1.17,0.31C120.24,52.95,120.23,52.42,121.15,52.28 M123.26,52.76c0.65,0.13,0.84,0.57,0.74,1.2
	c-0.08,0.5-1.02,0.39-1.22,0.11C122.28,53.39,122.59,52.62,123.26,52.76 M119.39,55.05c0.71,0.3,0.88,0.71,0.57,1.53
	c-0.39,1.01-1.08,2.27-1.14,3.23c-0.03,0.43,0.19,0.58,0.5,0.42c1-0.52,2.5-2.33,3.29-4.41c0.15-0.38,0.53-0.45,0.91-0.23
	c0.41,0.24,0.74,0.6,0.51,1.23c-0.23,0.62-0.83,1.83-0.92,3.01c-0.02,0.3,0.11,0.48,0.45,0.38c0.26-0.07,0.68-0.35,0.81-0.5
	c0.23-0.25,0.5,0.2,0.28,0.89c-0.14,0.42-0.81,1.2-1.39,1.2c-0.92,0-1.65-1.06-1.64-1.95c-0.89,1.25-1.78,1.89-2.54,1.89
	c-0.91,0-2-1.16-1.76-2.57c0.24-1.44,1.27-3.39,1.36-3.73C118.78,55.14,118.75,54.78,119.39,55.05 M126.87,55.36
	c0.36,0.13,0.63,0.37,0.75,0.85c0.54-0.54,1.47-1.12,2.19-1.12c0.58,0,0.88,0.39,0.96,0.65c0.06,0.19,0,0.37-0.28,0.39
	c-1.88,0.11-3.59,3.55-3.76,5.59c-0.02,0.28-0.41,0.58-0.97-0.12c-0.56-0.7-0.38-1.51-0.13-2.33c0.25-0.82,1.03-2.71,0.72-3.59
	C126.23,55.31,126.59,55.25,126.87,55.36 M136.7,54.46c0.5,0.29,0.72,0.62,0.38,1.3c-0.43,0.88-0.91,2.46-0.97,3.29
	c-0.02,0.33,0.13,0.42,0.42,0.15c0.67-0.65,1.92-2.34,2.66-3.64c0.25-0.44,0.66-0.58,1.12-0.31c0.45,0.27,0.62,0.57,0.36,1.25
	c-0.32,0.82-0.65,1.97-0.71,2.55c-0.03,0.31,0.07,0.45,0.35,0.23c0.47-0.38,1.88-1.78,2.8-2.61c0.74-0.66,1.9,0.22,1.85,1.27
	c-0.09,1.74,0.02,4.65,1.15,5.72c0.33,0.31-0.13,0.72-0.86,0.45c-1.24-0.45-1.96-2.19-2-5.19c0-0.36-0.15-0.46-0.43-0.2
	c-0.67,0.6-2.55,2.6-2.91,2.88c-0.76,0.61-1.42-0.15-1.54-0.85c-0.1-0.59-0.07-1.13,0.07-1.81c-0.32,0.66-1.24,1.84-1.66,2.21
	c-0.72,0.64-1.59,0.45-2.06-0.61c-0.59-1.32,0.35-4.19,1.07-5.95C135.91,54.27,136.22,54.19,136.7,54.46 M148.14,58.64
	c0.79-0.51,1.87-1.36,1.99-2.33c0.06-0.52-0.32-0.71-0.74-0.42C148.59,56.45,148.16,57.63,148.14,58.64 M154.59,55.24
	c0.43,0.29,0.72,0.7,0.5,1.22c-0.67,1.52-1.26,4.77-0.34,5.64c0.27,0.26-0.24,0.6-0.79,0.32c-0.9-0.46-1.18-1.59-1.1-2.93
	c-0.92,1.18-2.27,2.4-3.75,2.4c-1.69,0-3.34-1.68-2.35-4.62c0.54-1.63,1.96-2.71,3.07-2.71c1.33,0,1.91,1.25,1.43,2.51
	c-0.51,1.34-1.79,2.21-2.91,2.76c0.18,0.37,0.46,0.6,0.86,0.6c1.62,0,3.72-2.65,4.52-4.83C153.96,55.02,154.19,54.96,154.59,55.24
	 M155.46,51.72c0.78-0.06,1.14,0.61,0.94,1.12c-0.2,0.51-0.96,0.81-1.39,0.07C154.68,52.34,154.85,51.77,155.46,51.72 M157.87,55.49
	c0.26,0.06,0.9,0.32,0.78,0.91c-0.12,0.64-0.27,1.29-0.54,2.34c0.96-1.08,2.27-2.2,2.73-2.45c0.74-0.4,1.89,0.41,1.69,1.67
	c-0.16,1.02-0.33,2.34-0.32,2.75c0.02,0.8,0.41,0.83,0.7,0.69c0.29-0.15,0.58,0.05,0.22,0.54c-0.78,1.05-2.36,0.87-2.5-0.65
	c-0.08-0.85,0.3-2.62,0.32-3.02c0.01-0.32-0.1-0.38-0.35-0.21c-0.72,0.51-2.45,2.32-3.17,3.45c-0.35,0.53-1.69-0.04-1.4-0.85
	c0.29-0.81,1.07-3.98,1.17-4.86C157.23,55.44,157.6,55.43,157.87,55.49 M166.12,59.01c1.12-0.31,1.88-1.24,2.09-2.31
	c0.15-0.73-0.45-1.07-0.96-0.5C166.48,57.06,166.21,58.1,166.12,59.01 M164.83,57.76c0.48-1.62,1.33-2.39,1.94-2.77
	c1.16-0.72,3.02-0.15,2.82,1.72c-0.18,1.71-1.62,3.14-3.42,3.53c0.14,0.58,0.49,0.89,1.02,0.93c0.65,0.05,1.22-0.35,1.57-0.75
	c0.24-0.27,0.72,0.31,0.4,0.91c-0.33,0.6-1.23,1.17-2.31,1.17c-1.19,0-2-0.88-2.22-2.19c-0.22-0.03-0.44-0.07-0.66-0.13
	c-0.62-0.17-0.77-1.61-0.04-1.34c0.23,0.09,0.45,0.15,0.67,0.2C164.61,58.63,164.69,58.2,164.83,57.76 M182.15,48.64
	c1.41-0.06,2.34,0.99,2.14,2.32c-0.13,0.86-1.18,1.2-1.1,0.41c0.04-0.43-0.22-1.37-1.19-1.34c-2.03,0.07-5.3,4.15-5.82,7.88
	c-0.3,2.18,0.1,3.14,1.17,3.1c1.69-0.06,3.2-2.25,3.6-3.83c-0.41-0.06-0.96-0.04-1.65,0.06c-0.91,0.13-0.76-0.91,0.3-1.33
	c0.81-0.32,2.48-0.18,2.68-0.15c0.4,0.06,0.52,0.26,0.45,0.66c-0.23,1.4-1.74,5.67-1.53,7.33c0.1,0.81-1.18,0.59-1.4-0.17
	c-0.19-0.65-0.06-1.67,0.08-2.5c-0.62,0.66-1.56,1.42-2.87,1.47c-1.97,0.07-3.07-1.8-2.42-5C175.52,52.98,179.13,48.77,182.15,48.64
	 M229.82,58.64c0.91-0.51,2.1-1.37,2.23-2.42c0.06-0.52-0.28-0.71-0.69-0.42C230.57,56.35,230,57.56,229.82,58.64 M236.29,56.05
	c0.44,0.23,0.66,0.54,0.45,1.3c-0.27,0.99-0.55,2.37-0.44,3.36c0.05,0.46,0.45,0.58,0.96,0.09c0.41-0.39,0.63,0.05,0.52,0.6
	c-0.08,0.41-0.52,1.09-1.38,1.09c-0.84,0-1.57-0.52-1.76-1.79c-0.04-0.29-0.03-0.71,0.02-1.2c-0.96,1.15-2.56,2.57-4.06,2.57
	c-2,0-3.34-1.65-2.03-4.84c0.43-1.04,1.34-2.26,2.66-2.75c1.57-0.58,2.65,0.67,2.03,2.37c-0.49,1.32-2.09,2.55-3.41,3.15
	c0.13,0.42,0.4,0.69,0.84,0.69c1.62,0,3.87-2.54,4.64-4.3C235.6,55.78,235.83,55.81,236.29,56.05 M236.72,52.43
	c0.35-0.32,1.21-0.56,1.31,0.16c0.12,0.75-0.54,1.34-1.04,1.3C236.54,53.85,235.83,53.24,236.72,52.43 M249.66,49.79
	c0.38,0.32,0.54,0.53,0.26,1.16c-1.18,2.66-2.66,5.67-2.8,7.73c-0.03,0.44-0.59,0.49-0.93,0.19c-1.38-1.23,1.92-7.3,2.54-8.96
	C248.85,49.59,249.23,49.43,249.66,49.79 M238.15,55.56c0.59,0,1.18-0.09,1.78-0.22c0.67-2.23,1.47-4.3,1.73-5
	c0.12-0.32,0.49-0.37,0.93-0.13c0.43,0.24,0.51,0.49,0.26,1.14c-0.45,1.16-0.89,2.41-1.26,3.65c0.42-0.08,0.84-0.13,1.28-0.16
	c0.98-0.05,1.49,0.33,1.61,0.95c0.05,0.25-0.16,0.32-0.33,0.31c-1.03-0.06-1.97,0.1-2.97,0.32c-0.69,2.59-1.03,4.87-0.55,5.63
	c0.24,0.38-0.41,0.75-1.09,0.35c-1-0.61-0.68-3.07-0.01-5.63c-0.97,0.1-1.42-0.49-1.5-0.66C237.9,55.83,237.83,55.56,238.15,55.56
	 M246.83,61.1c0.35,0.37,0.38,0.99,0.29,1.32c-0.12,0.45-0.43,0.62-0.83,0.57c-0.72-0.1-0.68-1.03-0.54-1.45
	C245.99,60.79,246.46,60.71,246.83,61.1 M185.48,58.63c0.99-0.34,2.12-1.01,2.43-1.9c0.23-0.65-0.21-0.86-0.7-0.59
	C186.19,56.71,185.69,57.74,185.48,58.63 M183.86,58.31c0.61-1.91,2.19-3.09,3.09-3.35c1.43-0.42,2.87,0.21,2.32,2.02
	c-0.41,1.36-2.43,2.45-3.91,2.87c0.1,0.58,0.5,0.94,1.1,0.94c1.12,0,2.18-1.05,2.88-1.81c0.42-0.45,0.79,0.49,0.46,1.09
	c-0.49,0.88-2.16,2.14-3.76,2.14C184.43,62.21,183.03,60.9,183.86,58.31 M195.9,54.07c0.39,0.8-0.38,1.39-0.62,1.05
	c-0.22-0.31-0.67-0.66-1.32-0.62c-0.65,0.05-1.17,0.45-1.29,1.34c-0.22,1.64,1.85,3.6,1.52,5.72c-0.16,1.03-1.03,2.14-2.44,2.24
	c-1.4,0.1-2.34-0.87-2.4-1.66c-0.06-0.74,0.54-1.31,0.84-0.55c0.17,0.43,0.67,0.82,1.24,0.78c0.58-0.04,1.11-0.41,1.17-1.24
	c0.12-1.52-1.57-2.99-1.47-5.09c0.07-1.58,1.28-2.78,2.75-2.88C194.73,53.1,195.62,53.51,195.9,54.07 M224.88,49.1
	c0.43,0.19,0.92,0.56,0.59,1.1c-1.31,2.19-2.65,6.39-2.98,8.6c0.94-1.13,2.37-2.52,2.86-2.85c0.76-0.51,1.66-0.07,1.4,0.97
	c-0.64,2.52-0.73,4.07-0.6,4.97c0.11,0.78,0.62,0.76,0.94,0.64c0.33-0.11,0.63,0.31,0.22,0.79c-0.67,0.8-2.17,0.75-2.58-0.77
	c-0.46-1.71-0.03-3.65,0.02-4.02c0.02-0.18-0.09-0.22-0.24-0.06c-1.08,1.17-1.74,2.05-2.37,3.11c-0.28,0.47-0.68,0.42-1.19-0.09
	c-0.5-0.5-0.28-1.4-0.17-2.35c0.32-2.88,2.43-8.24,3.34-9.74C224.33,49.08,224.52,48.95,224.88,49.1 M206.45,55.02
	c0.47,0.26,0.62,0.68,0.47,1.29c-0.09,0.39-0.41,1.57-0.78,2.65c0.85-1.2,2.02-2.59,2.51-2.91c0.76-0.51,2.06,0.64,1.79,1.85
	c-0.33,1.47-0.58,3.79,0.59,3.67c0.45-0.04,0.23,0.49-0.04,0.69c-0.83,0.63-1.92,0.06-2.18-0.86c-0.28-0.96-0.22-2.09,0.05-3.47
	c0.04-0.18-0.07-0.24-0.23-0.09c-1.07,1.03-2.29,3.01-2.92,4.07c-0.28,0.47-0.66,0.44-1.09,0.08c-0.5-0.42-0.6-0.81-0.45-1.55
	c-0.69,0.83-1.58,1.57-2.53,1.57c-0.92,0-1.66-0.97-1.62-2.23c-0.89,1.25-2.13,1.93-2.89,1.93c-0.91,0-1.81-0.97-1.52-2.49
	c0.24-1.27,0.96-3.05,1.36-3.74c0.21-0.36,0.44-0.45,0.84-0.25c0.68,0.34,0.83,0.61,0.43,1.39c-0.22,0.43-1.01,2.04-1.07,3
	c-0.03,0.43,0.21,0.48,0.54,0.36c0.99-0.33,2.56-2.2,3.32-4.42c0.17-0.5,0.51-0.41,0.91-0.23c0.49,0.23,0.72,0.56,0.49,1.19
	c-0.23,0.62-0.97,1.83-0.9,3.18c0.03,0.67,0.42,0.89,1.02,0.59c0.88-0.45,1.96-1.92,2.44-2.76c0.25-0.87,0.46-1.69,0.49-2.08
	C205.52,54.83,205.85,54.68,206.45,55.02"/>
</svg>
