<?xml version="1.0" encoding="UTF-8"?>
<!DOCTYPE svg PUBLIC "-//W3C//DTD SVG 1.1//EN" "http://www.w3.org/Graphics/SVG/1.1/DTD/svg11.dtd">
<!-- Creator: CorelDRAW X5 -->
<svg xmlns="http://www.w3.org/2000/svg" xml:space="preserve" width="4066px" height="814px" style="shape-rendering:geometricPrecision; text-rendering:geometricPrecision; image-rendering:optimizeQuality; fill-rule:evenodd; clip-rule:evenodd"
viewBox="0 0 4451 892"
 xmlns:xlink="http://www.w3.org/1999/xlink">
 <defs>
  <style type="text/css">
   <![CDATA[
    .fil0 {fill:#243C71;fill-rule:nonzero}
    .fil1 {fill:#939494;fill-rule:nonzero}
    .fil2 {fill:#FFD624;fill-rule:nonzero}
   ]]>
  </style>
 </defs>
 <g id="Ebene_x0020_1">
  <metadata id="CorelCorpID_0Corel-Layer"/>
  <g id="_314421400">
   <path class="fil0" d="M1535 756l65 0 0 78c-18,11 -42,16 -65,16 -63,0 -109,-49 -109,-112 0,-63 47,-112 109,-112 29,0 56,10 75,27l25 -26c-26,-24 -61,-37 -100,-37 -82,0 -147,64 -147,148 0,84 65,148 147,148 38,0 75,-12 102,-33l0 -133 -102 0 0 36zm1570 126l166 0 0 -36 -129 0 0 -91 109 0 0 -36 -109 0 0 -91 129 0 0 -36 -166 0 0 289zm-800 -36l-68 0 0 -91 68 0c39,0 57,17 57,44 0,28 -19,47 -57,47zm-68 -217l58 0c30,0 49,19 49,44 0,26 -18,47 -49,47l-58 0 0 -91zm114 101c19,-13 30,-31 30,-61 0,-41 -33,-77 -88,-77l-92 0 0 289 100 0c59,0 99,-29 99,-81 0,-39 -21,-59 -49,-70zm1058 -8l0 -96 46 0c38,0 57,18 57,48 0,30 -19,48 -57,48l-46 0zm73 30c42,-8 68,-38 68,-79 0,-49 -36,-81 -92,-81l-85 0 0 289 37 0 0 -126 32 0 96 126 45 0 -99 -129zm-510 20c0,50 -32,76 -78,76 -46,0 -78,-26 -78,-76l0 -181 -37 0 0 179c0,71 48,113 115,113 67,0 115,-42 115,-113l0 -179 -37 0 0 181zm-431 -2l49 -103 49 103 -97 0zm-91 110l40 0 36 -76 130 0 36 76 40 0 -140 -292 -140 292zm-1189 0l37 0 0 -289 -37 0 0 289zm-145 -83l-205 -209 0 292 37 0 0 -205 205 209 0 -292 -37 0 0 205zm-473 83l166 0 0 -36 -129 0 0 -91 109 0 0 -36 -109 0 0 -91 129 0 0 -36 -166 0 0 289zm-236 -32c-63,0 -109,-49 -109,-112 0,-63 47,-112 109,-112 63,0 109,49 109,112 0,63 -47,112 -109,112zm0 -260c-82,0 -147,64 -147,148 0,84 65,148 147,148 82,0 147,-64 147,-148 0,-84 -65,-148 -147,-148zm-194 3l-45 0 -131 141 0 -141 -37 0 0 289 37 0 0 -141 138 141 49 0 -144 -144 133 -144zm1761 206c0,32 -28,59 -62,59 -34,0 -62,-26 -62,-59 0,-32 28,-62 61,-62 2,0 13,0 13,0 0,0 0,-30 0,-33 -7,0 -17,0 -27,-5 -17,-6 -29,-23 -29,-41 0,-23 20,-42 45,-42 25,0 45,19 45,42l0 1 34 0 0 -1c0,-41 -35,-75 -79,-75l0 0c-42,0 -78,33 -79,73l0 4c1,20 10,39 25,53 1,1 4,3 4,3 2,1 3,2 3,2 0,0 -6,3 -7,4 -27,17 -43,46 -43,77 0,51 43,92 96,92 53,0 96,-41 96,-92l0 -48 34 0 0 -32 -68 0 0 80z"/>
   <path class="fil1" d="M3685 480c-2,6 -7,9 -13,12 -13,3 -29,1 -42,1l0 -43c16,1 43,-5 53,11 3,5 3,12 2,18zm-55 -93c0,0 7,0 15,0 16,0 31,1 35,12 3,6 2,15 -3,21 -12,12 -30,6 -48,7l0 -40zm98 75c-7,-13 -21,-22 -35,-23l0 -1c5,-2 11,-4 16,-7 12,-9 19,-22 16,-37 -3,-14 -15,-27 -29,-31 -28,-7 -75,-4 -114,-4l0 165 81 0c24,1 46,-3 61,-22 7,-13 10,-26 4,-40z"/>
   <polygon class="fil2" points="4152,295 4451,1 4451,296 4153,591 4153,296 3860,296 3561,0 3854,0 "/>
   <path class="fil1" d="M3804 357l0 76c0,0 39,-51 57,-76l54 0 -60 75 64 91 -58 0c0,0 -55,-87 -56,-87 0,31 0,86 0,86l-49 0 0 -166 50 0z"/>
   <path class="fil1" d="M3983 357l0 77 59 -77 55 0 -62 76c20,31 63,90 63,90l-58 0c0,0 -55,-86 -56,-86l0 85 -48 0 0 -166 48 0z"/>
   <polygon class="fil2" points="3859,882 4154,882 4154,591 3859,591 "/>
  </g>
 </g>
</svg>
