<?xml version="1.0" encoding="utf-8"?>
<!-- Generator: Adobe Illustrator 26.0.2, SVG Export Plug-In . SVG Version: 6.00 Build 0)  -->
<svg version="1.1" id="Ebene_1" xmlns="http://www.w3.org/2000/svg" xmlns:xlink="http://www.w3.org/1999/xlink" x="0px" y="0px"
	 viewBox="0 0 345 99.8" style="enable-background:new 0 0 345 99.8;" xml:space="preserve">
<style type="text/css">
	.st0{fill:#009FE3;}
</style>
<g>
	<path d="M141.3,88.1c2.9,0.9,6,1.6,9,1.6c9.4,0,11.8-6.5,11.8-9.9c0-10.5-16.3-11-16.3-18.1c0-1.9,1.8-4.9,6-4.9
		c2.9,0,5.5,1.2,8.2,2.2v-4.3c-2.6-1-5.3-1.4-8.1-1.4c-8.1,0-10.4,6.2-10.4,9.2c0,9.8,16,9.7,16,18.1c0,3.6-3.1,5.6-6.5,5.6
		c-3.6,0-6.6-1.3-9.7-2.8V88.1L141.3,88.1z M173,58.7h4v-4h-4V58.7L173,58.7z M182.2,58.7h4v-4h-4V58.7L182.2,58.7z M190,88.8V63.3
		h-4.6v16.5c-1.8,2.8-4.5,5.5-8.1,5.5c-2.1,0-3.6-1.4-3.6-3.9V63.3h-4.6V82c0,3.8,2.6,7.3,7.1,7.3c3.8,0,7-2.3,9.1-5.3h0.3l-0.3,4.8
		h0H190L190,88.8z M215.5,81.1c-1.9,2.3-4.6,4.2-7.6,4.2c-4.9,0-5.9-5.2-5.9-9.1c0-4.3,1.3-10,6.6-10c3,0,4.7,1.2,6.9,3.2V81.1
		L215.5,81.1z M215.5,88.8h4.6v-37h-4.6v11l0.3,3.5h-0.3c-2-2.5-4.5-3.5-7.7-3.5c-7.5,0-10.7,7.5-10.7,14c0,6.3,2.6,12.6,9.9,12.6
		c3.8,0,6.8-2,8.5-5.3h0.3L215.5,88.8L215.5,88.8z M234.6,88.8h4.7l5.7-19.1h0.1l5.3,19.1h4.6l8.1-25.4h-3.6l-6.4,19.9H253
		l-5.5-19.9h-4.1l-6,19.5h-0.1l-6.1-19.5h-4.5L234.6,88.8L234.6,88.8z M288.3,76.8c0.2-6.6-1.7-14-9.7-14c-7.3,0-10.9,6.7-10.9,13.3
		c0,4.2,1.7,13.3,12.1,13.3c3.3,0,6-0.6,8.5-1.4v-3.7c-2.4,1.1-4.7,1.7-7.2,1.7c-5.6,0-8.4-3.8-8.5-9.1H288.3L288.3,76.8z
		 M272.7,73.6c0.2-3.4,1.7-7.4,5.6-7.4c4.2,0,5.2,3.9,5.1,7.4H272.7L272.7,73.6z M295.5,87.9c2.3,0.7,5.1,1.4,7.5,1.4
		c4.8,0,9.6-2.4,9.6-7.7c0-8.2-12.6-7.4-12.6-12.1c0-2.4,2.5-3.3,4.5-3.3c2.1,0,4.2,0.5,6.2,1.2v-3.8c-2.5-0.4-4.2-0.8-6.2-0.8
		c-5.2,0-8.8,2.3-8.8,7.1c0,8.5,12.3,6.9,12.3,12.3c0,2.5-2.5,3.7-4.7,3.7c-2.5,0-5.5-1.1-7.8-2.3V87.9L295.5,87.9z M325.7,63.3
		v-5.1l-4.6,0.5v4.7h-3.2v3.5h3.2v15.3c0,2.5,1.4,7.2,7.5,7.2c1.2,0,2.4-0.2,3.6-0.6v-3.2c-0.8,0.2-1.5,0.3-2.3,0.3
		c-3.8,0-4.3-2.3-4.3-5.6V66.8h6.1v-3.5H325.7L325.7,63.3z"/>
	<polygon points="46.6,38.1 57.8,38.1 57.8,49.3 46.6,49.3 46.6,38.1 	"/>
	<polygon points="46.6,53.3 57.8,53.3 57.8,89.8 46.6,89.8 46.6,53.3 	"/>
	<path class="st0" d="M12,50.5C12,28.1,30.1,10,52.5,10c22,0,39.8,17.5,40.4,39.3H82.8c-0.6-16.2-14-29.1-30.3-29.1
		c-16.7,0-30.3,13.6-30.3,30.3c0,13.3,8.6,24.7,20.6,28.7v10.6C25.1,85.4,12,69.4,12,50.5L12,50.5L12,50.5z"/>
	<polygon points="61.8,53.3 72.4,53.3 72.4,68.7 82.8,53.3 92.9,53.3 83.6,66.9 94.4,88.2 94.4,53.3 104.9,53.3 104.9,68.7 
		115.3,53.3 125.5,53.3 116.1,66.9 127.8,89.8 115.1,89.8 108.7,76.2 104.9,81.5 104.9,89.8 95.2,89.8 94.4,89.8 82.6,89.8 
		76.2,76.2 72.4,81.5 72.4,89.8 61.8,89.8 61.8,53.3 	"/>
</g>
</svg>
