<?xml version="1.0" encoding="utf-8"?>
<!-- Generator: Adobe Illustrator 26.0.1, SVG Export Plug-In . SVG Version: 6.00 Build 0)  -->
<svg version="1.1" id="Ebene_1" xmlns="http://www.w3.org/2000/svg" xmlns:xlink="http://www.w3.org/1999/xlink" x="0px" y="0px"
	 viewBox="0 0 708.29 211.29" style="enable-background:new 0 0 708.29 211.29;" xml:space="preserve">
<style type="text/css">
	.st0{fill:#FFD500;}
	.st1{fill:#014694;}
	.st2{fill:#878787;}
	.st3{clip-path:url(#SVGID_00000106868628224251124700000006162830779699969716_);fill:#FFD500;}
</style>
<g>
	<path class="st0" d="M194.21,161.02"/>
	<path class="st1" d="M447.29,132.68h50.62v-13.4h-33.5V95.4h30.44v-13.4H464.4V61.04h33.26v-13.4h-50.37V132.68L447.29,132.68z
		 M529.2,132.68h22.13l15.16-67.98h0.24l15.4,67.98h22.01l22.25-85.04h-16.63l-16.02,67.98h-0.24l-15.04-67.98h-23.23l-14.55,67.98
		h-0.24l-15.89-67.98h-17.97L529.2,132.68L529.2,132.68z M637.53,132.68h50.62v-13.4h-33.5V95.4h30.44v-13.4h-30.44V61.04h33.25
		v-13.4h-50.37V132.68L637.53,132.68z"/>
	<path class="st2" d="M209.29,94.67h8.07c8.56,0,17.61,1.71,17.61,12.79c0,9.87-9.66,11.82-17.61,11.82h-8.07V94.67L209.29,94.67z
		 M209.29,61.04h6.6c7.83,0,16.51,0.73,16.51,10.6c0,8.77-8.93,10.36-16.14,10.36h-6.97V61.04L209.29,61.04z M192.17,132.68h29.85
		c10.76,0,30.09-3.17,30.09-24.61c0-10.48-7.95-18.27-19.57-19.37v-0.24c10.15-1.83,17-8.89,17-19.01
		c0-18.64-16.51-21.81-27.52-21.81h-29.85V132.68L192.17,132.68z M266.9,132.68h17.12V93.2h0.24l30.7,39.47h22.38l-36.57-44.96
		l35.11-40.08h-21.04l-30.82,36.55V47.64H266.9V132.68L266.9,132.68z M348.48,132.68h17.12V93.2h0.25l30.7,39.47h22.38l-36.57-44.96
		l35.1-40.08h-21.04l-30.82,36.55V47.64h-17.12V132.68L348.48,132.68z"/>
	<path class="st2" d="M199.76,179.08l3.56-12.16h0.07l3.26,12.16H199.76L199.76,179.08z M209.47,189h4.89l-8.34-26.03h-5.19
		L192.17,189h4.74l1.85-6.27h8.89L209.47,189L209.47,189z M217.4,189h4.59v-11.19c0-2.46,0.85-4.51,3.26-4.51
		c1.89,0,2.63,1.23,2.63,4.18V189h4.59v-12.38c0-3.88-1.3-7.12-5.63-7.12c-3.11,0-4.41,2.09-5.07,3.24h0.04h-0.11
		c0-0.97-0.11-1.98-0.15-2.95h-4.3c0.11,0.86,0.15,1.98,0.15,3.17V189L217.4,189z M247.36,189h4.74v-26.03h-4.74V189L247.36,189z
		 M257.69,189h4.59v-11.19c0-2.46,0.85-4.51,3.26-4.51c1.89,0,2.63,1.23,2.63,4.18V189h4.59v-12.38c0-3.88-1.3-7.12-5.63-7.12
		c-2.85,0-3.93,1.57-4.74,2.76h-0.11v-11.23h-4.59V189L257.69,189z M277.81,189h4.59v-10.52c0-3.58,2.07-4.74,3.96-4.74
		c0.48,0,0.89,0.07,1.3,0.19v-4.33c-0.26-0.04-0.48-0.11-0.78-0.11c-2.85,0-4.3,2.31-4.85,3.8h-0.07c0-1.16-0.11-2.35-0.15-3.51
		h-4.15c0.11,0.86,0.15,1.98,0.15,3.17V189L277.81,189z M304.85,184.41c-0.85,0.63-2.19,1.49-5,1.49c-3.56,0-4.85-1.98-4.85-5.26
		h11.04v-0.9c0-7.83-3.52-10.26-7.63-10.26c-4.85,0-7.85,4.44-7.85,10.18c0,5.18,2.67,9.62,8.82,9.62c2.74,0,4.74-0.82,5.71-1.23
		L304.85,184.41L304.85,184.41z M295,177.73c0-2.54,1-5.11,3.41-5.11c2.08,0,3.19,1.72,3.19,5.11H295L295,177.73z M310.48,189h4.59
		v-10.52c0-3.58,2.08-4.74,3.96-4.74c0.48,0,0.89,0.07,1.3,0.19v-4.33c-0.26-0.04-0.48-0.11-0.78-0.11c-2.85,0-4.3,2.31-4.85,3.8
		h-0.07c0-1.16-0.11-2.35-0.15-3.51h-4.15c0.11,0.86,0.15,1.98,0.15,3.17V189L310.48,189z M333.48,188.21
		c1.3,0.78,3.3,1.16,5.89,1.16c4.93,0,8.67-2.54,8.67-7.83c0-3.66-1.44-5.3-4.48-7.01l-2.78-1.57c-1.45-0.82-2.74-1.57-2.74-3.51
		c0-1.79,1.22-3.06,3.59-3.06c2.19,0,3.71,0.67,4.85,1.12l0.22-3.99c-0.74-0.22-2.67-0.93-5.41-0.93c-4.33,0-8.15,2.42-8.15,7.09
		c0,3.36,1.67,5.41,4.22,6.83l2.41,1.34c2.3,1.27,3.37,2.09,3.37,3.95c0,2.61-1.85,3.77-3.93,3.77c-2.52,0-4.56-1.01-5.48-1.6
		L333.48,188.21L333.48,188.21z M366.45,184.41c-0.85,0.63-2.18,1.49-5,1.49c-3.56,0-4.85-1.98-4.85-5.26h11.04v-0.9
		c0-7.83-3.52-10.26-7.63-10.26c-4.85,0-7.85,4.44-7.85,10.18c0,5.18,2.67,9.62,8.82,9.62c2.74,0,4.74-0.82,5.71-1.23L366.45,184.41
		L366.45,184.41z M356.6,177.73c0-2.54,1-5.11,3.41-5.11c2.08,0,3.19,1.72,3.19,5.11H356.6L356.6,177.73z M372.38,189h4.59v-19.21
		h-4.59V189L372.38,189z M372.3,166.17h4.74v-4.55h-4.74V166.17L372.3,166.17z M384.01,169.79h-3.04v3.39h3.04v10.52
		c0,4.03,1.93,5.6,5.34,5.6c1.37,0,2.37-0.3,3.07-0.63v-3.28c-0.33,0.19-0.93,0.41-1.74,0.41c-1.33,0-2.07-0.6-2.07-2.65v-9.96h3.82
		v-3.39h-3.82v-5.37l-4.59,1.42V169.79L384.01,169.79z M409.87,184.41c-0.85,0.63-2.19,1.49-5,1.49c-3.56,0-4.85-1.98-4.85-5.26
		h11.04v-0.9c0-7.83-3.52-10.26-7.63-10.26c-4.85,0-7.85,4.44-7.85,10.18c0,5.18,2.67,9.62,8.82,9.62c2.74,0,4.74-0.82,5.7-1.23
		L409.87,184.41L409.87,184.41z M400.01,177.73c0-2.54,1-5.11,3.41-5.11c2.07,0,3.19,1.72,3.19,5.11H400.01L400.01,177.73z
		 M414.49,189h4.45v-4.85h-4.45V189L414.49,189z"/>
	<path class="st0" d="M149.56,161.02"/>
	<g>
		<defs>
			<rect id="SVGID_1_" x="22" y="19.29" width="666.14" height="170.08"/>
		</defs>
		<clipPath id="SVGID_00000018955016810939500940000001243211224758264507_">
			<use xlink:href="#SVGID_1_"  style="overflow:visible;"/>
		</clipPath>
		<path style="clip-path:url(#SVGID_00000018955016810939500940000001243211224758264507_);fill:#FFD500;" d="M149.56,161.02"/>
		<path style="clip-path:url(#SVGID_00000018955016810939500940000001243211224758264507_);fill:#FFD500;" d="M163.73,97.24
			c0,43.05-34.95,77.95-78.07,77.95c-10.87,0-21.21-2.22-30.61-6.23c6.17,1.64,12.65,2.53,19.34,2.53
			c41.42,0,75.16-32.9,75.16-74.25c0-41.36-33.75-75.51-75.16-75.51c-3.77,0-7.48,0.29-11.11,0.82c7.09-2.12,14.6-3.27,22.38-3.27
			C128.78,19.29,163.73,54.19,163.73,97.24L163.73,97.24z"/>
		<path style="clip-path:url(#SVGID_00000018955016810939500940000001243211224758264507_);fill:#FFD500;" d="M107.04,90.16
			c0,23.48-19.04,42.52-42.52,42.52S22,113.64,22,90.16c0-23.48,19.04-42.52,42.52-42.52S107.04,66.67,107.04,90.16L107.04,90.16z
			 M92.96,90.16c0-15.71-12.74-28.44-28.44-28.44c-15.71,0-28.44,12.73-28.44,28.44c0,15.71,12.74,28.44,28.44,28.44
			C80.23,118.6,92.96,105.87,92.96,90.16L92.96,90.16z"/>
		<path style="clip-path:url(#SVGID_00000018955016810939500940000001243211224758264507_);fill:#FFD500;" d="M135.39,97.21
			c0-31.48-23.83-57.38-54.42-60.63c23.36,7,40.39,28.67,40.39,54.34c0,31.33-25.37,56.72-56.68,56.72
			c-17.03,0-32.29-7.53-42.68-19.43c10.61,17.94,30.12,29.98,52.46,29.98C108.11,158.19,135.39,130.89,135.39,97.21L135.39,97.21z"
			/>
	</g>
</g>
</svg>
