<svg id="Continentale_BKK" data-name="Continentale BKK" xmlns="http://www.w3.org/2000/svg" viewBox="0 0 438.42 301.27"><defs><style>.cls-1{fill:#002c5b;}</style></defs><rect class="cls-1" x="166.08" y="190.91" width="14.59" height="9.57"/><path class="cls-1" d="M391.32,315.55c-8.85,0-11.95-3.46-11.95-13.31V280.9H374V269h5.39V254.75H394V269h6.29V280.9H394V298c0,4.93.91,5.39,4.38,5.39.46,0,1,0,1.91,0v12.24Z" transform="translate(-64.26 -63.84)"/><path class="cls-1" d="M217.3,315.55c-8.85,0-12-3.46-12-13.31V280.88H200V269h5.39V254.75h14.59V269h6.29v11.85h-6.29V298c0,4.93.91,5.39,4.38,5.39.45,0,1,0,1.91,0v12.24Z" transform="translate(-64.26 -63.84)"/><rect class="cls-1" x="166.11" y="205.2" width="14.59" height="46.53"/><path class="cls-1" d="M356.54,315.55V287.92c0-5.3-1-7-3.92-7-3.38,0-4.65,2.47-4.65,9.4v25.26H333.38V269H348v5.76c2.74-4.28,4.76-6.11,9.77-6.11,9.49,0,13.41,4.93,13.41,17.15v29.73Z" transform="translate(-64.26 -63.84)"/><rect class="cls-1" x="380.32" y="190.91" width="14.59" height="60.81"/><path class="cls-1" d="M182.52,315.55V287.92c0-5.3-1-7-3.92-7-3.38,0-4.65,2.47-4.65,9.4v25.26H159.36V269h14.57v5.76c2.74-4.28,4.76-6.11,9.77-6.11,9.49,0,13.41,4.93,13.41,17.15v29.73Z" transform="translate(-64.26 -63.84)"/><path class="cls-1" d="M89.61,315.55c-15.78,0-25.35-12-25.35-31.91s9.48-31.93,25.08-31.93c14.31,0,23.25,9.49,23.71,25.54H96.72c-.45-7.66-2.82-11.31-7.29-11.31-5.57,0-8.76,6.48-8.76,17.6s3.29,17.7,8.85,17.7c4.38,0,6.84-3.74,7.2-11h16.33c-.55,15.78-9.4,25.35-23.44,25.35" transform="translate(-64.26 -63.84)"/><path class="cls-1" d="M141.75,292.11c0-7.38-1.92-11.21-5.66-11.21s-5.56,3.83-5.56,11.21,1.91,11.22,5.56,11.22,5.66-3.83,5.66-11.22m14.59,0c0,14.23-7.94,23.44-20.25,23.44s-20.15-9.21-20.15-23.44,7.84-23.43,20.15-23.43,20.25,9.21,20.25,23.43" transform="translate(-64.26 -63.84)"/><path class="cls-1" d="M425.8,296.57a18.8,18.8,0,0,0-.09-2c-6.48,1.18-9.4,3.28-9.4,6.66a3.78,3.78,0,0,0,4.11,3.92c3.74,0,5.38-2.55,5.38-8.57m16.08,19H428.29a20.17,20.17,0,0,1-1-4.1c-2.56,2.83-5,4.1-9.37,4.1-8.57,0-14.68-5.83-14.68-13.95,0-7.48,4.56-11.76,14.5-13.77,6.66-1.28,8.09-2.55,8.09-5.38a3.3,3.3,0,0,0-3.56-3.37c-2.92,0-4.29,2-4.29,6v.82h-13.4V285c0-10.39,6.29-16.33,18.24-16.33,12.67,0,17.6,5.21,17.6,17.34v15.87c0,6.93.36,10.94,1.46,13.67" transform="translate(-64.26 -63.84)"/><path class="cls-1" d="M488,287c0-5-2.22-7.91-5.55-7.91s-5.56,2.8-5.56,7.91Zm14.7,9.61H476.84c0,6.23,2.41,8.55,5.57,8.55,3.8,0,5-1.56,5.58-4h14.18c-2.39,9.76-9.58,14.42-19.6,14.42-13,0-20.42-9-20.42-23.44,0-14.23,8-23.44,20.31-23.44,13.78,0,20,8.67,20.21,27.92" transform="translate(-64.26 -63.84)"/><path class="cls-1" d="M366.94,173.11c-6.52,39.74-41.28,70-83.05,70-46.42,0-84-37.46-84-83.68s37.63-83.67,84-83.67c12.29,0,29.24,4.79,34.48,7.34s25.94,13.53,25.94,13.53V65.08H332.53V76.75a97.47,97.47,0,0,0-48.64-12.91c-53,0-96,42.78-96,95.55s43,95.56,96,95.56a96,96,0,0,0,95-81.84Z" transform="translate(-64.26 -63.84)"/><path class="cls-1" d="M308.37,98.43A65.71,65.71,0,1,0,283.89,225a65.94,65.94,0,0,0,64.47-51.86l12.08,0a77.82,77.82,0,0,1-154.33-13.8c0-42.76,34.82-77.43,77.78-77.43,8.3,0,13.5,1.14,19.74,2.51,12.47,2.75,30.95,14.12,46.25,22.56,0-.07,0-41.95,0-41.95h11.79v63s-40.21-24.44-53.3-29.68" transform="translate(-64.26 -63.84)"/><path class="cls-1" d="M301.72,115.08c-3.07-1.41-11.53-3.41-17.83-3.41a47.73,47.73,0,1,0,46,61.44h12a59.55,59.55,0,1,1-58-73.05A58.86,58.86,0,0,1,305,103.9c10.61,4.44,62.24,34.21,62.24,34.21v-73H379v94.54s-62.13-37.57-77.3-44.54" transform="translate(-64.26 -63.84)"/><path class="cls-1" d="M272.26,315.6V288c0-5.29-1-7-3.92-7-3.37,0-4.65,2.46-4.65,9.39V315.6H249.1V269.07h14.57v5.76c2.74-4.29,4.76-6.11,9.78-6.11,9.48,0,13.41,4.92,13.41,17.14V315.6Z" transform="translate(-64.26 -63.84)"/><path class="cls-1" d="M315.68,287c0-5-2.22-7.91-5.55-7.91s-5.56,2.8-5.56,7.91Zm14.7,9.61H304.55c0,6.23,2.41,8.55,5.57,8.55,3.8,0,5-1.56,5.58-4h14.18c-2.39,9.76-9.59,14.42-19.6,14.42-13,0-20.42-9-20.42-23.44,0-14.23,8-23.44,20.31-23.44,13.78,0,20,8.67,20.21,27.92" transform="translate(-64.26 -63.84)"/><path class="cls-1" d="M483.78,342.84a4.44,4.44,0,0,1,3.73,1.68,4.57,4.57,0,0,1,1,2.88h-10c.59-3,2.34-4.56,5.23-4.56m3.38,19.36a7.51,7.51,0,0,1-6.92-3.9,12.91,12.91,0,0,1-1.69-6.62v-1.42h14V349.1a9.71,9.71,0,0,0-2.09-6.53,8,8,0,0,0-6.36-2.58,8.47,8.47,0,0,0-7.15,3.17q-2.31,3-2.31,8.58,0,6.57,3.1,10t8.7,3.37a18.86,18.86,0,0,0,5.56-.72v-2.85a21.94,21.94,0,0,1-4.8.66m-27.54-14a2.68,2.68,0,0,1-1.49-2.22,2.61,2.61,0,0,1,1.36-2.21,6.24,6.24,0,0,1,3.54-.92,16.21,16.21,0,0,1,5.64,1.11v-3.18A28.23,28.23,0,0,0,463,340a9.78,9.78,0,0,0-6.16,1.69,5.61,5.61,0,0,0-2.15,4.66,5.48,5.48,0,0,0,1.89,4.26,19.49,19.49,0,0,0,3.61,2.24l2.19,1.16q2.36,1.26,2.73,1.53a3.46,3.46,0,0,1,1.64,2.8c0,2.59-2,3.87-5.89,3.87a21,21,0,0,1-6.27-1.23v3.13a22,22,0,0,0,6.62,1q9,0,9-7.27a5.75,5.75,0,0,0-1.92-4.43,32.7,32.7,0,0,0-3.76-2.44l-2-1.21-2.88-1.57m-19.86,0a2.7,2.7,0,0,1-1.49-2.22,2.61,2.61,0,0,1,1.36-2.21,6.29,6.29,0,0,1,3.54-.92,16.3,16.3,0,0,1,5.65,1.11v-3.18a28.4,28.4,0,0,0-5.7-.78,9.78,9.78,0,0,0-6.16,1.69,5.61,5.61,0,0,0-2.15,4.66,5.48,5.48,0,0,0,1.89,4.26,19.49,19.49,0,0,0,3.61,2.24L442.5,354c1.57.84,2.49,1.35,2.73,1.53a3.47,3.47,0,0,1,1.65,2.8c0,2.59-2,3.87-5.9,3.87a21,21,0,0,1-6.27-1.23v3.13a22,22,0,0,0,6.62,1q9,0,9-7.27a5.77,5.77,0,0,0-1.91-4.43,33.72,33.72,0,0,0-3.76-2.44l-2.05-1.21-2.88-1.57m-15,10.28a5.89,5.89,0,0,1-2.39,2.73,6,6,0,0,1-3.27,1,3.26,3.26,0,0,1-3.42-3.48c0-1.79,1-3.14,3-4.05a11.82,11.82,0,0,1,4.94-1h2a11.89,11.89,0,0,1-.92,4.81m4.38,6.08V347.7q0-7.71-8.13-7.71-4.55,0-6.82,2.21a6,6,0,0,0-1.89,4.49h3.85q.52-3.85,5-3.85c2.53,0,4,1.12,4.48,3.34a36.79,36.79,0,0,1,.15,4.57,14.45,14.45,0,0,1-2.41.15,16.58,16.58,0,0,0-7.41,1.63q-4.25,2.07-4.24,5.85a6.77,6.77,0,0,0,1.76,5,6.41,6.41,0,0,0,4.76,1.77,9.14,9.14,0,0,0,5.15-1.45,6.48,6.48,0,0,0,2.29-2.29h.1v3.18Zm-34.26,0V351.74h.1l9.43,12.81h4.28l-9.78-13.38,8.71-10.64h-4.23l-8.41,10.15h-.1V329.74h-3.46v34.81Zm-24.95,0v-9.88a16,16,0,0,1,1.72-7.27c1.35-2.66,3.07-4,5.18-4a3,3,0,0,1,3.11,2.36,21.51,21.51,0,0,1,.45,5.45v13.33h3.45V347.4a8.29,8.29,0,0,0-1.57-5.22,5.55,5.55,0,0,0-4.65-2.19q-5.52,0-7.59,6.08h-.1v-5.54h-3.45v24Zm-18-21.71a4.44,4.44,0,0,1,3.73,1.68,4.56,4.56,0,0,1,1,2.88h-10c.59-3,2.34-4.56,5.23-4.56m3.38,19.36a7.51,7.51,0,0,1-6.92-3.9,12.81,12.81,0,0,1-1.69-6.62v-1.42h14V349.1a9.71,9.71,0,0,0-2.09-6.53,8,8,0,0,0-6.36-2.58,8.49,8.49,0,0,0-7.16,3.17q-2.31,3-2.31,8.58,0,6.57,3.11,10t8.7,3.37a18.86,18.86,0,0,0,5.56-.72v-2.85a21.94,21.94,0,0,1-4.8.66m-28.38,2.35V351.74h.1l9.43,12.81h4.28l-9.78-13.38,8.71-10.64H335.4L327,350.68h-.1V329.74h-3.46v34.81Zm-24.95,0v-9.88a15.85,15.85,0,0,1,1.72-7.27c1.34-2.66,3.07-4,5.17-4a3,3,0,0,1,3.11,2.36,21.51,21.51,0,0,1,.45,5.45v13.33h3.46V347.4a8.29,8.29,0,0,0-1.57-5.22,5.56,5.56,0,0,0-4.65-2.19q-5.52,0-7.59,6.08h-.1v-5.54h-3.46v24Zm-15.42-6.08a6.46,6.46,0,0,1-5.67,3.73,3.26,3.26,0,0,1-3.41-3.48c0-1.79,1-3.14,3-4.05a11.81,11.81,0,0,1,4.93-1h2.05a11.89,11.89,0,0,1-.92,4.81m4.38,6.08V347.7q0-7.71-8.14-7.71-4.53,0-6.82,2.21a6.05,6.05,0,0,0-1.89,4.49h3.86q.52-3.85,5-3.85c2.53,0,4,1.12,4.48,3.34a36.79,36.79,0,0,1,.15,4.57,14.53,14.53,0,0,1-2.41.15,16.58,16.58,0,0,0-7.41,1.63q-4.25,2.07-4.24,5.85a6.8,6.8,0,0,0,1.75,5,6.41,6.41,0,0,0,4.77,1.77,9.16,9.16,0,0,0,5.15-1.45,6.48,6.48,0,0,0,2.29-2.29h.1v3.18Zm-29.1,0v-9.93q0-5,2-7.91a7.11,7.11,0,0,1,6.17-3V340a8.17,8.17,0,0,0-8.11,5.19h-.1v-4.65h-3.46v24Zm-22.16,0V351.74h.1l9.43,12.81h4.28l-9.78-13.38,8.71-10.64h-4.23l-8.41,10.15h-.1V329.74h-3.46v34.81Zm-19.43-16.36a2.69,2.69,0,0,1-1.5-2.22,2.62,2.62,0,0,1,1.37-2.21,6.27,6.27,0,0,1,3.54-.92,16.3,16.3,0,0,1,5.65,1.11v-3.18a28.4,28.4,0,0,0-5.7-.78,9.76,9.76,0,0,0-6.16,1.69,5.61,5.61,0,0,0-2.15,4.66,5.48,5.48,0,0,0,1.89,4.26,19.66,19.66,0,0,0,3.6,2.24L223,354q2.36,1.26,2.73,1.53a3.46,3.46,0,0,1,1.64,2.8c0,2.59-2,3.87-5.89,3.87a21,21,0,0,1-6.27-1.23v3.13a22,22,0,0,0,6.62,1q9,0,9-7.27a5.75,5.75,0,0,0-1.92-4.43,31.73,31.73,0,0,0-3.76-2.44l-2-1.21-2.88-1.57m-23.51-1.8q1.63-3.56,4.64-3.55c1.84,0,3.24,1.07,4.18,3.2a16.41,16.41,0,0,1,1.18,6.64,14.34,14.34,0,0,1-1.3,6.55,4.91,4.91,0,0,1-4.56,3q-5.53,0-5.54-8.73a16.53,16.53,0,0,1,1.4-7.08m-4.86-16.65v24.93q0,10.44,9.08,10.44a8.57,8.57,0,0,0,7.47-3.57c1.51-2.13,2.26-5.05,2.26-8.74a18.07,18.07,0,0,0-1.84-8.75A7.27,7.27,0,0,0,202,340a6.78,6.78,0,0,0-4.62,1.62,6.38,6.38,0,0,0-1.94,2.91h-.13V329.74Zm-14.25,13.1a4.44,4.44,0,0,1,3.73,1.68,4.57,4.57,0,0,1,1,2.88h-10c.59-3,2.34-4.56,5.23-4.56M181,362.2a7.51,7.51,0,0,1-6.92-3.9,12.81,12.81,0,0,1-1.69-6.62v-1.42h14V349.1a9.71,9.71,0,0,0-2.09-6.53,8,8,0,0,0-6.36-2.58,8.49,8.49,0,0,0-7.16,3.17q-2.31,3-2.31,8.58,0,6.57,3.11,10t8.7,3.37a18.81,18.81,0,0,0,5.56-.72v-2.85a21.94,21.94,0,0,1-4.8.66m-18.4-32.46H158v4.53h4.58ZM162,340.53h-3.46v24H162Zm-16.73,24v-9.93q0-5,2-7.91a7.09,7.09,0,0,1,6.17-3V340a8.17,8.17,0,0,0-8.11,5.19h-.1v-4.65h-3.46v24Zm-11.35-2.35q-4,0-4-4V343.43h6.52v-2.9H130v-7.76l-3.48,2.16v5.6h-4v2.9h4v15.48c0,2.17.52,3.74,1.55,4.73s2.77,1.47,5.19,1.47a19.94,19.94,0,0,0,3.06-.27v-3.08a7.9,7.9,0,0,1-2.36.44m-24.38-19.36a4.44,4.44,0,0,1,3.73,1.68,4.57,4.57,0,0,1,1,2.88h-10q.9-4.56,5.23-4.56m3.38,19.36a7.51,7.51,0,0,1-6.92-3.9,12.81,12.81,0,0,1-1.69-6.62v-1.42h14V349.1a9.71,9.71,0,0,0-2.09-6.53,8,8,0,0,0-6.36-2.58,8.46,8.46,0,0,0-7.15,3.17c-1.55,2-2.31,4.88-2.31,8.58q0,6.57,3.1,10t8.69,3.37a18.84,18.84,0,0,0,5.57-.72v-2.85a21.94,21.94,0,0,1-4.8.66M83.56,348a8.16,8.16,0,0,1,5.37,1.72,6.17,6.17,0,0,1,2.17,5q0,6.54-8,6.55H78.51V348ZM82.5,333q7,0,7,5.55,0,6.19-7.56,6.2H78.51V333Zm1.37,31.54a13.31,13.31,0,0,0,7.75-2q3.43-2.41,3.43-7.42,0-7.33-6.77-9V346q5.16-1.8,5.15-7.71a8,8,0,0,0-2.65-6.4,10.33,10.33,0,0,0-6.91-2.17H74.55v34.81Z" transform="translate(-64.26 -63.84)"/></svg>