<?xml version="1.0" encoding="utf-8"?>
<!-- Generator: Adobe Illustrator 26.0.1, SVG Export Plug-In . SVG Version: 6.00 Build 0)  -->
<svg version="1.1" id="Ebene_1" xmlns="http://www.w3.org/2000/svg" xmlns:xlink="http://www.w3.org/1999/xlink" x="0px" y="0px"
	 viewBox="0 0 289.1 104.9" style="enable-background:new 0 0 289.1 104.9;" xml:space="preserve">
<style type="text/css">
	.st0{fill:#A60D1F;}
	.st1{fill:#FFFFFF;}
	.st2{fill-rule:evenodd;clip-rule:evenodd;fill:#4A4A49;}
</style>
<g>
	<g>
		<rect x="2.9" y="24.7" class="st0" width="148.6" height="56.9"/>
		<path class="st1" d="M45.3,43.2h11.2v3.1h-2.2V59h2.2v3.1H41.9V59h2.2v-8.3l-8.2,11.4l-8.3-11.4V59h2.2v3.1h-8V59h2.2V46.3h-2.2
			v-3.1h12.7l5.4,7.4L45.3,43.2z M70.7,47.9H58.5V51h2.2v8h-2.2v3.1H73V59h-2.2V47.9z M68.9,45.1l-1.4-2.8l-4.6,2.4l1.4,2.8
			L68.9,45.1z M83,53.6h3.1v-2c0-0.6-0.5-1.6-1.6-1.6c-1,0-1.5,0.9-1.5,1.5V53.6z M83,56.1v1.5c0,1.2,1.1,2.3,2.8,2.3
			c2.5,0,3.5-1.9,3.7-2.7c2.7,0,4.8,0,5.6,0c-0.8,2.6-4.2,5.6-10.5,5.6c-8.2,0-10.7-4.4-10.7-7.8c0-3.6,3-7.9,10.7-7.9
			c6.7,0,10.7,3.9,10.7,7.9c0,0.7-0.1,1.1-0.1,1.1L83,56.1z M98.4,59h-2.2v3.1h14.9V59h-2.2V43.2H96.2v3.1h2.2V59z M121.2,53.6h3.1
			v-2c0-0.6-0.5-1.6-1.6-1.6c-1,0-1.5,0.9-1.5,1.5V53.6z M121.2,56.1v1.5c0,1.2,1.1,2.3,2.8,2.3c2.5,0,3.5-1.9,3.7-2.7
			c2.7,0,4.8,0,5.6,0c-0.8,2.6-4.2,5.6-10.5,5.6c-8.2,0-10.7-4.4-10.7-7.8c0-3.6,3-7.9,10.7-7.9c6.7,0,10.7,3.9,10.7,7.9
			c0,0.7-0.1,1.1-0.1,1.1L121.2,56.1z"/>
	</g>
	<g>
		<g>
			<path class="st2" d="M200.2,48c-0.5-1.2-2.1-1.3-4-1.3c-1,0-1.7,0-1.7,0v4.5c2-0.1,4,0.5,5.4-0.9C200.5,49.7,200.5,48.7,200.2,48
				L200.2,48L200.2,48z M200.5,55c-1.1-1.8-4.1-1.2-6-1.3v4.8c1.5-0.1,3.3,0.1,4.7-0.2c0.6-0.3,1.2-0.7,1.4-1.4
				C200.9,56.4,200.9,55.5,200.5,55L200.5,55L200.5,55z M201.9,43.7c1.5,0.5,2.9,1.9,3.2,3.5c0.4,1.7-0.4,3.2-1.8,4.1
				c-0.6,0.3-1.2,0.6-1.8,0.8v0.1c1.6,0.1,3.1,1.1,3.9,2.6c0.7,1.6,0.4,3.1-0.4,4.5c-1.6,2.1-4.2,2.6-6.8,2.4h-9.1l0-18.6
				C193.5,43.3,198.8,42.9,201.9,43.7L201.9,43.7L201.9,43.7z"/>
			<path class="st2" d="M214,43.4l0,8.6c0,0,4.3-5.8,6.3-8.6h6l-6.7,8.5l7.1,10.2h-6.5c0,0-6.2-9.8-6.3-9.8c0,3.5,0,9.7,0,9.7h-5.5
				l0-18.7H214L214,43.4z"/>
			<path class="st2" d="M234,43.3v8.7l6.6-8.7h6.1l-6.9,8.6c2.2,3.5,7,10.2,7,10.2h-6.5c0,0-6.2-9.7-6.3-9.7V62h-5.4V43.3H234
				L234,43.3z"/>
		</g>
		<g>
			<polygon class="st2" points="252.9,36.2 286.3,2.9 286.4,36.3 253.1,69.6 253.1,36.3 220.3,36.3 186.8,2.8 219.6,2.8 252.9,36.2 
							"/>
			<polygon class="st2" points="253.1,102.5 220.1,102.5 220.1,69.5 253.1,69.5 253.1,102.5 			"/>
		</g>
	</g>
</g>
</svg>
