<svg id="Ebene_1" data-name="Ebene 1" xmlns="http://www.w3.org/2000/svg" xmlns:xlink="http://www.w3.org/1999/xlink" viewBox="0 0 670.63 266.32"><defs><style>.cls-1{fill:none;}.cls-2{fill:#3c3c3b;}.cls-3{fill:#fff;}.cls-4{clip-path:url(#clip-path);}.cls-5{fill:#e20026;}.cls-6{fill:#0c419a;}</style><clipPath id="clip-path" transform="translate(-81.25 -163.88)"><rect class="cls-1" x="81.25" y="163.88" width="798.11" height="297.76"/></clipPath></defs><path class="cls-2" d="M102.53,401.63h-.14V381.7h-10V429h10V407.7h.14L119,429h12.88l-20.58-25.44,19.49-21.81H118.4l-15.87,19.93ZM169.17,409c6.88-1.07,10.49-7.08,10.49-13.1,0-10.09-7-14.22-17.17-14.22H148.93V429h10V409.9h.13L171.55,429h12.13L169.17,409ZM159,389.22h1.36c5.32,0,9.34,1.13,9.34,6.95s-3.89,7.27-9.41,7.27H159V389.22ZM229.61,419l3.95,10h10.7l-19.49-48.51H217L197,429h10.56l4.23-10Zm-2.79-7.52h-12.2l5.65-17.17h.14l6.41,17.17ZM261.64,429h10V396.86h.14l27,33h7.22V381.7h-10v31.77h-.14l-27.05-33h-7.22V429Zm76.18-27.32h-.14V381.7h-10V429h10V407.7h.14L354.24,429h12.88l-20.58-25.44L366,381.7H353.69l-15.87,19.93Zm73-11.91v-8H384.22V429H410.8v-8H394.24V408.14h15.94v-8H394.24v-10.4Zm21,39.23h10V396.86h.14l27.05,33h7.22V381.7h-10v31.77h-.13l-27.05-33h-7.23V429ZM508,401.63h-.13V381.7h-10V429h10V407.7H508L524.39,429h12.88l-20.58-25.44,19.49-21.81H523.84L508,401.63ZM582.71,419l4,10h10.69l-19.48-48.51h-7.77l-20,48.51h10.56l4.22-10Zm-2.79-7.52h-12.2l5.66-17.17h.14l6.4,17.17Zm63.71-25.75c-3.13-3.2-9.47-5.27-14-5.27-8.66,0-15,6.33-15,14.17,0,7.33,4.84,10.4,11.45,12.91,4,1.44,8.93,2.82,8.93,7.7a6.54,6.54,0,0,1-6.61,6.84c-4.29,0-7.91-3.26-9.27-6.9L612.63,421c3.54,5.45,8.72,9.21,15.81,9.21,10.49,0,16.9-6.7,16.9-16.17,0-15.85-20.38-12.53-20.38-20.49,0-3.07,3.07-5.33,6.27-5.33a9.48,9.48,0,0,1,7.7,3.89l4.7-6.39Zm50.15,0c-3.13-3.2-9.47-5.27-14-5.27-8.66,0-15,6.33-15,14.17,0,7.33,4.83,10.4,11.44,12.91,4,1.44,8.93,2.82,8.93,7.7a6.54,6.54,0,0,1-6.61,6.84c-4.29,0-7.9-3.26-9.27-6.9L662.78,421c3.54,5.45,8.72,9.21,15.81,9.21,10.49,0,16.9-6.7,16.9-16.17,0-15.85-20.38-12.53-20.38-20.49,0-3.07,3.07-5.33,6.27-5.33a9.48,9.48,0,0,1,7.7,3.89l4.7-6.39Zm47.84,4v-8H715V429h26.58v-8H725.06V408.14h16v-8h-16v-10.4Z" transform="translate(-81.25 -163.88)"/><polygon class="cls-3" points="130.13 0 103.79 88.11 77.46 0 0 0 0 206.45 57.34 206.45 57.34 130.54 80.09 206.45 127.49 206.45 150.25 130.54 150.25 206.45 207.59 206.45 207.59 0 130.13 0"/><g class="cls-4"><path class="cls-3" d="M539.49,207.5a56.61,56.61,0,0,0-22.65,4.79V164.14h-57V369.53h57V367a56.8,56.8,0,0,0,22.65,4.81,82.16,82.16,0,0,0,0-164.32m0,106.12a24,24,0,1,1,24-24,24,24,0,0,1-24,24" transform="translate(-81.25 -163.88)"/><path class="cls-3" d="M374.22,207.5a82.16,82.16,0,1,0,82.15,82.16,82.16,82.16,0,0,0-82.15-82.16m0,106.12a24,24,0,1,1,24-24,24,24,0,0,1-24,24" transform="translate(-81.25 -163.88)"/></g><rect class="cls-3" x="613.59" y="0.26" width="57.04" height="205.39"/><rect class="cls-3" x="543.99" y="0.26" width="57.05" height="205.39"/><g class="cls-4"><path class="cls-5" d="M374.21,217.78a71.88,71.88,0,1,0,71.88,71.88A71.88,71.88,0,0,0,374.21,217.78Zm0,106.1a34.23,34.23,0,1,1,34.24-34.22A34.22,34.22,0,0,1,374.21,323.88Z" transform="translate(-81.25 -163.88)"/></g><polygon class="cls-6" points="120.66 195.37 160.6 61.24 160.6 195.37 197.12 195.37 197.12 10.53 138.92 10.53 104.13 127.26 69.32 10.53 11.13 10.53 11.13 195.37 47.63 195.37 47.63 61.24 87.58 195.37 120.66 195.37"/><g class="cls-4"><path class="cls-6" d="M539.5,217.78c-12.32,0-23.62,4.95-32.93,13.3V174.42H470.05V359.25h36.52v-10.9c9.31,8.31,20.66,13.19,32.93,13.19a71.88,71.88,0,0,0,0-143.76Zm0,106.1a34.23,34.23,0,1,1,34.24-34.22A34.22,34.22,0,0,1,539.5,323.88Z" transform="translate(-81.25 -163.88)"/></g><rect class="cls-6" x="623.86" y="10.53" width="36.51" height="184.84"/><rect class="cls-6" x="554.27" y="10.53" width="36.5" height="35.38"/><rect class="cls-6" x="554.27" y="59.6" width="36.5" height="135.77"/></svg>