<?xml version="1.0" encoding="utf-8"?>
<!-- Generator: Adobe Illustrator 26.0.1, SVG Export Plug-In . SVG Version: 6.00 Build 0)  -->
<svg version="1.1" id="Novitas_BKK_Logo" xmlns="http://www.w3.org/2000/svg" xmlns:xlink="http://www.w3.org/1999/xlink" x="0px"
	 y="0px" viewBox="0 0 410.5 115" style="enable-background:new 0 0 410.5 115;" xml:space="preserve">
<style type="text/css">
	.st0{fill:#009349;}
	.st1{fill:#C5C6C6;}
	.st2{fill:#FFFFFF;}
</style>
<rect id="Trägerfläche" x="0" y="0.1" class="st0" width="410.5" height="115"/>
<path id="BKK" class="st1" d="M288.6,59.7h-5.1v12.1h5.4c3,0,5-0.2,6.1-0.7c1.1-0.5,1.9-1.2,2.6-2.2c0.6-1,1-2,1-3.2
	c0-1.2-0.3-2.2-1-3.2c-0.7-1-1.7-1.7-2.9-2.2C293.3,59.9,291.3,59.7,288.6,59.7 M288.2,43.3h-4.7v11.5h3.6c2.9,0,5-0.6,6.2-1.7
	c1.2-1.1,1.8-2.6,1.8-4.3C295.2,45.2,292.8,43.3,288.2,43.3 M290.9,76.7H278V38.5h10c3.2,0,5.6,0.4,7.4,1.3c1.8,0.8,3.1,2,4,3.5
	c0.9,1.5,1.4,3.2,1.4,5.2c0,3.8-1.9,6.4-5.8,8.1c2.8,0.5,5,1.7,6.7,3.4c1.6,1.8,2.5,3.9,2.5,6.3c0,2-0.5,3.7-1.5,5.2
	c-1,1.5-2.5,2.8-4.4,3.7C296.3,76.2,293.8,76.7,290.9,76.7 M331.1,38.5h6.8l-16.6,18.1L342,76.7h-7.5L315,57.8v18.9h-5.5V38.5h5.5
	v17.5L331.1,38.5z M367.8,38.5h6.8l-16.6,18.1l20.6,20.1h-7.5l-19.5-18.9v18.9h-5.5V38.5h5.5v17.5L367.8,38.5z"/>
<path id="NOVITAS" class="st2" d="M66.2,38.5h5.2v38.2h-4.7L41.1,47.2v29.4H36V38.5h4.4l25.8,29.7V38.5z M98.5,43.1
	c4.2,0,7.7,1.4,10.5,4.1c2.9,2.8,4.3,6.2,4.3,10.2c0,4.2-1.4,7.6-4.3,10.4c-2.9,2.8-6.4,4.2-10.7,4.2c-4.2,0-7.8-1.4-10.6-4.1
	c-2.8-2.7-4.2-6.2-4.2-10.3c0-4.2,1.4-7.7,4.2-10.5C90.6,44.5,94.1,43.1,98.5,43.1 M98.3,37.9c-5.9,0-10.8,1.9-14.6,5.6
	c-3.9,3.7-5.8,8.5-5.8,14.2c0,5.6,1.9,10.2,5.8,13.9c3.8,3.7,8.6,5.5,14.4,5.5c6,0,11-1.8,15-5.5c4-3.7,5.9-8.4,5.9-14
	c0-5.6-2-10.3-5.9-14.1C109.1,39.8,104.2,37.9,98.3,37.9 M136.2,65.3l-11.5-26.8h-5.5l16.5,38.4h1.2L153,38.5h-5.4L136.2,65.3z
	 M157.3,76.7h5.5V38.5h-5.5V76.7z M168,43.3h13.1v33.4h5.5V43.3h13.3v-4.9H168V43.3z M207.8,60.5l5.7-13.8l6.2,13.8H207.8z
	 M195.2,76.7h5.6l4.8-11.3h16.3l5.1,11.3h5.6l-17.1-38.4h-3.8L195.2,76.7z M246.3,60.7c3.4,2.1,5,4.3,5,6.6c0,1.4-0.6,2.6-1.7,3.6
	c-1.1,1-2.6,1.4-4.3,1.4c-3.9,0-7.3-1.9-10.3-5.6v6.9c3.1,2.3,6.5,3.5,10.3,3.5c3.3,0,5.9-1,8-2.9c2.1-1.9,3.1-4.4,3.1-7.5
	c0-4.3-2.3-7.8-7-10.6l-4.2-2.5c-1.9-1.1-3.2-2.1-4.1-3.1c-0.8-1-1.3-2.1-1.3-3.2c0-1.3,0.6-2.3,1.7-3.2c1.1-0.8,2.6-1.2,4.4-1.2
	c3.2,0,6.1,1.3,8.9,4v-6.2c-2.7-1.8-5.6-2.7-8.8-2.7c-3.3,0-6,0.9-8.1,2.8c-2.1,1.9-3.1,4.3-3.1,7.3c0,2,0.6,3.8,1.7,5.3
	c1.1,1.5,3,3.1,5.6,4.7L246.3,60.7"/>
</svg>
