<svg id="Logo" version="1.1" viewBox="0 0 1024 321.72" xml:space="preserve" xmlns="http://www.w3.org/2000/svg"><style>.st2{fill:#002d73}</style><g stroke-width="1.419"><path d="M123.95.176c-8.993-1.435-16.71 6.132-16.71 15.629v182.92c0 9.447 7.717 17.014 16.71 15.58 51.759-8.255 90.529-52.84 90.529-107.06S175.709 8.434 123.95.175z" fill="#ff876e"/><path d="M0 160.58c0-29.581 24.083-53.337 53.62-53.337 28.401 0 53.62 23.755 53.62 53.548v107.81c0 29.217-25.22 53.124-53.62 53.124-29.536 0-53.62-23.907-53.62-53.337z" fill="#fff500"/><path class="st2" d="M375.49 0c27.982 0 46.373 16.79 46.373 42.976S403.474 86.15 375.49 86.15h-36.379v53.769h-17.39V-.001zm-36.379 70.161h34.78c18.389 0 30.183-10.595 30.183-27.185S392.48 15.99 374.091 15.99h-34.979v54.171zM487.65 37.978V53.97h-8.196c-21.387 0-27.185 17.789-27.185 33.98v51.97h-16.39V37.98h14.192l2.198 15.392c4.798-7.794 12.593-15.392 30.783-15.392zm6.11 50.972c0-30.983 20.788-52.17 50.573-52.17 29.781 0 50.571 21.187 50.571 52.17s-20.788 52.17-50.571 52.17c-29.784 0-50.573-21.188-50.573-52.17zm84.354 0c0-21.787-13.593-37.578-33.781-37.578s-33.781 15.791-33.781 37.578c0 21.787 13.593 37.578 33.781 37.578s33.781-15.791 33.781-37.578zm125.666-5.797v56.767h-16.391V84.151c0-21.187-9.795-32.381-27.583-32.381-19.189 0-30.783 14.19-30.783 37.177v50.971h-16.391V37.978h14.193l2.198 13.795c5.998-7.797 16.39-14.992 33.58-14.992 22.987 0 41.178 12.593 41.178 46.374zm16.34 5.797c0-30.983 20.788-52.17 50.573-52.17 29.781 0 50.571 21.187 50.571 52.17s-20.788 52.17-50.571 52.17c-29.784 0-50.573-21.188-50.573-52.17zm84.354 0c0-21.787-13.593-37.578-33.781-37.578s-33.781 15.791-33.781 37.578c0 21.787 13.593 37.578 33.781 37.578s33.781-15.791 33.781-37.578zm37.356-50.972l30.783 83.353 30.584-83.353h17.189l-38.178 101.94h-19.789l-38.177-101.94zm182.17 0v101.94h-14.193l-2.198-16.391c-6.798 9.395-17.792 17.589-34.979 17.589-28.182 0-48.973-18.988-48.973-52.17 0-31.182 20.791-52.17 48.973-52.17 17.19 0 28.382 7.197 34.98 17.19l2.197-15.992H1024zm-16.191 51.371c0-22.389-13.59-37.98-33.58-37.98-20.188 0-33.783 15.392-33.783 37.578 0 22.186 13.595 37.578 33.783 37.578 19.99.001 33.58-15.391 33.58-37.177zM371.29 181.8c29.784 0 46.374 13.595 46.374 36.181 0 16.391-8.796 27.583-24.985 31.785 17.789 3.394 30.782 12.793 30.782 33.38 0 23.586-17.59 38.577-50.77 38.577H321.72v-139.92zm-32.182 60.769h32.981c17.99 0 28.184-8.397 28.184-22.59 0-13.989-9.995-22.386-28.184-22.386h-32.981zm0 63.36h33.581c21.586 0 32.981-8.996 32.981-23.384 0-15.792-12.194-24.39-32.981-24.39h-33.581zM462.72 181.8v79.358l70.559-79.358h21.187l-51.171 58.97 55.17 80.953h-20.788l-47.174-67.761-27.784 31.382v36.379h-17.39v-139.92zm126.61 0v79.358l70.559-79.358h21.187l-51.171 58.97 55.17 80.953h-20.788l-47.174-67.761-27.782 31.38v36.379h-17.39v-139.92h17.39z"/><circle class="st2" cx="53.62" cy="53.62" r="53.62"/></g></svg>