<?xml version="1.0" encoding="utf-8"?>
<!DOCTYPE svg PUBLIC "-//W3C//DTD SVG 1.1//EN" "http://www.w3.org/Graphics/SVG/1.1/DTD/svg11.dtd">
<svg version="1.1" id="Ebene_1" xmlns="http://www.w3.org/2000/svg" xmlns:xlink="http://www.w3.org/1999/xlink" x="0px" y="0px"
	 width="294.961px" height="143.435px" viewBox="0 0 294.961 143.435" enable-background="new 0 0 294.961 143.435"
	 xml:space="preserve">
<g>
	<rect fill="none" width="294.961" height="143.436"/>
	<g>
		<g>
			<g>
				<path fill="#001957" d="M165.925,47.812h-16.229l-16.001,23.866V47.812h-15.42l-0.004,18.702h-10.955V53.873H96.549
					l-0.002,12.641h-11.03c0.849-1.727,1.328-3.667,1.328-5.72c0-7.167-6.404-12.976-13.569-12.982H47.812v47.812h15.381V60.035
					h3.065c3.229,0,5.846,2.617,5.846,5.846c0,3.226-2.618,5.832-5.842,5.836l9.735,23.906h16.357l-7.668-18.547h11.863v12.645
					h10.767V77.076h10.959v18.547h15.42L165.925,47.812z"/>
			</g>
			<g>
				<polygon fill="#001957" points="140.793,95.623 173.058,47.812 247.149,47.812 247.149,95.623 				"/>
				<g>
					<path fill="#FFFFFF" d="M181.296,83.482c-1.644,0-2.985-0.033-4.025-0.1c-1.041-0.064-1.989-0.152-2.844-0.262V60.445
						c0.197-0.044,0.58-0.093,1.15-0.147c0.568-0.055,1.205-0.109,1.906-0.165c0.701-0.055,1.408-0.098,2.12-0.131
						s1.319-0.049,1.824-0.049c3.11,0,5.378,0.52,6.802,1.561s2.137,2.624,2.137,4.749c0,1.096-0.324,2.054-0.97,2.875
						c-0.646,0.821-1.451,1.386-2.415,1.692c0.613,0.132,1.189,0.367,1.725,0.707c0.537,0.34,1.014,0.756,1.43,1.248
						c0.416,0.494,0.746,1.064,0.987,1.709c0.239,0.646,0.36,1.354,0.36,2.119c0,1.053-0.164,2-0.492,2.844
						c-0.329,0.844-0.883,1.566-1.661,2.168c-0.776,0.604-1.817,1.064-3.12,1.381C184.905,83.322,183.269,83.482,181.296,83.482z
						 M181.46,63.896c-0.438,0-0.826,0.017-1.166,0.049c-0.34,0.033-0.686,0.072-1.035,0.115v5.521h1.939
						c1.533,0,2.617-0.273,3.253-0.821c0.635-0.547,0.952-1.26,0.952-2.137c0-0.438-0.061-0.826-0.18-1.166
						c-0.121-0.34-0.335-0.624-0.642-0.854c-0.307-0.23-0.712-0.406-1.216-0.527C182.862,63.957,182.228,63.896,181.46,63.896z
						 M179.259,73.262v6.178c0.723,0.066,1.785,0.1,3.188,0.1c0.789,0,1.44-0.082,1.955-0.248c0.515-0.164,0.932-0.389,1.248-0.672
						c0.318-0.285,0.537-0.619,0.658-1.002c0.12-0.385,0.181-0.807,0.181-1.266c0-0.438-0.077-0.85-0.229-1.232
						c-0.154-0.383-0.4-0.713-0.74-0.986s-0.789-0.486-1.347-0.641c-0.56-0.154-1.243-0.23-2.054-0.23H179.259z"/>
					<path fill="#FFFFFF" d="M195.427,60.248h4.83v11.93c0.197-0.635,0.526-1.363,0.986-2.186c0.461-0.822,1.041-1.726,1.742-2.711
						l5.062-7.033h5.717l-7.427,9.926c0.395,0.394,0.921,1.018,1.578,1.873c0.656,0.854,1.368,1.861,2.136,3.023
						c0.767,1.16,1.565,2.436,2.399,3.826c0.832,1.393,1.608,2.822,2.332,4.289h-5.618c-0.373-0.766-0.806-1.588-1.299-2.465
						c-0.493-0.875-1.002-1.74-1.528-2.596c-0.525-0.854-1.063-1.67-1.61-2.447c-0.548-0.777-1.063-1.451-1.544-2.021l-0.461,0.592
						c-0.263,0.328-0.535,0.705-0.822,1.133c-0.283,0.428-0.553,0.922-0.804,1.48c-0.253,0.557-0.455,1.193-0.607,1.906
						c-0.154,0.711-0.231,1.527-0.231,2.447v1.971h-4.83V60.248z"/>
					<path fill="#FFFFFF" d="M217.608,60.248h4.831v11.93c0.197-0.635,0.524-1.363,0.985-2.186c0.46-0.822,1.04-1.726,1.743-2.711
						l5.06-7.033h5.719l-7.427,9.926c0.393,0.394,0.919,1.018,1.577,1.873c0.657,0.854,1.368,1.861,2.137,3.023
						c0.765,1.16,1.565,2.436,2.397,3.826c0.832,1.393,1.61,2.822,2.333,4.289h-5.619c-0.372-0.766-0.805-1.588-1.298-2.465
						c-0.492-0.875-1.002-1.74-1.527-2.596c-0.526-0.854-1.063-1.67-1.61-2.447c-0.549-0.777-1.063-1.451-1.545-2.021l-0.46,0.592
						c-0.264,0.328-0.537,0.705-0.822,1.133c-0.284,0.428-0.553,0.922-0.805,1.48c-0.252,0.557-0.455,1.193-0.608,1.906
						c-0.152,0.711-0.229,1.527-0.229,2.447v1.971h-4.831V60.248z"/>
				</g>
			</g>
		</g>
	</g>
</g>
</svg>
