<svg version="1.1" viewBox="0 0 515.8 146.33" xmlns="http://www.w3.org/2000/svg">
  <defs>
    <clipPath id="clipPath82">
      <path d="m1.6562 913.61c0-194.73 285.02-202 285.02-319.76 0-44.356-23.367-74.274-71.2-74.274-77.89 0-80.722 52.559-80.722 115.08h-134.76v-95.535c15.441-58.535 56.457-102.86 145.03-114.37h110.7c89.614 9.723 174.46 48.668 174.46 186.3 0 205.65-285.1 194.8-285.1 318.87 0 45.32 27.226 69.789 73.132 69.789 57.208 0 65.696-49.867 65.696-98.773h137.78c9.375 136.83-59.074 196.59-196.86 196.59-172.6 0-223.2-81.54-223.2-183.91"/>
    </clipPath>
    <linearGradient id="linearGradient88" x2="1" gradientTransform="matrix(-2.94e-5,-672.77,-672.77,2.94e-5,215.1,1097.5)" gradientUnits="userSpaceOnUse">
      <stop stop-color="#00adef" offset="0"/>
      <stop stop-color="#1c63b7" offset="1"/>
    </linearGradient>
    <clipPath id="clipPath98">
      <path d="m1.6562 913.61c0-194.73 285.02-202 285.02-319.76 0-44.356-23.367-74.274-71.2-74.274-77.89 0-80.722 52.559-80.722 115.08h-134.76v-95.535c15.441-58.535 56.457-102.86 145.03-114.37h110.7c89.614 9.723 174.46 48.668 174.46 186.3 0 205.65-285.1 194.8-285.1 318.87 0 45.32 27.226 69.789 73.132 69.789 57.208 0 65.696-49.867 65.696-98.773h137.78c9.375 136.83-59.074 196.59-196.86 196.59-172.6 0-223.2-81.54-223.2-183.91"/>
    </clipPath>
    <clipPath id="clipPath104">
      <path d="m0 1107.3h443.63v-682.52h-443.63z"/>
    </clipPath>
    <linearGradient id="linearGradient110" x2="1" gradientTransform="matrix(-2.98e-5,-682.52,-682.52,2.98e-5,221.82,1107.3)" gradientUnits="userSpaceOnUse">
      <stop stop-color="#00adef" offset="0"/>
      <stop stop-color="#1c63b7" offset="1"/>
    </linearGradient>
    <clipPath id="clipPath120">
      <path d="m569.5 869.22c-30.957-20.813-48.813-56.141-48.813-111.43h129.59c0 36.262 3.723 69.793 49.77 69.793 47.84 0 53.426-28.086 53.426-67.031v-35.364c-122.91 1.828-244.08-4.515-244.08-155.82 0-73.563 28.875-135.61 105.73-144.63h41.426c45.703 5.102 78.035 27.574 102.57 68.586h1.863l5.657-60.73h122.97c-2.824 28.058-6.55 57.078-6.55 85.183v228.23c0 83.367-21.575 153.09-189.62 153.09-50.735 0-93.887-8.132-123.93-29.882m69.48-294.36c0 81.508 48.868 76.098 114.49 78.789 0-49.804 12.199-151.27-65.625-151.27-43.223 0-48.868 39.879-48.868 72.48"/>
    </clipPath>
    <linearGradient id="linearGradient126" x2="1" gradientTransform="matrix(-2.07e-5,-474.36,-474.36,2.07e-5,699.5,899.11)" gradientUnits="userSpaceOnUse">
      <stop stop-color="#00adef" offset="0"/>
      <stop stop-color="#1c63b7" offset="1"/>
    </linearGradient>
    <clipPath id="clipPath136">
      <path d="m569.5 869.22c-30.957-20.813-48.813-56.141-48.813-111.43h129.59c0 36.262 3.723 69.793 49.77 69.793 47.84 0 53.426-28.086 53.426-67.031v-35.364c-122.91 1.828-244.08-4.515-244.08-155.82 0-73.563 28.875-135.61 105.73-144.63h41.426c45.703 5.102 78.035 27.574 102.57 68.586h1.863l5.657-60.73h122.97c-2.824 28.058-6.55 57.078-6.55 85.183v228.23c0 83.367-21.575 153.09-189.62 153.09-50.735 0-93.887-8.132-123.93-29.882m69.48-294.36c0 81.508 48.868 76.098 114.49 78.789 0-49.804 12.199-151.27-65.625-151.27-43.223 0-48.868 39.879-48.868 72.48"/>
    </clipPath>
    <clipPath id="clipPath142">
      <path d="m508.02 900.93h394.68v-476.19h-394.68z"/>
    </clipPath>
    <linearGradient id="linearGradient148" x2="1" gradientTransform="matrix(-2.08e-5,-476.19,-476.19,2.08e-5,705.36,900.93)" gradientUnits="userSpaceOnUse">
      <stop stop-color="#00adef" offset="0"/>
      <stop stop-color="#1c63b7" offset="1"/>
    </linearGradient>
    <clipPath id="clipPath158">
      <path d="m995 432.6h140.07v654.06h-140.07z"/>
    </clipPath>
    <clipPath id="clipPath174">
      <path d="m1477 890.07v-317.04c0-40.769-7.79-70.652-51.63-70.652-43.9 0-51.63 29.883-51.63 70.652v317.04h-137.51v-366.85c0-56.914 46.32-91.934 102.98-98.481h43.43c39.63 4.137 69.55 19.785 92.43 54.043h1.93v-46.187h142.41c-2.9 29.918-4.9 60.73-4.9 90.625v366.85z"/>
    </clipPath>
    <linearGradient id="linearGradient180" x2="1" gradientTransform="matrix(-2.03e-5,-465.33,-465.33,2.03e-5,1427.8,890.07)" gradientUnits="userSpaceOnUse">
      <stop stop-color="#00adef" offset="0"/>
      <stop stop-color="#1c63b7" offset="1"/>
    </linearGradient>
    <clipPath id="clipPath190">
      <path d="m1477 890.07v-317.04c0-40.769-7.79-70.652-51.63-70.652-43.9 0-51.63 29.883-51.63 70.652v317.04h-137.51v-366.85c0-56.914 46.32-91.934 102.98-98.481h43.43c39.63 4.137 69.55 19.785 92.43 54.043h1.93v-46.187h142.41c-2.9 29.918-4.9 60.73-4.9 90.625v366.85z"/>
    </clipPath>
    <clipPath id="clipPath196">
      <path d="m1230.3 900.93h392.97v-476.19h-392.97z"/>
    </clipPath>
    <linearGradient id="linearGradient202" x2="1" gradientTransform="matrix(-2.08e-5,-476.19,-476.19,2.08e-5,1426.8,900.93)" gradientUnits="userSpaceOnUse">
      <stop stop-color="#00adef" offset="0"/>
      <stop stop-color="#1c63b7" offset="1"/>
    </linearGradient>
    <clipPath id="clipPath212">
      <path d="m2367.8 1086.7v-654.06h241.81c57.97 0 202.03 7.242 202.03 173.04 0 89.711-25.37 152.16-122.28 165.77v1.828c74.23 14.477 111.39 68.864 111.39 144.03 0 139.48-86.09 169.39-190.25 169.39zm136.76-100.57h84.23c46.18 0 78.79-35.293 78.79-83.336 0-63.418-41.64-83.34-71.55-83.34h-91.47zm0-267.21h79.68c68.86 0 90.64-35.328 90.64-93.328 0-91.473-65.27-92.371-94.23-92.371h-76.09z"/>
    </clipPath>
    <linearGradient id="linearGradient218" x2="1" gradientTransform="matrix(-2.86e-5,-654.06,-654.06,2.86e-5,2589.7,1086.7)" gradientUnits="userSpaceOnUse">
      <stop stop-color="#00adef" offset="0"/>
      <stop stop-color="#1c63b7" offset="1"/>
    </linearGradient>
    <clipPath id="clipPath228">
      <path d="m2367.8 1086.7v-654.06h241.81c57.97 0 202.03 7.242 202.03 173.04 0 89.711-25.37 152.16-122.28 165.77v1.828c74.23 14.477 111.39 68.864 111.39 144.03 0 139.48-86.09 169.39-190.25 169.39zm136.76-100.57h84.23c46.18 0 78.79-35.293 78.79-83.336 0-63.418-41.64-83.34-71.55-83.34h-91.47zm0-267.21h79.68c68.86 0 90.64-35.328 90.64-93.328 0-91.473-65.27-92.371-94.23-92.371h-76.09z"/>
    </clipPath>
    <clipPath id="clipPath234">
      <path d="m2367.7 1086.7h443.91v-654.06h-443.91z"/>
    </clipPath>
    <clipPath id="clipPath250">
      <path d="m3210.2 1086.7-160.34-279.92h-1.79v279.92h-136.76v-654.06h136.76v335.19h1.79l156.74-335.19h154l-182.94 360.52 182.94 293.54z"/>
    </clipPath>
    <linearGradient id="linearGradient256" x2="1" gradientTransform="matrix(-2.86e-5,-654.06,-654.06,2.86e-5,3136,1086.7)" gradientUnits="userSpaceOnUse">
      <stop stop-color="#00adef" offset="0"/>
      <stop stop-color="#1c63b7" offset="1"/>
    </linearGradient>
    <clipPath id="clipPath266">
      <path d="m0 0v1098h3868v-1098z"/>
    </clipPath>
    <clipPath>
      <path d="m3718.1 1086.7-160.33-279.92h-1.85v279.92h-136.76v-654.06h136.76v335.19h1.85l156.68-335.19h153.99l-182.94 360.52 182.94 293.54z"/>
    </clipPath>
    <clipPath id="clipPath288">
      <path d="m1842.5 580.75c-.89-20.816 0-40.774 6.35-55.285 7.23-14.508 20.89-21.715 46.25-21.715 25.29 0 47.08 16.305 47.08 47.117 0 96.918-224.64 75.172-224.64 221.02 0 98.707 97.8 128.59 180.24 128.59 87 0 165.78-41.636 158.55-140.38h-125.04c0 31.672-3.58 50.696-12.69 58.868-8.13 8.132-19.02 9.992-32.6 9.992-28.05 0-43.5-18.164-43.5-48.938 0-72.48 224.65-68.828 224.65-215.58 0-79.73-65.21-139.5-171.22-139.5-111.4 0-185.64 28.055-178.39 155.8z"/>
    </clipPath>
    <linearGradient id="linearGradient294" x2="1" gradientTransform="matrix(-2.08e-5,-475.53,-475.53,2.08e-5,1892.1,900.48)" gradientUnits="userSpaceOnUse">
      <stop stop-color="#00adef" offset="0"/>
      <stop stop-color="#1c63b7" offset="1"/>
    </linearGradient>
    <linearGradient id="linearGradient256-3" x2="1" gradientTransform="matrix(-2.86e-6 -65.406 -65.406 2.86e-6 364.41 108.73)" gradientUnits="userSpaceOnUse">
      <stop stop-color="#00adef" offset="0"/>
      <stop stop-color="#1c63b7" offset="1"/>
    </linearGradient>
    <linearGradient id="linearGradient4949" x2="1" gradientTransform="matrix(-2.86e-5,-654.06,-654.06,2.86e-5,1065,1086.7)" gradientUnits="userSpaceOnUse">
      <stop stop-color="#00adef" offset="0"/>
      <stop stop-color="#1c63b7" offset="1"/>
    </linearGradient>
  </defs>
  <g transform="matrix(1.3333 0 0 -1.3333 0 146.33)">
    <path d="m371.83 108.73-16.034-27.992h-.179v27.992h-13.676v-65.406h13.676v33.519h.179l15.674-33.519h15.4l-18.294 36.052 18.294 29.354h-15.04" fill="url(#linearGradient256-3)" stroke-width=".1"/>
    <g class="logo__subline">
      <path d="m0 5.8422v21.63h3.2676l6.3758-19.531h.06562l6.2898 19.531h3.0532v-21.63h-1.9165v19.775h-.0585l-6.3512-19.775h-2.2164l-6.5344 19.775h-.05508v-19.775h-1.9199" fill="#5a5758" stroke-width=".1"/>
      <path d="m23.612 5.8422v15.134h1.7949v-15.134zm-.2066 19.355v2.275h2.2195v-2.275h-2.2195" fill="#5a5758" stroke-width=".1"/>
      <path d="m28.316 19.535v1.441h2.427v3.1117l1.8015.7793v-3.891h3.0535v-1.441h-3.0535v-9.7051c0-2.0098.211-2.4887 1.6446-2.4887.6027 0 1.0168.03086 1.4089.08984v-1.5578c-.5371-.05899-1.1406-.09024-1.7129-.09024-2.4226 0-3.1421 1.0754-3.1421 2.9371v10.815h-2.427" fill="#5a5758" stroke-width=".1"/>
      <path d="m45.873 13.755c0-3.1465 0-6.293 3.2665-6.293 1.5 0 2.4543.98906 2.7304 1.7059.4477 1.1715.5649 1.8574.5649 6.2929 0 3.1743-1.7063 4.3735-3.3879 4.3735-3.1121 0-3.1739-3.836-3.1739-6.0793zm6.6829 7.248h1.7671c-.0585-1.4406-.0925-2.1886-.0925-2.964v-12.735c0-3.325-1.0164-5.3039-5.325-5.3039-3.7778 0-4.5246 2.668-4.4075 4.1941h1.8016c-.1266-1.7359 1.1652-2.7562 2.8399-2.7562 3.5058 0 3.2953 1.8883 3.2953 6.4133h-.0618c-.7792-1.2891-2.216-1.8301-3.6535-1.8301-4.3386 0-4.6425 3.7465-4.6425 7.1035 0 3.5047.0316 3.5359.4484 5.1559.1516.6238 1.2031 2.9914 4.2527 2.9914 1.5332 0 3.0571-.7793 3.7192-2.1231l.0586-.0652v1.9195" fill="#5a5758" stroke-width=".1"/>
      <path d="m67.482 20.976v-15.134h-1.5613v1.6789h-.0656c-1.0481-1.2902-2.1231-1.9762-3.7981-1.9762-3.1148 0-3.9844 2.275-3.9844 4.7324v10.698h1.7961v-10.402c0-.4203-.0859-3.5906 2.5196-3.5906 2.4187 0 3.291 2.2738 3.291 3.3219v10.671h1.8027" fill="#5a5758" stroke-width=".1"/>
      <path d="m69.909 19.535v1.441h2.4297v3.1117l1.7949.7793v-3.891h3.0508v-1.441h-3.0508v-9.7051c0-2.0098.2039-2.4887 1.6441-2.4887.6028 0 1.0168.03086 1.4067.08984v-1.5578c-.5344-.05899-1.1379-.09024-1.7035-.09024-2.4254 0-3.1422 1.0754-3.1422 2.9371v10.815h-2.4297" fill="#5a5758" stroke-width=".1"/>
      <path d="m87.823 14.472c0 3.3531-.5339 5.3621-3.4148 5.3621-2.8738 0-3.4121-2.009-3.4121-5.3621zm-6.8269-1.4375v-1.1719c0-2.0953.5684-4.8797 3.4121-4.8797 2.2473 0 3.3606 1.4398 3.3262 3.4734h1.8886c-.2109-3.6535-2.1855-4.9117-5.2148-4.9117-2.6023 0-5.2078 1.052-5.2078 5.6289v3.7153c0 4.3769 1.8269 6.3828 5.2078 6.3828 5.2148 0 5.2148-3.7465 5.2148-8.2371h-8.6269" fill="#5a5758" stroke-width=".1"/>
      <path d="m94.658 5.8422h-1.7996v15.161h1.6172v-1.8886h.0652c.7195 1.2269 1.916 2.1574 3.5906 2.1574 1.5618 0 2.9364-.8684 3.4434-2.3676.751 1.4992 2.04 2.3676 3.719 2.3676 2.516 0 3.836-1.7371 3.922-4.1668v-11.263h-1.796v10.818c-.03 1.4958-.571 3.1739-2.336 3.1739-2.275 0-3.15-2.2778-3.15-4.2528v-9.7394h-1.792v10.818c-.032 1.4958-.5697 3.1739-2.3373 3.1739-2.2781 0-3.1465-2.2778-3.1465-4.2528v-9.7394" fill="#5a5758" stroke-width=".1"/>
      <path d="m130.07 15.52h-4.37v1.6203h6.29v-10.819c-1.92-.59609-3.922-.9-5.962-.9-7.035 0-6.531 7.0414-6.531 11.239 0 4.1911-.504 11.232 6.531 11.232 4.139 0 6.262-1.768 6.172-5.959h-1.916c0 2.8434-1.226 4.3394-4.256 4.3394-4.677 0-4.611-4.1601-4.611-9.6125 0-5.4523-.066-9.6183 4.611-9.6183 1.651 0 3.03.23672 4.042.62969v7.8476" fill="#5a5758" stroke-width=".1"/>
      <path d="m144.43 14.472c0 3.3531-.538 5.3621-3.412 5.3621-2.881 0-3.419-2.009-3.419-5.3621zm-6.831-1.4375v-1.1719c0-2.0953.568-4.8797 3.419-4.8797 2.244 0 3.353 1.4398 3.326 3.4734h1.885c-.21-3.6535-2.189-4.9117-5.211-4.9117-2.61 0-5.215 1.052-5.215 5.6289v3.7153c0 4.3769 1.827 6.3828 5.215 6.3828 5.211 0 5.211-3.7465 5.211-8.2371h-8.63" fill="#5a5758" stroke-width=".1"/>
      <path d="m150.66 19.535h-2.43v1.441h2.43v2.5433c0 1.4336.207 4.077 3.86 4.077.273 0 .576-.0652 1.021-.1238v-1.4961h-1.348c-1.737 0-1.737-1.561-1.737-2.4297v-2.5707h3.057v-1.441h-3.057v-13.693h-1.796v13.693" fill="#5a5758" stroke-width=".1"/>
      <path d="m164.05 25.976h1.92v-3.0293h-1.92zm-4.729 0h1.917v-3.0293h-1.917zm8.028-5.0004v-15.134h-1.562v1.6789h-.059c-1.043-1.2902-2.123-1.9762-3.801-1.9762-3.119 0-3.984 2.275-3.984 4.7324v10.698h1.795v-10.402c0-.4203-.089-3.5906 2.52-3.5906 2.427 0 3.295 2.2738 3.295 3.3219v10.671h1.796" fill="#5a5758" stroke-width=".1"/>
      <path d="m171.13 5.8422v21.63h1.796v-8.3578h.062c.864 1.2617 2.033 2.1574 3.65 2.1574 3.743 0 4.135-2.7844 4.135-4.7629v-10.667h-1.798v10.573c0 1.7715-.69 3.4188-2.789 3.4188-1.613 0-3.26-1.1094-3.26-4.4942v-9.498h-1.796" fill="#5a5758" stroke-width=".1"/>
      <path d="m185.04 5.8422h1.7988v21.63h-1.7988z" fill="#5a5758" stroke-width=".1"/>
      <path d="m197.8 27.472h1.799v-13.183h.058l5.211 6.6867h2.1l-5.36-6.7453 5.718-8.3883h-2.275l-5.394 8.2402h-.058v-8.2402h-1.799v21.63" fill="#5a5758" stroke-width=".1"/>
      <path d="m211.31 18.935h.061c.748 1.441 2.337 2.3367 4.164 2.3367v-1.8266c-2.551.2067-4.225-1.3168-4.225-3.8637v-9.7394h-1.799v15.134h1.799v-2.0406" fill="#5a5758" stroke-width=".1"/>
      <path d="m225.43 13.572c-2.581-.0891-6.472.207-6.472-3.4743 0-1.7089.868-3.1148 2.723-3.1148 2.067 0 3.749 1.8539 3.749 3.8316zm.114-5.8723h-.059c-.958-1.4379-2.429-2.1551-4.28-2.1551-2.699 0-4.164 1.827-4.164 4.4641 0 5.3008 5.332 4.7629 8.389 5.0008v1.2578c0 2.2199-.665 3.5668-3.057 3.5668-1.647 0-2.971-.8094-2.971-2.6051h-1.92c.152 2.9051 2.403 4.0426 5.036 4.0426 1.53 0 4.705-.1516 4.705-4.0149v-7.607c0-1.082 0-2.0398.178-3.8078h-1.857v1.8578" fill="#5a5758" stroke-width=".1"/>
      <path d="m232.82 5.8422h-1.803v15.134h1.803v-1.8613h.063c.868 1.2617 2.036 2.1574 3.653 2.1574 3.742 0 4.136-2.7844 4.136-4.7629v-10.667h-1.8v10.573c0 1.7715-.688 3.4188-2.791 3.4188-1.609 0-3.261-1.1094-3.261-4.4942v-9.498" fill="#5a5758" stroke-width=".1"/>
      <path d="m244.39 27.472h1.802v-13.183h.059l5.211 6.6867h2.102l-5.37-6.7453 5.725-8.3883h-2.274l-5.394 8.2402h-.059v-8.2402h-1.802v21.63" fill="#5a5758" stroke-width=".1"/>
      <path d="m264.23 14.472c0 3.3531-.538 5.3621-3.416 5.3621-2.875 0-3.418-2.009-3.418-5.3621zm-6.834-1.4375v-1.1719c0-2.0953.568-4.8797 3.418-4.8797 2.248 0 3.354 1.4398 3.323 3.4734h1.892c-.214-3.6535-2.192-4.9117-5.215-4.9117-2.605 0-5.21 1.052-5.21 5.6289v3.7153c0 4.3769 1.826 6.3828 5.21 6.3828 5.215 0 5.215-3.7465 5.215-8.2371h-8.633" fill="#5a5758" stroke-width=".1"/>
      <path d="m271.09 5.8422h-1.792v15.134h1.792v-1.8613h.062c.872 1.2617 2.038 2.1574 3.654 2.1574 3.746 0 4.138-2.7844 4.138-4.7629v-10.667h-1.798v10.573c0 1.7715-.686 3.4188-2.782 3.4188-1.623 0-3.274-1.1094-3.274-4.4942v-9.498" fill="#5a5758" stroke-width=".1"/>
      <path d="m286.64 8.1199h.058l3.685 12.856h1.737l-4.494-15.134h-2.068l-4.492 15.134h1.948l3.626-12.856" fill="#5a5758" stroke-width=".1"/>
      <path d="m302.5 14.472c0 3.3531-.537 5.3621-3.415 5.3621s-3.416-2.009-3.416-5.3621zm-6.831-1.4375v-1.1719c0-2.0953.565-4.8797 3.416-4.8797 2.243 0 3.354 1.4398 3.325 3.4734h1.882c-.206-3.6535-2.184-4.9117-5.207-4.9117-2.609 0-5.215 1.052-5.215 5.6289v3.7153c0 4.3769 1.826 6.3828 5.215 6.3828 5.207 0 5.207-3.7465 5.207-8.2371h-8.623" fill="#5a5758" stroke-width=".1"/>
      <path d="m309.47 18.935h.065c.748 1.441 2.337 2.3367 4.164 2.3367v-1.8266c-2.548.2067-4.229-1.3168-4.229-3.8637v-9.7394h-1.792v15.134h1.792v-2.0406" fill="#5a5758" stroke-width=".1"/>
      <path d="m319.9 5.5449c-3.264 0-4.553 1.5859-4.525 4.7946h1.833c0-2.0676.48-3.4465 2.785-3.4465 1.74 0 2.574.98594 2.574 2.668 0 3.9528-6.799 2.9293-6.799 7.9371 0 2.7883 1.92 3.7739 4.556 3.7739 2.995 0 3.953-2.0676 3.953-4.3735h-1.771c-.087 1.9161-.593 2.936-2.634 2.936-1.285 0-2.306-.8371-2.306-2.1883 0-3.7773 6.8-2.757 6.8-7.8164 0-2.8465-1.647-4.2848-4.466-4.2848" fill="#5a5758" stroke-width=".1"/>
      <path d="m328.14 5.8422v15.134h1.795v-15.134zm-.21 19.355v2.275h2.215v-2.275h-2.215" fill="#5a5758" stroke-width=".1"/>
      <path d="m340.94 16.629c.092 1.8855-.597 3.2051-2.668 3.2051-1.107 0-2.037-.6301-2.426-1.7367-.241-.6895-.417-2.7575-.417-4.7633 0-2.7258 0-6.3512 2.788-6.3512 2.36 0 2.66 1.4957 2.75 3.3219h1.803c.144-4.0742-2.734-4.7602-4.14-4.7602-5.118 0-5.118 4.043-5.118 7.7895 0 1.4961.055 3.864.441 5.0011.786 2.1571 2.488 2.9364 4.564 2.9364 2.601 0 4.366-1.468 4.225-4.6426h-1.802" fill="#5a5758" stroke-width=".1"/>
      <path d="m345.85 5.8422v21.63h1.794v-8.3578h.063c.868 1.2617 2.037 2.1574 3.653 2.1574 3.749 0 4.136-2.7844 4.136-4.7629v-10.667h-1.796v10.573c0 1.7715-.689 3.4188-2.788 3.4188-1.613 0-3.268-1.1094-3.268-4.4942v-9.498h-1.794" fill="#5a5758" stroke-width=".1"/>
      <path d="m367.4 14.472c0 3.3531-.538 5.3621-3.412 5.3621-2.875 0-3.416-2.009-3.416-5.3621zm-6.828-1.4375v-1.1719c0-2.0953.566-4.8797 3.416-4.8797 2.241 0 3.354 1.4398 3.323 3.4734h1.884c-.206-3.6535-2.184-4.9117-5.207-4.9117-2.609 0-5.214 1.052-5.214 5.6289v3.7153c0 4.3769 1.826 6.3828 5.214 6.3828 5.207 0 5.207-3.7465 5.207-8.2371h-8.623" fill="#5a5758" stroke-width=".1"/>
      <path d="m374.38 18.935h.063c.75 1.441 2.339 2.3367 4.166 2.3367v-1.8266c-2.547.2067-4.229-1.3168-4.229-3.8637v-9.7394h-1.792v15.134h1.792v-2.0406" fill="#5a5758" stroke-width=".1"/>
      <path d="m379.44 19.535v1.441h2.43v3.1117l1.8.7793v-3.891h3.05v-1.441h-3.05v-9.7051c0-2.0098.206-2.4887 1.643-2.4887.597 0 1.021.03086 1.407.08984v-1.5578c-.538-.05899-1.134-.09024-1.703-.09024-2.43 0-3.147 1.0754-3.147 2.9371v10.815h-2.43" fill="#5a5758" stroke-width=".1"/>
    </g>
    <g transform="scale(.1)" clip-path="url(#clipPath82)">
      <path d="m1.6562 913.61c0-194.73 285.02-202 285.02-319.76 0-44.356-23.367-74.274-71.2-74.274-77.89 0-80.722 52.559-80.722 115.08h-134.76v-95.535c15.441-58.535 56.457-102.86 145.03-114.37h110.7c89.614 9.723 174.46 48.668 174.46 186.3 0 205.65-285.1 194.8-285.1 318.87 0 45.32 27.226 69.789 73.132 69.789 57.208 0 65.696-49.867 65.696-98.773h137.78c9.375 136.83-59.074 196.59-196.86 196.59-172.6 0-223.2-81.54-223.2-183.91" fill="url(#linearGradient88)"/>
    </g>
    <g transform="scale(.1)" clip-path="url(#clipPath98)">
      <g clip-path="url(#clipPath104)">
        <path d="m143 424c-53.503 7.2034-109.33 33.156-132.63 84.843-17.554 32.272-8.1051 69.456-10.358 104.33-6.0253 20.796 4.8987 24.563 22.401 21.823h112.59c.90186-37.02-1.8403-86.861 37.283-106.03 36.112-18.053 92.25-10.597 107.95 31.248 14.681 33.415 1.5399 73.116-26.434 95.24-48.251 41.126-109.35 62.917-160.24 100.39-48.432 32.718-89.451 83.612-91.666 144.29-6.1455 63.932 17.961 136.7 78.055 167.58 54.535 29.477 119.16 32.359 179.77 28.951 52.377-4.2691 109.52-22.212 138.42-69.541 22.884-37.018 26.669-82.455 24.166-124.98-24.68-4.7356-50.361-1.0783-75.527-2.1451h-63.778c1.6285 35.641-4.1601 86.211-45.437 96.421-33.848 9.2281-79.474-4.08-88.27-42.005-11.658-34.103 5.1296-71.338 33.572-91.5 64.413-48.591 147.33-70.537 202.74-131.52 34.318-37.216 48.834-88.888 44.65-138.79-2.4468-52.553-23.827-107.84-70.719-135.97-30.267-19.256-65.481-27.427-100.54-32.632" fill="url(#linearGradient110)"/>
      </g>
    </g>
    <g transform="scale(.1)" clip-path="url(#clipPath120)">
      <path d="m569.5 869.22c-30.957-20.813-48.813-56.141-48.813-111.43h129.59c0 36.262 3.723 69.793 49.77 69.793 47.84 0 53.426-28.086 53.426-67.031v-35.364c-122.91 1.828-244.08-4.515-244.08-155.82 0-73.563 28.875-135.61 105.73-144.63h41.426c45.703 5.102 78.035 27.574 102.57 68.586h1.863l5.657-60.73h122.97c-2.824 28.058-6.55 57.078-6.55 85.183v228.23c0 83.367-21.575 153.09-189.62 153.09-50.735 0-93.887-8.132-123.93-29.882m69.48-294.36c0 81.508 48.868 76.098 114.49 78.789 0-49.804 12.199-151.27-65.625-151.27-43.223 0-48.868 39.879-48.868 72.48" fill="url(#linearGradient126)"/>
    </g>
    <g transform="scale(.1)" clip-path="url(#clipPath136)">
      <g clip-path="url(#clipPath142)">
        <path d="m612 424c-26.077 4.9392-52.076 15.149-69.546 36.064-21.164 24.691-30.788 57.455-32.69 89.585-1.6226 16.7-.89439 33.691.7732 50.313 4.4281 23.599 9.9983 48.286 25.761 67.239 17.123 23.927 44.608 38.469 72.554 46.305 30.099 8.7097 61.622 11.092 92.996 12.047 17.015.96911 34.105.20247 51.151.44704-1.0562 27.293 3.9213 55.883-8 81.439-13.112 19.312-38.618 21.419-60 18.561-23.207-5.3247-33.638-29.483-33.571-51.328 5.2807-20.414-11.375-18.667-26.04-17.672h-105.39c.15691 37.031 8.7069 76.361 36 103 22.566 19.157 50.548 30.67 79.658 35 21.62 4.0692 43.779 4.5136 65.75 4.8236 30.225-1.5121 60.615-2.8578 89.812-11.824 25.719-6.7731 50.768-20.176 67.219-41.867 14.086-17.896 20.571-40.887 23.041-63.672 4.373-45.008 1.853-90.392 2.5209-135.6v-152.87c-.0383-20.108 9.4333-45.798 2.3183-62.327-40.003.73524-80.221.12892-120.32.32671-1.7513 20.066-3.2294 40.209-5.6329 60.091-11.747-15.152-23.923-33.628-41.183-44.525-18.228-14.347-41.78-20.883-64.837-23.583-14.11.03342-28.228.02673-42.347.01715zm69 80c26.542-5.6142 55.217 12.187 62.823 37.927 9.4639 25.35 10.079 53.092 9.9696 79.901.0615 17.271 2.4397 39.659-22.273 30.388-23.844-.30853-48.677-1.551-69.519-14.216-21.946-18.933-23.508-50.181-22-76.975.70669-22.037 9.035-49.398 32.839-55.567l2.1613-1.458" fill="url(#linearGradient148)"/>
      </g>
    </g>
    <g transform="scale(.1)" clip-path="url(#clipPath158)">
      <path d="m995 432.6h140.07v654.06h-140.07z" fill="url(#linearGradient4949)"/>
    </g>
    <g transform="scale(.1)" clip-path="url(#clipPath174)">
      <path d="m1477 890.07v-317.04c0-40.769-7.79-70.652-51.63-70.652-43.9 0-51.63 29.883-51.63 70.652v317.04h-137.51v-366.85c0-56.914 46.32-91.934 102.98-98.481h43.43c39.63 4.137 69.55 19.785 92.43 54.043h1.93v-46.187h142.41c-2.9 29.918-4.9 60.73-4.9 90.625v366.85h-137.51" fill="url(#linearGradient180)"/>
    </g>
    <g transform="scale(.1)" clip-path="url(#clipPath190)">
      <g clip-path="url(#clipPath196)">
        <path d="m1337 424c-23.173 4.2035-46.287 11.462-65.156 26.094-23.847 17.65-37.738 47.783-35.844 77.627v363.28h138v-329c2.1673-20.579 5.6855-46.418 28.125-54.782 22.952-9.0361 54.522-4.7742 66.875 18.782 10.824 28.232 5.8798 58.873 7 88.468v276.53h139v-392c1.708-18.665 1.9699-37.584 4.1052-56.354 5.8708-17.034-15.62-8.964-25.709-10.646h-117.4v46c-12.923-17.114-28.473-32.779-48.232-42.07-13.263-6.3635-27.636-8.6119-41.768-11.93" fill="url(#linearGradient202)"/>
      </g>
    </g>
    <g transform="scale(.1)" clip-path="url(#clipPath212)">
      <path d="m2367.8 1086.7v-654.06h241.81c57.97 0 202.03 7.242 202.03 173.04 0 89.711-25.37 152.16-122.28 165.77v1.828c74.23 14.477 111.39 68.864 111.39 144.03 0 139.48-86.09 169.39-190.25 169.39zm136.76-100.57h84.23c46.18 0 78.79-35.293 78.79-83.336 0-63.418-41.64-83.34-71.55-83.34h-91.47zm0-267.21h79.68c68.86 0 90.64-35.328 90.64-93.328 0-91.473-65.27-92.371-94.23-92.371h-76.09v185.7" fill="url(#linearGradient218)"/>
    </g>
    <g transform="scale(.1)" clip-path="url(#clipPath228)">
      <g clip-path="url(#clipPath234)">
        <path d="m2367 432v655h268c44.52-3.469 93.608-11.988 125.42-45.825 34.955-35.592 42.512-89.019 40.402-137.19-2.8175-40.849-18.566-84.285-54.411-106.98-13.345-14.396-43.314-17.672-53.416-26 40.837-4.6003 82.132-25.538 100-64 20.064-39.967 20.69-86.765 17.559-130.56-4.8053-39.186-20.842-79.668-53.559-103.44-37.264-31.491-88.684-38.946-136.3-40.978-84.554-.05394-169.14-.00551-253.7-.02205zm138 103c31.846-2.0345 64.008-.5338 96-1 27.391 2.633 55.142 17.148 64.884 44.346 12.092 32.609 11.656 70.746-2.5143 102.67-16.089 30.292-53.091 38.769-84.961 36.985h-73.409v-183zm0 286c32.845-2.03 66.009-.53651 99-1 28.748 4.2426 53.668 25.956 59.219 54.781 11.132 36.163-1.4182 79.776-34.219 100.22-32.594 16.965-70.282 9.3727-105.7 11-9.795-.003-22.878 3.2821-18.304-11.09v-153.91z" fill="url(#linearGradient218)"/>
      </g>
    </g>
    <g transform="scale(.1)" clip-path="url(#clipPath250)">
      <path d="m3210.2 1086.7-160.34-279.92h-1.79v279.92h-136.76v-654.06h136.76v335.19h1.79l156.74-335.19h154l-182.94 360.52 182.94 293.54h-150.4" fill="url(#linearGradient256)"/>
    </g>
    <g transform="scale(.1)" clip-path="url(#clipPath266)"></g>
    <g transform="scale(.1)" clip-path="url(#clipPath288)">
      <path d="m1842.5 580.75c-.89-20.816 0-40.774 6.35-55.285 7.23-14.508 20.89-21.715 46.25-21.715 25.29 0 47.08 16.305 47.08 47.117 0 96.918-224.64 75.172-224.64 221.02 0 98.707 97.8 128.59 180.24 128.59 87 0 165.78-41.636 158.55-140.38h-125.04c0 31.672-3.58 50.696-12.69 58.868-8.13 8.132-19.02 9.992-32.6 9.992-28.05 0-43.5-18.164-43.5-48.938 0-72.48 224.65-68.828 224.65-215.58 0-79.73-65.21-139.5-171.22-139.5-111.4 0-185.64 28.055-178.39 155.8h124.96" fill="url(#linearGradient294)"/>
    </g>
  </g>
</svg>
