<?xml version="1.0" encoding="utf-8"?>
<!-- Generator: Adobe Illustrator 21.0.0, SVG Export Plug-In . SVG Version: 6.00 Build 0)  -->
<svg version="1.1" xmlns="http://www.w3.org/2000/svg" xmlns:xlink="http://www.w3.org/1999/xlink" x="0px" y="0px"
	 viewBox="0 0 142 68" style="enable-background:new 0 0 142 68;" xml:space="preserve">
<style type="text/css">
	.st0{display:none;}
	.st1{fill:#003C6E;}
</style>
<g id="Layer_1" class="st0">
	
		<image style="display:inline;overflow:visible;" width="284" height="136" xlink:href="../../../Alt/Logo_&amp;_Slogan/logo2x.png"  transform="matrix(0.5 0 0 0.5 0 0)">
	</image>
</g>
<g id="Ebene_2">
	<g>
		<path class="st1" d="M18.6,23.1c5.3,0,9.7,1.7,9.7,1.7l0.7-6.5c0,0-18.6-4.5-24.4,3.9c-4.2,6-2.7,12.3,7.8,16.3
			c12.1,4.7,3.8,7.7-0.8,7.6c-4-0.1-10.6-1.5-10.6-1.5L0,50.8c0,0,8.4,3.2,17.3,1.3c8.9-1.9,10.8-7,11.1-10.2
			c0.3-3.2,0.1-7.5-9.9-11.6S13.2,23.1,18.6,23.1z"/>
		<path class="st1" d="M38.1,17.9l-4.9,33.4c0,0,11.1,0,17.3,0c6.2,0,12.2-0.5,14.9-9c2.7-8.5-9-8.5-9-8.5s9.3-0.3,10.8-8.2
			C69,15.7,55.2,17.9,38.1,17.9z M55.7,41.1c-1.7,5.9-12,4-12,4l1.3-8C45,37.1,57.3,35.7,55.7,41.1z M56.7,27.3
			c-1.4,5.8-10.9,3.9-10.9,3.9l1.3-7.8C47.1,23.4,58.1,21.5,56.7,27.3z"/>
		<polygon class="st1" points="82.6,37 95.1,51.3 106.1,51.3 90.7,31.5 109.1,17.7 102.6,17.7 83.4,31.5 85.3,17.7 75.6,17.7 
			70.5,51.3 80.2,51.3 		"/>
		<path class="st1" d="M86.1,6.5c-4.7,2.8-9.4,8.1-9.4,8.1h5C81.9,12.9,86.1,6.5,86.1,6.5z"/>
		<path class="st1" d="M81.7,54h-9.9c19.6,24.4,58.5,9.5,58.5,9.5L142,48.3C100.4,70.6,81.7,54,81.7,54z"/>
		<path class="st1" d="M121.4,16.2c8.3,16.3-3.8,30.2-7.1,33.2c0,0,24.6-10.4,18.7-32.3C127.5-3.7,98.6-1.7,90.8,3.5
			C90.8,3.5,113.2-0.1,121.4,16.2z"/>
	</g>
</g>
</svg>
