<svg id="Ebene_1" data-name="Ebene 1" xmlns="http://www.w3.org/2000/svg" viewBox="0 0 284.86 102.79"><defs><style>.cls-1{fill:#fff;stroke:#e30613;stroke-width:2px;}.cls-2,.cls-3{fill:#1d1d1b;}.cls-3{fill-rule:evenodd;}.cls-4{fill:#e30613;}</style></defs><polygon class="cls-1" points="1 76.79 283.86 76.79 283.86 101.79 1 101.79 1 76.79 1 76.79 1 76.79"/><polygon class="cls-2" points="93.43 93.99 89.59 89.09 93.22 84.56 90.35 84.56 87.25 88.6 87.25 84.56 84.91 84.56 84.91 93.99 87.25 93.99 87.25 89.71 90.35 93.99 93.43 93.99 93.43 93.99"/><path class="cls-3" d="M256.78,463.53l-2.09-3c-.27-.4-.53-.78-.71-1a2.69,2.69,0,0,0,2.29-2.69c0-1.83-1.38-2.72-3.7-2.72-1.2,0-2.63,0-3.4,0v9.44h2.35v-3.69h.09l2.32,3.69Zm-3-6.53a1.31,1.31,0,0,1-1.48,1.3,6.52,6.52,0,0,1-.78,0v-2.42c.21,0,.45,0,.7,0,1,0,1.56.43,1.56,1.18Z" transform="translate(-154 -369.54)"/><path class="cls-3" d="M267.3,463.53l-3.49-9.44H261l-3.51,9.44h2.36l.6-1.65h3.65l.58,1.65Zm-3.72-3.34H261l.83-2.29c.16-.43.31-.92.42-1.34h0c.11.42.29,1,.45,1.4l.82,2.23Z" transform="translate(-154 -369.54)"/><path class="cls-3" d="M278.07,463.53v-9.44H275.8l0,4c0,1,0,1.76.05,2.32h0a13.52,13.52,0,0,0-1-1.8l-2.74-4.5H269v9.44h2.25v-4.67c0-.74,0-1.21-.06-1.66h0a14.85,14.85,0,0,0,.89,1.72l2.83,4.61Z" transform="translate(-154 -369.54)"/><polygon class="cls-2" points="135.52 93.99 131.68 89.09 135.31 84.56 132.44 84.56 129.34 88.6 129.34 84.56 127 84.56 127 93.99 129.34 93.99 129.34 89.71 132.44 93.99 135.52 93.99 135.52 93.99"/><polygon class="cls-2" points="143.07 93.99 143.07 92.12 139.6 92.12 139.6 90.05 142.9 90.05 142.9 88.28 139.6 88.28 139.6 86.39 143.07 86.39 143.07 84.56 137.26 84.56 137.26 93.99 143.07 93.99 143.07 93.99"/><path class="cls-3" d="M308.72,463.53v-9.44h-2.27l0,4c0,1,0,1.76,0,2.32h0a14.71,14.71,0,0,0-1-1.8l-2.74-4.5h-3.14v9.44h2.25v-4.67c0-.74,0-1.21-.06-1.66h0a16.6,16.6,0,0,0,.89,1.72l2.83,4.61Z" transform="translate(-154 -369.54)"/><polygon class="cls-2" points="166.17 93.99 162.33 89.09 165.96 84.56 163.09 84.56 159.99 88.6 159.99 84.56 157.65 84.56 157.65 93.99 159.99 93.99 159.99 89.71 163.09 93.99 166.17 93.99 166.17 93.99"/><path class="cls-3" d="M330.46,463.53,327,454.09H324.2l-3.5,9.44h2.36l.6-1.65h3.64l.58,1.65Zm-3.72-3.34H324.2l.84-2.29c.16-.43.3-.92.41-1.34h0a14.27,14.27,0,0,0,.46,1.4l.81,2.23Z" transform="translate(-154 -369.54)"/><path class="cls-2" d="M337.88,460.42c0-2.9-3.87-2.34-3.87-3.68,0-.58.42-1,1.42-1a6.76,6.76,0,0,1,1.74.24l.07-2a12.76,12.76,0,0,0-1.72-.15c-2.6,0-4,1.23-4,3.09,0,3.08,3.79,2.28,3.79,3.72,0,.7-.66,1.07-1.44,1.07a5.44,5.44,0,0,1-2-.35l-.09,2.07a8.37,8.37,0,0,0,1.85.22c2.63,0,4.23-1.33,4.23-3.31Z" transform="translate(-154 -369.54)"/><path class="cls-2" d="M345.89,460.42c0-2.9-3.86-2.34-3.86-3.68,0-.58.41-1,1.41-1a6.76,6.76,0,0,1,1.74.24l.08-2a12.9,12.9,0,0,0-1.73-.15c-2.59,0-4,1.23-4,3.09,0,3.08,3.79,2.28,3.79,3.72,0,.7-.65,1.07-1.43,1.07a5.5,5.5,0,0,1-2-.35l-.09,2.07a8.44,8.44,0,0,0,1.85.22c2.63,0,4.23-1.33,4.23-3.31Z" transform="translate(-154 -369.54)"/><polygon class="cls-2" points="199.96 93.99 199.96 92.12 196.49 92.12 196.49 90.05 199.79 90.05 199.79 88.28 196.49 88.28 196.49 86.39 199.96 86.39 199.96 84.56 194.15 84.56 194.15 93.99 199.96 93.99 199.96 93.99"/><path class="cls-4" d="M328.45,393.33l3.16,11.31s1.66,5.72,9.8-2.57l30.9-30s4.53-5.18,7.23-.75c2.11,3.46-1.51,8.14-1.51,8.14s-17.95,26.86-40.08,46.1c-.35.31-.61.45-1.15.87-1.67,1.28-15.89,10.6-21-5.07s-1.82-27.58,4.13-31.65,8.54,3.61,8.54,3.61Z" transform="translate(-154 -369.54)"/><path class="cls-2" d="M181,418c0-12.93-16.38-10-16.38-16.55,0-2.49,1.93-4.09,6-4.09a27.94,27.94,0,0,1,7.39,1l.32-8.1a46.15,46.15,0,0,0-7.3-.72c-11.25,0-16.95,5.77-16.95,12.76,0,13.57,16.14,9.56,16.14,16.63,0,2.65-2.57,4.25-6.51,4.25a35.33,35.33,0,0,1-8.59-1.2l-.24,8.42a55,55,0,0,0,8.35.73c10.92,0,17.82-5.3,17.82-13.17" transform="translate(-154 -369.54)"/><path class="cls-2" d="M209.24,405.07H194.53c.56-4.82,3.54-8,7.8-8s7.07,3,6.91,8m10.19,2.33c0-9.88-5.14-17.82-16.78-17.82-12,0-18.71,9-18.71,21.19,0,14.06,7.06,20.4,19.75,20.4A39.73,39.73,0,0,0,218,428.6l-1-8a28.48,28.48,0,0,1-11.64,2.49c-7.39,0-11.09-3.61-11-11.09H219.1a31.9,31.9,0,0,0,.33-4.65" transform="translate(-154 -369.54)"/><path class="cls-2" d="M251.08,429.24l-.8-8.75a17.88,17.88,0,0,1-7.87,1.69c-6.83,0-9.48-4.66-9.48-11.49,0-7.55,3.29-12.37,9.8-12.37a21.15,21.15,0,0,1,7.23,1.44l1-8.9a31.12,31.12,0,0,0-8.19-1.12c-14.13,0-20.63,9.54-20.63,22,0,13.58,6.9,19.35,18,19.35a32,32,0,0,0,10.92-1.84" transform="translate(-154 -369.54)"/><path class="cls-2" d="M401.57,430.12v-8.26a19.79,19.79,0,0,1-5,.64c-3.54,0-4.74-1.45-4.74-6.59V398.4h9.72v-7.94h-9.72v-15l-10.27,2.72v12.3h-6.83v7.94h6.91v20.25c0,9.31,2.73,12.52,11.55,12.52a35.64,35.64,0,0,0,8.36-1.05" transform="translate(-154 -369.54)"/><path class="cls-2" d="M428.44,422.29a11.85,11.85,0,0,1-5.35,1.35c-4.41.25-7.47-2.17-7.19-5.53.35-4.16,3.6-5.82,12.51-5.82l0,10Zm10.12-18.91c0-8.67-3.62-13.89-16.47-13.89A43.49,43.49,0,0,0,407.8,392l.88,8.59a26.14,26.14,0,0,1,11.81-3.13c5.78,0,7.79,2.17,7.79,6.34l.09,2.3c-11.17-.42-21.56,3.25-22.95,11.68-1.19,7.17,4.46,13.81,17.57,13.44,6.92-.2,12.37-1.3,15.72-3.09l-.15-24.73Z" transform="translate(-154 -369.54)"/><path class="cls-2" d="M318.62,389.69c-10.8-.52-17.05.68-21.52,2.83v37.85h10.22V399.23c1.94-.89,7.95-1,10.85-.18l.45-9.36Z" transform="translate(-154 -369.54)"/><path class="cls-2" d="M290.59,428.14V390.38H280.21l0,30.58c-.91.9-5.48,2.07-8.25,1.57-4.54-.82-5.48-2.12-5.77-6.55,0-1.65,0-25.59,0-25.59H255.73s0,26.44.05,28.89c.09,9.59,9.66,11.81,16.89,12,7.52.2,14.19-1.26,17.92-3.12" transform="translate(-154 -369.54)"/><polygon class="cls-2" points="204.84 20.91 204.84 33.57 204.84 60.82 215.1 60.82 215.1 22.46 215.1 20.91 204.84 20.91 204.84 20.91 204.84 20.91"/><path class="cls-2" d="M364,386.39a6.35,6.35,0,0,0,6.41-6.25,6.09,6.09,0,0,0-2.91-5.17,6.6,6.6,0,0,0-3.5-1,6.27,6.27,0,0,0-6.34,6.17,6.18,6.18,0,0,0,1,3.42,6.34,6.34,0,0,0,5.31,2.83Z" transform="translate(-154 -369.54)"/></svg>