<svg version="1.1" xmlns="http://www.w3.org/2000/svg" viewBox="0 0 983 233" xml:space="preserve">
<style type="text/css">
	.st0{fill:#FFFFFF;}
	.st1{fill:#293E4C;}
	.st2{fill:#FDC612;}
</style>
    <g>
	<rect x="815.06" y="73.83" class="st0" width="83.18" height="83.18"/>
        <rect x="722.39" y="73.83" class="st0" width="83.18" height="83.18"/>
        <rect x="630.52" y="73.83" class="st0" width="83.18" height="83.18"/>
        <path class="st1" d="M483.4,32.41h32.23c26.79,0,37.83,15.03,37.83,46.12c0,31.1-11.04,46.13-37.83,46.13H483.4V32.41z
		 M443.36,0.06v156.95h74.97c60.96,0,78.18-39.29,78.18-78.48c0-41.92-17.22-78.47-78.18-78.47H443.36z M315.82,69.35h-0.49V0.06
		h-49.16v156.95h49.16V73.73h0.49l55.65,83.28h55.25l-57.56-87.45l52.64-69.5h-52.55L315.82,69.35z M234.95,47.44
		c2.95-36.32-34.66-47.38-71.28-47.38c-37.12,0-73.99,9.81-75.96,45.5c0,16.28,8.85,30.05,26.79,36.73
		c38.59,14.4,74.97,10.02,74.97,30.47c0,10.02-14.5,15.03-25.81,15.03c-17.7,0-29.99-7.72-29.75-21.92H84.76
		c0.74,40.91,37.12,51.13,78.41,51.13c41.05,0,77.92-15.03,77.92-46.75c0-40.7-43.26-43.2-73.01-49.67
		c-13.03-2.92-28.76-6.47-28.76-17.53c0-7.51,9.83-13.78,21.14-13.78c8.36,0,14.75,1.67,18.93,4.8c4.43,3.13,6.64,7.52,6.39,13.36
		H234.95z"/>
        <g>
		<path class="st2" d="M674.2,120.48h-11.34v12.16h10.13c4.33,0,7.53-2.34,7.53-5.84C680.52,123.67,678.09,120.71,674.2,120.48z"/>
            <path class="st2" d="M679.39,103.64c0-3.19-3.03-5.46-7.1-5.46h-9.44v11.46l8.83-0.08C676.36,109.56,679.39,107.93,679.39,103.64z
			"/>
            <path class="st2" d="M630.52,73.83v83.18h83.18V73.83H630.52z M674.89,143.54h-29.36V87.28h29.96
			c11.78,0.08,21.65,4.83,21.65,14.73c0,6.94-6.49,11.14-13.51,12.31v0.16c8.31,1.01,15.07,5.77,15.07,13.79
			C698.7,144.63,675.49,143.54,674.89,143.54z"/>
	</g>
        <path class="st2" d="M722.39,73.83v83.18h83.18V73.83H722.39z M771.85,142.04l-19.5-28.32h-0.16v28.32h-16.39V88.79h16.39v23.38
		h0.16l18.77-23.38h19.42l-20.41,23.45l22.05,29.8H771.85z"/>
        <path class="st2" d="M815.05,73.83v83.18h83.18V73.83H815.05z M864.51,142.04l-19.5-28.32h-0.16v28.32h-16.39V88.79h16.39v23.38
		h0.16l18.77-23.38h19.42l-20.41,23.45l22.05,29.8H864.51z"/>
        <g>
		<path class="st1" d="M87.75,194.87c0-0.74,6.68-1.21,7.78-1.21c14.04,0,19.82,7.47,19.82,19.56c0,12.78-5.1,19.56-19.98,19.56
			h-1.68c-0.42,0-0.84,0.05-1.31,0.05c-1.68,0-3.58-0.16-4.57-0.68L87.75,194.87z M92.96,228c0.79,0.05,1.47,0.05,2.21,0.05
			c9.57,0,15.04-4.47,15.04-14.83c0-10.2-5.36-14.72-14.56-14.72c-0.84,0-1.79-0.05-2.73,0.05L92.96,228z"/>
            <path class="st1" d="M120.98,199.34c0-1.21,1-2.16,2.21-2.16h1.16c1.21,0,2.16,0.95,2.16,2.16v1.16c0,1.21-0.95,2.16-2.16,2.16
			h-1.16c-1.21,0-2.21-0.95-2.21-2.16V199.34z M126.3,230.79c0,1-1.42,1.52-2.68,1.52c-1.37,0-2.58-0.47-2.58-1.31l-0.05-24.61
			c0-0.47,1.74-1.31,3.15-1.31c1.1,0,2,0.31,2.1,1.21L126.3,230.79z"/>
            <path class="st1" d="M142.75,220.27c-3.68,0-6.68-0.16-6.68-0.16c0.26,5.68,3.73,7.83,7.57,7.83c1.73,0,3.52-0.42,5.41-1.1
			c0.05,0,0.21-0.05,0.26-0.05c1.1,0,2.05,2.26,2.05,3.42c0,2.16-6.1,2.58-9.04,2.58c-8.94,0-11.67-6.94-11.67-14.62
			s3.58-12.78,10.73-12.78c8.1,0,10.36,3.21,10.36,9.73c0,1-0.05,2.1-0.16,3.31C151.48,219.9,147.01,220.27,142.75,220.27z
			 M136.13,215.75c0.26,0,0.63,0.05,1.21,0.05c1.42,0.05,3.47,0.05,5.41,0.05c2.05,0,3.89,0,3.89,0.16c0-4.26-0.05-6.26-5.15-6.26
			C137.6,209.75,136.29,212.86,136.13,215.75z"/>
            <path class="st1" d="M174.88,231.94c-0.32,0.42-5,0.53-5.15-0.42l-0.05-36.12c0-0.47,1.84-1.26,3.26-1.26
			c1.1,0,1.95,0.31,1.95,1.26l0.11,11.57c2.47-2,4.89-4.05,7.47-6.15c2.68-2.16,5.52-4.47,8.1-6.62c0,0,3,1.94,3.58,3.68
			l-15.93,13.35c2.94,2.84,5.89,5.63,8.89,8.46c3.05,2.89,6.05,5.78,9.1,8.68c0.26,0.26,0.26,0.42,0.26,0.58
			c0,0.95-2.89,3.26-3.79,3.21l-17.77-16.51V231.94z"/>
            <path class="st1" d="M203.22,214.54v16.35c-0.63,1.21-1.58,1.58-2.47,1.58c-1.42,0-2.73-0.89-2.73-1.37v-23.82
			c0,0,0.32-1.42,2.89-1.42c2,0,2.31,1.21,2.31,1.21v1.79c1.26-1.79,3.26-3.42,6.73-3.42c1.89,0,6.1,1.53,6.1,3.31
			c0,1.31-1.37,3.47-2.26,3.36c0,0-2.21-1.37-4.15-1.37C207.43,210.75,204.32,212.23,203.22,214.54z"/>
            <path class="st1" d="M236.24,220.27c-0.16,1.31-0.32,2.68-0.32,3.94c0,2.47,0.74,4.99,3.52,6.73c-1.58,1.16-3.21,1.84-4.42,1.84
			c-1.26,0-2.42-0.58-3.31-1.84c-2.42,1.16-4.68,1.89-6.62,1.89c-3.15,0-7.62-2.05-7.62-8.62c0-5.21,5.57-8.31,10.99-8.31
			c1.16,0,2.16,0.11,3.26,0.37v-0.53c0-0.16,0.05-0.32,0.05-0.47c0-2.42-0.37-4.99-2.73-5.1c-3.36,0.11-4.63,0.58-6.83,1.47
			c-1.05,0-1.89-2.47-1.89-3.42c0-1.79,4.89-2.79,7.57-2.79c4.47,0,8.68,0.42,8.68,9.73c0,0.74,0,1.47-0.05,2.21
			C236.45,218.27,236.35,219.32,236.24,220.27z M225.62,228.1c1.68,0,4.26-0.95,5.52-1.47c0.05-0.05,0.16-0.1,0.26-0.16
			c0,0-0.05-0.05-0.05-0.11c-0.05-0.37-0.05-0.84-0.05-1.26c0-0.84,0.05-1.63,0.11-2.63v-0.32c0.05-0.63,0.11-1.16,0.11-1.89
			c-1.05-0.16-2.05-0.16-3.05-0.16c-2.94,0-5.78,0.79-5.99,4.1c0.05,2.31,0.95,3.63,2.52,3.84
			C225.2,228.1,225.41,228.1,225.62,228.1z"/>
            <path class="st1" d="M247.33,231.52c-0.32,0.42-1.42,0.74-2.52,0.74c-1.42,0-2.73-0.42-2.73-1.05l0.05-24.13
			c0.21-0.26,0.95-1.16,3.21-1.16c2,0,2.1,1.37,2.1,1.37v1.79c1.68-2.1,3.94-3.63,7.41-3.63c5.05,0,10.78,2,10.78,14.98l-0.11,10.78
			c0,0.79-1.05,1.05-2.31,1.05c-1.37,0-3-0.42-3-1.05v-12.57c0-4.47-1.53-7.78-5.99-7.78c-1.95,0-5.15,1-6.78,3.47v17.3
			L247.33,231.52z"/>
            <path class="st1" d="M276.52,216.59v15.35c0,0-1.79,0.37-3,0.37c-0.68,0-1.37-0.1-2.16-0.52l-0.05-36.44
			c0-0.47,1.84-1.31,3.26-1.31c1.1,0,1.94,0.32,1.94,1.31l-0.05,16.35c1.73-0.84,4.57-2.63,6.78-4.05c0.37-0.21,0.68-0.47,1-0.68
			c0.42-0.26,0.89-0.58,1.26-0.79h-0.05c0.74-0.53,1.21-0.84,1.47-0.84c0.79,0,3,2,3,3.05c0,0.89-5.1,4.21-7.78,5.73
			c1.52,2.16,3.68,5.1,5.26,7.25c1.79,2.52,3.68,5.05,5.47,7.47c0.11,0.52-2.1,3.52-3.47,3.52c-0.26,0-0.68-0.21-0.89-0.47
			c-1.89-2.68-4.1-5.68-6.26-8.62c-1.74-2.37-3.36-4.68-4.94-6.83L276.52,216.59z"/>
            <path class="st1" d="M307.44,220.27c-3.68,0-6.68-0.16-6.68-0.16c0.26,5.68,3.73,7.83,7.57,7.83c1.74,0,3.52-0.42,5.42-1.1
			c0.05,0,0.21-0.05,0.26-0.05c1.1,0,2.05,2.26,2.05,3.42c0,2.16-6.1,2.58-9.04,2.58c-8.94,0-11.67-6.94-11.67-14.62
			s3.58-12.78,10.73-12.78c8.1,0,10.36,3.21,10.36,9.73c0,1-0.05,2.1-0.16,3.31C316.16,219.9,311.69,220.27,307.44,220.27z
			 M300.81,215.75c0.26,0,0.63,0.05,1.21,0.05c1.42,0.05,3.47,0.05,5.42,0.05c2.05,0,3.89,0,3.89,0.16c0-4.26-0.05-6.26-5.15-6.26
			C302.28,209.75,300.97,212.86,300.81,215.75z"/>
            <path class="st1" d="M326.47,231.52c-0.32,0.42-1.42,0.74-2.52,0.74c-1.42,0-2.73-0.42-2.73-1.05l0.05-24.13
			c0.21-0.26,0.95-1.16,3.21-1.16c2,0,2.1,1.37,2.1,1.37v1.79c1.68-2.1,3.94-3.63,7.41-3.63c5.05,0,10.78,2,10.78,14.98l-0.11,10.78
			c0,0.79-1.05,1.05-2.31,1.05c-1.37,0-3-0.42-3-1.05v-12.57c0-4.47-1.52-7.78-5.99-7.78c-1.94,0-5.15,1-6.78,3.47v17.3
			L326.47,231.52z"/>
            <path class="st1" d="M355.65,216.59v15.35c0,0-1.79,0.37-3,0.37c-0.68,0-1.37-0.1-2.16-0.52l-0.05-36.44
			c0-0.47,1.84-1.31,3.26-1.31c1.1,0,1.95,0.32,1.95,1.31l-0.05,16.35c1.74-0.84,4.57-2.63,6.78-4.05c0.37-0.21,0.68-0.47,1-0.68
			c0.42-0.26,0.89-0.58,1.26-0.79h-0.05c0.74-0.53,1.21-0.84,1.47-0.84c0.79,0,3,2,3,3.05c0,0.89-5.1,4.21-7.78,5.73
			c1.53,2.16,3.68,5.1,5.26,7.25c1.79,2.52,3.68,5.05,5.47,7.47c0.11,0.52-2.1,3.52-3.47,3.52c-0.26,0-0.68-0.21-0.89-0.47
			c-1.89-2.68-4.1-5.68-6.26-8.62c-1.73-2.37-3.36-4.68-4.94-6.83L355.65,216.59z"/>
            <path class="st1" d="M392.83,220.27c-0.16,1.31-0.32,2.68-0.32,3.94c0,2.47,0.74,4.99,3.52,6.73c-1.58,1.16-3.21,1.84-4.42,1.84
			c-1.26,0-2.42-0.58-3.31-1.84c-2.42,1.16-4.68,1.89-6.62,1.89c-3.15,0-7.62-2.05-7.62-8.62c0-5.21,5.57-8.31,10.99-8.31
			c1.16,0,2.16,0.11,3.26,0.37v-0.53c0-0.16,0.05-0.32,0.05-0.47c0-2.42-0.37-4.99-2.73-5.1c-3.36,0.11-4.63,0.58-6.83,1.47
			c-1.05,0-1.89-2.47-1.89-3.42c0-1.79,4.89-2.79,7.57-2.79c4.47,0,8.68,0.42,8.68,9.73c0,0.74,0,1.47-0.05,2.21
			C393.04,218.27,392.93,219.32,392.83,220.27z M382.21,228.1c1.68,0,4.26-0.95,5.52-1.47c0.05-0.05,0.16-0.1,0.26-0.16
			c0,0-0.05-0.05-0.05-0.11c-0.05-0.37-0.05-0.84-0.05-1.26c0-0.84,0.05-1.63,0.11-2.63v-0.32c0.05-0.63,0.11-1.16,0.11-1.89
			c-1.05-0.16-2.05-0.16-3.05-0.16c-2.94,0-5.78,0.79-5.99,4.1c0.05,2.31,0.95,3.63,2.52,3.84C381.79,228.1,382,228.1,382.21,228.1z
			"/>
            <path class="st1" d="M407.34,221.64c-8.25,0-8.78-4.1-8.78-7.73c0-5.47,4.57-8.57,9.46-8.57c2.68,0,4.78,0.84,6.94,2.84
			c0.16,0.16,0.32,0.53,0.32,0.84c0,1-1.1,3.68-2.1,3.68c-1.58-2-3.15-2.68-5.1-2.68c-2.37,0-4.31,1.16-4.31,3.89
			c0,2.05,0.53,3.26,4.05,3.26c6.15,0,8.2,2.84,8.2,7.62c0,5.94-4.1,8.15-8.62,8.15c-3.21,0-6.52-1.1-8.62-2.94h0.05
			c-0.32-0.16-0.47-0.47-0.47-0.79c0-1.37,2.31-3.42,2.84-3.42c1.31,1.26,3.79,2.21,5.94,2.21c1.95,0,3.68-0.89,3.68-3.15
			C410.81,222.95,409.97,221.64,407.34,221.64z"/>
            <path class="st1" d="M428.79,221.64c-8.26,0-8.78-4.1-8.78-7.73c0-5.47,4.57-8.57,9.46-8.57c2.68,0,4.78,0.84,6.94,2.84
			c0.16,0.16,0.32,0.53,0.32,0.84c0,1-1.1,3.68-2.1,3.68c-1.58-2-3.15-2.68-5.1-2.68c-2.37,0-4.31,1.16-4.31,3.89
			c0,2.05,0.53,3.26,4.05,3.26c6.15,0,8.2,2.84,8.2,7.62c0,5.94-4.1,8.15-8.62,8.15c-3.21,0-6.52-1.1-8.62-2.94h0.05
			c-0.32-0.16-0.47-0.47-0.47-0.79c0-1.37,2.31-3.42,2.84-3.42c1.31,1.26,3.79,2.21,5.94,2.21c1.94,0,3.68-0.89,3.68-3.15
			C432.26,222.95,431.42,221.64,428.79,221.64z"/>
            <path class="st1" d="M452.56,220.27c-3.68,0-6.68-0.16-6.68-0.16c0.26,5.68,3.73,7.83,7.57,7.83c1.73,0,3.52-0.42,5.42-1.1
			c0.05,0,0.21-0.05,0.26-0.05c1.1,0,2.05,2.26,2.05,3.42c0,2.16-6.1,2.58-9.04,2.58c-8.94,0-11.67-6.94-11.67-14.62
			s3.58-12.78,10.73-12.78c8.1,0,10.36,3.21,10.36,9.73c0,1-0.05,2.1-0.16,3.31C461.28,219.9,456.82,220.27,452.56,220.27z
			 M445.93,215.75c0.26,0,0.63,0.05,1.21,0.05c1.42,0.05,3.47,0.05,5.41,0.05c2.05,0,3.89,0,3.89,0.16c0-4.26-0.05-6.26-5.15-6.26
			C447.4,209.75,446.09,212.86,445.93,215.75z"/>
            <path class="st1" d="M485.79,205.34c1-0.05,1.89,0,2.58,0h0.58c1,0,1.63,0.05,2.42,0.11h0.37c0.21,0.05,0.42,0.05,0.68,0.05
			c0.21,0,0.53,0.05,0.79,0.05c0.58,0.11,1.05,1.1,1.05,2.26c0,1.1-0.32,2.31-1.26,2.37c0,0-2.95-0.16-5.21-0.16
			c-0.68,0-1.47,0-2,0.05v20.77c0,1.1-1.26,1.47-2.42,1.47c-1.37,0-2.68-0.52-2.73-1.1l0.05-20.87h-1.16
			c-2.47,0-2.52-0.05-2.52-2.31c0-1.26,0.16-2.37,0.95-2.37c0,0,0.53,0.05,1.16,0.05c0.53,0,1,0.05,1.53-0.05v-2.26
			c0-0.84,0.05-1.63,0.05-2.47c0.05-3.84,4.52-7.26,9.46-7.26c1.79,0,5.15,0.47,5.15,2.21c0,1.26-1.05,3.31-1.95,3.26
			c-0.74-0.37-1.79-0.58-2.89-0.58c-2.26,0-4.68,0.89-4.68,3V205.34z"/>
            <path class="st1" d="M517.07,206.65c0.26-0.47,1.37-0.74,2.52-0.74c1.31,0,2.73,0.37,2.73,1l0.05,24.45c-0.16,0.16-0.95,1-3.26,1
			c-2,0-2.1-1.37-2.1-1.37v-2.21c-1.68,2.37-3.68,4.05-7.62,4.05c-4.99,0-10.62-1.79-10.62-15.41l0.1-10.46
			c0-0.68,1.05-1.05,2.31-1.05c1.37,0,3,0.58,3,1.05v12.25c0,5.73,1.58,8.15,6.05,8.15c1.95,0,5.1-1.42,6.73-3.89v-16.61
			L517.07,206.65z M502.88,199.4c0-1.58,1.21-2.79,2.79-2.79h0.32c1.52,0,2.68,1.21,2.68,2.79v0.31c0,1.58-1.16,2.73-2.68,2.73
			h-0.32c-1.58,0-2.79-1.16-2.79-2.73V199.4z M512.97,199.4c0-1.58,1.21-2.79,2.79-2.79h0.32c1.58,0,2.68,1.21,2.68,2.79v0.31
			c0,1.58-1.1,2.73-2.68,2.73h-0.32c-1.58,0-2.79-1.16-2.79-2.73V199.4z"/>
            <path class="st1" d="M532.9,214.54v16.35c-0.63,1.21-1.58,1.58-2.47,1.58c-1.42,0-2.73-0.89-2.73-1.37v-23.82
			c0,0,0.32-1.42,2.89-1.42c2,0,2.31,1.21,2.31,1.21v1.79c1.26-1.79,3.26-3.42,6.73-3.42c1.89,0,6.1,1.53,6.1,3.31
			c0,1.31-1.37,3.47-2.26,3.36c0,0-2.21-1.37-4.15-1.37C537.11,210.75,534,212.23,532.9,214.54z"/>
            <path class="st1" d="M566.97,230.84c0,1-1.37,1.53-2.58,1.53c-1.31,0-2.52-0.47-2.52-1.31l-0.05-35.86c0-0.47,1.68-1.31,3.05-1.31
			c1.05,0,1.95,0.32,2.05,1.21L566.97,230.84z"/>
            <path class="st1" d="M578.28,231.84c-0.89,0.37-1.79,0.47-2.58,0.47c-1.47,0-2.73-0.47-2.73-0.47v-36.23c0,0-0.26-1.37,2.73-1.53
			c2.16,0.05,2.47,0.84,2.47,1.37l0.11,11.73c1.73-1.16,3.68-1.68,5.89-1.68c6.05,0,10.94,4.94,11.2,11.09v15.25
			c-1.26,0.37-2.21,0.47-2.94,0.47c-1.47,0-2.37-0.58-2.37-0.58v-15.09c-0.58-3.05-3.73-5.84-7.62-5.84c-1.53,0-3,0.42-4.15,1.05
			V231.84z"/>
            <path class="st1" d="M604.62,214.54v16.35c-0.63,1.21-1.58,1.58-2.47,1.58c-1.42,0-2.73-0.89-2.73-1.37v-23.82
			c0,0,0.32-1.42,2.89-1.42c2,0,2.31,1.21,2.31,1.21v1.79c1.26-1.79,3.26-3.42,6.73-3.42c1.89,0,6.1,1.53,6.1,3.31
			c0,1.31-1.37,3.47-2.26,3.36c0,0-2.21-1.37-4.15-1.37C608.83,210.75,605.72,212.23,604.62,214.54z"/>
            <path class="st1" d="M631.38,220.27c-3.68,0-6.68-0.16-6.68-0.16c0.26,5.68,3.73,7.83,7.57,7.83c1.74,0,3.52-0.42,5.41-1.1
			c0.05,0,0.21-0.05,0.26-0.05c1.1,0,2.05,2.26,2.05,3.42c0,2.16-6.1,2.58-9.04,2.58c-8.94,0-11.67-6.94-11.67-14.62
			s3.58-12.78,10.73-12.78c8.1,0,10.36,3.21,10.36,9.73c0,1-0.05,2.1-0.16,3.31C640.11,219.9,635.64,220.27,631.38,220.27z
			 M624.76,215.75c0.26,0,0.63,0.05,1.21,0.05c1.42,0.05,3.47,0.05,5.41,0.05c2.05,0,3.89,0,3.89,0.16c0-4.26-0.05-6.26-5.15-6.26
			C626.23,209.75,624.92,212.86,624.76,215.75z"/>
            <path class="st1" d="M672.61,232.78c-8.57,0-15.46-9.1-15.46-19.61c0-10.52,6.89-19.51,15.46-19.51c3.79,0.11,7.36,1.58,9.62,3.84
			c0.05,0.1,0.16,0.37,0.21,0.47v-0.05c0.1,0.21,0.21,0.42,0.21,0.58c0,1.16-1.84,3.42-2.73,3.42c-0.26,0-0.42,0-0.58-0.16
			c-1.84-1.84-4.26-3-6.73-3c-5.68,0-10.31,6.83-10.31,14.41c0,7.57,4.63,14.46,10.31,14.46c5.1,0,8.73-5.47,9.36-11.46
			c-0.21-0.26-1.26-0.47-2.52-0.47c-1.95,0-4.68,0.37-5.78,0.53h0.05c-0.16,0.05-0.47,0.05-0.47,0.05c-0.79,0-1.21-1.26-1.21-2.63
			c0-1.31,0.42-2.47,1.1-2.47c0.16,0,0.58,0,0.89-0.05c0.31-0.05,0.74-0.11,1.1-0.11c0.16,0,0.32-0.05,0.47-0.05
			c1.26-0.11,3-0.21,4.42-0.21c3.58,0,6.89,0.63,6.89,3.15C686.91,225.79,681.18,232.78,672.61,232.78z"/>
            <path class="st1" d="M702.37,220.27c-3.68,0-6.68-0.16-6.68-0.16c0.26,5.68,3.73,7.83,7.57,7.83c1.74,0,3.52-0.42,5.41-1.1
			c0.05,0,0.21-0.05,0.26-0.05c1.1,0,2.05,2.26,2.05,3.42c0,2.16-6.1,2.58-9.04,2.58c-8.94,0-11.67-6.94-11.67-14.62
			s3.58-12.78,10.73-12.78c8.1,0,10.36,3.21,10.36,9.73c0,1-0.05,2.1-0.16,3.31C711.09,219.9,706.63,220.27,702.37,220.27z
			 M695.74,215.75c0.26,0,0.63,0.05,1.21,0.05c1.42,0.05,3.47,0.05,5.41,0.05c2.05,0,3.89,0,3.89,0.16c0-4.26-0.05-6.26-5.15-6.26
			C697.21,209.75,695.9,212.86,695.74,215.75z"/>
            <path class="st1" d="M724.82,221.64c-8.25,0-8.78-4.1-8.78-7.73c0-5.47,4.57-8.57,9.46-8.57c2.68,0,4.78,0.84,6.94,2.84
			c0.16,0.16,0.32,0.53,0.32,0.84c0,1-1.1,3.68-2.1,3.68c-1.58-2-3.15-2.68-5.1-2.68c-2.37,0-4.31,1.16-4.31,3.89
			c0,2.05,0.53,3.26,4.05,3.26c6.15,0,8.2,2.84,8.2,7.62c0,5.94-4.1,8.15-8.62,8.15c-3.21,0-6.52-1.1-8.62-2.94h0.05
			c-0.32-0.16-0.47-0.47-0.47-0.79c0-1.37,2.31-3.42,2.84-3.42c1.31,1.26,3.79,2.21,5.94,2.21c1.95,0,3.68-0.89,3.68-3.15
			C728.29,222.95,727.45,221.64,724.82,221.64z"/>
            <path class="st1" d="M756,206.65c0.26-0.47,1.37-0.74,2.52-0.74c1.31,0,2.73,0.37,2.73,1l0.05,24.45c-0.16,0.16-0.95,1-3.26,1
			c-2,0-2.1-1.37-2.1-1.37v-2.21c-1.68,2.37-3.68,4.05-7.62,4.05c-5,0-10.62-1.79-10.62-15.41l0.11-10.46
			c0-0.68,1.05-1.05,2.31-1.05c1.37,0,3,0.58,3,1.05v12.25c0,5.73,1.58,8.15,6.05,8.15c1.94,0,5.1-1.42,6.73-3.89v-16.61L756,206.65
			z"/>
            <path class="st1" d="M771.41,231.52c-0.32,0.42-1.42,0.74-2.52,0.74c-1.42,0-2.73-0.42-2.73-1.05l0.05-24.13
			c0.21-0.26,0.95-1.16,3.21-1.16c2,0,2.1,1.37,2.1,1.37v1.79c1.68-2.1,3.94-3.63,7.41-3.63c5.05,0,10.78,2,10.78,14.98l-0.11,10.78
			c0,0.79-1.05,1.05-2.31,1.05c-1.37,0-3-0.42-3-1.05v-12.57c0-4.47-1.53-7.78-5.99-7.78c-1.94,0-5.15,1-6.78,3.47v17.3
			L771.41,231.52z"/>
            <path class="st1" d="M815.41,230.36c0,0-3.94,2.42-10.46,2.42c-7.57,0-11.99-4.78-11.99-12.51c0-8.41,5.52-14.88,13.67-14.88
			c1.21,0,2.31,0.05,3.52,0.32v-10.2c0,0,0.52-1.16,3.26-1.16c2,0,2,1.31,2,1.31V230.36z M810.26,218.85c0-2.68-0.05-5.15-0.05-7.89
			h-0.16c-0.58-0.11-1.52-0.26-2.63-0.26c-3.58,0-8.89,1.37-8.89,9.57c0,5.47,3,7.52,6.57,7.52c2.68,0,5.15-1,5.15-1V218.85z"/>
            <path class="st1" d="M826.04,231.84c-0.89,0.37-1.79,0.47-2.58,0.47c-1.47,0-2.73-0.47-2.73-0.47v-36.23c0,0-0.26-1.37,2.73-1.53
			c2.16,0.05,2.47,0.84,2.47,1.37l0.11,11.73c1.73-1.16,3.68-1.68,5.89-1.68c6.05,0,10.94,4.94,11.2,11.09v15.25
			c-1.26,0.37-2.21,0.47-2.94,0.47c-1.47,0-2.37-0.58-2.37-0.58v-15.09c-0.58-3.05-3.73-5.84-7.62-5.84c-1.53,0-3,0.42-4.15,1.05
			V231.84z"/>
            <path class="st1" d="M857.64,220.27c-3.68,0-6.68-0.16-6.68-0.16c0.26,5.68,3.73,7.83,7.57,7.83c1.74,0,3.52-0.42,5.41-1.1
			c0.05,0,0.21-0.05,0.26-0.05c1.1,0,2.05,2.26,2.05,3.42c0,2.16-6.1,2.58-9.04,2.58c-8.94,0-11.67-6.94-11.67-14.62
			s3.58-12.78,10.73-12.78c8.1,0,10.36,3.21,10.36,9.73c0,1-0.05,2.1-0.16,3.31C866.37,219.9,861.9,220.27,857.64,220.27z
			 M851.01,215.75c0.26,0,0.63,0.05,1.21,0.05c1.42,0.05,3.47,0.05,5.41,0.05c2.05,0,3.89,0,3.89,0.16c0-4.26-0.05-6.26-5.15-6.26
			C852.48,209.75,851.17,212.86,851.01,215.75z"/>
            <path class="st1" d="M872.41,199.34c0-1.21,1-2.16,2.21-2.16h1.16c1.21,0,2.16,0.95,2.16,2.16v1.16c0,1.21-0.95,2.16-2.16,2.16
			h-1.16c-1.21,0-2.21-0.95-2.21-2.16V199.34z M877.72,230.79c0,1-1.42,1.52-2.68,1.52c-1.37,0-2.58-0.47-2.58-1.31l-0.05-24.61
			c0-0.47,1.74-1.31,3.15-1.31c1.1,0,2,0.31,2.1,1.21L877.72,230.79z"/>
            <path class="st1" d="M890.87,222.48c0,4.05,0.42,5.52,4.99,5.52c0.58,0,0.95,0.74,0.95,1.68c0,1.1-0.47,2.47-1.26,2.47h-0.53
			c-1.79,0-5.1-0.05-6.52-1.26c-0.37-0.26-2.89-2.26-2.89-8.31l-0.11-11.25h-0.05c-0.11,0-0.26,0.05-0.42,0.05h-0.47
			c-2.47,0-2.63,0-2.63-1.74c0-1.42,0-3.52,1-3.52c0,0,1.26,0.05,2.21,0.05h0.42h0.05v-5.26c0,0,0-1.05,2.79-1.26
			c2.42,0,2.42,1,2.42,1.26v5.21h1.42c0.53,0,1-0.05,1.42-0.05h2.1c2,0,2.05,0.37,2.05,2.58c0,1.42-0.37,2.68-1,2.68
			c0,0-2.37-0.05-4.31-0.05h-1.68L890.87,222.48z"/>
	</g>
</g>
</svg>
