<svg version="1.2" baseProfile="tiny" id="UV_Logo" xmlns="http://www.w3.org/2000/svg" xmlns:xlink="http://www.w3.org/1999/xlink" viewBox="0 0 652 93.5" xml:space="preserve">
	<path fill="#4770B4" d="M203,11.2v34.3c0,16.3,8.1,27.4,26.8,27.4c18.7,0,26.8-11.1,26.8-27.4V11.2h-12.2v33c0,9.6-2.6,18-14.6,18 c-12.1,0-14.6-8.4-14.6-18v-33H203L203,11.2z"/>
	<path fill="#4770B4" d="M281.5,11.2h-12.2v59.6h12.2V43.5c0-10.8,0-23.8,15.7-23.8c12.5,0,14,6.9,14,17.1v34.1h12.2V35.3 c0-14.5-4.6-25.9-22.5-25.9c-7.7,0-15.3,3.4-19.1,9.8h-0.3V11.2L281.5,11.2z"/>
	<polygon fill-rule="evenodd" fill="#4770B4" points="347.9,11.2 335.7,11.2 335.7,70.9 347.9,70.9 347.9,11.2 	"/>
	<polygon fill="#4770B4" points="363.5,0 349.3,0 393.7,84.3 438,0 424,0 393.7,59.1 363.5,0 	"/>
	<path fill-rule="evenodd" fill="#4770B4" d="M490.1,43v-1.8c0-17.7-9.5-31.7-29.7-31.7c-20.5,0-30.9,13.8-30.9,32.1 c0,17.6,11.8,31.3,31.2,31.3c12.3,0,23.4-6,29.4-16.3l-10.3-5.5c-4.6,7.1-9.6,11.6-19,11.6c-11.6,0-19-9.6-19.1-19.8H490.1 L490.1,43z M442.4,34.3c1.5-8.5,8.5-14.9,18-14.9c9.8,0,16,6,17.5,14.9H442.4L442.4,34.3z"/>
	<path fill="#4770B4" d="M511.5,11.2h-12.2v59.6h12.2V41.6c0-9.7,1.6-21.2,14.8-21.2c2.8,0,5.3,0.6,7.4,2.4l5.6-10.4 c-3-1.8-6.5-2.9-10-2.9c-8.1,0-14.4,4.5-17.3,11.5h-0.4V11.2L511.5,11.2z"/>
	<path fill="#4770B4" d="M538,51.7h10.9c0.5,4.1,2.2,6.3,4.9,8.5c2.8,2.2,6.6,3.4,11.6,3.5c5,0.1,8.8-0.8,11.3-2.7 c2.5-1.9,3.7-4.2,3.8-6.8c0-2.3-1-4.2-3.1-5.6c-1.5-0.9-5.2-2.2-11.2-3.7c-8-2.1-13.6-3.8-16.7-5.2c-3.1-1.5-5.4-3.4-7-5.9 c-1.5-2.5-2.3-5.3-2.2-8.2c0-2.7,0.7-5.2,2.1-7.5c1.4-2.3,3.2-4.2,5.5-5.7c1.7-1.2,4.1-2.1,7-2.9c3-0.8,6.2-1.2,9.5-1.1 c5.1,0.1,9.5,0.9,13.3,2.3c3.8,1.4,6.6,3.4,8.4,5.8c1.8,2.4,3,7,3.6,10.9l-10.7,0c-0.4-3.1-1.8-5.9-4.1-7.7 c-2.3-1.8-5.6-2.7-9.8-2.8c-5-0.1-8.7,0.6-10.8,2.2c-2.2,1.5-3.3,3.3-3.3,5.4c0,1.3,0.4,2.6,1.3,3.6c0.9,1.1,2.3,2.1,4.2,2.8 c1.1,0.4,4.3,1.3,9.6,2.8c7.7,2.1,13.1,3.8,16.1,5.1c3.1,1.3,5.5,3.1,7.2,5.5c1.7,2.4,2.5,5.4,2.5,8.9c-0.1,3.4-1.2,6.7-3.4,9.7 c-2.2,3-5.3,5.3-9.3,6.9c-4.1,1.6-8.6,2.3-13.7,2.2c-8.4-0.1-14.8-1.9-19.2-5.3C541.8,63.6,539.1,58.2,538,51.7L538,51.7z"/>
	<path fill-rule="evenodd" fill="#4770B4" d="M605.8,51c0-8.3,8.2-15,17-15c8.8,0,17,4,17,15c0,11.1-8.2,15-17,15 C614,66,605.8,59.3,605.8,51L605.8,51z M642.1,67c-4.9,3.8-11.5,6.1-18.7,6.1c-15,0-27.2-9.9-27.2-22.1c0-12.2,12.2-22.1,27.2-22.1 c6.7,0,12.7,1.9,17.5,5.2c0-1.4,0-4.3,0-4.6c0-4.2-1-7.2-3.1-8.9c-2.8-2.3-7-3.5-12.5-3.5c-5.2,0-9,1.1-11.5,2.9 c-2.4,1.7-3.6,2.8-4.8,7.1l-11.4,0.2c1-4.3,2.6-7.8,4.8-10.4c2.2-2.7,5.5-5,9.7-6.4c4.2-1.5,9.1-2.2,14.7-2.2 c5.5,0,10,0.9,13.5,2.1c3.5,1.2,5.7,2.8,7.3,4.6c1.6,1.8,3.1,4.2,3.7,7c0.4,1.8,0.5,4.9,0.5,9.5v13.8c0,9.6,0.1,21.9,0.1,26h-10 C642,69.9,642.1,68.6,642.1,67L642.1,67z"/>
	<path fill="#4770B4" d="M172,25.9l10.6-16.4h-55.8l5.9-9.5h-23.4L91.3,29.7L73.3,0H49.9l5.9,9.5H0l10.6,16.4h43.9v1.5H11.4	l9.7,16.3h33.4v1.5h-32l9.9,16.2H55c1.9,18.1,17.6,32.1,36,32.1h0.6c18.4,0,34.1-14,36-32.1h22.6l9.9-16.2h-32v-1.5h33.4l9.7-16.3 H128v-1.5H172z M52.9,1.7h19.5l18.9,31.2l18.9-31.2h19.5l-38.3,62L52.9,1.7z M104,46.3v12.3c0,6.9-5.6,12.3-12.7,12.3 c-7.1,0-12.7-5.4-12.7-12.3V46.3l12.7,20.5L104,46.3z M168.2,29.1l-7.7,13h-34.1v4.8H157l-7.8,12.9H126l-0.1,0.8 c-1.5,17.6-16.6,31.3-34.4,31.3H91c-17.8,0-32.9-13.8-34.4-31.3l-0.1-0.8H33.4l-7.8-12.9h30.7V42H22.1l-7.7-13h41.8v-4.8H11.5 l-8.4-13h53.8l20,32.4v15c0,7.8,6.3,13.9,14.3,14c0,0,0.1,0,0.1,0c8-0.1,14.3-6.2,14.3-14v-15l20-32.4h53.8l-8.4,13h-44.7v4.8 H168.2z"/>
</svg>