<?xml version="1.0" encoding="utf-8"?>
<!-- Generator: Adobe Illustrator 21.1.0, SVG Export Plug-In . SVG Version: 6.00 Build 0)  -->
<svg version="1.1" xmlns="http://www.w3.org/2000/svg" xmlns:xlink="http://www.w3.org/1999/xlink" x="0px" y="0px"
	 viewBox="0 0 396.6 105.2" style="enable-background:new 0 0 396.6 105.2;" xml:space="preserve">
<style type="text/css">
	.st0{fill:url(#SVGID_1_);}
	.st1{fill:url(#SVGID_2_);}
	.st2{fill:url(#SVGID_3_);}
	.st3{fill:url(#SVGID_4_);}
	.st4{fill:url(#SVGID_5_);}
</style>
<g id="Text_in_Pfade">
	<g>
		<path d="M18.8,41.6c1.2-0.5,2.1-1.2,2.9-2.1c0.8-1,1.2-2.1,1.2-3.4c0-2.6-0.8-4.5-2.5-5.8c-1.7-1.3-4-1.9-6.9-1.9H1V31l3.1,0.5
			v21.9L1.1,54L1,54v2.6h13.6c2.9,0,5.2-0.7,6.9-2.1c1.7-1.4,2.5-3.4,2.5-6c0-1.7-0.5-3.3-1.5-4.6C21.6,42.8,20.3,42,18.8,41.6z
			 M18.6,52.2c-0.9,0.8-2.3,1.3-4,1.3H8.1v-10h7c1.6,0,2.8,0.5,3.6,1.4c0.8,0.9,1.2,2.2,1.2,3.8C20,50.2,19.5,51.4,18.6,52.2z
			 M8.1,40.3v-8.7h5.3c1.8,0,3.1,0.4,4.1,1.1c0.9,0.7,1.4,1.8,1.4,3.3c0,1.3-0.4,2.4-1.2,3.1c-0.8,0.8-1.9,1.1-3.2,1.2H8.1z"/>
		<polygon points="39.6,42.1 48.1,31.5 50.8,31 50.8,28.4 41.6,28.4 41.6,31 43.7,31.3 36,40.8 33.2,40.8 33.2,31.6 36.3,31 
			36.3,31 36.3,28.4 26,28.4 26,31 29.2,31.6 29.2,53.5 26.1,54 26,54 26,56.7 36.3,56.7 36.3,54 33.2,53.5 33.2,44 36.3,44 
			44.2,53.8 42.1,54 42.1,56.7 51.6,56.7 51.6,54 48.9,53.6 		"/>
		<polygon points="77,53.6 67.7,42.1 76.2,31.5 78.9,31 78.9,28.4 69.7,28.4 69.7,31 71.7,31.3 64,40.8 61.3,40.8 61.3,31.6 
			64.3,31 64.4,31 64.4,28.4 54.1,28.4 54.1,31 57.3,31.6 57.3,53.5 54.2,54 54.1,54 54.1,56.7 64.4,56.7 64.4,54 61.3,53.5 
			61.3,44 64.4,44 72.3,53.8 70.2,54 70.2,56.7 79.6,56.7 79.6,54 		"/>
	</g>
	<g>
		<path d="M12.7,69.8l-3.4,0.5l8.4,24.3l0.8,2.9h0.2l0.8-2.9l8.3-24.3l-3.4-0.5v-3.3h11.8v3.3l-3,0.4l-12.5,33.7h-4.3L3.9,70.2
			l-3-0.4v-3.3h11.8V69.8z"/>
		<path d="M46.9,104.4c-3.9,0-6.9-1.3-9.2-3.9c-2.3-2.6-3.4-5.9-3.4-10v-1.1c0-3.9,1.2-7.2,3.5-9.9c2.3-2.6,5.1-3.9,8.3-3.9
			c3.7,0,6.5,1.1,8.5,3.4c1.9,2.3,2.9,5.3,2.9,9v3.2h-18l-0.1,0.1c0.1,2.7,0.7,4.9,2,6.6c1.3,1.7,3.1,2.6,5.5,2.6
			c1.7,0,3.2-0.2,4.5-0.7c1.3-0.5,2.4-1.2,3.3-2l2,3.3c-1,1-2.3,1.8-3.9,2.4C51.1,104.1,49.2,104.4,46.9,104.4z M46.1,79.6
			c-1.7,0-3.1,0.7-4.3,2.1c-1.2,1.4-1.9,3.2-2.2,5.4l0.1,0.1h12.8v-0.7c0-2-0.5-3.6-1.6-5S48.2,79.6,46.1,79.6z"/>
		<path d="M61.3,79.4v-3.3H70l0.5,4c0.8-1.4,1.8-2.5,2.9-3.3c1.2-0.8,2.5-1.2,4-1.2c0.4,0,0.8,0,1.2,0.1c0.4,0.1,0.7,0.1,1,0.2
			l-0.7,4.7L76,80.4c-1.3,0-2.5,0.3-3.4,0.9C71.7,82,71,82.9,70.5,84v15.9l4.2,0.7v3.2H61.3v-3.2l4.2-0.7V80.1L61.3,79.4z"/>
		<path d="M107.6,91c0,4-1,7.2-2.9,9.7c-1.9,2.5-4.6,3.7-7.9,3.7c-1.8,0-3.4-0.3-4.7-1s-2.4-1.7-3.3-3.1l-0.5,3.6h-4.4v-36l-4.2-0.7
			v-3.3h9.2v15.5c0.9-1.2,2-2.2,3.2-2.8c1.3-0.6,2.8-1,4.5-1c3.4,0,6.1,1.4,8,4.1c1.9,2.7,2.9,6.3,2.9,10.8V91z M102.5,90.5
			c0-3.2-0.6-5.8-1.7-7.8c-1.2-2-2.9-3-5.3-3c-1.6,0-2.9,0.4-3.9,1.1c-1.1,0.8-1.9,1.8-2.6,3v12.3c0.6,1.3,1.5,2.3,2.6,3.1
			c1.1,0.8,2.4,1.1,4,1.1c2.4,0,4.1-0.8,5.3-2.5c1.2-1.7,1.7-3.9,1.7-6.7V90.5z"/>
		<path d="M131.2,99.8c-0.9,1.5-2,2.6-3.4,3.4c-1.4,0.8-3,1.2-4.8,1.2c-3,0-5.4-1-7-2.9c-1.7-1.9-2.5-4.9-2.5-9V80.1l-3.2-0.7v-3.3
			h3.2h5v16.4c0,3,0.4,5,1.3,6.1c0.9,1.1,2.2,1.7,4.1,1.7c1.8,0,3.3-0.4,4.4-1.1c1.2-0.7,2.1-1.8,2.7-3.1v-16l-3.7-0.7v-3.3h3.7h5
			v23.8l3.2,0.7v3.2h-7.7L131.2,99.8z"/>
		<path d="M142.7,100.6l4.2-0.7V80.1l-4.2-0.7v-3.3h8.7l0.4,4.1c0.9-1.5,2.1-2.6,3.5-3.4c1.4-0.8,3-1.2,4.8-1.2c3,0,5.3,0.9,6.9,2.6
			c1.6,1.8,2.5,4.5,2.5,8.1v13.6l4.2,0.7v3.2h-13.4v-3.2l4.2-0.7V86.4c0-2.4-0.5-4.2-1.4-5.2c-1-1-2.4-1.5-4.4-1.5
			c-1.5,0-2.7,0.4-3.9,1.1s-2,1.7-2.7,2.9v16.3l4.2,0.7v3.2h-13.4V100.6z"/>
		<path d="M194.8,100.5c-0.9,1.3-2,2.2-3.3,2.9s-2.8,1-4.5,1c-3.4,0-6-1.2-7.9-3.7c-1.9-2.5-2.9-5.7-2.9-9.7v-0.5
			c0-4.5,1-8.1,2.9-10.8c1.9-2.7,4.6-4.1,8-4.1c1.6,0,3.1,0.3,4.3,0.9c1.3,0.6,2.3,1.5,3.2,2.6V67.8l-4.2-0.7v-3.3h4.2h5v36l4.2,0.7
			v3.2h-8.6L194.8,100.5z M181.2,91c0,2.8,0.6,5,1.7,6.7c1.1,1.7,2.9,2.5,5.3,2.5c1.5,0,2.8-0.3,3.8-1c1-0.7,1.9-1.6,2.5-2.9V83.5
			c-0.6-1.2-1.5-2.1-2.5-2.8c-1-0.7-2.3-1-3.7-1c-2.4,0-4.2,1-5.3,3c-1.2,2-1.7,4.6-1.7,7.8V91z"/>
		<path d="M224.3,66.5c4,0,7.1,1,9.3,3.1c2.2,2.1,3.3,4.8,3.3,8.1c0,3.4-1.1,6.1-3.3,8.1c-2.2,2-5.3,3.1-9.3,3.1h-7.9v11l4.2,0.7
			v3.2h-13.4v-3.2l4.2-0.7V70.5l-4.2-0.7v-3.3h4.2H224.3z M216.4,84.9h7.9c2.5,0,4.4-0.7,5.7-2c1.3-1.4,1.9-3.1,1.9-5.1
			c0-2.1-0.6-3.8-1.9-5.2c-1.3-1.4-3.1-2.1-5.7-2.1h-7.9V84.9z"/>
		<path d="M238.1,67.1v-3.3h9.2v36l4.2,0.7v3.2h-13.4v-3.2l4.2-0.7V67.8L238.1,67.1z"/>
		<path d="M273.5,99.8c-0.9,1.5-2,2.6-3.4,3.4c-1.4,0.8-3,1.2-4.8,1.2c-3,0-5.4-1-7-2.9c-1.7-1.9-2.5-4.9-2.5-9V80.1l-3.2-0.7v-3.3
			h3.2h5v16.4c0,3,0.4,5,1.3,6.1c0.9,1.1,2.2,1.7,4.1,1.7c1.8,0,3.3-0.4,4.4-1.1s2.1-1.8,2.7-3.1v-16l-3.7-0.7v-3.3h3.7h5v23.8
			l3.2,0.7v3.2h-7.7L273.5,99.8z"/>
		<path d="M306,84.8h-3.8l-0.8-3.3c-0.6-0.6-1.4-1-2.3-1.4c-0.9-0.3-2-0.5-3.2-0.5c-1.8,0-3.1,0.4-4,1.2c-0.9,0.8-1.3,1.7-1.3,2.8
			c0,1.1,0.4,2,1.2,2.6c0.8,0.6,2.3,1.2,4.7,1.7c3.5,0.8,6.1,1.8,7.8,3.1c1.7,1.3,2.6,3,2.6,5.2c0,2.5-1,4.5-3,6
			c-2,1.5-4.6,2.3-7.8,2.3c-2.1,0-4-0.2-5.7-0.7c-1.7-0.5-3.2-1.2-4.5-2.1l0-6.3h3.8l0.9,3.7c0.6,0.5,1.4,0.9,2.4,1.2
			c1,0.2,2,0.4,3.1,0.4c1.8,0,3.2-0.4,4.2-1.1c1-0.7,1.5-1.7,1.5-2.9c0-1.1-0.4-2-1.3-2.7c-0.8-0.7-2.4-1.3-4.8-1.9
			c-3.4-0.7-5.9-1.7-7.6-3s-2.6-3-2.6-5.1c0-2.3,1-4.2,2.9-5.8c1.9-1.6,4.4-2.4,7.5-2.4c2.1,0,4,0.3,5.7,0.8
			c1.7,0.5,3.1,1.3,4.2,2.3L306,84.8z"/>
	</g>
</g>
<g id="Logo">
	
		<linearGradient id="SVGID_1_" gradientUnits="userSpaceOnUse" x1="18603.1074" y1="4991.7051" x2="18685.0137" y2="4991.7051" gradientTransform="matrix(-0.4153 0 0 -0.6098 8109.2852 3110.0547)">
		<stop  offset="0" style="stop-color:#D9262B"/>
		<stop  offset="1" style="stop-color:#ED9100"/>
	</linearGradient>
	<polygon class="st0" points="349.4,56.7 383.4,56.7 383.4,75.6 349.4,75.6 	"/>
	
		<linearGradient id="SVGID_2_" gradientUnits="userSpaceOnUse" x1="28649.1699" y1="4446.1694" x2="28728.957" y2="4446.1694" gradientTransform="matrix(-0.2665 0 0 -0.691 8004.4155 3089.8679)">
		<stop  offset="0" style="stop-color:#FFD618"/>
		<stop  offset="1" style="stop-color:#E97C04"/>
	</linearGradient>
	<polygon class="st1" points="349.4,7.1 370.6,7.1 370.6,28.3 349.4,28.3 	"/>
	
		<linearGradient id="SVGID_3_" gradientUnits="userSpaceOnUse" x1="-5369.4253" y1="-2837.3772" x2="-5291.1182" y2="-2837.3772" gradientTransform="matrix(1.3273 0 0 1 7419.5244 2879.8967)">
		<stop  offset="0" style="stop-color:#EF7D00"/>
		<stop  offset="1" style="stop-color:#BE1925"/>
	</linearGradient>
	<rect x="292.7" y="28.3" class="st2" width="103.9" height="28.3"/>
	
		<linearGradient id="SVGID_4_" gradientUnits="userSpaceOnUse" x1="2942.5242" y1="-7644.729" x2="2942.5242" y2="-7616.3936" gradientTransform="matrix(0 -1.1931 1.0004 0 7968.6724 3553.375)">
		<stop  offset="0" style="stop-color:#18407E"/>
		<stop  offset="1" style="stop-color:#36A9E1"/>
	</linearGradient>
	<polygon class="st3" points="349.4,0 349.4,85 321,85 321,0 	"/>
	
		<linearGradient id="SVGID_5_" gradientUnits="userSpaceOnUse" x1="3428.7275" y1="-3372.949" x2="3350.4497" y2="-3372.949" gradientTransform="matrix(-0.3621 0 0 -0.9903 1562.6423 -3297.6819)">
		<stop  offset="0" style="stop-color:#4DB05B"/>
		<stop  offset="1" style="stop-color:#125428"/>
	</linearGradient>
	<polygon class="st4" points="321,28.3 349.4,28.3 349.4,56.7 321,56.7 	"/>
</g>
<g id="Hilfslinien">
</g>
</svg>
