<?xml version="1.0" encoding="UTF-8" standalone="no"?>
<!-- Created with Inkscape (http://www.inkscape.org/) -->

<svg
   xmlns:dc="http://purl.org/dc/elements/1.1/"
   xmlns:cc="http://creativecommons.org/ns#"
   xmlns:rdf="http://www.w3.org/1999/02/22-rdf-syntax-ns#"
   xmlns:svg="http://www.w3.org/2000/svg"
   xmlns="http://www.w3.org/2000/svg"
   xmlns:sodipodi="http://sodipodi.sourceforge.net/DTD/sodipodi-0.dtd"
   xmlns:inkscape="http://www.inkscape.org/namespaces/inkscape"
   width="157.2525"
   height="50.917999"
   id="svg2"
   version="1.1"
   inkscape:version="0.48.5 r10040"
   sodipodi:docname="Neues Dokument 1">
  <defs
     id="defs4">
    <clipPath
       id="clipPath4509"
       clipPathUnits="userSpaceOnUse">
      <path
         id="path4511"
         d="m 0,0.242 595.275,0 0,841.648 L 0,841.89 0,0.242 z"
         inkscape:connector-curvature="0" />
    </clipPath>
    <clipPath
       id="clipPath4417"
       clipPathUnits="userSpaceOnUse">
      <path
         id="path4419"
         d="m 450.473,788.278 117.802,0 0,36.232 -117.802,0 0,-36.232 z"
         inkscape:connector-curvature="0" />
    </clipPath>
    <clipPath
       id="clipPath4389"
       clipPathUnits="userSpaceOnUse">
      <path
         id="path4391"
         d="m 450.473,791.777 117.802,0 0,32.735 -117.802,0 0,-32.735 z"
         inkscape:connector-curvature="0" />
    </clipPath>
  </defs>
  <sodipodi:namedview
     id="base"
     pagecolor="#ffffff"
     bordercolor="#666666"
     borderopacity="1.0"
     inkscape:pageopacity="0.0"
     inkscape:pageshadow="2"
     inkscape:zoom="3.959798"
     inkscape:cx="72.596578"
     inkscape:cy="-0.03096291"
     inkscape:document-units="px"
     inkscape:current-layer="layer1"
     showgrid="false"
     fit-margin-top="5"
     fit-margin-left="5"
     fit-margin-right="5"
     fit-margin-bottom="5"
     inkscape:window-width="905"
     inkscape:window-height="704"
     inkscape:window-x="225"
     inkscape:window-y="225"
     inkscape:window-maximized="0" />
  <metadata
     id="metadata7">
    <rdf:RDF>
      <cc:Work
         rdf:about="">
        <dc:format>image/svg+xml</dc:format>
        <dc:type
           rdf:resource="http://purl.org/dc/dcmitype/StillImage" />
        <dc:title></dc:title>
      </cc:Work>
    </rdf:RDF>
  </metadata>
  <g
     inkscape:label="Ebene 1"
     inkscape:groupmode="layer"
     id="layer1"
     transform="translate(-525.77089,-21.00255)">
    <g
       id="g4385"
       transform="matrix(1.25,0,0,-1.25,-32.320357,1056.6418)">
      <g
         id="g4387"
         clip-path="url(#clipPath4389)">
        <g
           id="g4393"
           transform="translate(520.924,819.8334)">
          <path
             inkscape:connector-curvature="0"
             d="m 0,0 c 0.208,0.174 0.235,0.484 0.061,0.692 -0.14,0.166 -0.621,0.69 -0.768,0.833 -2.006,1.952 -4.746,3.153 -7.766,3.153 -6.152,0 -11.139,-4.987 -11.139,-11.139 0,-6.152 4.987,-11.14 11.139,-11.14 2.697,0 5.17,0.958 7.096,2.553 1.044,0.975 1.294,1.248 1.438,1.419 0.174,0.208 0.147,0.517 -0.061,0.692 -0.051,0.043 -1.897,1.591 -1.941,1.629 -0.208,0.174 -0.518,0.147 -0.692,-0.061 -0.096,-0.114 -0.774,-0.928 -1.746,-1.524 -1.182,-0.754 -2.587,-1.191 -4.094,-1.191 -4.21,0 -7.623,3.413 -7.623,7.623 0,4.21 3.413,7.623 7.623,7.623 1.799,0 3.452,-0.623 4.756,-1.665 0.267,-0.214 0.932,-0.885 1.084,-1.066 0.174,-0.207 0.484,-0.234 0.691,-0.06 C -1.931,-1.62 -0.014,-0.011 0,0"
             style="fill:#202021;fill-opacity:1;fill-rule:nonzero;stroke:none"
             id="path4395" />
        </g>
        <g
           id="g4397"
           transform="translate(495.8098,791.9115)">
          <path
             inkscape:connector-curvature="0"
             d="m 0,0 0.835,0 0,3.23 L 3.644,0 4.825,0 1.805,3.365 4.53,6.09 3.374,6.09 0.835,3.425 0.835,6.09 0,6.09 0,0 z m 7.33,0 0.801,0 0,2.252 c 0,0.725 0.22,1.282 1.156,1.282 0.093,0 0.168,0 0.227,-0.008 0.06,-0.009 0.11,-0.017 0.152,-0.034 l 0,0.776 C 9.531,4.277 9.354,4.285 9.118,4.251 8.764,4.201 8.258,4.006 8.106,3.416 l -0.017,0.818 -0.802,0 C 7.313,3.956 7.33,3.661 7.33,3.374 L 7.33,0 z m 8.198,0 c -0.059,0.43 -0.067,0.995 -0.067,1.063 l 0.034,2.024 c 0,0.194 -0.009,0.396 -0.144,0.65 -0.228,0.43 -0.885,0.624 -1.501,0.624 -0.447,0 -1.046,-0.102 -1.367,-0.456 -0.244,-0.287 -0.27,-0.582 -0.295,-0.801 l 0.793,0 c 0.009,0.169 0.051,0.717 0.852,0.717 0.227,0 0.574,-0.068 0.734,-0.278 0.152,-0.186 0.152,-0.414 0.152,-0.936 -0.245,0.016 -0.372,0.025 -0.574,0.025 -0.338,0 -1.012,-0.025 -1.468,-0.279 -0.624,-0.362 -0.742,-0.902 -0.742,-1.239 0,-0.701 0.523,-1.249 1.493,-1.249 0.354,0 0.928,0.068 1.307,0.768 0,-0.22 0.017,-0.422 0.076,-0.633 l 0.717,0 z M 14.719,2.058 C 14.701,1.468 14.693,1.231 14.516,0.945 14.322,0.65 14.019,0.489 13.614,0.489 c -0.709,0 -0.877,0.464 -0.877,0.734 0,0.86 1.206,0.86 1.526,0.86 0.194,0 0.312,-0.008 0.456,-0.025 M 18.565,0 l 0.792,0 0,2.438 c 0,0.852 0.532,1.265 1.105,1.265 0.271,0 0.549,-0.093 0.751,-0.287 0.194,-0.194 0.228,-0.447 0.228,-0.725 l 0,-2.691 0.81,0 0,2.876 c 0,1.299 -1.156,1.443 -1.536,1.443 -0.961,0 -1.265,-0.591 -1.358,-0.768 l -0.008,0.683 -0.793,0 0.009,-0.489 0,-3.745 z m 6.73,0 0.785,0 0,2.286 1.695,-2.286 1.038,0 -1.899,2.438 1.789,1.796 -1.038,0 -1.585,-1.729 0,3.627 -0.785,0 0,-6.132 z m 9.59,1.974 c 0.018,0.691 0.059,2.37 -1.838,2.37 -0.245,0 -0.751,-0.025 -1.156,-0.312 -0.666,-0.464 -0.835,-1.156 -0.835,-1.99 0,-1.342 0.633,-2.169 1.966,-2.169 0.852,0 1.273,0.355 1.459,0.566 0.303,0.329 0.337,0.675 0.362,0.885 l -0.792,0 C 33.983,0.717 33.57,0.447 33.055,0.447 c -0.869,0 -1.231,0.649 -1.214,1.527 l 3.044,0 z m -3.01,0.557 c 0.016,0.936 0.641,1.248 1.155,1.248 0.979,0 1.054,-0.844 1.046,-1.248 l -2.201,0 z M 37.779,0 l 0.792,0 0,2.438 c 0,0.852 0.532,1.265 1.105,1.265 0.271,0 0.549,-0.093 0.751,-0.287 0.194,-0.194 0.228,-0.447 0.228,-0.725 l 0,-2.691 0.81,0 0,2.876 c 0,1.299 -1.156,1.443 -1.536,1.443 -0.961,0 -1.265,-0.591 -1.358,-0.768 l -0.008,0.683 -0.793,0 0.009,-0.489 0,-3.745 z m 6.773,0 0.784,0 0,2.286 1.695,-2.286 1.038,0 -1.898,2.438 1.788,1.796 -1.037,0 -1.586,-1.729 0,3.627 -0.784,0 0,-6.132 z m 9.446,0 c -0.059,0.43 -0.067,0.995 -0.067,1.063 l 0.034,2.024 c 0,0.194 -0.009,0.396 -0.144,0.65 -0.227,0.43 -0.886,0.624 -1.501,0.624 -0.447,0 -1.046,-0.102 -1.366,-0.456 C 50.709,3.618 50.683,3.323 50.658,3.104 l 0.793,0 c 0.009,0.169 0.051,0.717 0.852,0.717 0.228,0 0.574,-0.068 0.734,-0.278 0.152,-0.186 0.152,-0.414 0.152,-0.936 -0.245,0.016 -0.372,0.025 -0.574,0.025 -0.337,0 -1.012,-0.025 -1.468,-0.279 -0.624,-0.362 -0.742,-0.902 -0.742,-1.239 0,-0.701 0.523,-1.249 1.493,-1.249 0.354,0 0.928,0.068 1.307,0.768 0,-0.22 0.017,-0.422 0.076,-0.633 l 0.717,0 z M 53.189,2.058 C 53.172,1.468 53.163,1.231 52.986,0.945 52.792,0.65 52.489,0.489 52.084,0.489 c -0.709,0 -0.877,0.464 -0.877,0.734 0,0.86 1.206,0.86 1.526,0.86 0.194,0 0.312,-0.008 0.456,-0.025 m 3.525,-0.801 c -0.008,-1.021 0.793,-1.375 1.653,-1.375 0.439,0 0.886,0.059 1.257,0.287 0.312,0.194 0.574,0.599 0.574,1.071 0,0.27 -0.085,0.565 -0.321,0.784 -0.253,0.236 -0.506,0.304 -1.678,0.583 -0.22,0.058 -0.599,0.151 -0.599,0.539 0,0.607 0.742,0.607 0.86,0.607 0.287,0 0.844,-0.05 0.819,-0.691 l 0.809,0 c 0,0.177 0,0.379 -0.109,0.616 -0.254,0.506 -0.996,0.657 -1.527,0.657 -0.979,0 -1.654,-0.506 -1.654,-1.282 0,-0.885 0.743,-1.062 1.628,-1.265 0.633,-0.143 0.928,-0.219 0.928,-0.632 0,-0.144 -0.05,-0.287 -0.135,-0.397 -0.168,-0.21 -0.413,-0.27 -0.742,-0.27 -0.767,0 -0.936,0.448 -0.928,0.768 l -0.835,0 z m 5.921,0 c -0.008,-1.021 0.793,-1.375 1.653,-1.375 0.439,0 0.886,0.059 1.257,0.287 0.312,0.194 0.574,0.599 0.574,1.071 0,0.27 -0.085,0.565 -0.321,0.784 -0.253,0.236 -0.506,0.304 -1.678,0.583 -0.22,0.058 -0.599,0.151 -0.599,0.539 0,0.607 0.742,0.607 0.86,0.607 0.287,0 0.844,-0.05 0.819,-0.691 l 0.809,0 c 0,0.177 0,0.379 -0.11,0.616 -0.253,0.506 -0.995,0.657 -1.526,0.657 -0.978,0 -1.653,-0.506 -1.653,-1.282 0,-0.885 0.742,-1.062 1.628,-1.265 0.632,-0.143 0.928,-0.219 0.928,-0.632 0,-0.144 -0.051,-0.287 -0.135,-0.397 -0.169,-0.21 -0.414,-0.27 -0.743,-0.27 -0.767,0 -0.936,0.448 -0.927,0.768 l -0.836,0 z m 9.827,0.717 c 0.017,0.691 0.059,2.37 -1.839,2.37 -0.245,0 -0.751,-0.025 -1.155,-0.312 -0.667,-0.464 -0.836,-1.156 -0.836,-1.99 0,-1.342 0.633,-2.169 1.966,-2.169 0.851,0 1.273,0.355 1.459,0.566 0.303,0.329 0.337,0.675 0.363,0.885 l -0.793,0 C 71.559,0.717 71.146,0.447 70.631,0.447 c -0.869,0 -1.231,0.649 -1.214,1.527 l 3.045,0 z M 69.45,2.531 c 0.018,0.936 0.641,1.248 1.156,1.248 0.978,0 1.054,-0.844 1.046,-1.248 l -2.202,0 z"
             style="fill:#202021;fill-opacity:1;fill-rule:nonzero;stroke:none"
             id="path4399" />
        </g>
        <g
           id="g4401"
           transform="translate(557.4422,802.4689)">
          <path
             inkscape:connector-curvature="0"
             d="m 0,0 c 0.675,0 1.287,0.064 1.683,0.967 2.478,5.657 5.911,13.071 8.823,19.555 0.399,0.89 0.526,1.285 -0.215,1.285 l -2.456,0 c -0.689,0 -0.711,0 -1.516,-1.858 0,0 -5.309,-11.876 -6.021,-13.432 l 0,0.004 C 0.293,6.509 0.288,6.497 0.283,6.486 0.258,6.431 0.24,6.39 0.23,6.369 0.123,6.147 0.055,6.035 -0.004,6.012 -0.061,6.035 -0.131,6.147 -0.237,6.369 -0.247,6.39 -0.266,6.431 -0.291,6.486 -0.296,6.497 -0.301,6.509 -0.306,6.521 l 0.001,-0.004 c -0.712,1.556 -6.021,13.432 -6.021,13.432 -0.805,1.858 -0.828,1.858 -1.516,1.858 l -2.456,0 c -0.742,0 -0.615,-0.395 -0.215,-1.285 C -7.601,14.038 -4.169,6.624 -1.69,0.967 -1.295,0.064 -0.625,0 -0.008,0"
             style="fill:#202021;fill-opacity:1;fill-rule:nonzero;stroke:none"
             id="path4403" />
        </g>
        <g
           id="g4405"
           transform="translate(501.63229,803.7534)">
          <path
             inkscape:connector-curvature="0"
             d="m 0,0 c -2.912,6.485 -6.344,13.898 -8.822,19.555 -0.396,0.904 -1.066,0.968 -1.684,0.968 l -0.007,0 c -0.675,0 -1.287,-0.064 -1.683,-0.968 -2.478,-5.657 -5.911,-13.07 -8.823,-19.555 -0.399,-0.89 -0.527,-1.285 0.215,-1.285 l 2.456,0 c 0.079,0 0.147,10e-4 0.211,0.004 0.292,-0.022 0.733,0.181 1.837,0.713 0,0 6.51,3.036 10.445,4.872 0.946,-2.115 1.668,-3.73 1.668,-3.73 0.806,-1.859 0.828,-1.859 1.516,-1.859 l 2.457,0 C 0.527,-1.285 0.4,-0.89 0,0 m -7.309,7.551 c -2.237,-1.036 -5.459,-2.531 -8.077,-3.746 1.626,3.636 4.105,9.172 4.575,10.2 l 0,-0.004 c 0.005,0.012 0.01,0.024 0.015,0.036 0.024,0.054 0.043,0.095 0.054,0.117 0.105,0.221 0.175,0.333 0.233,0.357 0.058,-0.024 0.127,-0.136 0.233,-0.357 0.01,-0.022 0.029,-0.063 0.054,-0.117 0.005,-0.012 0.01,-0.024 0.015,-0.036 l -10e-4,0.004 c 0.325,-0.708 1.603,-3.56 2.899,-6.454"
             style="fill:#ee7620;fill-opacity:1;fill-rule:nonzero;stroke:none"
             id="path4407" />
        </g>
        <g
           id="g4409"
           transform="translate(461.3073,802.4689)">
          <path
             inkscape:connector-curvature="0"
             d="m 0,0 c 0.675,0 1.287,0.064 1.683,0.967 2.478,5.657 5.911,13.071 8.823,19.555 0.399,0.89 0.526,1.285 -0.215,1.285 l -2.457,0 c -0.688,0 -0.71,0 -1.516,-1.858 0,0 -5.309,-11.876 -6.02,-13.432 l 0,0.004 C 0.293,6.509 0.288,6.497 0.283,6.486 0.258,6.431 0.24,6.39 0.229,6.369 0.123,6.147 0.054,6.035 -0.004,6.012 -0.061,6.035 -0.131,6.147 -0.237,6.369 -0.247,6.39 -0.266,6.431 -0.291,6.486 -0.296,6.497 -0.301,6.509 -0.306,6.521 l 0,-0.004 c -0.711,1.556 -6.02,13.432 -6.02,13.432 -0.806,1.858 -0.828,1.858 -1.516,1.858 l -2.457,0 c -0.741,0 -0.614,-0.395 -0.215,-1.285 C -7.602,14.038 -4.169,6.624 -1.691,0.967 -1.295,0.064 -0.625,0 -0.008,0"
             style="fill:#202021;fill-opacity:1;fill-rule:nonzero;stroke:none"
             id="path4411" />
        </g>
      </g>
    </g>
    <g
       id="g4413"
       transform="matrix(1.25,0,0,-1.25,-32.320357,1056.6418)">
      <g
         id="g4415"
         clip-path="url(#clipPath4417)">
        <g
           id="g4421"
           transform="translate(544.1534,823.4169)">
          <path
             inkscape:connector-curvature="0"
             d="m 0,0 c 0,0.474 -0.384,0.859 -0.859,0.859 l -1.99,0 C -3.323,0.859 -3.708,0.474 -3.708,0 l 0,-20.091 c 0,-0.474 0.385,-0.859 0.859,-0.859 l 1.99,0 c 0.475,0 0.859,0.385 0.859,0.859 L 0,0 z"
             style="fill:#202021;fill-opacity:1;fill-rule:nonzero;stroke:none"
             id="path4423" />
        </g>
        <g
           id="g4425"
           transform="translate(477.9874,823.4169)">
          <path
             inkscape:connector-curvature="0"
             d="m 0,0 c 0,0.474 -0.384,0.859 -0.859,0.859 l -1.99,0 C -3.323,0.859 -3.708,0.474 -3.708,0 l 0,-20.091 c 0,-0.474 0.385,-0.859 0.859,-0.859 l 1.99,0 c 0.475,0 0.859,0.385 0.859,0.859 L 0,0 z"
             style="fill:#202021;fill-opacity:1;fill-rule:nonzero;stroke:none"
             id="path4427" />
        </g>
        <g
           id="g4429"
           transform="translate(537.4335,821.55431)">
          <path
             inkscape:connector-curvature="0"
             d="m 0,0 0,1.864 c 0,0.474 -0.384,0.859 -0.859,0.859 l -12.794,0 c -0.474,0 -0.859,-0.385 -0.859,-0.859 l 0,-1.864 c 0,-0.475 0.385,-0.859 0.859,-0.859 l 4.543,0 0,-17.368 c 0,-0.474 0.384,-0.858 0.859,-0.858 l 1.99,0 c 0.474,0 0.859,0.384 0.859,0.858 l 0,17.368 4.543,0 C -0.384,-0.859 0,-0.475 0,0"
             style="fill:#202021;fill-opacity:1;fill-rule:nonzero;stroke:none"
             id="path4431" />
        </g>
      </g>
    </g>
  </g>
</svg>
