<svg id="Ebene_1" data-name="Ebene 1" xmlns="http://www.w3.org/2000/svg" width="12cm" height="3.15cm" viewBox="0 0 340.16 89.31">
  <defs>
    <style>
      .cls-1 {
        fill: #008bd2;
      }

      .cls-2 {
        fill: #15265a;
      }
    </style>
  </defs>
  <path class="cls-1" d="M77.34,4A13.92,13.92,0,0,0,57.92,4h0L39.67,22.27a27.39,27.39,0,0,0,19.36,8c7.57,0,15.15-2.62,19.4-8A13.72,13.72,0,0,0,77.34,4Z" transform="translate(0 -0.07)"/>
  <path class="cls-2" d="M59.39,31.92a28.92,28.92,0,0,1-20.61-8.54L37.59,22.2h0L19.43,4,0,23.45,38.85,62.3,72.18,29A28.93,28.93,0,0,1,59.39,31.92Z" transform="translate(0 -0.07)"/>
  <polygon class="cls-1" points="289.71 17.62 294.59 17.62 294.59 43.33 305.66 29.34 311.19 29.34 300.13 43.01 312.82 58.63 306.96 58.63 294.59 43.33 294.59 58.63 289.71 58.63 289.71 17.62"/>
  <polygon class="cls-1" points="317.05 17.62 321.93 17.62 321.93 43.33 333 29.34 338.53 29.34 327.47 43.01 340.16 58.63 334.3 58.63 321.93 43.33 321.93 58.63 317.05 58.63 317.05 17.62"/>
  <path class="cls-1" d="M280.18,44.05c0-6.18-4.23-10.41-9.11-10.41S262,37.87,262,44.05s4.23,10.42,9.11,10.42,9.11-4.23,9.11-10.42M257.73,17.69h4.88V33a11.32,11.32,0,0,1,8.79-3.91c7.48,0,13.67,6.19,13.67,15s-6.19,15-13.67,15a11.67,11.67,0,0,1-8.79-3.59l-1.3,3.26h-3.58Z" transform="translate(0 -0.07)"/>
  <path class="cls-2" d="M242.5,28.63l-.78,1.75h0a14.78,14.78,0,0,0-7.27-1.9,15,15,0,0,0-14.92,15.23A15,15,0,0,0,234.45,59,14.71,14.71,0,0,0,241.76,57h0l.74,1.67h6.93V28.63ZM234.45,51c-3.49,0-6.35-2.86-6.35-7.3s2.86-7.3,6.35-7.3,6.35,2.86,6.35,7.3S237.94,51,234.45,51Z" transform="translate(0 -0.07)"/>
  <polygon class="cls-2" points="110.8 28.7 104.29 48.22 97.79 28.7 88.35 28.7 90.26 33.7 93.56 42.38 99.74 58.63 108.85 58.63 120.23 28.7 110.8 28.7"/>
  <rect class="cls-2" x="123.48" y="28.7" width="8.78" height="29.93"/>
  <polygon class="cls-2" points="151.46 48.22 144.95 28.7 135.52 28.7 146.9 58.63 156.01 58.63 167.4 28.7 157.96 28.7 151.46 48.22"/>
  <rect class="cls-2" x="170.65" y="28.7" width="8.78" height="29.93"/>
  <path class="cls-2" d="M206.1,17.71V31.05a12,12,0,0,0-7.48-2.6c-7.48,0-14,6.5-14,15.29S191.14,59,198.62,59a12.76,12.76,0,0,0,8.46-3.25l1.3,2.93h6.51v-41Zm-6.18,33.18c-3.58,0-6.5-2.93-6.5-7.15s2.92-7.16,6.5-7.16,6.51,2.93,6.51,7.16S203.5,50.89,199.92,50.89Z" transform="translate(0 -0.07)"/>
  <path class="cls-2" d="M128,15.76a5,5,0,0,0-4.88,4.88,4.88,4.88,0,1,0,9.76,0A5,5,0,0,0,128,15.76" transform="translate(0 -0.07)"/>
  <path class="cls-2" d="M175.2,15.76a5,5,0,0,0-4.88,4.88,4.88,4.88,0,0,0,9.76,0,5,5,0,0,0-4.88-4.88" transform="translate(0 -0.07)"/>
  <rect class="cls-1" x="94.33" y="75.46" width="1.75" height="13.74"/>
  <path class="cls-1" d="M99.56,75.53h1.64v5.13A3.7,3.7,0,0,1,104,79.35a4,4,0,0,1,3.81,4.25v5.68h-1.63V83.6a2.51,2.51,0,0,0-2.4-2.72,2.55,2.55,0,0,0-2.62,2.72v5.68H99.56Z" transform="translate(0 -0.07)"/>
  <path class="cls-1" d="M110.8,79.46H112l.43,1.09a3.83,3.83,0,0,1,2.84-1.2h.22V81h-.44a2.55,2.55,0,0,0-2.62,2.72v5.57H110.8Z" transform="translate(0 -0.07)"/>
  <path class="cls-1" d="M124.32,83.71a2.84,2.84,0,0,0-5.67,0Zm1.42,3a4.4,4.4,0,0,1-4.14,2.73,5,5,0,0,1-.11-10A4.6,4.6,0,0,1,126,84.26a3,3,0,0,1-.11.87h-7.2a3.06,3.06,0,0,0,2.95,2.73,3,3,0,0,0,2.4-1.2Z" transform="translate(0 -0.07)"/>
  <polygon class="cls-1" points="133.59 75.46 135.34 75.46 135.34 82.22 140.68 75.46 142.76 75.46 137.41 82.22 143.19 89.2 141.12 89.2 135.34 82.22 135.34 89.2 133.59 89.2 133.59 75.46"/>
  <path class="cls-1" d="M144.72,79.46h1.2l.43,1.09a3.83,3.83,0,0,1,2.84-1.2h.22V81H149a2.55,2.55,0,0,0-2.62,2.72v5.57h-1.63Z" transform="translate(0 -0.07)"/>
  <path class="cls-1" d="M157.26,84.8c-3.92,0-4.58.66-4.58,1.75a1.51,1.51,0,0,0,1.64,1.31,2.73,2.73,0,0,0,2.94-2.29Zm0,3.39a3.9,3.9,0,0,1-2.94,1.2,3,3,0,0,1-3.28-3c0-1.85,1.31-3.16,6.22-3.16v-.55a2,2,0,0,0-2.07-1.85,1.74,1.74,0,0,0-2,1.42h-1.75a3.45,3.45,0,0,1,3.71-3,3.49,3.49,0,0,1,3.71,3.38v6.55h-1.2Z" transform="translate(0 -0.07)"/>
  <path class="cls-1" d="M161.84,79.46H163l.44,1.09a3.8,3.8,0,0,1,2.83-1.2,4,4,0,0,1,3.82,4.25v5.68H168.5V83.6a2.51,2.51,0,0,0-2.4-2.72,2.55,2.55,0,0,0-2.62,2.72v5.68h-1.64Z" transform="translate(0 -0.07)"/>
  <polygon class="cls-1" points="173.19 75.46 174.82 75.46 174.82 84.08 178.53 79.39 180.38 79.39 176.68 83.97 180.93 89.2 178.97 89.2 174.82 84.08 174.82 89.2 173.19 89.2 173.19 75.46"/>
  <path class="cls-1" d="M189,83.71a2.84,2.84,0,0,0-5.67,0Zm1.42,3a4.41,4.41,0,0,1-4.15,2.73,5,5,0,0,1-.1-10,4.6,4.6,0,0,1,4.47,4.91,3,3,0,0,1-.11.87h-7.2a3.06,3.06,0,0,0,2.94,2.73,2.93,2.93,0,0,0,2.4-1.2Z" transform="translate(0 -0.07)"/>
  <path class="cls-1" d="M193,79.46h1.2l.43,1.09a3.81,3.81,0,0,1,2.84-1.2,4,4,0,0,1,3.82,4.25v5.68h-1.64V83.6a2.51,2.51,0,0,0-2.4-2.72,2.55,2.55,0,0,0-2.62,2.72v5.68H193Z" transform="translate(0 -0.07)"/>
  <polygon class="cls-1" points="204.38 75.46 206.01 75.46 206.01 84.08 209.72 79.39 211.58 79.39 207.87 83.97 212.12 89.2 210.16 89.2 206.01 84.08 206.01 89.2 204.38 89.2 204.38 75.46"/>
  <path class="cls-1" d="M219.21,84.8c-3.92,0-4.58.66-4.58,1.75a1.51,1.51,0,0,0,1.64,1.31,2.73,2.73,0,0,0,2.94-2.29Zm0,3.39a3.9,3.9,0,0,1-2.94,1.2,3,3,0,0,1-3.27-3c0-1.85,1.31-3.16,6.21-3.16v-.55a2,2,0,0,0-2.07-1.85,1.75,1.75,0,0,0-2,1.42h-1.75a3.45,3.45,0,0,1,3.71-3,3.49,3.49,0,0,1,3.71,3.38v6.55h-1.2Z" transform="translate(0 -0.07)"/>
  <path class="cls-1" d="M224.78,86.33a1.76,1.76,0,0,0,2,1.53,1.54,1.54,0,0,0,1.74-1.42c0-2.18-5.12-.54-5.12-4.25a3,3,0,0,1,3.27-2.84,3.06,3.06,0,0,1,3.38,3h-1.63a1.54,1.54,0,0,0-1.75-1.42A1.5,1.5,0,0,0,225,82.19c0,2.18,5.13.54,5.13,4.25,0,1.64-1.31,3-3.38,3a3.27,3.27,0,0,1-3.6-3.06Z" transform="translate(0 -0.07)"/>
  <path class="cls-1" d="M233.61,86.33a1.76,1.76,0,0,0,2,1.53c1.09,0,1.75-.66,1.75-1.42,0-2.18-5.13-.54-5.13-4.25a3,3,0,0,1,3.28-2.84,3.06,3.06,0,0,1,3.38,3h-1.64a1.53,1.53,0,0,0-1.74-1.42,1.49,1.49,0,0,0-1.64,1.31c0,2.18,5.13.54,5.13,4.25,0,1.64-1.31,3-3.39,3a3.27,3.27,0,0,1-3.6-3.06Z" transform="translate(0 -0.07)"/>
  <path class="cls-1" d="M248.23,83.71a2.84,2.84,0,0,0-5.68,0Zm1.41,3a4.4,4.4,0,0,1-4.14,2.73,5,5,0,0,1-.11-10,4.6,4.6,0,0,1,4.47,4.91,3,3,0,0,1-.11.87h-7.2a3.06,3.06,0,0,0,2.95,2.73,3,3,0,0,0,2.4-1.2Z" transform="translate(0 -0.07)"/>
</svg>
