<?xml version="1.0" encoding="utf-8"?>
<!-- Generator: Adobe Illustrator 24.1.2, SVG Export Plug-In . SVG Version: 6.00 Build 0)  -->
<svg version="1.1" id="Logo" xmlns="http://www.w3.org/2000/svg" xmlns:xlink="http://www.w3.org/1999/xlink" x="0px" y="0px"
	 viewBox="0 0 3200.76 307.89" style="enable-background:new 0 0 3200.76 307.89;" xml:space="preserve">
<style type="text/css">
	.st0{fill:#FFFFFF;}
	.st1{fill:#F84914;}
</style>
<path id="Wortmarke" d="M427.92,76.49l26.59,103.49l31.07-103.49h41.64l31.07,103.49l26.58-103.49h49.97l-53.17,174.84h-44.2
	l-31.07-106.06l-31.07,106.06h-44.2L377.95,76.49H427.92z M656.28,182.87V76.49h49.65v103.17c0,25.07,8.97,33.75,26.58,33.75
	s26.58-8.68,26.58-33.75V76.49h49.65v106.38c0,50.14-32.03,72.63-76.23,72.63C688.31,255.5,656.28,233,656.28,182.87z M664.29,29.57
	c0-14.78,10.57-27,27.55-27c16.97,0,27.55,12.21,27.55,27c0,14.78-10.57,27-27.55,27C674.86,56.56,664.29,44.35,664.29,29.57z
	 M745.65,29.57c0-14.78,10.57-27,27.55-27s27.55,12.21,27.55,27c0,14.78-10.57,27-27.55,27S745.65,44.35,745.65,29.57z
	 M895.22,76.49v18.96c8.01-15.75,24.02-23.14,39.4-23.14c8.01,0,16.01,1.61,19.54,2.57v46.6c-7.37-2.25-15.69-4.18-24.02-4.18
	c-16.65,0-26.58,7.71-31.39,18.64v115.38H849.1V76.49H895.22z M992.27,76.49V29.57h49.65v46.92h35.55v40.5h-35.55v74.24
	c0,17.35,7.05,22.18,16.66,22.18c7.37,0,14.41-2.57,22.42-6.43v41.46c-9.61,3.86-23.06,7.07-37.15,7.07
	c-33.63,0-51.57-16.07-51.57-50.78v-87.74h-21.14v-40.5H992.27z M1123.27,76.49V29.57h49.65v46.92h35.55v40.5h-35.55v74.24
	c0,17.35,7.05,22.18,16.66,22.18c7.37,0,14.41-2.57,22.42-6.43v41.46c-9.61,3.86-23.06,7.07-37.15,7.07
	c-33.63,0-51.57-16.07-51.57-50.78v-87.74h-21.14v-40.5H1123.27z M1232.81,165.83c0-51.1,27.55-93.52,80.08-93.52
	c47.4,0,76.55,33.75,76.55,88.7c0,6.11-0.32,11.25-0.96,17.35h-106.02c0.64,21.85,11.85,35.03,34.27,35.03
	c16.02,0,30.11-9.64,37.16-18l28.83,32.46c-20.5,20.57-42.6,27.64-65.98,27.64C1262.27,255.5,1232.81,221.11,1232.81,165.83z
	 M1341.39,142.7c-0.64-18.32-9.61-29.89-28.83-29.89c-16.98,0-28.51,9.96-30.11,29.89H1341.39z M1628.05,149.77
	c0-25.07-8.97-35.35-26.58-35.35c-13.13,0-22.74,7.71-27.55,16.71c0.32,4.5,0.64,9,0.64,13.82v106.38h-49.65V149.77
	c0-25.07-8.97-35.35-26.58-35.35c-13.13,0-22.1,7.71-26.91,17.03v119.88h-49.65V76.49h46.12v16.39
	c10.57-13.18,26.58-20.57,45.8-20.57c25.3,0,41.64,7.71,50.93,23.46c10.89-12.53,28.51-23.46,51.57-23.46
	c44.2,0,61.5,22.5,61.5,72.63v106.38h-49.65V149.77z M1771.6,236.54v14.78h-46.12V20.57h49.65v69.1
	c8.01-9.32,21.46-17.36,41.64-17.36c36.83,0,69.19,30.21,69.19,91.6s-32.35,91.6-69.19,91.6
	C1797.54,255.5,1780.25,247.15,1771.6,236.54z M1835.66,163.91c0-31.82-13.77-49.49-31.71-49.49c-12.17,0-22.42,5.46-28.83,14.46
	v70.06c6.41,9,16.65,14.46,28.83,14.46C1821.89,213.4,1835.66,195.72,1835.66,163.91z M1911.88,165.83
	c0-51.1,27.55-93.52,80.08-93.52c47.4,0,76.55,33.75,76.55,88.7c0,6.11-0.32,11.25-0.96,17.35h-106.02
	c0.64,21.85,11.85,35.03,34.27,35.03c16.02,0,30.11-9.64,37.16-18l28.83,32.46c-20.5,20.57-42.6,27.64-65.98,27.64
	C1941.35,255.5,1911.88,221.11,1911.88,165.83z M2020.46,142.7c-0.64-18.32-9.61-29.89-28.83-29.89c-16.98,0-28.51,9.96-30.11,29.89
	H2020.46z M2146.98,76.49v18.96c8.01-15.75,24.02-23.14,39.4-23.14c8.01,0,16.01,1.61,19.54,2.57v46.6
	c-7.37-2.25-15.69-4.18-24.02-4.18c-16.66,0-26.58,7.71-31.39,18.64v115.38h-49.65V76.49H2146.98z M2227.69,284.75l16.98-36.32
	c14.73,9.64,32.03,17.36,56.37,17.36c21.46,0,30.11-10.29,30.11-30.21v-11.57c-8.01,9.32-20.82,15.43-41,15.43
	c-36.83,0-68.54-26.03-68.54-83.56s31.71-83.56,68.54-83.56c19.22,0,35.88,8.36,44.52,18.96V76.49h46.12v151.7
	c0,51.74-27.55,79.7-79.76,79.7C2272.85,307.89,2245.63,296.96,2227.69,284.75z M2331.15,182.87v-53.99
	c-6.4-9-15.37-14.46-27.55-14.46c-17.94,0-31.71,13.82-31.71,41.46s13.77,41.46,31.71,41.46
	C2315.77,197.33,2324.74,191.87,2331.15,182.87z M2422.14,28.28c0-15.43,10.89-28.28,28.83-28.28c17.94,0,28.83,12.85,28.83,28.28
	c0,15.43-10.89,28.28-28.83,28.28C2433.03,56.56,2422.14,43.71,2422.14,28.28z M2475.95,76.49v174.84h-49.65V76.49H2475.95z
	 M2506.69,233l17.3-38.89c17.94,12.21,37.79,20.57,57.97,20.57c11.21,0,18.26-4.82,18.26-12.85c0-7.07-3.84-10.61-14.41-13.82
	l-29.79-8.68c-24.66-7.07-43.24-24.75-43.24-50.46c0-31.18,21.46-56.57,68.22-56.57c23.38,0,49.65,9.32,65.98,21.53l-19.54,36.64
	c-17.94-11.57-35.23-17.35-48.37-17.35c-11.85,0-16.01,5.46-16.01,10.93c0,4.5,1.6,9,10.57,11.57l29.79,8.68
	c29.47,8.68,47.08,27.32,47.08,53.67c0,34.07-24.98,57.53-67.26,57.53C2551.85,255.5,2523.99,245.54,2506.69,233z M2758.76,72.31
	c32.03,0,51.89,12.86,69.83,38.57l-33.63,27.32c-9.93-15.43-18.58-23.78-34.59-23.78c-24.66,0-34.91,22.82-34.91,49.49
	c0,26.68,10.25,49.49,34.91,49.49c16.01,0,24.66-8.36,34.59-23.78l33.63,27.32c-17.94,25.71-37.79,38.57-69.83,38.57
	c-50.93,0-83.6-37.92-83.6-91.6C2675.16,110.24,2707.83,72.31,2758.76,72.31z M2906.73,20.57v69.74c10.57-11.57,24.02-18,43.24-18
	c44.2,0,61.82,22.5,61.82,72.63v106.38h-49.65V149.77c0-25.07-9.93-35.35-27.55-35.35c-13.13,0-23.06,7.71-27.87,17.03v119.88
	h-49.65V20.57H2906.73z M3044.13,165.83c0-51.1,27.55-93.52,80.08-93.52c47.41,0,76.55,33.75,76.55,88.7
	c0,6.11-0.32,11.25-0.96,17.35h-106.02c0.64,21.85,11.85,35.03,34.27,35.03c16.01,0,30.11-9.64,37.16-18l28.83,32.46
	c-20.5,20.57-42.6,27.64-65.98,27.64C3073.6,255.5,3044.13,221.11,3044.13,165.83z M3152.71,142.7
	c-0.64-18.32-9.61-29.89-28.83-29.89c-16.98,0-28.51,9.96-30.11,29.89H3152.71z"/>
<g id="Bildmarke_7_">
	<rect id="Fond_4_" y="4.62" class="st0" width="283.46" height="283.46"/>
	<path id="Bildmarke_8_" class="st1" d="M0,4.62v283.46h283.46V4.62H0z M138.77,230.62l12.67,14.36
		c-4.09,6.61-10.26,6.68-10.26,6.68s-8.58,0.64-10-8.08C130.31,238.27,134.98,233.82,138.77,230.62z M135.61,210.92
		c-0.15-3.14,1.62-6.6,5.42-7.24c3.43-0.57,6.03,2.05,6.61,5.06c1.19,6.13-6.27,10.37-6.27,10.37S135.83,215.59,135.61,210.92z
		 M244.18,251.32h-32.34l-14.63-64.3l-13.93,64.3h-11.73l-7.98-8.71c0,0,4.02-7.65,5.48-15.38h-9.14c-0.87,4.16-3.21,8.2-3.21,8.2
		l-9.2-10.43c0,0,11.4-6.77,9.1-17.82c-1.41-6.83-7.94-13.34-17.74-11.77c-8.1,1.3-14.11,9.45-11.91,18.83
		c1.28,5.45,5.8,9.23,5.8,9.23s-15.11,8.74-12.88,22.76c0.26,1.64,0.93,3.38,2,5.09h-21.56l-14.61-64.3l-13.95,64.3H39.27
		l-23.82-95.55h29.5l13.53,65.52l14.61-65.52h25.58l14.89,65.38l13.6-65.38h29.3l13.53,65.52l14.61-65.52h25.58l14.89,65.38
		l13.53-65.38h29.36L244.18,251.32z"/>
</g>
</svg>
