<svg height="512" viewBox="0 0 32 32" width="512" xmlns="http://www.w3.org/2000/svg">
  <g fill="#8099e8">
    <path d="m28 15h-3a1 1 0 0 0 0 2h3v11h-24v-11h3a1 1 0 0 0 0-2h-3a2.0023 2.0023 0 0 0 -2 2v11a2.0023 2.0023 0 0 0 2 2h24a2.0023 2.0023 0 0 0 2-2v-11a2.0023 2.0023 0 0 0 -2-2z"/>
    <path d="m10.707 9.707 4.293-4.2929v19.5859a1 1 0 0 0 2 0v-19.5859l4.293 4.2929a1 1 0 0 0 1.414-1.414l-6-6c-.0089-.009-.0211-.0117-.03-.02a.9853.9853 0 0 0 -.2938-.1965l-.0035-.0009c-.0085-.0035-.0177-.0033-.0263-.0066a.9888.9888 0 0 0 -.3163-.0616c-.0336-.0012-.0655.0029-.0992.005a.9809.9809 0 0 0 -.2509.0489.918.918 0 0 0 -.0958.0342.9821.9821 0 0 0 -.2978.1978l-6 6a1 1 0 0 0 1.414 1.414z"/>
  </g>
</svg>
