<svg xmlns="http://www.w3.org/2000/svg" xmlns:xlink="http://www.w3.org/1999/xlink" width="222px" height="312px" viewBox="0 0 222 312"><title>Rectangle Copy 9</title><defs><linearGradient x1="50%" y1="0%" x2="50%" y2="100%" id="linearGradient-1"><stop stop-color="#99E880" offset="0%"></stop><stop stop-color="#8099E8" offset="100%"></stop></linearGradient></defs><g id="Web" stroke="none" stroke-width="1" fill="none" fill-rule="evenodd"><g id="Homepage_desktopV3" transform="translate(0.000000, -11921.000000)" stroke="url(#linearGradient-1)"><g id="Mask" transform="translate(0.000000, 11820.000000)"><path d="M142.772318,100.5 C162.920489,100.5 183.06866,108.186268 198.441196,123.558804 C213.813732,138.93134 221.5,159.079511 221.5,179.227682 C221.5,199.375852 213.813732,219.524023 198.441196,234.896559 L198.441196,234.896559 L43.896559,389.441196 C28.524023,404.813732 8.37585227,412.5 -11.7723185,412.5 C-31.9204892,412.5 -52.0686599,404.813732 -67.4411959,389.441196 C-82.813732,374.06866 -90.5,353.920489 -90.5,333.772318 C-90.5,313.624148 -82.813732,293.475977 -67.4411959,278.103441 L-67.4411959,278.103441 L87.103441,123.558804 C102.475977,108.186268 122.624148,100.5 142.772318,100.5 Z" id="Rectangle-Copy-9" transform="translate(65.500000, 256.500000) scale(1, -1) translate(-65.500000, -256.500000) "></path></g></g></g></svg>