<?xml version="1.0" encoding="UTF-8"?>
<svg width="150px" height="151px" viewBox="0 0 150 151" version="1.1" xmlns="http://www.w3.org/2000/svg" xmlns:xlink="http://www.w3.org/1999/xlink">
    <title>Rectangle Copy 9</title>
    <defs>
        <linearGradient x1="50%" y1="0%" x2="50%" y2="100%" id="linearGradient-1">
            <stop stop-color="#99E880" offset="0%"></stop>
            <stop stop-color="#8099E8" offset="100%"></stop>
        </linearGradient>
    </defs>
    <g id="Web" stroke="none" stroke-width="1" fill="none" fill-rule="evenodd">
        <g id="Homepage_desktopV3" transform="translate(-1678.000000, -12252.000000)" stroke="url(#linearGradient-1)">
            <path d="M1790.03146,12253.0069 C1799.6205,12253.0069 1809.20953,12256.665 1816.52572,12263.9812 C1823.84191,12271.2974 1827.5,12280.8864 1827.5,12290.4755 C1827.5,12300.0645 1823.84191,12309.6536 1816.52572,12316.9697 L1816.52572,12316.9697 L1742.46279,12391.0327 C1735.14661,12398.3489 1725.55757,12402.0069 1715.96854,12402.0069 C1706.3795,12402.0069 1696.79047,12398.3489 1689.47428,12391.0327 C1682.15809,12383.7165 1678.5,12374.1274 1678.5,12364.5384 C1678.5,12354.9494 1682.15809,12345.3603 1689.47428,12338.0441 L1689.47428,12338.0441 L1763.53721,12263.9812 C1770.85339,12256.665 1780.44243,12253.0069 1790.03146,12253.0069 Z" id="Rectangle-Copy-9" transform="translate(1753.000000, 12327.506944) scale(-1, -1) translate(-1753.000000, -12327.506944) "></path>
        </g>
    </g>
</svg>