<svg xmlns="http://www.w3.org/2000/svg" xmlns:xlink="http://www.w3.org/1999/xlink" width="228px" height="166px" viewBox="0 0 228 166"><title>Rectangle Copy 9</title><defs><linearGradient x1="50%" y1="0%" x2="50%" y2="100%" id="linearGradient-1"><stop stop-color="#99E880" offset="0%"></stop><stop stop-color="#8099E8" offset="100%"></stop></linearGradient></defs><g id="Web" stroke="none" stroke-width="1" fill="none" fill-rule="evenodd"><g id="Homepage_desktopV3" transform="translate(-43.000000, -6778.000000)" stroke="url(#linearGradient-1)"><g id="Mask" transform="translate(0.000000, 6510.000000)"><path d="M212.896961,269.006944 C227.504933,269.006944 242.112905,274.579698 253.258411,285.725204 C264.403918,296.870711 269.976671,311.478683 269.976671,326.086654 C269.976671,340.694626 264.403918,355.302598 253.258411,366.448105 L253.258411,366.448105 L140.94116,478.765356 C129.795654,489.910862 115.187682,495.483616 100.57971,495.483616 C85.9717384,495.483616 71.3637667,489.910862 60.21826,478.765356 C49.0727533,467.619849 43.5,453.011877 43.5,438.403905 C43.5,423.795934 49.0727533,409.187962 60.21826,398.042455 L60.21826,398.042455 L172.535511,285.725204 C183.681018,274.579698 198.288989,269.006944 212.896961,269.006944 Z" id="Rectangle-Copy-9" transform="translate(156.738336, 382.245280) scale(1, -1) translate(-156.738336, -382.245280) "></path></g></g></g></svg>