<?xml version="1.0" encoding="UTF-8"?>
<svg width="60px" height="60px" viewBox="0 0 60 60" version="1.1" xmlns="http://www.w3.org/2000/svg" xmlns:xlink="http://www.w3.org/1999/xlink">
    <title>Group 2 Copy</title>
    <g id="Logo" stroke="none" stroke-width="1" fill="none" fill-rule="evenodd">
        <g id="Artboard" transform="translate(-559.000000, -674.000000)" fill="#676C75">
            <g id="Group" transform="translate(559.824324, 674.500000)">
                <path d="M25.5259061,58.6033978 C25.4698319,58.6042448 25.4137577,58.6050072 25.3577682,58.6058745 C23.7680389,58.60992 22.1869495,58.4909105 20.6124671,58.2760159 C20.5554611,58.269409 20.4985398,58.262802 20.4417033,58.2561951 C20.3766504,58.2323085 20.3135458,58.1982574 20.2463753,58.1858059 C16.6176455,57.5154565 13.3018132,56.1120766 10.310737,53.9476291 C9.8454566,53.6109297 9.38475022,53.2677928 8.92201094,52.9276206 C8.92201094,52.9276206 8.9093053,52.915762 8.90939001,52.9158467 C8.72829233,52.6767266 8.5020473,52.4906314 8.24098882,52.3451942 C8.24098882,52.3451942 8.21608578,52.3197829 8.21625518,52.3197829 C8.19922963,52.3052138 8.18211937,52.2905599 8.16509382,52.2759061 C8.15526813,52.2565088 8.1406143,52.2419397 8.12138643,52.2323681 C8.12164054,52.2323681 8.11842178,52.1965382 8.11842178,52.1965382 L8.08369304,52.1869667 C8.05802766,52.1703646 8.03253168,52.1537626 8.006951,52.1371606 C7.8293262,51.9193013 7.65475076,51.6983079 7.40521206,51.5545648 C7.37573498,51.5260195 7.3461732,51.4973894 7.31661142,51.4689288 C7.28984488,51.4413999 7.26307834,51.413871 7.23614239,51.3863422 L5.45464275,49.4389069 C5.407886,49.2805947 5.3020057,49.1622628 5.18968787,49.0484203 C4.78141342,48.4653163 4.41345819,47.8528199 3.930644,47.3241808 C3.93293102,47.2406624 3.8926965,47.1864517 3.81586975,47.1573981 C3.47832334,46.5432923 3.14145457,45.9287631 2.80314582,45.3150808 C2.27332078,44.3542806 1.84031269,43.3474013 1.48768893,42.3127389 C-1.11120666,34.6868159 -0.313716212,27.4272388 3.9485166,20.5875405 C5.6752973,17.8163565 7.94452397,15.5315443 10.6260062,13.6617828 C10.7504367,13.5748762 10.8993468,13.509654 10.9680419,13.3576946 C10.9958249,13.3471912 11.0236079,13.3367726 11.0513909,13.326354 C11.4842296,13.1869308 11.8455779,12.9124891 12.2076038,12.6591387 C12.6565363,12.3448859 13.1937306,12.1888607 13.6113225,11.82819 C13.6996691,11.8297994 13.7885238,11.8344582 13.8517979,11.7552597 C13.8793268,11.7533115 13.9043145,11.7444175 13.9267611,11.7284084 C13.95717,11.7090112 13.9874094,11.6896139 14.0178182,11.6702166 C14.296834,11.5479884 14.5758498,11.4257602 14.8548655,11.3036167 C14.9976769,11.2838806 15.1046583,11.2025645 15.2005436,11.10219 C16.2929742,10.7183951 17.3840495,10.3302802 18.5009597,10.0212791 C19.2904879,9.90574254 20.0658706,9.72286608 20.8396438,9.53236624 C20.9080849,9.5255899 20.9765259,9.51881356 21.0449669,9.51203722 C21.1565224,9.52686046 21.2664685,9.53236624 21.3609985,9.45393011 C22.3169705,9.39150308 23.2675216,9.26258322 24.2289994,9.25574507 C24.5938206,9.25326576 24.7149477,9.32780549 24.7091878,9.71397214 C24.683353,11.4615054 24.6853012,13.2094621 24.68564,14.9573342 C24.6859788,17.0169179 24.684793,19.0765862 24.7093572,21.1359158 C24.7138465,21.5147132 24.6011052,21.5989939 24.2367075,21.6091584 C18.1267363,21.7799222 12.9336039,26.6736251 12.4151292,32.7319267 C11.8682786,39.1226077 15.9647452,44.7207959 22.237518,46.0038957 C26.1377248,46.801725 29.6675201,45.8560868 32.6995084,43.2670169 C35.4535822,40.9154577 36.8471364,37.8739825 37.0068886,34.2652429 C37.0191707,33.9897847 37.0967598,33.9069439 37.369931,33.9073675 C41.2506559,33.9143132 45.1313808,33.916092 49.012021,33.9039793 C49.3669318,33.9029628 49.3500756,34.0868558 49.3445698,34.3265688 C49.2713007,37.5494805 48.6366965,40.6532134 47.3576624,43.6168455 C47.0293488,44.377659 46.6629182,45.1219551 46.3139367,45.87379 C46.2887796,45.8827687 46.2786151,45.9003024 46.2832738,45.9265608 C46.107936,46.0669157 46.0234012,46.2610578 45.9614824,46.4686679 C45.9436945,46.4762066 45.9384428,46.4889122 45.9456427,46.5067001 C45.6559542,46.743872 45.5199192,47.0848913 45.3431414,47.3983817 C45.3215418,47.4288752 45.2998575,47.4593687 45.2781732,47.4898623 C45.2433598,47.5455977 45.2086311,47.601333 45.1739023,47.6570684 C44.8643083,48.109135 44.4771252,48.5076685 44.2395298,49.0095411 L44.1605855,49.0507074 L44.1238238,49.0595166 L44.1176404,49.0948383 C44.1019701,49.1215201 44.0862151,49.1482866 44.0705449,49.1750532 C44.04615,49.2051232 44.0219246,49.2351932 43.9976145,49.2652632 C43.7919526,49.5139549 43.586206,49.7626465 43.3804594,50.0113382 C43.3309074,50.0840991 43.2812707,50.1567754 43.2317187,50.2295363 C42.6944397,50.7841797 42.1573301,51.3389078 41.6200511,51.8936359 C40.9434336,52.4601378 40.2667314,53.0267245 39.5901139,53.5933112 C39.5332774,53.6340539 39.4764408,53.6747967 39.419689,53.7154547 C39.419689,53.7152853 39.3817415,53.7233322 39.3817415,53.7233322 L39.3711534,53.7606021 C39.3553985,53.7630585 39.3439634,53.7715289 39.3370176,53.785844 C39.3121146,53.8049024 39.2871268,53.8240456 39.2621391,53.843104 L39.250704,53.8518286 C39.2203799,53.8741905 39.1899711,53.8966371 39.1596469,53.918999 C39.1310169,53.9358552 39.1024716,53.9527113 39.0740957,53.969398 C39.0408916,53.964824 39.0229343,53.9798167 39.0203085,54.0140372 C39.0203085,54.0140372 38.9977771,54.0305545 38.9978618,54.0305545 C38.9704177,54.0515612 38.9429735,54.0726525 38.9155293,54.0937439 C38.9155293,54.0937439 38.9088377,54.0989108 38.9089224,54.0989108 C38.5474047,54.2850061 38.21223,54.510404 37.9039912,54.775613 C37.9039912,54.775613 37.8961138,54.7803565 37.8961985,54.7803565 C37.4005939,55.0287093 36.9202362,55.3027275 36.4672379,55.6232484 C36.4672379,55.6232484 36.4566498,55.62994 36.4566498,55.62994 C36.2904601,55.7040562 36.1204587,55.7708032 35.9586736,55.8534745 C33.7581421,56.9777539 31.4470715,57.7665199 29.0118245,58.2052878 C27.8563739,58.4134909 26.6888106,58.4795602 25.5259061,58.6033978" id="Fill-1"></path>
                <path d="M43.2989146,0.00961029066 C45.1904451,0.00969499491 47.0819755,0.0200289126 48.9732519,0.00105516211 C49.350101,-0.00275652883 49.4497979,0.109561298 49.4479344,0.478109459 C49.4339582,3.20228262 49.4481038,5.92654049 49.4313324,8.65071365 C49.4291301,9.02417466 49.5250153,9.1226857 49.8990692,9.12048339 C52.6232424,9.10430488 55.347585,9.11836578 58.0717581,9.10489781 C58.4385275,9.10311902 58.5792213,9.16927303 58.577293,9.58246033 C58.559824,13.379328 58.5616875,17.1763651 58.5753249,20.9734022 C58.5766801,21.3477103 58.4736798,21.4490166 58.1011505,21.446899 C55.3769773,21.4316522 52.6526348,21.4455437 49.9284616,21.4308899 C49.5564406,21.428857 49.4268431,21.5026344 49.4298077,21.9096382 C49.4497979,24.6337267 49.4320947,27.3580693 49.4491203,30.0822424 C49.4516614,30.4771336 49.3353625,30.57412 48.9508052,30.5727647 C45.1819746,30.5587885 41.413144,30.5565862 37.6443982,30.5745674 C37.2019879,30.5766611 37.1066956,30.4384238 37.1093215,30.0217636 C37.1269399,27.3117361 37.1100838,24.6015391 37.127787,21.8915115 C37.1302434,21.5068696 37.0151303,21.4275864 36.6511562,21.4296193 C33.9268983,21.4451202 31.2026405,21.4310593 28.4783826,21.4462213 C28.0936559,21.4483389 27.9766794,21.3510138 27.9804064,20.9512097 C27.9998883,18.9089057 27.9539786,16.8655006 27.9989566,14.8240436 C28.0169139,14.008257 28.0760374,13.1892517 28.0342782,12.3762604 C27.9858274,11.4320622 28.0225044,10.4888804 27.9826934,9.54671514 C27.9672772,9.18138574 28.0957735,9.10337313 28.4391645,9.10498251 C31.1762974,9.11760344 33.9135151,9.10438958 36.6507327,9.11887401 C37.0146221,9.1207375 37.1299046,9.0388285 37.1273635,8.65528768 C37.1096603,5.94534483 37.1255847,3.23514787 37.1084744,0.525120314 C37.1059333,0.121843413 37.2108818,-0.00453531794 37.6246621,0 C39.5159384,0.0212994762 41.4074689,0.00944088218 43.2989146,0.00961029066" id="Fill-4"></path>
            </g>
        </g>
    </g>
</svg>