<svg xmlns="http://www.w3.org/2000/svg" xmlns:xlink="http://www.w3.org/1999/xlink" width="90px" height="91px" viewBox="0 0 90 91"><title>Group 4</title><g id="Icons" stroke="none" stroke-width="1" fill="none" fill-rule="evenodd"><g id="Thankyou-Page" transform="translate(-548.000000, -146.000000)" fill-rule="nonzero"><g id="Group-4" transform="translate(548.000000, 146.000000)"><circle id="Oval" fill-opacity="0.4" fill="#99E880" cx="44.5284642" cy="46.4715358" r="44.5284642"></circle><g id="package-box" transform="translate(0.796528, -0.000000)" fill="#404652"><path d="M69.332551,17.0238209 L35.5394822,0.127286473 C35.1998489,-0.0424288244 34.8001511,-0.0424288244 34.4605178,0.127286473 L0.667449011,17.0238209 C0.258249165,17.2282986 1.78221401e-05,17.6465475 1.78221401e-05,18.1039922 L1.78221401e-05,51.897061 C-0.00247299744,52.3566776 0.256296755,52.7778219 0.667449011,52.9832667 L34.4605178,69.8798011 C34.8001511,70.0495164 35.1998489,70.0495164 35.5394822,69.8798011 L69.332551,52.9832667 C69.7437032,52.7778219 70.002473,52.3566776 69.9999822,51.897061 L69.9999822,18.1039922 C69.9999822,17.6465475 69.7417508,17.2282986 69.332551,17.0238209 Z M35,33.6512176 L25.5656993,28.9334638 L55.7211856,12.9143423 L66.1004853,18.1039922 L35,33.6512176 Z M15.9105368,24.1058826 L46.0660231,8.08676107 L53.066016,11.5867611 L22.9141503,27.6082928 L15.9105368,24.1058826 Z M14.4827797,26.0912254 L21.7241515,29.7119113 L21.7241515,39.3284532 L18.9567406,36.5610422 C18.7304565,36.3346897 18.423528,36.2074902 18.1034656,36.2074219 L14.4827797,36.2074219 L14.4827797,26.0912254 Z M35,2.55676674 L43.4144741,6.75917622 L13.2589878,22.7807115 L3.90554914,18.1039922 L35,2.55676674 Z M2.41382653,20.0567488 L12.068989,24.88433 L12.068989,37.4143172 C12.068989,38.0808671 12.6093345,38.6212125 13.2758844,38.6212125 L17.6038109,38.6212125 L22.0777719,43.0951734 C22.422937,43.4402344 22.9419531,43.5434408 23.3928709,43.3566811 C23.8437886,43.1699213 24.137838,42.729962 24.1379422,42.2418984 L24.1379422,30.9188066 L33.7931047,35.7463879 L33.7931047,66.8408387 L2.41382653,51.1511997 L2.41382653,20.0567488 Z M36.2068953,66.8408387 L36.2068953,35.7463879 L67.5861735,20.0567488 L67.5861735,51.1511997 L36.2068953,66.8408387 Z" id="Shape"></path></g></g></g></g></svg>