<svg xmlns="http://www.w3.org/2000/svg" xmlns:xlink="http://www.w3.org/1999/xlink" width="89px" height="95px" viewBox="0 0 89 95"><title>Group</title><g id="Icons" stroke="none" stroke-width="1" fill="none" fill-rule="evenodd"><g id="Thankyou-Page" transform="translate(-142.000000, -144.000000)" fill-rule="nonzero"><g id="Group" transform="translate(142.000000, 144.000000)"><circle id="Oval" fill-opacity="0.4" fill="#99E880" cx="44.368864" cy="50.631136" r="44.368864"></circle><g id="consent" transform="translate(0.478261, 0.000000)" fill="#404652"><path d="M68.75,12.5 L62.5,12.5 L62.5,7.5 C62.5,6.80875 61.94,6.25 61.25,6.25 L55,6.25 L55,1.25 C55,0.55875 54.44,0 53.75,0 L10,0 C9.66875,0 9.35,0.13125 9.11625,0.36625 L0.36625,9.11625 C0.13125,9.35 0,9.6675 0,10 L0,63.75 C0,64.44125 0.56,65 1.25,65 L7.5,65 L7.5,70 C7.5,70.69125 8.06,71.25 8.75,71.25 L15,71.25 L15,76.25 C15,76.94125 15.56,77.5 16.25,77.5 L68.75,77.5 C69.44,77.5 70,76.94125 70,76.25 L70,13.75 C70,13.05875 69.44,12.5 68.75,12.5 Z M2.5,62.5 L2.5,11.25 L10,11.25 C10.69,11.25 11.25,10.69125 11.25,10 L11.25,6.25 L8.75,6.25 L8.75,8.75 L4.2675,8.75 L10.5175,2.5 L52.5,2.5 L52.5,6.25 L17.5,6.25 C17.16875,6.25 16.85,6.38125 16.61625,6.61625 L7.86625,15.36625 C7.63125,15.6 7.5,15.9175 7.5,16.25 L7.5,62.5 L2.5,62.5 Z M10,68.75 L10,17.5 L17.5,17.5 C18.19,17.5 18.75,16.94125 18.75,16.25 L18.75,12.5 L16.25,12.5 L16.25,15 L11.7675,15 L18.0175,8.75 L60,8.75 L60,12.5 L25,12.5 C24.66875,12.5 24.35,12.63125 24.11625,12.86625 L15.36625,21.61625 C15.13125,21.85 15,22.1675 15,22.5 L15,68.75 L10,68.75 Z M67.5,75 L17.5,75 L17.5,23.75 L25,23.75 C25.69,23.75 26.25,23.19125 26.25,22.5 L26.25,18.75 L23.75,18.75 L23.75,21.25 L19.2675,21.25 L25.5175,15 L67.5,15 L67.5,75 Z" id="Shape"></path><path d="M62.5,22.5 L45,22.5 C44.31,22.5 43.75,23.05875 43.75,23.75 L43.75,43.75 C43.75,44.44125 44.31,45 45,45 L45.1,45 L62.4,45 L62.5,45 C63.19,45 63.75,44.44125 63.75,43.75 L63.75,23.75 C63.75,23.05875 63.19,22.5 62.5,22.5 Z M61.25,25 L61.25,38.42125 C60.23125,37.26375 58.955,36.345 57.51625,35.75375 C58.275,34.87625 58.75,33.7475 58.75,32.5 C58.75,29.7425 56.5075,27.5 53.75,27.5 C50.9925,27.5 48.75,29.7425 48.75,32.5 C48.75,33.7475 49.225,34.87625 49.98375,35.7525 C48.545,36.34375 47.26875,37.2625 46.25,38.42 L46.25,25 L61.25,25 Z M51.25,32.5 C51.25,31.12125 52.37125,30 53.75,30 C55.12875,30 56.25,31.12125 56.25,32.5 C56.25,33.87875 55.12875,35 53.75,35 C52.37125,35 51.25,33.87875 51.25,32.5 Z M46.68625,42.5 C47.72125,39.56875 50.54,37.5 53.75,37.5 C56.96,37.5 59.77875,39.56875 60.81375,42.5 L46.68625,42.5 Z" id="Shape"></path><path d="M26.25,38.75 L26.25,42.5 C26.25,43.19125 26.81,43.75 27.5,43.75 L33.75,43.75 C34.44,43.75 35,43.19125 35,42.5 L35,38.75 L38.75,38.75 C39.44,38.75 40,38.19125 40,37.5 L40,31.25 C40,30.55875 39.44,30 38.75,30 L35,30 L35,26.25 C35,25.55875 34.44,25 33.75,25 L27.5,25 C26.81,25 26.25,25.55875 26.25,26.25 L26.25,30 L22.5,30 C21.81,30 21.25,30.55875 21.25,31.25 L21.25,37.5 C21.25,38.19125 21.81,38.75 22.5,38.75 L26.25,38.75 Z M23.75,32.5 L27.5,32.5 C28.19,32.5 28.75,31.94125 28.75,31.25 L28.75,27.5 L32.5,27.5 L32.5,31.25 C32.5,31.94125 33.06,32.5 33.75,32.5 L37.5,32.5 L37.5,36.25 L33.75,36.25 C33.06,36.25 32.5,36.80875 32.5,37.5 L32.5,41.25 L28.75,41.25 L28.75,37.5 C28.75,36.80875 28.19,36.25 27.5,36.25 L23.75,36.25 L23.75,32.5 Z" id="Shape"></path><polygon id="Path" points="30 48.75 60 48.75 60 51.25 30 51.25"></polygon><polygon id="Path" points="25 53.75 60 53.75 60 56.25 25 56.25"></polygon><polygon id="Path" points="25 58.75 60 58.75 60 61.25 25 61.25"></polygon><polygon id="Path" points="22.5 68.75 37.5 68.75 37.5 71.25 22.5 71.25"></polygon><polygon id="Path" points="47.5 68.75 62.5 68.75 62.5 71.25 47.5 71.25"></polygon><polygon id="Path" points="61.25 17.5 63.75 17.5 63.75 20 61.25 20"></polygon><polygon id="Path" points="56.25 17.5 58.75 17.5 58.75 20 56.25 20"></polygon><polygon id="Path" points="51.25 17.5 53.75 17.5 53.75 20 51.25 20"></polygon></g></g></g></g></svg>