<svg xmlns="http://www.w3.org/2000/svg" xmlns:xlink="http://www.w3.org/1999/xlink" width="91px" height="91px" viewBox="0 0 91 91"><title>563B25C0-2A9D-41DB-8224-B2F6593F2366</title><g id="Web" stroke="none" stroke-width="1" fill="none" fill-rule="evenodd"><g id="Homepage_desktopV3" transform="translate(-915.000000, -6075.000000)" fill="#8099E8" fill-rule="nonzero"><g id="pharmacist" transform="translate(915.000000, 6075.000000)"><path d="M4.14275815,73.9617206 C3.4892167,73.6350863 2.68859298,73.8882885 2.35437954,74.5270092 C0.814091494,77.4713937 0,80.7737597 0,84.0768185 L0,88.7440862 C0,89.4614347 0.594885752,90.043003 1.32905664,90.043003 C2.06322753,90.043003 2.65811328,89.4614347 2.65811328,88.7440862 L2.65811328,84.0768185 C2.65811328,81.1830051 3.37137368,78.2895381 4.7211636,75.709543 C5.05537704,75.0706492 4.79647681,74.2881817 4.14275815,73.9617206 L4.14275815,73.9617206 Z" id="Path"></path><path d="M84.0178615,52.306265 C83.521398,51.7740023 82.6861567,51.7436225 82.1523836,52.239359 C81.6187866,52.73492 81.5886925,53.5681718 82.085332,54.1007857 C85.5146435,57.778157 87.4033518,62.570277 87.4033518,67.5941974 C87.4033518,78.5198939 78.495519,87.4083818 67.5460439,87.4083818 C56.5965688,87.4083818 47.6885601,78.5197183 47.6885601,67.5941974 C47.6885601,56.6686765 56.5965688,47.7800129 67.5460439,47.7800129 C71.256057,47.7800129 74.8752601,48.8083633 78.0124307,50.754081 C78.6317341,51.138132 79.4455048,50.9486528 79.8302157,50.3306943 C80.2151025,49.7129113 80.0250349,48.9009078 79.4059074,48.5168569 C75.8500602,46.3114175 71.7490008,45.1457429 67.5460439,45.1457429 C57.9504482,45.1457429 49.7404097,51.1716728 46.512957,59.6297497 L45.6513175,59.2074166 C44.9019585,58.8398726 44.0167365,58.8584869 43.2837445,59.2571132 C43.1806152,59.3131316 43.0836456,59.3772279 42.9903717,59.4457143 L42.9903717,54.7215539 C46.2475664,52.1849211 48.5822296,48.6101038 49.5776204,44.5839784 L49.6334087,44.5839784 C52.9782457,44.5839784 55.6995556,41.868754 55.6995556,38.5310052 C55.6995556,36.4565681 54.6478484,34.6230629 53.0489931,33.5318454 L56.2141459,20.7355907 C56.8811422,18.0391561 56.2792616,15.238587 54.563022,13.0519375 C53.0401937,11.1118392 50.83629,9.90805807 48.4145125,9.66080441 C46.5863442,4.06019302 41.3066899,0 35.0918328,0 L30.8675814,0 C29.1895313,0 27.5202805,0.231800302 25.9062902,0.68907908 C22.9794258,1.51829198 20.334143,2.93806883 18.043829,4.90942504 C17.4917531,5.38461566 17.4303332,6.21611144 17.906382,6.76698837 C18.3826068,7.3178653 19.2159123,7.37897629 19.7679881,6.90413688 C21.7652813,5.18530252 24.0730182,3.94675136 26.627491,3.22325344 C28.0067127,2.83217824 29.4334513,2.63409434 30.8675814,2.63409434 L35.0918328,2.63409434 C41.3614223,2.63409434 46.4619204,7.72369143 46.4619204,13.9794899 C46.4619204,14.5935851 46.2885717,15.1925781 45.9605292,15.7121972 L45.4538584,16.5147179 C45.3553048,16.4558898 45.2556954,16.3984665 45.154678,16.3429749 L41.2382304,14.1916223 C40.5791535,13.8296977 39.747432,13.9475295 39.2159468,14.4783874 L36.4048828,17.283171 C36.3452227,17.3427015 36.2623322,17.3769448 36.1778577,17.3769448 L23.5795466,17.3769448 C19.5231881,17.3769448 16.2230522,20.6697383 16.2230522,24.7172877 L16.2230522,32.5108704 C16.119571,32.5215824 16.0167937,32.5351041 15.9148964,32.5509086 L14.0195005,24.8878014 C12.8236588,20.0523066 13.6441171,15.0743951 16.3297012,10.8712586 C16.7216276,10.2578658 16.5408874,9.44375504 15.9263356,9.05267983 C15.3116079,8.66178023 14.4957253,8.84177668 14.103799,9.45516945 C11.0262885,14.2718744 10.086158,19.9767959 11.4567563,25.5189304 L13.4389145,33.5316698 C11.8400592,34.6227117 10.788176,36.4563925 10.788176,38.5308296 C10.788176,41.8327547 13.4519376,44.5237455 16.7473219,44.5809931 C17.7358492,48.6264352 20.0771999,52.2235544 23.3477697,54.7726553 L23.3477697,59.2242748 C22.6283288,58.8609454 21.7756647,58.8511114 21.0493602,59.207241 L14.5889992,62.3746516 C13.8246812,62.7492198 13.309563,63.4627082 13.1809154,64.2769946 C10.4875877,65.3819093 8.09027268,66.9929214 6.05514193,69.0671829 C5.54530331,69.5868019 5.55392675,70.4207562 6.07485264,70.9296632 C6.33179582,71.1806046 6.66511799,71.3056363 6.99808819,71.3056363 C7.34056177,71.3056363 7.68303535,71.1734048 7.94138643,70.9099953 C9.49712457,69.3242705 11.2950229,68.0476128 13.2960118,67.1047826 L13.9475212,77.5003238 C13.9835988,78.0761368 14.3911881,78.561337 14.9529434,78.6977831 L17.7103308,79.3671942 L19.8367996,89.0086819 C19.9724867,89.6236552 20.518579,90.043003 21.1246833,90.043003 C21.2184851,90.043003 21.3140469,90.0329934 21.4096086,90.0119207 C22.121482,89.8556311 22.5716605,89.1528547 22.4148548,88.4425273 L20.1115176,77.9985188 C20.0031087,77.507348 19.6238535,77.120663 19.1342536,77.0017775 L16.5213527,76.3674876 L15.7915285,64.7200492 L22.1320413,61.6112911 L25.3320398,88.8451925 C25.4170422,89.5678124 26.0747112,90.0846217 26.7966159,89.9999795 C27.5206325,89.9153372 28.0389186,89.2610282 27.9539162,88.5384083 L25.8015771,70.2202138 C28.1635184,71.4698282 30.7563567,72.0977963 33.3502508,72.0977963 C35.944321,72.0977963 38.5373352,71.4705306 40.8991006,70.2203894 L38.7467615,88.5384083 C38.6619351,89.2608526 39.1800451,89.9151616 39.9040617,89.9998038 C39.9563303,90.0059501 40.0080709,90.0089354 40.0594596,90.0089354 C40.7195923,90.0089354 41.289795,89.5154817 41.3686378,88.8451925 L44.5684603,61.6114667 L45.7134414,62.17288 C45.2801578,63.9098018 45.0485569,65.7253952 45.0485569,67.5941974 C45.0485569,71.0123738 45.8193864,74.2540659 47.1949124,77.1568379 C46.8911563,77.3406976 46.6680029,77.64116 46.58916,77.9985188 L44.2854709,88.4425273 C44.1286651,89.1528547 44.5788437,89.8556311 45.2907171,90.0119207 C45.3862788,90.0329934 45.4816646,90.043003 45.5756424,90.043003 C46.1817467,90.043003 46.727839,89.6238308 46.8633501,89.0088576 L48.8393487,80.0511807 C52.8788122,86.0711399 59.755914,90.043003 67.5458679,90.043003 C79.9507678,90.043003 90.043003,79.9725091 90.043003,67.5945486 C90.043003,61.9020951 87.9033351,56.4726998 84.0178615,52.306265 L84.0178615,52.306265 Z M50.0288548,41.9251236 C50.0834113,41.3514178 50.1145612,40.7724439 50.1145612,40.1882018 L50.1145612,35.1498817 C51.7762444,35.3844917 53.0595524,36.8091856 53.0595524,38.5310052 C53.0597284,40.2825024 51.7322473,41.7286202 50.0288548,41.9251236 Z M52.4845981,14.67612 C53.6971587,16.2209286 54.1223468,18.199309 53.6512257,20.1044617 L50.5726592,32.5509086 C50.4218371,32.5273774 50.2689031,32.511046 50.1145612,32.4989292 L50.1145612,24.7172877 C50.1145612,22.251951 49.1624636,19.9255189 47.5227789,18.1798167 L48.194175,17.116345 C48.7879601,16.1759734 49.1017475,15.0912533 49.1017475,13.9796655 C49.1017475,13.4563588 49.0702456,12.9402519 49.0137533,12.4316961 C50.3762561,12.7660504 51.5951523,13.5429327 52.4845981,14.67612 Z M13.4278272,38.5310052 C13.4278272,36.861165 14.6345802,35.4694852 16.2232282,35.1727106 L16.2232282,40.2405325 C16.2232282,40.7987849 16.2515623,41.3522959 16.3017191,41.9010655 C14.6747056,41.6362513 13.4278272,40.2280644 13.4278272,38.5310052 Z M18.8630554,40.2407081 L18.8630554,24.7172877 C18.8630554,22.1221779 20.9787888,20.0110391 23.5797225,20.0110391 L36.1780337,20.0110391 C36.9691019,20.0110391 37.7128292,19.7037281 38.2715926,19.1456513 L40.5835533,16.8388871 L43.8815773,18.6506172 C46.0979762,19.8680956 47.4747341,22.1925961 47.4747341,24.7171121 L47.4747341,40.1882018 C47.4747341,46.8593091 43.2413312,52.8401081 36.9405918,55.0706592 L36.8103603,55.1166681 C34.3987902,55.9704658 31.744356,55.9650221 29.3364816,55.1013903 C23.0719958,52.8548591 18.8630554,46.8828404 18.8630554,40.2407081 L18.8630554,40.2407081 Z M25.4094747,66.881587 L24.8781655,62.3591983 L24.9346578,62.3361938 C25.5743759,62.0757697 25.9875969,61.4620257 25.9875969,60.772771 L25.9875969,56.4881532 C26.7714496,56.9069742 27.5904999,57.2743425 28.4436921,57.5804243 C29.9429379,58.1181308 31.5187388,58.3868084 33.0950675,58.3868084 C34.6523896,58.3868084 36.2098876,58.124277 37.6929425,57.5992142 L37.823174,57.5532053 C38.7018845,57.2422066 39.5450452,56.866936 40.3505445,56.4368762 L40.3505445,60.772771 C40.3505445,61.4618501 40.7635895,62.0754185 41.4033076,62.3361938 L41.8061452,62.5002101 L41.2913789,66.881587 C36.5430338,70.3206606 30.1574679,70.3203094 25.4094747,66.881587 L25.4094747,66.881587 Z" id="Shape"></path><path d="M32.2164909,32.8605848 L34.3019411,32.8605848 C34.3056686,36.2121696 36.9814845,38.9375148 40.2700312,38.9375148 C43.5608854,38.9375148 46.2382988,36.2083698 46.2382988,32.8535281 C46.2382988,29.4986864 43.5608854,26.7695414 40.2700312,26.7695414 C37.9328857,26.7695414 35.9063656,28.1468703 34.9272744,30.146458 L31.5909801,30.146458 C30.6120663,28.1468703 28.5853688,26.7695414 26.2482233,26.7695414 C22.9573691,26.7695414 20.2799556,29.4986864 20.2799556,32.8535281 C20.2799556,36.2083698 22.9573691,38.9375148 26.2482233,38.9375148 C29.5369475,38.9375148 32.2127634,36.2119887 32.2164909,32.8605848 Z M40.2700312,29.4836683 C42.0929585,29.4836683 43.5757954,30.995256 43.5757954,32.8535281 C43.5757954,34.7118003 42.0929585,36.223388 40.2700312,36.223388 C38.4471039,36.223388 36.964267,34.7118003 36.964267,32.8535281 C36.964267,30.995256 38.4471039,29.4836683 40.2700312,29.4836683 Z M22.942459,32.8535281 C22.942459,30.995256 24.4252959,29.4836683 26.2482233,29.4836683 C28.0711506,29.4836683 29.5539875,30.995256 29.5539875,32.8535281 C29.5539875,34.7118003 28.0711506,36.223388 26.2482233,36.223388 C24.4252959,36.223388 22.942459,34.7118003 22.942459,32.8535281 Z" id="Shape"></path><path d="M69.1233445,55.5943942 L55.5944719,69.1214485 C52.8539532,71.8617753 52.8539532,76.32072 55.5944719,79.0612234 C56.922272,80.3888451 58.6875523,81.1198225 60.5649392,81.1198225 C62.4426791,81.1198225 64.2079594,80.3888451 65.535583,79.0612234 L79.0644556,65.5341692 C81.8049743,62.7938423 81.8049743,58.3348976 79.064279,55.5943942 C76.3237603,52.8540673 71.8643928,52.8538908 69.1233445,55.5943942 L69.1233445,55.5943942 Z M63.6629629,77.188855 C62.8354933,78.0162134 61.7352605,78.4718166 60.5649392,78.4718166 C59.3947944,78.4718166 58.2945616,78.0162134 57.467092,77.188855 C55.7588359,75.4808285 55.7588359,72.7016668 57.467092,70.9936403 L63.2952182,65.1662974 L69.4910891,71.3613356 L63.6629629,77.188855 Z M77.1918355,63.6618008 L71.3637092,69.4891437 L65.1678383,63.2941055 L70.9959646,57.4667626 C71.849916,56.6127494 72.9716873,56.1859193 74.0938117,56.1859193 C75.215583,56.1859193 76.3377074,56.6129259 77.1918355,57.4669392 C78.0194816,58.2942976 78.4751461,59.3943824 78.4751461,60.56437 C78.4751461,61.7343575 78.0194816,62.8344424 77.1918355,63.6618008 L77.1918355,63.6618008 Z" id="Shape"></path></g></g></g></svg>