<svg xmlns="http://www.w3.org/2000/svg" xmlns:xlink="http://www.w3.org/1999/xlink" width="91px" height="90px" viewBox="0 0 91 90"><title>C65D58CC-A734-4BC8-8CB9-3B5656C89B6C</title><g id="Web" stroke="none" stroke-width="1" fill="none" fill-rule="evenodd"><g id="Homepage_desktopV3" transform="translate(-431.000000, -4392.000000)" fill-rule="nonzero"><g id="Group" transform="translate(431.000000, 4392.000000)"><circle id="Oval" fill-opacity="0.4" fill="#99E880" cx="45.8906031" cy="45.631136" r="44.368864"></circle><g id="pills" transform="translate(0.000000, -0.000000)" fill="#404652"><path d="M20.2012912,28.5250589 C20.4261445,28.7499145 20.7213365,28.8629188 21.0165285,28.8629188 C21.3117206,28.8629188 21.6069126,28.7499145 21.8317659,28.5250589 L33.3627042,16.9940053 C33.8135639,16.5431411 33.8135639,15.8143785 33.3627042,15.3635143 L20.7605417,2.76122582 C19.0032267,1.00389325 16.6659055,0.0352847418 14.1798352,0.0352847418 C9.04856767,0.0352847418 4.8732149,4.21067926 4.8732149,9.34199813 C4.8732149,11.8280933 5.84181372,14.1654379 7.59912872,15.9227704 L20.2012912,28.5250589 Z M21.0165285,26.0793225 L19.1877217,24.2504974 L29.0881854,14.3499347 L30.9169922,16.1787598 L21.0165285,26.0793225 Z M14.1798352,2.34149547 C16.0490003,2.34149547 17.8074684,3.06910495 19.130067,4.3917168 L27.4577107,12.7194437 L17.5572471,22.6200064 L9.2296034,14.2922794 C7.90815787,12.9696676 7.17940256,11.212335 7.17940256,9.34199813 C7.17940256,5.48255448 10.3204302,2.34149547 14.1798352,2.34149547 Z" id="Shape"></path><path d="M50.2628027,28.5250589 C50.487656,28.7499145 50.782848,28.8629188 51.0780401,28.8629188 C51.3732321,28.8629188 51.6684241,28.7499145 51.8932774,28.5250589 L64.4954399,15.9227704 C66.2527549,14.1654379 67.2213537,11.8280933 67.2213537,9.34199813 C67.2213537,4.21067926 63.0460009,0.0352847418 57.9147334,0.0352847418 C55.4298162,0.0352847418 53.0913419,1.00389325 51.3340269,2.76122582 L38.7318644,15.3635143 C38.2810047,15.8143785 38.2810047,16.5431411 38.7318644,16.9940053 L50.2628027,28.5250589 Z M52.9645016,4.3917168 C54.2859471,3.06910495 56.0455683,2.34149547 57.9147334,2.34149547 C61.7741384,2.34149547 64.915166,5.48255448 64.915166,9.34199813 C64.915166,11.212335 64.1864107,12.9696676 62.8649652,14.2922794 L54.5373216,22.6200064 L44.6368579,12.7194437 L52.9645016,4.3917168 Z M43.0063832,14.3499347 L52.9068469,24.2504974 L51.0780401,26.0793225 L41.1775764,16.1787598 L43.0063832,14.3499347 Z" id="Shape"></path><path d="M58.7903581,38.6453699 C56.80925,36.660091 54.1728255,35.5670198 51.3696568,35.5670198 C48.5676541,35.5670198 45.9312296,36.660091 43.9489556,38.6453699 L32.4062903,50.2055323 C31.9643598,50.6493005 31.5807314,51.1374456 31.2274202,51.6454434 C29.9319458,51.073216 28.5035425,50.7485645 26.9993463,50.7485645 L10.6747363,50.7485645 C4.88766211,50.7485645 0.180344236,55.4641858 0.180344236,61.2588647 C0.180344236,67.0535435 4.88766211,71.7691649 10.6747363,71.7691649 L26.9993463,71.7691649 C30.5627754,71.7691649 33.7122591,69.9777426 35.609412,67.2509036 C36.9561923,67.8441517 38.3857617,68.1477826 39.811833,68.1477826 C42.5322126,68.1477826 45.2281053,67.0932491 47.2465268,65.0706002 L58.789192,53.5104378 C62.8808389,49.4114207 62.8808389,42.7432192 58.7903581,38.6453699 Z M2.51243137,61.2588647 C2.51243137,56.7511137 6.17497421,53.0841868 10.6747363,53.0841868 L17.6709977,53.0841868 L17.6709977,69.4335426 L10.6747363,69.4335426 C6.17497421,69.4335426 2.51243137,65.7666157 2.51243137,61.2588647 Z M26.9993463,69.4335426 L20.0030849,69.4335426 L20.0030849,53.0841868 L26.9993463,53.0841868 C31.4991084,53.0841868 35.1616512,56.7511137 35.1616512,61.2588647 C35.1616512,65.7666157 31.4991084,69.4335426 26.9993463,69.4335426 Z M45.5977412,63.4181475 C43.2493294,65.7701191 39.7337081,66.4229255 36.7264817,65.1838779 C37.217386,63.9693543 37.4937384,62.6462243 37.4937384,61.2588647 C37.4937384,57.8033115 35.8123035,54.7413108 33.2353473,52.8249327 C33.4837145,52.4850996 33.7530706,52.1592803 34.0539098,51.8579851 L39.0014327,46.9029624 L50.545264,58.4642926 L45.5977412,63.4181475 Z M52.1940496,56.8130077 L40.6502183,45.2516775 L45.5965751,40.2978227 C47.1380847,38.7539763 49.1891553,37.9038098 51.3684908,37.9038098 C53.5489922,37.9038098 55.5988968,38.7539763 57.1404064,40.2978227 C60.3225393,43.4847792 60.3225393,48.6710285 57.1404064,51.8579851 L52.1940496,56.8130077 Z" id="Shape"></path><path d="M64.8749184,57.6905529 C60.9927411,57.6905529 57.8356124,60.8476816 57.8356124,64.7298589 C57.8356124,68.6120361 60.9927411,71.7691649 64.8749184,71.7691649 C68.7570956,71.7691649 71.9142244,68.6120361 71.9142244,64.7298589 C71.9142244,60.8476816 68.7570956,57.6905529 64.8749184,57.6905529 Z M64.8749184,69.4227295 C62.2868002,69.4227295 60.1820477,67.3179771 60.1820477,64.7298589 C60.1820477,62.1417407 62.2868002,60.0369882 64.8749184,60.0369882 C67.4630366,60.0369882 69.567789,62.1417407 69.567789,64.7298589 C69.567789,67.3179771 67.4630366,69.4227295 64.8749184,69.4227295 Z" id="Shape"></path><polygon id="Path" points="35.0416692 20.1475876 37.0528994 20.1475876 37.0528994 22.1588179 35.0416692 22.1588179"></polygon><polygon id="Path" points="30.3487985 23.4996381 32.3600288 23.4996381 32.3600288 25.5108683 30.3487985 25.5108683"></polygon><polygon id="Path" points="39.7345398 23.4996381 41.7457701 23.4996381 41.7457701 25.5108683 39.7345398 25.5108683"></polygon><polygon id="Path" points="37.0528994 28.1925087 39.0641297 28.1925087 39.0641297 30.203739 37.0528994 30.203739"></polygon><polygon id="Path" points="32.3600288 28.1925087 34.3712591 28.1925087 34.3712591 30.203739 32.3600288 30.203739"></polygon><polygon id="Path" points="35.0416692 32.8853794 37.0528994 32.8853794 37.0528994 34.8966097 35.0416692 34.8966097"></polygon><polygon id="Path" points="28.3375682 30.203739 30.3487985 30.203739 30.3487985 32.2149693 28.3375682 32.2149693"></polygon><polygon id="Path" points="41.7457701 30.203739 43.7570004 30.203739 43.7570004 32.2149693 41.7457701 32.2149693"></polygon><path d="M12.918136,48.9752217 C17.3531861,48.9752217 20.9630572,45.3664999 20.9630572,40.9303005 C20.9630572,36.4941012 17.3531861,32.8853794 12.918136,32.8853794 C8.48308594,32.8853794 4.8732149,36.4941012 4.8732149,40.9303005 C4.8732149,45.3664999 8.48308594,48.9752217 12.918136,48.9752217 Z M18.6645083,40.9303005 C18.6645083,44.0988502 16.0866857,46.6766728 12.918136,46.6766728 C11.7493239,46.6766728 10.6632596,46.321547 9.75418348,45.7193271 L17.7071627,37.766348 C18.3093825,38.6754241 18.6645083,39.7614884 18.6645083,40.9303005 Z M12.918136,35.1839283 C14.0869482,35.1839283 15.1730125,35.5390541 16.0820886,36.1412739 L8.12910941,44.0942531 C7.5268896,43.185177 7.1717638,42.0991126 7.1717638,40.9303005 C7.1717638,37.7617509 9.74958638,35.1839283 12.918136,35.1839283 Z" id="Shape"></path></g></g></g></g></svg>