<svg xmlns="http://www.w3.org/2000/svg" xmlns:xlink="http://www.w3.org/1999/xlink" width="66px" height="66px" viewBox="0 0 66 66"><title>E08C35BE-AEA1-4AEA-948F-D610077267A0</title><g id="Web" stroke="none" stroke-width="1" fill="none" fill-rule="evenodd"><g id="Homepage_desktopV3" transform="translate(-682.000000, -1028.000000)" fill="#FFFFFF" fill-rule="nonzero"><g id="play_circle_FILL1_wght400_GRAD0_opsz48" transform="translate(682.000000, 1028.000000)"><path d="M24.9975,23.5125 L24.9975,42.4875 C24.9975,43.4775 25.42375,44.22 26.27625,44.715 C27.12875,45.21 27.9675,45.1825 28.7925,44.6325 L43.725,35.0625 C44.495,34.5675 44.88,33.88 44.88,33 C44.88,32.12 44.495,31.4325 43.725,30.9375 L28.7925,21.3675 C27.9675,20.8175 27.12875,20.79 26.27625,21.285 C25.42375,21.78 24.9975,22.5225 24.9975,23.5125 Z M33,66 C28.49,66 24.2275,65.13375 20.2125,63.40125 C16.1975,61.66875 12.69125,59.30375 9.69375,56.30625 C6.69625,53.30875 4.33125,49.8025 2.59875,45.7875 C0.86625,41.7725 0,37.51 0,33 C0,28.49 0.86625,24.2275 2.59875,20.2125 C4.33125,16.1975 6.69625,12.69125 9.69375,9.69375 C12.69125,6.69625 16.1975,4.33125 20.2125,2.59875 C24.2275,0.86625 28.49,0 33,0 C37.51,0 41.7725,0.86625 45.7875,2.59875 C49.8025,4.33125 53.30875,6.69625 56.30625,9.69375 C59.30375,12.69125 61.66875,16.1975 63.40125,20.2125 C65.13375,24.2275 66,28.49 66,33 C66,37.51 65.13375,41.7725 63.40125,45.7875 C61.66875,49.8025 59.30375,53.30875 56.30625,56.30625 C53.30875,59.30375 49.8025,61.66875 45.7875,63.40125 C41.7725,65.13375 37.51,66 33,66 Z" id="Shape"></path></g></g></g></svg>