<svg xmlns="http://www.w3.org/2000/svg" xmlns:xlink="http://www.w3.org/1999/xlink" width="91px" height="90px" viewBox="0 0 91 90"><title>C30CA0F6-8FFD-4ED1-8F21-15CA64A3C0FD</title><g id="Web" stroke="none" stroke-width="1" fill="none" fill-rule="evenodd"><g id="Homepage_desktopV3" transform="translate(-753.000000, -4392.000000)" fill-rule="nonzero"><g id="Group-2" transform="translate(753.000000, 4392.000000)"><circle id="Oval" fill-opacity="0.4" fill="#99E880" cx="45.8906031" cy="45.631136" r="44.368864"></circle><g id="waste" transform="translate(0.000000, 0.000000)" fill="#404652"><polygon id="Path" points="20.9630572 39.5894803 38.3937196 39.5894803 38.3937196 41.6007106 20.9630572 41.6007106"></polygon><path d="M59.9533049,55.4558526 C57.3579684,55.4558526 56.1179241,54.5283647 54.6807156,53.454661 C53.1327787,52.298029 51.3775087,50.9864519 47.9923854,50.9864519 C44.6078271,50.9864519 42.8548168,52.298029 41.3068801,53.4557522 C39.8713663,54.5283647 38.630757,55.4558526 36.0393751,55.4558526 C33.4462984,55.4558526 32.2062541,54.5283647 30.7690455,53.454661 C29.2222386,52.298029 27.4669686,50.9864519 24.0818453,50.9864519 C20.697287,50.9864519 18.9442768,52.298029 17.3974698,53.454661 C15.9630859,54.5283647 14.7213468,55.4558526 12.1299649,55.4558526 C9.53801805,55.4558526 8.2979737,54.5283647 6.86302493,53.454661 C5.31621801,52.298029 3.56320772,50.9864519 0.180344236,50.9864519 L0.180344236,53.2211523 C2.77229108,53.2211523 4.01233543,54.1486402 5.44671915,55.2223439 C6.99409112,56.3789758 8.7465365,57.6905529 12.1299649,57.6905529 C15.5139583,57.6905529 17.2669685,56.3789758 18.8137755,55.2223439 C20.2498541,54.1486402 21.4898985,53.2211523 24.0818453,53.2211523 C26.675487,53.2211523 27.9160963,54.1486402 29.3527399,55.2223439 C30.9006766,56.3789758 32.6548169,57.6905529 36.0393751,57.6905529 C39.4222387,57.6905529 41.1763788,56.3789758 42.7231857,55.2223439 C44.1603942,54.1486402 45.3993086,53.2211523 47.9923854,53.2211523 C50.5871569,53.2211523 51.8277662,54.1486402 53.2644098,55.2223439 C54.8140416,56.3789758 56.5676168,57.6905529 59.9533049,57.6905529 C63.3384282,57.6905529 65.0925683,56.3789758 66.6416351,55.2223439 C68.0788436,54.1486402 69.318888,53.2211523 71.9142244,53.2211523 L71.9142244,50.9864519 C68.5291011,50.9864519 66.774961,52.298029 65.2258942,53.454661 C63.7898156,54.5283647 62.5480764,55.4558526 59.9533049,55.4558526 Z" id="Path"></path><path d="M67.1229644,45.2649624 C67.9873232,42.0154912 68.4432302,38.6687676 68.4432302,35.2994271 C68.4432302,27.9184285 66.3501258,20.7240189 62.391023,14.4947818 L60.3442437,11.2781049 L60.3442437,9.08596985 C61.6876721,8.60649331 62.6582398,7.33260094 62.6582398,5.82519011 L62.6582398,3.50922796 C62.6582398,1.59414887 61.100699,0.0352847418 59.1872456,0.0352847418 L49.9312611,0.0352847418 C48.0178077,0.0352847418 46.4602669,1.59414887 46.4602669,3.50922796 L46.4602669,5.82519011 C46.4602669,7.33260094 47.4308347,8.60649331 48.774263,9.08596985 L48.774263,11.2781049 L46.7274837,14.4947818 C45.6620061,16.170688 44.7434128,17.9200989 43.9530611,19.720963 L9.43632877,19.720963 L9.43632877,25.7839665 L9.55779101,26.0282281 C10.9927398,28.8988677 11.7503249,32.1127175 11.7503249,35.3214785 L11.7503249,48.6529617 C9.42220529,48.5602328 8.22396661,47.6516022 6.86302493,46.5976585 C5.31621801,45.3978363 3.56320772,44.0385655 0.180344236,44.0385655 L0.180344236,46.3545277 C2.77229108,46.3545277 4.01233543,47.3157424 5.44671915,48.4284898 C6.99409112,49.6271812 8.7465365,50.9864519 12.1299649,50.9864519 C15.5139583,50.9864519 17.2669685,49.6271812 18.8137755,48.4284898 C20.2498541,47.3157424 21.4898985,46.3545277 24.0818453,46.3545277 C26.675487,46.3545277 27.9160963,47.3157424 29.3527399,48.4284898 C30.9006766,49.6271812 32.6548169,50.9864519 36.0393751,50.9864519 C39.4222387,50.9864519 41.1763788,49.6271812 42.7231857,48.4284898 C44.1603942,47.3157424 45.3993086,46.3545277 47.9923854,46.3545277 C50.5871569,46.3545277 51.8277662,47.3157424 53.2644098,48.4284898 C54.8140416,49.6271812 56.5676168,50.9864519 59.9533049,50.9864519 C63.3384282,50.9864519 65.0925683,49.6271812 66.6416351,48.4284898 C68.0788436,47.3157424 69.318888,46.3545277 71.9142244,46.3545277 L71.9142244,44.0385655 C69.7945678,44.0385655 68.3138588,44.5723224 67.1229644,45.2649624 Z M65.8772705,39.4066412 L43.2412362,39.4066412 C43.0875724,38.043978 42.9892727,36.675095 42.9892727,35.2994271 C42.9892727,31.1481101 43.707877,27.0635128 45.0705134,23.1949062 L64.0468634,23.1949062 C65.4106298,27.0635128 66.129234,31.1481101 66.129234,35.2994271 C66.129234,36.675095 66.0309343,38.043978 65.8772705,39.4066412 Z M48.774263,3.50922796 C48.774263,2.87030293 49.2928785,2.35124689 49.9312611,2.35124689 L59.1872456,2.35124689 C59.8256283,2.35124689 60.3442437,2.87030293 60.3442437,3.50922796 L60.3442437,5.82519011 C60.3442437,6.46411514 59.8256283,6.98317118 59.1872456,6.98317118 L49.9312611,6.98317118 C49.2928785,6.98317118 48.774263,6.46411514 48.774263,5.82519011 L48.774263,3.50922796 Z M48.6804829,15.7398377 L51.0882592,11.9520861 L51.0882592,9.29913332 L58.0302476,9.29913332 L58.0302476,11.9520861 L60.4380239,15.7398377 C61.4837286,17.3840803 62.3746397,19.1074818 63.1395691,20.8789441 L45.9789376,20.8789441 C46.7438671,19.1074818 47.6347782,17.3840803 48.6804829,15.7398377 Z M42.2531552,24.3528873 L39.5182785,24.3528873 L39.5182785,22.0369251 L43.0169548,22.0369251 C42.7395691,22.8013736 42.4825211,23.573738 42.2531552,24.3528873 Z M16.3783172,24.3528873 L16.3783172,22.0369251 L18.6923133,22.0369251 L18.6923133,24.3528873 L16.3783172,24.3528873 Z M21.0063094,22.0369251 L23.3203056,22.0369251 L23.3203056,24.3528873 L21.0063094,24.3528873 L21.0063094,22.0369251 Z M25.6343017,22.0369251 L27.9482978,22.0369251 L27.9482978,24.3528873 L25.6343017,24.3528873 L25.6343017,22.0369251 Z M30.262294,22.0369251 L32.5762901,22.0369251 L32.5762901,24.3528873 L30.262294,24.3528873 L30.262294,22.0369251 Z M34.8902862,22.0369251 L37.2042824,22.0369251 L37.2042824,24.3528873 L34.8902862,24.3528873 L34.8902862,22.0369251 Z M14.064321,22.0369251 L14.064321,24.3528873 L11.7503249,24.3528873 L11.7503249,22.0369251 L14.064321,22.0369251 Z M17.3974698,46.5965276 C16.3771874,47.3886816 15.4456004,48.0960226 14.064321,48.4426253 L14.064321,35.3214785 C14.064321,32.3671567 13.4801727,29.4111385 12.3762789,26.6688494 L41.6599678,26.6688494 C41.2492561,28.4708444 40.9645261,30.3028067 40.8153818,32.155124 C38.1748502,30.8699234 34.8626042,30.1427926 31.419292,30.1427926 C22.984731,30.1427926 16.3783172,34.2121235 16.3783172,39.4066412 C16.3783172,41.5139633 17.518932,43.5195095 19.5521526,45.1281307 C18.7318592,45.5742474 18.0420668,46.0961305 17.3974698,46.5965276 Z M36.0393751,48.6704898 C33.4462984,48.6704898 32.2062541,47.709275 30.7690455,46.5965276 C29.2222386,45.3978363 27.4669686,44.0385655 24.0818453,44.0385655 C23.4242546,44.0385655 22.8446258,44.102458 22.301153,44.1934906 C20.0091896,42.8862386 18.6923133,41.1577483 18.6923133,39.4066412 C18.6923133,35.640941 24.5202391,32.4587548 31.419292,32.4587548 C34.940001,32.4587548 38.2720198,33.2808762 40.6961793,34.7159132 C40.6927898,34.9115486 40.6752766,35.1049225 40.6752766,35.2994271 C40.6752766,38.9028516 41.1775086,42.4847901 42.1644596,45.9445979 L42.1667194,45.9513829 C41.8706906,46.1668081 41.582571,46.3833641 41.3068801,46.5976585 C39.8713663,47.709275 38.630757,48.6704898 36.0393751,48.6704898 Z M54.6807156,46.5965276 C53.1327787,45.3978363 51.3775087,44.0385655 47.9923854,44.0385655 C46.4472732,44.0385655 45.2524243,44.3291915 44.2513496,44.7521262 C43.983003,43.7513319 43.7632411,42.7403602 43.5818952,41.7226034 L65.5377413,41.7226034 C65.3213691,42.9292107 65.0660162,44.1290328 64.7293115,45.3101961 L64.5716932,45.8648736 C64.4344127,46.3443502 64.3321585,46.8430509 64.2304692,47.3411863 C63.1339196,48.104504 61.9418953,48.6704898 59.9533049,48.6704898 C57.3579684,48.6704898 56.1179241,47.709275 54.6807156,46.5965276 L54.6807156,46.5965276 Z" id="Shape"></path><path d="M59.9533049,69.5344646 C57.3579684,69.5344646 56.1179241,68.6069766 54.6807156,67.533273 C53.1327787,66.376641 51.3775087,65.0650639 47.9923854,65.0650639 C44.6078271,65.0650639 42.8548168,66.376641 41.3068801,67.5343642 C39.8713663,68.6069766 38.630757,69.5344646 36.0393751,69.5344646 C33.4462984,69.5344646 32.2062541,68.6069766 30.7690455,67.533273 C29.2222386,66.376641 27.4669686,65.0650639 24.0818453,65.0650639 C20.697287,65.0650639 18.9442768,66.376641 17.3974698,67.533273 C15.9630859,68.6069766 14.7213468,69.5344646 12.1299649,69.5344646 C9.53801805,69.5344646 8.2979737,68.6069766 6.86302493,67.533273 C5.31621801,66.376641 3.56320772,65.0650639 0.180344236,65.0650639 L0.180344236,67.2997642 C2.77229108,67.2997642 4.01233543,68.2272522 5.44671915,69.3009558 C6.99409112,70.4575878 8.7465365,71.7691649 12.1299649,71.7691649 C15.5139583,71.7691649 17.2669685,70.4575878 18.8137755,69.3009558 C20.2498541,68.2272522 21.4898985,67.2997642 24.0818453,67.2997642 C26.675487,67.2997642 27.9160963,68.2272522 29.3527399,69.3009558 C30.9006766,70.4575878 32.6548169,71.7691649 36.0393751,71.7691649 C39.4222387,71.7691649 41.1763788,70.4575878 42.7231857,69.3009558 C44.1603942,68.2272522 45.3993086,67.2997642 47.9923854,67.2997642 C50.5871569,67.2997642 51.8277662,68.2272522 53.2644098,69.3009558 C54.8140416,70.4575878 56.5676168,71.7691649 59.9533049,71.7691649 C63.3384282,71.7691649 65.0925683,70.4575878 66.6416351,69.3009558 C68.0788436,68.2272522 69.318888,67.2997642 71.9142244,67.2997642 L71.9142244,65.0650639 C68.5291011,65.0650639 66.774961,66.376641 65.2258942,67.533273 C63.7898156,68.6069766 62.5480764,69.5344646 59.9533049,69.5344646 Z" id="Path"></path><path d="M59.9533049,62.8303636 C57.3579684,62.8303636 56.1179241,61.9028757 54.6807156,60.829172 C53.1327787,59.67254 51.3775087,58.360963 47.9923854,58.360963 C44.6078271,58.360963 42.8548168,59.67254 41.3068801,60.8302633 C39.8713663,61.9028757 38.630757,62.8303636 36.0393751,62.8303636 C33.4462984,62.8303636 32.2062541,61.9028757 30.7690455,60.829172 C29.2222386,59.67254 27.4669686,58.360963 24.0818453,58.360963 C20.697287,58.360963 18.9442768,59.67254 17.3974698,60.829172 C15.9630859,61.9028757 14.7213468,62.8303636 12.1299649,62.8303636 C9.53801805,62.8303636 8.2979737,61.9028757 6.86302493,60.829172 C5.31621801,59.67254 3.56320772,58.360963 0.180344236,58.360963 L0.180344236,60.5956633 C2.77229108,60.5956633 4.01233543,61.5231512 5.44671915,62.5968549 C6.99409112,63.7534869 8.7465365,65.0650639 12.1299649,65.0650639 C15.5139583,65.0650639 17.2669685,63.7534869 18.8137755,62.5968549 C20.2498541,61.5231512 21.4898985,60.5956633 24.0818453,60.5956633 C26.675487,60.5956633 27.9160963,61.5231512 29.3527399,62.5968549 C30.9006766,63.7534869 32.6548169,65.0650639 36.0393751,65.0650639 C39.4222387,65.0650639 41.1763788,63.7534869 42.7231857,62.5968549 C44.1603942,61.5231512 45.3993086,60.5956633 47.9923854,60.5956633 C50.5871569,60.5956633 51.8277662,61.5231512 53.2644098,62.5968549 C54.8140416,63.7534869 56.5676168,65.0650639 59.9533049,65.0650639 C63.3384282,65.0650639 65.0925683,63.7534869 66.6416351,62.5968549 C68.0788436,61.5231512 69.318888,60.5956633 71.9142244,60.5956633 L71.9142244,58.360963 C68.5291011,58.360963 66.774961,59.67254 65.2258942,60.829172 C63.7898156,61.9028757 62.5480764,62.8303636 59.9533049,62.8303636 Z" id="Path"></path><polygon id="Path" points="25.6559278 34.8966097 37.0528994 34.8966097 37.0528994 36.90784 25.6559278 36.90784"></polygon><polygon id="Path" points="45.0978206 34.8966097 63.8693032 34.8966097 63.8693032 36.90784 45.0978206 36.90784"></polygon><polygon id="Path" points="46.4386408 30.203739 62.528483 30.203739 62.528483 32.2149693 46.4386408 32.2149693"></polygon><polygon id="Path" points="46.4386408 25.5108683 62.528483 25.5108683 62.528483 27.5220986 46.4386408 27.5220986"></polygon></g></g></g></g></svg>