<?xml version="1.0" encoding="UTF-8" standalone="no"?>

<svg
   width="974.96014"
   height="746.49744"
   viewBox="0 0 974.96014 746.49744"
   version="1.1"
   id="svg5"
   xml:space="preserve"
   inkscape:export-filename="gender.svg"
   inkscape:export-xdpi="96"
   inkscape:export-ydpi="96"
   xmlns:inkscape="http://www.inkscape.org/namespaces/inkscape"
   xmlns:sodipodi="http://sodipodi.sourceforge.net/DTD/sodipodi-0.dtd"
   xmlns="http://www.w3.org/2000/svg"
   xmlns:svg="http://www.w3.org/2000/svg"><sodipodi:namedview
     id="namedview7"
     pagecolor="#ffffff"
     bordercolor="#666666"
     borderopacity="1.0"
     inkscape:showpageshadow="2"
     inkscape:pageopacity="0.0"
     inkscape:pagecheckerboard="0"
     inkscape:deskcolor="#d1d1d1"
     inkscape:document-units="px"
     showgrid="false" /><defs
     id="defs2" /><g
     inkscape:label="Layer 1"
     inkscape:groupmode="layer"
     id="layer1"
     transform="translate(-190.84404,-159.15594)"><path
       style="fill:#3f4653;fill-opacity:1;stroke-width:0.501945"
       d="m 378.96824,905.44435 c -2.71231,-0.3956 -8.20017,-2.4004 -9.54172,-3.4857 -5.782,-4.6779 -8.44758,-8.1467 -10.35653,-13.477 l -1.16842,-3.2626 -0.14642,-48.8142 -0.14642,-48.8141 H 309.2831 c -52.5875,0 -50.36408,0.1111 -56.11948,-2.8033 -3.42678,-1.7353 -8.22251,-6.4137 -10.20087,-9.9513 -4.47148,-7.9957 -4.1795,-17.7169 0.76345,-25.4198 1.99318,-3.106 6.43082,-7.1921 9.50026,-8.7475 5.58901,-2.8322 4.3358,-2.7706 56.43541,-2.7706 h 47.98872 v -39.1076 -39.1076 l -2.13326,-0.3301 c -34.00354,-5.2628 -64.78194,-18.3637 -90.72651,-38.6179 -6.6842,-5.2182 -16.34086,-14.1068 -22.28434,-20.512 -35.56464,-38.32728 -53.7366,-87.56259 -51.47403,-139.4644 0.58275,-13.36765 2.82108,-28.34903 6.06464,-40.59144 1.20999,-4.56685 6.43343,-20.63206 6.93608,-21.33265 0.19811,-0.27607 0.88533,-1.8572 1.52726,-3.51362 4.37219,-11.28256 15.35038,-30.34375 24.18355,-41.98943 21.93885,-28.92423 52.40926,-51.54298 86.2452,-64.02136 41.43428,-15.28055 85.59443,-16.0211 127.55234,-2.139 23.92058,7.91432 45.5047,20.2408 65.27789,37.2796 2.94463,2.53742 27.33915,26.57929 54.21003,53.42639 l 48.85617,48.8129 -17.68873,17.68907 -17.68872,17.68906 -50.57576,-50.48676 c -30.73647,-30.68237 -52.24938,-51.76899 -54.84229,-53.75552 -23.11692,-17.71087 -46.40314,-27.018 -75.20106,-30.05671 -11.03315,-1.16419 -29.82651,-0.11614 -41.747,2.32811 -42.48792,8.71198 -79.12491,36.77951 -98.29795,75.30592 -6.16147,12.38089 -9.9255,23.40638 -12.58019,36.84957 -1.89228,9.58251 -2.30312,14.49458 -2.28791,27.35599 0.0126,10.49843 0.20017,13.73772 1.1495,19.82681 3.46638,22.23344 10.86761,41.53329 22.78779,59.42271 3.37428,5.06399 11.4342,14.79983 16.48763,19.91589 24.8165,25.12427 55.20474,39.20197 91.05704,42.18327 19.36232,1.6101 44.9467,-2.1691 61.48824,-9.0827 2.07052,-0.8654 4.55971,-1.8695 5.53158,-2.2314 2.50129,-0.9313 10.28359,-4.8801 13.81789,-7.0112 1.64289,-0.9906 3.25621,-1.8017 3.58516,-1.8024 0.32896,-5e-4 1.67144,1.4104 2.98331,3.1358 7.62357,10.027 20.26642,22.9214 31.30376,31.9269 l 1.25486,1.0238 -1.25054,0.9045 c -13.55857,9.8067 -37.72878,21.1533 -55.46922,26.0397 -8.13216,2.2399 -24.69904,5.6939 -27.48147,5.7296 -0.20706,0 -0.37646,17.6231 -0.37646,39.1565 v 39.1517 h 48.08124 c 52.84922,0 50.90097,-0.1054 56.87271,3.0774 6.96454,3.7121 12.23908,11.6889 12.83448,19.4098 0.94051,12.1963 -5.63182,22.0553 -17.37045,26.0572 l -3.29167,1.1222 -48.54669,0.013 -48.54669,0.013 -0.14582,49.0651 c -0.1429,48.0885 -0.16639,49.121 -1.17846,51.8742 -2.66854,7.2593 -7.22585,12.207 -14.08347,15.2903 -3.31555,1.4906 -9.39927,2.2224 -13.50201,1.624 z m 221.87459,-244.9059 c -5.11394,-0.4829 -12.6361,-1.5973 -18.57196,-2.7515 -51.91255,-10.0938 -97.93249,-41.7611 -126.0127,-86.712 -15.55218,-24.89608 -24.54829,-50.75077 -28.14432,-80.88645 -1.08375,-9.08231 -1.24427,-30.5896 -0.29409,-39.40266 1.96034,-18.18162 6.18742,-35.79954 12.41043,-51.72506 1.70461,-4.36226 6.60795,-15.35861 7.26314,-16.28846 0.19451,-0.27607 1.55202,-2.76069 3.0167,-5.52139 1.46467,-2.76069 4.12274,-7.33157 5.90685,-10.15751 l 3.24381,-5.13806 1.57367,1.11903 c 4.64701,3.30446 11.90822,9.92537 23.0318,21.00077 6.83272,6.80314 12.42313,12.48757 12.42313,12.63208 0,0.14451 -1.45467,3.05396 -3.23259,6.46545 -6.69482,12.84601 -10.63105,23.87597 -13.49856,37.82522 -2.10494,10.23964 -2.59558,15.75965 -2.56532,28.86183 0.0313,13.5622 0.64649,19.34011 3.31336,31.12057 11.5729,51.12125 51.3601,92.18674 102.31761,105.60484 24.01224,6.3229 49.13267,6.176 73.93798,-0.4322 8.97743,-2.3916 17.41934,-5.7299 27.45752,-10.8577 3.72839,-1.9046 6.98657,-3.4629 7.24035,-3.4629 0.25378,0 7.25471,6.729 15.55763,14.9535 8.30292,8.2244 16.50789,16.0303 18.23332,17.3464 1.72544,1.3161 3.13716,2.5511 3.13716,2.7444 0,0.4589 -6.72009,4.8488 -12.91693,8.438 -23.72959,13.7439 -49.61396,22.148 -77.04237,25.0139 -8.04628,0.8408 -29.82357,0.9617 -37.78562,0.2099 z m 239.42767,0.2309 c -40.36223,-3.2698 -78.92965,-19.3248 -109.92595,-45.7605 -5.6402,-4.8103 -103.65157,-102.41028 -103.65157,-103.21647 0,-0.28429 7.84671,-8.36601 17.43714,-17.95936 l 17.43712,-17.44247 49.94893,49.8601 c 27.47192,27.42305 51.64302,51.2036 53.71354,52.8457 22.08939,17.5185 44.87913,27.3281 72.2801,31.1122 7.69009,1.062 26.45489,1.2056 33.88127,0.2593 25.12595,-3.2016 47.57497,-11.8868 67.13084,-25.9717 6.30694,-4.5424 9.18459,-6.9874 15.86582,-13.4798 13.90744,-13.51436 24.15805,-28.37372 31.70489,-45.95941 17.63237,-41.08716 14.60657,-89.31656 -7.99412,-127.42418 -22.38704,-37.7473 -58.72583,-62.27307 -102.04502,-68.87221 -8.63797,-1.31588 -24.66612,-1.80089 -32.78256,-0.99197 -13.38335,1.33383 -22.50304,3.27223 -34.12597,7.25352 -9.54041,3.26794 -15.15276,5.82004 -25.26273,11.4877 -2.24796,1.26019 -2.78047,1.39123 -3.30204,0.81251 -0.34203,-0.3795 -2.6315,-3.17463 -5.08776,-6.2114 -5.61747,-6.94508 -17.81041,-19.42788 -24.59404,-25.17865 l -5.18067,-4.39188 4.61106,-2.98745 c 23.41863,-15.1726 48.69988,-24.89366 75.38533,-28.98687 8.39417,-1.28756 22.49766,-2.43962 29.86571,-2.43962 23.03495,0 49.86545,5.23624 71.7781,14.00821 12.40436,4.96566 28.28885,13.6579 38.81704,21.2413 2.77771,2.00075 5.37332,3.83445 5.76805,4.07489 0.53999,0.32888 13.99743,-12.84209 54.33269,-53.17598 29.4882,-29.48723 53.5053,-53.7904 53.3714,-54.00704 -0.1339,-0.21665 -25.0526,-0.40238 -55.3748,-0.41275 -53.3132,-0.0182 -55.22516,-0.0511 -57.97431,-0.99696 -4.6969,-1.61597 -7.72518,-3.54938 -10.93683,-6.9826 -9.28256,-9.9231 -8.93913,-24.75563 0.79799,-34.46495 3.43597,-3.42617 8.04613,-5.95589 12.30127,-6.75003 1.74561,-0.32578 33.43278,-0.50459 89.41878,-0.50459 85.1406,0 86.773,0.0181 89.9051,0.99801 4.3068,1.3474 7.4424,3.24209 10.6968,6.46344 3.0404,3.00963 5.879,8.27044 6.753,12.51556 0.7523,3.65413 0.764,171.64032 0.012,176.27365 -0.7958,4.90497 -3.1029,9.25714 -6.9525,13.1153 -5.0994,5.11117 -10.6668,7.47417 -17.6092,7.47417 -11.0803,0 -20.0203,-6.72008 -24.0391,-18.07001 -0.7099,-2.00469 -0.816,-8.49773 -0.9436,-57.72702 l -0.1437,-55.46828 -53.6935,53.6 c -29.5315,29.48 -53.6935,53.78709 -53.6935,54.01575 0,0.22866 0.7524,1.40819 1.6721,2.62119 5.705,7.52467 12.4959,18.62897 17.3584,28.38373 10.0703,20.20225 16.229,40.86216 19.2046,64.42274 0.8969,7.10166 0.8996,36.62589 0.01,43.16725 -3.358,24.52552 -9.0715,43.83366 -18.7653,63.41492 -3.5752,7.22192 -9.4462,17.29621 -13.3566,22.91961 -1.2479,1.7944 -2.7395,3.9368 -3.3146,4.7608 -1.3496,1.9334 -8.5338,10.9585 -10.7943,13.5601 -4.15847,4.7861 -18.27536,18.4552 -22.8779,22.1522 -30.93676,24.8501 -66.23216,39.2907 -104.65548,42.8183 -5.18032,0.4756 -27.29475,0.6135 -32.37543,0.202 z m -299.91201,-85.789 c -7.24228,-5.5246 -13.1846,-10.90389 -18.33028,-16.59341 -4.78387,-5.28947 -11.78641,-14.25177 -11.78641,-15.08501 0,-0.62704 182.37962,-182.86615 183.00715,-182.86615 0.30207,0 3.01237,1.8466 6.02283,4.10356 9.17189,6.87614 23.48026,21.96339 28.36463,29.9086 0.67482,1.09767 -2.29494,4.12201 -90.81346,92.48332 -50.3311,50.2417 -91.66564,91.33849 -91.85452,91.32609 -0.18887,-0.012 -2.26335,-1.4869 -4.60994,-3.277 z m 233.44228,-2.0308 c -2.31105,-1.8274 -6.13236,-5.1591 -8.4919,-7.40373 -6.33996,-6.03127 -23.67056,-23.59189 -23.67056,-23.98476 0,-0.18667 1.20617,-2.58955 2.68039,-5.33973 9.26755,-17.28893 14.43231,-34.8134 16.37725,-55.56978 2.19279,-23.40171 -2.70548,-50.04579 -13.33316,-72.5251 -6.35763,-13.4475 -16.80411,-28.16185 -27.80451,-39.16404 -27.93669,-27.94114 -65.54364,-42.81348 -104.91197,-41.48928 -21.33143,0.7175 -39.52915,5.28452 -58.62558,14.71305 l -9.68597,4.78228 -14.1564,-14.06178 c -13.33796,-13.2488 -18.67733,-18.26516 -21.30913,-20.02 -0.62115,-0.41418 -1.12937,-0.9575 -1.12937,-1.20739 0,-0.24989 1.63759,-1.49064 3.6391,-2.75722 2.0015,-1.26659 4.27498,-2.74786 5.05217,-3.29174 2.30735,-1.61466 14.26118,-8.02346 19.72117,-10.57309 28.82472,-13.46015 62.5485,-19.74552 93.56013,-17.43754 35.32871,2.62927 65.93697,13.07578 94.61657,32.29237 42.86427,28.7209 72.42048,73.83571 81.7681,124.81154 2.2209,12.11137 2.96444,20.79862 2.96444,34.63418 0,30.2007 -6.13472,57.06464 -19.14242,83.82478 -4.57106,9.40378 -12.63229,23.08948 -13.60034,23.08948 -0.17393,0 -2.20701,-1.4952 -4.51801,-3.3225 z"
       id="path318" /></g></svg>
