<?xml version="1.0" encoding="UTF-8"?>
<svg width="32px" height="32px" viewBox="0 0 32 32" version="1.1" xmlns="http://www.w3.org/2000/svg" xmlns:xlink="http://www.w3.org/1999/xlink">
    <title>add-document</title>
    <g id="add-document" stroke="none" stroke-width="1" fill="none" fill-rule="evenodd">
        <circle id="Oval" fill="#F4FAFF" cx="16" cy="16" r="16"></circle>
        <g id="add-2" transform="translate(0.000000, 2.000000)" fill="#505D6E" fill-rule="nonzero">
            <g id="add">
                <path d="M9.77166667,22.75 L2.70833333,22.75 C1.2155,22.75 0,21.5355833 0,20.0416667 L0,2.70833333 C0,1.21441667 1.2155,0 2.70833333,0 L15.7083333,0 C17.2011667,0 18.4166667,1.21441667 18.4166667,2.70833333 L18.4166667,9.27333333 C18.4166667,9.57233333 18.174,9.815 17.875,9.815 C17.576,9.815 17.3333333,9.57233333 17.3333333,9.27333333 L17.3333333,2.70833333 C17.3333333,1.81241667 16.60425,1.08333333 15.7083333,1.08333333 L2.70833333,1.08333333 C1.81241667,1.08333333 1.08333333,1.81241667 1.08333333,2.70833333 L1.08333333,20.0416667 C1.08333333,20.9375833 1.81241667,21.6666667 2.70833333,21.6666667 L9.77166667,21.6666667 C10.0706667,21.6666667 10.3133333,21.9093333 10.3133333,22.2083333 C10.3133333,22.5073333 10.0706667,22.75 9.77166667,22.75 Z" id="Path"></path>
                <path d="M14.625,9.75 L3.79166667,9.75 C3.49266667,9.75 3.25,9.50733333 3.25,9.20833333 C3.25,8.90933333 3.49266667,8.66666667 3.79166667,8.66666667 L14.625,8.66666667 C14.924,8.66666667 15.1666667,8.90933333 15.1666667,9.20833333 C15.1666667,9.50733333 14.924,9.75 14.625,9.75 Z" id="Path"></path>
                <path d="M10.2916667,14.0833333 L3.79166667,14.0833333 C3.49266667,14.0833333 3.25,13.8406667 3.25,13.5416667 C3.25,13.2426667 3.49266667,13 3.79166667,13 L10.2916667,13 C10.5906667,13 10.8333333,13.2426667 10.8333333,13.5416667 C10.8333333,13.8406667 10.5906667,14.0833333 10.2916667,14.0833333 Z" id="Path"></path>
                <path d="M9.20833333,5.41666667 L3.79166667,5.41666667 C3.49266667,5.41666667 3.25,5.174 3.25,4.875 C3.25,4.576 3.49266667,4.33333333 3.79166667,4.33333333 L9.20833333,4.33333333 C9.50733333,4.33333333 9.75,4.576 9.75,4.875 C9.75,5.174 9.50733333,5.41666667 9.20833333,5.41666667 Z" id="Path"></path>
                <path d="M18.9583333,26 C15.0756667,26 11.9166667,22.841 11.9166667,18.9583333 C11.9166667,15.0756667 15.0756667,11.9166667 18.9583333,11.9166667 C22.841,11.9166667 26,15.0756667 26,18.9583333 C26,22.841 22.841,26 18.9583333,26 Z M18.9583333,13 C15.6725833,13 13,15.6736667 13,18.9583333 C13,22.243 15.6725833,24.9166667 18.9583333,24.9166667 C22.2440833,24.9166667 24.9166667,22.243 24.9166667,18.9583333 C24.9166667,15.6736667 22.2440833,13 18.9583333,13 Z" id="Shape"></path>
                <path d="M18.9583333,22.75 C18.6593333,22.75 18.4166667,22.5073333 18.4166667,22.2083333 L18.4166667,15.7083333 C18.4166667,15.4093333 18.6593333,15.1666667 18.9583333,15.1666667 C19.2573333,15.1666667 19.5,15.4093333 19.5,15.7083333 L19.5,22.2083333 C19.5,22.5073333 19.2573333,22.75 18.9583333,22.75 Z" id="Path"></path>
                <path d="M22.2083333,19.5 L15.7083333,19.5 C15.4093333,19.5 15.1666667,19.2573333 15.1666667,18.9583333 C15.1666667,18.6593333 15.4093333,18.4166667 15.7083333,18.4166667 L22.2083333,18.4166667 C22.5073333,18.4166667 22.75,18.6593333 22.75,18.9583333 C22.75,19.2573333 22.5073333,19.5 22.2083333,19.5 Z" id="Path"></path>
            </g>
        </g>
    </g>
</svg>