<?xml version="1.0" encoding="UTF-8"?>
<svg width="32px" height="32px" viewBox="0 0 32 32" version="1.1" xmlns="http://www.w3.org/2000/svg" xmlns:xlink="http://www.w3.org/1999/xlink">
    <title>package-delivery</title>
    <g id="package-delivery" stroke="none" stroke-width="1" fill="none" fill-rule="evenodd">
        <circle id="Oval" fill="#F4FAFF" cx="16" cy="16" r="16"></circle>
        <g id="package" transform="translate(0.000000, 3.000000)" fill="#505D6E" fill-rule="nonzero">
            <path d="M26,3.28328532 C26,3.28038315 25.999543,3.27748098 25.9994414,3.27452699 C25.9991367,3.26297014 25.9984766,3.25156876 25.9971563,3.24027103 C25.9966484,3.23612508 25.9958867,3.23197912 25.9952774,3.22783317 C25.9937539,3.21741646 25.991875,3.20715522 25.9895391,3.19710128 C25.988625,3.1931108 25.9876094,3.18917214 25.986543,3.18518166 C25.9835977,3.1742467 25.9802461,3.16351904 25.9763868,3.15294686 C25.9756758,3.15092571 25.9752188,3.14885273 25.9744571,3.1468834 L24.9413154,0.447763127 C24.8371634,0.175788487 24.5849336,0 24.2987821,0 L22.4176466,0 C22.2125925,0 22.046386,0.169621379 22.046386,0.378888451 C22.046386,0.588155524 22.2125925,0.757776902 22.4176466,0.757776902 L24.262829,0.757776902 L25.085026,2.90584795 L17.3117584,2.90584795 L16.8247168,0.757776902 L19.6955253,0.757776902 C19.9005794,0.757776902 20.066786,0.588155524 20.066786,0.378888451 C20.066786,0.169621379 19.9005794,0 19.6955253,0 L16.3577337,0 L12.6168418,0 L4.67574268,0 C4.38954034,0 4.13736135,0.175788487 4.0332093,0.447866775 L3.00006763,3.1468834 C2.99930591,3.14890455 2.99889967,3.15097753 2.99813795,3.15294686 C2.99427858,3.16346722 2.99092703,3.17419488 2.98798173,3.18518166 C2.98691532,3.18917214 2.9858997,3.1931108 2.98498564,3.19710128 C2.98264971,3.20720704 2.98077081,3.21746828 2.97924738,3.22783317 C2.978638,3.23197912 2.97787629,3.23612508 2.97736847,3.24027103 C2.97609895,3.25156876 2.97538801,3.26297014 2.97508332,3.27452699 C2.97503254,3.27742915 2.97467708,3.28033132 2.97462629,3.28328532 C2.97462629,3.28375174 2.97457551,3.28421816 2.97457551,3.28468458 L2.97457551,8.85114724 C2.97457551,9.06041431 3.14078208,9.23003569 3.3458362,9.23003569 C3.55089032,9.23003569 3.71709689,9.06041431 3.71709689,8.85114724 L3.71709689,3.66362485 L11.586747,3.66362485 L11.586747,9.42277077 C11.586747,9.64799977 11.7167466,9.85322453 11.9179921,9.9456275 C11.9916755,9.97946886 12.0701323,9.99600086 12.1480813,9.99600086 C12.282956,9.99600086 12.4163579,9.94656034 12.520967,9.85192892 L14.4872624,8.07414347 L16.4535577,9.8518771 C16.6186471,10.0012869 16.8553886,10.0380305 17.0566342,9.9456275 C17.2578289,9.85317271 17.3878285,9.64799977 17.3878285,9.42277077 L17.3878285,3.66362485 L25.2574278,3.66362485 L25.2574278,20.6580494 C25.2574278,20.9299204 25.0406433,21.1511589 24.7742456,21.1511589 L17.9668855,21.1511589 C17.9668855,21.1468574 17.9663777,21.142556 17.9663269,21.1382546 C17.9659207,21.1042578 17.964702,21.0703127 17.9618582,21.0366269 C18.60104,21.209565 19.2839952,20.8743127 19.5401351,20.2332445 C19.6748574,19.8960229 19.6728769,19.5254781 19.5344984,19.1898631 C19.5214476,19.1582502 19.5070766,19.1275701 19.4919438,19.0973565 C19.4891509,19.0918113 19.4864595,19.0862142 19.4836665,19.0807208 C19.4687876,19.0519064 19.4529439,19.0237658 19.4362369,18.9963506 C19.4329869,18.9910127 19.4296354,18.9858303 19.4263346,18.9805442 C19.4086628,18.9524035 19.3903308,18.9247811 19.3707801,18.8981952 C19.3704246,18.8976769 19.3700184,18.8972105 19.3696629,18.8967441 C19.3502645,18.8704691 19.3297489,18.8451788 19.3085732,18.8204585 C19.3047139,18.8159498 19.3009053,18.8113892 19.2969951,18.8068805 C19.2760225,18.7830413 19.2542374,18.7599794 19.2316906,18.7377467 C19.2272727,18.7333935 19.2228039,18.7291957 19.2183352,18.7249461 C19.194722,18.7022988 19.1705502,18.6802734 19.1453627,18.6594918 C19.1444995,18.6588181 19.1436362,18.6581444 19.1427729,18.6574707 C19.1179917,18.6371037 19.0922457,18.617825 19.0659919,18.5992718 C19.0612692,18.5959032 19.0565974,18.5924828 19.0517732,18.5891661 C19.0255193,18.5711311 18.9986053,18.5540809 18.9709804,18.5378599 C18.9686953,18.5365124 18.9666132,18.5349577 18.9642773,18.5336103 C19.1211909,18.3950317 19.2450461,18.2196578 19.3256865,18.0178535 C19.4604087,17.6806319 19.4584283,17.3100871 19.3200498,16.9744203 C19.1989876,16.6807312 18.986164,16.4445154 18.713571,16.2979559 C18.6746219,16.2770188 18.634454,16.2578956 18.593169,16.2407417 L12.8149389,13.8362434 L15.5046111,12.9866336 C16.1445039,12.7844665 16.5048974,12.087946 16.3079683,11.4340771 C16.234488,11.189984 16.088797,10.9841374 15.9006022,10.833691 C15.6205444,10.6097577 15.2462368,10.5086482 14.8750269,10.5881987 C14.8732496,10.5886133 14.871523,10.5889242 14.8697457,10.5893906 C14.8491793,10.5941067 12.7872632,11.0672638 10.6337887,11.4958 C10.5382694,11.5148196 10.4451876,11.5331655 10.3534262,11.5512004 C10.2799967,11.5656075 10.2075828,11.5798074 10.13654,11.5935927 C10.116126,11.5975832 10.0956613,11.6015219 10.0753996,11.6054605 C9.94997025,11.6297662 9.82845106,11.6530354 9.7103342,11.6754235 C9.66280308,11.684441 9.61567821,11.6933548 9.56931505,11.7020613 C6.86486552,12.2105108 6.10512934,12.2196319 5.89428617,12.1905066 C5.89347368,12.1904029 5.89276274,12.1902993 5.89195024,12.1901438 C5.88875103,12.1896774 5.8856026,12.189211 5.8826573,12.1887446 C5.88052449,12.1883818 5.87854403,12.188019 5.87656357,12.1877081 C5.8751417,12.187449 5.87361826,12.1871898 5.87224717,12.1869825 C5.85909487,12.1845468 5.84883708,12.1820074 5.84091523,12.1795716 L5.78007946,12.1542813 L5.85589566,11.9645521 C5.93044232,11.7779841 5.92932514,11.5729666 5.85279801,11.3872797 C5.83365353,11.340845 5.810345,11.2970015 5.78332945,11.2561638 C5.7022828,11.1337027 5.58766984,11.0383457 5.45056084,10.981287 L3.45648824,10.151526 C3.27372703,10.0753959 3.07278618,10.0765879 2.89083746,10.1546873 C2.70883797,10.2327867 2.5676157,10.3785688 2.49306904,10.565085 L0.0547125097,16.668086 C-0.0991542514,17.0531934 0.082692901,17.4942194 0.460047324,17.6512992 L2.45417071,18.4811121 C2.54522123,18.5189958 2.63942019,18.536927 2.73219728,18.536927 C3.02383319,18.536927 3.30079336,18.3595838 3.41753913,18.0674495 L3.43587111,18.0215848 L3.89564327,18.2128688 C3.89589718,18.2129725 3.89615109,18.2131279 3.89645577,18.2132316 C4.33622018,18.3962237 4.74140265,18.6573152 5.09209699,18.9813216 C5.15587806,19.0402459 5.21783102,19.1012433 5.27790507,19.16421 C5.33797912,19.2271767 5.39607271,19.2921645 5.45218584,19.359018 C5.48021701,19.3924448 5.50779115,19.4263898 5.53475592,19.4607494 C6.04576622,20.1110424 6.71567062,20.6211504 7.47195368,20.9358802 L7.98921006,21.151107 L4.20032993,21.151107 C3.93393223,21.151107 3.71714768,20.9298685 3.71714768,20.6579975 L3.71714768,19.6992973 C3.71714768,19.4900302 3.5509411,19.3204088 3.34588698,19.3204088 C3.14083287,19.3204088 2.97462629,19.4900302 2.97462629,19.6992973 L2.97462629,20.6579975 C2.97462629,21.347729 3.52443337,21.9088839 4.20032993,21.9088839 L9.81027142,21.9088839 L14.5928871,23.8990459 C14.7575194,23.9675578 14.9278393,24 15.0955693,24 C15.6226264,24 16.1232266,23.6794658 16.3342221,23.1514266 C16.4207531,22.9348523 16.4485304,22.7084832 16.4252218,22.4908724 C16.6739985,22.5273049 16.9319157,22.4938782 17.165712,22.3908512 C17.4033168,22.286114 17.6002459,22.1192912 17.7400971,21.9088321 L24.7742964,21.9088321 C25.4501421,21.9088321 26,21.347729 26,20.6579457 L26,3.2847364 C26,3.28421816 26,3.28380356 26,3.28328532 Z M12.9119816,0.757776902 L16.0625432,0.757776902 L16.5495848,2.90584795 L12.42494,2.90584795 L12.9119816,0.757776902 Z M11.6628171,2.90584795 L3.88949876,2.90584795 L4.7116957,0.757776902 L12.1498587,0.757776902 L11.6628171,2.90584795 Z M16.6454087,9.01289131 L16.6453579,9.01289131 L14.8597926,7.39856013 C14.7536093,7.30258127 14.6204612,7.25459184 14.4873639,7.25459184 C14.3542159,7.25459184 14.221017,7.30258127 14.1148337,7.39856013 L12.3293191,9.01289131 L12.3293191,3.66362485 L16.6454087,3.66362485 L16.6454087,9.01289131 L16.6454087,9.01289131 Z M2.73128322,17.7780618 L0.743558257,16.9509438 L3.17932495,10.8545763 L5.16704991,11.6817461 L2.73128322,17.7780618 Z M17.5636835,20.0646077 L17.1375792,19.8872645 C17.1373761,19.8871609 17.137173,19.8871091 17.1369699,19.8870054 C17.1368175,19.8869536 17.1366652,19.8868499 17.1365128,19.8867981 C17.1364621,19.8867981 17.1364113,19.8867463 17.1363605,19.8867463 L12.6988025,18.0401898 C12.5089827,17.9612094 12.2922997,18.0541824 12.2148585,18.2480058 C12.1374173,18.4417774 12.2285694,18.6629122 12.4184908,18.7419445 L16.8561503,20.5885528 C16.8746854,20.5962746 16.8926112,20.6048257 16.9099275,20.6142059 C16.9148025,20.6168489 16.919322,20.620062 16.9240955,20.6228087 C16.9362829,20.6298569 16.9485212,20.636905 16.9600485,20.6447305 C16.9655836,20.6485137 16.9706617,20.6528669 16.9760445,20.6568056 C16.9862515,20.6642683 16.9966617,20.6716274 17.0063101,20.679712 C17.0121499,20.6845835 17.0174311,20.690025 17.0230678,20.6951038 C17.0317006,20.7029293 17.0405365,20.7104957 17.0486615,20.7187876 C17.0542982,20.7244883 17.0593256,20.730759 17.0647084,20.736667 C17.0721732,20.7448553 17.0798411,20.7528881 17.0868489,20.7614909 C17.0921809,20.7680726 17.0968528,20.7750689 17.1019309,20.7818579 C17.1082785,20.7903571 17.1148801,20.7987009 17.1207199,20.807511 C17.1256457,20.8148701 17.1298605,20.8226438 17.1344308,20.8301583 C17.139712,20.8388648 17.145298,20.8474159 17.1501222,20.8563815 C17.1544894,20.8644661 17.1581456,20.8729135 17.1621573,20.8811536 C17.1664229,20.8900155 17.171044,20.898722 17.1749034,20.9077913 C17.1786104,20.9164978 17.1816065,20.9255153 17.1849072,20.9343773 C17.1882588,20.9433429 17.191915,20.952153 17.1948603,20.9612741 C17.1978056,20.9704471 17.20004,20.9798273 17.2025283,20.9891039 C17.2050166,20.9982768 17.2078095,21.0072942 17.2098915,21.0165708 C17.2119736,21.025951 17.2132939,21.0354867 17.2149697,21.0449188 C17.2166454,21.0543508 17.2185751,21.0636792 17.2197939,21.0732149 C17.2210126,21.0827506 17.2214696,21.09239 17.2222314,21.1019775 C17.2229931,21.1116168 17.2241103,21.1212043 17.2244149,21.1308437 C17.2247196,21.1403276 17.2242626,21.1499151 17.224161,21.1594508 C17.2240595,21.1692974 17.2242118,21.1791441 17.2236024,21.1890425 C17.2230438,21.1984228 17.2216728,21.207803 17.2206571,21.2171832 C17.2195907,21.227289 17.2187782,21.2373947 17.2171532,21.2474487 C17.2156806,21.2566734 17.2133954,21.2658463 17.2115165,21.2750711 C17.2093837,21.2852805 17.2076064,21.2954899 17.204915,21.3056475 C17.2025791,21.3146131 17.1994306,21.3235269 17.1966377,21.3324407 C17.1934892,21.3425983 17.1905947,21.3527559 17.1868877,21.362758 C17.1837393,21.3696507 17.1806416,21.3765952 17.1777471,21.3835915 C17.1770869,21.385198 17.1767315,21.3868564 17.1761221,21.3884111 C17.1181301,21.5250722 17.0110835,21.6336444 16.8712831,21.6952636 C16.7174163,21.7629982 16.5412567,21.7653821 16.3878977,21.7015344 L15.6016538,21.3743667 C15.5979976,21.3728638 15.5942905,21.3718273 15.5906343,21.3704281 C15.5869273,21.3687179 15.5834234,21.3667485 15.5796656,21.3651938 L11.9703475,19.8632698 C11.7803753,19.7842894 11.5637939,19.8772624 11.4864035,20.0710858 C11.4089623,20.2648574 11.5001144,20.4859922 11.689985,20.5650245 L15.2993031,22.0669485 C15.3031624,22.068555 15.3070726,22.0696952 15.3109827,22.0711463 C15.3144866,22.072701 15.3177366,22.0746185 15.3213421,22.0760696 C15.6242514,22.2021584 15.7702471,22.556223 15.6467474,22.8653557 C15.523197,23.1745921 15.1764128,23.3236392 14.8733511,23.1974467 L10.0240091,21.1795068 C10.023806,21.1794032 10.0236029,21.1792995 10.0233997,21.1791959 L7.75246853,20.2341773 C7.35271963,20.0678209 6.98150972,19.836943 6.65381923,19.5528933 C6.45719477,19.3824427 6.27626168,19.1929207 6.11416838,18.9866595 C5.95446179,18.7834559 5.77926696,18.5939339 5.59076748,18.419752 C5.17603816,18.0366139 4.6969184,17.7278958 4.17697062,17.5114769 C4.17691984,17.5114769 4.17686906,17.5114251 4.17681828,17.5114251 L3.71643674,17.319882 L4.63339123,15.0248368 L5.49992008,12.856036 L5.5638535,12.8826219 C5.62402911,12.9076531 5.70984919,12.9432047 5.94080167,12.9521185 C6.22933993,12.9654374 6.70668236,12.9347055 7.56183624,12.8114152 C8.14353385,12.7275632 8.85705922,12.606294 9.69002175,12.4498879 C9.71053732,12.4460529 9.73090054,12.4422179 9.75161924,12.438331 C9.79056835,12.430972 9.82992371,12.4235093 9.86943141,12.4160465 C9.90015398,12.4102422 9.9310289,12.4043342 9.96215772,12.3983744 C9.99760293,12.3915854 10.0332005,12.3847964 10.069052,12.3779038 C10.107087,12.3705965 10.1455791,12.3631856 10.1842743,12.3556711 C10.2152508,12.3496594 10.2461765,12.3436996 10.2774576,12.3376362 C10.3246333,12.3284632 10.3726214,12.319083 10.4207619,12.309651 C10.4455431,12.3047795 10.4700704,12.3000116 10.4950547,12.2951401 C10.5687888,12.2806293 10.6434879,12.2659111 10.719558,12.2508302 C12.8656184,11.8248334 14.9369799,11.3506916 15.0300616,11.3293399 C15.0393546,11.3273706 15.0486475,11.3262305 15.0579405,11.3248312 C15.2964086,11.2888132 15.5300524,11.4295684 15.5984546,11.6566631 C15.6224741,11.7364727 15.625267,11.8178889 15.6101343,11.8944854 C15.5768726,12.0630703 15.4568261,12.2085415 15.2852367,12.262698 L11.6045204,13.4253274 C11.4546653,13.472695 11.3501578,13.6109107 11.3434039,13.7708409 C11.3365992,13.9307193 11.4289193,14.0777453 11.5741532,14.1381725 L18.3130096,16.9424446 C18.459767,17.0034938 18.5744307,17.1192178 18.6358759,17.2683167 C18.697321,17.4174156 18.6982351,17.58201 18.6383641,17.7317308 C18.5784932,17.8815034 18.4651498,17.998523 18.3190525,18.0612305 C18.2460293,18.0925325 18.1691975,18.1083908 18.0922641,18.1088572 C18.0911469,18.1088572 18.0900297,18.1087017 18.0889125,18.1087017 C18.0708345,18.1087017 18.0528072,18.1079762 18.0347799,18.106266 C18.0294479,18.1057477 18.0241666,18.1046076 18.0188346,18.1039857 C18.0050729,18.1022755 17.9913113,18.1006689 17.9776511,18.097974 C17.9690183,18.0962638 17.9604871,18.0936726 17.9519051,18.0915996 C17.9416473,18.0891121 17.9313388,18.0869873 17.9211825,18.0839296 C17.9106709,18.0807683 17.9003623,18.0765706 17.8900029,18.0727874 C17.8817764,18.0697816 17.8733975,18.067294 17.8652725,18.0639254 L13.4272067,16.2171098 C13.2373361,16.1380775 13.0207039,16.2311024 12.9432627,16.4249258 C12.8658215,16.6186973 12.9569736,16.8398322 13.146895,16.9188645 L18.5274074,19.1578356 C18.5641222,19.173072 18.5988057,19.1917806 18.6311532,19.2135469 C18.7281959,19.2788456 18.8042152,19.3718705 18.8502737,19.4837076 C18.9040509,19.6141497 18.911465,19.7564596 18.8723635,19.8903222 C18.8667776,19.9094454 18.8602268,19.9284131 18.852762,19.9471217 C18.8450433,19.9664523 18.8364613,19.9851609 18.8270667,20.0031958 C18.8051801,20.0451736 18.77852,20.0831091 18.7487623,20.117676 C18.730278,20.1391313 18.7105241,20.1591355 18.6895007,20.1774814 C18.6861492,20.1803835 18.6831023,20.1837003 18.6797,20.1864988 C18.544216,20.2995797 18.3630798,20.3481911 18.1861076,20.3117067 C18.1502053,20.3042958 18.1145062,20.2937754 18.0793657,20.2791609 L17.5636835,20.0646077 Z" id="Shape"></path>
        </g>
    </g>
</svg>