<?xml version="1.0" encoding="UTF-8"?>
<svg width="32px" height="32px" viewBox="0 0 32 32" version="1.1" xmlns="http://www.w3.org/2000/svg" xmlns:xlink="http://www.w3.org/1999/xlink">
    <title>pill-vitamins</title>
    <g id="pill-vitamins" stroke="none" stroke-width="1" fill="none" fill-rule="evenodd">
        <circle id="Oval-Copy" fill="#F4FAFF" cx="16" cy="16" r="16"></circle>
        <g id="Group-6" transform="translate(3.000000, 3.000000)">
            <circle id="Oval" fill="#F4FAFF" cx="14" cy="8" r="1"></circle>
            <g id="supplement" fill="#505D6E" fill-rule="nonzero">
                <path d="M6.11640625,3.69374658 C6.11640625,3.9636901 6.02646484,4.21298459 5.87558594,4.41403324 C6.23266602,4.66609713 6.44448242,5.07237282 6.44448242,5.50896613 C6.44448242,5.87943397 6.29360352,6.21550297 6.04995117,6.45925866 C5.80498047,6.70165395 5.46865234,6.85183311 5.09492188,6.85183311 C4.61049805,6.85183311 3.85200195,6.85461092 3.85063477,6.85461092 C3.65131836,6.85596291 3.48110352,6.69208252 3.48246252,6.49234569 C3.48246252,5.28036925 3.48246252,4.06839282 3.48246252,2.85777679 C3.48246252,2.65667956 3.64716797,2.49279916 3.84926758,2.49279916 L4.90947266,2.49279916 C5.24306641,2.49279916 5.54477539,2.62777092 5.76347656,2.84538737 C5.98217773,3.06159483 6.11640625,3.36185598 6.11640625,3.69374658 L6.11640625,3.69374658 Z M10.2618652,19.8902605 C9.89506836,20.3957001 9.42866211,20.8254428 8.89155273,21.1504828 C8.17871094,21.5815859 7.34414062,21.8308318 6.45136719,21.8308318 C5.15439453,21.8308318 3.98066406,21.307464 3.12949219,20.4618256 C2.27963867,19.6148268 1.75361328,18.4468692 1.75361328,17.1563779 C1.75361328,16.6041015 1.85048828,16.072474 2.02768555,15.5808328 C2.21040039,15.0712634 2.48168945,14.6015831 2.82216797,14.1898172 C2.95087891,14.0341964 3.18066406,14.0121384 3.33569336,14.1402595 C3.49208984,14.2669717 3.51420898,14.4955686 3.38691406,14.6512379 C3.10039062,14.9955179 2.87338867,15.3922222 2.71699219,15.8260461 C2.56748047,16.24063 2.48583984,16.6882037 2.48583984,17.1564751 C2.48583984,18.2459178 2.93017578,19.2320181 3.64853516,19.9454542 C4.36552734,20.660202 5.35649414,21.1023341 6.45136719,21.1023341 C7.20708008,21.1023341 7.91157227,20.8929773 8.5109375,20.5294087 C9.08535156,20.1823107 9.5628418,19.6947993 9.89643555,19.1135656 C9.53242188,18.2156487 9.33310547,17.2336296 9.33310547,16.2062311 C9.33310547,15.6635747 9.38847656,15.1347167 9.49365234,14.6237383 C9.14067383,14.2037128 8.7019043,13.8593842 8.20366211,13.6142195 C7.67631836,13.355305 7.08251953,13.2107132 6.45136719,13.2107132 C6.11225586,13.2107132 5.7828125,13.2520113 5.4699707,13.3319351 C5.14335937,13.4145798 4.83466797,13.5357532 4.55092773,13.691374 C4.3737793,13.7864081 4.15234375,13.7216916 4.05546875,13.5453732 C3.95996094,13.3691034 4.025,13.1487175 4.20214844,13.0536834 C4.54404297,12.867745 4.90805664,12.7231046 5.28867187,12.6253497 C5.66103516,12.531676 6.05131836,12.4807094 6.45136719,12.4807094 C7.19604492,12.4807094 7.90053711,12.6542584 8.52753906,12.9627791 C8.96630859,13.1776262 9.36630859,13.4599591 9.71508789,13.7946191 C10.1012695,12.6115513 10.7642578,11.5524263 11.6279785,10.6943984 C12.5774902,9.74823572 13.7706055,9.04446829 15.1062988,8.68362046 C14.8280762,8.35445068 14.5941406,7.98534324 14.4155762,7.58868757 C14.1525879,7.00337267 14.0058594,6.35742252 14.0058594,5.67979432 C14.0058594,5.02835395 14.1415039,4.40582222 14.3851074,3.83974735 C14.6398437,3.25166306 15.0094238,2.72698342 15.4688965,2.29311092 C15.6142578,2.15400935 15.8454102,2.15954815 15.9852051,2.30550033 C16.123584,2.45009211 16.1180664,2.68150697 15.9713379,2.81924813 C15.5852051,3.18558617 15.2709961,3.62907869 15.0578613,4.12348928 C14.8530273,4.60002024 14.7380859,5.12610887 14.7380859,5.67979432 C14.7380859,6.25684961 14.8612793,6.80227544 15.0827637,7.29255623 C15.2875977,7.74979857 15.5796875,8.16161305 15.9353516,8.50730206 C16.3367676,8.44394599 16.7478516,8.41090754 17.1672363,8.41090754 C18.3783691,8.41090754 19.5271973,8.68498087 20.5514648,9.17394984 C21.1660156,8.85167925 21.6850586,8.37237889 22.055957,7.7897848 C22.4449219,7.18105148 22.6691406,6.45658643 22.6691406,5.67984291 C22.6691406,4.59044881 22.2262207,3.60434844 21.5078613,2.8909124 C20.7908691,2.17611596 19.7999023,1.73398385 18.7036621,1.73398385 C18.4461914,1.73398385 18.1970215,1.75740227 17.9589844,1.80287872 C17.7153809,1.84971557 17.4772949,1.91856186 17.2461426,2.00946616 C17.0579102,2.08380266 16.8461426,1.99153795 16.7713867,1.80423912 C16.6966309,1.6169403 16.7893555,1.40622305 16.9776367,1.33183797 C17.2461426,1.22577484 17.5284668,1.14453914 17.824707,1.08808227 C18.1125977,1.03434622 18.4060059,1.00543758 18.7036621,1.00543758 C20.0019531,1.00543758 21.1756836,1.52880539 22.0254883,2.37444379 C22.8767578,3.2214426 23.4027344,4.38935158 23.4027344,5.67984291 C23.4027344,6.59986639 23.1355957,7.45648521 22.6746582,8.17958985 C22.3189453,8.73735652 21.8483398,9.21529648 21.2946777,9.58027411 C21.8067871,9.89705448 22.281543,10.2716521 22.7064941,10.694447 C24.123877,12.1046541 25,14.053485 25,16.206134 C25,18.3587829 24.123877,20.3062048 22.7064941,21.7179181 C21.2877441,23.1281738 19.329248,24 17.1672363,24 C15.0039062,24 13.0453125,23.1281738 11.6280273,21.7179181 C11.0868652,21.1808005 10.6259277,20.5651679 10.2618652,19.8902605 L10.2618652,19.8902605 Z M2.95097656,1.13074073 C2.76967773,1.21887564 2.55102539,1.14313015 2.46240234,0.964090937 C2.37382813,0.783691317 2.44995117,0.566074863 2.62988281,0.47789137 C2.94819336,0.322270583 3.2859375,0.202457639 3.63613281,0.121173351 C3.9793457,0.042658461 4.33505859,0 4.69770508,0 C5.99599609,0 7.16977539,0.523367816 8.01958008,1.36895763 C8.87084961,2.21459603 9.39541016,3.383914 9.39541016,4.67435674 C9.39541016,5.96625706 8.87084961,7.13416604 8.01958008,7.97980444 C7.16977539,8.82680325 5.99599609,9.34881066 4.69770508,9.34881066 C3.40078125,9.34881066 2.22568359,8.82680325 1.37583008,7.97980444 C0.526025391,7.13416604 0,5.96625706 0,4.67435674 C0,4.08627245 0.109326172,3.52437597 0.310058594,3.00513796 C0.516308594,2.46525093 0.822167969,1.97492155 1.20283203,1.55348705 C1.33706055,1.40335648 1.56821289,1.39096706 1.71904297,1.52593882 C1.86855469,1.66091058 1.88100586,1.89091645 1.74536133,2.03963803 C1.42563477,2.39494706 1.16821289,2.80953094 0.99375,3.26405247 C0.824902344,3.70064579 0.732177734,4.17717675 0.732177734,4.67435674 C0.732177734,5.76379942 1.17651367,6.7512602 1.89345703,7.46469624 C2.61186523,8.17949268 3.60288086,8.62016722 4.69770508,8.62016722 C5.7925293,8.62016722 6.78496094,8.17949268 7.50195313,7.46469624 C8.2203125,6.7512602 8.66323242,5.76379942 8.66323242,4.67435674 C8.66323242,3.58496265 8.2203125,2.59881369 7.50195313,1.88401725 C6.78496094,1.1706298 5.7925293,0.728546268 4.69770508,0.728546268 C4.3862793,0.728546268 4.0859375,0.764354111 3.79946289,0.830479584 C3.50043945,0.89932587 3.21674805,0.999850193 2.95097656,1.13074073 Z M16.8849121,17.0930704 C17.0274902,16.9498391 17.2600098,16.9498391 17.4025879,17.0930704 C17.5465332,17.2349414 17.5465332,17.4649473 17.4025879,17.6081786 L13.0356445,21.9534142 C14.199707,22.7838938 15.6253418,23.2714051 17.1672363,23.2714051 C19.1271973,23.2714051 20.9030273,22.4809118 22.1874023,21.2027613 C23.473291,19.923299 24.2678223,18.1562767 24.2678223,16.2060854 C24.2678223,14.6717898 23.776416,13.2532259 22.9432129,12.0949855 L18.5762695,16.4402211 C18.4323242,16.5834524 18.201123,16.5834524 18.0585937,16.4402211 C17.9146484,16.2983987 17.9146484,16.0669838 18.0585937,15.9251129 L22.4835938,11.52206 C22.2925781,11.307213 22.0891602,11.1047553 21.8745605,10.9146871 L11.8495117,20.8901593 C12.0404785,21.103646 12.2439453,21.3061036 12.4598633,21.4961718 L16.8849121,17.0930704 Z M11.3899414,20.3158734 L21.2974609,10.4574934 C20.1334473,9.62842278 18.7077637,9.13945381 17.1672363,9.13945381 C15.205957,9.13945381 13.430127,9.92999575 12.1456543,11.2094581 C10.8598145,12.48756 10.065332,14.2545823 10.065332,16.206134 C10.065332,17.7390206 10.5566895,19.1589449 11.3899414,20.3158734 L11.3899414,20.3158734 Z M8.01542969,15.3467458 C8.18295898,15.4596595 8.22719727,15.6855841 8.1137207,15.8521854 C8.00161133,16.0188352 7.7746582,16.0629026 7.60712891,15.9513493 C7.35942383,15.7846995 7.08671875,15.7034638 6.79052734,15.7034638 C6.38637695,15.7034638 6.02089844,15.8659838 5.75795898,16.1290281 C5.49355469,16.3920724 5.33022461,16.7543292 5.33022461,17.1564751 C5.33022461,17.5572606 5.49355469,17.9208778 5.75795898,18.1839221 C6.02094727,18.445606 6.38637695,18.6094864 6.79052734,18.6094864 C6.97182617,18.6094864 7.13930664,18.576448 7.28740234,18.5103225 C7.42583008,18.4483268 7.553125,18.3547017 7.6597168,18.2266291 C7.78984375,18.0724174 8.01958008,18.0517197 8.17460937,18.1811527 C8.32963867,18.3106342 8.35043945,18.5392311 8.2203125,18.6934915 C8.04179687,18.9069782 7.82587891,19.0667287 7.58500977,19.1741523 C7.33862305,19.2843452 7.07011719,19.3380813 6.79052734,19.3380813 C6.18422852,19.3380813 5.63608398,19.0929166 5.23891602,18.6990303 C4.84306641,18.3037836 4.59667969,17.7584064 4.59667969,17.1565237 C4.59667969,16.5532806 4.84306641,16.0079033 5.23891602,15.614017 C5.63613281,15.2187704 6.18422852,14.974966 6.79052734,14.974966 C7.22236328,14.9748689 7.65693359,15.1057109 8.01542969,15.3467458 Z M18.1997559,6.00478572 L19.3444336,6.00478572 L18.7741699,4.50357714 L18.1997559,6.00478572 Z M19.6199219,6.73474098 L17.920166,6.73474098 L17.6696289,7.39172014 C17.5976563,7.58037938 17.3858887,7.67405308 17.1976563,7.60243739 C17.0080078,7.53082171 16.9138672,7.32010446 16.9858887,7.13280564 L18.3561035,3.54920339 C18.4225586,3.3770148 18.5914063,3.26546147 18.7754883,3.26410106 C18.958252,3.26410106 19.1284668,3.37842379 19.1935547,3.5505638 L20.5527344,7.13416604 C20.623291,7.32146487 20.5291992,7.53218212 20.3395996,7.60243739 C20.1513672,7.67269267 19.9395996,7.57765856 19.8689453,7.39035974 L19.6199219,6.73474098 Z M4.21464844,4.89615159 L4.21464844,6.12741664 C4.57036133,6.12605624 5.06171875,6.12328684 5.09492187,6.12328684 C5.26513672,6.12328684 5.42016602,6.05444055 5.53227539,5.94419904 C5.64296875,5.83264571 5.71220703,5.67838533 5.71220703,5.50901472 C5.71220703,5.33959552 5.64296875,5.18674413 5.53227539,5.0751908 C5.42016602,4.96363747 5.26513672,4.89615159 5.09492187,4.89615159 L4.21464844,4.89615159 Z M4.21464844,4.16619633 L4.90942383,4.16619633 C5.04091797,4.16619633 5.15996094,4.11250886 5.24580078,4.02709476 C5.3315918,3.94168067 5.38417969,3.82463712 5.38417969,3.69379517 C5.38417969,3.56295322 5.3315918,3.44590967 5.24580078,3.36049558 C5.15996094,3.27513007 5.0409668,3.22139401 4.90942383,3.22139401 L4.21464844,3.22139401 L4.21464844,4.16619633 Z" id="Shape"></path>
            </g>
        </g>
    </g>
</svg>