<?xml version="1.0" encoding="UTF-8"?>
<svg width="32px" height="32px" viewBox="0 0 32 32" version="1.1" xmlns="http://www.w3.org/2000/svg" xmlns:xlink="http://www.w3.org/1999/xlink">
    <title>sun-rise-outline</title>
    <g id="sun-rise-outline" stroke="none" stroke-width="1" fill="none" fill-rule="evenodd">
        <g id="sunrise-(1)-2" transform="translate(0.000000, 6.000000)" fill="#132841" fill-rule="nonzero">
            <g id="sunrise-(1)">
                <path d="M31.3800234,12.3505853 L23.5945687,12.3505853 C23.2780095,8.29266869 19.9929022,5.09090909 15.9999587,5.09090909 C12.0070151,5.09090909 8.72190783,8.29266869 8.40534865,12.3505853 L0.619893946,12.3505853 C0.277547183,12.3505853 0,12.6384282 0,12.9934744 C0,13.3485207 0.277547183,13.6363636 0.619893946,13.6363636 L8.99995093,13.6363636 L23.0000491,13.6363636 L31.3801061,13.6363636 C31.7224528,13.6363636 32,13.3485207 32,12.9934744 C32,12.6384282 31.7224528,12.3505853 31.3800234,12.3505853 Z M9.64968243,12.3505853 C9.96243959,9.00258979 12.6910474,6.37668747 15.9999587,6.37668747 C19.3087873,6.37668747 22.0374778,9.00267551 22.3502349,12.3505853 L9.64968243,12.3505853 L9.64968243,12.3505853 Z" id="Shape"></path>
                <path d="M28.1789744,15.4545455 L3.8210256,15.4545455 C3.47805386,15.4545455 3.2,15.7394667 3.2,16.0909091 C3.2,16.4423515 3.47805386,16.7272727 3.8210256,16.7272727 L28.1789744,16.7272727 C28.5220289,16.7272727 28.8,16.4423515 28.8,16.0909091 C28.8,15.7394667 28.5220289,15.4545455 28.1789744,15.4545455 Z" id="Path"></path>
                <path d="M24.802801,18.7272727 L7.19719897,18.7272727 C6.85511329,18.7272727 6.57777778,19.0121939 6.57777778,19.3636364 C6.57777778,19.7150788 6.85511329,20 7.19719897,20 L24.802801,20 C25.1449693,20 25.4222222,19.7150788 25.4222222,19.3636364 C25.4222222,19.0121939 25.1449693,18.7272727 24.802801,18.7272727 Z" id="Path"></path>
                <path d="M16.0889304,3.63636364 C16.4325859,3.63636364 16.7111111,3.35884298 16.7111111,3.01652893 L16.7111111,0.619834711 C16.7111111,0.277520661 16.4325859,0 16.0889304,0 C15.7452749,0 15.4666667,0.277520661 15.4666667,0.619834711 L15.4666667,3.01652893 C15.4666667,3.35884298 15.7452749,3.63636364 16.0889304,3.63636364 Z" id="Path"></path>
                <path d="M11.2294327,4.1821062 C11.3373032,4.41090276 11.5673138,4.54545455 11.8076867,4.54545455 C11.8974655,4.54545455 11.9886034,4.52663904 12.0754094,4.48700104 C12.3945193,4.34124358 12.5332221,3.96827841 12.3850913,3.65410126 L11.3483451,1.45427579 C11.2002142,1.14009864 10.8214782,1.00345625 10.5023684,1.14938096 C10.1832585,1.29513842 10.0445556,1.66810358 10.1926865,1.98228074 L11.2294327,4.1821062 Z" id="Path"></path>
                <path d="M6.2606659,5.32279052 L8.06243641,6.93797348 C8.17707604,7.04070688 8.31693802,7.09090909 8.4561491,7.09090909 C8.62953239,7.09090909 8.80177661,7.01301802 8.92243706,6.86163506 C9.14000013,6.58880068 9.10778062,6.18062734 8.85043133,5.94997318 L7.04866081,4.33479022 C6.79139288,4.10404979 6.40630461,4.138208 6.18874153,4.41112864 C5.97109709,4.68387675 6.0033166,5.09213635 6.2606659,5.32279052 Z" id="Path"></path>
                <path d="M4.01225671,10.3910259 L6.32642651,11.067262 C6.38128348,11.0833208 6.43647141,11.0909091 6.4907492,11.0909091 C6.76337923,11.0909091 7.01333836,10.89785 7.08888047,10.6038497 C7.17948134,10.2513493 6.98495836,9.88729002 6.65440996,9.7907605 L4.34024016,9.1145244 C4.00985723,9.01817135 3.66830434,9.22534806 3.5777862,9.57784848 C3.48718532,9.9303489 3.6817083,10.2944082 4.01225671,10.3910259 Z" id="Path"></path>
                <path d="M19.7468351,4.48700104 C19.8336387,4.52663904 19.9248589,4.54545455 20.0145503,4.54545455 C20.2549164,4.54545455 20.4850053,4.41090276 20.5928728,4.1821062 L21.6295896,1.98228074 C21.7776313,1.66810358 21.6389324,1.29513842 21.3198316,1.14938096 C21.000306,1.00345625 20.6218356,1.14009864 20.4737939,1.45427579 L19.4370771,3.65410126 C19.2890354,3.96836204 19.4277343,4.34124358 19.7468351,4.48700104 Z" id="Path"></path>
                <path d="M23.5438481,7.09090909 C23.6829772,7.09090909 23.8230012,7.04070652 23.937559,6.93797238 L25.7393212,5.32277785 C25.9966693,5.09212203 26.0288887,4.68385951 25.8113266,4.41102317 C25.5936832,4.1382731 25.2087594,4.10402839 24.9513299,4.33477047 L23.1495677,5.949965 C22.8922196,6.18062082 22.8600002,6.58888334 23.0775623,6.86171967 C23.1983035,7.01301747 23.3704656,7.09090909 23.5438481,7.09090909 Z" id="Path"></path>
                <path d="M24.7333417,10.6038491 C24.8088821,10.8977615 25.0588358,11.0909091 25.3314599,11.0909091 C25.3856538,11.0909091 25.4408405,11.0832326 25.495779,11.067262 L27.8099812,10.391025 C28.1404396,10.2944071 28.3350411,9.93034737 28.2444422,9.57793472 C28.153926,9.22552208 27.8133735,9.01799215 27.4819221,9.11461004 L25.16772,9.79084702 C24.8372615,9.88737667 24.6427427,10.2514364 24.7333417,10.6038491 Z" id="Path"></path>
            </g>
        </g>
    </g>
</svg>