<?xml version="1.0" encoding="UTF-8"?>
<svg width="32px" height="32px" viewBox="0 0 32 32" version="1.1" xmlns="http://www.w3.org/2000/svg" xmlns:xlink="http://www.w3.org/1999/xlink">
    <title>user-outline</title>
    <g id="user-outline" stroke="none" stroke-width="1" fill="none" fill-rule="evenodd">
        <g id="Group-3">
            <circle id="Oval" fill="#F4FAFF" cx="16" cy="16" r="16"></circle>
            <path d="M8.51607409,10.0489674 C8.51607409,12.5846796 10.5790419,14.6476474 13.1147541,14.6476474 C15.6504663,14.6476474 17.7134341,12.5846796 17.7134341,10.0489674 C17.7134341,7.51325527 15.6504663,5.45028742 13.1147541,5.45028742 C10.5790419,5.45028742 8.51607409,7.51325527 8.51607409,10.0489674 Z M16.6915052,10.0489674 C16.6915052,12.021188 15.0869747,13.6257185 13.1147541,13.6257185 C11.1425335,13.6257185 9.53800298,12.021188 9.53800298,10.0489674 C9.53800298,8.07674686 11.1425335,6.47221631 13.1147541,6.47221631 C15.0869747,6.47221631 16.6915052,8.07674686 16.6915052,10.0489674 Z" id="Shape" fill="#505D6E" fill-rule="nonzero"></path>
            <circle id="Oval" fill="#505D6E" fill-rule="nonzero" cx="22.5392094" cy="4.71222766" r="1"></circle>
            <path d="M13.1147541,27.2295082 C20.3844262,27.2295082 26.2295082,21.3418545 26.2295082,14.1147541 C26.2295082,11.7085553 25.5734631,9.35635246 24.3324283,7.31239754 C24.1856045,7.07059426 23.8705943,6.99359631 23.6286373,7.14036885 C23.3867828,7.28724385 23.3097848,7.60230533 23.4566598,7.84415984 C24.6003586,9.72781762 25.204918,11.8961578 25.204918,14.1147541 C25.204918,17.6202869 23.7309939,20.8717213 21.1334016,23.1661373 C20.342623,19.436168 17.0352459,16.6762295 13.1147541,16.6762295 C9.1942623,16.6762295 5.88652664,19.4364754 5.09656762,23.1665984 C2.49866803,20.8719262 1.02459016,17.6203381 1.02459016,14.1147541 C1.02459016,7.44820697 6.44820697,2.02459016 13.1147541,2.02459016 C15.8293545,2.02459016 18.3929816,2.9013832 20.5284836,4.5602459 C20.7518955,4.73381148 21.0737705,4.69334016 21.2473361,4.46992828 C21.4209016,4.24651639 21.3804816,3.92464139 21.1570184,3.75107582 C18.8401127,1.95128074 16.0591189,1 13.1147541,1 C9.60881148,1 6.31465164,2.36352459 3.83898566,4.83934426 C1.3633709,7.31506148 0,10.6091189 0,14.1147541 C0,21.3600922 5.86367828,27.2295082 13.1147541,27.2295082 Z M13.1147541,17.7008197 C16.7365266,17.7008197 19.7428791,20.3463115 20.2214139,23.8999488 C18.1489242,25.4088115 15.698207,26.204918 13.1147541,26.204918 C10.5315574,26.204918 8.08114754,25.408709 6.00865779,23.8997951 C6.48652664,20.346209 9.49257172,17.7008197 13.1147541,17.7008197 L13.1147541,17.7008197 Z" id="Shape" fill="#505D6E" fill-rule="nonzero"></path>
        </g>
    </g>
</svg>