<svg xmlns="http://www.w3.org/2000/svg" xmlns:xlink="http://www.w3.org/1999/xlink" width="171px" height="228px" viewBox="0 0 171 228"><title>Rectangle Copy 9 2</title><defs><linearGradient x1="50%" y1="0%" x2="50%" y2="100%" id="linearGradient-1"><stop stop-color="#99E880" offset="0%"></stop><stop stop-color="#8099E8" offset="100%"></stop></linearGradient></defs><g id="Web" stroke="none" stroke-width="1" fill="none" fill-rule="evenodd"><g id="Homepage_desktopV3" transform="translate(0.000000, -5233.000000)" stroke="url(#linearGradient-1)"><path d="M112.747258,5234.00694 C127.35523,5234.00694 141.963201,5239.5797 153.108708,5250.7252 C164.254215,5261.87071 169.826968,5276.47868 169.826968,5291.08665 C169.826968,5305.69463 164.254215,5320.3026 153.108708,5331.4481 L153.108708,5331.4481 L40.7914571,5443.76536 C29.6459504,5454.91086 15.0379787,5460.48362 0.430007004,5460.48362 C-14.1779647,5460.48362 -28.7859364,5454.91086 -39.9314431,5443.76536 C-51.0769498,5432.61985 -56.6497031,5418.01188 -56.6497031,5403.40391 C-56.6497031,5388.79593 -51.0769498,5374.18796 -39.9314431,5363.04246 L-39.9314431,5363.04246 L72.3858079,5250.7252 C83.5313146,5239.5797 98.1392863,5234.00694 112.747258,5234.00694 Z" id="Rectangle-Copy-9" transform="translate(56.588633, 5347.245280) scale(-1, -1) translate(-56.588633, -5347.245280) "></path></g></g></svg>