<svg xmlns="http://www.w3.org/2000/svg" width="512" height="512" viewBox="0 0 512 512" fill="none"><g clip-path="url(#clip0_13_7)"><path d="M255.981 440.992C255.938 440.992 255.892 440.992 255.845 440.992C240.396 440.887 103.817 439.641 65.1221 429.176C38.0791 421.906 16.7314 400.582 9.44238 373.535C-0.68262 335.523 -0.0380886 262.34 0.0322239 256.496C-0.0341823 250.68 -0.686526 176.891 9.41113 138.566C9.42285 138.531 9.43066 138.492 9.44238 138.457C16.6494 111.719 38.4775 89.7344 65.0557 82.4453C65.1221 82.4258 65.1924 82.4102 65.2588 82.3906C103.517 72.3359 240.364 71.1055 255.845 71H256.122C271.61 71.1055 408.552 72.3516 446.892 82.832C473.864 90.082 495.196 111.379 502.505 138.391C513.009 176.742 512.036 250.691 511.931 256.934C512.005 263.082 512.618 335.609 502.552 373.812C502.544 373.852 502.532 373.887 502.524 373.922C495.231 400.969 473.888 422.293 446.813 429.57C446.778 429.582 446.739 429.59 446.704 429.602C408.45 439.652 271.599 440.883 256.122 440.992C256.075 440.992 256.028 440.992 255.981 440.992V440.992ZM48.0752 148.824C39.1846 182.652 40.0244 255.5 40.0322 256.234V256.762C39.7666 276.965 40.7002 335.473 48.0791 363.184C51.6572 376.453 62.1846 386.965 75.5361 390.555C104.087 398.277 215.325 400.707 255.981 400.992C296.743 400.707 408.146 398.344 436.485 390.93C449.794 387.328 460.286 376.852 463.888 363.566C471.274 335.449 472.2 277.227 471.931 257.152C471.931 256.941 471.931 256.73 471.935 256.52C472.302 236.074 471.579 176.883 463.923 148.949C463.915 148.922 463.907 148.895 463.903 148.867C460.31 135.539 449.778 125.027 436.427 121.438C408.153 113.707 296.735 111.285 255.981 111C215.247 111.285 103.954 113.645 75.5283 121.051C62.4307 124.684 51.665 135.57 48.0752 148.824V148.824ZM483.212 368.719H483.224H483.212ZM205.001 336.992V174.996L345.001 255.996L205.001 336.992Z" fill="white"></path></g><defs><clipPath id="clip0_13_7"><rect width="512" height="512" fill="white"></rect></clipPath></defs></svg>