<svg xmlns="http://www.w3.org/2000/svg" width="511.99912" height="511" xml:space="preserve"> <g> <title>Layer 1</title> <g id="svg_1"> <path id="svg_2" data-original="#000000" fill="#ffffff" d="m256.98047,439.49219c-0.04297,0 -0.08984,0 -0.13672,0c-15.44922,-0.10547 -152.02734,-1.35156 -190.72266,-11.81641c-27.04296,-7.26953 -48.39062,-28.59375 -55.67968,-55.64062c-10.125,-38.01172 -9.48047,-111.19532 -9.41016,-117.03907c-0.06641,-5.8164 -0.71875,-79.60547 9.37891,-117.92968c0.01172,-0.03516 0.01953,-0.07422 0.03125,-0.10938c7.20703,-26.73828 29.03515,-48.72266 55.61328,-56.01172c0.0664,-0.01953 0.13672,-0.03515 0.20312,-0.05469c38.25782,-10.05468 175.10547,-11.28515 190.58594,-11.39062l0.27734,0c15.48829,0.10547 152.42969,1.35156 190.76954,11.83203c26.97265,7.25 48.30468,28.54688 55.61328,55.55859c10.5039,38.35157 9.53125,112.30079 9.42578,118.54297c0.07422,6.14844 0.6875,78.67579 -9.37891,116.87891c-0.00781,0.03906 -0.01953,0.07422 -0.02734,0.10938c-7.29297,27.04687 -28.63672,48.37109 -55.71094,55.64843c-0.03516,0.01172 -0.07422,0.01953 -0.10937,0.03125c-38.25391,10.05078 -175.10547,11.28125 -190.58204,11.39063c-0.04687,0 -0.09375,0 -0.14062,0zm-207.90625,-292.16797c-8.89063,33.82812 -8.05078,106.67578 -8.04297,107.41015l0,0.52735c-0.26562,20.20312 0.66797,78.71094 8.04688,106.42187c3.57812,13.26954 14.10546,23.78125 27.45703,27.3711c28.55078,7.72265 139.78906,10.15234 180.44531,10.4375c40.76172,-0.28516 152.16406,-2.64844 180.50391,-10.0625c13.30859,-3.60157 23.80078,-14.07813 27.40234,-27.36328c7.38672,-28.11719 8.3125,-86.33985 8.04297,-106.41407c0,-0.21093 0,-0.42187 0.0039,-0.63281c0.36719,-20.44531 -0.35547,-79.63672 -8.01172,-107.57031c-0.00781,-0.02735 -0.01562,-0.05469 -0.01953,-0.08203c-3.59375,-13.32813 -14.125,-23.83985 -27.47656,-27.42969c-28.27344,-7.73047 -139.69141,-10.15234 -180.44531,-10.4375c-40.73438,0.28516 -152.02735,2.64453 -180.45313,10.05078c-13.09765,3.63281 -23.86328,14.51953 -27.45312,27.77344zm435.13672,219.89453l0.01172,0l-0.01172,0zm-278.21094,-31.72656l0,-161.9961l140,81l-140,80.9961zm0,0"></path> </g> </g> </svg>