<?xml version="1.0" encoding="UTF-8"?>
<svg width="32px" height="32px" viewBox="0 0 32 32" version="1.1" xmlns="http://www.w3.org/2000/svg" xmlns:xlink="http://www.w3.org/1999/xlink">
    <title>arrow-back</title>
    <g id="arrow-back" stroke="none" stroke-width="1" fill="none" fill-rule="evenodd">
        <g id="back-button" fill="#505D6E" fill-rule="nonzero">
            <path d="M16.000073,32 C24.8224981,32 32,24.8223371 32,15.999927 C32,7.17766289 24.8224981,0 16.000073,0 C7.17764788,0 0,7.17766289 0,15.999927 C0,24.8223371 7.17764788,32 16.000073,32 Z M16.000073,2.19027064 C23.6147609,2.19027064 29.8098354,8.3852321 29.8098354,15.999927 C29.8098354,23.6146219 23.6149069,29.8097294 16.000073,29.8097294 C8.38538515,29.8097294 2.19045663,23.6146219 2.19045663,15.999781 C2.19045663,8.38537812 8.38538515,2.19027064 16.000073,2.19027064 Z" id="Shape"></path>
            <path d="M14.3914435,22.6871426 C14.8186092,23.1043571 15.511204,23.1042146 15.9382238,22.6871426 C16.3655354,22.2696431 16.3655354,21.5930945 15.938078,21.1755951 L11.7349656,17.0691388 L23.9063449,17.0679989 C24.5104147,17.0678564 25,16.5895131 25,15.9990293 C25,15.4088304 24.5102689,14.9306296 23.9061991,14.9306296 L11.7343822,14.9317696 L15.9385155,10.8244584 C16.3656812,10.4071014 16.3656812,9.73026782 15.9385155,9.31305335 C15.7248597,9.10444611 15.4449925,9 15.1649795,9 C14.8851123,9 14.6052451,9.10444611 14.3915893,9.31291086 L8.32041075,15.2445379 C8.1152137,15.4448807 8,15.7166116 8,16.0001692 C8,16.2837269 8.11535954,16.5553152 8.32055659,16.7560855 L14.3914435,22.6871426 Z" id="Path"></path>
        </g>
        <g id="back-button" fill="#505D6E" fill-rule="nonzero">
            <path d="M16.000073,32 C24.8224981,32 32,24.8223371 32,15.999927 C32,7.17766289 24.8224981,0 16.000073,0 C7.17764788,0 0,7.17766289 0,15.999927 C0,24.8223371 7.17764788,32 16.000073,32 Z M16.000073,2.19027064 C23.6147609,2.19027064 29.8098354,8.3852321 29.8098354,15.999927 C29.8098354,23.6146219 23.6149069,29.8097294 16.000073,29.8097294 C8.38538515,29.8097294 2.19045663,23.6146219 2.19045663,15.999781 C2.19045663,8.38537812 8.38538515,2.19027064 16.000073,2.19027064 Z" id="Shape"></path>
            <path d="M14.3914435,22.6871426 C14.8186092,23.1043571 15.511204,23.1042146 15.9382238,22.6871426 C16.3655354,22.2696431 16.3655354,21.5930945 15.938078,21.1755951 L11.7349656,17.0691388 L23.9063449,17.0679989 C24.5104147,17.0678564 25,16.5895131 25,15.9990293 C25,15.4088304 24.5102689,14.9306296 23.9061991,14.9306296 L11.7343822,14.9317696 L15.9385155,10.8244584 C16.3656812,10.4071014 16.3656812,9.73026782 15.9385155,9.31305335 C15.7248597,9.10444611 15.4449925,9 15.1649795,9 C14.8851123,9 14.6052451,9.10444611 14.3915893,9.31291086 L8.32041075,15.2445379 C8.1152137,15.4448807 8,15.7166116 8,16.0001692 C8,16.2837269 8.11535954,16.5553152 8.32055659,16.7560855 L14.3914435,22.6871426 Z" id="Path"></path>
        </g>
    </g>
</svg>