<?xml version="1.0" encoding="UTF-8"?>
<svg width="32px" height="32px" viewBox="0 0 32 32" version="1.1" xmlns="http://www.w3.org/2000/svg" xmlns:xlink="http://www.w3.org/1999/xlink">
    <title>doctor</title>
    <g id="doctor" stroke="none" stroke-width="1" fill="none" fill-rule="evenodd">
        <circle id="Oval" fill="#F4FAFF" cx="16.5" cy="15.5" r="15.5"></circle>
        <g transform="translate(0.000000, 2.000000)" fill="#505D6E" fill-rule="nonzero">
            <path d="M10.3927714,14.4840183 C7.1311951,14.3750513 6.34898093,11.5130014 6.18154442,10.5890063 C5.86755619,10.5144422 5.5877892,10.3323098 5.38848123,10.0727105 C5.16094746,9.7513757 5.05540189,9.35610343 5.09157978,8.96080304 C5.03930892,8.53007612 5.16756145,8.09681927 5.44453449,7.76846755 C5.52184381,7.68724055 5.61073283,7.61850815 5.70816562,7.56461784 C5.10196724,6.56156655 4.80340105,5.39515822 4.85109323,4.2162937 C5.22863904,1.45135036 7.40278217,1.18226874 8.08373885,1.16670204 C8.39713509,0.793109507 8.78891395,0.496997707 9.22975674,0.300526089 C10.0555389,-0.0408575825 10.9682523,-0.0929780944 11.8259267,0.152271755 C13.511864,0.603335567 14.6361839,1.46839961 15.1695939,2.72374319 C15.9290251,4.5079841 15.2628955,6.56167727 14.8802868,7.48381923 C15.0262044,7.53241573 15.1606803,7.61155058 15.275191,7.7162079 C15.5909791,8.04479879 15.740074,8.50499759 15.6787745,8.96191494 C15.7152917,9.35719006 15.6098535,9.75254171 15.3822346,10.0738225 C15.1827167,10.3333584 14.9028615,10.5154652 14.5888098,10.5901182 C14.4213733,11.5130014 13.6409673,14.3750513 10.3927714,14.4840183 Z M6.3124559,8.15726454 C6.1841978,8.15114115 6.05873068,8.19693314 5.96311753,8.28476327 C5.82942392,8.47668626 5.77616724,8.71543407 5.81520926,8.94783078 C5.81672201,8.97256538 5.81587417,8.99739227 5.81267782,9.02195795 C5.79302466,9.23469308 5.84663122,9.44776959 5.96420243,9.62424118 C6.11234974,9.79384408 6.3209249,9.89511624 6.54281671,9.90518315 C6.71327509,9.92583119 6.84608804,10.066441 6.86069293,10.2417205 C6.87262684,10.379597 7.19339613,13.6356328 10.3934947,13.7431172 C13.5758732,13.6356328 13.898089,10.379597 13.910023,10.2409792 C13.9249528,10.0659873 14.0576871,9.92577025 14.2278992,9.90518315 C14.4498111,9.89519938 14.6584162,9.79391271 14.8065134,9.62424118 C14.9246036,9.44689551 14.9782272,9.23270183 14.9580381,9.01899286 C14.9550234,8.99515714 14.9541759,8.97108592 14.9555066,8.94708951 C14.9950154,8.70691523 14.9359987,8.46068019 14.7924097,8.26660211 C14.679446,8.18133957 14.5389032,8.14367135 14.3996753,8.16134154 C14.2631141,8.1861711 14.1247274,8.1287673 14.043459,8.01358053 C13.9621907,7.89839375 13.9523589,7.74571814 14.0181515,7.62058385 C14.0315319,7.59463934 15.356197,5.01797901 14.5049108,3.01543359 C14.064079,1.98061833 13.1017711,1.25824909 11.6440248,0.86834019 C10.943387,0.665129231 10.1969362,0.704207979 9.52014878,0.979530941 C9.13512276,1.1495477 8.79951864,1.41868788 8.545907,1.76083128 C8.47164464,1.86434914 8.35000188,1.92057044 8.22513771,1.90908562 C8.13147452,1.90130227 5.91719003,1.75453047 5.57002146,4.29153277 L5.57002146,4.29153277 C5.57002146,4.29153277 5.46984886,6.3096449 6.61044225,7.53274316 C6.71211052,7.64167685 6.7392763,7.80286738 6.6791527,7.94044258 C6.62358079,8.0819822 6.48515951,8.17051794 6.33668537,8.15948836 L6.3124559,8.15726454 Z" id="Shape"></path>
            <path d="M14.2954124,8.19178082 C14.1033357,8.19195596 13.9453213,8.03539888 13.9372541,7.83692566 C13.9329562,7.74098886 13.8219271,5.50332793 12.2066334,5.28811837 C10.7133358,5.4842545 9.20806302,5.03329531 8.04734146,4.04205126 C7.59068967,4.3972767 6.53842069,5.47702866 6.74078011,7.77988216 C6.74632966,7.97553475 6.60373226,8.14188232 6.4152505,8.15963002 C6.22676875,8.17737771 6.05746823,8.04039887 6.02876148,7.84692679 C5.73184828,4.46839586 7.82958123,3.29567041 7.91876264,3.2475168 C8.05488219,3.17404822 8.2211385,3.19848402 8.33207728,3.30826443 C9.36511614,4.27594965 10.7548933,4.72949362 12.137867,4.55025699 C12.1706603,4.54477095 12.2039863,4.54352668 12.2370768,4.54655287 C14.0579534,4.74250099 14.6141732,6.76569318 14.6535706,7.80618143 C14.6612425,8.01025382 14.5077573,8.18224611 14.310455,8.19066944 L14.2954124,8.19178082 Z" id="Path"></path>
            <path d="M20.6390388,26 L0.360961188,26 C0.161607829,26 0,25.8348689 0,25.6311693 L0,21.5194449 C0.00537206689,18.8136523 2.15271798,16.6226256 4.8007838,16.6210046 L5.49382928,16.6210046 C5.69318264,16.6210046 5.85479047,16.7861357 5.85479047,16.9898352 C5.85479047,17.1935348 5.69318264,17.3586659 5.49382928,17.3586659 L4.8007838,17.3586659 C2.55125957,17.3598801 0.726896245,19.2208829 0.721922376,21.5194449 L0.721922376,25.2623386 L20.2780776,25.2623386 L20.2780776,21.5194449 C20.2754917,19.2226055 18.4539077,17.3613082 16.2060745,17.3586659 L15.4632163,17.3586659 C15.263863,17.3586659 15.1022551,17.1935348 15.1022551,16.9898352 C15.1022551,16.7861357 15.263863,16.6210046 15.4632163,16.6210046 L16.2060745,16.6210046 C18.8521202,16.6248643 20.9962226,18.8157114 21,21.5194449 L21,25.6311693 C21,25.8348689 20.8383922,26 20.6390388,26 Z" id="Path"></path>
            <path d="M11.670809,26 C11.5650667,26 11.4645714,25.9528946 11.3955888,25.8709472 C11.3266061,25.7889998 11.2959919,25.6803722 11.3117475,25.5734555 L12.7810315,15.6307742 C12.7967753,15.5243436 12.8569227,15.4301406 12.9458814,15.3725859 C13.0348401,15.3150615 13.1438503,15.2997923 13.2446528,15.3308195 L15.7802295,16.1122609 C15.8824321,16.143776 15.9658912,16.2196858 16.0084138,16.3198047 C16.0509364,16.4199236 16.0482127,16.5341043 16.000967,16.6319843 L14.9931261,18.6997413 L15.5776448,19.3705558 C15.6840234,19.4935142 15.6987877,19.673317 15.6139503,19.812692 L11.9794058,25.8240365 C11.9132754,25.9333702 11.7965323,26 11.670809,26 Z M13.4367089,16.1653469 L12.2949007,23.8917788 L14.8555282,19.6597448 L14.2880731,19.0082343 C14.1892971,18.8949818 14.1678758,18.7316595 14.2339779,18.5957966 L15.1590423,16.697321 L13.4367089,16.1653469 Z" id="Shape"></path>
            <path d="M9.21507312,26 C9.08922596,26 8.97232196,25.933475 8.90612636,25.8240166 L5.27064708,19.81311 C5.1858133,19.6737193 5.20057697,19.4938963 5.30695105,19.3709241 L5.89144492,18.7000342 L4.88364679,16.6320447 C4.83640308,16.5341536 4.8336795,16.4199601 4.87620029,16.3198299 C4.91872109,16.2196998 5.0021767,16.1437814 5.10437491,16.1122627 L7.63984398,15.3307335 C7.74059416,15.2998297 7.84949805,15.3150805 7.93836401,15.3726816 C8.02722997,15.4302302 8.0873214,15.5243666 8.1030826,15.6307219 L9.57303024,25.5745213 C9.58840862,25.6810832 9.55777533,25.7892224 9.48908003,25.8708757 C9.42038474,25.952529 9.32040006,25.9996462 9.21507312,26 Z M6.03048912,19.657918 L8.59100792,23.8904279 L7.44924815,16.1642409 L5.72698795,16.695161 L6.65165,18.5938501 C6.71784673,18.7296545 6.69657106,18.8929877 6.59792012,19.0063342 L6.03048912,19.657918 Z" id="Shape"></path>
            <path d="M10.4769285,18.9954338 C9.70592278,18.9948893 8.93564054,18.9493319 8.17020953,18.8590009 C8.04097724,18.8474466 7.92837972,18.7682784 7.87622316,18.6522966 C7.82406661,18.5363148 7.84058689,18.4018339 7.91935678,18.3011737 C7.99812666,18.2005135 8.12670785,18.149569 8.25507568,18.1681603 C9.71239886,18.3430724 11.1861882,18.3430724 12.6435114,18.1681603 C12.8368669,18.1477541 13.0113137,18.2823332 13.0356278,18.4706633 C13.0599419,18.6589933 12.9251544,18.8316042 12.7326565,18.8586528 C11.9844232,18.9502995 11.2310304,18.9959815 10.4769285,18.9954338 L10.4769285,18.9954338 Z" id="Path"></path>
            <path d="M13.1449839,16.0273973 C13.0332115,16.0269548 12.928197,15.9705513 12.8616927,15.875241 C12.3354792,15.1204706 12.2402226,13.6244549 12.2313697,13.4565195 C12.2200897,13.2494674 12.3690854,13.0718843 12.5642369,13.059786 C12.7586404,13.0501017 12.924728,13.2069547 12.9381813,13.4129389 C12.9597823,13.8081696 13.0908045,14.9408886 13.4307539,15.4285402 C13.509976,15.5423677 13.5221983,15.693765 13.4623748,15.8202275 C13.4025513,15.9466901 13.2808296,16.0267665 13.1474627,16.0273973 L13.1449839,16.0273973 Z" id="Path"></path>
            <path d="M7.73666254,16.0273973 C7.60348103,16.0267539 7.48192864,15.9467037 7.42218832,15.8202825 C7.36244799,15.6938613 7.37465327,15.5425135 7.45376519,15.4287232 C7.79394925,14.94048 7.92443565,13.808507 7.94600658,13.4137812 C7.95333411,13.2796023 8.02750494,13.1597678 8.14057964,13.0994181 C8.25365435,13.0390684 8.38845418,13.0473721 8.49420134,13.1212013 C8.5999485,13.1950305 8.66057749,13.3231687 8.65324995,13.4573475 C8.6444094,13.625228 8.54716344,15.1207544 8.02380335,15.8752779 C7.95650416,15.971837 7.84977304,16.0283755 7.73666254,16.0273973 Z" id="Path"></path>
            <path d="M17.7509777,20.7762557 C17.5538584,20.7763391 17.3924375,20.6186967 17.3867211,20.4205255 C17.3186051,18.0348254 16.4167056,17.2841651 16.4079635,17.276838 C16.2513987,17.1518097 16.2232118,16.9237124 16.3445828,16.7639418 C16.4651588,16.6053938 16.6901667,16.5740217 16.8490783,16.6936017 C16.8971601,16.7302372 18.0354622,17.6193794 18.1152344,20.3992769 C18.1209507,20.6013615 17.9628261,20.7699061 17.7619054,20.7758893 L17.7509777,20.7762557 Z" id="Path"></path>
            <path d="M17.7119244,23.0319634 C17.1285407,23.0321152 16.6025187,22.6706474 16.3791652,22.1161279 C16.1558116,21.5616084 16.2791175,20.9232535 16.6915799,20.4987556 C17.1040422,20.0742578 17.724424,19.9472245 18.2634144,20.1768969 C18.8024048,20.4065694 19.1538462,20.9477121 19.1538462,21.5479668 C19.1530421,22.367066 18.5080013,23.0309288 17.7119244,23.0319634 L17.7119244,23.0319634 Z M17.7119244,20.8147906 C17.4236839,20.8146389 17.1637434,20.9931752 17.0533363,21.2671323 C16.9429291,21.5410894 17.0038034,21.856503 17.207568,22.0662678 C17.4113327,22.2760325 17.71785,22.3388288 17.9841636,22.2253691 C18.2504772,22.1119094 18.4241287,21.8445431 18.4241287,21.5479668 C18.4237268,21.1433627 18.1051562,20.8154114 17.7119244,20.8147906 L17.7119244,20.8147906 Z" id="Shape"></path>
            <path d="M2.91901025,20.7762557 C2.72819848,20.7767429 2.56959391,20.6272996 2.55604684,20.4342566 C2.35823178,17.6088163 3.89320404,16.7057798 3.95853746,16.6685981 C4.13313738,16.5686685 4.35454942,16.6312177 4.4530751,16.8083056 C4.55160077,16.9853935 4.48993041,17.2099606 4.31533049,17.3098902 C4.26016005,17.3430224 3.11755123,18.0583098 3.27979588,20.3823495 C3.29392583,20.585156 3.14328567,20.7611822 2.9433288,20.7755182 L2.91901025,20.7762557 Z" id="Path"></path>
            <path d="M2.15968449,23.7442922 C2.04523609,23.7448152 1.93717755,23.6907118 1.86782228,23.598157 C1.68973572,23.3603946 1.5585443,23.0898722 1.48146969,22.8014814 C1.12898789,21.6323585 1.76844388,20.3927465 2.91487794,20.0227599 C3.44265778,19.8718797 4.00794119,19.9429795 4.48363728,20.2200744 C5.32872654,20.7164516 5.7823122,21.693682 5.62189987,22.6724111 C5.58885571,22.8744837 5.40093424,23.011063 5.20216554,22.9774696 C5.00339683,22.9438762 4.86905055,22.7528311 4.90209471,22.5507585 C5.01171254,21.8803137 4.70322391,21.210597 4.12647091,20.8669097 C3.81960928,20.6867756 3.45440406,20.6395976 3.11297941,20.7359849 C2.35219643,20.9946532 1.93772998,21.8274424 2.18339829,22.6037961 C2.23619025,22.80123 2.32613862,22.9863841 2.44826324,23.1490071 C2.53206665,23.2611317 2.54618155,23.4118327 2.48469894,23.5380211 C2.42321632,23.6642096 2.29674293,23.7441159 2.15822517,23.7442922 L2.15968449,23.7442922 Z" id="Path"></path>
            <path d="M5.28529927,23.031574 C5.27091035,23.031574 5.25615249,23.031574 5.24139463,23.0292374 L4.82559185,22.9774428 C4.69463672,22.9610253 4.58192704,22.8721118 4.52991947,22.7441952 C4.47791189,22.6162785 4.4945076,22.4687922 4.57345516,22.3572931 C4.65240272,22.2457939 4.78170811,22.1872211 4.91266324,22.2036386 L5.32846602,22.2558227 C5.52230699,22.2801587 5.66464252,22.4596602 5.65320248,22.6653529 C5.64176244,22.8710455 5.48050646,23.0317349 5.28529927,23.0319635 L5.28529927,23.031574 Z" id="Path"></path>
            <path d="M2.20678656,23.7442922 C2.03227069,23.7445442 1.88270137,23.6097365 1.85185745,23.4243871 C1.82101353,23.2390377 1.91777358,23.0565003 2.08146978,22.9912245 L2.51359659,22.8190849 C2.63420912,22.7704961 2.7696822,22.7950316 2.86898445,22.8834492 C2.96828669,22.9718668 3.01633172,23.1107338 2.99502143,23.2477402 C2.97371114,23.3847466 2.88628308,23.499078 2.76567056,23.5476668 L2.33354375,23.720195 C2.29297498,23.7363744 2.25003688,23.7445353 2.20678656,23.7442922 Z" id="Path"></path>
        </g>
    </g>
</svg>