<?xml version="1.0" encoding="UTF-8"?>
<svg width="32px" height="32px" viewBox="0 0 32 32" version="1.1" xmlns="http://www.w3.org/2000/svg" xmlns:xlink="http://www.w3.org/1999/xlink">
    <title>different-size-packaging</title>
    <g id="different-size-packaging" stroke="none" stroke-width="1" fill="none" fill-rule="evenodd">
        <circle id="Oval" fill="#F4FAFF" cx="16" cy="16" r="16"></circle>
        <g id="food-delivery" transform="translate(0.000000, 2.000000)" fill="#505D6E" fill-rule="nonzero">
            <path d="M26.5405781,21.1907812 L26.1554062,18.1094062 L25.734375,0.412171875 L25.7238281,0.41259375 C25.7217187,0.32315625 25.7014688,0.2345625 25.6449375,0.16284375 C25.5652031,0.05990625 25.4424375,0 25.3125,0 L8.4375,0 C8.24385937,0 8.07510937,0.132046875 8.02828125,0.31978125 L7.18453125,3.69478125 C7.15289063,3.82092188 7.18157812,3.95423438 7.2613125,4.05632813 C7.33471875,4.15040625 7.44525,4.20271875 7.563375,4.21157812 L7.023375,11.8125 L1.906875,11.8125 C1.5238125,11.8125 1.1863125,12.0685781 1.08717187,12.4339219 L0.033328125,16.2274219 C-0.0388125,16.4805469 0.01096875,16.7463281 0.1704375,16.9576875 C0.332859375,17.1732656 0.58134375,17.296875 0.8521875,17.296875 L0.880453125,17.296875 L1.2268125,21.09375 L0.84375,21.09375 C0.378421875,21.09375 0,21.4721719 0,21.9375 L0,26.15625 C0,26.6215781 0.378421875,27 0.84375,27 L26.15625,27 C26.6215781,27 27,26.6215781 27,26.15625 L27,21.9375 C27,21.6113906 26.8122656,21.3312656 26.5405781,21.1907812 L26.5405781,21.1907812 Z M24.9652969,3.55092188 L25.3125,18.1503281 C25.3125,18.1646719 25.3137656,18.1785938 25.3154531,18.1929375 L25.6782656,21.09375 L23.2588125,21.09375 L23.6241562,18.1655156 L24.4447031,4.21875 L24.46875,4.21875 C24.6623906,4.21875 24.8311406,4.08670312 24.8779687,3.89896875 L24.9652969,3.55092188 Z M24.1392656,3.375 L18.140625,3.375 L18.140625,0.84375 L24.7720781,0.84375 L24.1392656,3.375 Z M14.765625,0.84375 L17.296875,0.84375 L17.296875,4.37990625 L17.0635781,4.26346875 C16.9450312,4.20398437 16.8049687,4.20398437 16.686,4.26346875 L16.03125,4.59084375 L15.3760781,4.26346875 C15.2575312,4.20398437 15.1174687,4.20398437 14.9985,4.26346875 L14.765625,4.37990625 L14.765625,0.84375 Z M8.4088125,4.21875 L13.078125,4.21875 C13.311,4.21875 13.5,4.03017187 13.5,3.796875 C13.5,3.56357812 13.311,3.375 13.078125,3.375 L8.13417187,3.375 L8.76698437,0.84375 L13.921875,0.84375 L13.921875,5.0625 C13.921875,5.20889062 13.9978125,5.3443125 14.1218437,5.42151562 C14.2462969,5.49871875 14.4019687,5.50504687 14.5323281,5.44007812 L15.1875,5.11228125 L15.8426719,5.43965625 C15.9612187,5.49914062 16.1012812,5.49914062 16.22025,5.43965625 L16.875,5.11228125 L17.5301719,5.43965625 C17.5896562,5.46960937 17.6542031,5.484375 17.71875,5.484375 C17.7959531,5.484375 17.8727344,5.46328125 17.9406562,5.42151562 C18.0646875,5.3443125 18.140625,5.20889063 18.140625,5.0625 L18.140625,4.21875 L23.5996875,4.21875 L22.784625,18.0883125 L22.4087344,21.09375 L13.1173594,21.09375 L13.4637187,17.296875 L13.4919844,17.296875 C13.7628281,17.296875 14.0113125,17.1732656 14.1741562,16.9576875 C14.3332031,16.7463281 14.3834062,16.480125 14.3121094,16.230375 L13.2578437,12.4356094 C13.1574375,12.0685781 12.8199375,11.8125 12.436875,11.8125 L7.86965625,11.8125 L8.4088125,4.21875 Z M1.906875,12.65625 L12.4440469,12.659625 L13.4915625,16.453125 L8.859375,16.453125 L5.484375,16.453125 L1.265625,16.453125 L0.845015625,16.4565 L1.906875,12.65625 Z M5.90625,17.296875 L8.4375,17.296875 L8.4375,18.140625 L5.90625,18.140625 L5.90625,17.296875 Z M5.0625,17.296875 L5.0625,18.140625 C5.0625,18.6059531 5.44092187,18.984375 5.90625,18.984375 L8.4375,18.984375 C8.90282812,18.984375 9.28125,18.6059531 9.28125,18.140625 L9.28125,17.296875 L12.6119531,17.296875 L12.234375,21.09375 L2.0739375,21.0933281 L1.728,17.296875 L5.0625,17.296875 Z M26.15625,26.15625 L0.84375,26.15625 L0.84375,21.9375 L2.07140625,21.9375 L12.2723437,21.9375 L15.609375,21.9375 L15.609375,23.625 L11.390625,23.625 L11.390625,22.78125 C11.390625,22.5479531 11.201625,22.359375 10.96875,22.359375 C10.735875,22.359375 10.546875,22.5479531 10.546875,22.78125 L10.546875,23.625 C10.546875,24.0903281 10.9252969,24.46875 11.390625,24.46875 L15.609375,24.46875 C16.0747031,24.46875 16.453125,24.0903281 16.453125,23.625 L16.453125,21.9375 L26.15625,21.9375 L26.15625,26.15625 Z" id="Shape"></path>
        </g>
    </g>
</svg>