<?xml version="1.0" encoding="UTF-8"?>
<svg width="32px" height="32px" viewBox="0 0 32 32" version="1.1" xmlns="http://www.w3.org/2000/svg" xmlns:xlink="http://www.w3.org/1999/xlink">
    <title>medication-perscription</title>
    <g id="medication-perscription" stroke="none" stroke-width="1" fill="none" fill-rule="evenodd">
        <circle id="Oval" fill="#F4FAFF" cx="16" cy="16" r="16"></circle>
        <g id="medical-prescription" transform="translate(0.000000, 2.000000)" fill="#505D6E" fill-rule="nonzero">
            <path d="M6.55245363,3.90074793 C6.55245363,3.02275253 5.80814074,2.30841121 4.89320245,2.30841121 L3.68560675,2.30841121 C3.68538737,2.30841121 3.68511314,2.30841121 3.68483891,2.30841121 C3.68461953,2.30841121 3.6843453,2.30841121 3.68412592,2.30841121 C3.45695445,2.30841121 3.27272727,2.49257691 3.27272727,2.71979503 L3.27272727,7.26404782 C3.27272727,7.4912111 3.4568996,7.67543163 3.68412592,7.67543163 C3.91135223,7.67543163 4.09552456,7.49126594 4.09552456,7.26404782 L4.09552456,5.56257182 C4.15322238,5.62811023 6.38067646,8.15920935 6.3887388,8.16831343 L5.10858206,9.2949709 C4.9380115,9.44507855 4.92144806,9.70498362 5.07156112,9.87554803 C5.22183872,10.0463318 5.48186284,10.0624559 5.65215918,9.91256764 L6.93231592,8.78591017 L8.059014,10.0660208 C8.2092916,10.2368046 8.46931572,10.2529287 8.63961206,10.1030404 C8.81018262,9.95293272 8.82674606,9.69302766 8.676633,9.52246325 L7.54993492,8.24235264 L8.83009166,7.11569517 C9.00066222,6.96558752 9.01722566,6.70568245 8.8671126,6.53511804 C8.71699954,6.36455362 8.4570851,6.34799078 8.28651454,6.49809843 L7.0063578,7.6247559 C6.88651964,7.48857859 7.5561325,8.24948234 5.11735739,5.47816711 C5.92655291,5.37281205 6.55245363,4.70580099 6.55245363,3.90074793 L6.55245363,3.90074793 Z M4.89325729,4.67037186 C4.71133364,4.67037186 4.37403173,4.67190748 4.10303844,4.67327858 C4.09881531,3.89279557 4.10111883,4.10361538 4.0983217,3.13106916 L4.89325729,3.13106916 C5.34666785,3.13106916 5.72976604,3.48355066 5.72976604,3.90069308 C5.72971119,4.31794519 5.34666785,4.67037186 4.89325729,4.67037186 Z" id="Shape"></path>
            <path d="M18.3779501,11.7850467 L3.68265592,11.7850467 C3.45629617,11.7850467 3.27272727,11.9754126 3.27272727,12.2102804 C3.27272727,12.4451481 3.45624152,12.635514 3.68265592,12.635514 L18.3779501,12.635514 C18.6043099,12.635514 18.7878788,12.4451481 18.7878788,12.2102804 C18.7878788,11.9754126 18.6043099,11.7850467 18.3779501,11.7850467 Z" id="Path"></path>
            <path d="M18.7878788,14.6401869 C18.7878788,14.4053759 18.6043639,14.2149533 18.3779487,14.2149533 L3.68265736,14.2149533 C3.45629682,14.2149533 3.27272727,14.4053192 3.27272727,14.6401869 C3.27272727,14.8750547 3.45624217,15.0654206 3.68265736,15.0654206 L18.3780034,15.0654206 C18.6043639,15.0654206 18.7878788,14.8750547 18.7878788,14.6401869 Z" id="Path"></path>
            <path d="M3.56378464,16.7663551 C3.3361323,16.7663551 3.15151515,16.956721 3.15151515,17.1915888 C3.15151515,17.4264565 3.33607734,17.6168224 3.56378464,17.6168224 L8.43621536,17.6168224 C8.6638677,17.6168224 8.84848485,17.4264565 8.84848485,17.1915888 C8.84848485,16.956721 8.66392266,16.7663551 8.43621536,16.7663551 L3.56378464,16.7663551 Z" id="Path"></path>
            <path d="M0.409524572,13 C0.635661191,13 0.819049144,12.8156091 0.819049144,12.588113 L0.819049144,2.76152602 C0.819049144,1.69301406 1.68335837,0.823718991 2.74574187,0.823718991 L16.9413016,0.823718991 L16.9413016,4.73650775 C16.9413016,6.1674319 18.097754,7.34291036 19.5327552,7.34291036 L23.4233751,7.34291036 L23.4233751,9.30680009 C23.4233751,9.53424119 23.6067085,9.71868704 23.8328997,9.71868704 C24.0590909,9.71868704 24.2424242,9.53429611 24.2424242,9.30680009 L24.2424242,6.93107832 C24.2424242,6.82768103 24.2015318,6.71945157 24.1226406,6.63999544 C24.122586,6.63994053 24.1225314,6.63988562 24.1224768,6.63983071 L17.6402941,0.120364778 C17.5698107,0.0494747558 17.459363,0 17.350444,0 L2.74568727,0 C1.23174028,0 0,1.23884569 0,2.76152602 L0,12.588168 C0,12.8156091 0.183333357,13 0.409524572,13 L0.409524572,13 Z M19.5327006,6.51924628 C18.5553776,6.51924628 17.7602415,5.71952337 17.7602415,4.73656266 L17.7602415,1.40593967 L22.8442208,6.51924628 L19.5327006,6.51924628 Z" id="Shape"></path>
            <path d="M2.75029108,20.7831619 L15.4154879,20.7831619 C15.0647767,22.1670359 15.4276832,23.696858 16.505848,24.7777063 C18.1326383,26.4074221 20.7796246,26.4074769 22.4065789,24.7775966 C24.6971665,22.4814655 22.59104,24.5921736 26.7799415,20.3936749 C26.7799415,20.3936749 26.7799962,20.39362 26.7799962,20.39362 C28.4066771,18.7621498 28.4066771,16.1081117 26.7799415,14.4772994 C26.0997926,13.795423 25.225995,13.3786873 24.2829631,13.2770939 L24.2829631,10.9813466 C24.2829631,10.7542555 24.0993223,10.5700935 23.8727519,10.5700935 C23.6461814,10.5700935 23.4625406,10.7542006 23.4625406,10.9813466 L23.4625406,13.268541 C23.4597516,13.2687603 23.4570172,13.2691989 23.4542281,13.269473 C21.8463051,13.41257 20.9699372,14.4076698 20.8791012,14.4772994 L18.6924199,16.6695344 C16.8468795,18.5956967 16.2102072,18.9624856 15.7176912,19.9607105 L2.75029108,19.9607105 C1.68612623,19.9607105 0.820367788,19.0927532 0.820367788,18.0258856 L0.820367788,14.257555 C0.820367788,14.0304639 0.636727029,13.8463019 0.41015655,13.8463019 C0.183586072,13.8463019 0,14.0305188 0,14.2576099 L0,18.0259404 C0,19.5462775 1.23380559,20.7831619 2.75029108,20.7831619 L2.75029108,20.7831619 Z M21.8266175,24.195943 C20.51964,25.5053628 18.3928963,25.5054176 17.0858094,24.1960526 C15.7874178,22.8943634 15.7697537,20.7659464 17.0858094,19.4433134 L18.982428,17.5418778 C20.490765,19.0540457 22.214735,20.7823943 23.7231268,22.2945622 L21.8266175,24.195943 Z M26.1998161,19.8121857 L24.3032522,21.713073 L19.5625534,16.9603338 C21.5979143,14.9218869 21.6768284,14.778132 22.2689304,14.4595904 C23.0912122,14.0253651 23.8746659,14.0749282 23.8691425,14.0755313 C24.7496666,14.085729 25.57605,14.4335479 26.1998161,15.0588982 C27.5067936,16.3691404 27.5067936,18.5014501 26.1998161,19.8121857 L26.1998161,19.8121857 Z" id="Shape"></path>
        </g>
    </g>
</svg>