<?xml version="1.0" encoding="UTF-8"?>
<svg width="32px" height="32px" viewBox="0 0 32 32" version="1.1" xmlns="http://www.w3.org/2000/svg" xmlns:xlink="http://www.w3.org/1999/xlink">
    <title>rocket</title>
    <g id="rocket" stroke="none" stroke-width="1" fill="none" fill-rule="evenodd">
        <circle id="Oval" fill="#F4FAFF" cx="16" cy="16" r="16"></circle>
        <g transform="translate(0.000000, 2.000000)" fill="#505D6E" fill-rule="nonzero">
            <path d="M11.7,10.01 C11.7,12.3755271 13.6245342,14.3 15.990025,14.3 C18.3555159,14.3 20.28,12.3755271 20.28,10.01 C20.28,7.64447288 18.3555159,5.72 15.990025,5.72 C13.6245342,5.72 11.7,7.64447288 11.7,10.01 L11.7,10.01 Z M19.2784449,10.01 C19.2784449,11.8232453 17.8032809,13.2984007 15.9900751,13.2984007 C14.1768193,13.2984007 12.7016552,11.8231952 12.7016552,10.01 C12.7016552,8.1968048 14.1768193,6.72159929 15.9900751,6.72159929 C17.8032809,6.72159929 19.2784449,8.19675472 19.2784449,10.01 L19.2784449,10.01 Z" id="Shape"></path>
            <path d="M13.78,10.14 C13.78,11.2869219 14.7130781,12.22 15.86,12.22 C17.0069219,12.22 17.94,11.2869219 17.94,10.14 C17.94,8.9930781 17.0069219,8.06 15.86,8.06 C14.7130781,8.06 13.78,8.9930781 13.78,10.14 Z M16.9495238,10.14 C16.9495238,10.7407733 16.4607733,11.2295238 15.86,11.2295238 C15.2592267,11.2295238 14.7704762,10.7407733 14.7704762,10.14 C14.7704762,9.53922667 15.2592267,9.05047619 15.86,9.05047619 C16.4607733,9.05047619 16.9495238,9.53922667 16.9495238,10.14 Z" id="Shape"></path>
            <path d="M25.8111106,0.610862906 C25.7775466,0.391373305 25.6053087,0.219062288 25.3857968,0.185544672 C22.9198294,-0.191173019 20.3626146,0.00810444405 17.9911445,0.761946099 C15.5396996,1.54117989 13.2761828,2.92098842 11.4451396,4.75221829 C10.8379401,5.35954734 10.2838033,6.00821477 9.78481097,6.69400551 C7.07607553,5.85235786 4.08491462,6.57765876 2.06634942,8.5965365 C1.0448548,9.61816359 0.334779691,10.8992475 0.0128999648,12.3012995 C-0.026249628,12.4717823 0.0250358308,12.6503906 0.148730264,12.7741011 L1.58573866,14.2112958 C1.68475514,14.3103251 1.81474601,14.3600429 1.94483843,14.3600429 C2.06990386,14.3600429 2.19512163,14.3140832 2.293021,14.2218082 C3.31400785,13.2595987 4.64935933,12.7115348 6.05305757,12.6786266 C6.39362348,12.6708566 6.73317384,12.6939127 7.06810343,12.7462205 C6.92257459,13.4124085 6.81853112,14.0892612 6.75724246,14.7744425 C6.74657915,14.8933793 6.77882298,15.0108433 6.84549407,15.1075873 L4.50576004,16.1582122 C4.353427,16.2266187 4.24445809,16.3655136 4.21434693,16.5296992 C4.18413421,16.6939355 4.23658755,16.8624885 4.35469644,16.9805619 L4.38099928,17.0068681 C2.92185181,17.4344209 1.81743723,18.7378499 1.70730043,20.3213033 L1.45087314,24.007073 C1.44066683,24.1536872 1.49444039,24.2975082 1.59833153,24.4014129 C1.69389513,24.4969888 1.8231751,24.55016 1.95732974,24.55016 C1.96905939,24.55016 1.98083981,24.5497537 1.99262023,24.5489411 L5.67791205,24.2925314 C7.2611094,24.1823295 8.56436939,23.0777717 8.99186669,21.618435 L9.01822031,21.6447921 C9.11434246,21.7408759 9.24382555,21.7935392 9.3772693,21.7935392 C9.40778668,21.7935392 9.4384564,21.7907968 9.46902457,21.7851598 C9.63323959,21.7549939 9.77216733,21.6460109 9.84051409,21.4936581 L10.8908504,19.1539254 C10.9752937,19.2121241 11.0755289,19.2439151 11.1787599,19.2439151 C11.1938409,19.2439151 11.2089726,19.2432549 11.2241044,19.2418837 C11.9092476,19.1805363 12.5860634,19.0765301 13.252165,18.9309824 C13.3045168,19.2661586 13.3276714,19.6058545 13.3196993,19.9461091 C13.2867446,21.350091 12.7388026,22.6855648 11.7766671,23.7066841 C11.5883835,23.9065202 11.593055,24.2198591 11.7871781,24.4140581 L13.2241865,25.8512529 C13.320461,25.9475399 13.4500964,26 13.5832355,26 C13.6210648,26 13.6591481,25.9957849 13.6968759,25.9871008 C15.0986954,25.6651793 16.3796132,24.9549614 17.4011078,23.933385 C19.419673,21.9146089 20.1449306,18.9230093 19.3033921,16.2139226 C19.9890939,15.7148656 20.6376773,15.1606569 21.2449276,14.5533786 C21.4656582,14.3326194 21.6824281,14.1031253 21.8892456,13.8712444 C22.0759551,13.6619624 22.0576244,13.340955 21.8483695,13.1542213 C21.6390639,12.9674875 21.318149,12.9858715 21.1314395,13.1951026 C20.9373672,13.4126624 20.7339518,13.6280385 20.5267788,13.8351875 C19.243576,15.1185567 17.7647776,16.1502899 16.1315642,16.9016939 C14.6247365,17.5949499 13.0233608,18.0337768 11.3682622,18.207459 L7.79138073,14.6301137 C7.96504041,12.9748005 8.40386113,11.3731663 9.09702727,9.86619395 C9.84833385,8.23271801 10.8798825,6.75377859 12.163136,5.47040939 C13.843268,3.79005957 15.8243592,2.55945522 18.0547689,1.80977787 L24.1873927,7.94324769 C24.0077412,8.47536524 23.7984864,8.99930652 23.5589681,9.51273545 C23.4404022,9.76691071 23.5502851,10.0690771 23.8044274,10.1876584 C24.0587728,10.3062396 24.3607477,10.1962917 24.4793136,9.94216721 C25.8381751,7.02968952 26.2986271,3.80295878 25.8111106,0.610862906 L25.8111106,0.610862906 Z M16.5561164,17.824444 C17.2004852,17.5279655 17.8221564,17.1904025 18.4191496,16.8138371 C19.0093893,19.0839954 18.3611107,21.5369771 16.6830606,23.2152447 C15.8624425,24.0359693 14.8492246,24.625016 13.7387675,24.9295184 L12.8410689,24.0317034 C13.7730932,22.8840805 14.3000132,21.4596326 14.3349991,19.9699777 C14.3451038,19.5380068 14.3130123,19.1066452 14.2406033,18.6819872 C15.031415,18.456048 15.8048098,18.1700818 16.5561164,17.824444 L16.5561164,17.824444 Z M8.120217,20.7466723 C8.03724627,22.087377 6.96345063,23.1849265 5.60743263,23.2792837 L2.50445926,23.4951676 L2.72036597,20.3917919 C2.81476168,19.0347347 3.91333683,17.9602412 5.25249663,17.8784785 L8.120217,20.7466723 Z M9.21569471,20.4058083 L5.59341799,16.7831126 L7.60487431,15.8798637 L10.1187758,18.3940404 L9.21569471,20.4058083 Z M8.17454912,9.44173905 C7.82890544,10.1931431 7.54302709,10.9666382 7.31711718,11.7576032 C6.89261576,11.6851848 6.46141169,11.6530384 6.02924284,11.6631952 C4.53988265,11.698084 3.11561944,12.2250724 1.96809461,13.1573191 L1.07039597,12.2595041 C1.37480817,11.148903 1.96382928,10.1355029 2.7844474,9.3147276 C4.46254824,7.63645993 6.91521183,6.98819877 9.18502499,7.57851509 C8.8084577,8.17553493 8.47098923,8.79723592 8.17454912,9.44173905 Z M19.1651245,1.48379367 C21.0163772,1.01551194 22.9615687,0.895813427 24.8595876,1.13739418 C25.1053516,3.05759809 24.9860748,4.98536886 24.5152642,6.83462715 L19.1651245,1.48379367 Z" id="Shape"></path>
            <circle id="Oval" cx="22.88" cy="11.7" r="1"></circle>
        </g>
    </g>
</svg>