<svg xmlns="http://www.w3.org/2000/svg" xmlns:xlink="http://www.w3.org/1999/xlink" width="63px" height="90px" viewBox="0 0 63 90"><title>821FE3EB-0373-48B8-A733-3B031B76ED89</title><g id="Web" stroke="none" stroke-width="1" fill="none" fill-rule="evenodd"><g id="Homepage_desktopV3" transform="translate(-1434.000000, -6075.000000)" fill="#8099E8" fill-rule="nonzero"><g id="tablets" transform="translate(1434.000000, 6075.000000)"><path d="M24.545517,54.9536133 C24.0058136,54.4633485 23.170166,54.5038604 22.6799012,55.0442505 L20.6151581,57.319107 L17.9626465,54.3967437 C19.0276337,53.6132813 19.7211456,52.3519135 19.7211456,50.9305572 C19.7211456,48.5602569 17.7923584,46.6314697 15.4220581,46.6314697 L12.4440766,46.6314697 C11.7141724,46.6314697 11.1229706,47.2233582 11.1229706,47.9525757 L11.1229706,58.3868408 C11.1229706,59.1160584 11.7141724,59.7079468 12.4440766,59.7079468 C13.173294,59.7079468 13.7651825,59.1160584 13.7651825,58.3868408 L13.7651825,55.2303315 L15.1515197,55.2303315 L18.831253,59.2849731 L16.6133881,61.7287446 C16.1231231,62.2691346 16.1636353,63.1047821 16.7033387,63.595047 C16.9567109,63.8243866 17.273941,63.9376831 17.5911713,63.9376831 C17.950287,63.9376831 18.3087158,63.7914277 18.5696411,63.5044097 L20.6151581,61.2501525 L22.6613617,63.5044097 C22.9216004,63.7914277 23.2800293,63.9376831 23.6398315,63.9376831 C23.9563751,63.9376831 24.274292,63.8243866 24.5269775,63.595047 C25.0673676,63.1047821 25.1078797,62.2691346 24.6176147,61.7287446 L22.3997498,59.2849731 L24.6368408,56.8192291 C25.126419,56.2795258 25.0859071,55.4438781 24.545517,54.9536133 L24.545517,54.9536133 Z M13.7644959,49.2736816 L15.4220581,49.2736816 C16.3359833,49.2736816 17.0789337,50.0173188 17.0789337,50.931244 C17.0789337,51.845169 16.3359833,52.5881196 15.4220581,52.5881196 L13.7644959,52.5881196 L13.7644959,49.2736816 Z" id="Shape"></path><path d="M39.7416688,19.5330048 C39.8110199,19.5330048 39.8817443,19.5323182 39.9524688,19.5309448 C41.7837524,19.4890595 43.9356994,18.9157104 46.0134888,17.9166412 C48.0919648,16.9168853 49.8834229,15.5937196 51.05896,14.1895294 C52.4693299,12.505188 52.8847504,10.8283996 52.2296905,9.46678166 C51.5753174,8.10516357 50.0049591,7.3814393 47.8097534,7.43293758 C45.9784698,7.47413631 43.8265229,8.04748535 41.7480469,9.04655461 C39.6702577,10.0463105 37.8787994,11.3694764 36.7032623,12.7736664 C35.2935791,14.4580078 34.8774718,16.1347961 35.5325317,17.4964141 C36.1663056,18.8147735 37.6563263,19.5330048 39.7416688,19.5330048 Z M47.9937744,10.0744629 C49.0532685,10.0744629 49.7124482,10.3271484 49.8490907,10.6121064 C49.9822998,10.8895112 49.7845459,11.5967559 49.0333556,12.4935151 C48.3240509,13.3415223 47.2659302,14.190216 46.0354614,14.9132538 L44.1066742,10.9025575 C45.6825255,10.2928163 47.010498,10.0744629 47.9937744,10.0744629 Z M38.7288666,14.4696807 C39.438858,13.6223603 40.4969787,12.7736664 41.7274474,12.0506288 L43.6562348,16.0613251 C40.380249,17.3274994 38.1774902,16.9004058 37.9131318,16.3517762 C37.7799224,16.0743713 37.9783631,15.3671265 38.7288666,14.4696807 Z" id="Shape"></path><path d="M61.5866089,22.1546173 L59.5541382,22.1546173 L59.5541382,4.8435975 C59.5541382,2.17254639 57.3809052,0 54.7105409,0 L20.2326964,0 C19.503479,0 18.9122773,0.591201738 18.9122773,1.32110596 C18.9122773,2.0503234 19.503479,2.64221191 20.2326964,2.64221191 L54.7105409,2.64221191 C55.9245301,2.64221191 56.9119263,3.62960824 56.9119263,4.8435975 L56.9119263,22.1546173 L40.9515381,22.1546173 C40.2978516,22.1546173 39.7423554,22.6325225 39.6448516,23.2793427 C39.6331787,23.3589936 39.6180724,23.4379579 39.5995331,23.5162354 C39.1264344,25.5583192 36.5851593,27.2055816 33.3716583,27.6834869 C32.7536773,27.7754975 32.1109771,27.8242492 31.4531708,27.8242492 C30.7953643,27.8242492 30.1526641,27.7754975 29.5346832,27.6834869 C26.321869,27.2055816 23.7805938,25.5583192 23.3068085,23.5162354 C23.2889556,23.4379579 23.2738495,23.3589936 23.2614898,23.2793427 C23.1646729,22.6332091 22.6091767,22.1546173 21.9554902,22.1546173 L5.99578857,22.1546173 L5.99578857,4.8435975 C5.99578857,3.62960824 6.98318473,2.64221191 8.19717398,2.64221191 L14.9489594,2.64221191 C15.6788634,2.64221191 16.2700654,2.0503234 16.2700654,1.32110596 C16.2700654,0.591201738 15.6788634,0 14.9489594,0 L8.19717398,0 C5.52680965,0 3.35357666,2.17254639 3.35357666,4.8435975 L3.35357666,22.1546173 L1.32110596,22.1546173 C0.591201738,22.1546173 0,22.7465058 0,23.4757232 L0,88.678894 C0,89.4087983 0.591201738,90 1.32110596,90 L10.306549,90 C11.0364532,90 11.6276551,89.4087983 11.6276551,88.678894 C11.6276551,87.9496766 11.0364532,87.3577881 10.306549,87.3577881 L2.64221191,87.3577881 L2.64221191,70.5693055 L60.2655029,70.5693055 L60.2655029,87.3577881 L15.5909728,87.3577881 C14.8610688,87.3577881 14.269867,87.9496766 14.269867,88.678894 C14.269867,89.4087983 14.8610688,90 15.5909728,90 L61.5866089,90 C62.3165131,90 62.9077148,89.4087983 62.9077148,88.678894 L62.9077148,23.4757232 C62.9077148,22.7465058 62.3165131,22.1546173 61.5866089,22.1546173 Z M2.64221191,67.9277802 L2.64221191,42.6420594 L45.4415131,42.6420594 C46.1714171,42.6420594 46.7626191,42.0508575 46.7626191,41.3209533 C46.7626191,40.5917358 46.1714171,39.9998475 45.4415131,39.9998475 L2.64221191,39.9998475 L2.64221191,24.7968292 L20.940628,24.7968292 C22.0502471,27.787857 25.6578827,30.0139618 30.0627137,30.4046631 C30.5186463,30.4451752 30.9828185,30.4664611 31.4531708,30.4664611 C31.9242096,30.4664611 32.3883819,30.4451752 32.8436279,30.4046631 C37.2484589,30.0139618 40.8567811,27.787857 41.9664002,24.7968292 L60.2655029,24.7968292 L60.2655029,39.9998475 L50.7252502,39.9998475 C49.9953461,39.9998475 49.4041444,40.5917358 49.4041444,41.3209533 C49.4041444,42.0508575 49.9953461,42.6420594 50.7252502,42.6420594 L60.2655029,42.6420594 L60.2655029,67.9277802 L2.64221191,67.9277802 Z" id="Shape"></path><path d="M52.3320008,50.6545258 L32.6328277,50.6545258 C31.9029237,50.6545258 31.3117218,51.2457275 31.3117218,51.9749452 C31.3117218,52.7048492 31.9029237,53.2960509 32.6328277,53.2960509 L52.3326874,53.2960509 C53.0619049,53.2960509 53.6531066,52.7048492 53.6531066,51.9749452 C53.6531066,51.2457275 53.0619049,50.6545258 52.3320008,50.6545258 L52.3320008,50.6545258 Z" id="Path"></path><path d="M52.3320008,57.2737885 L32.6328277,57.2737885 C31.9029237,57.2737885 31.3117218,57.8649902 31.3117218,58.5948945 C31.3117218,59.3241119 31.9029237,59.9153136 32.6328277,59.9153136 L52.3326874,59.9153136 C53.0619049,59.9153136 53.6531066,59.3241119 53.6531066,58.5948945 C53.6531066,57.8649902 53.0619049,57.2737885 52.3320008,57.2737885 L52.3320008,57.2737885 Z" id="Path"></path><path d="M12.503128,12.7736664 C11.0934448,14.4580078 10.6773377,16.1354828 11.3323975,17.4971007 C11.9661713,18.8140869 13.456192,19.5330048 15.5408477,19.5330048 C15.6108857,19.5330048 15.6816102,19.5323182 15.7523346,19.5309448 C17.5829316,19.4890595 19.7355653,18.9157104 21.8133545,17.9166412 C23.8911437,16.9168853 25.6832886,15.5937196 26.8588257,14.1895294 C28.2685089,12.505188 28.6846161,10.8283996 28.0295562,9.46678166 C27.3744965,8.10516357 25.8061982,7.3814393 23.6089325,7.43293758 C21.7783355,7.47413631 19.625702,8.04748535 17.5479126,9.04655461 C15.4701232,10.0463105 13.6786651,11.370163 12.503128,12.7736664 Z M23.7929535,10.0744629 C24.8531342,10.0744629 25.5116271,10.3271484 25.6489562,10.6121064 C25.7821655,10.8895112 25.583725,11.5967559 24.8325347,12.4935151 C24.12323,13.3415223 23.0651093,14.190216 21.8353271,14.9132538 L19.9058534,10.9025575 C21.4823914,10.2928163 22.8103638,10.0744629 23.7929535,10.0744629 Z M14.5287323,14.4696807 C15.2380371,13.6223603 16.2961578,12.7736664 17.5266265,12.0506288 L19.4554139,16.0613251 C16.1801147,17.3274994 13.9766694,16.9004058 13.7129975,16.3517762 C13.5797882,16.0743713 13.7782287,15.3671265 14.5287323,14.4696807 Z" id="Shape"></path></g></g></g></svg>