<?xml version="1.0" encoding="UTF-8"?> <svg xmlns="http://www.w3.org/2000/svg" xmlns:xlink="http://www.w3.org/1999/xlink" width="80px" height="80px" viewBox="0 0 80 80" version="1.1"><title>Group 5</title><desc>Created with Sketch.</desc><g id="Page-1" stroke="none" stroke-width="1" fill="none" fill-rule="evenodd"><g id="Desktop-Version" transform="translate(-710.000000, -5227.000000)"><g id="Group-6" transform="translate(690.000000, 5185.000000)"><g id="Group-5" transform="translate(20.880000, 42.480000)"><circle id="Oval" fill="#E1E1E1" cx="16.848" cy="36.504" r="3.744"></circle><circle id="Oval-Copy-4" fill="#E1E1E1" cx="58.032" cy="44.46" r="4.212"></circle><circle id="Oval-Copy-9" fill="#E1E1E1" cx="61.308" cy="5.148" r="4.212"></circle><circle id="Oval-Copy-2" fill="#E1E1E1" cx="36.504" cy="39.312" r="4.68"></circle><circle id="Oval-Copy-3" fill="#E1E1E1" cx="33.228" cy="59.904" r="5.616"></circle><circle id="Oval-Copy" fill="#E1E1E1" cx="25.272" cy="50.544" r="1.872"></circle><circle id="Oval-Copy-8" fill="#E1E1E1" cx="71.136" cy="15.912" r="1.872"></circle><circle id="Oval-Copy-5" fill="#E1E1E1" cx="50.076" cy="36.036" r="2.34"></circle><circle id="Oval-Copy-6" fill="#E1E1E1" cx="29.952" cy="16.848" r="2.808"></circle><circle id="Oval-Copy-7" fill="#E1E1E1" cx="60.84" cy="19.656" r="2.808"></circle><path d="M76.1882491,36.6288668 C75.6966362,36.701211 75.1971045,36.738 74.6928,36.738 C71.1587723,36.738 67.9707284,34.9247052 66.1290619,32.084677 C64.6229044,32.5604247 63.0404847,32.8068 61.425,32.8068 C52.8050501,32.8068 45.8172,25.8189499 45.8172,17.199 C45.8172,14.9288789 46.3040277,12.7273984 47.223606,10.716017 C45.7232086,9.20409106 44.8344,7.13649187 44.8344,4.914 C44.8344,4.1879205 44.9290671,3.47566058 45.1110174,2.79179628 C43.2066593,2.49195315 41.2696818,2.34 39.312,2.34 C18.8929282,2.34 2.34,18.8929282 2.34,39.312 C2.34,59.7310718 18.8929282,76.284 39.312,76.284 C59.7310718,76.284 76.284,59.7310718 76.284,39.312 C76.284,38.4131087 76.2519656,37.5183615 76.1882491,36.6288668 Z" id="Path-Copy-2" stroke="#E1E1E1" stroke-width="4.68"></path></g></g></g></g></svg> 